<?xml version="1.0" encoding="UTF-8" standalone="no"?>
<svg
   xmlns:dc="http://purl.org/dc/elements/1.1/"
   xmlns:cc="http://creativecommons.org/ns#"
   xmlns:rdf="http://www.w3.org/1999/02/22-rdf-syntax-ns#"
   xmlns:svg="http://www.w3.org/2000/svg"
   xmlns="http://www.w3.org/2000/svg"
   xmlns:sodipodi="http://sodipodi.sourceforge.net/DTD/sodipodi-0.dtd"
   xmlns:inkscape="http://www.inkscape.org/namespaces/inkscape"
   width="8.5in"
   height="11in"
   viewBox="-163 -355 764.99996 990.00001"
   version="1.1"
   id="svg3342"
   inkscape:version="0.91 r13725"
   sodipodi:docname="hat-v1.svg">
  <metadata
     id="metadata3352">
    <rdf:RDF>
      <cc:Work
         rdf:about="">
        <dc:format>image/svg+xml</dc:format>
        <dc:type
           rdf:resource="http://purl.org/dc/dcmitype/StillImage" />
        <dc:title>OpenSCAD Model</dc:title>
      </cc:Work>
    </rdf:RDF>
  </metadata>
  <defs
     id="defs3350" />
  <sodipodi:namedview
     pagecolor="#ffffff"
     bordercolor="#666666"
     borderopacity="1"
     objecttolerance="10"
     gridtolerance="10"
     guidetolerance="10"
     inkscape:pageopacity="0"
     inkscape:pageshadow="2"
     inkscape:window-width="1855"
     inkscape:window-height="1056"
     id="namedview3348"
     showgrid="true"
     units="in"
     inkscape:document-units="in"
     inkscape:object-nodes="true"
     inkscape:object-paths="true"
     fit-margin-top="0"
     fit-margin-left="0"
     fit-margin-right="0"
     fit-margin-bottom="0"
     inkscape:zoom="0.20486111"
     inkscape:cx="-1549.2188"
     inkscape:cy="1622.3939"
     inkscape:window-x="65"
     inkscape:window-y="24"
     inkscape:window-maximized="1"
     inkscape:current-layer="svg3342"
     inkscape:snap-nodes="false">
    <inkscape:grid
       type="xygrid"
       id="grid3354"
       units="in"
       spacingx="89.999998"
       spacingy="90.000002"
       originx="-544.60195"
       originy="1742.5241" />
  </sodipodi:namedview>
  <title
     id="title3344">OpenSCAD Model</title>
  <g
     id="g3440">
    <g
       transform="matrix(0.46172152,-0.88702494,0.88702494,0.46172152,291.02392,-1153.2913)"
       style="fill:none"
       id="g3404">
      <path
         inkscape:connector-curvature="0"
         style="fill:none;stroke:#000000;stroke-width:1.76999998"
         d="m 442.30839,44.42531 5.41701,-0.66198 25.26279,-4.66218 5.05123,-1.239 24.21253,-7.44462 4.49333,-1.6461 23.22169,-9.95094 3.85293,-1.87266 22.28112,-12.17406 3.21821,-1.93638 21.38231,-14.12106 2.64721,-1.89036 20.5143,-15.7884 2.16471,-1.77708 19.66329,-17.1867 1.77708,-1.63902 18.81262,-18.3195 1.47901,-1.50804 17.94178,-19.19388 1.26166,-1.40892 17.02704,-19.824 1.1144,-1.35228 16.04257,-20.22048 1.0266,-1.3452 14.96393,-20.3904 0.98837,-1.40538 13.76777,-20.34438 0.99261,-1.53282 12.43496,-20.09304 1.03085,-1.7523 10.95134,-19.62222 1.09599,-2.09214 9.30312,-18.94609 1.17528,-2.5984 7.49064,-18.061 1.239,-3.3595 5.49408,-16.9601 1.20714,-4.5135 3.3276,-15.6468 0.98412,-9.3456 -0.98412,-9.3492 -2.9028,-8.9385 -4.70112,-8.1384 -6.28704,-6.9845 -7.60498,-5.5259 -8.58627,-3.8232 -9.19338,-1.9541 -9.3987,0 -9.19338,1.9541 -8.58627,3.8232 -7.60392,5.5224 -5.12734,5.4587 -14.10371,17.7637 -13.7391,16.6628 -13.62298,15.891 -13.50475,15.1158 -13.38828,14.3229 -13.29199,13.5086 -13.21942,12.66615 -13.19004,11.78112 -13.21588,10.87842 -13.31819,9.95448 -13.5051,9.03054 -13.79786,8.1066 -14.19858,7.20036 -14.71295,6.3012 -15.33599,5.3985 -16.06027,4.48872 -16.87447,3.55416 -17.76443,2.59128 -18.71991,1.58238 -20.93178,0.57348 -9.31703,1.23546 -8.85619,3.14706 -8.0083,4.9206 -6.81046,6.4782 -5.31492,7.74906 -3.58708,8.68716 -1.83726,12.72276 0,106.20708 0.98235,9.3456 2.90457,8.94204 4.69935,8.13846 6.28895,6.98442 7.60374,5.52594 8.58627,3.81966 9.19338,1.95408 7.44173,0.16284 z"
         id="path3393" />
      <path
         inkscape:connector-curvature="0"
         style="fill:none;stroke:#000000;stroke-width:1.76999998"
         d="m 413.18237,-105.04411 22.2169,-0.60534 21.34952,-1.80894 20.50581,-2.98776 19.687,-4.14534 18.89617,-5.28168 18.13719,-6.38616 17.41573,-7.45878 16.73996,-8.48892 16.12222,-9.47658 15.57352,-10.4076 15.10695,-11.2926 14.73136,-12.1245 14.45205,-12.91392 14.26478,-13.6644 14.16177,-14.39364 14.12779,-15.11583 14.14725,-15.8344 14.20319,-16.5672 14.27894,-17.3177 14.36072,-18.0894 -3.32618,15.6504 -5.49656,16.9601 -7.48852,18.0611 -9.30489,18.9461 -10.95099,19.62219 -12.43531,20.0895 -13.76777,20.34792 -14.96358,20.39394 -16.04257,20.22048 -17.02669,19.824 -17.94178,19.19388 -18.81262,18.3195 -19.66329,17.1867 -20.51394,15.79194 -21.38267,14.12106 -22.28111,12.17406 -23.22134,9.9474 -24.21254,7.44108 -25.26285,4.66571999 L 413.18237,1.16297 Z"
         id="path3391" />
    </g>
    <g
       transform="matrix(-0.21521259,0.97656722,-0.97656722,-0.21521259,453.05536,-2032.0453)"
       style="fill:none"
       id="g3408">
      <path
         inkscape:connector-curvature="0"
         style="fill:none;stroke:#000000;stroke-width:1.76999998"
         d="m 387.74311,498.20375 3.06465,-0.18408 26.63847,-2.51694 2.31664,-0.46728 0.0232,0.15576 20.06309,-2.96298 1.65966,-0.27612 19.55843,-3.64266 1.64221,-0.3363 19.04838,-4.28694 1.61814,-0.39648 18.54358,-4.89936 1.58804,-0.45312 18.04445,-5.48346 1.55264,-0.50268 17.55026,-6.03924 1.51122,-0.55224 17.0628,-6.56316 1.46627,-0.59472 16.58101,-7.05522 1.4167,-0.63366 16.10594,-7.5225 1.36432,-0.66552 15.63759,-7.95438 1.3091,-0.69384 15.17598,-8.36148 1.25316,-0.71862 14.72144,-8.73672 1.1951,-0.73632 14.2747,-9.08718 1.13705,-0.75048 13.83573,-9.40932 1.07864,-0.75402 13.40527,-9.70314 1.02094,-0.7611 12.98295,-9.96864 0.96394,-0.7611 12.56983,-10.2129 0.90837,-0.75756 12.16627,-10.4253 0.85385,-0.75048 11.77227,-10.61292 0.79827,-0.73986 11.36375,-10.75452 0.93208,-0.90978 16.38525,-16.43268 0.99474,-1.03014 15.59724,-16.6734 0.885,-0.9735 14.85384,-16.83978 0.7788,-0.90624 14.16708,-16.94598 0.6726,-0.82128 13.53342,-16.992 0.56994,-0.73278 12.97056,-16.992 0.47082,-0.62658 12.47496,-16.94952 0.36816,-0.50622 12.32628,-17.25042 11.89794,-17.00262 11.56518,-16.73358 11.38818,-16.51764 11.3103,-16.24152 11.35278,-15.92292 11.5581,-15.59016 11.93688,-15.21846 12.53514,-14.82198 13.39182,-14.39364 14.57418,-13.97946 16.13172,-13.6467 19.0913,-14.19894 6.9136,-6.36492 5.441,-7.6641 3.724,-8.63052 1.8515,-9.21462 -0.1027,-9.3987 -2.0567,-9.1686 -5.7455,-11.37756 -21.2293,-30.3909 -6.1596,-7.10124 -7.5013,-5.664 -8.51368,-3.9825 -9.15444,-2.124 -9.3987,-0.17346 -9.22524,1.78062 -12.09618,5.77374 -21.28956,14.40426 -20.36562,12.83604 -20.30898,11.70678 -20.64174,10.70142 -21.30018,9.8589 -22.1073,9.16152 -22.93566,8.59158 -23.67198,8.12784 -24.24794,7.76322 -24.6299,7.49063999 -24.80832,7.30656001 -24.80054,7.21806 -24.59662,7.21098 -23.5226,7.08708 -0.57949,0.18054 -22.52821,7.12248 -0.87084,0.2832 -21.2846,7.21098 -1.22343,0.43188 -19.78895,7.3455 -1.67017,0.65844 -18.04267,7.52958 -2.25923,1.01952 -16.05072,7.76322 -3.04475,1.61778 -5.85941,3.41256 -8.39192,1.03368 -5.90224,0.71154 -5.91251,0.708 -6.01836,0.708 -5.99109,0.70092 -12.27955,1.40892 -12.41797,1.40184 -12.60983,1.40538 -19.31853,2.124 -26.41951,2.86386 -0.25025,0.0566 -25.83934,2.84262 -25.18431,2.89218 -24.38953,2.92404 -23.64508,2.98068 -22.94734,3.04086 -22.29386,3.12228 -21.68285,3.21078 -21.11115,3.3099 -20.5766,3.41256 -20.0757,3.5223 -19.60664,3.63558 -19.16627,3.74178 -18.75279,3.84798 -18.36269,3.94002 -17.99595,4.02498 -17.64902,4.09224 -17.32051,4.1418 -17.01324,4.16658 -16.71942,4.16304 -16.4397604,4.13118 -8.82876,3.22848 -7.9614596,4.99494 -6.74724,6.54192 -5.24274,7.80216 -3.5046,8.71902 -1.61424,9.26064 0.34338,9.39162 1.42308,6.50298 7.61454,25.54464 1.27794,3.69576 9.61464,24.31272 1.57884,3.53646 11.50853958,23.0631 1.83726002,3.32052 13.2785404,21.79224 2.04966,3.07272 14.93172,20.50014 2.21604,2.80368 16.45746,19.1868 2.34348,2.5311 17.85894,17.84868 2.44013,2.2656 19.13865,16.48578 2.51234,2.01072 20.29659,15.09456 2.56898,1.77708 21.33735,13.67502 2.61712,1.55406 22.26448,12.2307 2.66314,1.34874 23.08363,10.75098 2.71058,1.15404 23.80083,9.2394 2.76191,0.96996 24.42246,7.69242 2.81855,0.78942 24.95629,6.1065 2.87873,0.60534 25.41083,4.48518 2.93926,0.41772 25.79598,2.81076 2.99519,0.22656 26.12166,1.09032 3.0398,0.0248 z"
         id="path3389" />
      <path
         inkscape:connector-curvature="0"
         style="fill:none;stroke:#000000;stroke-width:1.76999998"
         d="m 334.05912,452.85281 -25.79598,-2.81076 -25.41118,-4.48518 -24.95629,-6.1065 -24.42246,-7.69242 -23.80049,-9.2394 -23.08398,-10.75098 -22.26448,-12.22716 -21.33735,-13.67856 -20.29694,-15.09456 -19.1383,-16.48224 -17.85966,-17.85222 -16.4571,-19.1868 -14.93066,-20.50368 -13.27854,-21.79224 -11.50854,-23.05956 -9.61464,-24.31272 -7.61454,-25.54464 16.4433,-4.13118 16.62738,-4.1418 16.83907,-4.12056 17.08121,-4.08162 17.35202,-4.02498 17.65291,-3.9471 17.98497,-3.8586 18.34959,-3.76302 18.74855,-3.66036 19.18255,-3.55062 19.65373,-3.44796 20.16419,-3.34176 20.71467,-3.24618 21.30726,-3.15414 21.9434,-3.06918 22.62484,-2.99838 23.35303,-2.94174 24.12829,-2.89572 24.95239,-2.86032 25.81566,-2.84262 0,-0.0283 26.45616,-2.87094 19.36681,-2.12754 12.68594,-1.41246 12.50576,-1.41246 12.32699,-1.416 6.09659,-0.71154 6.05234,-0.71154 6.00773,-0.71862 5.96419,-0.71862 5.91994,-0.72924 5.87605,-0.72924 5.83215,-0.73986 0.007,0.007 13.79326,-8.02872 16.05071,-7.76322 18.04268,-7.52958 19.78895,-7.34904 21.2846,-7.20744 22.52821,-7.12248 23.52259,-7.08708 24.27237,-7.1154 24.78389,-7.21098 25.06816,-7.38444 25.13683,-7.6464 25.00656,-8.00394 24.70212,-8.48184 24.24192,-9.0801 23.67198,-9.80934001 23.04186,-10.66601999 22.42944,-11.6289 21.94446,-12.65196 21.73206,-13.69626 21.89136,-14.81136 21.23294,30.3909 -20.2205,15.03792 -18.28056,15.46272 -16.51056,15.83796 -14.98836,16.107 -13.75644,16.26984 -12.82896,16.3548 -12.16698,16.41144 -11.73864,16.46454 -11.50854,16.52826 -11.4519,16.60614 -11.5404,16.69818 -11.74572,16.79022 -12.06786,16.87872 -12.47496,16.94598 -12.97056,16.992 -13.53342,16.992 -14.16708,16.94598 -14.8549,16.83978 -15.5976,16.6734 -16.3856,16.43268 -11.3641,10.75806 -11.77227,10.61646 -12.16628,10.42176 -12.56983,10.2129 -12.9833,9.96864 -13.40492,9.70314 -13.83609,9.40932 -14.2747,9.08718 -14.72179,8.74026 -15.17598,8.36148 -15.6376,7.95438 -16.10594,7.5225 -16.58136,7.05876 -17.0628,6.56316 -17.55026,6.03924 -18.04409,5.48346 -18.54358,4.9029 -19.04839,4.28694 -19.55843,3.63912 -20.06309,2.96298 0,0.0283 -26.63846,2.51694 -26.39845,0.68322 z"
         id="path3387" />
    </g>
    <g
       transform="matrix(0.64634788,-0.76304284,0.76304286,0.64634792,-487.82517,-1124.4103)"
       style="fill:none"
       id="g3395">
      <path
         inkscape:connector-curvature="0"
         style="fill:none;stroke:#000000;stroke-width:1.76999998"
         d="m 416.28597,945.1737 26.34824,-1.80221 6.01931,-0.82341 25.26321,-5.21442 5.51851,-1.51052 24.21147,-8.31733 4.79706,-1.96382 23.2185,-11.10866 4.00799,-2.17384 22.27404,-13.58607 3.26281,-2.19164 21.36744,-15.749 2.62102,-2.08697 20.48704,-17.5988 2.09816,-1.92115 19.6201,-19.13937 1.68893,-1.73885 18.75032,-20.37588 1.37954,-1.57105 17.85753,-21.31505 1.15439,-1.43689 16.92085,-21.9664 0.99863,-1.34733 15.91549,-22.33811 0.90093,-1.31263 14.81808,-22.43829 0.85137,-1.34024 13.60528,-22.27404 0.84288,-1.43901 12.25831,-21.85136 0.86872,-1.62627 10.76089,-21.17203 0.92358,-1.93 9.10134,-20.23712 0.99864,-2.40472 7.27116,-19.04627 1.06908,-3.14635 5.26752,-17.59875 1.06554,-4.33013 3.0798,-15.89319 0.81774,-9.36365 -1.1505,-9.3279 -3.06564,-8.88469 -4.84272,-8.0535 -6.41448,-6.87114 -7.70021,-5.38788 -8.65318,-3.67098 -9.22701,-1.7877 -9.39728,0.16992 -9.15692,2.11692 -8.51618,3.97542 -7.50373,5.66046 -4.99955,5.50824 -13.80139,17.9963 -13.45519,16.88792 -13.34651,16.10098 -13.23854,15.30661 -13.13623,14.48639 -13.05304,13.63643 -13.00207,12.75214 -13.001,11.8413 -13.05941,10.9078 -13.19252,9.9651 -13.41696,9.02912 -13.73697,8.10448 -14.16389,7.19611 -14.69348,6.29518 -15.32891,5.39602 -16.06027,4.48589 -16.87553,3.55204 -17.76762,2.58738 -18.72235,1.5838 -19.68805,0.53737 -19.68801,-0.53737 -18.72242,-1.5838 -17.76726,-2.58738 -16.87589,-3.55204 -16.06027,-4.48589 -15.32891,-5.39602 -14.69347,-6.29518 -14.1639,-7.19611 -13.73697,-8.10448 -13.4166,-9.02912 -13.19252,-9.9651 -13.05976,-10.9078 -13.00101,-11.8413 -13.00171,-12.75214 -13.0534,-13.63643 -13.13623,-14.48639 -13.23854,-15.30661 -13.3465,-16.10098 -13.45519,-16.88792 -13.8014,-17.9963 -6.46758,-6.82158 -7.74446,-5.32416 -8.6822,-3.60018 -9.24082,-1.71336 -9.39586,0.24072 -9.13958,2.19126 -8.48431,4.04622 -7.45772,5.7171 -6.1065,7.14726 -4.48872,8.25882 -2.66916,9.01001 -0.73986,9.36967 0.80712,7.3947 3.0798,15.89319 1.06554,4.33013 5.26752,17.59875 1.06908,3.14635 7.27116,19.04627 0.99863,2.40472 9.10134,20.23712 0.92359,1.93 10.76089,21.17203 0.86872,1.62627 12.25831,21.85136 0.84287,1.43866 13.60528,22.27439 0.85137,1.34024 14.81809,22.43829 0.90093,1.31263 15.91549,22.33811 0.99863,1.34733 16.92085,21.9664 1.15439,1.43653 17.85753,21.31541 1.37954,1.57105 18.75032,20.37588 1.68893,1.73885 19.6201,19.13937 2.09815,1.92115 20.48705,17.59876 2.62101,2.08694 21.36744,15.749 3.26317,2.19165 22.27368,13.58609 4.00799,2.17381 23.21851,11.1087 4.79705,1.96381 24.21148,8.31737 5.51886,1.51052 25.26285,5.21442 6.02345,0.82341 26.38352,1.80256 z"
         id="path3385" />
      <path
         inkscape:connector-curvature="0"
         style="fill:none;stroke:#000000;stroke-width:1.76999998"
         d="m 386.83422,898.51812 -25.26293,-5.21424 -24.21147,-8.31723 -23.21886,-11.10869 -22.27368,-13.58603 -21.36744,-15.7491 L 250.01279,826.94407 230.3927,807.80471 211.64273,787.42882 193.78485,766.11342 176.864,744.14701 160.94852,721.8089 146.13008,699.37097 132.5248,677.09658 120.26648,655.24523 109.50595,634.0732 l -9.10134,-20.23712 -7.27152,-19.04662 -5.26646,-17.5984 -3.08192,-15.89318 14.05451,18.32693 13.98618,17.55415 13.92636,16.80084 13.89132,16.06098 13.89768,15.32643 13.96318,14.58728 14.10265,13.83183 14.3278,13.04951 14.64321,12.2307 15.05031,11.368 15.54095,10.45893 16.10594,9.50207 16.73393,8.50166 17.41397,7.4609 18.1379,6.38475 18.89687,5.27814 19.68771,4.14428 20.50616,2.98599 21.34971,1.80611 22.19903,0.60569 22.19911,-0.60569 21.3496,-1.80611 20.50616,-2.98599 19.68771,-4.14428 18.89723,-5.27814 18.13754,-6.38475 17.41397,-7.4609 16.73394,-8.50166 16.10629,-9.50207 15.5406,-10.45893 15.05031,-11.368 14.64356,-12.2307 14.32744,-13.04951 14.10266,-13.83183 13.96317,-14.58728 13.89769,-15.32643 13.89131,-16.06098 13.92636,-16.80084 13.98619,-17.55415 14.05451,-18.32693 -3.08193,15.89318 -5.26646,17.5984 -7.27151,19.04662 -9.10134,20.23712 -10.76054,21.17203 -12.25831,21.85135 -13.60528,22.27439 -14.81809,22.43829 -15.91584,22.33775 -16.92084,21.96641 -17.85789,21.3154 -18.74996,20.37589 -19.6201,19.13936 -20.48704,17.59876 -21.36744,15.7491 -22.27368,13.5861 -23.21886,11.10866 -24.21148,8.31727 -25.26289,5.21421 -26.3482,1.80241 z"
         id="path3383" />
    </g>
    <g
       transform="matrix(0,1,1,0,-1119.5448,-540.1982)"
       style="fill:none"
       id="g3399">
      <path
         inkscape:connector-curvature="0"
         style="fill:none;stroke:#000000;stroke-width:1.76999998"
         d="m -36.42595,1678.7902 11.63598,-4.3861 21.9727796,-11.9793 20.8824604,-9.4943 21.2577,-7.919 21.63683,-6.4428 22.01278,-5.0551 22.37564,-3.7453 22.71795,-2.5205 23.03619,-1.3735 23.32789,-0.3115 23.59977,0.6584 23.85641,1.5222 24.12227,2.2833 24.40016,2.9134 24.72159,3.4055 25.09683,3.7382 25.6165,3.9047 26.20627,3.8763 25.90656,3.5187 0.86876,0.1098 26.23147,3.0408 1.16951,0.1204 26.65039,2.3859 0.64216,0.053 20.21411,1.5187 19.86577,1.501 19.55142,1.4655 19.26574,1.4089 19.00555,1.3346 18.76979,1.2319 18.55456,1.1151 18.35808,0.9806 18.1779,0.8178 18.01117,0.6442 17.85576,0.4496 17.11873,0.2266 0.59012,0.01 16.92226,0 0.6464,-0.01 16.7304,-0.2337 0.7034,-0.018 16.54065,-0.492 0.75862,-0.028 16.35161,-0.7647 0.81562,-0.046 16.1601,-1.0478 0.87225,-0.067 15.96576,-1.3487 0.92748,-0.088 15.76362,-1.6603 0.9912,-0.1168 15.55476,-1.9895 1.32396,-0.1876 22.8861,-3.6214 1.70274,-0.3045 22.39758,-4.4321 1.84434,-0.4071 21.82764,-5.2816 1.98594,-0.531 21.20814,-6.1703 2.12754,-0.6761 20.532,-7.0977 2.26914,-0.8531 19.79568,-8.0642 2.40366,-1.062 18.9921,-9.0624 2.52402,-1.3027 18.1248,-10.0996 2.62314,-1.5824 17.17965,-11.1722 2.6904,-1.8939 16.1565,-12.2767 2.7081,-2.2302 15.0627,-13.4202 2.6656,-2.5771 13.8804,-14.5954 2.5559,-2.9276 12.6201,-15.799 2.3682,-3.2497 11.2714,-17.0381 2.1098,-3.5258 9.8377,-18.3124 1.7877,-3.7276 8.319,-19.6152 1.4266,-3.8409 6.7118,-20.9532 1.0479,-3.8622 5.0126,-22.3232 0.6832,-3.7949 3.225,-23.7251 0.3434,-3.6497 1.1505,-21.463 0.081,-0.4071 0.043,-2.4674 0.028,0 0.046,-0.8248 -0.042,-0.8319 0.042,-2.3258 -0.046,-0.8248 -0.1593,0.01 -0.043,-0.8284 0.1593,-0.01 -1.2603,-23.5091 -0.3434,-3.6498 -3.2249,-23.7251 -0.6832,-3.7948 -5.0127,-22.3233 -1.0478,-3.8621 -6.7118,-20.9529 -1.4267,-3.842 -8.319,-19.6151 -1.7877,-3.7277 -9.8376,-18.3102 -2.1099,-3.5259 -11.2713,-17.0384 -2.3683,-3.2515 -12.6201,-15.799 -2.5559,-2.9286 -13.8803,-14.5922 -2.6656,-2.58 -15.0627,-13.4187 -2.7081,-2.2292 -16.1566,-12.2785 -2.6904,-1.8917 -17.17959,-11.1723 -2.62314,-1.582 -18.1248,-10.1003 -2.52402,-1.3045 -18.9921,-9.0635 -2.40366,-1.0616 -19.79568,-8.0624 -2.26914,-0.8535 -20.532,-7.098 -2.12754,-0.6769 -21.20814,-6.1709 -1.98594,-0.5289 -21.82764,-5.2824 -1.84434,-0.4056 -22.39758,-4.4332 -1.70274,-0.3034 -22.8861,-3.6217 -1.32396,-0.1891 -15.55476,-1.9895 -0.9912,-0.1154 -15.76362,-1.6623 -0.92748,-0.089 -15.96576,-1.3488 -0.87225,-0.065 -16.1601,-1.0492 -0.81562,-0.046 -16.35161,-0.7636 -0.75862,-0.029 -16.54065,-0.4928 -0.7034,-0.015 -16.7304,-0.2368 -0.6464,0 -16.92226,0 -0.59012,0 -17.65256,0.2389 -17.79912,0.4521 -17.95418,0.6464 -18.1209,0.8213 -18.30074,0.9777 -18.49792,1.1141 -18.71279,1.2312 -18.94997,1.3282 -19.21052,1.4054 -19.49797,1.4616 -19.82966,1.4989 -20.21836,1.5172 -0.64853,0.053 -26.65057,2.3885 -1.16685,0.1196 -26.23147,3.0426 -0.86876,0.1091 -26.44394,3.5934 -25.86005,3.83 -25.42534,3.8766 -25.09683,3.7375 -24.72159,3.4045 -24.40016,2.9137 -24.12227,2.2823 -23.85641,1.5254 -23.59977,0.6573 -23.32789,-0.3118 -23.03619,-1.3732 -22.71795,-2.5191 -22.37564,-3.7471 -22.01278,-5.0544 -21.63683,-6.4435 -21.2577,-7.92 -20.8824604,-9.494 -21.9727796,-11.9804 -8.67654,-3.6118 -9.2394,-1.7286 -9.39516,0.2294 -9.14382,2.1781 -8.48892,4.0317 -7.46586,5.7086 -7.76676,9.7096 -70.84248,119.2941 -3.9294,8.5384 -2.06382,9.169 -0.11682,9.398 1.8408,9.2167 3.717,8.6323 5.43036,7.6712 6.90654,6.3745 4.1064,2.724 34.1787,20.0661 31.7361,18.161 0.52392,0.2938 29.85636,16.5601 0.6372,0.3505 28.12884,15.0096 0.79296,0.4106 26.57478,13.5122 0.97704,0.4814 25.2225,12.0679 1.17882,0.5416 24.09607,10.6837 1.39334,0.5877 23.21214,9.3703 1.58379,0.6054 22.59618,8.1455 0.36143,0.1204 -0.36143,0.1203 -22.59618,8.1456 -1.58379,0.6053 -23.21214,9.3704 -1.39334,0.5876 -24.09607,10.6838 -1.17882,0.5416 -25.2225,12.0678 -0.97704,0.4815 -26.57478,13.5122 -0.79296,0.4106 -28.12884,15.0096 -0.6372,0.3505 -29.85636,16.5601 -0.52392,0.2938 -32.17152,18.4115 -33.74328,19.817 -7.56144,5.579 -6.23748,7.0304 -4.64094,8.1739 -2.83908,8.9597 -0.91332,9.3527 1.05138,9.3421 2.97006,8.9172 2.27976,4.3684 70.84248,119.2945 5.61798,7.5331 7.05876,6.2021 8.19864,4.602 8.9739,2.793 9.35976,0.8673 z"
         id="path3381" />
      <path
         inkscape:connector-curvature="0"
         style="fill:none;stroke:#000000;stroke-width:1.76999998"
         d="m -117.15211,1515.6387 33.74328,-19.8134 31.7361,-18.1602 29.85636,-16.5601 28.1288396,-15.0096 26.5747804,-13.5122 25.22604,-12.0679 24.09324,-10.6837 23.21178,-9.3668 22.59653,-8.1456 22.26412,-7.0233 22.22447,-6.0216 22.47971,-5.1507 23.02027,-4.4179 23.82809,-3.8161 24.87841,-3.3418 26.14078,-2.9736 27.58332,-2.6904 29.17739,-2.4815 30.89415,-2.3152 32.62529,-2.1841 -32.62529,-2.1842 -30.89415,-2.3152 -29.17739,-2.4815 -27.58332,-2.6904 -26.14078,-2.9736 -24.87841,-3.3418 -23.82809,-3.8161 -23.02027,-4.4179 -22.47971,-5.1507 -22.22447,-6.0216 -22.26412,-7.0233 -22.59653,-8.1456 -23.21178,-9.3668 -24.09324,-10.6837 -25.22604,-12.0679 -26.5747804,-13.5104 -28.1288396,-15.0107 -29.85636,-16.5601 -31.7361,-18.1609 -33.74328,-19.8141 70.84248,-119.2941 23.40294,12.76 23.79941958,10.8207 24.14988042,8.9979 24.45786,7.2839 24.72053,5.6757 24.93186,4.1751 25.09612,2.7832 25.21507,1.5027 25.29188,0.3381 25.33401,-0.7056 25.34994,-1.6206 25.35101,-2.3987 25.351,-3.027 25.36587,-3.4933 25.41295,-3.7846 25.50853,-3.8894 25.669,-3.8009 25.90668,-3.5174 26.23147,-3.0422 26.65082,-2.3885 20.23464,-1.5183 19.8378,-1.4995 19.47,-1.4596 19.1291,-1.3993 18.81369,-1.3183 18.52057,-1.2185 18.24834,-1.0985 17.99489,-0.96 17.7577,-0.8036 17.53397,-0.629 17.32193,-0.4376 17.11873,-0.229 16.92226,0 16.7304,0.2365 16.54065,0.4927 16.35161,0.7636 16.15975,1.0493 15.96363,1.349 15.76362,1.6628 15.5583,1.9895 22.8861,3.6214 22.39758,4.4335 21.82764,5.2824 21.2046,6.1709 20.532,7.0977 19.79568,8.0623 18.99564,9.0635 18.12126,10.1003 17.17962,11.1723 16.16009,12.2781 15.0627,13.4187 13.8803,14.5923 12.6201,15.799 11.2749,17.0384 9.8377,18.3103 8.319,19.6165 6.7118,20.9497 5.0127,22.3233 3.2249,23.7251 1.2567,23.5091 0.089,0 -0.043,0.8284 0.043,0.8283 -0.089,0 -1.2567,23.5092 -3.2249,23.725 -5.0127,22.3233 -6.7118,20.9497 -8.319,19.6151 -9.8377,18.3125 -11.2749,17.038 -12.6201,15.799 -13.8803,14.5919 -15.0627,13.4201 -16.16009,12.2767 -17.17962,11.1723 -18.12126,10.0996 -18.99564,9.0659 -19.79568,8.0606 -20.532,7.0977 -21.2046,6.1702 -21.82764,5.2817 -22.39758,4.4356 -22.8861,3.6215 -15.5583,1.9894 -15.76362,1.6603 -15.96363,1.3523 -16.15975,1.0478 -16.35161,0.7647 -16.54065,0.492 -16.7304,0.2372 -16.92226,0 -17.11873,-0.2301 -17.32193,-0.439 -17.53397,-0.6265 -17.7577,-0.8036 -17.99489,-0.9629 -18.24834,-1.0974 -18.52057,-1.2178 -18.81369,-1.3204 -19.1291,-1.3983 -19.47,-1.4585 -19.8378,-1.5009 -20.235,-1.5187 -26.65046,-2.3859 -26.23147,-3.0444 -25.90668,-3.5153 -25.669,-3.8019 -25.50853,-3.8905 -25.41295,-3.7842 -25.36587,-3.494 -25.351,-3.0267 -25.35101,-2.3966 -25.34994,-1.6213 -25.33401,-0.7045 -25.29188,0.3363 -25.21507,1.5045 -25.09612,2.7825 -24.93186,4.1736 -24.72053,5.6782 -24.45786,7.2818 -24.14988042,8.9986 -23.79941958,10.8218 -23.40294,12.7582 z"
         id="path3379" />
      <path
         inkscape:connector-curvature="0"
         style="fill:none;stroke:#000000;stroke-width:1.76999998"
         d="m 862.76237,1170.071 -359.664,0 0,359.664 359.664,0 z"
         id="path3346" />
    </g>
  </g>
</svg>
