  0
SECTION
  2
BLOCKS
  0
ENDSEC
  0
SECTION
  2
ENTITIES
  0
LINE
  8
0
 10
-45.5556
 20
211.223
 11
-42.9995
 21
211.941
  0
LINE
  8
0
 10
-42.9995
 20
211.941
 11
-40.6484
 21
213.175
  0
LINE
  8
0
 10
-40.6484
 20
213.175
 11
-38.6053
 21
214.87
  0
LINE
  8
0
 10
-38.6053
 20
214.87
 11
-36.9592
 21
216.954
  0
LINE
  8
0
 10
-36.9592
 20
216.954
 11
-35.4087
 21
220.518
  0
LINE
  8
0
 10
-35.4087
 20
220.518
 11
-32.7499
 21
230.645
  0
LINE
  8
0
 10
-32.7499
 20
230.645
 11
-30.1916
 21
239.815
  0
LINE
  8
0
 10
-30.1916
 20
239.815
 11
-27.6565
 21
248.26
  0
LINE
  8
0
 10
-27.6565
 20
248.26
 11
-25.0774
 21
256.136
  0
LINE
  8
0
 10
-25.0774
 20
256.136
 11
-22.391
 21
263.604
  0
LINE
  8
0
 10
-22.391
 20
263.604
 11
-19.5525
 21
270.811
  0
LINE
  8
0
 10
-19.5525
 20
270.811
 11
-16.5402
 21
277.875
  0
LINE
  8
0
 10
-16.5402
 20
277.875
 11
-13.3566
 21
284.882
  0
LINE
  8
0
 10
-13.3566
 20
284.882
 11
-10.027
 21
291.877
  0
LINE
  8
0
 10
-10.027
 20
291.877
 11
-6.59201
 21
298.881
  0
LINE
  8
0
 10
-6.59201
 20
298.881
 11
0.389984
 21
312.911
  0
LINE
  8
0
 10
0.389984
 20
312.911
 11
3.81587
 21
319.889
  0
LINE
  8
0
 10
3.81587
 20
319.889
 11
7.01965
 21
326.594
  0
LINE
  8
0
 10
7.01965
 20
326.594
 11
7.10867
 21
326.784
  0
LINE
  8
0
 10
7.10867
 20
326.784
 11
10.0855
 21
333.289
  0
LINE
  8
0
 10
10.0855
 20
333.289
 11
10.2051
 21
333.559
  0
LINE
  8
0
 10
10.2051
 20
333.559
 11
12.8899
 21
339.805
  0
LINE
  8
0
 10
12.8899
 20
339.805
 11
13.0423
 21
340.175
  0
LINE
  8
0
 10
13.0423
 20
340.175
 11
15.3697
 21
346.098
  0
LINE
  8
0
 10
15.3697
 20
346.098
 11
15.5576
 21
346.608
  0
LINE
  8
0
 10
15.5576
 20
346.608
 11
17.4617
 21
352.138
  0
LINE
  8
0
 10
17.4617
 20
352.138
 11
17.685
 21
352.854
  0
LINE
  8
0
 10
17.685
 20
352.854
 11
19.1002
 21
357.918
  0
LINE
  8
0
 10
19.1002
 20
357.918
 11
19.345
 21
358.962
  0
LINE
  8
0
 10
19.345
 20
358.962
 11
19.735
 21
361.012
  0
LINE
  8
0
 10
19.735
 20
361.012
 11
20.0764
 21
361.535
  0
LINE
  8
0
 10
20.0764
 20
361.535
 11
20.9274
 21
362.833
  0
LINE
  8
0
 10
20.9274
 20
362.833
 11
21.7912
 21
364.143
  0
LINE
  8
0
 10
21.7912
 20
364.143
 11
22.6584
 21
365.454
  0
LINE
  8
0
 10
22.6584
 20
365.454
 11
23.5309
 21
366.766
  0
LINE
  8
0
 10
23.5309
 20
366.766
 11
24.4146
 21
368.091
  0
LINE
  8
0
 10
24.4146
 20
368.091
 11
25.301
 21
369.415
  0
LINE
  8
0
 10
25.301
 20
369.415
 11
26.1891
 21
370.737
  0
LINE
  8
0
 10
26.1891
 20
370.737
 11
27.0922
 21
372.077
  0
LINE
  8
0
 10
27.0922
 20
372.077
 11
28.9109
 21
374.766
  0
LINE
  8
0
 10
28.9109
 20
374.766
 11
30.7413
 21
377.46
  0
LINE
  8
0
 10
30.7413
 20
377.46
 11
32.5947
 21
380.178
  0
LINE
  8
0
 10
32.5947
 20
380.178
 11
35.4127
 21
384.295
  0
LINE
  8
0
 10
35.4127
 20
384.295
 11
36.3525
 21
385.666
  0
LINE
  8
0
 10
36.3525
 20
385.666
 11
36.3861
 21
385.728
  0
LINE
  8
0
 10
36.3861
 20
385.728
 11
40.5277
 21
391.788
  0
LINE
  8
0
 10
40.5277
 20
391.788
 11
44.54
 21
397.711
  0
LINE
  8
0
 10
44.54
 20
397.711
 11
48.4008
 21
403.468
  0
LINE
  8
0
 10
48.4008
 20
403.468
 11
52.1163
 21
409.071
  0
LINE
  8
0
 10
52.1163
 20
409.071
 11
55.6926
 21
414.534
  0
LINE
  8
0
 10
55.6926
 20
414.534
 11
59.1357
 21
419.868
  0
LINE
  8
0
 10
59.1357
 20
419.868
 11
62.4508
 21
425.085
  0
LINE
  8
0
 10
62.4508
 20
425.085
 11
65.6437
 21
430.196
  0
LINE
  8
0
 10
65.6437
 20
430.196
 11
68.7195
 21
435.209
  0
LINE
  8
0
 10
68.7195
 20
435.209
 11
71.6837
 21
440.133
  0
LINE
  8
0
 10
71.6837
 20
440.133
 11
74.5417
 21
444.976
  0
LINE
  8
0
 10
74.5417
 20
444.976
 11
77.2989
 21
449.744
  0
LINE
  8
0
 10
77.2989
 20
449.744
 11
79.9609
 21
454.442
  0
LINE
  8
0
 10
79.9609
 20
454.442
 11
82.5337
 21
459.074
  0
LINE
  8
0
 10
82.5337
 20
459.074
 11
85.0236
 21
463.644
  0
LINE
  8
0
 10
85.0236
 20
463.644
 11
87.4371
 21
468.154
  0
LINE
  8
0
 10
87.4371
 20
468.154
 11
89.7813
 21
472.603
  0
LINE
  8
0
 10
89.7813
 20
472.603
 11
92.0639
 21
476.991
  0
LINE
  8
0
 10
92.0639
 20
476.991
 11
94.2931
 21
481.317
  0
LINE
  8
0
 10
94.2931
 20
481.317
 11
96.4779
 21
485.578
  0
LINE
  8
0
 10
96.4779
 20
485.578
 11
97.4355
 21
488.055
  0
LINE
  8
0
 10
97.4355
 20
488.055
 11
97.8574
 21
490.676
  0
LINE
  8
0
 10
97.8574
 20
490.676
 11
97.7251
 21
493.328
  0
LINE
  8
0
 10
97.7251
 20
493.328
 11
97.0443
 21
495.894
  0
LINE
  8
0
 10
97.0443
 20
495.894
 11
95.8448
 21
498.263
  0
LINE
  8
0
 10
95.8448
 20
498.263
 11
94.1791
 21
500.33
  0
LINE
  8
0
 10
94.1791
 20
500.33
 11
92.12
 21
502.006
  0
LINE
  8
0
 10
92.12
 20
502.006
 11
90.4783
 21
502.913
  0
LINE
  8
0
 10
90.4783
 20
502.913
 11
83.5691
 21
506.087
  0
LINE
  8
0
 10
83.5691
 20
506.087
 11
82.5847
 21
506.49
  0
LINE
  8
0
 10
82.5847
 20
506.49
 11
75.443
 21
509.072
  0
LINE
  8
0
 10
75.443
 20
509.072
 11
74.471
 21
509.38
  0
LINE
  8
0
 10
74.471
 20
509.38
 11
67.1349
 21
511.383
  0
LINE
  8
0
 10
67.1349
 20
511.383
 11
66.1866
 21
511.603
  0
LINE
  8
0
 10
66.1866
 20
511.603
 11
58.6967
 21
513.043
  0
LINE
  8
0
 10
58.6967
 20
513.043
 11
57.7785
 21
513.185
  0
LINE
  8
0
 10
57.7785
 20
513.185
 11
50.1763
 21
514.076
  0
LINE
  8
0
 10
50.1763
 20
514.076
 11
49.29
 21
514.149
  0
LINE
  8
0
 10
49.29
 20
514.149
 11
41.6179
 21
514.507
  0
LINE
  8
0
 10
41.6179
 20
514.507
 11
40.7622
 21
514.518
  0
LINE
  8
0
 10
40.7622
 20
514.518
 11
33.0625
 21
514.359
  0
LINE
  8
0
 10
33.0625
 20
514.359
 11
32.2342
 21
514.314
  0
LINE
  8
0
 10
32.2342
 20
514.314
 11
24.5494
 21
513.651
  0
LINE
  8
0
 10
24.5494
 20
513.651
 11
23.7435
 21
513.556
  0
LINE
  8
0
 10
23.7435
 20
513.556
 11
16.1155
 21
512.404
  0
LINE
  8
0
 10
16.1155
 20
512.404
 11
15.3267
 21
512.259
  0
LINE
  8
0
 10
15.3267
 20
512.259
 11
7.79703
 21
510.629
  0
LINE
  8
0
 10
7.79703
 20
510.629
 11
7.01945
 21
510.435
  0
LINE
  8
0
 10
7.01945
 20
510.435
 11
-0.370895
 21
508.34
  0
LINE
  8
0
 10
-0.370895
 20
508.34
 11
-1.14265
 21
508.095
  0
LINE
  8
0
 10
-1.14265
 20
508.095
 11
-8.35344
 21
505.544
  0
LINE
  8
0
 10
-8.35344
 20
505.544
 11
-9.12393
 21
505.243
  0
LINE
  8
0
 10
-9.12393
 20
505.243
 11
-16.1158
 21
502.244
  0
LINE
  8
0
 10
-16.1158
 20
502.244
 11
-16.8883
 21
501.882
  0
LINE
  8
0
 10
-16.8883
 20
501.882
 11
-23.6225
 21
498.441
  0
LINE
  8
0
 10
-23.6225
 20
498.441
 11
-24.3983
 21
498.01
  0
LINE
  8
0
 10
-24.3983
 20
498.01
 11
-30.8373
 21
494.13
  0
LINE
  8
0
 10
-30.8373
 20
494.13
 11
-31.6146
 21
493.622
  0
LINE
  8
0
 10
-31.6146
 20
493.622
 11
-37.7217
 21
489.305
  0
LINE
  8
0
 10
-37.7217
 20
489.305
 11
-38.4952
 21
488.712
  0
LINE
  8
0
 10
-38.4952
 20
488.712
 11
-44.2348
 21
483.954
  0
LINE
  8
0
 10
-44.2348
 20
483.954
 11
-44.9948
 21
483.271
  0
LINE
  8
0
 10
-44.9948
 20
483.271
 11
-50.3326
 21
478.068
  0
LINE
  8
0
 10
-50.3326
 20
478.068
 11
-51.0652
 21
477.291
  0
LINE
  8
0
 10
-51.0652
 20
477.291
 11
-55.968
 21
471.633
  0
LINE
  8
0
 10
-55.968
 20
471.633
 11
-56.6555
 21
470.766
  0
LINE
  8
0
 10
-56.6555
 20
470.766
 11
-61.0914
 21
464.643
  0
LINE
  8
0
 10
-61.0914
 20
464.643
 11
-61.4928
 21
463.945
  0
LINE
  8
0
 10
-61.4928
 20
463.945
 11
-61.5362
 21
463.973
  0
LINE
  8
0
 10
-61.5362
 20
463.973
 11
-64.6048
 21
459.118
  0
LINE
  8
0
 10
-64.6048
 20
459.118
 11
-64.8592
 21
458.697
  0
LINE
  8
0
 10
-64.8592
 20
458.697
 11
-67.6969
 21
453.798
  0
LINE
  8
0
 10
-67.6969
 20
453.798
 11
-67.9316
 21
453.374
  0
LINE
  8
0
 10
-67.9316
 20
453.374
 11
-70.544
 21
448.438
  0
LINE
  8
0
 10
-70.544
 20
448.438
 11
-70.7588
 21
448.013
  0
LINE
  8
0
 10
-70.7588
 20
448.013
 11
-73.1531
 21
443.048
  0
LINE
  8
0
 10
-73.1531
 20
443.048
 11
-73.3483
 21
442.624
  0
LINE
  8
0
 10
-73.3483
 20
442.624
 11
-75.5315
 21
437.635
  0
LINE
  8
0
 10
-75.5315
 20
437.635
 11
-75.7072
 21
437.213
  0
LINE
  8
0
 10
-75.7072
 20
437.213
 11
-77.6866
 21
432.207
  0
LINE
  8
0
 10
-77.6866
 20
432.207
 11
-77.8435
 21
431.789
  0
LINE
  8
0
 10
-77.8435
 20
431.789
 11
-79.6259
 21
426.772
  0
LINE
  8
0
 10
-79.6259
 20
426.772
 11
-79.7646
 21
426.36
  0
LINE
  8
0
 10
-79.7646
 20
426.36
 11
-81.3574
 21
421.337
  0
LINE
  8
0
 10
-81.3574
 20
421.337
 11
-81.4787
 21
420.931
  0
LINE
  8
0
 10
-81.4787
 20
420.931
 11
-82.8887
 21
415.91
  0
LINE
  8
0
 10
-82.8887
 20
415.91
 11
-82.9936
 21
415.512
  0
LINE
  8
0
 10
-82.9936
 20
415.512
 11
-84.2281
 21
410.497
  0
LINE
  8
0
 10
-84.2281
 20
410.497
 11
-84.3174
 21
410.107
  0
LINE
  8
0
 10
-84.3174
 20
410.107
 11
-85.3833
 21
405.104
  0
LINE
  8
0
 10
-85.3833
 20
405.104
 11
-85.4582
 21
404.725
  0
LINE
  8
0
 10
-85.4582
 20
404.725
 11
-86.3626
 21
399.739
  0
LINE
  8
0
 10
-86.3626
 20
399.739
 11
-86.424
 21
399.37
  0
LINE
  8
0
 10
-86.424
 20
399.37
 11
-87.1739
 21
394.406
  0
LINE
  8
0
 10
-87.1739
 20
394.406
 11
-87.2229
 21
394.048
  0
LINE
  8
0
 10
-87.2229
 20
394.048
 11
-87.8252
 21
389.113
  0
LINE
  8
0
 10
-87.8252
 20
389.113
 11
-87.8628
 21
388.765
  0
LINE
  8
0
 10
-87.8628
 20
388.765
 11
-88.3246
 21
383.862
  0
LINE
  8
0
 10
-88.3246
 20
383.862
 11
-88.3518
 21
383.526
  0
LINE
  8
0
 10
-88.3518
 20
383.526
 11
-88.6798
 21
378.661
  0
LINE
  8
0
 10
-88.6798
 20
378.661
 11
-88.6975
 21
378.336
  0
LINE
  8
0
 10
-88.6975
 20
378.336
 11
-88.8986
 21
373.513
  0
LINE
  8
0
 10
-88.8986
 20
373.513
 11
-88.9078
 21
373.199
  0
LINE
  8
0
 10
-88.9078
 20
373.199
 11
-88.9887
 21
368.422
  0
LINE
  8
0
 10
-88.9887
 20
368.422
 11
-88.9902
 21
368.119
  0
LINE
  8
0
 10
-88.9902
 20
368.119
 11
-88.9575
 21
363.392
  0
LINE
  8
0
 10
-88.9575
 20
363.392
 11
-88.9522
 21
363.101
  0
LINE
  8
0
 10
-88.9522
 20
363.101
 11
-88.8134
 21
358.438
  0
LINE
  8
0
 10
-88.8134
 20
358.438
 11
-88.7981
 21
358.087
  0
LINE
  8
0
 10
-88.7981
 20
358.087
 11
-88.4015
 21
351.183
  0
LINE
  8
0
 10
-88.4015
 20
351.183
 11
-88.3726
 21
350.788
  0
LINE
  8
0
 10
-88.3726
 20
350.788
 11
-87.7715
 21
344.02
  0
LINE
  8
0
 10
-87.7715
 20
344.02
 11
-87.734
 21
343.656
  0
LINE
  8
0
 10
-87.734
 20
343.656
 11
-86.9526
 21
337.029
  0
LINE
  8
0
 10
-86.9526
 20
337.029
 11
-86.9094
 21
336.699
  0
LINE
  8
0
 10
-86.9094
 20
336.699
 11
-85.9722
 21
330.215
  0
LINE
  8
0
 10
-85.9722
 20
330.215
 11
-85.9265
 21
329.923
  0
LINE
  8
0
 10
-85.9265
 20
329.923
 11
-84.8584
 21
323.579
  0
LINE
  8
0
 10
-84.8584
 20
323.579
 11
-84.8138
 21
323.329
  0
LINE
  8
0
 10
-84.8138
 20
323.329
 11
-83.6402
 21
317.119
  0
LINE
  8
0
 10
-83.6402
 20
317.119
 11
-83.6007
 21
316.919
  0
LINE
  8
0
 10
-83.6007
 20
316.919
 11
-82.318
 21
310.687
  0
LINE
  8
0
 10
-82.318
 20
310.687
 11
-80.9984
 21
304.625
  0
LINE
  8
0
 10
-80.9984
 20
304.625
 11
-79.6743
 21
298.711
  0
LINE
  8
0
 10
-79.6743
 20
298.711
 11
-78.377
 21
292.898
  0
LINE
  8
0
 10
-78.377
 20
292.898
 11
-77.1514
 21
287.179
  0
LINE
  8
0
 10
-77.1514
 20
287.179
 11
-76.0414
 21
281.524
  0
LINE
  8
0
 10
-76.0414
 20
281.524
 11
-75.0926
 21
275.887
  0
LINE
  8
0
 10
-75.0926
 20
275.887
 11
-74.3534
 21
270.213
  0
LINE
  8
0
 10
-74.3534
 20
270.213
 11
-73.8758
 21
264.436
  0
LINE
  8
0
 10
-73.8758
 20
264.436
 11
-73.7157
 21
258.482
  0
LINE
  8
0
 10
-73.7157
 20
258.482
 11
-73.9323
 21
252.27
  0
LINE
  8
0
 10
-73.9323
 20
252.27
 11
-74.5849
 21
245.718
  0
LINE
  8
0
 10
-74.5849
 20
245.718
 11
-75.7282
 21
238.751
  0
LINE
  8
0
 10
-75.7282
 20
238.751
 11
-77.4834
 21
230.981
  0
LINE
  8
0
 10
-77.4834
 20
230.981
 11
-77.7944
 21
228.344
  0
LINE
  8
0
 10
-77.7944
 20
228.344
 11
-77.5504
 21
225.7
  0
LINE
  8
0
 10
-77.5504
 20
225.7
 11
-76.7621
 21
223.165
  0
LINE
  8
0
 10
-76.7621
 20
223.165
 11
-75.4639
 21
220.849
  0
LINE
  8
0
 10
-75.4639
 20
220.849
 11
-73.7125
 21
218.854
  0
LINE
  8
0
 10
-73.7125
 20
218.854
 11
-71.5846
 21
217.266
  0
LINE
  8
0
 10
-71.5846
 20
217.266
 11
-68.2352
 21
215.877
  0
LINE
  8
0
 10
-68.2352
 20
215.877
 11
-50.8323
 21
211.437
  0
LINE
  8
0
 10
-50.8323
 20
211.437
 11
-48.2051
 21
211.053
  0
LINE
  8
0
 10
-48.2051
 20
211.053
 11
-45.5556
 21
211.223
  0
LINE
  8
0
 10
-65.0954
 20
228.183
 11
-63.257
 21
236.322
  0
LINE
  8
0
 10
-63.257
 20
236.322
 11
-61.9873
 21
244.058
  0
LINE
  8
0
 10
-61.9873
 20
244.058
 11
-61.2542
 21
251.419
  0
LINE
  8
0
 10
-61.2542
 20
251.419
 11
-61.0098
 21
258.432
  0
LINE
  8
0
 10
-61.0098
 20
258.432
 11
-61.1899
 21
265.131
  0
LINE
  8
0
 10
-61.1899
 20
265.131
 11
-61.7212
 21
271.557
  0
LINE
  8
0
 10
-61.7212
 20
271.557
 11
-62.5296
 21
277.762
  0
LINE
  8
0
 10
-62.5296
 20
277.762
 11
-63.5461
 21
283.801
  0
LINE
  8
0
 10
-63.5461
 20
283.801
 11
-64.7103
 21
289.733
  0
LINE
  8
0
 10
-64.7103
 20
289.733
 11
-65.9701
 21
295.611
  0
LINE
  8
0
 10
-65.9701
 20
295.611
 11
-67.2811
 21
301.485
  0
LINE
  8
0
 10
-67.2811
 20
301.485
 11
-68.6051
 21
307.4
  0
LINE
  8
0
 10
-68.6051
 20
307.4
 11
-69.9086
 21
313.388
  0
LINE
  8
0
 10
-69.9086
 20
313.388
 11
-71.1611
 21
319.477
  0
LINE
  8
0
 10
-71.1611
 20
319.477
 11
-72.3347
 21
325.688
  0
LINE
  8
0
 10
-72.3347
 20
325.688
 11
-73.4028
 21
332.031
  0
LINE
  8
0
 10
-73.4028
 20
332.031
 11
-74.34
 21
338.516
  0
LINE
  8
0
 10
-74.34
 20
338.516
 11
-75.1213
 21
345.143
  0
LINE
  8
0
 10
-75.1213
 20
345.143
 11
-75.7224
 21
351.912
  0
LINE
  8
0
 10
-75.7224
 20
351.912
 11
-76.119
 21
358.815
  0
LINE
  8
0
 10
-76.119
 20
358.815
 11
-76.2578
 21
363.479
  0
LINE
  8
0
 10
-76.2578
 20
363.479
 11
-76.2905
 21
368.206
  0
LINE
  8
0
 10
-76.2905
 20
368.206
 11
-76.2096
 21
372.984
  0
LINE
  8
0
 10
-76.2096
 20
372.984
 11
-76.0085
 21
377.807
  0
LINE
  8
0
 10
-76.0085
 20
377.807
 11
-75.6805
 21
382.672
  0
LINE
  8
0
 10
-75.6805
 20
382.672
 11
-75.2188
 21
387.574
  0
LINE
  8
0
 10
-75.2188
 20
387.574
 11
-74.6164
 21
392.509
  0
LINE
  8
0
 10
-74.6164
 20
392.509
 11
-73.8665
 21
397.472
  0
LINE
  8
0
 10
-73.8665
 20
397.472
 11
-72.9621
 21
402.458
  0
LINE
  8
0
 10
-72.9621
 20
402.458
 11
-71.8961
 21
407.461
  0
LINE
  8
0
 10
-71.8961
 20
407.461
 11
-70.6617
 21
412.476
  0
LINE
  8
0
 10
-70.6617
 20
412.476
 11
-69.2516
 21
417.498
  0
LINE
  8
0
 10
-69.2516
 20
417.498
 11
-67.6588
 21
422.52
  0
LINE
  8
0
 10
-67.6588
 20
422.52
 11
-65.8763
 21
427.537
  0
LINE
  8
0
 10
-65.8763
 20
427.537
 11
-63.897
 21
432.543
  0
LINE
  8
0
 10
-63.897
 20
432.543
 11
-61.7137
 21
437.532
  0
LINE
  8
0
 10
-61.7137
 20
437.532
 11
-59.3194
 21
442.497
  0
LINE
  8
0
 10
-59.3194
 20
442.497
 11
-56.707
 21
447.433
  0
LINE
  8
0
 10
-56.707
 20
447.433
 11
-53.8693
 21
452.333
  0
LINE
  8
0
 10
-53.8693
 20
452.333
 11
-50.8007
 21
457.188
  0
LINE
  8
0
 10
-50.8007
 20
457.188
 11
-50.8064
 21
457.192
  0
LINE
  8
0
 10
-50.8064
 20
457.192
 11
-46.3704
 21
463.316
  0
LINE
  8
0
 10
-46.3704
 20
463.316
 11
-41.4677
 21
468.973
  0
LINE
  8
0
 10
-41.4677
 20
468.973
 11
-36.1299
 21
474.177
  0
LINE
  8
0
 10
-36.1299
 20
474.177
 11
-30.3903
 21
478.935
  0
LINE
  8
0
 10
-30.3903
 20
478.935
 11
-24.2832
 21
483.252
  0
LINE
  8
0
 10
-24.2832
 20
483.252
 11
-17.8442
 21
487.132
  0
LINE
  8
0
 10
-17.8442
 20
487.132
 11
-11.11
 21
490.572
  0
LINE
  8
0
 10
-11.11
 20
490.572
 11
-4.11815
 21
493.571
  0
LINE
  8
0
 10
-4.11815
 20
493.571
 11
3.09262
 21
496.122
  0
LINE
  8
0
 10
3.09262
 20
496.122
 11
10.483
 21
498.217
  0
LINE
  8
0
 10
10.483
 20
498.217
 11
18.0127
 21
499.846
  0
LINE
  8
0
 10
18.0127
 20
499.846
 11
25.6407
 21
500.998
  0
LINE
  8
0
 10
25.6407
 20
500.998
 11
33.3256
 21
501.661
  0
LINE
  8
0
 10
33.3256
 20
501.661
 11
41.0253
 21
501.821
  0
LINE
  8
0
 10
41.0253
 20
501.821
 11
48.6974
 21
501.462
  0
LINE
  8
0
 10
48.6974
 20
501.462
 11
56.2995
 21
500.571
  0
LINE
  8
0
 10
56.2995
 20
500.571
 11
63.7895
 21
499.131
  0
LINE
  8
0
 10
63.7895
 20
499.131
 11
71.1255
 21
497.128
  0
LINE
  8
0
 10
71.1255
 20
497.128
 11
78.2673
 21
494.547
  0
LINE
  8
0
 10
78.2673
 20
494.547
 11
85.1765
 21
491.372
  0
LINE
  8
0
 10
85.1765
 20
491.372
 11
82.9918
 21
487.111
  0
LINE
  8
0
 10
82.9918
 20
487.111
 11
80.7746
 21
482.808
  0
LINE
  8
0
 10
80.7746
 20
482.808
 11
78.5145
 21
478.463
  0
LINE
  8
0
 10
78.5145
 20
478.463
 11
76.2016
 21
474.074
  0
LINE
  8
0
 10
76.2016
 20
474.074
 11
73.8269
 21
469.638
  0
LINE
  8
0
 10
73.8269
 20
469.638
 11
71.3819
 21
465.151
  0
LINE
  8
0
 10
71.3819
 20
465.151
 11
68.8587
 21
460.609
  0
LINE
  8
0
 10
68.8587
 20
460.609
 11
66.2498
 21
456.005
  0
LINE
  8
0
 10
66.2498
 20
456.005
 11
63.5482
 21
451.334
  0
LINE
  8
0
 10
63.5482
 20
451.334
 11
60.7468
 21
446.588
  0
LINE
  8
0
 10
60.7468
 20
446.588
 11
57.8394
 21
441.759
  0
LINE
  8
0
 10
57.8394
 20
441.759
 11
54.8194
 21
436.838
  0
LINE
  8
0
 10
54.8194
 20
436.838
 11
51.6807
 21
431.816
  0
LINE
  8
0
 10
51.6807
 20
431.816
 11
48.4171
 21
426.68
  0
LINE
  8
0
 10
48.4171
 20
426.68
 11
45.0226
 21
421.422
  0
LINE
  8
0
 10
45.0226
 20
421.422
 11
41.491
 21
416.028
  0
LINE
  8
0
 10
41.491
 20
416.028
 11
37.8165
 21
410.486
  0
LINE
  8
0
 10
37.8165
 20
410.486
 11
33.9927
 21
404.785
  0
LINE
  8
0
 10
33.9927
 20
404.785
 11
30.0133
 21
398.911
  0
LINE
  8
0
 10
30.0133
 20
398.911
 11
25.8737
 21
392.854
  0
LINE
  8
0
 10
25.8737
 20
392.854
 11
25.8793
 21
392.849
  0
LINE
  8
0
 10
25.8793
 20
392.849
 11
24.9322
 21
391.468
  0
LINE
  8
0
 10
24.9322
 20
391.468
 11
22.1094
 21
387.344
  0
LINE
  8
0
 10
22.1094
 20
387.344
 11
20.245
 21
384.61
  0
LINE
  8
0
 10
20.245
 20
384.61
 11
18.3963
 21
381.889
  0
LINE
  8
0
 10
18.3963
 20
381.889
 11
16.565
 21
379.181
  0
LINE
  8
0
 10
16.565
 20
379.181
 11
15.6563
 21
377.833
  0
LINE
  8
0
 10
15.6563
 20
377.833
 11
14.7527
 21
376.487
  0
LINE
  8
0
 10
14.7527
 20
376.487
 11
13.8543
 21
375.146
  0
LINE
  8
0
 10
13.8543
 20
375.146
 11
12.9613
 21
373.807
  0
LINE
  8
0
 10
12.9613
 20
373.807
 11
12.0739
 21
372.472
  0
LINE
  8
0
 10
12.0739
 20
372.472
 11
11.1924
 21
371.14
  0
LINE
  8
0
 10
11.1924
 20
371.14
 11
10.317
 21
369.812
  0
LINE
  8
0
 10
10.317
 20
369.812
 11
9.44794
 21
368.487
  0
LINE
  8
0
 10
9.44794
 20
368.487
 11
8.58546
 21
367.165
  0
LINE
  8
0
 10
8.58546
 20
367.165
 11
7.72978
 21
365.847
  0
LINE
  8
0
 10
7.72978
 20
365.847
 11
7.72699
 21
365.846
  0
LINE
  8
0
 10
7.72699
 20
365.846
 11
6.86887
 21
361.336
  0
LINE
  8
0
 10
6.86887
 20
361.336
 11
5.45374
 21
356.273
  0
LINE
  8
0
 10
5.45374
 20
356.273
 11
3.54955
 21
350.743
  0
LINE
  8
0
 10
3.54955
 20
350.743
 11
1.22215
 21
344.82
  0
LINE
  8
0
 10
1.22215
 20
344.82
 11
-1.46269
 21
338.574
  0
LINE
  8
0
 10
-1.46269
 20
338.574
 11
-4.43953
 21
332.069
  0
LINE
  8
0
 10
-4.43953
 20
332.069
 11
-7.64331
 21
325.364
  0
LINE
  8
0
 10
-7.64331
 20
325.364
 11
-11.0096
 21
318.509
  0
LINE
  8
0
 10
-11.0096
 20
318.509
 11
-17.9788
 21
304.505
  0
LINE
  8
0
 10
-17.9788
 20
304.505
 11
-21.4622
 21
297.402
  0
LINE
  8
0
 10
-21.4622
 20
297.402
 11
-24.8723
 21
290.238
  0
LINE
  8
0
 10
-24.8723
 20
290.238
 11
-28.164
 21
282.994
  0
LINE
  8
0
 10
-28.164
 20
282.994
 11
-31.3042
 21
275.629
  0
LINE
  8
0
 10
-31.3042
 20
275.629
 11
-34.2771
 21
268.081
  0
LINE
  8
0
 10
-34.2771
 20
268.081
 11
-37.0896
 21
260.263
  0
LINE
  8
0
 10
-37.0896
 20
260.263
 11
-39.775
 21
252.063
  0
LINE
  8
0
 10
-39.775
 20
252.063
 11
-42.3911
 21
243.347
  0
LINE
  8
0
 10
-42.3911
 20
243.347
 11
-45.009
 21
233.964
  0
LINE
  8
0
 10
-45.009
 20
233.964
 11
-47.6924
 21
223.742
  0
LINE
  8
0
 10
-47.6924
 20
223.742
 11
-65.0954
 21
228.183
  0
LINE
  8
0
 10
89.4301
 20
46.3806
 11
92.0079
 21
47.0161
  0
LINE
  8
0
 10
92.0079
 20
47.0161
 11
94.3973
 21
48.1738
  0
LINE
  8
0
 10
94.3973
 20
48.1738
 11
96.4938
 21
49.8029
  0
LINE
  8
0
 10
96.4938
 20
49.8029
 11
98.2057
 21
51.8323
  0
LINE
  8
0
 10
98.2057
 20
51.8323
 11
99.4583
 21
54.1732
  0
LINE
  8
0
 10
99.4583
 20
54.1732
 11
100.197
 21
56.7235
  0
LINE
  8
0
 10
100.197
 20
56.7235
 11
100.395
 21
58.8938
  0
LINE
  8
0
 10
100.395
 20
58.8938
 11
100.42
 21
63.4951
  0
LINE
  8
0
 10
100.42
 20
63.4951
 11
100.38
 21
64.5679
  0
LINE
  8
0
 10
100.38
 20
64.5679
 11
99.9643
 21
69.8089
  0
LINE
  8
0
 10
99.9643
 20
69.8089
 11
99.8761
 21
70.6027
  0
LINE
  8
0
 10
99.8761
 20
70.6027
 11
99.0478
 21
76.3922
  0
LINE
  8
0
 10
99.0478
 20
76.3922
 11
98.9401
 21
77.029
  0
LINE
  8
0
 10
98.9401
 20
77.029
 11
97.7198
 21
83.2745
  0
LINE
  8
0
 10
97.7198
 20
83.2745
 11
97.5987
 21
83.8282
  0
LINE
  8
0
 10
97.5987
 20
83.8282
 11
95.9985
 21
90.4359
  0
LINE
  8
0
 10
95.9985
 20
90.4359
 11
95.8611
 21
90.955
  0
LINE
  8
0
 10
95.8611
 20
90.955
 11
93.8849
 21
97.8304
  0
LINE
  8
0
 10
93.8849
 20
97.8304
 11
93.7238
 21
98.349
  0
LINE
  8
0
 10
93.7238
 20
98.349
 11
91.3675
 21
105.397
  0
LINE
  8
0
 10
91.3675
 20
105.397
 11
91.1717
 21
105.941
  0
LINE
  8
0
 10
91.1717
 20
105.941
 11
88.4231
 21
113.066
  0
LINE
  8
0
 10
88.4231
 20
113.066
 11
88.1781
 21
113.657
  0
LINE
  8
0
 10
88.1781
 20
113.657
 11
85.0171
 21
120.763
  0
LINE
  8
0
 10
85.0171
 20
120.763
 11
84.7043
 21
121.416
  0
LINE
  8
0
 10
84.7043
 20
121.416
 11
81.104
 21
128.408
  0
LINE
  8
0
 10
81.104
 20
128.408
 11
80.7
 21
129.133
  0
LINE
  8
0
 10
80.7
 20
129.133
 11
76.6268
 21
135.914
  0
LINE
  8
0
 10
76.6268
 20
135.914
 11
76.104
 21
136.715
  0
LINE
  8
0
 10
76.104
 20
136.715
 11
71.5186
 21
143.19
  0
LINE
  8
0
 10
71.5186
 20
143.19
 11
70.8464
 21
144.057
  0
LINE
  8
0
 10
70.8464
 20
144.057
 11
65.7044
 21
150.13
  0
LINE
  8
0
 10
65.7044
 20
150.13
 11
64.8542
 21
151.039
  0
LINE
  8
0
 10
64.8542
 20
151.039
 11
59.1071
 21
156.613
  0
LINE
  8
0
 10
59.1071
 20
156.613
 11
58.0607
 21
157.523
  0
LINE
  8
0
 10
58.0607
 20
157.523
 11
51.6564
 21
162.502
  0
LINE
  8
0
 10
51.6564
 20
162.502
 11
50.4167
 21
163.353
  0
LINE
  8
0
 10
50.4167
 20
163.353
 11
43.3003
 21
167.642
  0
LINE
  8
0
 10
43.3003
 20
167.642
 11
41.9001
 21
168.372
  0
LINE
  8
0
 10
41.9001
 20
168.372
 11
34.0145
 21
171.875
  0
LINE
  8
0
 10
34.0145
 20
171.875
 11
32.5164
 21
172.43
  0
LINE
  8
0
 10
32.5164
 20
172.43
 11
23.8026
 21
175.051
  0
LINE
  8
0
 10
23.8026
 20
175.051
 11
22.2863
 21
175.407
  0
LINE
  8
0
 10
22.2863
 20
175.407
 11
12.6839
 21
177.049
  0
LINE
  8
0
 10
12.6839
 20
177.049
 11
11.2254
 21
177.213
  0
LINE
  8
0
 10
11.2254
 20
177.213
 11
0.672836
 21
177.781
  0
LINE
  8
0
 10
0.672836
 20
177.781
 11
-0.693481
 21
177.781
  0
LINE
  8
0
 10
-0.693481
 20
177.781
 11
-11.236
 21
177.213
  0
LINE
  8
0
 10
-11.236
 20
177.213
 11
-12.6939
 21
177.049
  0
LINE
  8
0
 10
-12.6939
 20
177.049
 11
-22.2963
 21
175.407
  0
LINE
  8
0
 10
-22.2963
 20
175.407
 11
-23.8126
 21
175.051
  0
LINE
  8
0
 10
-23.8126
 20
175.051
 11
-32.5265
 21
172.43
  0
LINE
  8
0
 10
-32.5265
 20
172.43
 11
-34.0245
 21
171.875
  0
LINE
  8
0
 10
-34.0245
 20
171.875
 11
-41.9101
 21
168.372
  0
LINE
  8
0
 10
-41.9101
 20
168.372
 11
-43.3103
 21
167.642
  0
LINE
  8
0
 10
-43.3103
 20
167.642
 11
-50.4267
 21
163.353
  0
LINE
  8
0
 10
-50.4267
 20
163.353
 11
-51.6664
 21
162.502
  0
LINE
  8
0
 10
-51.6664
 20
162.502
 11
-58.0707
 21
157.523
  0
LINE
  8
0
 10
-58.0707
 20
157.523
 11
-59.1171
 21
156.613
  0
LINE
  8
0
 10
-59.1171
 20
156.613
 11
-64.8642
 21
151.039
  0
LINE
  8
0
 10
-64.8642
 20
151.039
 11
-65.7144
 21
150.13
  0
LINE
  8
0
 10
-65.7144
 20
150.13
 11
-70.8564
 21
144.057
  0
LINE
  8
0
 10
-70.8564
 20
144.057
 11
-71.5286
 21
143.19
  0
LINE
  8
0
 10
-71.5286
 20
143.19
 11
-76.114
 21
136.715
  0
LINE
  8
0
 10
-76.114
 20
136.715
 11
-76.6369
 21
135.914
  0
LINE
  8
0
 10
-76.6369
 20
135.914
 11
-80.7101
 21
129.133
  0
LINE
  8
0
 10
-80.7101
 20
129.133
 11
-81.114
 21
128.408
  0
LINE
  8
0
 10
-81.114
 20
128.408
 11
-84.7143
 21
121.416
  0
LINE
  8
0
 10
-84.7143
 20
121.416
 11
-85.0271
 21
120.763
  0
LINE
  8
0
 10
-85.0271
 20
120.763
 11
-88.1881
 21
113.657
  0
LINE
  8
0
 10
-88.1881
 20
113.657
 11
-88.4331
 21
113.066
  0
LINE
  8
0
 10
-88.4331
 20
113.066
 11
-91.1817
 21
105.941
  0
LINE
  8
0
 10
-91.1817
 20
105.941
 11
-91.3775
 21
105.397
  0
LINE
  8
0
 10
-91.3775
 20
105.397
 11
-93.7338
 21
98.349
  0
LINE
  8
0
 10
-93.7338
 20
98.349
 11
-93.8949
 21
97.8304
  0
LINE
  8
0
 10
-93.8949
 20
97.8304
 11
-95.8711
 21
90.955
  0
LINE
  8
0
 10
-95.8711
 20
90.955
 11
-96.0085
 21
90.4359
  0
LINE
  8
0
 10
-96.0085
 20
90.4359
 11
-97.6087
 21
83.8282
  0
LINE
  8
0
 10
-97.6087
 20
83.8282
 11
-97.7298
 21
83.2745
  0
LINE
  8
0
 10
-97.7298
 20
83.2745
 11
-98.9501
 21
77.029
  0
LINE
  8
0
 10
-98.9501
 20
77.029
 11
-99.0578
 21
76.3922
  0
LINE
  8
0
 10
-99.0578
 20
76.3922
 11
-99.8862
 21
70.6027
  0
LINE
  8
0
 10
-99.8862
 20
70.6027
 11
-99.9743
 21
69.8089
  0
LINE
  8
0
 10
-99.9743
 20
69.8089
 11
-100.39
 21
64.5679
  0
LINE
  8
0
 10
-100.39
 20
64.5679
 11
-100.43
 21
63.4951
  0
LINE
  8
0
 10
-100.43
 20
63.4951
 11
-100.405
 21
58.8938
  0
LINE
  8
0
 10
-100.405
 20
58.8938
 11
-100.114
 21
56.2548
  0
LINE
  8
0
 10
-100.114
 20
56.2548
 11
-99.2799
 21
53.7341
  0
LINE
  8
0
 10
-99.2799
 20
53.7341
 11
-97.9401
 21
51.4419
  0
LINE
  8
0
 10
-97.9401
 20
51.4419
 11
-96.153
 21
49.4784
  0
LINE
  8
0
 10
-96.153
 20
49.4784
 11
-93.9967
 21
47.9293
  0
LINE
  8
0
 10
-93.9967
 20
47.9293
 11
-91.5655
 21
46.8624
  0
LINE
  8
0
 10
-91.5655
 20
46.8624
 11
-88.9656
 21
46.3242
  0
LINE
  8
0
 10
-88.9656
 20
46.3242
 11
-86.3106
 21
46.3384
  0
LINE
  8
0
 10
-86.3106
 20
46.3384
 11
-83.7166
 21
46.9043
  0
LINE
  8
0
 10
-83.7166
 20
46.9043
 11
-81.2969
 21
47.9971
  0
LINE
  8
0
 10
-81.2969
 20
47.9971
 11
-79.1573
 21
49.5692
  0
LINE
  8
0
 10
-79.1573
 20
49.5692
 11
-77.3914
 21
51.5517
  0
LINE
  8
0
 10
-77.3914
 20
51.5517
 11
-76.2764
 21
53.4242
  0
LINE
  8
0
 10
-76.2764
 20
53.4242
 11
-73.6115
 21
58.9246
  0
LINE
  8
0
 10
-73.6115
 20
58.9246
 11
-70.9646
 21
64.1559
  0
LINE
  8
0
 10
-70.9646
 20
64.1559
 11
-68.2847
 21
69.173
  0
LINE
  8
0
 10
-68.2847
 20
69.173
 11
-65.5564
 21
73.9586
  0
LINE
  8
0
 10
-65.5564
 20
73.9586
 11
-62.7647
 21
78.4957
  0
LINE
  8
0
 10
-62.7647
 20
78.4957
 11
-59.8949
 21
82.7703
  0
LINE
  8
0
 10
-59.8949
 20
82.7703
 11
-56.9318
 21
86.7723
  0
LINE
  8
0
 10
-56.9318
 20
86.7723
 11
-53.8602
 21
90.4955
  0
LINE
  8
0
 10
-53.8602
 20
90.4955
 11
-50.6642
 21
93.9367
  0
LINE
  8
0
 10
-50.6642
 20
93.9367
 11
-47.3258
 21
97.0967
  0
LINE
  8
0
 10
-47.3258
 20
97.0967
 11
-43.8239
 21
99.979
  0
LINE
  8
0
 10
-43.8239
 20
99.979
 11
-40.1338
 21
102.588
  0
LINE
  8
0
 10
-40.1338
 20
102.588
 11
-36.2262
 21
104.926
  0
LINE
  8
0
 10
-36.2262
 20
104.926
 11
-32.0686
 21
106.994
  0
LINE
  8
0
 10
-32.0686
 20
106.994
 11
-27.6259
 21
108.789
  0
LINE
  8
0
 10
-27.6259
 20
108.789
 11
-22.8629
 21
110.299
  0
LINE
  8
0
 10
-22.8629
 20
110.299
 11
-17.7466
 21
111.511
  0
LINE
  8
0
 10
-17.7466
 20
111.511
 11
-12.2462
 21
112.405
  0
LINE
  8
0
 10
-12.2462
 20
112.405
 11
-6.33594
 21
112.96
  0
LINE
  8
0
 10
-6.33594
 20
112.96
 11
-0.00498962
 21
113.15
  0
LINE
  8
0
 10
-0.00498962
 20
113.15
 11
6.32594
 21
112.96
  0
LINE
  8
0
 10
6.32594
 20
112.96
 11
12.2362
 21
112.405
  0
LINE
  8
0
 10
12.2362
 20
112.405
 11
17.7366
 21
111.511
  0
LINE
  8
0
 10
17.7366
 20
111.511
 11
22.853
 21
110.299
  0
LINE
  8
0
 10
22.853
 20
110.299
 11
27.6159
 21
108.789
  0
LINE
  8
0
 10
27.6159
 20
108.789
 11
32.0586
 21
106.994
  0
LINE
  8
0
 10
32.0586
 20
106.994
 11
36.2162
 21
104.926
  0
LINE
  8
0
 10
36.2162
 20
104.926
 11
40.1238
 21
102.588
  0
LINE
  8
0
 10
40.1238
 20
102.588
 11
43.8139
 21
99.979
  0
LINE
  8
0
 10
43.8139
 20
99.979
 11
47.3158
 21
97.0967
  0
LINE
  8
0
 10
47.3158
 20
97.0967
 11
50.6542
 21
93.9367
  0
LINE
  8
0
 10
50.6542
 20
93.9367
 11
53.8502
 21
90.4955
  0
LINE
  8
0
 10
53.8502
 20
90.4955
 11
56.9218
 21
86.7723
  0
LINE
  8
0
 10
56.9218
 20
86.7723
 11
59.8849
 21
82.7703
  0
LINE
  8
0
 10
59.8849
 20
82.7703
 11
62.7547
 21
78.4957
  0
LINE
  8
0
 10
62.7547
 20
78.4957
 11
65.5463
 21
73.9586
  0
LINE
  8
0
 10
65.5463
 20
73.9586
 11
68.2747
 21
69.173
  0
LINE
  8
0
 10
68.2747
 20
69.173
 11
70.9546
 21
64.1559
  0
LINE
  8
0
 10
70.9546
 20
64.1559
 11
73.6015
 21
58.9246
  0
LINE
  8
0
 10
73.6015
 20
58.9246
 11
76.2664
 21
53.4242
  0
LINE
  8
0
 10
76.2664
 20
53.4242
 11
77.6674
 21
51.169
  0
LINE
  8
0
 10
77.6674
 20
51.169
 11
79.5067
 21
49.2543
  0
LINE
  8
0
 10
79.5067
 20
49.2543
 11
81.7039
 21
47.7638
  0
LINE
  8
0
 10
81.7039
 20
47.7638
 11
84.163
 21
46.7628
  0
LINE
  8
0
 10
84.163
 20
46.7628
 11
86.7765
 21
46.2949
  0
LINE
  8
0
 10
86.7765
 20
46.2949
 11
89.4301
 21
46.3806
  0
LINE
  8
0
 10
84.9831
 20
64.5603
 11
82.223
 21
70.0152
  0
LINE
  8
0
 10
82.223
 20
70.0152
 11
79.3942
 21
75.3112
  0
LINE
  8
0
 10
79.3942
 20
75.3112
 11
76.4741
 21
80.4331
  0
LINE
  8
0
 10
76.4741
 20
80.4331
 11
73.4393
 21
85.3654
  0
LINE
  8
0
 10
73.4393
 20
85.3654
 11
70.2659
 21
90.0921
  0
LINE
  8
0
 10
70.2659
 20
90.0921
 11
66.9303
 21
94.5975
  0
LINE
  8
0
 10
66.9303
 20
94.5975
 11
63.4094
 21
98.8651
  0
LINE
  8
0
 10
63.4094
 20
98.8651
 11
59.6816
 21
102.879
  0
LINE
  8
0
 10
59.6816
 20
102.879
 11
55.7265
 21
106.623
  0
LINE
  8
0
 10
55.7265
 20
106.623
 11
51.5253
 21
110.081
  0
LINE
  8
0
 10
51.5253
 20
110.081
 11
47.0601
 21
113.237
  0
LINE
  8
0
 10
47.0601
 20
113.237
 11
42.3145
 21
116.077
  0
LINE
  8
0
 10
42.3145
 20
116.077
 11
37.2727
 21
118.585
  0
LINE
  8
0
 10
37.2727
 20
118.585
 11
31.9197
 21
120.747
  0
LINE
  8
0
 10
31.9197
 20
120.747
 11
26.2409
 21
122.548
  0
LINE
  8
0
 10
26.2409
 20
122.548
 11
20.2223
 21
123.974
  0
LINE
  8
0
 10
20.2223
 20
123.974
 11
13.8499
 21
125.01
  0
LINE
  8
0
 10
13.8499
 20
125.01
 11
7.11029
 21
125.642
  0
LINE
  8
0
 10
7.11029
 20
125.642
 11
-0.00498962
 21
125.855
  0
LINE
  8
0
 10
-0.00498962
 20
125.855
 11
-7.12029
 21
125.642
  0
LINE
  8
0
 10
-7.12029
 20
125.642
 11
-13.8599
 21
125.01
  0
LINE
  8
0
 10
-13.8599
 20
125.01
 11
-20.2323
 21
123.974
  0
LINE
  8
0
 10
-20.2323
 20
123.974
 11
-26.2509
 21
122.548
  0
LINE
  8
0
 10
-26.2509
 20
122.548
 11
-31.9297
 21
120.747
  0
LINE
  8
0
 10
-31.9297
 20
120.747
 11
-37.2827
 21
118.585
  0
LINE
  8
0
 10
-37.2827
 20
118.585
 11
-42.3245
 21
116.077
  0
LINE
  8
0
 10
-42.3245
 20
116.077
 11
-47.0701
 21
113.237
  0
LINE
  8
0
 10
-47.0701
 20
113.237
 11
-51.5353
 21
110.081
  0
LINE
  8
0
 10
-51.5353
 20
110.081
 11
-55.7365
 21
106.623
  0
LINE
  8
0
 10
-55.7365
 20
106.623
 11
-59.6916
 21
102.879
  0
LINE
  8
0
 10
-59.6916
 20
102.879
 11
-63.4194
 21
98.8651
  0
LINE
  8
0
 10
-63.4194
 20
98.8651
 11
-66.9403
 21
94.5975
  0
LINE
  8
0
 10
-66.9403
 20
94.5975
 11
-70.2759
 21
90.0921
  0
LINE
  8
0
 10
-70.2759
 20
90.0921
 11
-73.4493
 21
85.3654
  0
LINE
  8
0
 10
-73.4493
 20
85.3654
 11
-76.4841
 21
80.4331
  0
LINE
  8
0
 10
-76.4841
 20
80.4331
 11
-79.4042
 21
75.3112
  0
LINE
  8
0
 10
-79.4042
 20
75.3112
 11
-82.233
 21
70.0152
  0
LINE
  8
0
 10
-82.233
 20
70.0152
 11
-84.9931
 21
64.5603
  0
LINE
  8
0
 10
-84.9931
 20
64.5603
 11
-87.7056
 21
58.9616
  0
LINE
  8
0
 10
-87.7056
 20
58.9616
 11
-87.7302
 21
63.563
  0
LINE
  8
0
 10
-87.7302
 20
63.563
 11
-87.3142
 21
68.804
  0
LINE
  8
0
 10
-87.3142
 20
68.804
 11
-86.4859
 21
74.5935
  0
LINE
  8
0
 10
-86.4859
 20
74.5935
 11
-85.2655
 21
80.839
  0
LINE
  8
0
 10
-85.2655
 20
80.839
 11
-83.6653
 21
87.4467
  0
LINE
  8
0
 10
-83.6653
 20
87.4467
 11
-81.6891
 21
94.3221
  0
LINE
  8
0
 10
-81.6891
 20
94.3221
 11
-79.3328
 21
101.37
  0
LINE
  8
0
 10
-79.3328
 20
101.37
 11
-76.5842
 21
108.495
  0
LINE
  8
0
 10
-76.5842
 20
108.495
 11
-73.4232
 21
115.602
  0
LINE
  8
0
 10
-73.4232
 20
115.602
 11
-69.823
 21
122.594
  0
LINE
  8
0
 10
-69.823
 20
122.594
 11
-65.7498
 21
129.375
  0
LINE
  8
0
 10
-65.7498
 20
129.375
 11
-61.1643
 21
135.85
  0
LINE
  8
0
 10
-61.1643
 20
135.85
 11
-56.0223
 21
141.923
  0
LINE
  8
0
 10
-56.0223
 20
141.923
 11
-50.2752
 21
147.497
  0
LINE
  8
0
 10
-50.2752
 20
147.497
 11
-43.8709
 21
152.476
  0
LINE
  8
0
 10
-43.8709
 20
152.476
 11
-36.7545
 21
156.765
  0
LINE
  8
0
 10
-36.7545
 20
156.765
 11
-28.8689
 21
160.268
  0
LINE
  8
0
 10
-28.8689
 20
160.268
 11
-20.155
 21
162.889
  0
LINE
  8
0
 10
-20.155
 20
162.889
 11
-10.5526
 21
164.531
  0
LINE
  8
0
 10
-10.5526
 20
164.531
 11
-0.00999451
 21
165.099
  0
LINE
  8
0
 10
-0.00999451
 20
165.099
 11
10.5425
 21
164.531
  0
LINE
  8
0
 10
10.5425
 20
164.531
 11
20.145
 21
162.889
  0
LINE
  8
0
 10
20.145
 20
162.889
 11
28.8589
 21
160.268
  0
LINE
  8
0
 10
28.8589
 20
160.268
 11
36.7445
 21
156.765
  0
LINE
  8
0
 10
36.7445
 20
156.765
 11
43.8609
 21
152.476
  0
LINE
  8
0
 10
43.8609
 20
152.476
 11
50.2652
 21
147.497
  0
LINE
  8
0
 10
50.2652
 20
147.497
 11
56.0123
 21
141.923
  0
LINE
  8
0
 10
56.0123
 20
141.923
 11
61.1543
 21
135.85
  0
LINE
  8
0
 10
61.1543
 20
135.85
 11
65.7397
 21
129.375
  0
LINE
  8
0
 10
65.7397
 20
129.375
 11
69.8129
 21
122.594
  0
LINE
  8
0
 10
69.8129
 20
122.594
 11
73.4132
 21
115.602
  0
LINE
  8
0
 10
73.4132
 20
115.602
 11
76.5742
 21
108.495
  0
LINE
  8
0
 10
76.5742
 20
108.495
 11
79.3228
 21
101.37
  0
LINE
  8
0
 10
79.3228
 20
101.37
 11
81.6791
 21
94.3221
  0
LINE
  8
0
 10
81.6791
 20
94.3221
 11
83.6553
 21
87.4467
  0
LINE
  8
0
 10
83.6553
 20
87.4467
 11
85.2555
 21
80.839
  0
LINE
  8
0
 10
85.2555
 20
80.839
 11
86.4758
 21
74.5935
  0
LINE
  8
0
 10
86.4758
 20
74.5935
 11
87.3042
 21
68.804
  0
LINE
  8
0
 10
87.3042
 20
68.804
 11
87.7202
 21
63.563
  0
LINE
  8
0
 10
87.7202
 20
63.563
 11
87.6956
 21
58.9616
  0
LINE
  8
0
 10
87.6956
 20
58.9616
 11
84.9831
 21
64.5603
  0
LINE
  8
0
 10
89.3705
 20
-52.3484
 11
91.9494
 21
-51.7174
  0
LINE
  8
0
 10
91.9494
 20
-51.7174
 11
94.3408
 21
-50.5639
  0
LINE
  8
0
 10
94.3408
 20
-50.5639
 11
96.4401
 21
-48.9385
  0
LINE
  8
0
 10
96.4401
 20
-48.9385
 11
98.1556
 21
-46.9121
  0
LINE
  8
0
 10
98.1556
 20
-46.9121
 11
99.4123
 21
-44.5733
  0
LINE
  8
0
 10
99.4123
 20
-44.5733
 11
100.155
 21
-42.0244
  0
LINE
  8
0
 10
100.155
 20
-42.0244
 11
100.358
 21
-39.8494
  0
LINE
  8
0
 10
100.358
 20
-39.8494
 11
100.389
 21
-35.177
  0
LINE
  8
0
 10
100.389
 20
-35.177
 11
100.353
 21
-34.1376
  0
LINE
  8
0
 10
100.353
 20
-34.1376
 11
99.9429
 21
-28.6923
  0
LINE
  8
0
 10
99.9429
 20
-28.6923
 11
99.8652
 21
-27.9512
  0
LINE
  8
0
 10
99.8652
 20
-27.9512
 11
99.0418
 21
-21.8391
  0
LINE
  8
0
 10
99.0418
 20
-21.8391
 11
98.9496
 21
-21.2573
  0
LINE
  8
0
 10
98.9496
 20
-21.2573
 11
97.7336
 21
-14.5858
  0
LINE
  8
0
 10
97.7336
 20
-14.5858
 11
97.632
 21
-14.0853
  0
LINE
  8
0
 10
97.632
 20
-14.0853
 11
96.0355
 21
-6.96303
  0
LINE
  8
0
 10
96.0355
 20
-6.96303
 11
95.9213
 21
-6.49513
  0
LINE
  8
0
 10
95.9213
 20
-6.49513
 11
93.9483
 21
0.968338
  0
LINE
  8
0
 10
93.9483
 20
0.968338
 11
93.8147
 21
1.43736
  0
LINE
  8
0
 10
93.8147
 20
1.43736
 11
91.461
 21
9.1322
  0
LINE
  8
0
 10
91.461
 20
9.1322
 11
91.2981
 21
9.62793
  0
LINE
  8
0
 10
91.2981
 20
9.62793
 11
88.5516
 21
17.4438
  0
LINE
  8
0
 10
88.5516
 20
17.4438
 11
88.3465
 21
17.9873
  0
LINE
  8
0
 10
88.3465
 20
17.9873
 11
85.1871
 21
25.8138
  0
LINE
  8
0
 10
85.1871
 20
25.8138
 11
84.9227
 21
26.4225
  0
LINE
  8
0
 10
84.9227
 20
26.4225
 11
81.3236
 21
34.1489
  0
LINE
  8
0
 10
81.3236
 20
34.1489
 11
80.9774
 21
34.8367
  0
LINE
  8
0
 10
80.9774
 20
34.8367
 11
76.905
 21
42.3523
  0
LINE
  8
0
 10
76.905
 20
42.3523
 11
76.4488
 21
43.1274
  0
LINE
  8
0
 10
76.4488
 20
43.1274
 11
71.8638
 21
50.3216
  0
LINE
  8
0
 10
71.8638
 20
50.3216
 11
71.2633
 21
51.1831
  0
LINE
  8
0
 10
71.2633
 20
51.1831
 11
66.1216
 21
57.9451
  0
LINE
  8
0
 10
66.1216
 20
57.9451
 11
65.3396
 21
58.8772
  0
LINE
  8
0
 10
65.3396
 20
58.8772
 11
59.5926
 21
65.0965
  0
LINE
  8
0
 10
59.5926
 20
65.0965
 11
58.596
 21
66.0632
  0
LINE
  8
0
 10
58.596
 20
66.0632
 11
52.1917
 21
71.629
  0
LINE
  8
0
 10
52.1917
 20
71.629
 11
50.9644
 21
72.5708
  0
LINE
  8
0
 10
50.9644
 20
72.5708
 11
43.848
 21
77.3726
  0
LINE
  8
0
 10
43.848
 20
77.3726
 11
42.406
 21
78.2133
  0
LINE
  8
0
 10
42.406
 20
78.2133
 11
34.5204
 21
82.1404
  0
LINE
  8
0
 10
34.5204
 20
82.1404
 11
32.9212
 21
82.8049
  0
LINE
  8
0
 10
32.9212
 20
82.8049
 11
24.2074
 21
85.7468
  0
LINE
  8
0
 10
24.2074
 20
85.7468
 11
22.5427
 21
86.1856
  0
LINE
  8
0
 10
22.5427
 20
86.1856
 11
12.9402
 21
88.0317
  0
LINE
  8
0
 10
12.9402
 20
88.0317
 11
11.3105
 21
88.2369
  0
LINE
  8
0
 10
11.3105
 20
88.2369
 11
0.757965
 21
88.8761
  0
LINE
  8
0
 10
0.757965
 20
88.8761
 11
-0.778687
 21
88.8761
  0
LINE
  8
0
 10
-0.778687
 20
88.8761
 11
-11.3212
 21
88.2368
  0
LINE
  8
0
 10
-11.3212
 20
88.2368
 11
-12.9502
 21
88.0317
  0
LINE
  8
0
 10
-12.9502
 20
88.0317
 11
-22.5527
 21
86.1856
  0
LINE
  8
0
 10
-22.5527
 20
86.1856
 11
-24.2174
 21
85.7468
  0
LINE
  8
0
 10
-24.2174
 20
85.7468
 11
-32.9313
 21
82.8049
  0
LINE
  8
0
 10
-32.9313
 20
82.8049
 11
-34.5304
 21
82.1404
  0
LINE
  8
0
 10
-34.5304
 20
82.1404
 11
-42.416
 21
78.2133
  0
LINE
  8
0
 10
-42.416
 20
78.2133
 11
-43.858
 21
77.3726
  0
LINE
  8
0
 10
-43.858
 20
77.3726
 11
-50.9744
 21
72.5708
  0
LINE
  8
0
 10
-50.9744
 20
72.5708
 11
-52.2017
 21
71.629
  0
LINE
  8
0
 10
-52.2017
 20
71.629
 11
-58.606
 21
66.0632
  0
LINE
  8
0
 10
-58.606
 20
66.0632
 11
-59.6026
 21
65.0965
  0
LINE
  8
0
 10
-59.6026
 20
65.0965
 11
-65.3496
 21
58.8772
  0
LINE
  8
0
 10
-65.3496
 20
58.8772
 11
-66.1316
 21
57.9451
  0
LINE
  8
0
 10
-66.1316
 20
57.9451
 11
-71.2733
 21
51.1831
  0
LINE
  8
0
 10
-71.2733
 20
51.1831
 11
-71.8738
 21
50.3216
  0
LINE
  8
0
 10
-71.8738
 20
50.3216
 11
-76.4588
 21
43.1274
  0
LINE
  8
0
 10
-76.4588
 20
43.1274
 11
-76.915
 21
42.3523
  0
LINE
  8
0
 10
-76.915
 20
42.3523
 11
-80.9874
 21
34.8367
  0
LINE
  8
0
 10
-80.9874
 20
34.8367
 11
-81.3336
 21
34.1489
  0
LINE
  8
0
 10
-81.3336
 20
34.1489
 11
-84.9327
 21
26.4225
  0
LINE
  8
0
 10
-84.9327
 20
26.4225
 11
-85.1971
 21
25.8138
  0
LINE
  8
0
 10
-85.1971
 20
25.8138
 11
-88.3565
 21
17.9873
  0
LINE
  8
0
 10
-88.3565
 20
17.9873
 11
-88.5616
 21
17.4438
  0
LINE
  8
0
 10
-88.5616
 20
17.4438
 11
-91.3082
 21
9.62793
  0
LINE
  8
0
 10
-91.3082
 20
9.62793
 11
-91.471
 21
9.1322
  0
LINE
  8
0
 10
-91.471
 20
9.1322
 11
-93.8247
 21
1.43736
  0
LINE
  8
0
 10
-93.8247
 20
1.43736
 11
-93.9583
 21
0.968338
  0
LINE
  8
0
 10
-93.9583
 20
0.968338
 11
-95.9313
 21
-6.49513
  0
LINE
  8
0
 10
-95.9313
 20
-6.49513
 11
-96.0455
 21
-6.96303
  0
LINE
  8
0
 10
-96.0455
 20
-6.96303
 11
-97.642
 21
-14.0853
  0
LINE
  8
0
 10
-97.642
 20
-14.0853
 11
-97.7437
 21
-14.5858
  0
LINE
  8
0
 10
-97.7437
 20
-14.5858
 11
-98.9597
 21
-21.2573
  0
LINE
  8
0
 10
-98.9597
 20
-21.2573
 11
-99.0518
 21
-21.8391
  0
LINE
  8
0
 10
-99.0518
 20
-21.8391
 11
-99.8752
 21
-27.9512
  0
LINE
  8
0
 10
-99.8752
 20
-27.9512
 11
-99.953
 21
-28.6923
  0
LINE
  8
0
 10
-99.953
 20
-28.6923
 11
-100.363
 21
-34.1376
  0
LINE
  8
0
 10
-100.363
 20
-34.1376
 11
-100.399
 21
-35.177
  0
LINE
  8
0
 10
-100.399
 20
-35.177
 11
-100.368
 21
-39.8494
  0
LINE
  8
0
 10
-100.368
 20
-39.8494
 11
-100.072
 21
-42.4879
  0
LINE
  8
0
 10
-100.072
 20
-42.4879
 11
-99.2352
 21
-45.0075
  0
LINE
  8
0
 10
-99.2352
 20
-45.0075
 11
-97.8923
 21
-47.2979
  0
LINE
  8
0
 10
-97.8923
 20
-47.2979
 11
-96.1026
 21
-49.259
  0
LINE
  8
0
 10
-96.1026
 20
-49.259
 11
-93.9442
 21
-50.8052
  0
LINE
  8
0
 10
-93.9442
 20
-50.8052
 11
-91.5116
 21
-51.8688
  0
LINE
  8
0
 10
-91.5116
 20
-51.8688
 11
-88.9109
 21
-52.4034
  0
LINE
  8
0
 10
-88.9109
 20
-52.4034
 11
-86.256
 21
-52.3857
  0
LINE
  8
0
 10
-86.256
 20
-52.3857
 11
-83.6627
 21
-51.8163
  0
LINE
  8
0
 10
-83.6627
 20
-51.8163
 11
-81.2445
 21
-50.7202
  0
LINE
  8
0
 10
-81.2445
 20
-50.7202
 11
-79.107
 21
-49.1453
  0
LINE
  8
0
 10
-79.107
 20
-49.1453
 11
-77.3437
 21
-47.1604
  0
LINE
  8
0
 10
-77.3437
 20
-47.1604
 11
-76.229
 21
-45.2818
  0
LINE
  8
0
 10
-76.229
 20
-45.2818
 11
-73.5744
 21
-39.778
  0
LINE
  8
0
 10
-73.5744
 20
-39.778
 11
-70.9365
 21
-34.5427
  0
LINE
  8
0
 10
-70.9365
 20
-34.5427
 11
-68.2652
 21
-29.5235
  0
LINE
  8
0
 10
-68.2652
 20
-29.5235
 11
-65.5449
 21
-24.7379
  0
LINE
  8
0
 10
-65.5449
 20
-24.7379
 11
-62.7598
 21
-20.2018
  0
LINE
  8
0
 10
-62.7598
 20
-20.2018
 11
-59.8949
 21
-15.9284
  0
LINE
  8
0
 10
-59.8949
 20
-15.9284
 11
-56.9351
 21
-11.928
  0
LINE
  8
0
 10
-56.9351
 20
-11.928
 11
-53.8657
 21
-8.20703
  0
LINE
  8
0
 10
-53.8657
 20
-8.20703
 11
-50.6707
 21
-4.76765
  0
LINE
  8
0
 10
-50.6707
 20
-4.76765
 11
-47.3325
 21
-1.60933
  0
LINE
  8
0
 10
-47.3325
 20
-1.60933
 11
-43.83
 21
1.27171
  0
LINE
  8
0
 10
-43.83
 20
1.27171
 11
-40.1391
 21
3.87923
  0
LINE
  8
0
 10
-40.1391
 20
3.87923
 11
-36.2304
 21
6.21678
  0
LINE
  8
0
 10
-36.2304
 20
6.21678
 11
-32.0714
 21
8.28462
  0
LINE
  8
0
 10
-32.0714
 20
8.28462
 11
-27.6281
 21
10.0782
  0
LINE
  8
0
 10
-27.6281
 20
10.0782
 11
-22.8643
 21
11.5884
  0
LINE
  8
0
 10
-22.8643
 20
11.5884
 11
-17.7472
 21
12.8001
  0
LINE
  8
0
 10
-17.7472
 20
12.8001
 11
-12.2465
 21
13.6942
  0
LINE
  8
0
 10
-12.2465
 20
13.6942
 11
-6.33597
 21
14.2484
  0
LINE
  8
0
 10
-6.33597
 20
14.2484
 11
-0.00498962
 21
14.4386
  0
LINE
  8
0
 10
-0.00498962
 20
14.4386
 11
6.32597
 21
14.2484
  0
LINE
  8
0
 10
6.32597
 20
14.2484
 11
12.2365
 21
13.6942
  0
LINE
  8
0
 10
12.2365
 20
13.6942
 11
17.7372
 21
12.8001
  0
LINE
  8
0
 10
17.7372
 20
12.8001
 11
22.8543
 21
11.5884
  0
LINE
  8
0
 10
22.8543
 20
11.5884
 11
27.6181
 21
10.0782
  0
LINE
  8
0
 10
27.6181
 20
10.0782
 11
32.0614
 21
8.28462
  0
LINE
  8
0
 10
32.0614
 20
8.28462
 11
36.2204
 21
6.21678
  0
LINE
  8
0
 10
36.2204
 20
6.21678
 11
40.1291
 21
3.87923
  0
LINE
  8
0
 10
40.1291
 20
3.87923
 11
43.82
 21
1.27171
  0
LINE
  8
0
 10
43.82
 20
1.27171
 11
47.3225
 21
-1.60933
  0
LINE
  8
0
 10
47.3225
 20
-1.60933
 11
50.6607
 21
-4.76765
  0
LINE
  8
0
 10
50.6607
 20
-4.76765
 11
53.8557
 21
-8.20703
  0
LINE
  8
0
 10
53.8557
 20
-8.20703
 11
56.9251
 21
-11.928
  0
LINE
  8
0
 10
56.9251
 20
-11.928
 11
59.8849
 21
-15.9284
  0
LINE
  8
0
 10
59.8849
 20
-15.9284
 11
62.7498
 21
-20.2018
  0
LINE
  8
0
 10
62.7498
 20
-20.2018
 11
65.5349
 21
-24.7379
  0
LINE
  8
0
 10
65.5349
 20
-24.7379
 11
68.2552
 21
-29.5235
  0
LINE
  8
0
 10
68.2552
 20
-29.5235
 11
70.9265
 21
-34.5427
  0
LINE
  8
0
 10
70.9265
 20
-34.5427
 11
73.5644
 21
-39.778
  0
LINE
  8
0
 10
73.5644
 20
-39.778
 11
76.2191
 21
-45.2818
  0
LINE
  8
0
 10
76.2191
 20
-45.2818
 11
77.6161
 21
-47.5395
  0
LINE
  8
0
 10
77.6161
 20
-47.5395
 11
79.4521
 21
-49.4574
  0
LINE
  8
0
 10
79.4521
 20
-49.4574
 11
81.6467
 21
-50.9517
  0
LINE
  8
0
 10
81.6467
 20
-50.9517
 11
84.104
 21
-51.957
  0
LINE
  8
0
 10
84.104
 20
-51.957
 11
86.7167
 21
-52.4295
  0
LINE
  8
0
 10
86.7167
 20
-52.4295
 11
89.3705
 21
-52.3484
  0
LINE
  8
0
 10
84.9552
 20
-34.161
 11
82.2043
 21
-28.7015
  0
LINE
  8
0
 10
82.2043
 20
-28.7015
 11
79.3835
 21
-23.4012
  0
LINE
  8
0
 10
79.3835
 20
-23.4012
 11
76.4699
 21
-18.2756
  0
LINE
  8
0
 10
76.4699
 20
-18.2756
 11
73.4399
 21
-13.3404
  0
LINE
  8
0
 10
73.4399
 20
-13.3404
 11
70.2695
 21
-8.6116
  0
LINE
  8
0
 10
70.2695
 20
-8.6116
 11
66.9354
 21
-4.10515
  0
LINE
  8
0
 10
66.9354
 20
-4.10515
 11
63.4148
 21
0.16275
  0
LINE
  8
0
 10
63.4148
 20
0.16275
 11
59.6866
 21
4.17609
  0
LINE
  8
0
 10
59.6866
 20
4.17609
 11
55.7306
 21
7.91891
  0
LINE
  8
0
 10
55.7306
 20
7.91891
 11
51.5283
 21
11.3756
  0
LINE
  8
0
 10
51.5283
 20
11.3756
 11
47.0622
 21
14.5308
  0
LINE
  8
0
 10
47.0622
 20
14.5308
 11
42.3158
 21
17.3693
  0
LINE
  8
0
 10
42.3158
 20
17.3693
 11
37.2734
 21
19.8764
  0
LINE
  8
0
 10
37.2734
 20
19.8764
 11
31.92
 21
22.0373
  0
LINE
  8
0
 10
31.92
 20
22.0373
 11
26.2411
 21
23.8376
  0
LINE
  8
0
 10
26.2411
 20
23.8376
 11
20.2223
 21
25.2628
  0
LINE
  8
0
 10
20.2223
 20
25.2628
 11
13.8499
 21
26.2986
  0
LINE
  8
0
 10
13.8499
 20
26.2986
 11
7.11029
 21
26.9306
  0
LINE
  8
0
 10
7.11029
 20
26.9306
 11
-0.00498962
 21
27.1443
  0
LINE
  8
0
 10
-0.00498962
 20
27.1443
 11
-7.12029
 21
26.9306
  0
LINE
  8
0
 10
-7.12029
 20
26.9306
 11
-13.8599
 21
26.2986
  0
LINE
  8
0
 10
-13.8599
 20
26.2986
 11
-20.2323
 21
25.2628
  0
LINE
  8
0
 10
-20.2323
 20
25.2628
 11
-26.2511
 21
23.8376
  0
LINE
  8
0
 10
-26.2511
 20
23.8376
 11
-31.93
 21
22.0373
  0
LINE
  8
0
 10
-31.93
 20
22.0373
 11
-37.2834
 21
19.8764
  0
LINE
  8
0
 10
-37.2834
 20
19.8764
 11
-42.3258
 21
17.3693
  0
LINE
  8
0
 10
-42.3258
 20
17.3693
 11
-47.0722
 21
14.5308
  0
LINE
  8
0
 10
-47.0722
 20
14.5308
 11
-51.5383
 21
11.3756
  0
LINE
  8
0
 10
-51.5383
 20
11.3756
 11
-55.7406
 21
7.91891
  0
LINE
  8
0
 10
-55.7406
 20
7.91891
 11
-59.6966
 21
4.17609
  0
LINE
  8
0
 10
-59.6966
 20
4.17609
 11
-63.4248
 21
0.16275
  0
LINE
  8
0
 10
-63.4248
 20
0.16275
 11
-66.9454
 21
-4.10515
  0
LINE
  8
0
 10
-66.9454
 20
-4.10515
 11
-70.2795
 21
-8.6116
  0
LINE
  8
0
 10
-70.2795
 20
-8.6116
 11
-73.4499
 21
-13.3404
  0
LINE
  8
0
 10
-73.4499
 20
-13.3404
 11
-76.4799
 21
-18.2756
  0
LINE
  8
0
 10
-76.4799
 20
-18.2756
 11
-79.3935
 21
-23.4012
  0
LINE
  8
0
 10
-79.3935
 20
-23.4012
 11
-82.2143
 21
-28.7015
  0
LINE
  8
0
 10
-82.2143
 20
-28.7015
 11
-84.9653
 21
-34.161
  0
LINE
  8
0
 10
-84.9653
 20
-34.161
 11
-87.668
 21
-39.7644
  0
LINE
  8
0
 10
-87.668
 20
-39.7644
 11
-87.6992
 21
-35.092
  0
LINE
  8
0
 10
-87.6992
 20
-35.092
 11
-87.2889
 21
-29.6467
  0
LINE
  8
0
 10
-87.2889
 20
-29.6467
 11
-86.4655
 21
-23.5346
  0
LINE
  8
0
 10
-86.4655
 20
-23.5346
 11
-85.2495
 21
-16.8631
  0
LINE
  8
0
 10
-85.2495
 20
-16.8631
 11
-83.653
 21
-9.74084
  0
LINE
  8
0
 10
-83.653
 20
-9.74084
 11
-81.6801
 21
-2.27736
  0
LINE
  8
0
 10
-81.6801
 20
-2.27736
 11
-79.3264
 21
5.41747
  0
LINE
  8
0
 10
-79.3264
 20
5.41747
 11
-76.5798
 21
13.2334
  0
LINE
  8
0
 10
-76.5798
 20
13.2334
 11
-73.4205
 21
21.0598
  0
LINE
  8
0
 10
-73.4205
 20
21.0598
 11
-69.8213
 21
28.7862
  0
LINE
  8
0
 10
-69.8213
 20
28.7862
 11
-65.7489
 21
36.3019
  0
LINE
  8
0
 10
-65.7489
 20
36.3019
 11
-61.1639
 21
43.4961
  0
LINE
  8
0
 10
-61.1639
 20
43.4961
 11
-56.0222
 21
50.2581
  0
LINE
  8
0
 10
-56.0222
 20
50.2581
 11
-50.2752
 21
56.4774
  0
LINE
  8
0
 10
-50.2752
 20
56.4774
 11
-43.8709
 21
62.0432
  0
LINE
  8
0
 10
-43.8709
 20
62.0432
 11
-36.7545
 21
66.845
  0
LINE
  8
0
 10
-36.7545
 20
66.845
 11
-28.8689
 21
70.7721
  0
LINE
  8
0
 10
-28.8689
 20
70.7721
 11
-20.155
 21
73.714
  0
LINE
  8
0
 10
-20.155
 20
73.714
 11
-10.5526
 21
75.5601
  0
LINE
  8
0
 10
-10.5526
 20
75.5601
 11
-0.00999451
 21
76.1994
  0
LINE
  8
0
 10
-0.00999451
 20
76.1994
 11
10.5425
 21
75.5601
  0
LINE
  8
0
 10
10.5425
 20
75.5601
 11
20.145
 21
73.714
  0
LINE
  8
0
 10
20.145
 20
73.714
 11
28.8589
 21
70.7721
  0
LINE
  8
0
 10
28.8589
 20
70.7721
 11
36.7445
 21
66.845
  0
LINE
  8
0
 10
36.7445
 20
66.845
 11
43.8609
 21
62.0432
  0
LINE
  8
0
 10
43.8609
 20
62.0432
 11
50.2652
 21
56.4774
  0
LINE
  8
0
 10
50.2652
 20
56.4774
 11
56.0122
 21
50.2581
  0
LINE
  8
0
 10
56.0122
 20
50.2581
 11
61.1539
 21
43.4961
  0
LINE
  8
0
 10
61.1539
 20
43.4961
 11
65.7389
 21
36.3019
  0
LINE
  8
0
 10
65.7389
 20
36.3019
 11
69.8113
 21
28.7862
  0
LINE
  8
0
 10
69.8113
 20
28.7862
 11
73.4105
 21
21.0598
  0
LINE
  8
0
 10
73.4105
 20
21.0598
 11
76.5698
 21
13.2334
  0
LINE
  8
0
 10
76.5698
 20
13.2334
 11
79.3164
 21
5.41747
  0
LINE
  8
0
 10
79.3164
 20
5.41747
 11
81.6701
 21
-2.27736
  0
LINE
  8
0
 10
81.6701
 20
-2.27736
 11
83.643
 21
-9.74084
  0
LINE
  8
0
 10
83.643
 20
-9.74084
 11
85.2395
 21
-16.8631
  0
LINE
  8
0
 10
85.2395
 20
-16.8631
 11
86.4555
 21
-23.5346
  0
LINE
  8
0
 10
86.4555
 20
-23.5346
 11
87.2789
 21
-29.6467
  0
LINE
  8
0
 10
87.2789
 20
-29.6467
 11
87.6892
 21
-35.092
  0
LINE
  8
0
 10
87.6892
 20
-35.092
 11
87.658
 21
-39.7644
  0
LINE
  8
0
 10
87.658
 20
-39.7644
 11
84.9552
 21
-34.161
  0
LINE
  8
0
 10
52.6193
 20
-397.225
 11
55.1463
 21
-396.411
  0
LINE
  8
0
 10
55.1463
 20
-396.411
 11
56.3861
 21
-395.779
  0
LINE
  8
0
 10
56.3861
 20
-395.779
 11
90.2766
 21
-376.093
  0
LINE
  8
0
 10
90.2766
 20
-376.093
 11
92.4204
 21
-374.527
  0
LINE
  8
0
 10
92.4204
 20
-374.527
 11
94.1918
 21
-372.549
  0
LINE
  8
0
 10
94.1918
 20
-372.549
 11
95.5132
 21
-370.246
  0
LINE
  8
0
 10
95.5132
 20
-370.246
 11
96.327
 21
-367.719
  0
LINE
  8
0
 10
96.327
 20
-367.719
 11
96.5976
 21
-365.078
  0
LINE
  8
0
 10
96.5976
 20
-365.078
 11
96.3132
 21
-362.438
  0
LINE
  8
0
 10
96.3132
 20
-362.438
 11
95.1041
 21
-359.136
  0
LINE
  8
0
 10
95.1041
 20
-359.136
 11
91.7352
 21
-352.818
  0
LINE
  8
0
 10
91.7352
 20
-352.818
 11
88.9878
 21
-346.667
  0
LINE
  8
0
 10
88.9878
 20
-346.667
 11
86.6248
 21
-340.289
  0
LINE
  8
0
 10
86.6248
 20
-340.289
 11
84.6324
 21
-333.704
  0
LINE
  8
0
 10
84.6324
 20
-333.704
 11
82.9977
 21
-326.939
  0
LINE
  8
0
 10
82.9977
 20
-326.939
 11
81.7068
 21
-320.021
  0
LINE
  8
0
 10
81.7068
 20
-320.021
 11
80.7449
 21
-312.98
  0
LINE
  8
0
 10
80.7449
 20
-312.98
 11
80.0954
 21
-305.846
  0
LINE
  8
0
 10
80.0954
 20
-305.846
 11
79.7396
 21
-298.643
  0
LINE
  8
0
 10
79.7396
 20
-298.643
 11
79.657
 21
-291.4
  0
LINE
  8
0
 10
79.657
 20
-291.4
 11
79.8244
 21
-284.134
  0
LINE
  8
0
 10
79.8244
 20
-284.134
 11
80.2155
 21
-276.858
  0
LINE
  8
0
 10
80.2155
 20
-276.858
 11
80.8003
 21
-269.58
  0
LINE
  8
0
 10
80.8003
 20
-269.58
 11
81.545
 21
-262.296
  0
LINE
  8
0
 10
81.545
 20
-262.296
 11
82.4104
 21
-254.99
  0
LINE
  8
0
 10
82.4104
 20
-254.99
 11
83.3505
 21
-247.648
  0
LINE
  8
0
 10
83.3505
 20
-247.648
 11
84.321
 21
-240.19
  0
LINE
  8
0
 10
84.321
 20
-240.19
 11
85.2388
 21
-232.792
  0
LINE
  8
0
 10
85.2388
 20
-232.792
 11
85.2596
 21
-232.614
  0
LINE
  8
0
 10
85.2596
 20
-232.614
 11
86.0763
 21
-225.172
  0
LINE
  8
0
 10
86.0763
 20
-225.172
 11
86.1035
 21
-224.897
  0
LINE
  8
0
 10
86.1035
 20
-224.897
 11
86.7746
 21
-217.24
  0
LINE
  8
0
 10
86.7746
 20
-217.24
 11
87.2177
 21
-211.549
  0
LINE
  8
0
 10
87.2177
 20
-211.549
 11
87.6844
 21
-205.968
  0
LINE
  8
0
 10
87.6844
 20
-205.968
 11
88.1701
 21
-200.454
  0
LINE
  8
0
 10
88.1701
 20
-200.454
 11
88.668
 21
-194.993
  0
LINE
  8
0
 10
88.668
 20
-194.993
 11
89.6701
 21
-184.207
  0
LINE
  8
0
 10
89.6701
 20
-184.207
 11
90.1594
 21
-178.87
  0
LINE
  8
0
 10
90.1594
 20
-178.87
 11
90.6306
 21
-173.569
  0
LINE
  8
0
 10
90.6306
 20
-173.569
 11
91.0763
 21
-168.299
  0
LINE
  8
0
 10
91.0763
 20
-168.299
 11
91.4892
 21
-163.059
  0
LINE
  8
0
 10
91.4892
 20
-163.059
 11
91.862
 21
-157.846
  0
LINE
  8
0
 10
91.862
 20
-157.846
 11
92.1876
 21
-152.66
  0
LINE
  8
0
 10
92.1876
 20
-152.66
 11
92.4588
 21
-147.5
  0
LINE
  8
0
 10
92.4588
 20
-147.5
 11
92.6627
 21
-142.533
  0
LINE
  8
0
 10
92.6627
 20
-142.533
 11
92.6685
 21
-142.366
  0
LINE
  8
0
 10
92.6685
 20
-142.366
 11
92.8058
 21
-137.444
  0
LINE
  8
0
 10
92.8058
 20
-137.444
 11
92.8096
 21
-137.258
  0
LINE
  8
0
 10
92.8096
 20
-137.258
 11
92.8742
 21
-132.382
  0
LINE
  8
0
 10
92.8742
 20
-132.382
 11
92.8753
 21
-132.177
  0
LINE
  8
0
 10
92.8753
 20
-132.177
 11
92.861
 21
-127.349
  0
LINE
  8
0
 10
92.861
 20
-127.349
 11
92.8583
 21
-127.124
  0
LINE
  8
0
 10
92.8583
 20
-127.124
 11
92.7592
 21
-122.347
  0
LINE
  8
0
 10
92.7592
 20
-122.347
 11
92.7517
 21
-122.1
  0
LINE
  8
0
 10
92.7517
 20
-122.1
 11
92.562
 21
-117.377
  0
LINE
  8
0
 10
92.562
 20
-117.377
 11
92.5484
 21
-117.109
  0
LINE
  8
0
 10
92.5484
 20
-117.109
 11
92.2628
 21
-112.452
  0
LINE
  8
0
 10
92.2628
 20
-112.452
 11
92.2351
 21
-112.087
  0
LINE
  8
0
 10
92.2351
 20
-112.087
 11
91.6129
 21
-105.2
  0
LINE
  8
0
 10
91.6129
 20
-105.2
 11
91.5596
 21
-104.714
  0
LINE
  8
0
 10
91.5596
 20
-104.714
 11
90.6884
 21
-97.9751
  0
LINE
  8
0
 10
90.6884
 20
-97.9751
 11
90.607
 21
-97.437
  0
LINE
  8
0
 10
90.607
 20
-97.437
 11
89.4686
 21
-90.8615
  0
LINE
  8
0
 10
89.4686
 20
-90.8615
 11
89.3513
 21
-90.2683
  0
LINE
  8
0
 10
89.3513
 20
-90.2683
 11
87.9276
 21
-83.873
  0
LINE
  8
0
 10
87.9276
 20
-83.873
 11
87.7648
 21
-83.2232
  0
LINE
  8
0
 10
87.7648
 20
-83.2232
 11
86.0378
 21
-77.0264
  0
LINE
  8
0
 10
86.0378
 20
-77.0264
 11
85.8187
 21
-76.3204
  0
LINE
  8
0
 10
85.8187
 20
-76.3204
 11
83.7706
 21
-70.3414
  0
LINE
  8
0
 10
83.7706
 20
-70.3414
 11
83.4829
 21
-69.5816
  0
LINE
  8
0
 10
83.4829
 20
-69.5816
 11
81.0963
 21
-63.8409
  0
LINE
  8
0
 10
81.0963
 20
-63.8409
 11
80.7267
 21
-63.033
  0
LINE
  8
0
 10
80.7267
 20
-63.033
 11
77.9842
 21
-57.5523
  0
LINE
  8
0
 10
77.9842
 20
-57.5523
 11
77.52
 21
-56.7065
  0
LINE
  8
0
 10
77.52
 20
-56.7065
 11
74.4042
 21
-51.5081
  0
LINE
  8
0
 10
74.4042
 20
-51.5081
 11
73.8343
 21
-50.6399
  0
LINE
  8
0
 10
73.8343
 20
-50.6399
 11
70.3283
 21
-45.7471
  0
LINE
  8
0
 10
70.3283
 20
-45.7471
 11
69.6457
 21
-44.8772
  0
LINE
  8
0
 10
69.6457
 20
-44.8772
 11
65.7325
 21
-40.3138
  0
LINE
  8
0
 10
65.7325
 20
-40.3138
 11
64.9366
 21
-39.4673
  0
LINE
  8
0
 10
64.9366
 20
-39.4673
 11
60.5992
 21
-35.2578
  0
LINE
  8
0
 10
60.5992
 20
-35.2578
 11
59.6977
 21
-34.4622
  0
LINE
  8
0
 10
59.6977
 20
-34.4622
 11
54.9193
 21
-30.6318
  0
LINE
  8
0
 10
54.9193
 20
-30.6318
 11
53.9292
 21
-29.9136
  0
LINE
  8
0
 10
53.9292
 20
-29.9136
 11
48.693
 21
-26.4877
  0
LINE
  8
0
 10
48.693
 20
-26.4877
 11
47.639
 21
-25.8683
  0
LINE
  8
0
 10
47.639
 20
-25.8683
 11
41.9283
 21
-22.8729
  0
LINE
  8
0
 10
41.9283
 20
-22.8729
 11
40.84
 21
-22.3661
  0
LINE
  8
0
 10
40.84
 20
-22.3661
 11
34.6382
 21
-19.8276
  0
LINE
  8
0
 10
34.6382
 20
-19.8276
 11
33.5463
 21
-19.4379
  0
LINE
  8
0
 10
33.5463
 20
-19.4379
 11
26.8368
 21
-17.3829
  0
LINE
  8
0
 10
26.8368
 20
-17.3829
 11
25.7692
 21
-17.1061
  0
LINE
  8
0
 10
25.7692
 20
-17.1061
 11
18.5352
 21
-15.5617
  0
LINE
  8
0
 10
18.5352
 20
-15.5617
 11
17.5142
 21
-15.3869
  0
LINE
  8
0
 10
17.5142
 20
-15.3869
 11
9.73927
 21
-14.3804
  0
LINE
  8
0
 10
9.73927
 20
-14.3804
 11
8.7803
 21
-14.2931
  0
LINE
  8
0
 10
8.7803
 20
-14.2931
 11
1.44594
 21
-13.9047
  0
LINE
  8
0
 10
1.44594
 20
-13.9047
 11
1.33183
 21
-13.8825
  0
LINE
  8
0
 10
1.33183
 20
-13.8825
 11
0.671463
 21
-13.8712
  0
LINE
  8
0
 10
0.671463
 20
-13.8712
 11
0.67186
 21
-13.8637
  0
LINE
  8
0
 10
0.67186
 20
-13.8637
 11
0.448059
 21
-13.8519
  0
LINE
  8
0
 10
0.448059
 20
-13.8519
 11
0.224579
 21
-13.8634
  0
LINE
  8
0
 10
0.224579
 20
-13.8634
 11
-0.448044
 21
-13.8519
  0
LINE
  8
0
 10
-0.448044
 20
-13.8519
 11
-0.671844
 21
-13.8637
  0
LINE
  8
0
 10
-0.671844
 20
-13.8637
 11
-0.669403
 21
-13.9098
  0
LINE
  8
0
 10
-0.669403
 20
-13.9098
 11
-0.893311
 21
-13.9214
  0
LINE
  8
0
 10
-0.893311
 20
-13.9214
 11
-0.895737
 21
-13.8756
  0
LINE
  8
0
 10
-0.895737
 20
-13.8756
 11
-8.78029
 21
-14.2931
  0
LINE
  8
0
 10
-8.78029
 20
-14.2931
 11
-9.73926
 21
-14.3804
  0
LINE
  8
0
 10
-9.73926
 20
-14.3804
 11
-17.5142
 21
-15.3869
  0
LINE
  8
0
 10
-17.5142
 20
-15.3869
 11
-18.5352
 21
-15.5617
  0
LINE
  8
0
 10
-18.5352
 20
-15.5617
 11
-25.7692
 21
-17.1061
  0
LINE
  8
0
 10
-25.7692
 20
-17.1061
 11
-26.8368
 21
-17.3829
  0
LINE
  8
0
 10
-26.8368
 20
-17.3829
 11
-33.5463
 21
-19.4379
  0
LINE
  8
0
 10
-33.5463
 20
-19.4379
 11
-34.6382
 21
-19.8276
  0
LINE
  8
0
 10
-34.6382
 20
-19.8276
 11
-40.84
 21
-22.3661
  0
LINE
  8
0
 10
-40.84
 20
-22.3661
 11
-41.9283
 21
-22.8729
  0
LINE
  8
0
 10
-41.9283
 20
-22.8729
 11
-47.6389
 21
-25.8683
  0
LINE
  8
0
 10
-47.6389
 20
-25.8683
 11
-48.693
 21
-26.4877
  0
LINE
  8
0
 10
-48.693
 20
-26.4877
 11
-53.9292
 21
-29.9136
  0
LINE
  8
0
 10
-53.9292
 20
-29.9136
 11
-54.9193
 21
-30.6318
  0
LINE
  8
0
 10
-54.9193
 20
-30.6318
 11
-59.6977
 21
-34.4622
  0
LINE
  8
0
 10
-59.6977
 20
-34.4622
 11
-60.5992
 21
-35.2578
  0
LINE
  8
0
 10
-60.5992
 20
-35.2578
 11
-64.9366
 21
-39.4673
  0
LINE
  8
0
 10
-64.9366
 20
-39.4673
 11
-65.7325
 21
-40.3138
  0
LINE
  8
0
 10
-65.7325
 20
-40.3138
 11
-69.6457
 21
-44.8772
  0
LINE
  8
0
 10
-69.6457
 20
-44.8772
 11
-70.3283
 21
-45.7471
  0
LINE
  8
0
 10
-70.3283
 20
-45.7471
 11
-73.8343
 21
-50.6399
  0
LINE
  8
0
 10
-73.8343
 20
-50.6399
 11
-74.4042
 21
-51.5081
  0
LINE
  8
0
 10
-74.4042
 20
-51.5081
 11
-77.52
 21
-56.7065
  0
LINE
  8
0
 10
-77.52
 20
-56.7065
 11
-77.9842
 21
-57.5523
  0
LINE
  8
0
 10
-77.9842
 20
-57.5523
 11
-80.7267
 21
-63.033
  0
LINE
  8
0
 10
-80.7267
 20
-63.033
 11
-81.0963
 21
-63.8409
  0
LINE
  8
0
 10
-81.0963
 20
-63.8409
 11
-83.4829
 21
-69.5816
  0
LINE
  8
0
 10
-83.4829
 20
-69.5816
 11
-83.7706
 21
-70.3414
  0
LINE
  8
0
 10
-83.7706
 20
-70.3414
 11
-85.8187
 21
-76.3204
  0
LINE
  8
0
 10
-85.8187
 20
-76.3204
 11
-86.0378
 21
-77.0264
  0
LINE
  8
0
 10
-86.0378
 20
-77.0264
 11
-87.7648
 21
-83.2232
  0
LINE
  8
0
 10
-87.7648
 20
-83.2232
 11
-87.9276
 21
-83.873
  0
LINE
  8
0
 10
-87.9276
 20
-83.873
 11
-89.3513
 21
-90.2683
  0
LINE
  8
0
 10
-89.3513
 20
-90.2683
 11
-89.4686
 21
-90.8615
  0
LINE
  8
0
 10
-89.4686
 20
-90.8615
 11
-90.607
 21
-97.437
  0
LINE
  8
0
 10
-90.607
 20
-97.437
 11
-90.6884
 21
-97.9751
  0
LINE
  8
0
 10
-90.6884
 20
-97.9751
 11
-91.5596
 21
-104.714
  0
LINE
  8
0
 10
-91.5596
 20
-104.714
 11
-91.6129
 21
-105.2
  0
LINE
  8
0
 10
-91.6129
 20
-105.2
 11
-92.2351
 21
-112.087
  0
LINE
  8
0
 10
-92.2351
 20
-112.087
 11
-92.2628
 21
-112.452
  0
LINE
  8
0
 10
-92.2628
 20
-112.452
 11
-92.5484
 21
-117.109
  0
LINE
  8
0
 10
-92.5484
 20
-117.109
 11
-92.562
 21
-117.377
  0
LINE
  8
0
 10
-92.562
 20
-117.377
 11
-92.7517
 21
-122.1
  0
LINE
  8
0
 10
-92.7517
 20
-122.1
 11
-92.7592
 21
-122.347
  0
LINE
  8
0
 10
-92.7592
 20
-122.347
 11
-92.8583
 21
-127.124
  0
LINE
  8
0
 10
-92.8583
 20
-127.124
 11
-92.861
 21
-127.349
  0
LINE
  8
0
 10
-92.861
 20
-127.349
 11
-92.8753
 21
-132.177
  0
LINE
  8
0
 10
-92.8753
 20
-132.177
 11
-92.8742
 21
-132.382
  0
LINE
  8
0
 10
-92.8742
 20
-132.382
 11
-92.8096
 21
-137.258
  0
LINE
  8
0
 10
-92.8096
 20
-137.258
 11
-92.8058
 21
-137.444
  0
LINE
  8
0
 10
-92.8058
 20
-137.444
 11
-92.6685
 21
-142.366
  0
LINE
  8
0
 10
-92.6685
 20
-142.366
 11
-92.6627
 21
-142.533
  0
LINE
  8
0
 10
-92.6627
 20
-142.533
 11
-92.4518
 21
-147.648
  0
LINE
  8
0
 10
-92.4518
 20
-147.648
 11
-92.1802
 21
-152.789
  0
LINE
  8
0
 10
-92.1802
 20
-152.789
 11
-91.8546
 21
-157.956
  0
LINE
  8
0
 10
-91.8546
 20
-157.956
 11
-91.4823
 21
-163.15
  0
LINE
  8
0
 10
-91.4823
 20
-163.15
 11
-91.0704
 21
-168.371
  0
LINE
  8
0
 10
-91.0704
 20
-168.371
 11
-90.626
 21
-173.622
  0
LINE
  8
0
 10
-90.626
 20
-173.622
 11
-90.1562
 21
-178.905
  0
LINE
  8
0
 10
-90.1562
 20
-178.905
 11
-89.6687
 21
-184.223
  0
LINE
  8
0
 10
-89.6687
 20
-184.223
 11
-88.668
 21
-194.993
  0
LINE
  8
0
 10
-88.668
 20
-194.993
 11
-88.1701
 21
-200.454
  0
LINE
  8
0
 10
-88.1701
 20
-200.454
 11
-87.6844
 21
-205.968
  0
LINE
  8
0
 10
-87.6844
 20
-205.968
 11
-87.2177
 21
-211.549
  0
LINE
  8
0
 10
-87.2177
 20
-211.549
 11
-86.7643
 21
-217.364
  0
LINE
  8
0
 10
-86.7643
 20
-217.364
 11
-86.1035
 21
-224.897
  0
LINE
  8
0
 10
-86.1035
 20
-224.897
 11
-86.0763
 21
-225.172
  0
LINE
  8
0
 10
-86.0763
 20
-225.172
 11
-85.2596
 21
-232.614
  0
LINE
  8
0
 10
-85.2596
 20
-232.614
 11
-85.2388
 21
-232.792
  0
LINE
  8
0
 10
-85.2388
 20
-232.792
 11
-84.3114
 21
-240.265
  0
LINE
  8
0
 10
-84.3114
 20
-240.265
 11
-83.3505
 21
-247.648
  0
LINE
  8
0
 10
-83.3505
 20
-247.648
 11
-82.4104
 21
-254.99
  0
LINE
  8
0
 10
-82.4104
 20
-254.99
 11
-81.545
 21
-262.296
  0
LINE
  8
0
 10
-81.545
 20
-262.296
 11
-80.8003
 21
-269.58
  0
LINE
  8
0
 10
-80.8003
 20
-269.58
 11
-80.2155
 21
-276.858
  0
LINE
  8
0
 10
-80.2155
 20
-276.858
 11
-79.8244
 21
-284.134
  0
LINE
  8
0
 10
-79.8244
 20
-284.134
 11
-79.657
 21
-291.4
  0
LINE
  8
0
 10
-79.657
 20
-291.4
 11
-79.7396
 21
-298.643
  0
LINE
  8
0
 10
-79.7396
 20
-298.643
 11
-80.0954
 21
-305.846
  0
LINE
  8
0
 10
-80.0954
 20
-305.846
 11
-80.7449
 21
-312.98
  0
LINE
  8
0
 10
-80.7449
 20
-312.98
 11
-81.7068
 21
-320.021
  0
LINE
  8
0
 10
-81.7068
 20
-320.021
 11
-82.9977
 21
-326.939
  0
LINE
  8
0
 10
-82.9977
 20
-326.939
 11
-84.6324
 21
-333.704
  0
LINE
  8
0
 10
-84.6324
 20
-333.704
 11
-86.6248
 21
-340.289
  0
LINE
  8
0
 10
-86.6248
 20
-340.289
 11
-88.9878
 21
-346.667
  0
LINE
  8
0
 10
-88.9878
 20
-346.667
 11
-91.7352
 21
-352.818
  0
LINE
  8
0
 10
-91.7352
 20
-352.818
 11
-95.1041
 21
-359.136
  0
LINE
  8
0
 10
-95.1041
 20
-359.136
 11
-96.1016
 21
-361.596
  0
LINE
  8
0
 10
-96.1016
 20
-361.596
 11
-96.5657
 21
-364.21
  0
LINE
  8
0
 10
-96.5657
 20
-364.21
 11
-96.4762
 21
-366.864
  0
LINE
  8
0
 10
-96.4762
 20
-366.864
 11
-95.8369
 21
-369.441
  0
LINE
  8
0
 10
-95.8369
 20
-369.441
 11
-94.6758
 21
-371.829
  0
LINE
  8
0
 10
-94.6758
 20
-371.829
 11
-93.0437
 21
-373.923
  0
LINE
  8
0
 10
-93.0437
 20
-373.923
 11
-90.2766
 21
-376.093
  0
LINE
  8
0
 10
-90.2766
 20
-376.093
 11
-56.3861
 21
-395.779
  0
LINE
  8
0
 10
-56.3861
 20
-395.779
 11
-53.9634
 21
-396.865
  0
LINE
  8
0
 10
-53.9634
 20
-396.865
 11
-51.3679
 21
-397.424
  0
LINE
  8
0
 10
-51.3679
 20
-397.424
 11
-48.7129
 21
-397.431
  0
LINE
  8
0
 10
-48.7129
 20
-397.431
 11
-46.1144
 21
-396.886
  0
LINE
  8
0
 10
-46.1144
 20
-396.886
 11
-43.6861
 21
-395.812
  0
LINE
  8
0
 10
-43.6861
 20
-395.812
 11
-41.534
 21
-394.257
  0
LINE
  8
0
 10
-41.534
 20
-394.257
 11
-39.7523
 21
-392.289
  0
LINE
  8
0
 10
-39.7523
 20
-392.289
 11
-38.9942
 21
-391.122
  0
LINE
  8
0
 10
-38.9942
 20
-391.122
 11
-33.3842
 21
-381.352
  0
LINE
  8
0
 10
-33.3842
 20
-381.352
 11
-28.1573
 21
-372.015
  0
LINE
  8
0
 10
-28.1573
 20
-372.015
 11
-23.3945
 21
-363.251
  0
LINE
  8
0
 10
-23.3945
 20
-363.251
 11
-23.3048
 21
-363.083
  0
LINE
  8
0
 10
-23.3048
 20
-363.083
 11
-18.9224
 21
-354.721
  0
LINE
  8
0
 10
-18.9224
 20
-354.721
 11
-18.8185
 21
-354.519
  0
LINE
  8
0
 10
-18.8185
 20
-354.519
 11
-14.8111
 21
-346.528
  0
LINE
  8
0
 10
-14.8111
 20
-346.528
 11
-14.6921
 21
-346.284
  0
LINE
  8
0
 10
-14.6921
 20
-346.284
 11
-11.0538
 21
-338.625
  0
LINE
  8
0
 10
-11.0538
 20
-338.625
 11
-10.9203
 21
-338.334
  0
LINE
  8
0
 10
-10.9203
 20
-338.334
 11
-7.64357
 21
-330.963
  0
LINE
  8
0
 10
-7.64357
 20
-330.963
 11
-7.49866
 21
-330.624
  0
LINE
  8
0
 10
-7.49866
 20
-330.624
 11
-4.57291
 21
-323.492
  0
LINE
  8
0
 10
-4.57291
 20
-323.492
 11
-4.42204
 21
-323.106
  0
LINE
  8
0
 10
-4.42204
 20
-323.106
 11
-1.83295
 21
-316.157
  0
LINE
  8
0
 10
-1.83295
 20
-316.157
 11
-1.6835
 21
-315.733
  0
LINE
  8
0
 10
-1.6835
 20
-315.733
 11
0
 21
-310.675
  0
LINE
  8
0
 10
0
 20
-310.675
 11
1.68352
 21
-315.733
  0
LINE
  8
0
 10
1.68352
 20
-315.733
 11
1.83296
 21
-316.157
  0
LINE
  8
0
 10
1.83296
 20
-316.157
 11
4.42206
 21
-323.106
  0
LINE
  8
0
 10
4.42206
 20
-323.106
 11
4.57292
 21
-323.492
  0
LINE
  8
0
 10
4.57292
 20
-323.492
 11
7.49867
 21
-330.624
  0
LINE
  8
0
 10
7.49867
 20
-330.624
 11
7.64359
 21
-330.963
  0
LINE
  8
0
 10
7.64359
 20
-330.963
 11
10.9204
 21
-338.334
  0
LINE
  8
0
 10
10.9204
 20
-338.334
 11
11.0538
 21
-338.625
  0
LINE
  8
0
 10
11.0538
 20
-338.625
 11
14.6921
 21
-346.284
  0
LINE
  8
0
 10
14.6921
 20
-346.284
 11
14.8111
 21
-346.528
  0
LINE
  8
0
 10
14.8111
 20
-346.528
 11
18.8185
 21
-354.519
  0
LINE
  8
0
 10
18.8185
 20
-354.519
 11
18.9224
 21
-354.721
  0
LINE
  8
0
 10
18.9224
 20
-354.721
 11
23.3048
 21
-363.083
  0
LINE
  8
0
 10
23.3048
 20
-363.083
 11
23.3945
 21
-363.251
  0
LINE
  8
0
 10
23.3945
 20
-363.251
 11
28.1573
 21
-372.015
  0
LINE
  8
0
 10
28.1573
 20
-372.015
 11
33.4523
 21
-381.472
  0
LINE
  8
0
 10
33.4523
 20
-381.472
 11
38.9942
 21
-391.122
  0
LINE
  8
0
 10
38.9942
 20
-391.122
 11
40.5499
 21
-393.273
  0
LINE
  8
0
 10
40.5499
 20
-393.273
 11
42.5189
 21
-395.054
  0
LINE
  8
0
 10
42.5189
 20
-395.054
 11
44.8152
 21
-396.387
  0
LINE
  8
0
 10
44.8152
 20
-396.387
 11
47.3384
 21
-397.213
  0
LINE
  8
0
 10
47.3384
 20
-397.213
 11
49.9782
 21
-397.497
  0
LINE
  8
0
 10
49.9782
 20
-397.497
 11
52.6193
 21
-397.225
  0
LINE
  8
0
 10
44.4653
 20
-375.147
 11
39.3162
 21
-365.951
  0
LINE
  8
0
 10
39.3162
 20
-365.951
 11
34.5534
 21
-357.187
  0
LINE
  8
0
 10
34.5534
 20
-357.187
 11
30.171
 21
-348.825
  0
LINE
  8
0
 10
30.171
 20
-348.825
 11
26.1636
 21
-340.835
  0
LINE
  8
0
 10
26.1636
 20
-340.835
 11
22.5253
 21
-333.175
  0
LINE
  8
0
 10
22.5253
 20
-333.175
 11
19.2486
 21
-325.804
  0
LINE
  8
0
 10
19.2486
 20
-325.804
 11
16.3228
 21
-318.672
  0
LINE
  8
0
 10
16.3228
 20
-318.672
 11
13.7337
 21
-311.723
  0
LINE
  8
0
 10
13.7337
 20
-311.723
 11
11.4623
 21
-304.898
  0
LINE
  8
0
 10
11.4623
 20
-304.898
 11
9.485
 21
-298.132
  0
LINE
  8
0
 10
9.485
 20
-298.132
 11
7.77368
 21
-291.356
  0
LINE
  8
0
 10
7.77368
 20
-291.356
 11
6.29701
 21
-284.499
  0
LINE
  8
0
 10
6.29701
 20
-284.499
 11
5.02187
 21
-277.489
  0
LINE
  8
0
 10
5.02187
 20
-277.489
 11
3.91542
 21
-270.256
  0
LINE
  8
0
 10
3.91542
 20
-270.256
 11
2.94701
 21
-262.732
  0
LINE
  8
0
 10
2.94701
 20
-262.732
 11
2.09004
 21
-254.856
  0
LINE
  8
0
 10
2.09004
 20
-254.856
 11
1.32289
 21
-246.573
  0
LINE
  8
0
 10
1.32289
 20
-246.573
 11
0.629349
 21
-237.832
  0
LINE
  8
0
 10
0.629349
 20
-237.832
 11
0
 21
-228.604
  0
LINE
  8
0
 10
0
 20
-228.604
 11
-0.629333
 21
-237.832
  0
LINE
  8
0
 10
-0.629333
 20
-237.832
 11
-1.32288
 21
-246.573
  0
LINE
  8
0
 10
-1.32288
 20
-246.573
 11
-2.09003
 21
-254.856
  0
LINE
  8
0
 10
-2.09003
 20
-254.856
 11
-2.94699
 21
-262.732
  0
LINE
  8
0
 10
-2.94699
 20
-262.732
 11
-3.91541
 21
-270.256
  0
LINE
  8
0
 10
-3.91541
 20
-270.256
 11
-5.02185
 21
-277.489
  0
LINE
  8
0
 10
-5.02185
 20
-277.489
 11
-6.297
 21
-284.499
  0
LINE
  8
0
 10
-6.297
 20
-284.499
 11
-7.77367
 21
-291.356
  0
LINE
  8
0
 10
-7.77367
 20
-291.356
 11
-9.48499
 21
-298.132
  0
LINE
  8
0
 10
-9.48499
 20
-298.132
 11
-11.4623
 21
-304.898
  0
LINE
  8
0
 10
-11.4623
 20
-304.898
 11
-13.7337
 21
-311.723
  0
LINE
  8
0
 10
-13.7337
 20
-311.723
 11
-16.3228
 21
-318.672
  0
LINE
  8
0
 10
-16.3228
 20
-318.672
 11
-19.2486
 21
-325.804
  0
LINE
  8
0
 10
-19.2486
 20
-325.804
 11
-22.5253
 21
-333.175
  0
LINE
  8
0
 10
-22.5253
 20
-333.175
 11
-26.1636
 21
-340.835
  0
LINE
  8
0
 10
-26.1636
 20
-340.835
 11
-30.171
 21
-348.825
  0
LINE
  8
0
 10
-30.171
 20
-348.825
 11
-34.5534
 21
-357.187
  0
LINE
  8
0
 10
-34.5534
 20
-357.187
 11
-39.3162
 21
-365.951
  0
LINE
  8
0
 10
-39.3162
 20
-365.951
 11
-44.4653
 21
-375.147
  0
LINE
  8
0
 10
-44.4653
 20
-375.147
 11
-50.0072
 21
-384.797
  0
LINE
  8
0
 10
-50.0072
 20
-384.797
 11
-83.8977
 21
-365.111
  0
LINE
  8
0
 10
-83.8977
 20
-365.111
 11
-80.3202
 21
-358.402
  0
LINE
  8
0
 10
-80.3202
 20
-358.402
 11
-77.2229
 21
-351.468
  0
LINE
  8
0
 10
-77.2229
 20
-351.468
 11
-74.5812
 21
-344.337
  0
LINE
  8
0
 10
-74.5812
 20
-344.337
 11
-72.3723
 21
-337.037
  0
LINE
  8
0
 10
-72.3723
 20
-337.037
 11
-70.5745
 21
-329.597
  0
LINE
  8
0
 10
-70.5745
 20
-329.597
 11
-69.1655
 21
-322.047
  0
LINE
  8
0
 10
-69.1655
 20
-322.047
 11
-68.1231
 21
-314.416
  0
LINE
  8
0
 10
-68.1231
 20
-314.416
 11
-67.4238
 21
-306.735
  0
LINE
  8
0
 10
-67.4238
 20
-306.735
 11
-67.0432
 21
-299.029
  0
LINE
  8
0
 10
-67.0432
 20
-299.029
 11
-66.9554
 21
-291.326
  0
LINE
  8
0
 10
-66.9554
 20
-291.326
 11
-67.1322
 21
-283.646
  0
LINE
  8
0
 10
-67.1322
 20
-283.646
 11
-67.5428
 21
-276.009
  0
LINE
  8
0
 10
-67.5428
 20
-276.009
 11
-68.1522
 21
-268.426
  0
LINE
  8
0
 10
-68.1522
 20
-268.426
 11
-68.9212
 21
-260.902
  0
LINE
  8
0
 10
-68.9212
 20
-260.902
 11
-69.8055
 21
-253.437
  0
LINE
  8
0
 10
-69.8055
 20
-253.437
 11
-70.7555
 21
-246.019
  0
LINE
  8
0
 10
-70.7555
 20
-246.019
 11
-71.7176
 21
-238.626
  0
LINE
  8
0
 10
-71.7176
 20
-238.626
 11
-72.6354
 21
-231.228
  0
LINE
  8
0
 10
-72.6354
 20
-231.228
 11
-73.4521
 21
-223.787
  0
LINE
  8
0
 10
-73.4521
 20
-223.787
 11
-74.1129
 21
-216.254
  0
LINE
  8
0
 10
-74.1129
 20
-216.254
 11
-74.559
 21
-210.525
  0
LINE
  8
0
 10
-74.559
 20
-210.525
 11
-75.0308
 21
-204.882
  0
LINE
  8
0
 10
-75.0308
 20
-204.882
 11
-75.5209
 21
-199.32
  0
LINE
  8
0
 10
-75.5209
 20
-199.32
 11
-76.0214
 21
-193.83
  0
LINE
  8
0
 10
-76.0214
 20
-193.83
 11
-77.0232
 21
-183.048
  0
LINE
  8
0
 10
-77.0232
 20
-183.048
 11
-77.5093
 21
-177.746
  0
LINE
  8
0
 10
-77.5093
 20
-177.746
 11
-77.9758
 21
-172.498
  0
LINE
  8
0
 10
-77.9758
 20
-172.498
 11
-78.4156
 21
-167.301
  0
LINE
  8
0
 10
-78.4156
 20
-167.301
 11
-78.8217
 21
-162.152
  0
LINE
  8
0
 10
-78.8217
 20
-162.152
 11
-79.1871
 21
-157.049
  0
LINE
  8
0
 10
-79.1871
 20
-157.049
 11
-79.5052
 21
-151.992
  0
LINE
  8
0
 10
-79.5052
 20
-151.992
 11
-79.7695
 21
-146.98
  0
LINE
  8
0
 10
-79.7695
 20
-146.98
 11
-79.9734
 21
-142.012
  0
LINE
  8
0
 10
-79.9734
 20
-142.012
 11
-80.1107
 21
-137.09
  0
LINE
  8
0
 10
-80.1107
 20
-137.09
 11
-80.1753
 21
-132.214
  0
LINE
  8
0
 10
-80.1753
 20
-132.214
 11
-80.161
 21
-127.387
  0
LINE
  8
0
 10
-80.161
 20
-127.387
 11
-80.062
 21
-122.61
  0
LINE
  8
0
 10
-80.062
 20
-122.61
 11
-79.8722
 21
-117.887
  0
LINE
  8
0
 10
-79.8722
 20
-117.887
 11
-79.5866
 21
-113.23
  0
LINE
  8
0
 10
-79.5866
 20
-113.23
 11
-78.9644
 21
-106.342
  0
LINE
  8
0
 10
-78.9644
 20
-106.342
 11
-78.0932
 21
-99.6035
  0
LINE
  8
0
 10
-78.0932
 20
-99.6035
 11
-76.9548
 21
-93.028
  0
LINE
  8
0
 10
-76.9548
 20
-93.028
 11
-75.5311
 21
-86.6328
  0
LINE
  8
0
 10
-75.5311
 20
-86.6328
 11
-73.804
 21
-80.4359
  0
LINE
  8
0
 10
-73.804
 20
-80.4359
 11
-71.7559
 21
-74.4569
  0
LINE
  8
0
 10
-71.7559
 20
-74.4569
 11
-69.3693
 21
-68.7163
  0
LINE
  8
0
 10
-69.3693
 20
-68.7163
 11
-66.6268
 21
-63.2356
  0
LINE
  8
0
 10
-66.6268
 20
-63.2356
 11
-63.511
 21
-58.0372
  0
LINE
  8
0
 10
-63.511
 20
-58.0372
 11
-60.005
 21
-53.1444
  0
LINE
  8
0
 10
-60.005
 20
-53.1444
 11
-56.0918
 21
-48.581
  0
LINE
  8
0
 10
-56.0918
 20
-48.581
 11
-51.7543
 21
-44.3715
  0
LINE
  8
0
 10
-51.7543
 20
-44.3715
 11
-46.9759
 21
-40.541
  0
LINE
  8
0
 10
-46.9759
 20
-40.541
 11
-41.7397
 21
-37.1151
  0
LINE
  8
0
 10
-41.7397
 20
-37.1151
 11
-36.029
 21
-34.1196
  0
LINE
  8
0
 10
-36.029
 20
-34.1196
 11
-29.8272
 21
-31.5811
  0
LINE
  8
0
 10
-29.8272
 20
-31.5811
 11
-23.1177
 21
-29.5262
  0
LINE
  8
0
 10
-23.1177
 20
-29.5262
 11
-15.8837
 21
-27.9818
  0
LINE
  8
0
 10
-15.8837
 20
-27.9818
 11
-8.10875
 21
-26.9753
  0
LINE
  8
0
 10
-8.10875
 20
-26.9753
 11
-0.224197
 21
-26.5578
  0
LINE
  8
0
 10
-0.224197
 20
-26.5578
 11
-0.223785
 21
-26.5341
  0
LINE
  8
0
 10
-0.223785
 20
-26.5341
 11
0
 21
-26.5459
  0
LINE
  8
0
 10
0
 20
-26.5459
 11
0.223801
 21
-26.5341
  0
LINE
  8
0
 10
0.223801
 20
-26.5341
 11
0.224213
 21
-26.5578
  0
LINE
  8
0
 10
0.224213
 20
-26.5578
 11
8.10876
 21
-26.9753
  0
LINE
  8
0
 10
8.10876
 20
-26.9753
 11
15.8837
 21
-27.9818
  0
LINE
  8
0
 10
15.8837
 20
-27.9818
 11
23.1177
 21
-29.5262
  0
LINE
  8
0
 10
23.1177
 20
-29.5262
 11
29.8272
 21
-31.5811
  0
LINE
  8
0
 10
29.8272
 20
-31.5811
 11
36.029
 21
-34.1196
  0
LINE
  8
0
 10
36.029
 20
-34.1196
 11
41.7397
 21
-37.1151
  0
LINE
  8
0
 10
41.7397
 20
-37.1151
 11
46.9759
 21
-40.541
  0
LINE
  8
0
 10
46.9759
 20
-40.541
 11
51.7543
 21
-44.3715
  0
LINE
  8
0
 10
51.7543
 20
-44.3715
 11
56.0918
 21
-48.581
  0
LINE
  8
0
 10
56.0918
 20
-48.581
 11
60.005
 21
-53.1444
  0
LINE
  8
0
 10
60.005
 20
-53.1444
 11
63.511
 21
-58.0372
  0
LINE
  8
0
 10
63.511
 20
-58.0372
 11
66.6268
 21
-63.2356
  0
LINE
  8
0
 10
66.6268
 20
-63.2356
 11
69.3693
 21
-68.7163
  0
LINE
  8
0
 10
69.3693
 20
-68.7163
 11
71.7559
 21
-74.4569
  0
LINE
  8
0
 10
71.7559
 20
-74.4569
 11
73.804
 21
-80.4359
  0
LINE
  8
0
 10
73.804
 20
-80.4359
 11
75.5311
 21
-86.6328
  0
LINE
  8
0
 10
75.5311
 20
-86.6328
 11
76.9548
 21
-93.028
  0
LINE
  8
0
 10
76.9548
 20
-93.028
 11
78.0932
 21
-99.6035
  0
LINE
  8
0
 10
78.0932
 20
-99.6035
 11
78.9644
 21
-106.342
  0
LINE
  8
0
 10
78.9644
 20
-106.342
 11
79.5866
 21
-113.23
  0
LINE
  8
0
 10
79.5866
 20
-113.23
 11
79.8722
 21
-117.887
  0
LINE
  8
0
 10
79.8722
 20
-117.887
 11
80.062
 21
-122.61
  0
LINE
  8
0
 10
80.062
 20
-122.61
 11
80.161
 21
-127.387
  0
LINE
  8
0
 10
80.161
 20
-127.387
 11
80.1753
 21
-132.214
  0
LINE
  8
0
 10
80.1753
 20
-132.214
 11
80.1107
 21
-137.09
  0
LINE
  8
0
 10
80.1107
 20
-137.09
 11
79.9734
 21
-142.012
  0
LINE
  8
0
 10
79.9734
 20
-142.012
 11
79.7695
 21
-146.98
  0
LINE
  8
0
 10
79.7695
 20
-146.98
 11
79.5052
 21
-151.992
  0
LINE
  8
0
 10
79.5052
 20
-151.992
 11
79.1871
 21
-157.049
  0
LINE
  8
0
 10
79.1871
 20
-157.049
 11
78.8217
 21
-162.152
  0
LINE
  8
0
 10
78.8217
 20
-162.152
 11
78.4156
 21
-167.301
  0
LINE
  8
0
 10
78.4156
 20
-167.301
 11
77.9758
 21
-172.498
  0
LINE
  8
0
 10
77.9758
 20
-172.498
 11
77.5093
 21
-177.746
  0
LINE
  8
0
 10
77.5093
 20
-177.746
 11
77.0232
 21
-183.048
  0
LINE
  8
0
 10
77.0232
 20
-183.048
 11
76.0214
 21
-193.83
  0
LINE
  8
0
 10
76.0214
 20
-193.83
 11
75.5209
 21
-199.32
  0
LINE
  8
0
 10
75.5209
 20
-199.32
 11
75.0308
 21
-204.882
  0
LINE
  8
0
 10
75.0308
 20
-204.882
 11
74.559
 21
-210.525
  0
LINE
  8
0
 10
74.559
 20
-210.525
 11
74.1129
 21
-216.254
  0
LINE
  8
0
 10
74.1129
 20
-216.254
 11
73.4521
 21
-223.787
  0
LINE
  8
0
 10
73.4521
 20
-223.787
 11
72.6354
 21
-231.228
  0
LINE
  8
0
 10
72.6354
 20
-231.228
 11
71.7176
 21
-238.626
  0
LINE
  8
0
 10
71.7176
 20
-238.626
 11
70.7555
 21
-246.019
  0
LINE
  8
0
 10
70.7555
 20
-246.019
 11
69.8055
 21
-253.437
  0
LINE
  8
0
 10
69.8055
 20
-253.437
 11
68.9212
 21
-260.902
  0
LINE
  8
0
 10
68.9212
 20
-260.902
 11
68.1522
 21
-268.426
  0
LINE
  8
0
 10
68.1522
 20
-268.426
 11
67.5428
 21
-276.009
  0
LINE
  8
0
 10
67.5428
 20
-276.009
 11
67.1322
 21
-283.646
  0
LINE
  8
0
 10
67.1322
 20
-283.646
 11
66.9554
 21
-291.326
  0
LINE
  8
0
 10
66.9554
 20
-291.326
 11
67.0432
 21
-299.029
  0
LINE
  8
0
 10
67.0432
 20
-299.029
 11
67.4238
 21
-306.735
  0
LINE
  8
0
 10
67.4238
 20
-306.735
 11
68.1231
 21
-314.416
  0
LINE
  8
0
 10
68.1231
 20
-314.416
 11
69.1655
 21
-322.047
  0
LINE
  8
0
 10
69.1655
 20
-322.047
 11
70.5745
 21
-329.597
  0
LINE
  8
0
 10
70.5745
 20
-329.597
 11
72.3723
 21
-337.037
  0
LINE
  8
0
 10
72.3723
 20
-337.037
 11
74.5812
 21
-344.337
  0
LINE
  8
0
 10
74.5812
 20
-344.337
 11
77.2229
 21
-351.468
  0
LINE
  8
0
 10
77.2229
 20
-351.468
 11
80.3202
 21
-358.402
  0
LINE
  8
0
 10
80.3202
 20
-358.402
 11
83.8977
 21
-365.111
  0
LINE
  8
0
 10
83.8977
 20
-365.111
 11
50.0072
 21
-384.797
  0
LINE
  8
0
 10
50.0072
 20
-384.797
 11
44.4653
 21
-375.147
  0
LINE
  8
0
 10
50.8
 20
-101.6
 11
-50.8
 21
-101.6
  0
LINE
  8
0
 10
-50.8
 20
-101.6
 11
-50.8
 21
-203.2
  0
LINE
  8
0
 10
-50.8
 20
-203.2
 11
50.8
 21
-203.2
  0
LINE
  8
0
 10
50.8
 20
-203.2
 11
50.8
 21
-101.6
  0
ENDSEC
  0
SECTION
  2
OBJECTS
  0
DICTIONARY
  0
ENDSEC
  0
EOF
