  0
SECTION
  2
BLOCKS
  0
ENDSEC
  0
SECTION
  2
ENTITIES
  0
LINE
  8
0
 10
157.364
 20
250.285
 11
157.744
 21
250.393
  0
LINE
  8
0
 10
157.744
 20
250.393
 11
158.421
 21
250.418
  0
LINE
  8
0
 10
158.421
 20
250.418
 11
159.133
 21
250.465
  0
LINE
  8
0
 10
159.133
 20
250.465
 11
166.917
 21
251.195
  0
LINE
  8
0
 10
166.917
 20
251.195
 11
167.694
 21
251.293
  0
LINE
  8
0
 10
167.694
 20
251.293
 11
174.941
 21
252.427
  0
LINE
  8
0
 10
174.941
 20
252.427
 11
175.782
 21
252.588
  0
LINE
  8
0
 10
175.782
 20
252.588
 11
182.51
 21
254.111
  0
LINE
  8
0
 10
182.51
 20
254.111
 11
183.41
 21
254.35
  0
LINE
  8
0
 10
183.41
 20
254.35
 11
189.635
 21
256.248
  0
LINE
  8
0
 10
189.635
 20
256.248
 11
190.583
 21
256.579
  0
LINE
  8
0
 10
190.583
 20
256.579
 11
196.321
 21
258.838
  0
LINE
  8
0
 10
196.321
 20
258.838
 11
197.3
 21
259.271
  0
LINE
  8
0
 10
197.3
 20
259.271
 11
202.569
 21
261.878
  0
LINE
  8
0
 10
202.569
 20
261.878
 11
203.555
 21
262.421
  0
LINE
  8
0
 10
203.555
 20
262.421
 11
208.372
 21
265.361
  0
LINE
  8
0
 10
208.372
 20
265.361
 11
209.338
 21
266.014
  0
LINE
  8
0
 10
209.338
 20
266.014
 11
213.719
 21
269.274
  0
LINE
  8
0
 10
213.719
 20
269.274
 11
214.636
 21
270.026
  0
LINE
  8
0
 10
214.636
 20
270.026
 11
218.598
 21
273.594
  0
LINE
  8
0
 10
218.598
 20
273.594
 11
219.438
 21
274.425
  0
LINE
  8
0
 10
219.438
 20
274.425
 11
222.999
 21
278.29
  0
LINE
  8
0
 10
222.999
 20
278.29
 11
223.743
 21
279.175
  0
LINE
  8
0
 10
223.743
 20
279.175
 11
226.919
 21
283.324
  0
LINE
  8
0
 10
226.919
 20
283.324
 11
227.554
 21
284.233
  0
LINE
  8
0
 10
227.554
 20
284.233
 11
230.364
 21
288.655
  0
LINE
  8
0
 10
230.364
 20
288.655
 11
230.888
 21
289.56
  0
LINE
  8
0
 10
230.888
 20
289.56
 11
233.348
 21
294.244
  0
LINE
  8
0
 10
233.348
 20
294.244
 11
233.766
 21
295.12
  0
LINE
  8
0
 10
233.766
 20
295.12
 11
235.894
 21
300.056
  0
LINE
  8
0
 10
235.894
 20
300.056
 11
236.218
 21
300.885
  0
LINE
  8
0
 10
236.218
 20
300.885
 11
238.032
 21
306.062
  0
LINE
  8
0
 10
238.032
 20
306.062
 11
238.274
 21
306.831
  0
LINE
  8
0
 10
238.274
 20
306.831
 11
239.792
 21
312.242
  0
LINE
  8
0
 10
239.792
 20
312.242
 11
239.968
 21
312.943
  0
LINE
  8
0
 10
239.968
 20
312.943
 11
241.208
 21
318.578
  0
LINE
  8
0
 10
241.208
 20
318.578
 11
241.33
 21
319.21
  0
LINE
  8
0
 10
241.33
 20
319.21
 11
242.31
 21
325.062
  0
LINE
  8
0
 10
242.31
 20
325.062
 11
242.391
 21
325.625
  0
LINE
  8
0
 10
242.391
 20
325.625
 11
243.129
 21
331.687
  0
LINE
  8
0
 10
243.129
 20
331.687
 11
243.173
 21
332.103
  0
LINE
  8
0
 10
243.173
 20
332.103
 11
243.539
 21
336.248
  0
LINE
  8
0
 10
243.539
 20
336.248
 11
243.562
 21
336.549
  0
LINE
  8
0
 10
243.562
 20
336.549
 11
243.836
 21
340.792
  0
LINE
  8
0
 10
243.836
 20
340.792
 11
243.85
 21
341.066
  0
LINE
  8
0
 10
243.85
 20
341.066
 11
244.036
 21
345.396
  0
LINE
  8
0
 10
244.036
 20
345.396
 11
244.044
 21
345.643
  0
LINE
  8
0
 10
244.044
 20
345.643
 11
244.146
 21
350.059
  0
LINE
  8
0
 10
244.146
 20
350.059
 11
244.15
 21
350.282
  0
LINE
  8
0
 10
244.15
 20
350.282
 11
244.175
 21
354.782
  0
LINE
  8
0
 10
244.175
 20
354.782
 11
244.175
 21
354.982
  0
LINE
  8
0
 10
244.175
 20
354.982
 11
244.129
 21
359.565
  0
LINE
  8
0
 10
244.129
 20
359.565
 11
244.126
 21
359.742
  0
LINE
  8
0
 10
244.126
 20
359.742
 11
244.01
 21
364.563
  0
LINE
  8
0
 10
244.01
 20
364.563
 11
243.833
 21
369.446
  0
LINE
  8
0
 10
243.833
 20
369.446
 11
243.601
 21
374.39
  0
LINE
  8
0
 10
243.601
 20
374.39
 11
243.321
 21
379.397
  0
LINE
  8
0
 10
243.321
 20
379.397
 11
242.998
 21
384.466
  0
LINE
  8
0
 10
242.998
 20
384.466
 11
242.639
 21
389.599
  0
LINE
  8
0
 10
242.639
 20
389.599
 11
242.249
 21
394.796
  0
LINE
  8
0
 10
242.249
 20
394.796
 11
241.836
 21
400.058
  0
LINE
  8
0
 10
241.836
 20
400.058
 11
241.404
 21
405.388
  0
LINE
  8
0
 10
241.404
 20
405.388
 11
240.508
 21
416.259
  0
LINE
  8
0
 10
240.508
 20
416.259
 11
240.057
 21
421.794
  0
LINE
  8
0
 10
240.057
 20
421.794
 11
239.612
 21
427.409
  0
LINE
  8
0
 10
239.612
 20
427.409
 11
239.164
 21
433.27
  0
LINE
  8
0
 10
239.164
 20
433.27
 11
238.5
 21
440.802
  0
LINE
  8
0
 10
238.5
 20
440.802
 11
238.471
 21
441.091
  0
LINE
  8
0
 10
238.471
 20
441.091
 11
237.643
 21
448.524
  0
LINE
  8
0
 10
237.643
 20
448.524
 11
237.62
 21
448.719
  0
LINE
  8
0
 10
237.62
 20
448.719
 11
236.671
 21
456.19
  0
LINE
  8
0
 10
236.671
 20
456.19
 11
235.681
 21
463.539
  0
LINE
  8
0
 10
235.681
 20
463.539
 11
234.7
 21
470.851
  0
LINE
  8
0
 10
234.7
 20
470.851
 11
233.787
 21
478.097
  0
LINE
  8
0
 10
233.787
 20
478.097
 11
232.988
 21
485.302
  0
LINE
  8
0
 10
232.988
 20
485.302
 11
232.343
 21
492.479
  0
LINE
  8
0
 10
232.343
 20
492.479
 11
231.889
 21
499.634
  0
LINE
  8
0
 10
231.889
 20
499.634
 11
231.655
 21
506.765
  0
LINE
  8
0
 10
231.655
 20
506.765
 11
231.67
 21
513.861
  0
LINE
  8
0
 10
231.67
 20
513.861
 11
231.958
 21
520.908
  0
LINE
  8
0
 10
231.958
 20
520.908
 11
232.542
 21
527.886
  0
LINE
  8
0
 10
232.542
 20
527.886
 11
233.441
 21
534.771
  0
LINE
  8
0
 10
233.441
 20
534.771
 11
234.673
 21
541.54
  0
LINE
  8
0
 10
234.673
 20
541.54
 11
236.257
 21
548.169
  0
LINE
  8
0
 10
236.257
 20
548.169
 11
238.206
 21
554.637
  0
LINE
  8
0
 10
238.206
 20
554.637
 11
240.538
 21
560.923
  0
LINE
  8
0
 10
240.538
 20
560.923
 11
243.269
 21
567.011
  0
LINE
  8
0
 10
243.269
 20
567.011
 11
246.642
 21
573.302
  0
LINE
  8
0
 10
246.642
 20
573.302
 11
247.645
 21
575.76
  0
LINE
  8
0
 10
247.645
 20
575.76
 11
248.115
 21
578.373
  0
LINE
  8
0
 10
248.115
 20
578.373
 11
248.031
 21
581.027
  0
LINE
  8
0
 10
248.031
 20
581.027
 11
247.397
 21
583.605
  0
LINE
  8
0
 10
247.397
 20
583.605
 11
246.242
 21
585.995
  0
LINE
  8
0
 10
246.242
 20
585.995
 11
244.614
 21
588.093
  0
LINE
  8
0
 10
244.614
 20
588.093
 11
241.853
 21
590.269
  0
LINE
  8
0
 10
241.853
 20
590.269
 11
208.009
 21
610.034
  0
LINE
  8
0
 10
208.009
 20
610.034
 11
205.588
 21
611.126
  0
LINE
  8
0
 10
205.588
 20
611.126
 11
202.994
 21
611.69
  0
LINE
  8
0
 10
202.994
 20
611.69
 11
200.339
 21
611.704
  0
LINE
  8
0
 10
200.339
 20
611.704
 11
197.74
 21
611.165
  0
LINE
  8
0
 10
197.74
 20
611.165
 11
195.309
 21
610.097
  0
LINE
  8
0
 10
195.309
 20
610.097
 11
193.153
 21
608.547
  0
LINE
  8
0
 10
193.153
 20
608.547
 11
191.367
 21
606.583
  0
LINE
  8
0
 10
191.367
 20
606.583
 11
190.606
 21
605.417
  0
LINE
  8
0
 10
190.606
 20
605.417
 11
184.982
 21
595.676
  0
LINE
  8
0
 10
184.982
 20
595.676
 11
179.838
 21
586.537
  0
LINE
  8
0
 10
179.838
 20
586.537
 11
179.759
 21
586.395
  0
LINE
  8
0
 10
179.759
 20
586.395
 11
175.017
 21
577.713
  0
LINE
  8
0
 10
175.017
 20
577.713
 11
174.926
 21
577.541
  0
LINE
  8
0
 10
174.926
 20
577.541
 11
170.579
 21
569.284
  0
LINE
  8
0
 10
170.579
 20
569.284
 11
170.472
 21
569.076
  0
LINE
  8
0
 10
170.472
 20
569.076
 11
166.512
 21
561.207
  0
LINE
  8
0
 10
166.512
 20
561.207
 11
166.389
 21
560.956
  0
LINE
  8
0
 10
166.389
 20
560.956
 11
162.808
 21
553.43
  0
LINE
  8
0
 10
162.808
 20
553.43
 11
162.67
 21
553.13
  0
LINE
  8
0
 10
162.67
 20
553.13
 11
159.458
 21
545.901
  0
LINE
  8
0
 10
159.458
 20
545.901
 11
159.308
 21
545.549
  0
LINE
  8
0
 10
159.308
 20
545.549
 11
156.452
 21
538.562
  0
LINE
  8
0
 10
156.452
 20
538.562
 11
156.296
 21
538.162
  0
LINE
  8
0
 10
156.296
 20
538.162
 11
153.779
 21
531.357
  0
LINE
  8
0
 10
153.779
 20
531.357
 11
153.626
 21
530.919
  0
LINE
  8
0
 10
153.626
 20
530.919
 11
152.4
 21
527.19
  0
LINE
  8
0
 10
152.4
 20
527.19
 11
151.174
 21
530.919
  0
LINE
  8
0
 10
151.174
 20
530.919
 11
151.021
 21
531.357
  0
LINE
  8
0
 10
151.021
 20
531.357
 11
148.504
 21
538.162
  0
LINE
  8
0
 10
148.504
 20
538.162
 11
148.348
 21
538.562
  0
LINE
  8
0
 10
148.348
 20
538.562
 11
145.492
 21
545.549
  0
LINE
  8
0
 10
145.492
 20
545.549
 11
145.342
 21
545.901
  0
LINE
  8
0
 10
145.342
 20
545.901
 11
142.13
 21
553.13
  0
LINE
  8
0
 10
142.13
 20
553.13
 11
141.992
 21
553.43
  0
LINE
  8
0
 10
141.992
 20
553.43
 11
138.411
 21
560.956
  0
LINE
  8
0
 10
138.411
 20
560.956
 11
138.288
 21
561.207
  0
LINE
  8
0
 10
138.288
 20
561.207
 11
134.328
 21
569.076
  0
LINE
  8
0
 10
134.328
 20
569.076
 11
134.221
 21
569.284
  0
LINE
  8
0
 10
134.221
 20
569.284
 11
129.874
 21
577.541
  0
LINE
  8
0
 10
129.874
 20
577.541
 11
129.783
 21
577.713
  0
LINE
  8
0
 10
129.783
 20
577.713
 11
125.041
 21
586.395
  0
LINE
  8
0
 10
125.041
 20
586.395
 11
124.962
 21
586.537
  0
LINE
  8
0
 10
124.962
 20
586.537
 11
119.749
 21
595.796
  0
LINE
  8
0
 10
119.749
 20
595.796
 11
114.194
 21
605.417
  0
LINE
  8
0
 10
114.194
 20
605.417
 11
112.633
 21
607.565
  0
LINE
  8
0
 10
112.633
 20
607.565
 11
110.66
 21
609.342
  0
LINE
  8
0
 10
110.66
 20
609.342
 11
108.361
 21
610.669
  0
LINE
  8
0
 10
108.361
 20
610.669
 11
105.836
 21
611.489
  0
LINE
  8
0
 10
105.836
 20
611.489
 11
103.195
 21
611.767
  0
LINE
  8
0
 10
103.195
 20
611.767
 11
100.555
 21
611.489
  0
LINE
  8
0
 10
100.555
 20
611.489
 11
98.0298
 21
610.669
  0
LINE
  8
0
 10
98.0298
 20
610.669
 11
96.7914
 21
610.034
  0
LINE
  8
0
 10
96.7914
 20
610.034
 11
62.9469
 21
590.269
  0
LINE
  8
0
 10
62.9469
 20
590.269
 11
60.8067
 21
588.698
  0
LINE
  8
0
 10
60.8067
 20
588.698
 11
59.0399
 21
586.716
  0
LINE
  8
0
 10
59.0399
 20
586.716
 11
57.7239
 21
584.41
  0
LINE
  8
0
 10
57.7239
 20
584.41
 11
56.9159
 21
581.881
  0
LINE
  8
0
 10
56.9159
 20
581.881
 11
56.6515
 21
579.239
  0
LINE
  8
0
 10
56.6515
 20
579.239
 11
56.9421
 21
576.6
  0
LINE
  8
0
 10
56.9421
 20
576.6
 11
58.1583
 21
573.302
  0
LINE
  8
0
 10
58.1583
 20
573.302
 11
61.5307
 21
567.011
  0
LINE
  8
0
 10
61.5307
 20
567.011
 11
64.2618
 21
560.923
  0
LINE
  8
0
 10
64.2618
 20
560.923
 11
66.5936
 21
554.637
  0
LINE
  8
0
 10
66.5936
 20
554.637
 11
68.5433
 21
548.169
  0
LINE
  8
0
 10
68.5433
 20
548.169
 11
70.1265
 21
541.54
  0
LINE
  8
0
 10
70.1265
 20
541.54
 11
71.3592
 21
534.771
  0
LINE
  8
0
 10
71.3592
 20
534.771
 11
72.2582
 21
527.886
  0
LINE
  8
0
 10
72.2582
 20
527.886
 11
72.8419
 21
520.908
  0
LINE
  8
0
 10
72.8419
 20
520.908
 11
73.1301
 21
513.861
  0
LINE
  8
0
 10
73.1301
 20
513.861
 11
73.1451
 21
506.765
  0
LINE
  8
0
 10
73.1451
 20
506.765
 11
72.9114
 21
499.634
  0
LINE
  8
0
 10
72.9114
 20
499.634
 11
72.4566
 21
492.479
  0
LINE
  8
0
 10
72.4566
 20
492.479
 11
71.812
 21
485.302
  0
LINE
  8
0
 10
71.812
 20
485.302
 11
71.0129
 21
478.097
  0
LINE
  8
0
 10
71.0129
 20
478.097
 11
70.0999
 21
470.851
  0
LINE
  8
0
 10
70.0999
 20
470.851
 11
69.119
 21
463.539
  0
LINE
  8
0
 10
69.119
 20
463.539
 11
68.117
 21
456.096
  0
LINE
  8
0
 10
68.117
 20
456.096
 11
67.1799
 21
448.719
  0
LINE
  8
0
 10
67.1799
 20
448.719
 11
67.1567
 21
448.524
  0
LINE
  8
0
 10
67.1567
 20
448.524
 11
66.3292
 21
441.091
  0
LINE
  8
0
 10
66.3292
 20
441.091
 11
66.3004
 21
440.801
  0
LINE
  8
0
 10
66.3004
 20
440.801
 11
65.6239
 21
433.12
  0
LINE
  8
0
 10
65.6239
 20
433.12
 11
65.1881
 21
427.408
  0
LINE
  8
0
 10
65.1881
 20
427.408
 11
64.7425
 21
421.794
  0
LINE
  8
0
 10
64.7425
 20
421.794
 11
64.2917
 21
416.259
  0
LINE
  8
0
 10
64.2917
 20
416.259
 11
63.3949
 21
405.371
  0
LINE
  8
0
 10
63.3949
 20
405.371
 11
62.9618
 21
400.027
  0
LINE
  8
0
 10
62.9618
 20
400.027
 11
62.5471
 21
394.75
  0
LINE
  8
0
 10
62.5471
 20
394.75
 11
62.1568
 21
389.536
  0
LINE
  8
0
 10
62.1568
 20
389.536
 11
61.7969
 21
384.387
  0
LINE
  8
0
 10
61.7969
 20
384.387
 11
61.4736
 21
379.3
  0
LINE
  8
0
 10
61.4736
 20
379.3
 11
61.1931
 21
374.275
  0
LINE
  8
0
 10
61.1931
 20
374.275
 11
60.9615
 21
369.311
  0
LINE
  8
0
 10
60.9615
 20
369.311
 11
60.7853
 21
364.408
  0
LINE
  8
0
 10
60.7853
 20
364.408
 11
60.6738
 21
359.742
  0
LINE
  8
0
 10
60.6738
 20
359.742
 11
60.6708
 21
359.565
  0
LINE
  8
0
 10
60.6708
 20
359.565
 11
60.6251
 21
354.982
  0
LINE
  8
0
 10
60.6251
 20
354.982
 11
60.6247
 21
354.782
  0
LINE
  8
0
 10
60.6247
 20
354.782
 11
60.6503
 21
350.282
  0
LINE
  8
0
 10
60.6503
 20
350.282
 11
60.6535
 21
350.059
  0
LINE
  8
0
 10
60.6535
 20
350.059
 11
60.7562
 21
345.643
  0
LINE
  8
0
 10
60.7562
 20
345.643
 11
60.7644
 21
345.396
  0
LINE
  8
0
 10
60.7644
 20
345.396
 11
60.9497
 21
341.066
  0
LINE
  8
0
 10
60.9497
 20
341.066
 11
60.9644
 21
340.792
  0
LINE
  8
0
 10
60.9644
 20
340.792
 11
61.2378
 21
336.549
  0
LINE
  8
0
 10
61.2378
 20
336.549
 11
61.2608
 21
336.248
  0
LINE
  8
0
 10
61.2608
 20
336.248
 11
61.627
 21
332.103
  0
LINE
  8
0
 10
61.627
 20
332.103
 11
61.6708
 21
331.687
  0
LINE
  8
0
 10
61.6708
 20
331.687
 11
62.4085
 21
325.625
  0
LINE
  8
0
 10
62.4085
 20
325.625
 11
62.4899
 21
325.062
  0
LINE
  8
0
 10
62.4899
 20
325.062
 11
63.4699
 21
319.21
  0
LINE
  8
0
 10
63.4699
 20
319.21
 11
63.5922
 21
318.578
  0
LINE
  8
0
 10
63.5922
 20
318.578
 11
64.8322
 21
312.943
  0
LINE
  8
0
 10
64.8322
 20
312.943
 11
65.0076
 21
312.242
  0
LINE
  8
0
 10
65.0076
 20
312.242
 11
66.5257
 21
306.831
  0
LINE
  8
0
 10
66.5257
 20
306.831
 11
66.7679
 21
306.062
  0
LINE
  8
0
 10
66.7679
 20
306.062
 11
68.5821
 21
300.885
  0
LINE
  8
0
 10
68.5821
 20
300.885
 11
68.9057
 21
300.056
  0
LINE
  8
0
 10
68.9057
 20
300.056
 11
71.0338
 21
295.12
  0
LINE
  8
0
 10
71.0338
 20
295.12
 11
71.4523
 21
294.244
  0
LINE
  8
0
 10
71.4523
 20
294.244
 11
73.9122
 21
289.56
  0
LINE
  8
0
 10
73.9122
 20
289.56
 11
74.4365
 21
288.655
  0
LINE
  8
0
 10
74.4365
 20
288.655
 11
77.2458
 21
284.233
  0
LINE
  8
0
 10
77.2458
 20
284.233
 11
77.8811
 21
283.324
  0
LINE
  8
0
 10
77.8811
 20
283.324
 11
81.0573
 21
279.175
  0
LINE
  8
0
 10
81.0573
 20
279.175
 11
81.8012
 21
278.29
  0
LINE
  8
0
 10
81.8012
 20
278.29
 11
85.3617
 21
274.425
  0
LINE
  8
0
 10
85.3617
 20
274.425
 11
86.2023
 21
273.594
  0
LINE
  8
0
 10
86.2023
 20
273.594
 11
90.1644
 21
270.026
  0
LINE
  8
0
 10
90.1644
 20
270.026
 11
91.0811
 21
269.274
  0
LINE
  8
0
 10
91.0811
 20
269.274
 11
95.462
 21
266.014
  0
LINE
  8
0
 10
95.462
 20
266.014
 11
96.4281
 21
265.361
  0
LINE
  8
0
 10
96.4281
 20
265.361
 11
101.245
 21
262.421
  0
LINE
  8
0
 10
101.245
 20
262.421
 11
102.231
 21
261.878
  0
LINE
  8
0
 10
102.231
 20
261.878
 11
107.5
 21
259.271
  0
LINE
  8
0
 10
107.5
 20
259.271
 11
108.479
 21
258.838
  0
LINE
  8
0
 10
108.479
 20
258.838
 11
114.217
 21
256.579
  0
LINE
  8
0
 10
114.217
 20
256.579
 11
115.165
 21
256.248
  0
LINE
  8
0
 10
115.165
 20
256.248
 11
121.39
 21
254.35
  0
LINE
  8
0
 10
121.39
 20
254.35
 11
122.29
 21
254.111
  0
LINE
  8
0
 10
122.29
 20
254.111
 11
129.018
 21
252.588
  0
LINE
  8
0
 10
129.018
 20
252.588
 11
129.859
 21
252.427
  0
LINE
  8
0
 10
129.859
 20
252.427
 11
137.106
 21
251.293
  0
LINE
  8
0
 10
137.106
 20
251.293
 11
137.883
 21
251.195
  0
LINE
  8
0
 10
137.883
 20
251.195
 11
145.667
 21
250.465
  0
LINE
  8
0
 10
145.667
 20
250.465
 11
146.379
 21
250.418
  0
LINE
  8
0
 10
146.379
 20
250.418
 11
147.27
 21
250.385
  0
LINE
  8
0
 10
147.27
 20
250.385
 11
148.424
 21
250.153
  0
LINE
  8
0
 10
148.424
 20
250.153
 11
150.085
 21
250.106
  0
LINE
  8
0
 10
150.085
 20
250.106
 11
152.4
 21
250.193
  0
LINE
  8
0
 10
152.4
 20
250.193
 11
154.715
 21
250.106
  0
LINE
  8
0
 10
154.715
 20
250.106
 11
157.364
 21
250.285
  0
LINE
  8
0
 10
152.4
 20
262.902
 11
149.61
 21
262.797
  0
LINE
  8
0
 10
149.61
 20
262.797
 11
149.608
 21
263.006
  0
LINE
  8
0
 10
149.608
 20
263.006
 11
146.854
 21
263.109
  0
LINE
  8
0
 10
146.854
 20
263.109
 11
139.07
 21
263.84
  0
LINE
  8
0
 10
139.07
 20
263.84
 11
131.823
 21
264.974
  0
LINE
  8
0
 10
131.823
 20
264.974
 11
125.095
 21
266.498
  0
LINE
  8
0
 10
125.095
 20
266.498
 11
118.869
 21
268.396
  0
LINE
  8
0
 10
118.869
 20
268.396
 11
113.131
 21
270.655
  0
LINE
  8
0
 10
113.131
 20
270.655
 11
107.861
 21
273.261
  0
LINE
  8
0
 10
107.861
 20
273.261
 11
103.045
 21
276.201
  0
LINE
  8
0
 10
103.045
 20
276.201
 11
98.664
 21
279.462
  0
LINE
  8
0
 10
98.664
 20
279.462
 11
94.7019
 21
283.031
  0
LINE
  8
0
 10
94.7019
 20
283.031
 11
91.1413
 21
286.895
  0
LINE
  8
0
 10
91.1413
 20
286.895
 11
87.9651
 21
291.044
  0
LINE
  8
0
 10
87.9651
 20
291.044
 11
85.1557
 21
295.466
  0
LINE
  8
0
 10
85.1557
 20
295.466
 11
82.6958
 21
300.149
  0
LINE
  8
0
 10
82.6958
 20
300.149
 11
80.5676
 21
305.084
  0
LINE
  8
0
 10
80.5676
 20
305.084
 11
78.7535
 21
310.262
  0
LINE
  8
0
 10
78.7535
 20
310.262
 11
77.2354
 21
315.672
  0
LINE
  8
0
 10
77.2354
 20
315.672
 11
75.9955
 21
321.307
  0
LINE
  8
0
 10
75.9955
 20
321.307
 11
75.0155
 21
327.159
  0
LINE
  8
0
 10
75.0155
 20
327.159
 11
74.2777
 21
333.221
  0
LINE
  8
0
 10
74.2777
 20
333.221
 11
73.9115
 21
337.366
  0
LINE
  8
0
 10
73.9115
 20
337.366
 11
73.6381
 21
341.609
  0
LINE
  8
0
 10
73.6381
 20
341.609
 11
73.4528
 21
345.939
  0
LINE
  8
0
 10
73.4528
 20
345.939
 11
73.3501
 21
350.355
  0
LINE
  8
0
 10
73.3501
 20
350.355
 11
73.3245
 21
354.855
  0
LINE
  8
0
 10
73.3245
 20
354.855
 11
73.3702
 21
359.438
  0
LINE
  8
0
 10
73.3702
 20
359.438
 11
73.4817
 21
364.104
  0
LINE
  8
0
 10
73.4817
 20
364.104
 11
73.6532
 21
368.852
  0
LINE
  8
0
 10
73.6532
 20
368.852
 11
73.8792
 21
373.681
  0
LINE
  8
0
 10
73.8792
 20
373.681
 11
74.1538
 21
378.59
  0
LINE
  8
0
 10
74.1538
 20
378.59
 11
74.4713
 21
383.58
  0
LINE
  8
0
 10
74.4713
 20
383.58
 11
74.8258
 21
388.65
  0
LINE
  8
0
 10
74.8258
 20
388.65
 11
75.2116
 21
393.801
  0
LINE
  8
0
 10
75.2116
 20
393.801
 11
75.6228
 21
399.032
  0
LINE
  8
0
 10
75.6228
 20
399.032
 11
76.0534
 21
404.345
  0
LINE
  8
0
 10
76.0534
 20
404.345
 11
76.9489
 21
415.216
  0
LINE
  8
0
 10
76.9489
 20
415.216
 11
77.4017
 21
420.777
  0
LINE
  8
0
 10
77.4017
 20
420.777
 11
77.8498
 21
426.422
  0
LINE
  8
0
 10
77.8498
 20
426.422
 11
78.2871
 21
432.154
  0
LINE
  8
0
 10
78.2871
 20
432.154
 11
78.9513
 21
439.686
  0
LINE
  8
0
 10
78.9513
 20
439.686
 11
79.7787
 21
447.119
  0
LINE
  8
0
 10
79.7787
 20
447.119
 11
80.7157
 21
454.495
  0
LINE
  8
0
 10
80.7157
 20
454.495
 11
81.7062
 21
461.85
  0
LINE
  8
0
 10
81.7062
 20
461.85
 11
82.694
 21
469.213
  0
LINE
  8
0
 10
82.694
 20
469.213
 11
83.6251
 21
476.603
  0
LINE
  8
0
 10
83.6251
 20
476.603
 11
84.4491
 21
484.034
  0
LINE
  8
0
 10
84.4491
 20
484.034
 11
85.1206
 21
491.508
  0
LINE
  8
0
 10
85.1206
 20
491.508
 11
85.5982
 21
499.023
  0
LINE
  8
0
 10
85.5982
 20
499.023
 11
85.8456
 21
506.57
  0
LINE
  8
0
 10
85.8456
 20
506.57
 11
85.8296
 21
514.135
  0
LINE
  8
0
 10
85.8296
 20
514.135
 11
85.5202
 21
521.698
  0
LINE
  8
0
 10
85.5202
 20
521.698
 11
84.8895
 21
529.238
  0
LINE
  8
0
 10
84.8895
 20
529.238
 11
83.9109
 21
536.732
  0
LINE
  8
0
 10
83.9109
 20
536.732
 11
82.5592
 21
544.155
  0
LINE
  8
0
 10
82.5592
 20
544.155
 11
80.8098
 21
551.48
  0
LINE
  8
0
 10
80.8098
 20
551.48
 11
78.6387
 21
558.682
  0
LINE
  8
0
 10
78.6387
 20
558.682
 11
76.022
 21
565.736
  0
LINE
  8
0
 10
76.022
 20
565.736
 11
72.9352
 21
572.617
  0
LINE
  8
0
 10
72.9352
 20
572.617
 11
69.3513
 21
579.302
  0
LINE
  8
0
 10
69.3513
 20
579.302
 11
103.196
 21
599.067
  0
LINE
  8
0
 10
103.196
 20
599.067
 11
108.751
 21
589.446
  0
LINE
  8
0
 10
108.751
 20
589.446
 11
113.895
 21
580.308
  0
LINE
  8
0
 10
113.895
 20
580.308
 11
118.636
 21
571.626
  0
LINE
  8
0
 10
118.636
 20
571.626
 11
122.983
 21
563.368
  0
LINE
  8
0
 10
122.983
 20
563.368
 11
126.943
 21
555.498
  0
LINE
  8
0
 10
126.943
 20
555.498
 11
130.524
 21
547.973
  0
LINE
  8
0
 10
130.524
 20
547.973
 11
133.736
 21
540.744
  0
LINE
  8
0
 10
133.736
 20
540.744
 11
136.593
 21
533.757
  0
LINE
  8
0
 10
136.593
 20
533.757
 11
139.11
 21
526.951
  0
LINE
  8
0
 10
139.11
 20
526.951
 11
141.309
 21
520.263
  0
LINE
  8
0
 10
141.309
 20
520.263
 11
143.217
 21
513.623
  0
LINE
  8
0
 10
143.217
 20
513.623
 11
144.863
 21
506.957
  0
LINE
  8
0
 10
144.863
 20
506.957
 11
146.282
 21
500.193
  0
LINE
  8
0
 10
146.282
 20
500.193
 11
147.507
 21
493.257
  0
LINE
  8
0
 10
147.507
 20
493.257
 11
148.572
 21
486.079
  0
LINE
  8
0
 10
148.572
 20
486.079
 11
149.507
 21
478.593
  0
LINE
  8
0
 10
149.507
 20
478.593
 11
150.34
 21
470.741
  0
LINE
  8
0
 10
150.34
 20
470.741
 11
151.09
 21
462.469
  0
LINE
  8
0
 10
151.09
 20
462.469
 11
151.774
 21
453.731
  0
LINE
  8
0
 10
151.774
 20
453.731
 11
152.4
 21
444.514
  0
LINE
  8
0
 10
152.4
 20
444.514
 11
153.026
 21
453.731
  0
LINE
  8
0
 10
153.026
 20
453.731
 11
153.71
 21
462.469
  0
LINE
  8
0
 10
153.71
 20
462.469
 11
154.46
 21
470.741
  0
LINE
  8
0
 10
154.46
 20
470.741
 11
155.293
 21
478.593
  0
LINE
  8
0
 10
155.293
 20
478.593
 11
156.228
 21
486.079
  0
LINE
  8
0
 10
156.228
 20
486.079
 11
157.293
 21
493.257
  0
LINE
  8
0
 10
157.293
 20
493.257
 11
158.518
 21
500.193
  0
LINE
  8
0
 10
158.518
 20
500.193
 11
159.937
 21
506.957
  0
LINE
  8
0
 10
159.937
 20
506.957
 11
161.583
 21
513.623
  0
LINE
  8
0
 10
161.583
 20
513.623
 11
163.491
 21
520.263
  0
LINE
  8
0
 10
163.491
 20
520.263
 11
165.69
 21
526.951
  0
LINE
  8
0
 10
165.69
 20
526.951
 11
168.207
 21
533.757
  0
LINE
  8
0
 10
168.207
 20
533.757
 11
171.064
 21
540.744
  0
LINE
  8
0
 10
171.064
 20
540.744
 11
174.276
 21
547.973
  0
LINE
  8
0
 10
174.276
 20
547.973
 11
177.857
 21
555.498
  0
LINE
  8
0
 10
177.857
 20
555.498
 11
181.817
 21
563.368
  0
LINE
  8
0
 10
181.817
 20
563.368
 11
186.164
 21
571.626
  0
LINE
  8
0
 10
186.164
 20
571.626
 11
190.905
 21
580.308
  0
LINE
  8
0
 10
190.905
 20
580.308
 11
196.049
 21
589.446
  0
LINE
  8
0
 10
196.049
 20
589.446
 11
201.604
 21
599.067
  0
LINE
  8
0
 10
201.604
 20
599.067
 11
235.449
 21
579.302
  0
LINE
  8
0
 10
235.449
 20
579.302
 11
231.865
 21
572.617
  0
LINE
  8
0
 10
231.865
 20
572.617
 11
228.778
 21
565.736
  0
LINE
  8
0
 10
228.778
 20
565.736
 11
226.161
 21
558.682
  0
LINE
  8
0
 10
226.161
 20
558.682
 11
223.99
 21
551.48
  0
LINE
  8
0
 10
223.99
 20
551.48
 11
222.241
 21
544.155
  0
LINE
  8
0
 10
222.241
 20
544.155
 11
220.889
 21
536.732
  0
LINE
  8
0
 10
220.889
 20
536.732
 11
219.91
 21
529.238
  0
LINE
  8
0
 10
219.91
 20
529.238
 11
219.28
 21
521.698
  0
LINE
  8
0
 10
219.28
 20
521.698
 11
218.97
 21
514.135
  0
LINE
  8
0
 10
218.97
 20
514.135
 11
218.954
 21
506.57
  0
LINE
  8
0
 10
218.954
 20
506.57
 11
219.202
 21
499.023
  0
LINE
  8
0
 10
219.202
 20
499.023
 11
219.679
 21
491.508
  0
LINE
  8
0
 10
219.679
 20
491.508
 11
220.351
 21
484.034
  0
LINE
  8
0
 10
220.351
 20
484.034
 11
221.175
 21
476.603
  0
LINE
  8
0
 10
221.175
 20
476.603
 11
222.106
 21
469.213
  0
LINE
  8
0
 10
222.106
 20
469.213
 11
223.094
 21
461.851
  0
LINE
  8
0
 10
223.094
 20
461.851
 11
224.084
 21
454.495
  0
LINE
  8
0
 10
224.084
 20
454.495
 11
225.021
 21
447.119
  0
LINE
  8
0
 10
225.021
 20
447.119
 11
225.849
 21
439.686
  0
LINE
  8
0
 10
225.849
 20
439.686
 11
226.513
 21
432.154
  0
LINE
  8
0
 10
226.513
 20
432.154
 11
226.95
 21
426.422
  0
LINE
  8
0
 10
226.95
 20
426.422
 11
227.398
 21
420.777
  0
LINE
  8
0
 10
227.398
 20
420.777
 11
227.851
 21
415.216
  0
LINE
  8
0
 10
227.851
 20
415.216
 11
228.747
 21
404.345
  0
LINE
  8
0
 10
228.747
 20
404.345
 11
229.177
 21
399.032
  0
LINE
  8
0
 10
229.177
 20
399.032
 11
229.588
 21
393.801
  0
LINE
  8
0
 10
229.588
 20
393.801
 11
229.974
 21
388.65
  0
LINE
  8
0
 10
229.974
 20
388.65
 11
230.329
 21
383.58
  0
LINE
  8
0
 10
230.329
 20
383.58
 11
230.646
 21
378.59
  0
LINE
  8
0
 10
230.646
 20
378.59
 11
230.921
 21
373.681
  0
LINE
  8
0
 10
230.921
 20
373.681
 11
231.147
 21
368.852
  0
LINE
  8
0
 10
231.147
 20
368.852
 11
231.318
 21
364.105
  0
LINE
  8
0
 10
231.318
 20
364.105
 11
231.43
 21
359.438
  0
LINE
  8
0
 10
231.43
 20
359.438
 11
231.476
 21
354.855
  0
LINE
  8
0
 10
231.476
 20
354.855
 11
231.45
 21
350.355
  0
LINE
  8
0
 10
231.45
 20
350.355
 11
231.347
 21
345.939
  0
LINE
  8
0
 10
231.347
 20
345.939
 11
231.162
 21
341.609
  0
LINE
  8
0
 10
231.162
 20
341.609
 11
230.888
 21
337.366
  0
LINE
  8
0
 10
230.888
 20
337.366
 11
230.522
 21
333.221
  0
LINE
  8
0
 10
230.522
 20
333.221
 11
229.784
 21
327.159
  0
LINE
  8
0
 10
229.784
 20
327.159
 11
228.804
 21
321.307
  0
LINE
  8
0
 10
228.804
 20
321.307
 11
227.565
 21
315.672
  0
LINE
  8
0
 10
227.565
 20
315.672
 11
226.047
 21
310.262
  0
LINE
  8
0
 10
226.047
 20
310.262
 11
224.232
 21
305.084
  0
LINE
  8
0
 10
224.232
 20
305.084
 11
222.104
 21
300.149
  0
LINE
  8
0
 10
222.104
 20
300.149
 11
219.644
 21
295.466
  0
LINE
  8
0
 10
219.644
 20
295.466
 11
216.835
 21
291.044
  0
LINE
  8
0
 10
216.835
 20
291.044
 11
213.659
 21
286.895
  0
LINE
  8
0
 10
213.659
 20
286.895
 11
210.098
 21
283.031
  0
LINE
  8
0
 10
210.098
 20
283.031
 11
206.136
 21
279.462
  0
LINE
  8
0
 10
206.136
 20
279.462
 11
201.755
 21
276.201
  0
LINE
  8
0
 10
201.755
 20
276.201
 11
196.939
 21
273.261
  0
LINE
  8
0
 10
196.939
 20
273.261
 11
191.669
 21
270.655
  0
LINE
  8
0
 10
191.669
 20
270.655
 11
185.931
 21
268.396
  0
LINE
  8
0
 10
185.931
 20
268.396
 11
179.705
 21
266.498
  0
LINE
  8
0
 10
179.705
 20
266.498
 11
172.977
 21
264.974
  0
LINE
  8
0
 10
172.977
 20
264.974
 11
165.73
 21
263.84
  0
LINE
  8
0
 10
165.73
 20
263.84
 11
157.946
 21
263.109
  0
LINE
  8
0
 10
157.946
 20
263.109
 11
155.192
 21
263.006
  0
LINE
  8
0
 10
155.192
 20
263.006
 11
155.19
 21
262.797
  0
LINE
  8
0
 10
155.19
 20
262.797
 11
152.4
 21
262.902
  0
LINE
  8
0
 10
11.0157
 20
-1.25981
 11
18.5151
 21
-0.122833
  0
LINE
  8
0
 10
18.5151
 20
-0.122833
 11
19.569
 21
0.0828094
  0
LINE
  8
0
 10
19.569
 20
0.0828094
 11
26.9035
 21
1.83913
  0
LINE
  8
0
 10
26.9035
 20
1.83913
 11
27.9017
 21
2.12175
  0
LINE
  8
0
 10
27.9017
 20
2.12175
 11
35.051
 21
4.46516
  0
LINE
  8
0
 10
35.051
 20
4.46516
 11
35.9854
 21
4.81261
  0
LINE
  8
0
 10
35.9854
 20
4.81261
 11
42.9276
 21
7.70908
  0
LINE
  8
0
 10
42.9276
 20
7.70908
 11
43.7953
 21
8.11005
  0
LINE
  8
0
 10
43.7953
 20
8.11005
 11
50.5081
 21
11.5245
  0
LINE
  8
0
 10
50.5081
 20
11.5245
 11
51.3102
 21
11.9697
  0
LINE
  8
0
 10
51.3102
 20
11.9697
 11
57.7705
 21
15.8666
  0
LINE
  8
0
 10
57.7705
 20
15.8666
 11
58.5105
 21
16.349
  0
LINE
  8
0
 10
58.5105
 20
16.349
 11
64.6949
 21
20.6931
  0
LINE
  8
0
 10
64.6949
 20
20.6931
 11
65.378
 21
21.2081
  0
LINE
  8
0
 10
65.378
 20
21.2081
 11
71.263
 21
25.9645
  0
LINE
  8
0
 10
71.263
 20
25.9645
 11
71.8946
 21
26.5102
  0
LINE
  8
0
 10
71.8946
 20
26.5102
 11
77.4564
 21
31.6447
  0
LINE
  8
0
 10
77.4564
 20
31.6447
 11
78.0416
 21
32.2211
  0
LINE
  8
0
 10
78.0416
 20
32.2211
 11
83.2563
 21
37.7006
  0
LINE
  8
0
 10
83.2563
 20
37.7006
 11
83.7997
 21
38.3096
  0
LINE
  8
0
 10
83.7997
 20
38.3096
 11
88.6432
 21
44.1026
  0
LINE
  8
0
 10
88.6432
 20
44.1026
 11
89.148
 21
44.7476
  0
LINE
  8
0
 10
89.148
 20
44.7476
 11
93.5959
 21
50.8242
  0
LINE
  8
0
 10
93.5959
 20
50.8242
 11
94.064
 21
51.5097
  0
LINE
  8
0
 10
94.064
 20
51.5097
 11
98.0914
 21
57.8418
  0
LINE
  8
0
 10
98.0914
 20
57.8418
 11
98.5227
 21
58.5728
  0
LINE
  8
0
 10
98.5227
 20
58.5728
 11
102.105
 21
65.1346
  0
LINE
  8
0
 10
102.105
 20
65.1346
 11
102.497
 21
65.9162
  0
LINE
  8
0
 10
102.497
 20
65.9162
 11
105.607
 21
72.6844
  0
LINE
  8
0
 10
105.607
 20
72.6844
 11
105.956
 21
73.521
  0
LINE
  8
0
 10
105.956
 20
73.521
 11
108.569
 21
80.4749
  0
LINE
  8
0
 10
108.569
 20
80.4749
 11
108.867
 21
81.3688
  0
LINE
  8
0
 10
108.867
 20
81.3688
 11
110.955
 21
88.4907
  0
LINE
  8
0
 10
110.955
 20
88.4907
 11
111.194
 21
89.4413
  0
LINE
  8
0
 10
111.194
 20
89.4413
 11
112.73
 21
96.7167
  0
LINE
  8
0
 10
112.73
 20
96.7167
 11
112.9
 21
97.7188
  0
LINE
  8
0
 10
112.9
 20
97.7188
 11
113.854
 21
105.137
  0
LINE
  8
0
 10
113.854
 20
105.137
 11
113.944
 21
106.18
  0
LINE
  8
0
 10
113.944
 20
106.18
 11
114.288
 21
113.733
  0
LINE
  8
0
 10
114.288
 20
113.733
 11
114.249
 21
114.399
  0
LINE
  8
0
 10
114.249
 20
114.399
 11
114.294
 21
114.4
  0
LINE
  8
0
 10
114.294
 20
114.4
 11
114.254
 21
120.145
  0
LINE
  8
0
 10
114.254
 20
120.145
 11
114.249
 21
120.427
  0
LINE
  8
0
 10
114.249
 20
120.427
 11
114.083
 21
126.088
  0
LINE
  8
0
 10
114.083
 20
126.088
 11
114.072
 21
126.365
  0
LINE
  8
0
 10
114.072
 20
126.365
 11
113.788
 21
131.937
  0
LINE
  8
0
 10
113.788
 20
131.937
 11
113.771
 21
132.209
  0
LINE
  8
0
 10
113.771
 20
132.209
 11
113.373
 21
137.691
  0
LINE
  8
0
 10
113.373
 20
137.691
 11
113.35
 21
137.959
  0
LINE
  8
0
 10
113.35
 20
137.959
 11
112.844
 21
143.348
  0
LINE
  8
0
 10
112.844
 20
143.348
 11
112.816
 21
143.611
  0
LINE
  8
0
 10
112.816
 20
143.611
 11
112.207
 21
148.906
  0
LINE
  8
0
 10
112.207
 20
148.906
 11
112.175
 21
149.164
  0
LINE
  8
0
 10
112.175
 20
149.164
 11
111.468
 21
154.364
  0
LINE
  8
0
 10
111.468
 20
154.364
 11
111.431
 21
154.617
  0
LINE
  8
0
 10
111.431
 20
154.617
 11
110.632
 21
159.72
  0
LINE
  8
0
 10
110.632
 20
159.72
 11
110.591
 21
159.969
  0
LINE
  8
0
 10
110.591
 20
159.969
 11
109.706
 21
164.974
  0
LINE
  8
0
 10
109.706
 20
164.974
 11
109.66
 21
165.217
  0
LINE
  8
0
 10
109.66
 20
165.217
 11
108.694
 21
170.123
  0
LINE
  8
0
 10
108.694
 20
170.123
 11
108.644
 21
170.361
  0
LINE
  8
0
 10
108.644
 20
170.361
 11
107.601
 21
175.166
  0
LINE
  8
0
 10
107.601
 20
175.166
 11
107.548
 21
175.4
  0
LINE
  8
0
 10
107.548
 20
175.4
 11
106.434
 21
180.104
  0
LINE
  8
0
 10
106.434
 20
180.104
 11
106.377
 21
180.333
  0
LINE
  8
0
 10
106.377
 20
180.333
 11
105.196
 21
184.935
  0
LINE
  8
0
 10
105.196
 20
184.935
 11
105.136
 21
185.159
  0
LINE
  8
0
 10
105.136
 20
185.159
 11
103.894
 21
189.658
  0
LINE
  8
0
 10
103.894
 20
189.658
 11
103.831
 21
189.878
  0
LINE
  8
0
 10
103.831
 20
189.878
 11
102.531
 21
194.274
  0
LINE
  8
0
 10
102.531
 20
194.274
 11
102.465
 21
194.49
  0
LINE
  8
0
 10
102.465
 20
194.49
 11
101.112
 21
198.782
  0
LINE
  8
0
 10
101.112
 20
198.782
 11
101.044
 21
198.994
  0
LINE
  8
0
 10
101.044
 20
198.994
 11
99.6423
 21
203.183
  0
LINE
  8
0
 10
99.6423
 20
203.183
 11
99.5707
 21
203.391
  0
LINE
  8
0
 10
99.5707
 20
203.391
 11
98.1248
 21
207.476
  0
LINE
  8
0
 10
98.1248
 20
207.476
 11
98.0504
 21
207.681
  0
LINE
  8
0
 10
98.0504
 20
207.681
 11
96.5634
 21
211.664
  0
LINE
  8
0
 10
96.5634
 20
211.664
 11
96.4864
 21
211.865
  0
LINE
  8
0
 10
96.4864
 20
211.865
 11
94.9655
 21
215.738
  0
LINE
  8
0
 10
94.9655
 20
215.738
 11
94.9558
 21
215.734
  0
LINE
  8
0
 10
94.9558
 20
215.734
 11
94.8672
 21
215.986
  0
LINE
  8
0
 10
94.8672
 20
215.986
 11
92.5161
 21
221.622
  0
LINE
  8
0
 10
92.5161
 20
221.622
 11
92.3916
 21
221.91
  0
LINE
  8
0
 10
92.3916
 20
221.91
 11
89.9724
 21
227.328
  0
LINE
  8
0
 10
89.9724
 20
227.328
 11
89.8408
 21
227.613
  0
LINE
  8
0
 10
89.8408
 20
227.613
 11
87.3587
 21
232.822
  0
LINE
  8
0
 10
87.3587
 20
232.822
 11
87.2194
 21
233.105
  0
LINE
  8
0
 10
87.2194
 20
233.105
 11
84.6767
 21
238.116
  0
LINE
  8
0
 10
84.6767
 20
238.116
 11
84.5289
 21
238.399
  0
LINE
  8
0
 10
84.5289
 20
238.399
 11
81.9246
 21
243.227
  0
LINE
  8
0
 10
81.9246
 20
243.227
 11
81.7681
 21
243.509
  0
LINE
  8
0
 10
81.7681
 20
243.509
 11
79.0976
 21
248.173
  0
LINE
  8
0
 10
79.0976
 20
248.173
 11
78.9325
 21
248.453
  0
LINE
  8
0
 10
78.9325
 20
248.453
 11
76.1872
 21
252.975
  0
LINE
  8
0
 10
76.1872
 20
252.975
 11
76.0143
 21
253.252
  0
LINE
  8
0
 10
76.0143
 20
253.252
 11
73.1818
 21
257.659
  0
LINE
  8
0
 10
73.1818
 20
257.659
 11
73.003
 21
257.929
  0
LINE
  8
0
 10
73.003
 20
257.929
 11
70.0665
 21
262.251
  0
LINE
  8
0
 10
70.0665
 20
262.251
 11
69.8851
 21
262.511
  0
LINE
  8
0
 10
69.8851
 20
262.511
 11
66.8243
 21
266.782
  0
LINE
  8
0
 10
66.8243
 20
266.782
 11
66.6444
 21
267.027
  0
LINE
  8
0
 10
66.6444
 20
267.027
 11
63.4356
 21
271.286
  0
LINE
  8
0
 10
63.4356
 20
271.286
 11
63.2623
 21
271.51
  0
LINE
  8
0
 10
63.2623
 20
271.51
 11
59.8794
 21
275.798
  0
LINE
  8
0
 10
59.8794
 20
275.798
 11
59.7177
 21
275.998
  0
LINE
  8
0
 10
59.7177
 20
275.998
 11
56.133
 21
280.356
  0
LINE
  8
0
 10
56.133
 20
280.356
 11
55.9871
 21
280.53
  0
LINE
  8
0
 10
55.9871
 20
280.53
 11
52.1721
 21
285.003
  0
LINE
  8
0
 10
52.1721
 20
285.003
 11
52.0451
 21
285.15
  0
LINE
  8
0
 10
52.0451
 20
285.15
 11
47.865
 21
289.9
  0
LINE
  8
0
 10
47.865
 20
289.9
 11
43.4193
 21
294.826
  0
LINE
  8
0
 10
43.4193
 20
294.826
 11
38.6808
 21
299.972
  0
LINE
  8
0
 10
38.6808
 20
299.972
 11
33.6227
 21
305.382
  0
LINE
  8
0
 10
33.6227
 20
305.382
 11
28.2197
 21
311.097
  0
LINE
  8
0
 10
28.2197
 20
311.097
 11
22.4667
 21
317.137
  0
LINE
  8
0
 10
22.4667
 20
317.137
 11
20.4447
 21
318.858
  0
LINE
  8
0
 10
20.4447
 20
318.858
 11
18.1091
 21
320.121
  0
LINE
  8
0
 10
18.1091
 20
320.121
 11
15.5621
 21
320.87
  0
LINE
  8
0
 10
15.5621
 20
320.87
 11
12.9149
 21
321.074
  0
LINE
  8
0
 10
12.9149
 20
321.074
 11
10.2832
 21
320.722
  0
LINE
  8
0
 10
10.2832
 20
320.722
 11
7.78204
 21
319.832
  0
LINE
  8
0
 10
7.78204
 20
319.832
 11
5.52077
 21
318.44
  0
LINE
  8
0
 10
5.52077
 20
318.44
 11
4.49956
 21
317.564
  0
LINE
  8
0
 10
4.49956
 20
317.564
 11
-37.7518
 21
277.219
  0
LINE
  8
0
 10
-37.7518
 20
277.219
 11
-39.4698
 21
275.194
  0
LINE
  8
0
 10
-39.4698
 20
275.194
 11
-40.7294
 21
272.857
  0
LINE
  8
0
 10
-40.7294
 20
272.857
 11
-41.4756
 21
270.309
  0
LINE
  8
0
 10
-41.4756
 20
270.309
 11
-41.6757
 21
267.662
  0
LINE
  8
0
 10
-41.6757
 20
267.662
 11
-41.321
 21
265.031
  0
LINE
  8
0
 10
-41.321
 20
265.031
 11
-40.4269
 21
262.531
  0
LINE
  8
0
 10
-40.4269
 20
262.531
 11
-38.3635
 21
259.474
  0
LINE
  8
0
 10
-38.3635
 20
259.474
 11
-33.7685
 21
254.437
  0
LINE
  8
0
 10
-33.7685
 20
254.437
 11
-29.8535
 21
249.708
  0
LINE
  8
0
 10
-29.8535
 20
249.708
 11
-26.3933
 21
245.064
  0
LINE
  8
0
 10
-26.3933
 20
245.064
 11
-23.3524
 21
240.491
  0
LINE
  8
0
 10
-23.3524
 20
240.491
 11
-20.6943
 21
235.968
  0
LINE
  8
0
 10
-20.6943
 20
235.968
 11
-18.3831
 21
231.471
  0
LINE
  8
0
 10
-18.3831
 20
231.471
 11
-16.3835
 21
226.974
  0
LINE
  8
0
 10
-16.3835
 20
226.974
 11
-14.6634
 21
222.447
  0
LINE
  8
0
 10
-14.6634
 20
222.447
 11
-13.1936
 21
217.86
  0
LINE
  8
0
 10
-13.1936
 20
217.86
 11
-11.9481
 21
213.187
  0
LINE
  8
0
 10
-11.9481
 20
213.187
 11
-10.9039
 21
208.403
  0
LINE
  8
0
 10
-10.9039
 20
208.403
 11
-10.0405
 21
203.489
  0
LINE
  8
0
 10
-10.0405
 20
203.489
 11
-9.33853
 21
198.432
  0
LINE
  8
0
 10
-9.33853
 20
198.432
 11
-8.77983
 21
193.221
  0
LINE
  8
0
 10
-8.77983
 20
193.221
 11
-8.34711
 21
187.852
  0
LINE
  8
0
 10
-8.34711
 20
187.852
 11
-8.02362
 21
182.324
  0
LINE
  8
0
 10
-8.02362
 20
182.324
 11
-7.79355
 21
176.64
  0
LINE
  8
0
 10
-7.79355
 20
176.64
 11
-7.64211
 21
170.802
  0
LINE
  8
0
 10
-7.64211
 20
170.802
 11
-7.55557
 21
164.818
  0
LINE
  8
0
 10
-7.55557
 20
164.818
 11
-7.52217
 21
158.793
  0
LINE
  8
0
 10
-7.52217
 20
158.793
 11
-7.52718
 21
158.723
  0
LINE
  8
0
 10
-7.52718
 20
158.723
 11
-7.52591
 21
157.17
  0
LINE
  8
0
 10
-7.52591
 20
157.17
 11
-7.52759
 21
155.607
  0
LINE
  8
0
 10
-7.52759
 20
155.607
 11
-7.53223
 21
154.043
  0
LINE
  8
0
 10
-7.53223
 20
154.043
 11
-7.53957
 21
152.479
  0
LINE
  8
0
 10
-7.53957
 20
152.479
 11
-7.54971
 21
150.905
  0
LINE
  8
0
 10
-7.54971
 20
150.905
 11
-7.56252
 21
149.318
  0
LINE
  8
0
 10
-7.56252
 20
149.318
 11
-7.5778
 21
147.734
  0
LINE
  8
0
 10
-7.5778
 20
147.734
 11
-7.59561
 21
146.135
  0
LINE
  8
0
 10
-7.59561
 20
146.135
 11
-7.61575
 21
144.533
  0
LINE
  8
0
 10
-7.61575
 20
144.533
 11
-7.63817
 21
142.923
  0
LINE
  8
0
 10
-7.63817
 20
142.923
 11
-7.68925
 21
139.683
  0
LINE
  8
0
 10
-7.68925
 20
139.683
 11
-7.74777
 21
136.424
  0
LINE
  8
0
 10
-7.74777
 20
136.424
 11
-7.81305
 21
133.129
  0
LINE
  8
0
 10
-7.81305
 20
133.129
 11
-7.88361
 21
129.82
  0
LINE
  8
0
 10
-7.88361
 20
129.82
 11
-7.95857
 21
126.486
  0
LINE
  8
0
 10
-7.95857
 20
126.486
 11
-7.95322
 21
126.421
  0
LINE
  8
0
 10
-7.95322
 20
126.421
 11
-8.1073
 21
119.078
  0
LINE
  8
0
 10
-8.1073
 20
119.078
 11
-8.22752
 21
111.923
  0
LINE
  8
0
 10
-8.22752
 20
111.923
 11
-8.31087
 21
104.991
  0
LINE
  8
0
 10
-8.31087
 20
104.991
 11
-8.35548
 21
98.2655
  0
LINE
  8
0
 10
-8.35548
 20
98.2655
 11
-8.35941
 21
91.7339
  0
LINE
  8
0
 10
-8.35941
 20
91.7339
 11
-8.32092
 21
85.3826
  0
LINE
  8
0
 10
-8.32092
 20
85.3826
 11
-8.23849
 21
79.1994
  0
LINE
  8
0
 10
-8.23849
 20
79.1994
 11
-8.11099
 21
73.1726
  0
LINE
  8
0
 10
-8.11099
 20
73.1726
 11
-7.93774
 21
67.2912
  0
LINE
  8
0
 10
-7.93774
 20
67.2912
 11
-7.71861
 21
61.5455
  0
LINE
  8
0
 10
-7.71861
 20
61.5455
 11
-7.45409
 21
55.9262
  0
LINE
  8
0
 10
-7.45409
 20
55.9262
 11
-7.14534
 21
50.425
  0
LINE
  8
0
 10
-7.14534
 20
50.425
 11
-6.79439
 21
45.0346
  0
LINE
  8
0
 10
-6.79439
 20
45.0346
 11
-6.40405
 21
39.7484
  0
LINE
  8
0
 10
-6.40405
 20
39.7484
 11
-5.9781
 21
34.5604
  0
LINE
  8
0
 10
-5.9781
 20
34.5604
 11
-5.52122
 21
29.4655
  0
LINE
  8
0
 10
-5.52122
 20
29.4655
 11
-5.03917
 21
24.4595
  0
LINE
  8
0
 10
-5.03917
 20
24.4595
 11
-4.53873
 21
19.5381
  0
LINE
  8
0
 10
-4.53873
 20
19.5381
 11
-4.02768
 21
14.6982
  0
LINE
  8
0
 10
-4.02768
 20
14.6982
 11
-3.51492
 21
9.93684
  0
LINE
  8
0
 10
-3.51492
 20
9.93684
 11
-2.95627
 21
7.34128
  0
LINE
  8
0
 10
-2.95627
 20
7.34128
 11
-1.87016
 21
4.91856
  0
LINE
  8
0
 10
-1.87016
 20
4.91856
 11
-0.304092
 21
2.77458
  0
LINE
  8
0
 10
-0.304092
 20
2.77458
 11
1.67349
 21
1.00308
  0
LINE
  8
0
 10
1.67349
 20
1.00308
 11
3.97621
 21
-0.318512
  0
LINE
  8
0
 10
3.97621
 20
-0.318512
 11
6.50337
 21
-1.13249
  0
LINE
  8
0
 10
6.50337
 20
-1.13249
 11
9.14456
 21
-1.40326
  0
LINE
  8
0
 10
9.14456
 20
-1.40326
 11
11.0157
 21
-1.25981
  0
LINE
  8
0
 10
8.59929
 20
16.058
 11
8.09105
 21
20.8716
  0
LINE
  8
0
 10
8.09105
 20
20.8716
 11
7.59567
 21
25.744
  0
LINE
  8
0
 10
7.59567
 20
25.744
 11
7.12033
 21
30.6824
  0
LINE
  8
0
 10
7.12033
 20
30.6824
 11
6.67119
 21
35.694
  0
LINE
  8
0
 10
6.67119
 20
35.694
 11
6.25342
 21
40.7867
  0
LINE
  8
0
 10
6.25342
 20
40.7867
 11
5.87119
 21
45.9688
  0
LINE
  8
0
 10
5.87119
 20
45.9688
 11
5.52788
 21
51.249
  0
LINE
  8
0
 10
5.52788
 20
51.249
 11
5.22601
 21
56.6366
  0
LINE
  8
0
 10
5.22601
 20
56.6366
 11
4.96738
 21
62.1415
  0
LINE
  8
0
 10
4.96738
 20
62.1415
 11
4.75305
 21
67.7741
  0
LINE
  8
0
 10
4.75305
 20
67.7741
 11
4.58351
 21
73.5455
  0
LINE
  8
0
 10
4.58351
 20
73.5455
 11
4.45868
 21
79.4671
  0
LINE
  8
0
 10
4.45868
 20
79.4671
 11
4.37794
 21
85.5511
  0
LINE
  8
0
 10
4.37794
 20
85.5511
 11
4.34035
 21
91.8102
  0
LINE
  8
0
 10
4.34035
 20
91.8102
 11
4.3445
 21
98.2573
  0
LINE
  8
0
 10
4.3445
 20
98.2573
 11
4.38882
 21
104.906
  0
LINE
  8
0
 10
4.38882
 20
104.906
 11
4.47156
 21
111.77
  0
LINE
  8
0
 10
4.47156
 20
111.77
 11
4.59088
 21
118.864
  0
LINE
  8
0
 10
4.59088
 20
118.864
 11
4.74493
 21
126.2
  0
LINE
  8
0
 10
4.74493
 20
126.2
 11
4.7382
 21
126.201
  0
LINE
  8
0
 10
4.7382
 20
126.201
 11
4.81337
 21
129.545
  0
LINE
  8
0
 10
4.81337
 20
129.545
 11
4.88432
 21
132.871
  0
LINE
  8
0
 10
4.88432
 20
132.871
 11
4.94987
 21
136.18
  0
LINE
  8
0
 10
4.94987
 20
136.18
 11
5.00894
 21
139.469
  0
LINE
  8
0
 10
5.00894
 20
139.469
 11
5.06046
 21
142.737
  0
LINE
  8
0
 10
5.06046
 20
142.737
 11
5.0831
 21
144.363
  0
LINE
  8
0
 10
5.0831
 20
144.363
 11
5.10347
 21
145.984
  0
LINE
  8
0
 10
5.10347
 20
145.984
 11
5.12146
 21
147.599
  0
LINE
  8
0
 10
5.12146
 20
147.599
 11
5.13699
 21
149.208
  0
LINE
  8
0
 10
5.13699
 20
149.208
 11
5.14992
 21
150.811
  0
LINE
  8
0
 10
5.14992
 20
150.811
 11
5.16022
 21
152.408
  0
LINE
  8
0
 10
5.16022
 20
152.408
 11
5.16769
 21
153.999
  0
LINE
  8
0
 10
5.16769
 20
153.999
 11
5.17238
 21
155.583
  0
LINE
  8
0
 10
5.17238
 20
155.583
 11
5.17409
 21
157.161
  0
LINE
  8
0
 10
5.17409
 20
157.161
 11
5.17281
 21
158.733
  0
LINE
  8
0
 10
5.17281
 20
158.733
 11
5.17831
 21
158.737
  0
LINE
  8
0
 10
5.17831
 20
158.737
 11
5.14389
 21
164.946
  0
LINE
  8
0
 10
5.14389
 20
164.946
 11
5.05551
 21
171.059
  0
LINE
  8
0
 10
5.05551
 20
171.059
 11
4.89978
 21
177.061
  0
LINE
  8
0
 10
4.89978
 20
177.061
 11
4.66136
 21
182.952
  0
LINE
  8
0
 10
4.66136
 20
182.952
 11
4.32304
 21
188.733
  0
LINE
  8
0
 10
4.32304
 20
188.733
 11
3.86563
 21
194.408
  0
LINE
  8
0
 10
3.86563
 20
194.408
 11
3.26804
 21
199.982
  0
LINE
  8
0
 10
3.26804
 20
199.982
 11
2.50743
 21
205.462
  0
LINE
  8
0
 10
2.50743
 20
205.462
 11
1.55937
 21
210.857
  0
LINE
  8
0
 10
1.55937
 20
210.857
 11
0.398102
 21
216.178
  0
LINE
  8
0
 10
0.398102
 20
216.178
 11
-1.00317
 21
221.436
  0
LINE
  8
0
 10
-1.00317
 20
221.436
 11
-2.67197
 21
226.643
  0
LINE
  8
0
 10
-2.67197
 20
226.643
 11
-4.63623
 21
231.813
  0
LINE
  8
0
 10
-4.63623
 20
231.813
 11
-6.924
 21
236.958
  0
LINE
  8
0
 10
-6.924
 20
236.958
 11
-9.56323
 21
242.093
  0
LINE
  8
0
 10
-9.56323
 20
242.093
 11
-12.5816
 21
247.229
  0
LINE
  8
0
 10
-12.5816
 20
247.229
 11
-16.0062
 21
252.38
  0
LINE
  8
0
 10
-16.0062
 20
252.38
 11
-19.8637
 21
257.557
  0
LINE
  8
0
 10
-19.8637
 20
257.557
 11
-24.1802
 21
262.771
  0
LINE
  8
0
 10
-24.1802
 20
262.771
 11
-28.9811
 21
268.034
  0
LINE
  8
0
 10
-28.9811
 20
268.034
 11
13.2702
 21
308.379
  0
LINE
  8
0
 10
13.2702
 20
308.379
 11
19.0233
 21
302.338
  0
LINE
  8
0
 10
19.0233
 20
302.338
 11
24.3939
 21
296.657
  0
LINE
  8
0
 10
24.3939
 20
296.657
 11
29.4037
 21
291.299
  0
LINE
  8
0
 10
29.4037
 20
291.299
 11
34.0762
 21
286.224
  0
LINE
  8
0
 10
34.0762
 20
286.224
 11
38.4361
 21
281.392
  0
LINE
  8
0
 10
38.4361
 20
281.392
 11
42.5098
 21
276.761
  0
LINE
  8
0
 10
42.5098
 20
276.761
 11
46.3248
 21
272.289
  0
LINE
  8
0
 10
46.3248
 20
272.289
 11
49.9095
 21
267.93
  0
LINE
  8
0
 10
49.9095
 20
267.93
 11
53.2924
 21
263.643
  0
LINE
  8
0
 10
53.2924
 20
263.643
 11
56.5012
 21
259.384
  0
LINE
  8
0
 10
56.5012
 20
259.384
 11
59.562
 21
255.113
  0
LINE
  8
0
 10
59.562
 20
255.113
 11
62.4985
 21
250.791
  0
LINE
  8
0
 10
62.4985
 20
250.791
 11
65.331
 21
246.385
  0
LINE
  8
0
 10
65.331
 20
246.385
 11
68.0763
 21
241.863
  0
LINE
  8
0
 10
68.0763
 20
241.863
 11
70.7468
 21
237.198
  0
LINE
  8
0
 10
70.7468
 20
237.198
 11
73.3512
 21
232.37
  0
LINE
  8
0
 10
73.3512
 20
232.37
 11
75.8939
 21
227.359
  0
LINE
  8
0
 10
75.8939
 20
227.359
 11
78.376
 21
222.15
  0
LINE
  8
0
 10
78.376
 20
222.15
 11
80.7952
 21
216.732
  0
LINE
  8
0
 10
80.7952
 20
216.732
 11
83.1463
 21
211.096
  0
LINE
  8
0
 10
83.1463
 20
211.096
 11
83.1445
 21
211.095
  0
LINE
  8
0
 10
83.1445
 20
211.095
 11
84.6654
 21
207.223
  0
LINE
  8
0
 10
84.6654
 20
207.223
 11
86.1524
 21
203.239
  0
LINE
  8
0
 10
86.1524
 20
203.239
 11
87.5983
 21
199.154
  0
LINE
  8
0
 10
87.5983
 20
199.154
 11
88.9996
 21
194.965
  0
LINE
  8
0
 10
88.9996
 20
194.965
 11
90.3523
 21
190.672
  0
LINE
  8
0
 10
90.3523
 20
190.672
 11
91.6521
 21
186.277
  0
LINE
  8
0
 10
91.6521
 20
186.277
 11
92.8948
 21
181.778
  0
LINE
  8
0
 10
92.8948
 20
181.778
 11
94.0757
 21
177.176
  0
LINE
  8
0
 10
94.0757
 20
177.176
 11
95.1902
 21
172.472
  0
LINE
  8
0
 10
95.1902
 20
172.472
 11
96.2332
 21
167.667
  0
LINE
  8
0
 10
96.2332
 20
167.667
 11
97.1999
 21
162.762
  0
LINE
  8
0
 10
97.1999
 20
162.762
 11
98.0851
 21
157.757
  0
LINE
  8
0
 10
98.0851
 20
157.757
 11
98.8836
 21
152.654
  0
LINE
  8
0
 10
98.8836
 20
152.654
 11
99.5902
 21
147.454
  0
LINE
  8
0
 10
99.5902
 20
147.454
 11
100.199
 21
142.159
  0
LINE
  8
0
 10
100.199
 20
142.159
 11
100.706
 21
136.77
  0
LINE
  8
0
 10
100.706
 20
136.77
 11
101.104
 21
131.289
  0
LINE
  8
0
 10
101.104
 20
131.289
 11
101.389
 21
125.717
  0
LINE
  8
0
 10
101.389
 20
125.717
 11
101.554
 21
120.056
  0
LINE
  8
0
 10
101.554
 20
120.056
 11
101.594
 21
114.311
  0
LINE
  8
0
 10
101.594
 20
114.311
 11
101.601
 21
114.31
  0
LINE
  8
0
 10
101.601
 20
114.31
 11
101.258
 21
106.757
  0
LINE
  8
0
 10
101.258
 20
106.757
 11
100.303
 21
99.339
  0
LINE
  8
0
 10
100.303
 20
99.339
 11
98.7681
 21
92.0636
  0
LINE
  8
0
 10
98.7681
 20
92.0636
 11
96.6802
 21
84.9416
  0
LINE
  8
0
 10
96.6802
 20
84.9416
 11
94.0675
 21
77.9877
  0
LINE
  8
0
 10
94.0675
 20
77.9877
 11
90.9571
 21
71.2195
  0
LINE
  8
0
 10
90.9571
 20
71.2195
 11
87.3753
 21
64.6576
  0
LINE
  8
0
 10
87.3753
 20
64.6576
 11
83.3479
 21
58.3255
  0
LINE
  8
0
 10
83.3479
 20
58.3255
 11
78.9
 21
52.2488
  0
LINE
  8
0
 10
78.9
 20
52.2488
 11
74.0565
 21
46.4558
  0
LINE
  8
0
 10
74.0565
 20
46.4558
 11
68.8418
 21
40.9762
  0
LINE
  8
0
 10
68.8418
 20
40.9762
 11
63.28
 21
35.8418
  0
LINE
  8
0
 10
63.28
 20
35.8418
 11
57.395
 21
31.0854
  0
LINE
  8
0
 10
57.395
 20
31.0854
 11
51.2106
 21
26.7413
  0
LINE
  8
0
 10
51.2106
 20
26.7413
 11
44.7503
 21
22.8443
  0
LINE
  8
0
 10
44.7503
 20
22.8443
 11
38.0375
 21
19.4298
  0
LINE
  8
0
 10
38.0375
 20
19.4298
 11
31.0952
 21
16.5334
  0
LINE
  8
0
 10
31.0952
 20
16.5334
 11
23.946
 21
14.19
  0
LINE
  8
0
 10
23.946
 20
14.19
 11
16.6115
 21
12.4337
  0
LINE
  8
0
 10
16.6115
 20
12.4337
 11
9.11205
 21
11.2967
  0
LINE
  8
0
 10
9.11205
 20
11.2967
 11
8.59929
 21
16.058
  0
LINE
  8
0
 10
298.297
 20
-1.13249
 11
300.824
 21
-0.318512
  0
LINE
  8
0
 10
300.824
 20
-0.318512
 11
303.126
 21
1.00308
  0
LINE
  8
0
 10
303.126
 20
1.00308
 11
305.104
 21
2.77458
  0
LINE
  8
0
 10
305.104
 20
2.77458
 11
306.67
 21
4.91856
  0
LINE
  8
0
 10
306.67
 20
4.91856
 11
307.756
 21
7.34128
  0
LINE
  8
0
 10
307.756
 20
7.34128
 11
308.315
 21
9.93686
  0
LINE
  8
0
 10
308.315
 20
9.93686
 11
308.828
 21
14.6982
  0
LINE
  8
0
 10
308.828
 20
14.6982
 11
309.339
 21
19.5381
  0
LINE
  8
0
 10
309.339
 20
19.5381
 11
309.839
 21
24.4595
  0
LINE
  8
0
 10
309.839
 20
24.4595
 11
310.321
 21
29.4655
  0
LINE
  8
0
 10
310.321
 20
29.4655
 11
310.778
 21
34.5604
  0
LINE
  8
0
 10
310.778
 20
34.5604
 11
311.204
 21
39.7484
  0
LINE
  8
0
 10
311.204
 20
39.7484
 11
311.594
 21
45.0346
  0
LINE
  8
0
 10
311.594
 20
45.0346
 11
311.945
 21
50.425
  0
LINE
  8
0
 10
311.945
 20
50.425
 11
312.254
 21
55.9262
  0
LINE
  8
0
 10
312.254
 20
55.9262
 11
312.519
 21
61.5455
  0
LINE
  8
0
 10
312.519
 20
61.5455
 11
312.738
 21
67.2912
  0
LINE
  8
0
 10
312.738
 20
67.2912
 11
312.911
 21
73.1726
  0
LINE
  8
0
 10
312.911
 20
73.1726
 11
313.038
 21
79.1994
  0
LINE
  8
0
 10
313.038
 20
79.1994
 11
313.121
 21
85.3826
  0
LINE
  8
0
 10
313.121
 20
85.3826
 11
313.159
 21
91.7339
  0
LINE
  8
0
 10
313.159
 20
91.7339
 11
313.155
 21
98.2655
  0
LINE
  8
0
 10
313.155
 20
98.2655
 11
313.111
 21
104.991
  0
LINE
  8
0
 10
313.111
 20
104.991
 11
313.028
 21
111.923
  0
LINE
  8
0
 10
313.028
 20
111.923
 11
312.907
 21
119.078
  0
LINE
  8
0
 10
312.907
 20
119.078
 11
312.753
 21
126.421
  0
LINE
  8
0
 10
312.753
 20
126.421
 11
312.759
 21
126.486
  0
LINE
  8
0
 10
312.759
 20
126.486
 11
312.684
 21
129.82
  0
LINE
  8
0
 10
312.684
 20
129.82
 11
312.613
 21
133.129
  0
LINE
  8
0
 10
312.613
 20
133.129
 11
312.548
 21
136.424
  0
LINE
  8
0
 10
312.548
 20
136.424
 11
312.489
 21
139.683
  0
LINE
  8
0
 10
312.489
 20
139.683
 11
312.438
 21
142.923
  0
LINE
  8
0
 10
312.438
 20
142.923
 11
312.416
 21
144.533
  0
LINE
  8
0
 10
312.416
 20
144.533
 11
312.396
 21
146.135
  0
LINE
  8
0
 10
312.396
 20
146.135
 11
312.378
 21
147.734
  0
LINE
  8
0
 10
312.378
 20
147.734
 11
312.363
 21
149.318
  0
LINE
  8
0
 10
312.363
 20
149.318
 11
312.35
 21
150.905
  0
LINE
  8
0
 10
312.35
 20
150.905
 11
312.34
 21
152.479
  0
LINE
  8
0
 10
312.34
 20
152.479
 11
312.332
 21
154.043
  0
LINE
  8
0
 10
312.332
 20
154.043
 11
312.328
 21
155.607
  0
LINE
  8
0
 10
312.328
 20
155.607
 11
312.326
 21
157.17
  0
LINE
  8
0
 10
312.326
 20
157.17
 11
312.327
 21
158.723
  0
LINE
  8
0
 10
312.327
 20
158.723
 11
312.322
 21
158.793
  0
LINE
  8
0
 10
312.322
 20
158.793
 11
312.356
 21
164.818
  0
LINE
  8
0
 10
312.356
 20
164.818
 11
312.442
 21
170.802
  0
LINE
  8
0
 10
312.442
 20
170.802
 11
312.594
 21
176.64
  0
LINE
  8
0
 10
312.594
 20
176.64
 11
312.824
 21
182.324
  0
LINE
  8
0
 10
312.824
 20
182.324
 11
313.147
 21
187.852
  0
LINE
  8
0
 10
313.147
 20
187.852
 11
313.58
 21
193.221
  0
LINE
  8
0
 10
313.58
 20
193.221
 11
314.139
 21
198.432
  0
LINE
  8
0
 10
314.139
 20
198.432
 11
314.841
 21
203.489
  0
LINE
  8
0
 10
314.841
 20
203.489
 11
315.704
 21
208.403
  0
LINE
  8
0
 10
315.704
 20
208.403
 11
316.748
 21
213.187
  0
LINE
  8
0
 10
316.748
 20
213.187
 11
317.994
 21
217.86
  0
LINE
  8
0
 10
317.994
 20
217.86
 11
319.463
 21
222.447
  0
LINE
  8
0
 10
319.463
 20
222.447
 11
321.183
 21
226.974
  0
LINE
  8
0
 10
321.183
 20
226.974
 11
323.183
 21
231.471
  0
LINE
  8
0
 10
323.183
 20
231.471
 11
325.494
 21
235.968
  0
LINE
  8
0
 10
325.494
 20
235.968
 11
328.152
 21
240.491
  0
LINE
  8
0
 10
328.152
 20
240.491
 11
331.193
 21
245.064
  0
LINE
  8
0
 10
331.193
 20
245.064
 11
334.653
 21
249.708
  0
LINE
  8
0
 10
334.653
 20
249.708
 11
338.569
 21
254.437
  0
LINE
  8
0
 10
338.569
 20
254.437
 11
343.164
 21
259.474
  0
LINE
  8
0
 10
343.164
 20
259.474
 11
345.227
 21
262.531
  0
LINE
  8
0
 10
345.227
 20
262.531
 11
346.121
 21
265.031
  0
LINE
  8
0
 10
346.121
 20
265.031
 11
346.476
 21
267.662
  0
LINE
  8
0
 10
346.476
 20
267.662
 11
346.276
 21
270.309
  0
LINE
  8
0
 10
346.276
 20
270.309
 11
345.529
 21
272.857
  0
LINE
  8
0
 10
345.529
 20
272.857
 11
344.27
 21
275.194
  0
LINE
  8
0
 10
344.27
 20
275.194
 11
342.552
 21
277.219
  0
LINE
  8
0
 10
342.552
 20
277.219
 11
300.3
 21
317.564
  0
LINE
  8
0
 10
300.3
 20
317.564
 11
299.279
 21
318.44
  0
LINE
  8
0
 10
299.279
 20
318.44
 11
297.018
 21
319.832
  0
LINE
  8
0
 10
297.018
 20
319.832
 11
294.517
 21
320.722
  0
LINE
  8
0
 10
294.517
 20
320.722
 11
291.885
 21
321.074
  0
LINE
  8
0
 10
291.885
 20
321.074
 11
289.238
 21
320.87
  0
LINE
  8
0
 10
289.238
 20
320.87
 11
286.691
 21
320.121
  0
LINE
  8
0
 10
286.691
 20
320.121
 11
284.355
 21
318.858
  0
LINE
  8
0
 10
284.355
 20
318.858
 11
282.333
 21
317.137
  0
LINE
  8
0
 10
282.333
 20
317.137
 11
276.58
 21
311.097
  0
LINE
  8
0
 10
276.58
 20
311.097
 11
271.177
 21
305.382
  0
LINE
  8
0
 10
271.177
 20
305.382
 11
266.119
 21
299.972
  0
LINE
  8
0
 10
266.119
 20
299.972
 11
261.381
 21
294.826
  0
LINE
  8
0
 10
261.381
 20
294.826
 11
256.935
 21
289.9
  0
LINE
  8
0
 10
256.935
 20
289.9
 11
252.755
 21
285.15
  0
LINE
  8
0
 10
252.755
 20
285.15
 11
252.628
 21
285.003
  0
LINE
  8
0
 10
252.628
 20
285.003
 11
248.813
 21
280.53
  0
LINE
  8
0
 10
248.813
 20
280.53
 11
248.667
 21
280.356
  0
LINE
  8
0
 10
248.667
 20
280.356
 11
245.082
 21
275.998
  0
LINE
  8
0
 10
245.082
 20
275.998
 11
244.921
 21
275.798
  0
LINE
  8
0
 10
244.921
 20
275.798
 11
241.538
 21
271.51
  0
LINE
  8
0
 10
241.538
 20
271.51
 11
241.364
 21
271.286
  0
LINE
  8
0
 10
241.364
 20
271.286
 11
238.156
 21
267.027
  0
LINE
  8
0
 10
238.156
 20
267.027
 11
237.976
 21
266.782
  0
LINE
  8
0
 10
237.976
 20
266.782
 11
234.915
 21
262.511
  0
LINE
  8
0
 10
234.915
 20
262.511
 11
234.733
 21
262.251
  0
LINE
  8
0
 10
234.733
 20
262.251
 11
231.797
 21
257.929
  0
LINE
  8
0
 10
231.797
 20
257.929
 11
231.618
 21
257.659
  0
LINE
  8
0
 10
231.618
 20
257.659
 11
228.786
 21
253.252
  0
LINE
  8
0
 10
228.786
 20
253.252
 11
228.613
 21
252.975
  0
LINE
  8
0
 10
228.613
 20
252.975
 11
225.867
 21
248.453
  0
LINE
  8
0
 10
225.867
 20
248.453
 11
225.702
 21
248.173
  0
LINE
  8
0
 10
225.702
 20
248.173
 11
223.032
 21
243.509
  0
LINE
  8
0
 10
223.032
 20
243.509
 11
222.875
 21
243.227
  0
LINE
  8
0
 10
222.875
 20
243.227
 11
220.271
 21
238.399
  0
LINE
  8
0
 10
220.271
 20
238.399
 11
220.123
 21
238.116
  0
LINE
  8
0
 10
220.123
 20
238.116
 11
217.581
 21
233.105
  0
LINE
  8
0
 10
217.581
 20
233.105
 11
217.441
 21
232.822
  0
LINE
  8
0
 10
217.441
 20
232.822
 11
214.959
 21
227.613
  0
LINE
  8
0
 10
214.959
 20
227.613
 11
214.828
 21
227.328
  0
LINE
  8
0
 10
214.828
 20
227.328
 11
212.408
 21
221.91
  0
LINE
  8
0
 10
212.408
 20
221.91
 11
212.284
 21
221.622
  0
LINE
  8
0
 10
212.284
 20
221.622
 11
209.933
 21
215.986
  0
LINE
  8
0
 10
209.933
 20
215.986
 11
209.844
 21
215.734
  0
LINE
  8
0
 10
209.844
 20
215.734
 11
209.834
 21
215.738
  0
LINE
  8
0
 10
209.834
 20
215.738
 11
208.314
 21
211.865
  0
LINE
  8
0
 10
208.314
 20
211.865
 11
208.237
 21
211.664
  0
LINE
  8
0
 10
208.237
 20
211.664
 11
206.75
 21
207.681
  0
LINE
  8
0
 10
206.75
 20
207.681
 11
206.675
 21
207.476
  0
LINE
  8
0
 10
206.675
 20
207.476
 11
205.229
 21
203.391
  0
LINE
  8
0
 10
205.229
 20
203.391
 11
205.158
 21
203.183
  0
LINE
  8
0
 10
205.158
 20
203.183
 11
203.756
 21
198.994
  0
LINE
  8
0
 10
203.756
 20
198.994
 11
203.688
 21
198.782
  0
LINE
  8
0
 10
203.688
 20
198.782
 11
202.335
 21
194.49
  0
LINE
  8
0
 10
202.335
 20
194.49
 11
202.269
 21
194.274
  0
LINE
  8
0
 10
202.269
 20
194.274
 11
200.969
 21
189.878
  0
LINE
  8
0
 10
200.969
 20
189.878
 11
200.906
 21
189.658
  0
LINE
  8
0
 10
200.906
 20
189.658
 11
199.664
 21
185.159
  0
LINE
  8
0
 10
199.664
 20
185.159
 11
199.604
 21
184.935
  0
LINE
  8
0
 10
199.604
 20
184.935
 11
198.423
 21
180.333
  0
LINE
  8
0
 10
198.423
 20
180.333
 11
198.366
 21
180.104
  0
LINE
  8
0
 10
198.366
 20
180.104
 11
197.252
 21
175.4
  0
LINE
  8
0
 10
197.252
 20
175.4
 11
197.199
 21
175.166
  0
LINE
  8
0
 10
197.199
 20
175.166
 11
196.156
 21
170.361
  0
LINE
  8
0
 10
196.156
 20
170.361
 11
196.106
 21
170.123
  0
LINE
  8
0
 10
196.106
 20
170.123
 11
195.14
 21
165.217
  0
LINE
  8
0
 10
195.14
 20
165.217
 11
195.094
 21
164.974
  0
LINE
  8
0
 10
195.094
 20
164.974
 11
194.209
 21
159.969
  0
LINE
  8
0
 10
194.209
 20
159.969
 11
194.168
 21
159.72
  0
LINE
  8
0
 10
194.168
 20
159.72
 11
193.369
 21
154.617
  0
LINE
  8
0
 10
193.369
 20
154.617
 11
193.332
 21
154.364
  0
LINE
  8
0
 10
193.332
 20
154.364
 11
192.625
 21
149.164
  0
LINE
  8
0
 10
192.625
 20
149.164
 11
192.593
 21
148.906
  0
LINE
  8
0
 10
192.593
 20
148.906
 11
191.984
 21
143.611
  0
LINE
  8
0
 10
191.984
 20
143.611
 11
191.956
 21
143.348
  0
LINE
  8
0
 10
191.956
 20
143.348
 11
191.45
 21
137.959
  0
LINE
  8
0
 10
191.45
 20
137.959
 11
191.427
 21
137.691
  0
LINE
  8
0
 10
191.427
 20
137.691
 11
191.029
 21
132.209
  0
LINE
  8
0
 10
191.029
 20
132.209
 11
191.012
 21
131.937
  0
LINE
  8
0
 10
191.012
 20
131.937
 11
190.728
 21
126.365
  0
LINE
  8
0
 10
190.728
 20
126.365
 11
190.717
 21
126.088
  0
LINE
  8
0
 10
190.717
 20
126.088
 11
190.551
 21
120.427
  0
LINE
  8
0
 10
190.551
 20
120.427
 11
190.546
 21
120.145
  0
LINE
  8
0
 10
190.546
 20
120.145
 11
190.506
 21
114.4
  0
LINE
  8
0
 10
190.506
 20
114.4
 11
190.551
 21
114.399
  0
LINE
  8
0
 10
190.551
 20
114.399
 11
190.512
 21
113.733
  0
LINE
  8
0
 10
190.512
 20
113.733
 11
190.856
 21
106.18
  0
LINE
  8
0
 10
190.856
 20
106.18
 11
190.946
 21
105.137
  0
LINE
  8
0
 10
190.946
 20
105.137
 11
191.9
 21
97.7188
  0
LINE
  8
0
 10
191.9
 20
97.7188
 11
192.07
 21
96.7167
  0
LINE
  8
0
 10
192.07
 20
96.7167
 11
193.606
 21
89.4413
  0
LINE
  8
0
 10
193.606
 20
89.4413
 11
193.845
 21
88.4907
  0
LINE
  8
0
 10
193.845
 20
88.4907
 11
195.933
 21
81.3688
  0
LINE
  8
0
 10
195.933
 20
81.3688
 11
196.231
 21
80.4749
  0
LINE
  8
0
 10
196.231
 20
80.4749
 11
198.844
 21
73.521
  0
LINE
  8
0
 10
198.844
 20
73.521
 11
199.193
 21
72.6844
  0
LINE
  8
0
 10
199.193
 20
72.6844
 11
202.303
 21
65.9162
  0
LINE
  8
0
 10
202.303
 20
65.9162
 11
202.695
 21
65.1346
  0
LINE
  8
0
 10
202.695
 20
65.1346
 11
206.277
 21
58.5728
  0
LINE
  8
0
 10
206.277
 20
58.5728
 11
206.709
 21
57.8418
  0
LINE
  8
0
 10
206.709
 20
57.8418
 11
210.736
 21
51.5097
  0
LINE
  8
0
 10
210.736
 20
51.5097
 11
211.204
 21
50.8242
  0
LINE
  8
0
 10
211.204
 20
50.8242
 11
215.652
 21
44.7476
  0
LINE
  8
0
 10
215.652
 20
44.7476
 11
216.157
 21
44.1026
  0
LINE
  8
0
 10
216.157
 20
44.1026
 11
221
 21
38.3096
  0
LINE
  8
0
 10
221
 20
38.3096
 11
221.544
 21
37.7006
  0
LINE
  8
0
 10
221.544
 20
37.7006
 11
226.758
 21
32.2211
  0
LINE
  8
0
 10
226.758
 20
32.2211
 11
227.344
 21
31.6447
  0
LINE
  8
0
 10
227.344
 20
31.6447
 11
232.905
 21
26.5102
  0
LINE
  8
0
 10
232.905
 20
26.5102
 11
233.537
 21
25.9645
  0
LINE
  8
0
 10
233.537
 20
25.9645
 11
239.422
 21
21.2081
  0
LINE
  8
0
 10
239.422
 20
21.2081
 11
240.105
 21
20.6931
  0
LINE
  8
0
 10
240.105
 20
20.6931
 11
246.289
 21
16.349
  0
LINE
  8
0
 10
246.289
 20
16.349
 11
247.03
 21
15.8666
  0
LINE
  8
0
 10
247.03
 20
15.8666
 11
253.49
 21
11.9697
  0
LINE
  8
0
 10
253.49
 20
11.9697
 11
254.292
 21
11.5245
  0
LINE
  8
0
 10
254.292
 20
11.5245
 11
261.005
 21
8.11005
  0
LINE
  8
0
 10
261.005
 20
8.11005
 11
261.872
 21
7.70908
  0
LINE
  8
0
 10
261.872
 20
7.70908
 11
268.815
 21
4.81261
  0
LINE
  8
0
 10
268.815
 20
4.81261
 11
269.749
 21
4.46516
  0
LINE
  8
0
 10
269.749
 20
4.46516
 11
276.898
 21
2.12175
  0
LINE
  8
0
 10
276.898
 20
2.12175
 11
277.897
 21
1.83913
  0
LINE
  8
0
 10
277.897
 20
1.83913
 11
285.231
 21
0.0828247
  0
LINE
  8
0
 10
285.231
 20
0.0828247
 11
286.285
 21
-0.122833
  0
LINE
  8
0
 10
286.285
 20
-0.122833
 11
293.784
 21
-1.25981
  0
LINE
  8
0
 10
293.784
 20
-1.25981
 11
295.655
 21
-1.40326
  0
LINE
  8
0
 10
295.655
 20
-1.40326
 11
298.297
 21
-1.13249
  0
LINE
  8
0
 10
288.189
 20
12.4337
 11
280.854
 21
14.19
  0
LINE
  8
0
 10
280.854
 20
14.19
 11
273.705
 21
16.5334
  0
LINE
  8
0
 10
273.705
 20
16.5334
 11
266.762
 21
19.4299
  0
LINE
  8
0
 10
266.762
 20
19.4299
 11
260.05
 21
22.8443
  0
LINE
  8
0
 10
260.05
 20
22.8443
 11
253.589
 21
26.7413
  0
LINE
  8
0
 10
253.589
 20
26.7413
 11
247.405
 21
31.0854
  0
LINE
  8
0
 10
247.405
 20
31.0854
 11
241.52
 21
35.8418
  0
LINE
  8
0
 10
241.52
 20
35.8418
 11
235.958
 21
40.9763
  0
LINE
  8
0
 10
235.958
 20
40.9763
 11
230.743
 21
46.4558
  0
LINE
  8
0
 10
230.743
 20
46.4558
 11
225.9
 21
52.2488
  0
LINE
  8
0
 10
225.9
 20
52.2488
 11
221.452
 21
58.3255
  0
LINE
  8
0
 10
221.452
 20
58.3255
 11
217.425
 21
64.6576
  0
LINE
  8
0
 10
217.425
 20
64.6576
 11
213.843
 21
71.2195
  0
LINE
  8
0
 10
213.843
 20
71.2195
 11
210.732
 21
77.9877
  0
LINE
  8
0
 10
210.732
 20
77.9877
 11
208.12
 21
84.9416
  0
LINE
  8
0
 10
208.12
 20
84.9416
 11
206.032
 21
92.0636
  0
LINE
  8
0
 10
206.032
 20
92.0636
 11
204.497
 21
99.339
  0
LINE
  8
0
 10
204.497
 20
99.339
 11
203.542
 21
106.757
  0
LINE
  8
0
 10
203.542
 20
106.757
 11
203.199
 21
114.31
  0
LINE
  8
0
 10
203.199
 20
114.31
 11
203.206
 21
114.311
  0
LINE
  8
0
 10
203.206
 20
114.311
 11
203.246
 21
120.056
  0
LINE
  8
0
 10
203.246
 20
120.056
 11
203.411
 21
125.717
  0
LINE
  8
0
 10
203.411
 20
125.717
 11
203.696
 21
131.289
  0
LINE
  8
0
 10
203.696
 20
131.289
 11
204.094
 21
136.77
  0
LINE
  8
0
 10
204.094
 20
136.77
 11
204.601
 21
142.159
  0
LINE
  8
0
 10
204.601
 20
142.159
 11
205.21
 21
147.454
  0
LINE
  8
0
 10
205.21
 20
147.454
 11
205.916
 21
152.654
  0
LINE
  8
0
 10
205.916
 20
152.654
 11
206.715
 21
157.757
  0
LINE
  8
0
 10
206.715
 20
157.757
 11
207.6
 21
162.762
  0
LINE
  8
0
 10
207.6
 20
162.762
 11
208.567
 21
167.667
  0
LINE
  8
0
 10
208.567
 20
167.667
 11
209.61
 21
172.472
  0
LINE
  8
0
 10
209.61
 20
172.472
 11
210.724
 21
177.176
  0
LINE
  8
0
 10
210.724
 20
177.176
 11
211.905
 21
181.778
  0
LINE
  8
0
 10
211.905
 20
181.778
 11
213.148
 21
186.277
  0
LINE
  8
0
 10
213.148
 20
186.277
 11
214.448
 21
190.672
  0
LINE
  8
0
 10
214.448
 20
190.672
 11
215.8
 21
194.965
  0
LINE
  8
0
 10
215.8
 20
194.965
 11
217.202
 21
199.154
  0
LINE
  8
0
 10
217.202
 20
199.154
 11
218.648
 21
203.239
  0
LINE
  8
0
 10
218.648
 20
203.239
 11
220.135
 21
207.223
  0
LINE
  8
0
 10
220.135
 20
207.223
 11
221.655
 21
211.095
  0
LINE
  8
0
 10
221.655
 20
211.095
 11
221.654
 21
211.096
  0
LINE
  8
0
 10
221.654
 20
211.096
 11
224.005
 21
216.732
  0
LINE
  8
0
 10
224.005
 20
216.732
 11
226.424
 21
222.15
  0
LINE
  8
0
 10
226.424
 20
222.15
 11
228.906
 21
227.359
  0
LINE
  8
0
 10
228.906
 20
227.359
 11
231.449
 21
232.37
  0
LINE
  8
0
 10
231.449
 20
232.37
 11
234.053
 21
237.198
  0
LINE
  8
0
 10
234.053
 20
237.198
 11
236.724
 21
241.863
  0
LINE
  8
0
 10
236.724
 20
241.863
 11
239.469
 21
246.385
  0
LINE
  8
0
 10
239.469
 20
246.385
 11
242.301
 21
250.791
  0
LINE
  8
0
 10
242.301
 20
250.791
 11
245.238
 21
255.113
  0
LINE
  8
0
 10
245.238
 20
255.113
 11
248.299
 21
259.384
  0
LINE
  8
0
 10
248.299
 20
259.384
 11
251.508
 21
263.643
  0
LINE
  8
0
 10
251.508
 20
263.643
 11
254.891
 21
267.93
  0
LINE
  8
0
 10
254.891
 20
267.93
 11
258.475
 21
272.289
  0
LINE
  8
0
 10
258.475
 20
272.289
 11
262.29
 21
276.761
  0
LINE
  8
0
 10
262.29
 20
276.761
 11
266.364
 21
281.392
  0
LINE
  8
0
 10
266.364
 20
281.392
 11
270.724
 21
286.224
  0
LINE
  8
0
 10
270.724
 20
286.224
 11
275.396
 21
291.298
  0
LINE
  8
0
 10
275.396
 20
291.298
 11
280.406
 21
296.657
  0
LINE
  8
0
 10
280.406
 20
296.657
 11
285.777
 21
302.338
  0
LINE
  8
0
 10
285.777
 20
302.338
 11
291.53
 21
308.379
  0
LINE
  8
0
 10
291.53
 20
308.379
 11
333.781
 21
268.034
  0
LINE
  8
0
 10
333.781
 20
268.034
 11
328.98
 21
262.771
  0
LINE
  8
0
 10
328.98
 20
262.771
 11
324.664
 21
257.557
  0
LINE
  8
0
 10
324.664
 20
257.557
 11
320.806
 21
252.38
  0
LINE
  8
0
 10
320.806
 20
252.38
 11
317.382
 21
247.229
  0
LINE
  8
0
 10
317.382
 20
247.229
 11
314.363
 21
242.093
  0
LINE
  8
0
 10
314.363
 20
242.093
 11
311.724
 21
236.958
  0
LINE
  8
0
 10
311.724
 20
236.958
 11
309.436
 21
231.813
  0
LINE
  8
0
 10
309.436
 20
231.813
 11
307.472
 21
226.643
  0
LINE
  8
0
 10
307.472
 20
226.643
 11
305.803
 21
221.436
  0
LINE
  8
0
 10
305.803
 20
221.436
 11
304.402
 21
216.178
  0
LINE
  8
0
 10
304.402
 20
216.178
 11
303.241
 21
210.857
  0
LINE
  8
0
 10
303.241
 20
210.857
 11
302.293
 21
205.462
  0
LINE
  8
0
 10
302.293
 20
205.462
 11
301.532
 21
199.982
  0
LINE
  8
0
 10
301.532
 20
199.982
 11
300.934
 21
194.408
  0
LINE
  8
0
 10
300.934
 20
194.408
 11
300.477
 21
188.733
  0
LINE
  8
0
 10
300.477
 20
188.733
 11
300.139
 21
182.952
  0
LINE
  8
0
 10
300.139
 20
182.952
 11
299.9
 21
177.061
  0
LINE
  8
0
 10
299.9
 20
177.061
 11
299.744
 21
171.059
  0
LINE
  8
0
 10
299.744
 20
171.059
 11
299.656
 21
164.946
  0
LINE
  8
0
 10
299.656
 20
164.946
 11
299.622
 21
158.737
  0
LINE
  8
0
 10
299.622
 20
158.737
 11
299.627
 21
158.733
  0
LINE
  8
0
 10
299.627
 20
158.733
 11
299.626
 21
157.161
  0
LINE
  8
0
 10
299.626
 20
157.161
 11
299.628
 21
155.583
  0
LINE
  8
0
 10
299.628
 20
155.583
 11
299.632
 21
153.999
  0
LINE
  8
0
 10
299.632
 20
153.999
 11
299.64
 21
152.408
  0
LINE
  8
0
 10
299.64
 20
152.408
 11
299.65
 21
150.811
  0
LINE
  8
0
 10
299.65
 20
150.811
 11
299.663
 21
149.208
  0
LINE
  8
0
 10
299.663
 20
149.208
 11
299.679
 21
147.599
  0
LINE
  8
0
 10
299.679
 20
147.599
 11
299.697
 21
145.984
  0
LINE
  8
0
 10
299.697
 20
145.984
 11
299.717
 21
144.363
  0
LINE
  8
0
 10
299.717
 20
144.363
 11
299.74
 21
142.737
  0
LINE
  8
0
 10
299.74
 20
142.737
 11
299.791
 21
139.469
  0
LINE
  8
0
 10
299.791
 20
139.469
 11
299.85
 21
136.18
  0
LINE
  8
0
 10
299.85
 20
136.18
 11
299.916
 21
132.871
  0
LINE
  8
0
 10
299.916
 20
132.871
 11
299.987
 21
129.545
  0
LINE
  8
0
 10
299.987
 20
129.545
 11
300.062
 21
126.201
  0
LINE
  8
0
 10
300.062
 20
126.201
 11
300.055
 21
126.2
  0
LINE
  8
0
 10
300.055
 20
126.2
 11
300.209
 21
118.864
  0
LINE
  8
0
 10
300.209
 20
118.864
 11
300.328
 21
111.77
  0
LINE
  8
0
 10
300.328
 20
111.77
 11
300.411
 21
104.906
  0
LINE
  8
0
 10
300.411
 20
104.906
 11
300.455
 21
98.2573
  0
LINE
  8
0
 10
300.455
 20
98.2573
 11
300.46
 21
91.8102
  0
LINE
  8
0
 10
300.46
 20
91.8102
 11
300.422
 21
85.5511
  0
LINE
  8
0
 10
300.422
 20
85.5511
 11
300.341
 21
79.4671
  0
LINE
  8
0
 10
300.341
 20
79.4671
 11
300.216
 21
73.5455
  0
LINE
  8
0
 10
300.216
 20
73.5455
 11
300.047
 21
67.7741
  0
LINE
  8
0
 10
300.047
 20
67.7741
 11
299.833
 21
62.1415
  0
LINE
  8
0
 10
299.833
 20
62.1415
 11
299.574
 21
56.6366
  0
LINE
  8
0
 10
299.574
 20
56.6366
 11
299.272
 21
51.249
  0
LINE
  8
0
 10
299.272
 20
51.249
 11
298.929
 21
45.9688
  0
LINE
  8
0
 10
298.929
 20
45.9688
 11
298.547
 21
40.7867
  0
LINE
  8
0
 10
298.547
 20
40.7867
 11
298.129
 21
35.694
  0
LINE
  8
0
 10
298.129
 20
35.694
 11
297.68
 21
30.6824
  0
LINE
  8
0
 10
297.68
 20
30.6824
 11
297.204
 21
25.744
  0
LINE
  8
0
 10
297.204
 20
25.744
 11
296.709
 21
20.8716
  0
LINE
  8
0
 10
296.709
 20
20.8716
 11
296.201
 21
16.058
  0
LINE
  8
0
 10
296.201
 20
16.058
 11
295.688
 21
11.2967
  0
LINE
  8
0
 10
295.688
 20
11.2967
 11
288.189
 21
12.4337
  0
LINE
  8
0
 10
204.419
 20
-149.654
 11
206.956
 21
-148.871
  0
LINE
  8
0
 10
206.956
 20
-148.871
 11
209.275
 21
-147.577
  0
LINE
  8
0
 10
209.275
 20
-147.577
 11
211.274
 21
-145.83
  0
LINE
  8
0
 10
211.274
 20
-145.83
 11
212.865
 21
-143.705
  0
LINE
  8
0
 10
212.865
 20
-143.705
 11
213.981
 21
-141.295
  0
LINE
  8
0
 10
213.981
 20
-141.295
 11
214.571
 21
-138.707
  0
LINE
  8
0
 10
214.571
 20
-138.707
 11
214.61
 21
-136.052
  0
LINE
  8
0
 10
214.61
 20
-136.052
 11
214.167
 21
-133.687
  0
LINE
  8
0
 10
214.167
 20
-133.687
 11
212.691
 21
-128.552
  0
LINE
  8
0
 10
212.691
 20
-128.552
 11
212.62
 21
-128.312
  0
LINE
  8
0
 10
212.62
 20
-128.312
 11
210.833
 21
-122.526
  0
LINE
  8
0
 10
210.833
 20
-122.526
 11
210.759
 21
-122.295
  0
LINE
  8
0
 10
210.759
 20
-122.295
 11
208.671
 21
-115.964
  0
LINE
  8
0
 10
208.671
 20
-115.964
 11
208.59
 21
-115.726
  0
LINE
  8
0
 10
208.59
 20
-115.726
 11
206.207
 21
-108.954
  0
LINE
  8
0
 10
206.207
 20
-108.954
 11
206.114
 21
-108.698
  0
LINE
  8
0
 10
206.114
 20
-108.698
 11
203.44
 21
-101.587
  0
LINE
  8
0
 10
203.44
 20
-101.587
 11
203.329
 21
-101.302
  0
LINE
  8
0
 10
203.329
 20
-101.302
 11
200.363
 21
-93.956
  0
LINE
  8
0
 10
200.363
 20
-93.956
 11
200.227
 21
-93.632
  0
LINE
  8
0
 10
200.227
 20
-93.632
 11
196.962
 21
-86.1509
  0
LINE
  8
0
 10
196.962
 20
-86.1509
 11
196.792
 21
-85.7769
  0
LINE
  8
0
 10
196.792
 20
-85.7769
 11
193.218
 21
-78.2607
  0
LINE
  8
0
 10
193.218
 20
-78.2607
 11
193.001
 21
-77.8259
  0
LINE
  8
0
 10
193.001
 20
-77.8259
 11
189.101
 21
-70.373
  0
LINE
  8
0
 10
189.101
 20
-70.373
 11
188.821
 21
-69.8664
  0
LINE
  8
0
 10
188.821
 20
-69.8664
 11
184.571
 21
-62.5738
  0
LINE
  8
0
 10
184.571
 20
-62.5738
 11
184.207
 21
-61.9864
  0
LINE
  8
0
 10
184.207
 20
-61.9864
 11
179.576
 21
-54.9495
  0
LINE
  8
0
 10
179.576
 20
-54.9495
 11
179.101
 21
-54.2766
  0
LINE
  8
0
 10
179.101
 20
-54.2766
 11
174.05
 21
-47.5898
  0
LINE
  8
0
 10
174.05
 20
-47.5898
 11
173.433
 21
-46.8354
  0
LINE
  8
0
 10
173.433
 20
-46.8354
 11
167.916
 21
-40.5915
  0
LINE
  8
0
 10
167.916
 20
-40.5915
 11
167.125
 21
-39.7739
  0
LINE
  8
0
 10
167.125
 20
-39.7739
 11
161.089
 21
-34.0651
  0
LINE
  8
0
 10
161.089
 20
-34.0651
 11
160.1
 21
-33.2213
  0
LINE
  8
0
 10
160.1
 20
-33.2213
 11
153.486
 21
-28.1392
  0
LINE
  8
0
 10
153.486
 20
-28.1392
 11
152.293
 21
-27.326
  0
LINE
  8
0
 10
152.293
 20
-27.326
 11
145.035
 21
-22.9617
  0
LINE
  8
0
 10
145.035
 20
-22.9617
 11
143.663
 21
-22.2469
  0
LINE
  8
0
 10
143.663
 20
-22.2469
 11
135.692
 21
-18.6917
  0
LINE
  8
0
 10
135.692
 20
-18.6917
 11
134.203
 21
-18.1365
  0
LINE
  8
0
 10
134.203
 20
-18.1365
 11
125.446
 21
-15.482
  0
LINE
  8
0
 10
125.446
 20
-15.482
 11
123.923
 21
-15.1212
  0
LINE
  8
0
 10
123.923
 20
-15.1212
 11
114.306
 21
-13.46
  0
LINE
  8
0
 10
114.306
 20
-13.46
 11
112.834
 21
-13.2934
  0
LINE
  8
0
 10
112.834
 20
-13.2934
 11
102.28
 21
-12.7193
  0
LINE
  8
0
 10
102.28
 20
-12.7193
 11
100.9
 21
-12.7193
  0
LINE
  8
0
 10
100.9
 20
-12.7193
 11
90.3553
 21
-13.2935
  0
LINE
  8
0
 10
90.3553
 20
-13.2935
 11
88.8842
 21
-13.46
  0
LINE
  8
0
 10
88.8842
 20
-13.46
 11
79.2665
 21
-15.1212
  0
LINE
  8
0
 10
79.2665
 20
-15.1212
 11
77.744
 21
-15.482
  0
LINE
  8
0
 10
77.744
 20
-15.482
 11
68.987
 21
-18.1365
  0
LINE
  8
0
 10
68.987
 20
-18.1365
 11
67.498
 21
-18.6917
  0
LINE
  8
0
 10
67.498
 20
-18.6917
 11
59.5269
 21
-22.2469
  0
LINE
  8
0
 10
59.5269
 20
-22.2469
 11
58.1555
 21
-22.9617
  0
LINE
  8
0
 10
58.1555
 20
-22.9617
 11
50.8974
 21
-27.326
  0
LINE
  8
0
 10
50.8974
 20
-27.326
 11
49.7042
 21
-28.1392
  0
LINE
  8
0
 10
49.7042
 20
-28.1392
 11
43.0897
 21
-33.2213
  0
LINE
  8
0
 10
43.0897
 20
-33.2213
 11
42.1007
 21
-34.0651
  0
LINE
  8
0
 10
42.1007
 20
-34.0651
 11
36.0646
 21
-39.7739
  0
LINE
  8
0
 10
36.0646
 20
-39.7739
 11
35.2742
 21
-40.5915
  0
LINE
  8
0
 10
35.2742
 20
-40.5915
 11
29.757
 21
-46.8354
  0
LINE
  8
0
 10
29.757
 20
-46.8354
 11
29.1404
 21
-47.5898
  0
LINE
  8
0
 10
29.1404
 20
-47.5898
 11
24.0891
 21
-54.2766
  0
LINE
  8
0
 10
24.0891
 20
-54.2766
 11
23.6143
 21
-54.9495
  0
LINE
  8
0
 10
23.6143
 20
-54.9495
 11
18.9829
 21
-61.9864
  0
LINE
  8
0
 10
18.9829
 20
-61.9864
 11
18.6188
 21
-62.5738
  0
LINE
  8
0
 10
18.6188
 20
-62.5738
 11
14.3687
 21
-69.8664
  0
LINE
  8
0
 10
14.3687
 20
-69.8664
 11
14.0888
 21
-70.373
  0
LINE
  8
0
 10
14.0888
 20
-70.373
 11
10.189
 21
-77.8259
  0
LINE
  8
0
 10
10.189
 20
-77.8259
 11
9.97192
 21
-78.2607
  0
LINE
  8
0
 10
9.97192
 20
-78.2607
 11
6.39838
 21
-85.7769
  0
LINE
  8
0
 10
6.39838
 20
-85.7769
 11
6.22795
 21
-86.1509
  0
LINE
  8
0
 10
6.22795
 20
-86.1509
 11
2.96347
 21
-93.632
  0
LINE
  8
0
 10
2.96347
 20
-93.632
 11
2.82741
 21
-93.956
  0
LINE
  8
0
 10
2.82741
 20
-93.956
 11
-0.139145
 21
-101.302
  0
LINE
  8
0
 10
-0.139145
 20
-101.302
 11
-0.250137
 21
-101.587
  0
LINE
  8
0
 10
-0.250137
 20
-101.587
 11
-2.92442
 21
-108.698
  0
LINE
  8
0
 10
-2.92442
 20
-108.698
 11
-3.01744
 21
-108.954
  0
LINE
  8
0
 10
-3.01744
 20
-108.954
 11
-5.40036
 21
-115.726
  0
LINE
  8
0
 10
-5.40036
 20
-115.726
 11
-5.48117
 21
-115.964
  0
LINE
  8
0
 10
-5.48117
 20
-115.964
 11
-7.56944
 21
-122.295
  0
LINE
  8
0
 10
-7.56944
 20
-122.295
 11
-7.64302
 21
-122.526
  0
LINE
  8
0
 10
-7.64302
 20
-122.526
 11
-9.4299
 21
-128.312
  0
LINE
  8
0
 10
-9.4299
 20
-128.312
 11
-9.50143
 21
-128.552
  0
LINE
  8
0
 10
-9.50143
 20
-128.552
 11
-10.9771
 21
-133.687
  0
LINE
  8
0
 10
-10.9771
 20
-133.687
 11
-11.4396
 21
-136.301
  0
LINE
  8
0
 10
-11.4396
 20
-136.301
 11
-11.3485
 21
-138.955
  0
LINE
  8
0
 10
-11.3485
 20
-138.955
 11
-10.7076
 21
-141.531
  0
LINE
  8
0
 10
-10.7076
 20
-141.531
 11
-9.54507
 21
-143.918
  0
LINE
  8
0
 10
-9.54507
 20
-143.918
 11
-7.91165
 21
-146.012
  0
LINE
  8
0
 10
-7.91165
 20
-146.012
 11
-5.87875
 21
-147.719
  0
LINE
  8
0
 10
-5.87875
 20
-147.719
 11
-3.5352
 21
-148.967
  0
LINE
  8
0
 10
-3.5352
 20
-148.967
 11
-0.983444
 21
-149.7
  0
LINE
  8
0
 10
-0.983444
 20
-149.7
 11
1.66499
 21
-149.887
  0
LINE
  8
0
 10
1.66499
 20
-149.887
 11
4.29439
 21
-149.519
  0
LINE
  8
0
 10
4.29439
 20
-149.519
 11
6.78979
 21
-148.612
  0
LINE
  8
0
 10
6.78979
 20
-148.612
 11
9.04218
 21
-147.207
  0
LINE
  8
0
 10
9.04218
 20
-147.207
 11
10.7902
 21
-145.553
  0
LINE
  8
0
 10
10.7902
 20
-145.553
 11
14.8073
 21
-140.959
  0
LINE
  8
0
 10
14.8073
 20
-140.959
 11
18.7461
 21
-136.619
  0
LINE
  8
0
 10
18.7461
 20
-136.619
 11
22.6773
 21
-132.467
  0
LINE
  8
0
 10
22.6773
 20
-132.467
 11
26.6032
 21
-128.515
  0
LINE
  8
0
 10
26.6032
 20
-128.515
 11
30.5281
 21
-124.774
  0
LINE
  8
0
 10
30.5281
 20
-124.774
 11
34.4583
 21
-121.253
  0
LINE
  8
0
 10
34.4583
 20
-121.253
 11
38.4027
 21
-117.959
  0
LINE
  8
0
 10
38.4027
 20
-117.959
 11
42.3724
 21
-114.897
  0
LINE
  8
0
 10
42.3724
 20
-114.897
 11
46.3827
 21
-112.069
  0
LINE
  8
0
 10
46.3827
 20
-112.069
 11
50.4525
 21
-109.477
  0
LINE
  8
0
 10
50.4525
 20
-109.477
 11
54.6066
 21
-107.118
  0
LINE
  8
0
 10
54.6066
 20
-107.118
 11
58.8738
 21
-104.99
  0
LINE
  8
0
 10
58.8738
 20
-104.99
 11
63.288
 21
-103.091
  0
LINE
  8
0
 10
63.288
 20
-103.091
 11
67.8881
 21
-101.42
  0
LINE
  8
0
 10
67.8881
 20
-101.42
 11
72.7139
 21
-99.979
  0
LINE
  8
0
 10
72.7139
 20
-99.979
 11
77.8065
 21
-98.7734
  0
LINE
  8
0
 10
77.8065
 20
-98.7734
 11
83.2066
 21
-97.812
  0
LINE
  8
0
 10
83.2066
 20
-97.812
 11
88.9505
 21
-97.1068
  0
LINE
  8
0
 10
88.9505
 20
-97.1068
 11
95.0733
 21
-96.672
  0
LINE
  8
0
 10
95.0733
 20
-96.672
 11
101.595
 21
-96.5234
  0
LINE
  8
0
 10
101.595
 20
-96.5234
 11
108.117
 21
-96.672
  0
LINE
  8
0
 10
108.117
 20
-96.672
 11
114.24
 21
-97.1068
  0
LINE
  8
0
 10
114.24
 20
-97.1068
 11
119.983
 21
-97.812
  0
LINE
  8
0
 10
119.983
 20
-97.812
 11
125.383
 21
-98.7734
  0
LINE
  8
0
 10
125.383
 20
-98.7734
 11
130.476
 21
-99.979
  0
LINE
  8
0
 10
130.476
 20
-99.979
 11
135.302
 21
-101.42
  0
LINE
  8
0
 10
135.302
 20
-101.42
 11
139.902
 21
-103.091
  0
LINE
  8
0
 10
139.902
 20
-103.091
 11
144.316
 21
-104.99
  0
LINE
  8
0
 10
144.316
 20
-104.99
 11
148.583
 21
-107.118
  0
LINE
  8
0
 10
148.583
 20
-107.118
 11
152.737
 21
-109.477
  0
LINE
  8
0
 10
152.737
 20
-109.477
 11
156.807
 21
-112.069
  0
LINE
  8
0
 10
156.807
 20
-112.069
 11
160.818
 21
-114.897
  0
LINE
  8
0
 10
160.818
 20
-114.897
 11
164.787
 21
-117.959
  0
LINE
  8
0
 10
164.787
 20
-117.959
 11
168.732
 21
-121.253
  0
LINE
  8
0
 10
168.732
 20
-121.253
 11
172.662
 21
-124.774
  0
LINE
  8
0
 10
172.662
 20
-124.774
 11
176.587
 21
-128.515
  0
LINE
  8
0
 10
176.587
 20
-128.515
 11
180.513
 21
-132.467
  0
LINE
  8
0
 10
180.513
 20
-132.467
 11
184.444
 21
-136.619
  0
LINE
  8
0
 10
184.444
 20
-136.619
 11
188.383
 21
-140.959
  0
LINE
  8
0
 10
188.383
 20
-140.959
 11
192.4
 21
-145.553
  0
LINE
  8
0
 10
192.4
 20
-145.553
 11
194.347
 21
-147.359
  0
LINE
  8
0
 10
194.347
 20
-147.359
 11
196.626
 21
-148.72
  0
LINE
  8
0
 10
196.626
 20
-148.72
 11
199.139
 21
-149.577
  0
LINE
  8
0
 10
199.139
 20
-149.577
 11
201.775
 21
-149.893
  0
LINE
  8
0
 10
201.775
 20
-149.893
 11
204.419
 21
-149.654
  0
LINE
  8
0
 10
197.866
 20
-132.511
 11
193.758
 21
-127.984
  0
LINE
  8
0
 10
193.758
 20
-127.984
 11
189.63
 21
-123.624
  0
LINE
  8
0
 10
189.63
 20
-123.624
 11
185.474
 21
-119.441
  0
LINE
  8
0
 10
185.474
 20
-119.441
 11
181.282
 21
-115.446
  0
LINE
  8
0
 10
181.282
 20
-115.446
 11
177.042
 21
-111.647
  0
LINE
  8
0
 10
177.042
 20
-111.647
 11
172.739
 21
-108.054
  0
LINE
  8
0
 10
172.739
 20
-108.054
 11
168.359
 21
-104.674
  0
LINE
  8
0
 10
168.359
 20
-104.674
 11
163.882
 21
-101.518
  0
LINE
  8
0
 10
163.882
 20
-101.518
 11
159.289
 21
-98.5919
  0
LINE
  8
0
 10
159.289
 20
-98.5919
 11
154.557
 21
-95.905
  0
LINE
  8
0
 10
154.557
 20
-95.905
 11
149.663
 21
-93.4649
  0
LINE
  8
0
 10
149.663
 20
-93.4649
 11
144.583
 21
-91.2794
  0
LINE
  8
0
 10
144.583
 20
-91.2794
 11
139.29
 21
-89.3568
  0
LINE
  8
0
 10
139.29
 20
-89.3568
 11
133.758
 21
-87.705
  0
LINE
  8
0
 10
133.758
 20
-87.705
 11
127.961
 21
-86.3327
  0
LINE
  8
0
 10
127.961
 20
-86.3327
 11
121.872
 21
-85.2485
  0
LINE
  8
0
 10
121.872
 20
-85.2485
 11
115.464
 21
-84.4618
  0
LINE
  8
0
 10
115.464
 20
-84.4618
 11
108.712
 21
-83.9822
  0
LINE
  8
0
 10
108.712
 20
-83.9822
 11
101.595
 21
-83.8201
  0
LINE
  8
0
 10
101.595
 20
-83.8201
 11
94.4783
 21
-83.9822
  0
LINE
  8
0
 10
94.4783
 20
-83.9822
 11
87.7261
 21
-84.4618
  0
LINE
  8
0
 10
87.7261
 20
-84.4618
 11
81.3182
 21
-85.2485
  0
LINE
  8
0
 10
81.3182
 20
-85.2485
 11
75.2288
 21
-86.3327
  0
LINE
  8
0
 10
75.2288
 20
-86.3327
 11
69.4315
 21
-87.705
  0
LINE
  8
0
 10
69.4315
 20
-87.705
 11
63.8998
 21
-89.3568
  0
LINE
  8
0
 10
63.8998
 20
-89.3568
 11
58.6069
 21
-91.2794
  0
LINE
  8
0
 10
58.6069
 20
-91.2794
 11
53.5266
 21
-93.4649
  0
LINE
  8
0
 10
53.5266
 20
-93.4649
 11
48.633
 21
-95.905
  0
LINE
  8
0
 10
48.633
 20
-95.905
 11
43.9014
 21
-98.5919
  0
LINE
  8
0
 10
43.9014
 20
-98.5919
 11
39.3081
 21
-101.518
  0
LINE
  8
0
 10
39.3081
 20
-101.518
 11
34.8312
 21
-104.674
  0
LINE
  8
0
 10
34.8312
 20
-104.674
 11
30.4506
 21
-108.054
  0
LINE
  8
0
 10
30.4506
 20
-108.054
 11
26.1481
 21
-111.647
  0
LINE
  8
0
 10
26.1481
 20
-111.647
 11
21.9077
 21
-115.446
  0
LINE
  8
0
 10
21.9077
 20
-115.446
 11
17.7157
 21
-119.441
  0
LINE
  8
0
 10
17.7157
 20
-119.441
 11
13.5603
 21
-123.624
  0
LINE
  8
0
 10
13.5603
 20
-123.624
 11
9.43214
 21
-127.984
  0
LINE
  8
0
 10
9.43214
 20
-127.984
 11
5.32358
 21
-132.511
  0
LINE
  8
0
 10
5.32358
 20
-132.511
 11
1.22891
 21
-137.195
  0
LINE
  8
0
 10
1.22891
 20
-137.195
 11
2.70461
 21
-132.059
  0
LINE
  8
0
 10
2.70461
 20
-132.059
 11
4.49149
 21
-126.273
  0
LINE
  8
0
 10
4.49149
 20
-126.273
 11
6.57976
 21
-119.941
  0
LINE
  8
0
 10
6.57976
 20
-119.941
 11
8.96268
 21
-113.169
  0
LINE
  8
0
 10
8.96268
 20
-113.169
 11
11.637
 21
-106.058
  0
LINE
  8
0
 10
11.637
 20
-106.058
 11
14.6035
 21
-98.7113
  0
LINE
  8
0
 10
14.6035
 20
-98.7113
 11
17.868
 21
-91.2301
  0
LINE
  8
0
 10
17.868
 20
-91.2301
 11
21.4416
 21
-83.7139
  0
LINE
  8
0
 10
21.4416
 20
-83.7139
 11
25.3414
 21
-76.2611
  0
LINE
  8
0
 10
25.3414
 20
-76.2611
 11
29.5914
 21
-68.9685
  0
LINE
  8
0
 10
29.5914
 20
-68.9685
 11
34.2228
 21
-61.9316
  0
LINE
  8
0
 10
34.2228
 20
-61.9316
 11
39.274
 21
-55.2447
  0
LINE
  8
0
 10
39.274
 20
-55.2447
 11
44.7912
 21
-49.0008
  0
LINE
  8
0
 10
44.7912
 20
-49.0008
 11
50.8273
 21
-43.292
  0
LINE
  8
0
 10
50.8273
 20
-43.292
 11
57.4418
 21
-38.2099
  0
LINE
  8
0
 10
57.4418
 20
-38.2099
 11
64.7
 21
-33.8456
  0
LINE
  8
0
 10
64.7
 20
-33.8456
 11
72.6711
 21
-30.2904
  0
LINE
  8
0
 10
72.6711
 20
-30.2904
 11
81.4281
 21
-27.6359
  0
LINE
  8
0
 10
81.4281
 20
-27.6359
 11
91.0458
 21
-25.9747
  0
LINE
  8
0
 10
91.0458
 20
-25.9747
 11
101.59
 21
-25.4005
  0
LINE
  8
0
 10
101.59
 20
-25.4005
 11
112.144
 21
-25.9747
  0
LINE
  8
0
 10
112.144
 20
-25.9747
 11
121.762
 21
-27.6359
  0
LINE
  8
0
 10
121.762
 20
-27.6359
 11
130.519
 21
-30.2904
  0
LINE
  8
0
 10
130.519
 20
-30.2904
 11
138.49
 21
-33.8456
  0
LINE
  8
0
 10
138.49
 20
-33.8456
 11
145.748
 21
-38.2099
  0
LINE
  8
0
 10
145.748
 20
-38.2099
 11
152.363
 21
-43.292
  0
LINE
  8
0
 10
152.363
 20
-43.292
 11
158.399
 21
-49.0008
  0
LINE
  8
0
 10
158.399
 20
-49.0008
 11
163.916
 21
-55.2447
  0
LINE
  8
0
 10
163.916
 20
-55.2447
 11
168.967
 21
-61.9316
  0
LINE
  8
0
 10
168.967
 20
-61.9316
 11
173.599
 21
-68.9685
  0
LINE
  8
0
 10
173.599
 20
-68.9685
 11
177.849
 21
-76.2611
  0
LINE
  8
0
 10
177.849
 20
-76.2611
 11
181.748
 21
-83.7139
  0
LINE
  8
0
 10
181.748
 20
-83.7139
 11
185.322
 21
-91.2301
  0
LINE
  8
0
 10
185.322
 20
-91.2301
 11
188.586
 21
-98.7113
  0
LINE
  8
0
 10
188.586
 20
-98.7113
 11
191.553
 21
-106.058
  0
LINE
  8
0
 10
191.553
 20
-106.058
 11
194.227
 21
-113.169
  0
LINE
  8
0
 10
194.227
 20
-113.169
 11
196.61
 21
-119.941
  0
LINE
  8
0
 10
196.61
 20
-119.941
 11
198.698
 21
-126.273
  0
LINE
  8
0
 10
198.698
 20
-126.273
 11
200.485
 21
-132.059
  0
LINE
  8
0
 10
200.485
 20
-132.059
 11
201.961
 21
-137.195
  0
LINE
  8
0
 10
201.961
 20
-137.195
 11
197.866
 21
-132.511
  0
LINE
  8
0
 10
204.419
 20
-251.254
 11
206.956
 21
-250.471
  0
LINE
  8
0
 10
206.956
 20
-250.471
 11
209.275
 21
-249.177
  0
LINE
  8
0
 10
209.275
 20
-249.177
 11
211.274
 21
-247.43
  0
LINE
  8
0
 10
211.274
 20
-247.43
 11
212.865
 21
-245.305
  0
LINE
  8
0
 10
212.865
 20
-245.305
 11
213.981
 21
-242.895
  0
LINE
  8
0
 10
213.981
 20
-242.895
 11
214.571
 21
-240.307
  0
LINE
  8
0
 10
214.571
 20
-240.307
 11
214.61
 21
-237.652
  0
LINE
  8
0
 10
214.61
 20
-237.652
 11
214.167
 21
-235.287
  0
LINE
  8
0
 10
214.167
 20
-235.287
 11
212.691
 21
-230.152
  0
LINE
  8
0
 10
212.691
 20
-230.152
 11
212.62
 21
-229.912
  0
LINE
  8
0
 10
212.62
 20
-229.912
 11
210.833
 21
-224.126
  0
LINE
  8
0
 10
210.833
 20
-224.126
 11
210.759
 21
-223.895
  0
LINE
  8
0
 10
210.759
 20
-223.895
 11
208.671
 21
-217.564
  0
LINE
  8
0
 10
208.671
 20
-217.564
 11
208.59
 21
-217.326
  0
LINE
  8
0
 10
208.59
 20
-217.326
 11
206.207
 21
-210.554
  0
LINE
  8
0
 10
206.207
 20
-210.554
 11
206.114
 21
-210.298
  0
LINE
  8
0
 10
206.114
 20
-210.298
 11
203.44
 21
-203.187
  0
LINE
  8
0
 10
203.44
 20
-203.187
 11
203.329
 21
-202.902
  0
LINE
  8
0
 10
203.329
 20
-202.902
 11
200.363
 21
-195.556
  0
LINE
  8
0
 10
200.363
 20
-195.556
 11
200.227
 21
-195.232
  0
LINE
  8
0
 10
200.227
 20
-195.232
 11
196.962
 21
-187.751
  0
LINE
  8
0
 10
196.962
 20
-187.751
 11
196.792
 21
-187.377
  0
LINE
  8
0
 10
196.792
 20
-187.377
 11
193.218
 21
-179.861
  0
LINE
  8
0
 10
193.218
 20
-179.861
 11
193.001
 21
-179.426
  0
LINE
  8
0
 10
193.001
 20
-179.426
 11
189.101
 21
-171.973
  0
LINE
  8
0
 10
189.101
 20
-171.973
 11
188.821
 21
-171.466
  0
LINE
  8
0
 10
188.821
 20
-171.466
 11
184.571
 21
-164.174
  0
LINE
  8
0
 10
184.571
 20
-164.174
 11
184.207
 21
-163.586
  0
LINE
  8
0
 10
184.207
 20
-163.586
 11
179.576
 21
-156.55
  0
LINE
  8
0
 10
179.576
 20
-156.55
 11
179.101
 21
-155.877
  0
LINE
  8
0
 10
179.101
 20
-155.877
 11
174.05
 21
-149.19
  0
LINE
  8
0
 10
174.05
 20
-149.19
 11
173.433
 21
-148.435
  0
LINE
  8
0
 10
173.433
 20
-148.435
 11
167.916
 21
-142.192
  0
LINE
  8
0
 10
167.916
 20
-142.192
 11
167.125
 21
-141.374
  0
LINE
  8
0
 10
167.125
 20
-141.374
 11
161.089
 21
-135.665
  0
LINE
  8
0
 10
161.089
 20
-135.665
 11
160.1
 21
-134.821
  0
LINE
  8
0
 10
160.1
 20
-134.821
 11
153.486
 21
-129.739
  0
LINE
  8
0
 10
153.486
 20
-129.739
 11
152.293
 21
-128.926
  0
LINE
  8
0
 10
152.293
 20
-128.926
 11
145.035
 21
-124.562
  0
LINE
  8
0
 10
145.035
 20
-124.562
 11
143.663
 21
-123.847
  0
LINE
  8
0
 10
143.663
 20
-123.847
 11
135.692
 21
-120.292
  0
LINE
  8
0
 10
135.692
 20
-120.292
 11
134.203
 21
-119.736
  0
LINE
  8
0
 10
134.203
 20
-119.736
 11
125.446
 21
-117.082
  0
LINE
  8
0
 10
125.446
 20
-117.082
 11
123.923
 21
-116.721
  0
LINE
  8
0
 10
123.923
 20
-116.721
 11
114.306
 21
-115.06
  0
LINE
  8
0
 10
114.306
 20
-115.06
 11
112.834
 21
-114.893
  0
LINE
  8
0
 10
112.834
 20
-114.893
 11
102.28
 21
-114.319
  0
LINE
  8
0
 10
102.28
 20
-114.319
 11
100.9
 21
-114.319
  0
LINE
  8
0
 10
100.9
 20
-114.319
 11
90.3553
 21
-114.893
  0
LINE
  8
0
 10
90.3553
 20
-114.893
 11
88.8842
 21
-115.06
  0
LINE
  8
0
 10
88.8842
 20
-115.06
 11
79.2665
 21
-116.721
  0
LINE
  8
0
 10
79.2665
 20
-116.721
 11
77.744
 21
-117.082
  0
LINE
  8
0
 10
77.744
 20
-117.082
 11
68.987
 21
-119.736
  0
LINE
  8
0
 10
68.987
 20
-119.736
 11
67.498
 21
-120.292
  0
LINE
  8
0
 10
67.498
 20
-120.292
 11
59.5269
 21
-123.847
  0
LINE
  8
0
 10
59.5269
 20
-123.847
 11
58.1555
 21
-124.562
  0
LINE
  8
0
 10
58.1555
 20
-124.562
 11
50.8974
 21
-128.926
  0
LINE
  8
0
 10
50.8974
 20
-128.926
 11
49.7042
 21
-129.739
  0
LINE
  8
0
 10
49.7042
 20
-129.739
 11
43.0897
 21
-134.821
  0
LINE
  8
0
 10
43.0897
 20
-134.821
 11
42.1007
 21
-135.665
  0
LINE
  8
0
 10
42.1007
 20
-135.665
 11
36.0646
 21
-141.374
  0
LINE
  8
0
 10
36.0646
 20
-141.374
 11
35.2742
 21
-142.192
  0
LINE
  8
0
 10
35.2742
 20
-142.192
 11
29.757
 21
-148.435
  0
LINE
  8
0
 10
29.757
 20
-148.435
 11
29.1404
 21
-149.19
  0
LINE
  8
0
 10
29.1404
 20
-149.19
 11
24.0891
 21
-155.877
  0
LINE
  8
0
 10
24.0891
 20
-155.877
 11
23.6143
 21
-156.55
  0
LINE
  8
0
 10
23.6143
 20
-156.55
 11
18.9829
 21
-163.586
  0
LINE
  8
0
 10
18.9829
 20
-163.586
 11
18.6188
 21
-164.174
  0
LINE
  8
0
 10
18.6188
 20
-164.174
 11
14.3687
 21
-171.466
  0
LINE
  8
0
 10
14.3687
 20
-171.466
 11
14.0888
 21
-171.973
  0
LINE
  8
0
 10
14.0888
 20
-171.973
 11
10.189
 21
-179.426
  0
LINE
  8
0
 10
10.189
 20
-179.426
 11
9.97192
 21
-179.861
  0
LINE
  8
0
 10
9.97192
 20
-179.861
 11
6.39838
 21
-187.377
  0
LINE
  8
0
 10
6.39838
 20
-187.377
 11
6.22795
 21
-187.751
  0
LINE
  8
0
 10
6.22795
 20
-187.751
 11
2.96347
 21
-195.232
  0
LINE
  8
0
 10
2.96347
 20
-195.232
 11
2.82741
 21
-195.556
  0
LINE
  8
0
 10
2.82741
 20
-195.556
 11
-0.139145
 21
-202.902
  0
LINE
  8
0
 10
-0.139145
 20
-202.902
 11
-0.250137
 21
-203.187
  0
LINE
  8
0
 10
-0.250137
 20
-203.187
 11
-2.92442
 21
-210.298
  0
LINE
  8
0
 10
-2.92442
 20
-210.298
 11
-3.01744
 21
-210.554
  0
LINE
  8
0
 10
-3.01744
 20
-210.554
 11
-5.40036
 21
-217.326
  0
LINE
  8
0
 10
-5.40036
 20
-217.326
 11
-5.48117
 21
-217.564
  0
LINE
  8
0
 10
-5.48117
 20
-217.564
 11
-7.56944
 21
-223.895
  0
LINE
  8
0
 10
-7.56944
 20
-223.895
 11
-7.64302
 21
-224.126
  0
LINE
  8
0
 10
-7.64302
 20
-224.126
 11
-9.4299
 21
-229.912
  0
LINE
  8
0
 10
-9.4299
 20
-229.912
 11
-9.50143
 21
-230.152
  0
LINE
  8
0
 10
-9.50143
 20
-230.152
 11
-10.9771
 21
-235.287
  0
LINE
  8
0
 10
-10.9771
 20
-235.287
 11
-11.4396
 21
-237.901
  0
LINE
  8
0
 10
-11.4396
 20
-237.901
 11
-11.3485
 21
-240.555
  0
LINE
  8
0
 10
-11.3485
 20
-240.555
 11
-10.7076
 21
-243.131
  0
LINE
  8
0
 10
-10.7076
 20
-243.131
 11
-9.54507
 21
-245.518
  0
LINE
  8
0
 10
-9.54507
 20
-245.518
 11
-7.91165
 21
-247.612
  0
LINE
  8
0
 10
-7.91165
 20
-247.612
 11
-5.87875
 21
-249.319
  0
LINE
  8
0
 10
-5.87875
 20
-249.319
 11
-3.5352
 21
-250.567
  0
LINE
  8
0
 10
-3.5352
 20
-250.567
 11
-0.983444
 21
-251.3
  0
LINE
  8
0
 10
-0.983444
 20
-251.3
 11
1.66499
 21
-251.487
  0
LINE
  8
0
 10
1.66499
 20
-251.487
 11
4.29439
 21
-251.119
  0
LINE
  8
0
 10
4.29439
 20
-251.119
 11
6.78979
 21
-250.212
  0
LINE
  8
0
 10
6.78979
 20
-250.212
 11
9.04218
 21
-248.807
  0
LINE
  8
0
 10
9.04218
 20
-248.807
 11
10.7902
 21
-247.153
  0
LINE
  8
0
 10
10.7902
 20
-247.153
 11
14.8073
 21
-242.559
  0
LINE
  8
0
 10
14.8073
 20
-242.559
 11
18.7461
 21
-238.219
  0
LINE
  8
0
 10
18.7461
 20
-238.219
 11
22.6773
 21
-234.067
  0
LINE
  8
0
 10
22.6773
 20
-234.067
 11
26.6032
 21
-230.115
  0
LINE
  8
0
 10
26.6032
 20
-230.115
 11
30.5281
 21
-226.374
  0
LINE
  8
0
 10
30.5281
 20
-226.374
 11
34.4583
 21
-222.853
  0
LINE
  8
0
 10
34.4583
 20
-222.853
 11
38.4027
 21
-219.559
  0
LINE
  8
0
 10
38.4027
 20
-219.559
 11
42.3724
 21
-216.497
  0
LINE
  8
0
 10
42.3724
 20
-216.497
 11
46.3827
 21
-213.669
  0
LINE
  8
0
 10
46.3827
 20
-213.669
 11
50.4525
 21
-211.077
  0
LINE
  8
0
 10
50.4525
 20
-211.077
 11
54.6066
 21
-208.718
  0
LINE
  8
0
 10
54.6066
 20
-208.718
 11
58.8738
 21
-206.59
  0
LINE
  8
0
 10
58.8738
 20
-206.59
 11
63.288
 21
-204.691
  0
LINE
  8
0
 10
63.288
 20
-204.691
 11
67.8881
 21
-203.02
  0
LINE
  8
0
 10
67.8881
 20
-203.02
 11
72.7139
 21
-201.579
  0
LINE
  8
0
 10
72.7139
 20
-201.579
 11
77.8065
 21
-200.373
  0
LINE
  8
0
 10
77.8065
 20
-200.373
 11
83.2066
 21
-199.412
  0
LINE
  8
0
 10
83.2066
 20
-199.412
 11
88.9505
 21
-198.707
  0
LINE
  8
0
 10
88.9505
 20
-198.707
 11
95.0733
 21
-198.272
  0
LINE
  8
0
 10
95.0733
 20
-198.272
 11
101.595
 21
-198.123
  0
LINE
  8
0
 10
101.595
 20
-198.123
 11
108.117
 21
-198.272
  0
LINE
  8
0
 10
108.117
 20
-198.272
 11
114.24
 21
-198.707
  0
LINE
  8
0
 10
114.24
 20
-198.707
 11
119.983
 21
-199.412
  0
LINE
  8
0
 10
119.983
 20
-199.412
 11
125.383
 21
-200.373
  0
LINE
  8
0
 10
125.383
 20
-200.373
 11
130.476
 21
-201.579
  0
LINE
  8
0
 10
130.476
 20
-201.579
 11
135.302
 21
-203.02
  0
LINE
  8
0
 10
135.302
 20
-203.02
 11
139.902
 21
-204.691
  0
LINE
  8
0
 10
139.902
 20
-204.691
 11
144.316
 21
-206.59
  0
LINE
  8
0
 10
144.316
 20
-206.59
 11
148.583
 21
-208.718
  0
LINE
  8
0
 10
148.583
 20
-208.718
 11
152.737
 21
-211.077
  0
LINE
  8
0
 10
152.737
 20
-211.077
 11
156.807
 21
-213.669
  0
LINE
  8
0
 10
156.807
 20
-213.669
 11
160.818
 21
-216.497
  0
LINE
  8
0
 10
160.818
 20
-216.497
 11
164.787
 21
-219.559
  0
LINE
  8
0
 10
164.787
 20
-219.559
 11
168.732
 21
-222.853
  0
LINE
  8
0
 10
168.732
 20
-222.853
 11
172.662
 21
-226.374
  0
LINE
  8
0
 10
172.662
 20
-226.374
 11
176.587
 21
-230.115
  0
LINE
  8
0
 10
176.587
 20
-230.115
 11
180.513
 21
-234.067
  0
LINE
  8
0
 10
180.513
 20
-234.067
 11
184.444
 21
-238.219
  0
LINE
  8
0
 10
184.444
 20
-238.219
 11
188.383
 21
-242.559
  0
LINE
  8
0
 10
188.383
 20
-242.559
 11
192.4
 21
-247.153
  0
LINE
  8
0
 10
192.4
 20
-247.153
 11
194.347
 21
-248.959
  0
LINE
  8
0
 10
194.347
 20
-248.959
 11
196.626
 21
-250.32
  0
LINE
  8
0
 10
196.626
 20
-250.32
 11
199.139
 21
-251.177
  0
LINE
  8
0
 10
199.139
 20
-251.177
 11
201.775
 21
-251.493
  0
LINE
  8
0
 10
201.775
 20
-251.493
 11
204.419
 21
-251.254
  0
LINE
  8
0
 10
197.866
 20
-234.111
 11
193.758
 21
-229.584
  0
LINE
  8
0
 10
193.758
 20
-229.584
 11
189.63
 21
-225.224
  0
LINE
  8
0
 10
189.63
 20
-225.224
 11
185.474
 21
-221.041
  0
LINE
  8
0
 10
185.474
 20
-221.041
 11
181.282
 21
-217.046
  0
LINE
  8
0
 10
181.282
 20
-217.046
 11
177.042
 21
-213.247
  0
LINE
  8
0
 10
177.042
 20
-213.247
 11
172.739
 21
-209.654
  0
LINE
  8
0
 10
172.739
 20
-209.654
 11
168.359
 21
-206.274
  0
LINE
  8
0
 10
168.359
 20
-206.274
 11
163.882
 21
-203.118
  0
LINE
  8
0
 10
163.882
 20
-203.118
 11
159.289
 21
-200.192
  0
LINE
  8
0
 10
159.289
 20
-200.192
 11
154.557
 21
-197.505
  0
LINE
  8
0
 10
154.557
 20
-197.505
 11
149.663
 21
-195.065
  0
LINE
  8
0
 10
149.663
 20
-195.065
 11
144.583
 21
-192.879
  0
LINE
  8
0
 10
144.583
 20
-192.879
 11
139.29
 21
-190.957
  0
LINE
  8
0
 10
139.29
 20
-190.957
 11
133.758
 21
-189.305
  0
LINE
  8
0
 10
133.758
 20
-189.305
 11
127.961
 21
-187.933
  0
LINE
  8
0
 10
127.961
 20
-187.933
 11
121.872
 21
-186.849
  0
LINE
  8
0
 10
121.872
 20
-186.849
 11
115.464
 21
-186.062
  0
LINE
  8
0
 10
115.464
 20
-186.062
 11
108.712
 21
-185.582
  0
LINE
  8
0
 10
108.712
 20
-185.582
 11
101.595
 21
-185.42
  0
LINE
  8
0
 10
101.595
 20
-185.42
 11
94.4783
 21
-185.582
  0
LINE
  8
0
 10
94.4783
 20
-185.582
 11
87.7261
 21
-186.062
  0
LINE
  8
0
 10
87.7261
 20
-186.062
 11
81.3182
 21
-186.849
  0
LINE
  8
0
 10
81.3182
 20
-186.849
 11
75.2288
 21
-187.933
  0
LINE
  8
0
 10
75.2288
 20
-187.933
 11
69.4315
 21
-189.305
  0
LINE
  8
0
 10
69.4315
 20
-189.305
 11
63.8998
 21
-190.957
  0
LINE
  8
0
 10
63.8998
 20
-190.957
 11
58.6069
 21
-192.879
  0
LINE
  8
0
 10
58.6069
 20
-192.879
 11
53.5266
 21
-195.065
  0
LINE
  8
0
 10
53.5266
 20
-195.065
 11
48.633
 21
-197.505
  0
LINE
  8
0
 10
48.633
 20
-197.505
 11
43.9014
 21
-200.192
  0
LINE
  8
0
 10
43.9014
 20
-200.192
 11
39.3081
 21
-203.118
  0
LINE
  8
0
 10
39.3081
 20
-203.118
 11
34.8312
 21
-206.274
  0
LINE
  8
0
 10
34.8312
 20
-206.274
 11
30.4506
 21
-209.654
  0
LINE
  8
0
 10
30.4506
 20
-209.654
 11
26.1481
 21
-213.247
  0
LINE
  8
0
 10
26.1481
 20
-213.247
 11
21.9077
 21
-217.046
  0
LINE
  8
0
 10
21.9077
 20
-217.046
 11
17.7157
 21
-221.041
  0
LINE
  8
0
 10
17.7157
 20
-221.041
 11
13.5603
 21
-225.224
  0
LINE
  8
0
 10
13.5603
 20
-225.224
 11
9.43214
 21
-229.584
  0
LINE
  8
0
 10
9.43214
 20
-229.584
 11
5.32358
 21
-234.111
  0
LINE
  8
0
 10
5.32358
 20
-234.111
 11
1.22891
 21
-238.795
  0
LINE
  8
0
 10
1.22891
 20
-238.795
 11
2.70461
 21
-233.659
  0
LINE
  8
0
 10
2.70461
 20
-233.659
 11
4.49149
 21
-227.873
  0
LINE
  8
0
 10
4.49149
 20
-227.873
 11
6.57976
 21
-221.541
  0
LINE
  8
0
 10
6.57976
 20
-221.541
 11
8.96268
 21
-214.769
  0
LINE
  8
0
 10
8.96268
 20
-214.769
 11
11.637
 21
-207.658
  0
LINE
  8
0
 10
11.637
 20
-207.658
 11
14.6035
 21
-200.311
  0
LINE
  8
0
 10
14.6035
 20
-200.311
 11
17.868
 21
-192.83
  0
LINE
  8
0
 10
17.868
 20
-192.83
 11
21.4416
 21
-185.314
  0
LINE
  8
0
 10
21.4416
 20
-185.314
 11
25.3414
 21
-177.861
  0
LINE
  8
0
 10
25.3414
 20
-177.861
 11
29.5914
 21
-170.568
  0
LINE
  8
0
 10
29.5914
 20
-170.568
 11
34.2228
 21
-163.532
  0
LINE
  8
0
 10
34.2228
 20
-163.532
 11
39.274
 21
-156.845
  0
LINE
  8
0
 10
39.274
 20
-156.845
 11
44.7912
 21
-150.601
  0
LINE
  8
0
 10
44.7912
 20
-150.601
 11
50.8273
 21
-144.892
  0
LINE
  8
0
 10
50.8273
 20
-144.892
 11
57.4418
 21
-139.81
  0
LINE
  8
0
 10
57.4418
 20
-139.81
 11
64.7
 21
-135.446
  0
LINE
  8
0
 10
64.7
 20
-135.446
 11
72.6711
 21
-131.89
  0
LINE
  8
0
 10
72.6711
 20
-131.89
 11
81.4281
 21
-129.236
  0
LINE
  8
0
 10
81.4281
 20
-129.236
 11
91.0458
 21
-127.575
  0
LINE
  8
0
 10
91.0458
 20
-127.575
 11
101.59
 21
-127.001
  0
LINE
  8
0
 10
101.59
 20
-127.001
 11
112.144
 21
-127.575
  0
LINE
  8
0
 10
112.144
 20
-127.575
 11
121.762
 21
-129.236
  0
LINE
  8
0
 10
121.762
 20
-129.236
 11
130.519
 21
-131.89
  0
LINE
  8
0
 10
130.519
 20
-131.89
 11
138.49
 21
-135.446
  0
LINE
  8
0
 10
138.49
 20
-135.446
 11
145.748
 21
-139.81
  0
LINE
  8
0
 10
145.748
 20
-139.81
 11
152.363
 21
-144.892
  0
LINE
  8
0
 10
152.363
 20
-144.892
 11
158.399
 21
-150.601
  0
LINE
  8
0
 10
158.399
 20
-150.601
 11
163.916
 21
-156.845
  0
LINE
  8
0
 10
163.916
 20
-156.845
 11
168.967
 21
-163.532
  0
LINE
  8
0
 10
168.967
 20
-163.532
 11
173.599
 21
-170.568
  0
LINE
  8
0
 10
173.599
 20
-170.568
 11
177.849
 21
-177.861
  0
LINE
  8
0
 10
177.849
 20
-177.861
 11
181.748
 21
-185.314
  0
LINE
  8
0
 10
181.748
 20
-185.314
 11
185.322
 21
-192.83
  0
LINE
  8
0
 10
185.322
 20
-192.83
 11
188.586
 21
-200.311
  0
LINE
  8
0
 10
188.586
 20
-200.311
 11
191.553
 21
-207.658
  0
LINE
  8
0
 10
191.553
 20
-207.658
 11
194.227
 21
-214.769
  0
LINE
  8
0
 10
194.227
 20
-214.769
 11
196.61
 21
-221.541
  0
LINE
  8
0
 10
196.61
 20
-221.541
 11
198.698
 21
-227.873
  0
LINE
  8
0
 10
198.698
 20
-227.873
 11
200.485
 21
-233.659
  0
LINE
  8
0
 10
200.485
 20
-233.659
 11
201.961
 21
-238.795
  0
LINE
  8
0
 10
201.961
 20
-238.795
 11
197.866
 21
-234.111
  0
ENDSEC
  0
SECTION
  2
OBJECTS
  0
DICTIONARY
  0
ENDSEC
  0
EOF
