  0
SECTION
  2
BLOCKS
  0
ENDSEC
  0
SECTION
  2
ENTITIES
  0
LINE
  8
0
 10
157.047
 20
263.263
 11
157.444
 21
263.272
  0
LINE
  8
0
 10
157.444
 20
263.272
 11
157.775
 21
263.288
  0
LINE
  8
0
 10
157.775
 20
263.288
 11
165.567
 21
263.874
  0
LINE
  8
0
 10
165.567
 20
263.874
 11
165.93
 21
263.912
  0
LINE
  8
0
 10
165.93
 20
263.912
 11
173.191
 21
264.881
  0
LINE
  8
0
 10
173.191
 20
264.881
 11
173.587
 21
264.947
  0
LINE
  8
0
 10
173.587
 20
264.947
 11
180.333
 21
266.286
  0
LINE
  8
0
 10
180.333
 20
266.286
 11
180.761
 21
266.386
  0
LINE
  8
0
 10
180.761
 20
266.386
 11
187.008
 21
268.083
  0
LINE
  8
0
 10
187.008
 20
268.083
 11
187.465
 21
268.226
  0
LINE
  8
0
 10
187.465
 20
268.226
 11
193.229
 21
270.268
  0
LINE
  8
0
 10
193.229
 20
270.268
 11
193.707
 21
270.459
  0
LINE
  8
0
 10
193.707
 20
270.459
 11
199.004
 21
272.835
  0
LINE
  8
0
 10
199.004
 20
272.835
 11
199.494
 21
273.081
  0
LINE
  8
0
 10
199.494
 20
273.081
 11
204.341
 21
275.779
  0
LINE
  8
0
 10
204.341
 20
275.779
 11
204.829
 21
276.081
  0
LINE
  8
0
 10
204.829
 20
276.081
 11
209.242
 21
279.09
  0
LINE
  8
0
 10
209.242
 20
279.09
 11
209.715
 21
279.446
  0
LINE
  8
0
 10
209.715
 20
279.446
 11
213.711
 21
282.754
  0
LINE
  8
0
 10
213.711
 20
282.754
 11
214.153
 21
283.157
  0
LINE
  8
0
 10
214.153
 20
283.157
 11
217.747
 21
286.755
  0
LINE
  8
0
 10
217.747
 20
286.755
 11
218.146
 21
287.193
  0
LINE
  8
0
 10
218.146
 20
287.193
 11
221.356
 21
291.069
  0
LINE
  8
0
 10
221.356
 20
291.069
 11
221.702
 21
291.528
  0
LINE
  8
0
 10
221.702
 20
291.528
 11
224.545
 21
295.674
  0
LINE
  8
0
 10
224.545
 20
295.674
 11
224.835
 21
296.138
  0
LINE
  8
0
 10
224.835
 20
296.138
 11
227.328
 21
300.544
  0
LINE
  8
0
 10
227.328
 20
300.544
 11
227.562
 21
300.999
  0
LINE
  8
0
 10
227.562
 20
300.999
 11
229.722
 21
305.656
  0
LINE
  8
0
 10
229.722
 20
305.656
 11
229.904
 21
306.091
  0
LINE
  8
0
 10
229.904
 20
306.091
 11
231.749
 21
310.991
  0
LINE
  8
0
 10
231.749
 20
310.991
 11
231.886
 21
311.397
  0
LINE
  8
0
 10
231.886
 20
311.397
 11
233.433
 21
316.534
  0
LINE
  8
0
 10
233.433
 20
316.534
 11
233.533
 21
316.906
  0
LINE
  8
0
 10
233.533
 20
316.906
 11
234.8
 21
322.271
  0
LINE
  8
0
 10
234.8
 20
322.271
 11
234.869
 21
322.606
  0
LINE
  8
0
 10
234.869
 20
322.606
 11
235.874
 21
328.195
  0
LINE
  8
0
 10
235.874
 20
328.195
 11
235.92
 21
328.494
  0
LINE
  8
0
 10
235.92
 20
328.494
 11
236.681
 21
334.3
  0
LINE
  8
0
 10
236.681
 20
334.3
 11
236.706
 21
334.521
  0
LINE
  8
0
 10
236.706
 20
334.521
 11
237.086
 21
338.5
  0
LINE
  8
0
 10
237.086
 20
338.5
 11
237.099
 21
338.659
  0
LINE
  8
0
 10
237.099
 20
338.659
 11
237.385
 21
342.742
  0
LINE
  8
0
 10
237.385
 20
342.742
 11
237.394
 21
342.886
  0
LINE
  8
0
 10
237.394
 20
342.886
 11
237.591
 21
347.061
  0
LINE
  8
0
 10
237.591
 20
347.061
 11
237.596
 21
347.191
  0
LINE
  8
0
 10
237.596
 20
347.191
 11
237.71
 21
351.458
  0
LINE
  8
0
 10
237.71
 20
351.458
 11
237.712
 21
351.574
  0
LINE
  8
0
 10
237.712
 20
351.574
 11
237.748
 21
356.035
  0
LINE
  8
0
 10
237.748
 20
356.035
 11
237.71
 21
360.574
  0
LINE
  8
0
 10
237.71
 20
360.574
 11
237.606
 21
365.192
  0
LINE
  8
0
 10
237.606
 20
365.192
 11
237.439
 21
369.887
  0
LINE
  8
0
 10
237.439
 20
369.887
 11
237.218
 21
374.661
  0
LINE
  8
0
 10
237.218
 20
374.661
 11
236.947
 21
379.515
  0
LINE
  8
0
 10
236.947
 20
379.515
 11
236.633
 21
384.449
  0
LINE
  8
0
 10
236.633
 20
384.449
 11
236.282
 21
389.463
  0
LINE
  8
0
 10
236.282
 20
389.463
 11
235.9
 21
394.559
  0
LINE
  8
0
 10
235.9
 20
394.559
 11
235.492
 21
399.738
  0
LINE
  8
0
 10
235.492
 20
399.738
 11
235.065
 21
405
  0
LINE
  8
0
 10
235.065
 20
405
 11
234.176
 21
415.78
  0
LINE
  8
0
 10
234.176
 20
415.78
 11
233.726
 21
421.311
  0
LINE
  8
0
 10
233.726
 20
421.311
 11
233.28
 21
426.92
  0
LINE
  8
0
 10
233.28
 20
426.92
 11
232.838
 21
432.712
  0
LINE
  8
0
 10
232.838
 20
432.712
 11
232.174
 21
440.243
  0
LINE
  8
0
 10
232.174
 20
440.243
 11
232.16
 21
440.388
  0
LINE
  8
0
 10
232.16
 20
440.388
 11
231.321
 21
447.919
  0
LINE
  8
0
 10
231.321
 20
447.919
 11
230.377
 21
455.343
  0
LINE
  8
0
 10
230.377
 20
455.343
 11
229.387
 21
462.698
  0
LINE
  8
0
 10
229.387
 20
462.698
 11
228.403
 21
470.031
  0
LINE
  8
0
 10
228.403
 20
470.031
 11
227.481
 21
477.351
  0
LINE
  8
0
 10
227.481
 20
477.351
 11
226.67
 21
484.667
  0
LINE
  8
0
 10
226.67
 20
484.667
 11
226.011
 21
491.993
  0
LINE
  8
0
 10
226.011
 20
491.993
 11
225.545
 21
499.329
  0
LINE
  8
0
 10
225.545
 20
499.329
 11
225.305
 21
506.667
  0
LINE
  8
0
 10
225.305
 20
506.667
 11
225.32
 21
513.998
  0
LINE
  8
0
 10
225.32
 20
513.998
 11
225.619
 21
521.303
  0
LINE
  8
0
 10
225.619
 20
521.303
 11
226.226
 21
528.562
  0
LINE
  8
0
 10
226.226
 20
528.562
 11
227.165
 21
535.751
  0
LINE
  8
0
 10
227.165
 20
535.751
 11
228.457
 21
542.848
  0
LINE
  8
0
 10
228.457
 20
542.848
 11
230.123
 21
549.825
  0
LINE
  8
0
 10
230.123
 20
549.825
 11
232.184
 21
556.659
  0
LINE
  8
0
 10
232.184
 20
556.659
 11
234.658
 21
563.33
  0
LINE
  8
0
 10
234.658
 20
563.33
 11
237.567
 21
569.814
  0
LINE
  8
0
 10
237.567
 20
569.814
 11
241.045
 21
576.302
  0
LINE
  8
0
 10
241.045
 20
576.302
 11
241.698
 21
578.178
  0
LINE
  8
0
 10
241.698
 20
578.178
 11
241.74
 21
580.165
  0
LINE
  8
0
 10
241.74
 20
580.165
 11
241.165
 21
582.066
  0
LINE
  8
0
 10
241.165
 20
582.066
 11
240.031
 21
583.698
  0
LINE
  8
0
 10
240.031
 20
583.698
 11
238.651
 21
584.786
  0
LINE
  8
0
 10
238.651
 20
584.786
 11
204.806
 21
604.55
  0
LINE
  8
0
 10
204.806
 20
604.55
 11
202.955
 21
605.271
  0
LINE
  8
0
 10
202.955
 20
605.271
 11
200.972
 21
605.385
  0
LINE
  8
0
 10
200.972
 20
605.385
 11
199.05
 21
604.881
  0
LINE
  8
0
 10
199.05
 20
604.881
 11
197.379
 21
603.807
  0
LINE
  8
0
 10
197.379
 20
603.807
 11
196.105
 21
602.242
  0
LINE
  8
0
 10
196.105
 20
602.242
 11
190.515
 21
592.561
  0
LINE
  8
0
 10
190.515
 20
592.561
 11
185.332
 21
583.351
  0
LINE
  8
0
 10
185.332
 20
583.351
 11
180.545
 21
574.583
  0
LINE
  8
0
 10
180.545
 20
574.583
 11
176.198
 21
566.326
  0
LINE
  8
0
 10
176.198
 20
566.326
 11
176.144
 21
566.222
  0
LINE
  8
0
 10
176.144
 20
566.222
 11
172.184
 21
558.352
  0
LINE
  8
0
 10
172.184
 20
558.352
 11
172.123
 21
558.227
  0
LINE
  8
0
 10
172.123
 20
558.227
 11
168.542
 21
550.702
  0
LINE
  8
0
 10
168.542
 20
550.702
 11
168.473
 21
550.552
  0
LINE
  8
0
 10
168.473
 20
550.552
 11
165.261
 21
543.322
  0
LINE
  8
0
 10
165.261
 20
543.322
 11
165.186
 21
543.147
  0
LINE
  8
0
 10
165.186
 20
543.147
 11
162.329
 21
536.159
  0
LINE
  8
0
 10
162.329
 20
536.159
 11
162.252
 21
535.959
  0
LINE
  8
0
 10
162.252
 20
535.959
 11
159.735
 21
529.154
  0
LINE
  8
0
 10
159.735
 20
529.154
 11
159.658
 21
528.935
  0
LINE
  8
0
 10
159.658
 20
528.935
 11
157.459
 21
522.247
  0
LINE
  8
0
 10
157.459
 20
522.247
 11
157.388
 21
522.017
  0
LINE
  8
0
 10
157.388
 20
522.017
 11
155.48
 21
515.376
  0
LINE
  8
0
 10
155.48
 20
515.376
 11
155.419
 21
515.145
  0
LINE
  8
0
 10
155.419
 20
515.145
 11
153.772
 21
508.48
  0
LINE
  8
0
 10
153.772
 20
508.48
 11
153.722
 21
508.261
  0
LINE
  8
0
 10
153.722
 20
508.261
 11
152.4
 21
501.958
  0
LINE
  8
0
 10
152.4
 20
501.958
 11
151.078
 21
508.261
  0
LINE
  8
0
 10
151.078
 20
508.261
 11
151.028
 21
508.48
  0
LINE
  8
0
 10
151.028
 20
508.48
 11
149.381
 21
515.145
  0
LINE
  8
0
 10
149.381
 20
515.145
 11
149.32
 21
515.376
  0
LINE
  8
0
 10
149.32
 20
515.376
 11
147.412
 21
522.017
  0
LINE
  8
0
 10
147.412
 20
522.017
 11
147.341
 21
522.247
  0
LINE
  8
0
 10
147.341
 20
522.247
 11
145.142
 21
528.935
  0
LINE
  8
0
 10
145.142
 20
528.935
 11
145.065
 21
529.154
  0
LINE
  8
0
 10
145.065
 20
529.154
 11
142.548
 21
535.959
  0
LINE
  8
0
 10
142.548
 20
535.959
 11
142.47
 21
536.159
  0
LINE
  8
0
 10
142.47
 20
536.159
 11
139.614
 21
543.147
  0
LINE
  8
0
 10
139.614
 20
543.147
 11
139.539
 21
543.322
  0
LINE
  8
0
 10
139.539
 20
543.322
 11
136.327
 21
550.552
  0
LINE
  8
0
 10
136.327
 20
550.552
 11
136.258
 21
550.702
  0
LINE
  8
0
 10
136.258
 20
550.702
 11
132.677
 21
558.227
  0
LINE
  8
0
 10
132.677
 20
558.227
 11
132.616
 21
558.352
  0
LINE
  8
0
 10
132.616
 20
558.352
 11
128.656
 21
566.222
  0
LINE
  8
0
 10
128.656
 20
566.222
 11
128.602
 21
566.326
  0
LINE
  8
0
 10
128.602
 20
566.326
 11
124.209
 21
574.669
  0
LINE
  8
0
 10
124.209
 20
574.669
 11
119.429
 21
583.423
  0
LINE
  8
0
 10
119.429
 20
583.423
 11
114.25
 21
592.621
  0
LINE
  8
0
 10
114.25
 20
592.621
 11
108.695
 21
602.242
  0
LINE
  8
0
 10
108.695
 20
602.242
 11
107.445
 21
603.786
  0
LINE
  8
0
 10
107.445
 20
603.786
 11
105.778
 21
604.868
  0
LINE
  8
0
 10
105.778
 20
604.868
 11
103.859
 21
605.382
  0
LINE
  8
0
 10
103.859
 20
605.382
 11
101.875
 21
605.278
  0
LINE
  8
0
 10
101.875
 20
605.278
 11
99.9937
 21
604.55
  0
LINE
  8
0
 10
99.9937
 20
604.55
 11
66.1491
 21
584.786
  0
LINE
  8
0
 10
66.1491
 20
584.786
 11
64.6114
 21
583.528
  0
LINE
  8
0
 10
64.6114
 20
583.528
 11
63.5376
 21
581.856
  0
LINE
  8
0
 10
63.5376
 20
581.856
 11
63.0329
 21
579.935
  0
LINE
  8
0
 10
63.0329
 20
579.935
 11
63.1467
 21
577.951
  0
LINE
  8
0
 10
63.1467
 20
577.951
 11
63.7548
 21
576.302
  0
LINE
  8
0
 10
63.7548
 20
576.302
 11
67.233
 21
569.814
  0
LINE
  8
0
 10
67.233
 20
569.814
 11
70.1419
 21
563.33
  0
LINE
  8
0
 10
70.1419
 20
563.33
 11
72.6162
 21
556.659
  0
LINE
  8
0
 10
72.6162
 20
556.659
 11
74.6766
 21
549.825
  0
LINE
  8
0
 10
74.6766
 20
549.825
 11
76.3428
 21
542.848
  0
LINE
  8
0
 10
76.3428
 20
542.848
 11
77.6351
 21
535.751
  0
LINE
  8
0
 10
77.6351
 20
535.751
 11
78.5739
 21
528.562
  0
LINE
  8
0
 10
78.5739
 20
528.562
 11
79.1811
 21
521.303
  0
LINE
  8
0
 10
79.1811
 20
521.303
 11
79.4799
 21
513.998
  0
LINE
  8
0
 10
79.4799
 20
513.998
 11
79.4953
 21
506.667
  0
LINE
  8
0
 10
79.4953
 20
506.667
 11
79.2548
 21
499.329
  0
LINE
  8
0
 10
79.2548
 20
499.329
 11
78.7886
 21
491.993
  0
LINE
  8
0
 10
78.7886
 20
491.993
 11
78.1305
 21
484.667
  0
LINE
  8
0
 10
78.1305
 20
484.667
 11
77.3191
 21
477.351
  0
LINE
  8
0
 10
77.3191
 20
477.351
 11
76.3968
 21
470.031
  0
LINE
  8
0
 10
76.3968
 20
470.031
 11
75.4126
 21
462.695
  0
LINE
  8
0
 10
75.4126
 20
462.695
 11
74.4164
 21
455.295
  0
LINE
  8
0
 10
74.4164
 20
455.295
 11
73.4677
 21
447.821
  0
LINE
  8
0
 10
73.4677
 20
447.821
 11
72.6402
 21
440.388
  0
LINE
  8
0
 10
72.6402
 20
440.388
 11
72.6258
 21
440.243
  0
LINE
  8
0
 10
72.6258
 20
440.243
 11
71.9554
 21
432.637
  0
LINE
  8
0
 10
71.9554
 20
432.637
 11
71.5195
 21
426.92
  0
LINE
  8
0
 10
71.5195
 20
426.92
 11
71.0745
 21
421.311
  0
LINE
  8
0
 10
71.0745
 20
421.311
 11
70.624
 21
415.78
  0
LINE
  8
0
 10
70.624
 20
415.78
 11
69.7353
 21
405
  0
LINE
  8
0
 10
69.7353
 20
405
 11
69.3068
 21
399.722
  0
LINE
  8
0
 10
69.3068
 20
399.722
 11
68.8985
 21
394.536
  0
LINE
  8
0
 10
68.8985
 20
394.536
 11
68.5155
 21
389.431
  0
LINE
  8
0
 10
68.5155
 20
389.431
 11
68.164
 21
384.408
  0
LINE
  8
0
 10
68.164
 20
384.408
 11
67.8498
 21
379.465
  0
LINE
  8
0
 10
67.8498
 20
379.465
 11
67.5791
 21
374.602
  0
LINE
  8
0
 10
67.5791
 20
374.602
 11
67.3578
 21
369.817
  0
LINE
  8
0
 10
67.3578
 20
369.817
 11
67.1921
 21
365.111
  0
LINE
  8
0
 10
67.1921
 20
365.111
 11
67.0881
 21
360.482
  0
LINE
  8
0
 10
67.0881
 20
360.482
 11
67.052
 21
355.931
  0
LINE
  8
0
 10
67.052
 20
355.931
 11
67.0882
 21
351.574
  0
LINE
  8
0
 10
67.0882
 20
351.574
 11
67.0902
 21
351.458
  0
LINE
  8
0
 10
67.0902
 20
351.458
 11
67.2041
 21
347.191
  0
LINE
  8
0
 10
67.2041
 20
347.191
 11
67.2089
 21
347.061
  0
LINE
  8
0
 10
67.2089
 20
347.061
 11
67.4063
 21
342.886
  0
LINE
  8
0
 10
67.4063
 20
342.886
 11
67.4148
 21
342.742
  0
LINE
  8
0
 10
67.4148
 20
342.742
 11
67.7012
 21
338.659
  0
LINE
  8
0
 10
67.7012
 20
338.659
 11
67.7144
 21
338.5
  0
LINE
  8
0
 10
67.7144
 20
338.5
 11
68.0944
 21
334.521
  0
LINE
  8
0
 10
68.0944
 20
334.521
 11
68.1193
 21
334.3
  0
LINE
  8
0
 10
68.1193
 20
334.3
 11
68.8795
 21
328.494
  0
LINE
  8
0
 10
68.8795
 20
328.494
 11
68.926
 21
328.195
  0
LINE
  8
0
 10
68.926
 20
328.195
 11
69.9307
 21
322.606
  0
LINE
  8
0
 10
69.9307
 20
322.606
 11
70.0004
 21
322.271
  0
LINE
  8
0
 10
70.0004
 20
322.271
 11
71.2671
 21
316.906
  0
LINE
  8
0
 10
71.2671
 20
316.906
 11
71.3669
 21
316.534
  0
LINE
  8
0
 10
71.3669
 20
316.534
 11
72.9136
 21
311.397
  0
LINE
  8
0
 10
72.9136
 20
311.397
 11
73.051
 21
310.991
  0
LINE
  8
0
 10
73.051
 20
310.991
 11
74.8955
 21
306.091
  0
LINE
  8
0
 10
74.8955
 20
306.091
 11
75.0779
 21
305.656
  0
LINE
  8
0
 10
75.0779
 20
305.656
 11
77.2379
 21
300.999
  0
LINE
  8
0
 10
77.2379
 20
300.999
 11
77.4718
 21
300.544
  0
LINE
  8
0
 10
77.4718
 20
300.544
 11
79.9648
 21
296.138
  0
LINE
  8
0
 10
79.9648
 20
296.138
 11
80.2545
 21
295.674
  0
LINE
  8
0
 10
80.2545
 20
295.674
 11
83.0976
 21
291.528
  0
LINE
  8
0
 10
83.0976
 20
291.528
 11
83.4438
 21
291.069
  0
LINE
  8
0
 10
83.4438
 20
291.069
 11
86.6542
 21
287.193
  0
LINE
  8
0
 10
86.6542
 20
287.193
 11
87.0527
 21
286.755
  0
LINE
  8
0
 10
87.0527
 20
286.755
 11
90.6473
 21
283.157
  0
LINE
  8
0
 10
90.6473
 20
283.157
 11
91.0894
 21
282.754
  0
LINE
  8
0
 10
91.0894
 20
282.754
 11
95.0848
 21
279.446
  0
LINE
  8
0
 10
95.0848
 20
279.446
 11
95.5576
 21
279.09
  0
LINE
  8
0
 10
95.5576
 20
279.09
 11
99.9706
 21
276.081
  0
LINE
  8
0
 10
99.9706
 20
276.081
 11
100.459
 21
275.779
  0
LINE
  8
0
 10
100.459
 20
275.779
 11
105.306
 21
273.081
  0
LINE
  8
0
 10
105.306
 20
273.081
 11
105.796
 21
272.835
  0
LINE
  8
0
 10
105.796
 20
272.835
 11
111.093
 21
270.459
  0
LINE
  8
0
 10
111.093
 20
270.459
 11
111.571
 21
270.268
  0
LINE
  8
0
 10
111.571
 20
270.268
 11
117.335
 21
268.226
  0
LINE
  8
0
 10
117.335
 20
268.226
 11
117.792
 21
268.083
  0
LINE
  8
0
 10
117.792
 20
268.083
 11
124.039
 21
266.386
  0
LINE
  8
0
 10
124.039
 20
266.386
 11
124.467
 21
266.286
  0
LINE
  8
0
 10
124.467
 20
266.286
 11
131.213
 21
264.947
  0
LINE
  8
0
 10
131.213
 20
264.947
 11
131.609
 21
264.881
  0
LINE
  8
0
 10
131.609
 20
264.881
 11
138.87
 21
263.912
  0
LINE
  8
0
 10
138.87
 20
263.912
 11
139.233
 21
263.874
  0
LINE
  8
0
 10
139.233
 20
263.874
 11
147.025
 21
263.288
  0
LINE
  8
0
 10
147.025
 20
263.288
 11
147.356
 21
263.272
  0
LINE
  8
0
 10
147.356
 20
263.272
 11
147.887
 21
263.26
  0
LINE
  8
0
 10
147.887
 20
263.26
 11
149.105
 21
263.08
  0
LINE
  8
0
 10
149.105
 20
263.08
 11
152.4
 21
263.156
  0
LINE
  8
0
 10
152.4
 20
263.156
 11
155.695
 21
263.08
  0
LINE
  8
0
 10
155.695
 20
263.08
 11
157.047
 21
263.263
  0
LINE
  8
0
 10
152.4
 20
269.508
 11
148.959
 21
269.429
  0
LINE
  8
0
 10
148.959
 20
269.429
 11
148.959
 21
269.587
  0
LINE
  8
0
 10
148.959
 20
269.587
 11
147.502
 21
269.62
  0
LINE
  8
0
 10
147.502
 20
269.62
 11
139.71
 21
270.207
  0
LINE
  8
0
 10
139.71
 20
270.207
 11
132.449
 21
271.175
  0
LINE
  8
0
 10
132.449
 20
271.175
 11
125.703
 21
272.514
  0
LINE
  8
0
 10
125.703
 20
272.514
 11
119.456
 21
274.211
  0
LINE
  8
0
 10
119.456
 20
274.211
 11
113.692
 21
276.253
  0
LINE
  8
0
 10
113.692
 20
276.253
 11
108.395
 21
278.629
  0
LINE
  8
0
 10
108.395
 20
278.629
 11
103.548
 21
281.328
  0
LINE
  8
0
 10
103.548
 20
281.328
 11
99.1348
 21
284.336
  0
LINE
  8
0
 10
99.1348
 20
284.336
 11
95.1394
 21
287.645
  0
LINE
  8
0
 10
95.1394
 20
287.645
 11
91.5448
 21
291.243
  0
LINE
  8
0
 10
91.5448
 20
291.243
 11
88.3345
 21
295.119
  0
LINE
  8
0
 10
88.3345
 20
295.119
 11
85.4914
 21
299.265
  0
LINE
  8
0
 10
85.4914
 20
299.265
 11
82.9985
 21
303.671
  0
LINE
  8
0
 10
82.9985
 20
303.671
 11
80.8384
 21
308.328
  0
LINE
  8
0
 10
80.8384
 20
308.328
 11
78.9939
 21
313.228
  0
LINE
  8
0
 10
78.9939
 20
313.228
 11
77.4472
 21
318.365
  0
LINE
  8
0
 10
77.4472
 20
318.365
 11
76.1805
 21
323.73
  0
LINE
  8
0
 10
76.1805
 20
323.73
 11
75.1758
 21
329.318
  0
LINE
  8
0
 10
75.1758
 20
329.318
 11
74.4156
 21
335.124
  0
LINE
  8
0
 10
74.4156
 20
335.124
 11
74.0356
 21
339.103
  0
LINE
  8
0
 10
74.0356
 20
339.103
 11
73.7492
 21
343.186
  0
LINE
  8
0
 10
73.7492
 20
343.186
 11
73.5518
 21
347.361
  0
LINE
  8
0
 10
73.5518
 20
347.361
 11
73.4379
 21
351.627
  0
LINE
  8
0
 10
73.4379
 20
351.627
 11
73.4018
 21
355.984
  0
LINE
  8
0
 10
73.4018
 20
355.984
 11
73.4379
 21
360.431
  0
LINE
  8
0
 10
73.4379
 20
360.431
 11
73.5405
 21
364.967
  0
LINE
  8
0
 10
73.5405
 20
364.967
 11
73.7039
 21
369.593
  0
LINE
  8
0
 10
73.7039
 20
369.593
 11
73.9223
 21
374.308
  0
LINE
  8
0
 10
73.9223
 20
374.308
 11
74.19
 21
379.112
  0
LINE
  8
0
 10
74.19
 20
379.112
 11
74.5012
 21
384.005
  0
LINE
  8
0
 10
74.5012
 20
384.005
 11
74.85
 21
388.988
  0
LINE
  8
0
 10
74.85
 20
388.988
 11
75.2307
 21
394.061
  0
LINE
  8
0
 10
75.2307
 20
394.061
 11
75.6372
 21
399.224
  0
LINE
  8
0
 10
75.6372
 20
399.224
 11
76.0638
 21
404.478
  0
LINE
  8
0
 10
76.0638
 20
404.478
 11
76.953
 21
415.265
  0
LINE
  8
0
 10
76.953
 20
415.265
 11
77.4038
 21
420.798
  0
LINE
  8
0
 10
77.4038
 20
420.798
 11
77.8505
 21
426.428
  0
LINE
  8
0
 10
77.8505
 20
426.428
 11
78.2871
 21
432.154
  0
LINE
  8
0
 10
78.2871
 20
432.154
 11
78.9513
 21
439.686
  0
LINE
  8
0
 10
78.9513
 20
439.686
 11
79.7787
 21
447.119
  0
LINE
  8
0
 10
79.7787
 20
447.119
 11
80.7157
 21
454.495
  0
LINE
  8
0
 10
80.7157
 20
454.495
 11
81.7062
 21
461.85
  0
LINE
  8
0
 10
81.7062
 20
461.85
 11
82.694
 21
469.213
  0
LINE
  8
0
 10
82.694
 20
469.213
 11
83.6251
 21
476.603
  0
LINE
  8
0
 10
83.6251
 20
476.603
 11
84.4491
 21
484.034
  0
LINE
  8
0
 10
84.4491
 20
484.034
 11
85.1206
 21
491.508
  0
LINE
  8
0
 10
85.1206
 20
491.508
 11
85.5982
 21
499.023
  0
LINE
  8
0
 10
85.5982
 20
499.023
 11
85.8456
 21
506.57
  0
LINE
  8
0
 10
85.8456
 20
506.57
 11
85.8296
 21
514.135
  0
LINE
  8
0
 10
85.8296
 20
514.135
 11
85.5202
 21
521.698
  0
LINE
  8
0
 10
85.5202
 20
521.698
 11
84.8895
 21
529.238
  0
LINE
  8
0
 10
84.8895
 20
529.238
 11
83.9109
 21
536.732
  0
LINE
  8
0
 10
83.9109
 20
536.732
 11
82.5592
 21
544.155
  0
LINE
  8
0
 10
82.5592
 20
544.155
 11
80.8098
 21
551.48
  0
LINE
  8
0
 10
80.8098
 20
551.48
 11
78.6387
 21
558.682
  0
LINE
  8
0
 10
78.6387
 20
558.682
 11
76.022
 21
565.736
  0
LINE
  8
0
 10
76.022
 20
565.736
 11
72.9352
 21
572.617
  0
LINE
  8
0
 10
72.9352
 20
572.617
 11
69.3513
 21
579.302
  0
LINE
  8
0
 10
69.3513
 20
579.302
 11
103.196
 21
599.067
  0
LINE
  8
0
 10
103.196
 20
599.067
 11
108.751
 21
589.446
  0
LINE
  8
0
 10
108.751
 20
589.446
 11
113.895
 21
580.308
  0
LINE
  8
0
 10
113.895
 20
580.308
 11
118.636
 21
571.626
  0
LINE
  8
0
 10
118.636
 20
571.626
 11
122.983
 21
563.368
  0
LINE
  8
0
 10
122.983
 20
563.368
 11
126.943
 21
555.498
  0
LINE
  8
0
 10
126.943
 20
555.498
 11
130.524
 21
547.973
  0
LINE
  8
0
 10
130.524
 20
547.973
 11
133.736
 21
540.744
  0
LINE
  8
0
 10
133.736
 20
540.744
 11
136.593
 21
533.757
  0
LINE
  8
0
 10
136.593
 20
533.757
 11
139.11
 21
526.951
  0
LINE
  8
0
 10
139.11
 20
526.951
 11
141.309
 21
520.263
  0
LINE
  8
0
 10
141.309
 20
520.263
 11
143.217
 21
513.623
  0
LINE
  8
0
 10
143.217
 20
513.623
 11
144.863
 21
506.957
  0
LINE
  8
0
 10
144.863
 20
506.957
 11
146.282
 21
500.193
  0
LINE
  8
0
 10
146.282
 20
500.193
 11
147.507
 21
493.257
  0
LINE
  8
0
 10
147.507
 20
493.257
 11
148.572
 21
486.079
  0
LINE
  8
0
 10
148.572
 20
486.079
 11
149.507
 21
478.593
  0
LINE
  8
0
 10
149.507
 20
478.593
 11
150.34
 21
470.741
  0
LINE
  8
0
 10
150.34
 20
470.741
 11
151.09
 21
462.469
  0
LINE
  8
0
 10
151.09
 20
462.469
 11
151.774
 21
453.731
  0
LINE
  8
0
 10
151.774
 20
453.731
 11
152.4
 21
444.514
  0
LINE
  8
0
 10
152.4
 20
444.514
 11
153.026
 21
453.731
  0
LINE
  8
0
 10
153.026
 20
453.731
 11
153.71
 21
462.469
  0
LINE
  8
0
 10
153.71
 20
462.469
 11
154.46
 21
470.741
  0
LINE
  8
0
 10
154.46
 20
470.741
 11
155.293
 21
478.593
  0
LINE
  8
0
 10
155.293
 20
478.593
 11
156.228
 21
486.079
  0
LINE
  8
0
 10
156.228
 20
486.079
 11
157.293
 21
493.257
  0
LINE
  8
0
 10
157.293
 20
493.257
 11
158.518
 21
500.193
  0
LINE
  8
0
 10
158.518
 20
500.193
 11
159.937
 21
506.957
  0
LINE
  8
0
 10
159.937
 20
506.957
 11
161.583
 21
513.623
  0
LINE
  8
0
 10
161.583
 20
513.623
 11
163.491
 21
520.263
  0
LINE
  8
0
 10
163.491
 20
520.263
 11
165.69
 21
526.951
  0
LINE
  8
0
 10
165.69
 20
526.951
 11
168.207
 21
533.757
  0
LINE
  8
0
 10
168.207
 20
533.757
 11
171.064
 21
540.744
  0
LINE
  8
0
 10
171.064
 20
540.744
 11
174.276
 21
547.973
  0
LINE
  8
0
 10
174.276
 20
547.973
 11
177.857
 21
555.498
  0
LINE
  8
0
 10
177.857
 20
555.498
 11
181.817
 21
563.368
  0
LINE
  8
0
 10
181.817
 20
563.368
 11
186.164
 21
571.626
  0
LINE
  8
0
 10
186.164
 20
571.626
 11
190.905
 21
580.308
  0
LINE
  8
0
 10
190.905
 20
580.308
 11
196.049
 21
589.446
  0
LINE
  8
0
 10
196.049
 20
589.446
 11
201.604
 21
599.067
  0
LINE
  8
0
 10
201.604
 20
599.067
 11
235.449
 21
579.302
  0
LINE
  8
0
 10
235.449
 20
579.302
 11
231.865
 21
572.617
  0
LINE
  8
0
 10
231.865
 20
572.617
 11
228.778
 21
565.736
  0
LINE
  8
0
 10
228.778
 20
565.736
 11
226.161
 21
558.682
  0
LINE
  8
0
 10
226.161
 20
558.682
 11
223.99
 21
551.48
  0
LINE
  8
0
 10
223.99
 20
551.48
 11
222.241
 21
544.155
  0
LINE
  8
0
 10
222.241
 20
544.155
 11
220.889
 21
536.732
  0
LINE
  8
0
 10
220.889
 20
536.732
 11
219.91
 21
529.238
  0
LINE
  8
0
 10
219.91
 20
529.238
 11
219.28
 21
521.698
  0
LINE
  8
0
 10
219.28
 20
521.698
 11
218.97
 21
514.135
  0
LINE
  8
0
 10
218.97
 20
514.135
 11
218.954
 21
506.57
  0
LINE
  8
0
 10
218.954
 20
506.57
 11
219.202
 21
499.023
  0
LINE
  8
0
 10
219.202
 20
499.023
 11
219.679
 21
491.508
  0
LINE
  8
0
 10
219.679
 20
491.508
 11
220.351
 21
484.034
  0
LINE
  8
0
 10
220.351
 20
484.034
 11
221.175
 21
476.603
  0
LINE
  8
0
 10
221.175
 20
476.603
 11
222.106
 21
469.213
  0
LINE
  8
0
 10
222.106
 20
469.213
 11
223.094
 21
461.851
  0
LINE
  8
0
 10
223.094
 20
461.851
 11
224.084
 21
454.495
  0
LINE
  8
0
 10
224.084
 20
454.495
 11
225.021
 21
447.119
  0
LINE
  8
0
 10
225.021
 20
447.119
 11
225.849
 21
439.686
  0
LINE
  8
0
 10
225.849
 20
439.686
 11
226.513
 21
432.154
  0
LINE
  8
0
 10
226.513
 20
432.154
 11
226.95
 21
426.428
  0
LINE
  8
0
 10
226.95
 20
426.428
 11
227.396
 21
420.799
  0
LINE
  8
0
 10
227.396
 20
420.799
 11
227.847
 21
415.265
  0
LINE
  8
0
 10
227.847
 20
415.265
 11
228.736
 21
404.478
  0
LINE
  8
0
 10
228.736
 20
404.478
 11
229.163
 21
399.224
  0
LINE
  8
0
 10
229.163
 20
399.224
 11
229.569
 21
394.061
  0
LINE
  8
0
 10
229.569
 20
394.061
 11
229.95
 21
388.988
  0
LINE
  8
0
 10
229.95
 20
388.988
 11
230.299
 21
384.005
  0
LINE
  8
0
 10
230.299
 20
384.005
 11
230.61
 21
379.112
  0
LINE
  8
0
 10
230.61
 20
379.112
 11
230.878
 21
374.308
  0
LINE
  8
0
 10
230.878
 20
374.308
 11
231.096
 21
369.593
  0
LINE
  8
0
 10
231.096
 20
369.593
 11
231.26
 21
364.967
  0
LINE
  8
0
 10
231.26
 20
364.967
 11
231.362
 21
360.431
  0
LINE
  8
0
 10
231.362
 20
360.431
 11
231.398
 21
355.984
  0
LINE
  8
0
 10
231.398
 20
355.984
 11
231.362
 21
351.627
  0
LINE
  8
0
 10
231.362
 20
351.627
 11
231.248
 21
347.361
  0
LINE
  8
0
 10
231.248
 20
347.361
 11
231.051
 21
343.186
  0
LINE
  8
0
 10
231.051
 20
343.186
 11
230.764
 21
339.103
  0
LINE
  8
0
 10
230.764
 20
339.103
 11
230.384
 21
335.124
  0
LINE
  8
0
 10
230.384
 20
335.124
 11
229.624
 21
329.318
  0
LINE
  8
0
 10
229.624
 20
329.318
 11
228.62
 21
323.73
  0
LINE
  8
0
 10
228.62
 20
323.73
 11
227.353
 21
318.365
  0
LINE
  8
0
 10
227.353
 20
318.365
 11
225.806
 21
313.228
  0
LINE
  8
0
 10
225.806
 20
313.228
 11
223.962
 21
308.328
  0
LINE
  8
0
 10
223.962
 20
308.328
 11
221.802
 21
303.671
  0
LINE
  8
0
 10
221.802
 20
303.671
 11
219.309
 21
299.265
  0
LINE
  8
0
 10
219.309
 20
299.265
 11
216.465
 21
295.119
  0
LINE
  8
0
 10
216.465
 20
295.119
 11
213.255
 21
291.243
  0
LINE
  8
0
 10
213.255
 20
291.243
 11
209.661
 21
287.645
  0
LINE
  8
0
 10
209.661
 20
287.645
 11
205.665
 21
284.336
  0
LINE
  8
0
 10
205.665
 20
284.336
 11
201.252
 21
281.328
  0
LINE
  8
0
 10
201.252
 20
281.328
 11
196.405
 21
278.629
  0
LINE
  8
0
 10
196.405
 20
278.629
 11
191.108
 21
276.253
  0
LINE
  8
0
 10
191.108
 20
276.253
 11
185.344
 21
274.211
  0
LINE
  8
0
 10
185.344
 20
274.211
 11
179.097
 21
272.514
  0
LINE
  8
0
 10
179.097
 20
272.514
 11
172.351
 21
271.175
  0
LINE
  8
0
 10
172.351
 20
271.175
 11
165.09
 21
270.207
  0
LINE
  8
0
 10
165.09
 20
270.207
 11
157.298
 21
269.62
  0
LINE
  8
0
 10
157.298
 20
269.62
 11
155.841
 21
269.587
  0
LINE
  8
0
 10
155.841
 20
269.587
 11
155.841
 21
269.429
  0
LINE
  8
0
 10
155.841
 20
269.429
 11
152.4
 21
269.508
  0
LINE
  8
0
 10
53.1233
 20
6.1554
 11
53.6502
 21
6.25824
  0
LINE
  8
0
 10
53.6502
 20
6.25824
 11
60.9847
 21
8.01454
  0
LINE
  8
0
 10
60.9847
 20
8.01454
 11
61.4838
 21
8.15585
  0
LINE
  8
0
 10
61.4838
 20
8.15585
 11
68.6331
 21
10.4993
  0
LINE
  8
0
 10
68.6331
 20
10.4993
 11
69.1003
 21
10.673
  0
LINE
  8
0
 10
69.1003
 20
10.673
 11
76.0426
 21
13.5695
  0
LINE
  8
0
 10
76.0426
 20
13.5695
 11
76.4764
 21
13.7699
  0
LINE
  8
0
 10
76.4764
 20
13.7699
 11
83.1892
 21
17.1844
  0
LINE
  8
0
 10
83.1892
 20
17.1844
 11
83.5903
 21
17.407
  0
LINE
  8
0
 10
83.5903
 20
17.407
 11
90.0505
 21
21.304
  0
LINE
  8
0
 10
90.0505
 20
21.304
 11
90.4206
 21
21.5451
  0
LINE
  8
0
 10
90.4206
 20
21.5451
 11
96.605
 21
25.8893
  0
LINE
  8
0
 10
96.605
 20
25.8893
 11
96.9465
 21
26.1468
  0
LINE
  8
0
 10
96.9465
 20
26.1468
 11
102.831
 21
30.9031
  0
LINE
  8
0
 10
102.831
 20
30.9031
 11
103.147
 21
31.176
  0
LINE
  8
0
 10
103.147
 20
31.176
 11
108.709
 21
36.3105
  0
LINE
  8
0
 10
108.709
 20
36.3105
 11
109.002
 21
36.5986
  0
LINE
  8
0
 10
109.002
 20
36.5986
 11
114.216
 21
42.0782
  0
LINE
  8
0
 10
114.216
 20
42.0782
 11
114.488
 21
42.3827
  0
LINE
  8
0
 10
114.488
 20
42.3827
 11
119.332
 21
48.1757
  0
LINE
  8
0
 10
119.332
 20
48.1757
 11
119.584
 21
48.4982
  0
LINE
  8
0
 10
119.584
 20
48.4982
 11
124.032
 21
54.5749
  0
LINE
  8
0
 10
124.032
 20
54.5749
 11
124.266
 21
54.9176
  0
LINE
  8
0
 10
124.266
 20
54.9176
 11
128.293
 21
61.2497
  0
LINE
  8
0
 10
128.293
 20
61.2497
 11
128.509
 21
61.6152
  0
LINE
  8
0
 10
128.509
 20
61.6152
 11
132.091
 21
68.177
  0
LINE
  8
0
 10
132.091
 20
68.177
 11
132.287
 21
68.5678
  0
LINE
  8
0
 10
132.287
 20
68.5678
 11
135.397
 21
75.3361
  0
LINE
  8
0
 10
135.397
 20
75.3361
 11
135.572
 21
75.7543
  0
LINE
  8
0
 10
135.572
 20
75.7543
 11
138.184
 21
82.7083
  0
LINE
  8
0
 10
138.184
 20
82.7083
 11
138.334
 21
83.1552
  0
LINE
  8
0
 10
138.334
 20
83.1552
 11
140.422
 21
90.2771
  0
LINE
  8
0
 10
140.422
 20
90.2771
 11
140.541
 21
90.7524
  0
LINE
  8
0
 10
140.541
 20
90.7524
 11
142.077
 21
98.0279
  0
LINE
  8
0
 10
142.077
 20
98.0279
 11
142.162
 21
98.5289
  0
LINE
  8
0
 10
142.162
 20
98.5289
 11
143.116
 21
105.947
  0
LINE
  8
0
 10
143.116
 20
105.947
 11
143.161
 21
106.468
  0
LINE
  8
0
 10
143.161
 20
106.468
 11
143.505
 21
114.021
  0
LINE
  8
0
 10
143.505
 20
114.021
 11
143.468
 21
114.35
  0
LINE
  8
0
 10
143.468
 20
114.35
 11
143.504
 21
114.35
  0
LINE
  8
0
 10
143.504
 20
114.35
 11
143.469
 21
120.09
  0
LINE
  8
0
 10
143.469
 20
120.09
 11
143.467
 21
120.221
  0
LINE
  8
0
 10
143.467
 20
120.221
 11
143.315
 21
125.866
  0
LINE
  8
0
 10
143.315
 20
125.866
 11
143.311
 21
125.996
  0
LINE
  8
0
 10
143.311
 20
125.996
 11
143.049
 21
131.542
  0
LINE
  8
0
 10
143.049
 20
131.542
 11
143.042
 21
131.669
  0
LINE
  8
0
 10
143.042
 20
131.669
 11
142.675
 21
137.115
  0
LINE
  8
0
 10
142.675
 20
137.115
 11
142.665
 21
137.241
  0
LINE
  8
0
 10
142.665
 20
137.241
 11
142.198
 21
142.585
  0
LINE
  8
0
 10
142.198
 20
142.585
 11
142.186
 21
142.71
  0
LINE
  8
0
 10
142.186
 20
142.71
 11
141.623
 21
147.951
  0
LINE
  8
0
 10
141.623
 20
147.951
 11
141.609
 21
148.074
  0
LINE
  8
0
 10
141.609
 20
148.074
 11
140.957
 21
153.212
  0
LINE
  8
0
 10
140.957
 20
153.212
 11
140.94
 21
153.332
  0
LINE
  8
0
 10
140.94
 20
153.332
 11
140.203
 21
158.365
  0
LINE
  8
0
 10
140.203
 20
158.365
 11
140.184
 21
158.484
  0
LINE
  8
0
 10
140.184
 20
158.484
 11
139.367
 21
163.412
  0
LINE
  8
0
 10
139.367
 20
163.412
 11
139.347
 21
163.529
  0
LINE
  8
0
 10
139.347
 20
163.529
 11
138.454
 21
168.35
  0
LINE
  8
0
 10
138.454
 20
168.35
 11
138.432
 21
168.465
  0
LINE
  8
0
 10
138.432
 20
168.465
 11
137.468
 21
173.179
  0
LINE
  8
0
 10
137.468
 20
173.179
 11
137.444
 21
173.293
  0
LINE
  8
0
 10
137.444
 20
173.293
 11
136.415
 21
177.899
  0
LINE
  8
0
 10
136.415
 20
177.899
 11
136.389
 21
178.011
  0
LINE
  8
0
 10
136.389
 20
178.011
 11
135.271
 21
182.619
  0
LINE
  8
0
 10
135.271
 20
182.619
 11
134.093
 21
187.117
  0
LINE
  8
0
 10
134.093
 20
187.117
 11
132.862
 21
191.506
  0
LINE
  8
0
 10
132.862
 20
191.506
 11
131.579
 21
195.785
  0
LINE
  8
0
 10
131.579
 20
195.785
 11
130.25
 21
199.956
  0
LINE
  8
0
 10
130.25
 20
199.956
 11
128.878
 21
204.019
  0
LINE
  8
0
 10
128.878
 20
204.019
 11
127.466
 21
207.975
  0
LINE
  8
0
 10
127.466
 20
207.975
 11
126.059
 21
211.716
  0
LINE
  8
0
 10
126.059
 20
211.716
 11
126.034
 21
211.707
  0
LINE
  8
0
 10
126.034
 20
211.707
 11
126.012
 21
211.843
  0
LINE
  8
0
 10
126.012
 20
211.843
 11
123.836
 21
217.279
  0
LINE
  8
0
 10
123.836
 20
217.279
 11
123.775
 21
217.426
  0
LINE
  8
0
 10
123.775
 20
217.426
 11
121.532
 21
222.642
  0
LINE
  8
0
 10
121.532
 20
222.642
 11
121.467
 21
222.789
  0
LINE
  8
0
 10
121.467
 20
222.789
 11
119.163
 21
227.797
  0
LINE
  8
0
 10
119.163
 20
227.797
 11
119.094
 21
227.943
  0
LINE
  8
0
 10
119.094
 20
227.943
 11
116.728
 21
232.758
  0
LINE
  8
0
 10
116.728
 20
232.758
 11
116.655
 21
232.903
  0
LINE
  8
0
 10
116.655
 20
232.903
 11
114.226
 21
237.542
  0
LINE
  8
0
 10
114.226
 20
237.542
 11
114.148
 21
237.685
  0
LINE
  8
0
 10
114.148
 20
237.685
 11
111.651
 21
242.171
  0
LINE
  8
0
 10
111.651
 20
242.171
 11
111.57
 21
242.312
  0
LINE
  8
0
 10
111.57
 20
242.312
 11
108.995
 21
246.67
  0
LINE
  8
0
 10
108.995
 20
246.67
 11
108.911
 21
246.807
  0
LINE
  8
0
 10
108.911
 20
246.807
 11
106.246
 21
251.069
  0
LINE
  8
0
 10
106.246
 20
251.069
 11
106.162
 21
251.199
  0
LINE
  8
0
 10
106.162
 20
251.199
 11
103.391
 21
255.4
  0
LINE
  8
0
 10
103.391
 20
255.4
 11
103.31
 21
255.52
  0
LINE
  8
0
 10
103.31
 20
255.52
 11
100.413
 21
259.7
  0
LINE
  8
0
 10
100.413
 20
259.7
 11
100.337
 21
259.807
  0
LINE
  8
0
 10
100.337
 20
259.807
 11
97.2951
 21
264.009
  0
LINE
  8
0
 10
97.2951
 20
264.009
 11
97.227
 21
264.101
  0
LINE
  8
0
 10
97.227
 20
264.101
 11
93.9592
 21
268.446
  0
LINE
  8
0
 10
93.9592
 20
268.446
 11
90.5123
 21
272.889
  0
LINE
  8
0
 10
90.5123
 20
272.889
 11
86.8642
 21
277.478
  0
LINE
  8
0
 10
86.8642
 20
277.478
 11
82.9928
 21
282.26
  0
LINE
  8
0
 10
82.9928
 20
282.26
 11
78.8763
 21
287.283
  0
LINE
  8
0
 10
78.8763
 20
287.283
 11
74.4944
 21
292.594
  0
LINE
  8
0
 10
74.4944
 20
292.594
 11
69.8256
 21
298.239
  0
LINE
  8
0
 10
69.8256
 20
298.239
 11
64.8546
 21
304.255
  0
LINE
  8
0
 10
64.8546
 20
304.255
 11
59.5576
 21
310.691
  0
LINE
  8
0
 10
59.5576
 20
310.691
 11
58.0706
 21
312.009
  0
LINE
  8
0
 10
58.0706
 20
312.009
 11
56.2493
 21
312.802
  0
LINE
  8
0
 10
56.2493
 20
312.802
 11
54.2719
 21
312.994
  0
LINE
  8
0
 10
54.2719
 20
312.994
 11
52.3319
 21
312.566
  0
LINE
  8
0
 10
52.3319
 20
312.566
 11
50.6259
 21
311.564
  0
LINE
  8
0
 10
50.6259
 20
311.564
 11
5.46904
 21
274.5
  0
LINE
  8
0
 10
5.46904
 20
274.5
 11
4.14944
 21
273.015
  0
LINE
  8
0
 10
4.14944
 20
273.015
 11
3.35339
 21
271.194
  0
LINE
  8
0
 10
3.35339
 20
271.194
 11
3.15878
 21
269.217
  0
LINE
  8
0
 10
3.15878
 20
269.217
 11
3.58469
 21
267.277
  0
LINE
  8
0
 10
3.58469
 20
267.277
 11
4.50876
 21
265.663
  0
LINE
  8
0
 10
4.50876
 20
265.663
 11
8.83163
 21
260.173
  0
LINE
  8
0
 10
8.83163
 20
260.173
 11
12.6239
 21
254.908
  0
LINE
  8
0
 10
12.6239
 20
254.908
 11
15.9924
 21
249.752
  0
LINE
  8
0
 10
15.9924
 20
249.752
 11
18.9664
 21
244.685
  0
LINE
  8
0
 10
18.9664
 20
244.685
 11
21.5756
 21
239.686
  0
LINE
  8
0
 10
21.5756
 20
239.686
 11
23.8499
 21
234.732
  0
LINE
  8
0
 10
23.8499
 20
234.732
 11
25.8185
 21
229.798
  0
LINE
  8
0
 10
25.8185
 20
229.798
 11
27.5098
 21
224.859
  0
LINE
  8
0
 10
27.5098
 20
224.859
 11
28.9501
 21
219.889
  0
LINE
  8
0
 10
28.9501
 20
219.889
 11
30.1649
 21
214.866
  0
LINE
  8
0
 10
30.1649
 20
214.866
 11
31.1773
 21
209.768
  0
LINE
  8
0
 10
31.1773
 20
209.768
 11
32.0094
 21
204.578
  0
LINE
  8
0
 10
32.0094
 20
204.578
 11
32.6818
 21
199.282
  0
LINE
  8
0
 10
32.6818
 20
199.282
 11
33.2138
 21
193.869
  0
LINE
  8
0
 10
33.2138
 20
193.869
 11
33.6236
 21
188.331
  0
LINE
  8
0
 10
33.6236
 20
188.331
 11
33.9283
 21
182.664
  0
LINE
  8
0
 10
33.9283
 20
182.664
 11
34.1436
 21
176.868
  0
LINE
  8
0
 10
34.1436
 20
176.868
 11
34.2841
 21
170.943
  0
LINE
  8
0
 10
34.2841
 20
170.943
 11
34.3628
 21
164.89
  0
LINE
  8
0
 10
34.3628
 20
164.89
 11
34.3912
 21
158.759
  0
LINE
  8
0
 10
34.3912
 20
158.759
 11
34.3861
 21
158.732
  0
LINE
  8
0
 10
34.3861
 20
158.732
 11
34.3864
 21
157.164
  0
LINE
  8
0
 10
34.3864
 20
157.164
 11
34.384
 21
155.601
  0
LINE
  8
0
 10
34.384
 20
155.601
 11
34.3788
 21
154.028
  0
LINE
  8
0
 10
34.3788
 20
154.028
 11
34.3708
 21
152.448
  0
LINE
  8
0
 10
34.3708
 20
152.448
 11
34.3603
 21
150.853
  0
LINE
  8
0
 10
34.3603
 20
150.853
 11
34.3473
 21
149.264
  0
LINE
  8
0
 10
34.3473
 20
149.264
 11
34.3317
 21
147.67
  0
LINE
  8
0
 10
34.3317
 20
147.67
 11
34.3137
 21
146.055
  0
LINE
  8
0
 10
34.3137
 20
146.055
 11
34.2935
 21
144.452
  0
LINE
  8
0
 10
34.2935
 20
144.452
 11
34.271
 21
142.832
  0
LINE
  8
0
 10
34.271
 20
142.832
 11
34.2197
 21
139.572
  0
LINE
  8
0
 10
34.2197
 20
139.572
 11
34.161
 21
136.299
  0
LINE
  8
0
 10
34.161
 20
136.299
 11
34.0958
 21
133.004
  0
LINE
  8
0
 10
34.0958
 20
133.004
 11
34.025
 21
129.68
  0
LINE
  8
0
 10
34.025
 20
129.68
 11
33.95
 21
126.344
  0
LINE
  8
0
 10
33.95
 20
126.344
 11
33.9557
 21
126.302
  0
LINE
  8
0
 10
33.9557
 20
126.302
 11
33.8018
 21
118.971
  0
LINE
  8
0
 10
33.8018
 20
118.971
 11
33.682
 21
111.847
  0
LINE
  8
0
 10
33.682
 20
111.847
 11
33.599
 21
104.948
  0
LINE
  8
0
 10
33.599
 20
104.948
 11
33.5545
 21
98.2614
  0
LINE
  8
0
 10
33.5545
 20
98.2614
 11
33.5504
 21
91.772
  0
LINE
  8
0
 10
33.5504
 20
91.772
 11
33.5885
 21
85.4669
  0
LINE
  8
0
 10
33.5885
 20
85.4669
 11
33.6701
 21
79.3332
  0
LINE
  8
0
 10
33.6701
 20
79.3332
 11
33.7963
 21
73.359
  0
LINE
  8
0
 10
33.7963
 20
73.359
 11
33.9676
 21
67.5327
  0
LINE
  8
0
 10
33.9676
 20
67.5327
 11
34.1844
 21
61.8435
  0
LINE
  8
0
 10
34.1844
 20
61.8435
 11
34.446
 21
56.2814
  0
LINE
  8
0
 10
34.446
 20
56.2814
 11
34.7513
 21
50.837
  0
LINE
  8
0
 10
34.7513
 20
50.837
 11
35.0984
 21
45.5017
  0
LINE
  8
0
 10
35.0984
 20
45.5017
 11
35.4847
 21
40.2676
  0
LINE
  8
0
 10
35.4847
 20
40.2676
 11
35.9065
 21
35.1272
  0
LINE
  8
0
 10
35.9065
 20
35.1272
 11
36.3595
 21
30.074
  0
LINE
  8
0
 10
36.3595
 20
30.074
 11
36.8382
 21
25.1018
  0
LINE
  8
0
 10
36.8382
 20
25.1018
 11
37.3362
 21
20.2048
  0
LINE
  8
0
 10
37.3362
 20
20.2048
 11
37.8458
 21
15.3781
  0
LINE
  8
0
 10
37.8458
 20
15.3781
 11
38.3586
 21
10.6168
  0
LINE
  8
0
 10
38.3586
 20
10.6168
 11
38.8777
 21
8.69907
  0
LINE
  8
0
 10
38.8777
 20
8.69907
 11
39.964
 21
7.03563
  0
LINE
  8
0
 10
39.964
 20
7.03563
 11
41.5111
 21
5.78931
  0
LINE
  8
0
 10
41.5111
 20
5.78931
 11
43.3677
 21
5.08209
  0
LINE
  8
0
 10
43.3677
 20
5.08209
 11
45.6239
 21
5.01842
  0
LINE
  8
0
 10
45.6239
 20
5.01842
 11
53.1233
 21
6.1554
  0
LINE
  8
0
 10
44.1593
 20
16.058
 11
43.651
 21
20.8716
  0
LINE
  8
0
 10
43.651
 20
20.8716
 11
43.1557
 21
25.744
  0
LINE
  8
0
 10
43.1557
 20
25.744
 11
42.6803
 21
30.6824
  0
LINE
  8
0
 10
42.6803
 20
30.6824
 11
42.2312
 21
35.694
  0
LINE
  8
0
 10
42.2312
 20
35.694
 11
41.8134
 21
40.7867
  0
LINE
  8
0
 10
41.8134
 20
40.7867
 11
41.4312
 21
45.9688
  0
LINE
  8
0
 10
41.4312
 20
45.9688
 11
41.0879
 21
51.249
  0
LINE
  8
0
 10
41.0879
 20
51.249
 11
40.786
 21
56.6366
  0
LINE
  8
0
 10
40.786
 20
56.6366
 11
40.5274
 21
62.1415
  0
LINE
  8
0
 10
40.5274
 20
62.1415
 11
40.313
 21
67.7741
  0
LINE
  8
0
 10
40.313
 20
67.7741
 11
40.1435
 21
73.5455
  0
LINE
  8
0
 10
40.1435
 20
73.5455
 11
40.0187
 21
79.4671
  0
LINE
  8
0
 10
40.0187
 20
79.4671
 11
39.9379
 21
85.5511
  0
LINE
  8
0
 10
39.9379
 20
85.5511
 11
39.9003
 21
91.8102
  0
LINE
  8
0
 10
39.9003
 20
91.8102
 11
39.9045
 21
98.2573
  0
LINE
  8
0
 10
39.9045
 20
98.2573
 11
39.9488
 21
104.906
  0
LINE
  8
0
 10
39.9488
 20
104.906
 11
40.0316
 21
111.77
  0
LINE
  8
0
 10
40.0316
 20
111.77
 11
40.1509
 21
118.864
  0
LINE
  8
0
 10
40.1509
 20
118.864
 11
40.3049
 21
126.2
  0
LINE
  8
0
 10
40.3049
 20
126.2
 11
40.2984
 21
126.201
  0
LINE
  8
0
 10
40.2984
 20
126.201
 11
40.3736
 21
129.545
  0
LINE
  8
0
 10
40.3736
 20
129.545
 11
40.4444
 21
132.872
  0
LINE
  8
0
 10
40.4444
 20
132.872
 11
40.5099
 21
136.18
  0
LINE
  8
0
 10
40.5099
 20
136.18
 11
40.5689
 21
139.469
  0
LINE
  8
0
 10
40.5689
 20
139.469
 11
40.6203
 21
142.737
  0
LINE
  8
0
 10
40.6203
 20
142.737
 11
40.6429
 21
144.364
  0
LINE
  8
0
 10
40.6429
 20
144.364
 11
40.6633
 21
145.984
  0
LINE
  8
0
 10
40.6633
 20
145.984
 11
40.6814
 21
147.599
  0
LINE
  8
0
 10
40.6814
 20
147.599
 11
40.697
 21
149.208
  0
LINE
  8
0
 10
40.697
 20
149.208
 11
40.7102
 21
150.811
  0
LINE
  8
0
 10
40.7102
 20
150.811
 11
40.7207
 21
152.408
  0
LINE
  8
0
 10
40.7207
 20
152.408
 11
40.7287
 21
153.999
  0
LINE
  8
0
 10
40.7287
 20
153.999
 11
40.7339
 21
155.583
  0
LINE
  8
0
 10
40.7339
 20
155.583
 11
40.7364
 21
157.162
  0
LINE
  8
0
 10
40.7364
 20
157.162
 11
40.7361
 21
158.733
  0
LINE
  8
0
 10
40.7361
 20
158.733
 11
40.7414
 21
158.737
  0
LINE
  8
0
 10
40.7414
 20
158.737
 11
40.7126
 21
164.946
  0
LINE
  8
0
 10
40.7126
 20
164.946
 11
40.6331
 21
171.059
  0
LINE
  8
0
 10
40.6331
 20
171.059
 11
40.4908
 21
177.061
  0
LINE
  8
0
 10
40.4908
 20
177.061
 11
40.272
 21
182.953
  0
LINE
  8
0
 10
40.272
 20
182.953
 11
39.961
 21
188.736
  0
LINE
  8
0
 10
39.961
 20
188.736
 11
39.5408
 21
194.414
  0
LINE
  8
0
 10
39.5408
 20
194.414
 11
38.9926
 21
199.993
  0
LINE
  8
0
 10
38.9926
 20
199.993
 11
38.2958
 21
205.481
  0
LINE
  8
0
 10
38.2958
 20
205.481
 11
37.4286
 21
210.89
  0
LINE
  8
0
 10
37.4286
 20
210.89
 11
36.3677
 21
216.231
  0
LINE
  8
0
 10
36.3677
 20
216.231
 11
35.0888
 21
221.52
  0
LINE
  8
0
 10
35.0888
 20
221.52
 11
33.5664
 21
226.772
  0
LINE
  8
0
 10
33.5664
 20
226.772
 11
31.7749
 21
232.005
  0
LINE
  8
0
 10
31.7749
 20
232.005
 11
29.688
 21
237.235
  0
LINE
  8
0
 10
29.688
 20
237.235
 11
27.2793
 21
242.481
  0
LINE
  8
0
 10
27.2793
 20
242.481
 11
24.5226
 21
247.763
  0
LINE
  8
0
 10
24.5226
 20
247.763
 11
21.3918
 21
253.097
  0
LINE
  8
0
 10
21.3918
 20
253.097
 11
17.861
 21
258.502
  0
LINE
  8
0
 10
17.861
 20
258.502
 11
13.9047
 21
263.995
  0
LINE
  8
0
 10
13.9047
 20
263.995
 11
9.49774
 21
269.591
  0
LINE
  8
0
 10
9.49774
 20
269.591
 11
54.6546
 21
306.656
  0
LINE
  8
0
 10
54.6546
 20
306.656
 11
59.9553
 21
300.215
  0
LINE
  8
0
 10
59.9553
 20
300.215
 11
64.9325
 21
294.191
  0
LINE
  8
0
 10
64.9325
 20
294.191
 11
69.6014
 21
288.547
  0
LINE
  8
0
 10
69.6014
 20
288.547
 11
73.9784
 21
283.242
  0
LINE
  8
0
 10
73.9784
 20
283.242
 11
78.0811
 21
278.235
  0
LINE
  8
0
 10
78.0811
 20
278.235
 11
81.9286
 21
273.482
  0
LINE
  8
0
 10
81.9286
 20
273.482
 11
85.5416
 21
268.938
  0
LINE
  8
0
 10
85.5416
 20
268.938
 11
88.9418
 21
264.554
  0
LINE
  8
0
 10
88.9418
 20
264.554
 11
92.1515
 21
260.285
  0
LINE
  8
0
 10
92.1515
 20
260.285
 11
95.1936
 21
256.083
  0
LINE
  8
0
 10
95.1936
 20
256.083
 11
98.0902
 21
251.903
  0
LINE
  8
0
 10
98.0902
 20
251.903
 11
100.862
 21
247.702
  0
LINE
  8
0
 10
100.862
 20
247.702
 11
103.528
 21
243.44
  0
LINE
  8
0
 10
103.528
 20
243.44
 11
106.103
 21
239.081
  0
LINE
  8
0
 10
106.103
 20
239.081
 11
108.6
 21
234.596
  0
LINE
  8
0
 10
108.6
 20
234.596
 11
111.029
 21
229.958
  0
LINE
  8
0
 10
111.029
 20
229.958
 11
113.394
 21
225.143
  0
LINE
  8
0
 10
113.394
 20
225.143
 11
115.699
 21
220.135
  0
LINE
  8
0
 10
115.699
 20
220.135
 11
117.941
 21
214.918
  0
LINE
  8
0
 10
117.941
 20
214.918
 11
120.117
 21
209.482
  0
LINE
  8
0
 10
120.117
 20
209.482
 11
120.115
 21
209.481
  0
LINE
  8
0
 10
120.115
 20
209.481
 11
121.522
 21
205.74
  0
LINE
  8
0
 10
121.522
 20
205.74
 11
122.897
 21
201.885
  0
LINE
  8
0
 10
122.897
 20
201.885
 11
124.234
 21
197.925
  0
LINE
  8
0
 10
124.234
 20
197.925
 11
125.529
 21
193.859
  0
LINE
  8
0
 10
125.529
 20
193.859
 11
126.778
 21
189.685
  0
LINE
  8
0
 10
126.778
 20
189.685
 11
127.979
 21
185.403
  0
LINE
  8
0
 10
127.979
 20
185.403
 11
129.127
 21
181.013
  0
LINE
  8
0
 10
129.127
 20
181.013
 11
130.218
 21
176.514
  0
LINE
  8
0
 10
130.218
 20
176.514
 11
131.247
 21
171.908
  0
LINE
  8
0
 10
131.247
 20
171.908
 11
132.21
 21
167.194
  0
LINE
  8
0
 10
132.21
 20
167.194
 11
133.103
 21
162.373
  0
LINE
  8
0
 10
133.103
 20
162.373
 11
133.92
 21
157.445
  0
LINE
  8
0
 10
133.92
 20
157.445
 11
134.657
 21
152.412
  0
LINE
  8
0
 10
134.657
 20
152.412
 11
135.31
 21
147.274
  0
LINE
  8
0
 10
135.31
 20
147.274
 11
135.872
 21
142.032
  0
LINE
  8
0
 10
135.872
 20
142.032
 11
136.339
 21
136.688
  0
LINE
  8
0
 10
136.339
 20
136.688
 11
136.706
 21
131.242
  0
LINE
  8
0
 10
136.706
 20
131.242
 11
136.968
 21
125.696
  0
LINE
  8
0
 10
136.968
 20
125.696
 11
137.119
 21
120.051
  0
LINE
  8
0
 10
137.119
 20
120.051
 11
137.155
 21
114.311
  0
LINE
  8
0
 10
137.155
 20
114.311
 11
137.161
 21
114.31
  0
LINE
  8
0
 10
137.161
 20
114.31
 11
136.818
 21
106.757
  0
LINE
  8
0
 10
136.818
 20
106.757
 11
135.863
 21
99.339
  0
LINE
  8
0
 10
135.863
 20
99.339
 11
134.328
 21
92.0636
  0
LINE
  8
0
 10
134.328
 20
92.0636
 11
132.24
 21
84.9416
  0
LINE
  8
0
 10
132.24
 20
84.9416
 11
129.628
 21
77.9877
  0
LINE
  8
0
 10
129.628
 20
77.9877
 11
126.517
 21
71.2195
  0
LINE
  8
0
 10
126.517
 20
71.2195
 11
122.935
 21
64.6576
  0
LINE
  8
0
 10
122.935
 20
64.6576
 11
118.908
 21
58.3255
  0
LINE
  8
0
 10
118.908
 20
58.3255
 11
114.46
 21
52.2488
  0
LINE
  8
0
 10
114.46
 20
52.2488
 11
109.616
 21
46.4558
  0
LINE
  8
0
 10
109.616
 20
46.4558
 11
104.402
 21
40.9762
  0
LINE
  8
0
 10
104.402
 20
40.9762
 11
98.84
 21
35.8418
  0
LINE
  8
0
 10
98.84
 20
35.8418
 11
92.955
 21
31.0854
  0
LINE
  8
0
 10
92.955
 20
31.0854
 11
86.7706
 21
26.7413
  0
LINE
  8
0
 10
86.7706
 20
26.7413
 11
80.3103
 21
22.8443
  0
LINE
  8
0
 10
80.3103
 20
22.8443
 11
73.5975
 21
19.4298
  0
LINE
  8
0
 10
73.5975
 20
19.4298
 11
66.6552
 21
16.5334
  0
LINE
  8
0
 10
66.6552
 20
16.5334
 11
59.506
 21
14.19
  0
LINE
  8
0
 10
59.506
 20
14.19
 11
52.1715
 21
12.4337
  0
LINE
  8
0
 10
52.1715
 20
12.4337
 11
44.672
 21
11.2967
  0
LINE
  8
0
 10
44.672
 20
11.2967
 11
44.1593
 21
16.058
  0
LINE
  8
0
 10
261.432
 20
5.08209
 11
263.289
 21
5.78932
  0
LINE
  8
0
 10
263.289
 20
5.78932
 11
264.836
 21
7.03563
  0
LINE
  8
0
 10
264.836
 20
7.03563
 11
265.922
 21
8.69907
  0
LINE
  8
0
 10
265.922
 20
8.69907
 11
266.441
 21
10.6168
  0
LINE
  8
0
 10
266.441
 20
10.6168
 11
266.954
 21
15.3781
  0
LINE
  8
0
 10
266.954
 20
15.3781
 11
267.464
 21
20.2048
  0
LINE
  8
0
 10
267.464
 20
20.2048
 11
267.962
 21
25.1018
  0
LINE
  8
0
 10
267.962
 20
25.1018
 11
268.44
 21
30.074
  0
LINE
  8
0
 10
268.44
 20
30.074
 11
268.893
 21
35.1272
  0
LINE
  8
0
 10
268.893
 20
35.1272
 11
269.315
 21
40.2676
  0
LINE
  8
0
 10
269.315
 20
40.2676
 11
269.702
 21
45.5017
  0
LINE
  8
0
 10
269.702
 20
45.5017
 11
270.049
 21
50.837
  0
LINE
  8
0
 10
270.049
 20
50.837
 11
270.354
 21
56.2814
  0
LINE
  8
0
 10
270.354
 20
56.2814
 11
270.616
 21
61.8435
  0
LINE
  8
0
 10
270.616
 20
61.8435
 11
270.832
 21
67.5327
  0
LINE
  8
0
 10
270.832
 20
67.5327
 11
271.004
 21
73.359
  0
LINE
  8
0
 10
271.004
 20
73.359
 11
271.13
 21
79.3332
  0
LINE
  8
0
 10
271.13
 20
79.3332
 11
271.211
 21
85.4669
  0
LINE
  8
0
 10
271.211
 20
85.4669
 11
271.25
 21
91.772
  0
LINE
  8
0
 10
271.25
 20
91.772
 11
271.245
 21
98.2614
  0
LINE
  8
0
 10
271.245
 20
98.2614
 11
271.201
 21
104.948
  0
LINE
  8
0
 10
271.201
 20
104.948
 11
271.118
 21
111.847
  0
LINE
  8
0
 10
271.118
 20
111.847
 11
270.998
 21
118.971
  0
LINE
  8
0
 10
270.998
 20
118.971
 11
270.844
 21
126.302
  0
LINE
  8
0
 10
270.844
 20
126.302
 11
270.85
 21
126.344
  0
LINE
  8
0
 10
270.85
 20
126.344
 11
270.775
 21
129.68
  0
LINE
  8
0
 10
270.775
 20
129.68
 11
270.704
 21
133.004
  0
LINE
  8
0
 10
270.704
 20
133.004
 11
270.639
 21
136.299
  0
LINE
  8
0
 10
270.639
 20
136.299
 11
270.58
 21
139.572
  0
LINE
  8
0
 10
270.58
 20
139.572
 11
270.529
 21
142.832
  0
LINE
  8
0
 10
270.529
 20
142.832
 11
270.506
 21
144.452
  0
LINE
  8
0
 10
270.506
 20
144.452
 11
270.486
 21
146.055
  0
LINE
  8
0
 10
270.486
 20
146.055
 11
270.468
 21
147.67
  0
LINE
  8
0
 10
270.468
 20
147.67
 11
270.453
 21
149.264
  0
LINE
  8
0
 10
270.453
 20
149.264
 11
270.44
 21
150.853
  0
LINE
  8
0
 10
270.44
 20
150.853
 11
270.429
 21
152.448
  0
LINE
  8
0
 10
270.429
 20
152.448
 11
270.421
 21
154.028
  0
LINE
  8
0
 10
270.421
 20
154.028
 11
270.416
 21
155.601
  0
LINE
  8
0
 10
270.416
 20
155.601
 11
270.414
 21
157.164
  0
LINE
  8
0
 10
270.414
 20
157.164
 11
270.414
 21
158.732
  0
LINE
  8
0
 10
270.414
 20
158.732
 11
270.409
 21
158.759
  0
LINE
  8
0
 10
270.409
 20
158.759
 11
270.437
 21
164.89
  0
LINE
  8
0
 10
270.437
 20
164.89
 11
270.516
 21
170.943
  0
LINE
  8
0
 10
270.516
 20
170.943
 11
270.656
 21
176.868
  0
LINE
  8
0
 10
270.656
 20
176.868
 11
270.872
 21
182.664
  0
LINE
  8
0
 10
270.872
 20
182.664
 11
271.176
 21
188.331
  0
LINE
  8
0
 10
271.176
 20
188.331
 11
271.586
 21
193.869
  0
LINE
  8
0
 10
271.586
 20
193.869
 11
272.118
 21
199.282
  0
LINE
  8
0
 10
272.118
 20
199.282
 11
272.791
 21
204.578
  0
LINE
  8
0
 10
272.791
 20
204.578
 11
273.623
 21
209.768
  0
LINE
  8
0
 10
273.623
 20
209.768
 11
274.635
 21
214.866
  0
LINE
  8
0
 10
274.635
 20
214.866
 11
275.85
 21
219.889
  0
LINE
  8
0
 10
275.85
 20
219.889
 11
277.29
 21
224.859
  0
LINE
  8
0
 10
277.29
 20
224.859
 11
278.982
 21
229.798
  0
LINE
  8
0
 10
278.982
 20
229.798
 11
280.95
 21
234.732
  0
LINE
  8
0
 10
280.95
 20
234.732
 11
283.224
 21
239.686
  0
LINE
  8
0
 10
283.224
 20
239.686
 11
285.834
 21
244.685
  0
LINE
  8
0
 10
285.834
 20
244.685
 11
288.808
 21
249.752
  0
LINE
  8
0
 10
288.808
 20
249.752
 11
292.176
 21
254.908
  0
LINE
  8
0
 10
292.176
 20
254.908
 11
295.968
 21
260.173
  0
LINE
  8
0
 10
295.968
 20
260.173
 11
300.291
 21
265.663
  0
LINE
  8
0
 10
300.291
 20
265.663
 11
301.215
 21
267.277
  0
LINE
  8
0
 10
301.215
 20
267.277
 11
301.641
 21
269.217
  0
LINE
  8
0
 10
301.641
 20
269.217
 11
301.447
 21
271.194
  0
LINE
  8
0
 10
301.447
 20
271.194
 11
300.651
 21
273.015
  0
LINE
  8
0
 10
300.651
 20
273.015
 11
299.331
 21
274.5
  0
LINE
  8
0
 10
299.331
 20
274.5
 11
254.174
 21
311.564
  0
LINE
  8
0
 10
254.174
 20
311.564
 11
252.468
 21
312.566
  0
LINE
  8
0
 10
252.468
 20
312.566
 11
250.528
 21
312.994
  0
LINE
  8
0
 10
250.528
 20
312.994
 11
248.551
 21
312.802
  0
LINE
  8
0
 10
248.551
 20
312.802
 11
246.729
 21
312.009
  0
LINE
  8
0
 10
246.729
 20
312.009
 11
245.242
 21
310.691
  0
LINE
  8
0
 10
245.242
 20
310.691
 11
239.945
 21
304.255
  0
LINE
  8
0
 10
239.945
 20
304.255
 11
234.974
 21
298.239
  0
LINE
  8
0
 10
234.974
 20
298.239
 11
230.306
 21
292.594
  0
LINE
  8
0
 10
230.306
 20
292.594
 11
225.924
 21
287.283
  0
LINE
  8
0
 10
225.924
 20
287.283
 11
221.807
 21
282.26
  0
LINE
  8
0
 10
221.807
 20
282.26
 11
217.936
 21
277.478
  0
LINE
  8
0
 10
217.936
 20
277.478
 11
214.288
 21
272.889
  0
LINE
  8
0
 10
214.288
 20
272.889
 11
210.841
 21
268.446
  0
LINE
  8
0
 10
210.841
 20
268.446
 11
207.573
 21
264.101
  0
LINE
  8
0
 10
207.573
 20
264.101
 11
207.505
 21
264.009
  0
LINE
  8
0
 10
207.505
 20
264.009
 11
204.463
 21
259.807
  0
LINE
  8
0
 10
204.463
 20
259.807
 11
204.387
 21
259.7
  0
LINE
  8
0
 10
204.387
 20
259.7
 11
201.49
 21
255.52
  0
LINE
  8
0
 10
201.49
 20
255.52
 11
201.409
 21
255.4
  0
LINE
  8
0
 10
201.409
 20
255.4
 11
198.638
 21
251.199
  0
LINE
  8
0
 10
198.638
 20
251.199
 11
198.554
 21
251.069
  0
LINE
  8
0
 10
198.554
 20
251.069
 11
195.889
 21
246.807
  0
LINE
  8
0
 10
195.889
 20
246.807
 11
195.805
 21
246.67
  0
LINE
  8
0
 10
195.805
 20
246.67
 11
193.23
 21
242.312
  0
LINE
  8
0
 10
193.23
 20
242.312
 11
193.149
 21
242.171
  0
LINE
  8
0
 10
193.149
 20
242.171
 11
190.652
 21
237.685
  0
LINE
  8
0
 10
190.652
 20
237.685
 11
190.574
 21
237.542
  0
LINE
  8
0
 10
190.574
 20
237.542
 11
188.145
 21
232.903
  0
LINE
  8
0
 10
188.145
 20
232.903
 11
188.072
 21
232.758
  0
LINE
  8
0
 10
188.072
 20
232.758
 11
185.706
 21
227.943
  0
LINE
  8
0
 10
185.706
 20
227.943
 11
185.637
 21
227.797
  0
LINE
  8
0
 10
185.637
 20
227.797
 11
183.333
 21
222.789
  0
LINE
  8
0
 10
183.333
 20
222.789
 11
183.268
 21
222.642
  0
LINE
  8
0
 10
183.268
 20
222.642
 11
181.025
 21
217.426
  0
LINE
  8
0
 10
181.025
 20
217.426
 11
180.964
 21
217.279
  0
LINE
  8
0
 10
180.964
 20
217.279
 11
178.788
 21
211.843
  0
LINE
  8
0
 10
178.788
 20
211.843
 11
178.766
 21
211.707
  0
LINE
  8
0
 10
178.766
 20
211.707
 11
178.741
 21
211.716
  0
LINE
  8
0
 10
178.741
 20
211.716
 11
177.334
 21
207.975
  0
LINE
  8
0
 10
177.334
 20
207.975
 11
175.922
 21
204.019
  0
LINE
  8
0
 10
175.922
 20
204.019
 11
174.55
 21
199.956
  0
LINE
  8
0
 10
174.55
 20
199.956
 11
173.221
 21
195.785
  0
LINE
  8
0
 10
173.221
 20
195.785
 11
171.938
 21
191.506
  0
LINE
  8
0
 10
171.938
 20
191.506
 11
170.707
 21
187.117
  0
LINE
  8
0
 10
170.707
 20
187.117
 11
169.529
 21
182.619
  0
LINE
  8
0
 10
169.529
 20
182.619
 11
168.411
 21
178.011
  0
LINE
  8
0
 10
168.411
 20
178.011
 11
168.385
 21
177.899
  0
LINE
  8
0
 10
168.385
 20
177.899
 11
167.356
 21
173.293
  0
LINE
  8
0
 10
167.356
 20
173.293
 11
167.332
 21
173.179
  0
LINE
  8
0
 10
167.332
 20
173.179
 11
166.368
 21
168.465
  0
LINE
  8
0
 10
166.368
 20
168.465
 11
166.346
 21
168.35
  0
LINE
  8
0
 10
166.346
 20
168.35
 11
165.453
 21
163.529
  0
LINE
  8
0
 10
165.453
 20
163.529
 11
165.433
 21
163.412
  0
LINE
  8
0
 10
165.433
 20
163.412
 11
164.616
 21
158.484
  0
LINE
  8
0
 10
164.616
 20
158.484
 11
164.597
 21
158.365
  0
LINE
  8
0
 10
164.597
 20
158.365
 11
163.86
 21
153.332
  0
LINE
  8
0
 10
163.86
 20
153.332
 11
163.843
 21
153.212
  0
LINE
  8
0
 10
163.843
 20
153.212
 11
163.191
 21
148.074
  0
LINE
  8
0
 10
163.191
 20
148.074
 11
163.177
 21
147.951
  0
LINE
  8
0
 10
163.177
 20
147.951
 11
162.614
 21
142.71
  0
LINE
  8
0
 10
162.614
 20
142.71
 11
162.602
 21
142.585
  0
LINE
  8
0
 10
162.602
 20
142.585
 11
162.135
 21
137.241
  0
LINE
  8
0
 10
162.135
 20
137.241
 11
162.125
 21
137.115
  0
LINE
  8
0
 10
162.125
 20
137.115
 11
161.758
 21
131.669
  0
LINE
  8
0
 10
161.758
 20
131.669
 11
161.751
 21
131.542
  0
LINE
  8
0
 10
161.751
 20
131.542
 11
161.489
 21
125.996
  0
LINE
  8
0
 10
161.489
 20
125.996
 11
161.485
 21
125.866
  0
LINE
  8
0
 10
161.485
 20
125.866
 11
161.333
 21
120.221
  0
LINE
  8
0
 10
161.333
 20
120.221
 11
161.331
 21
120.09
  0
LINE
  8
0
 10
161.331
 20
120.09
 11
161.296
 21
114.35
  0
LINE
  8
0
 10
161.296
 20
114.35
 11
161.332
 21
114.35
  0
LINE
  8
0
 10
161.332
 20
114.35
 11
161.295
 21
114.021
  0
LINE
  8
0
 10
161.295
 20
114.021
 11
161.639
 21
106.468
  0
LINE
  8
0
 10
161.639
 20
106.468
 11
161.684
 21
105.947
  0
LINE
  8
0
 10
161.684
 20
105.947
 11
162.638
 21
98.5289
  0
LINE
  8
0
 10
162.638
 20
98.5289
 11
162.723
 21
98.0279
  0
LINE
  8
0
 10
162.723
 20
98.0279
 11
164.259
 21
90.7524
  0
LINE
  8
0
 10
164.259
 20
90.7524
 11
164.378
 21
90.2771
  0
LINE
  8
0
 10
164.378
 20
90.2771
 11
166.466
 21
83.1552
  0
LINE
  8
0
 10
166.466
 20
83.1552
 11
166.616
 21
82.7083
  0
LINE
  8
0
 10
166.616
 20
82.7083
 11
169.228
 21
75.7543
  0
LINE
  8
0
 10
169.228
 20
75.7543
 11
169.403
 21
75.3361
  0
LINE
  8
0
 10
169.403
 20
75.3361
 11
172.513
 21
68.5678
  0
LINE
  8
0
 10
172.513
 20
68.5678
 11
172.709
 21
68.177
  0
LINE
  8
0
 10
172.709
 20
68.177
 11
176.291
 21
61.6152
  0
LINE
  8
0
 10
176.291
 20
61.6152
 11
176.507
 21
61.2497
  0
LINE
  8
0
 10
176.507
 20
61.2497
 11
180.534
 21
54.9176
  0
LINE
  8
0
 10
180.534
 20
54.9176
 11
180.768
 21
54.5749
  0
LINE
  8
0
 10
180.768
 20
54.5749
 11
185.216
 21
48.4982
  0
LINE
  8
0
 10
185.216
 20
48.4982
 11
185.468
 21
48.1758
  0
LINE
  8
0
 10
185.468
 20
48.1758
 11
190.312
 21
42.3827
  0
LINE
  8
0
 10
190.312
 20
42.3827
 11
190.584
 21
42.0782
  0
LINE
  8
0
 10
190.584
 20
42.0782
 11
195.798
 21
36.5986
  0
LINE
  8
0
 10
195.798
 20
36.5986
 11
196.091
 21
36.3105
  0
LINE
  8
0
 10
196.091
 20
36.3105
 11
201.653
 21
31.176
  0
LINE
  8
0
 10
201.653
 20
31.176
 11
201.968
 21
30.9031
  0
LINE
  8
0
 10
201.968
 20
30.9031
 11
207.853
 21
26.1468
  0
LINE
  8
0
 10
207.853
 20
26.1468
 11
208.195
 21
25.8893
  0
LINE
  8
0
 10
208.195
 20
25.8893
 11
214.379
 21
21.5451
  0
LINE
  8
0
 10
214.379
 20
21.5451
 11
214.749
 21
21.304
  0
LINE
  8
0
 10
214.749
 20
21.304
 11
221.21
 21
17.407
  0
LINE
  8
0
 10
221.21
 20
17.407
 11
221.611
 21
17.1844
  0
LINE
  8
0
 10
221.611
 20
17.1844
 11
228.324
 21
13.7699
  0
LINE
  8
0
 10
228.324
 20
13.7699
 11
228.757
 21
13.5695
  0
LINE
  8
0
 10
228.757
 20
13.5695
 11
235.7
 21
10.673
  0
LINE
  8
0
 10
235.7
 20
10.673
 11
236.167
 21
10.4993
  0
LINE
  8
0
 10
236.167
 20
10.4993
 11
243.316
 21
8.15585
  0
LINE
  8
0
 10
243.316
 20
8.15585
 11
243.815
 21
8.01454
  0
LINE
  8
0
 10
243.815
 20
8.01454
 11
251.15
 21
6.25824
  0
LINE
  8
0
 10
251.15
 20
6.25824
 11
251.677
 21
6.1554
  0
LINE
  8
0
 10
251.677
 20
6.1554
 11
259.176
 21
5.01842
  0
LINE
  8
0
 10
259.176
 20
5.01842
 11
261.432
 21
5.08209
  0
LINE
  8
0
 10
252.629
 20
12.4337
 11
245.294
 21
14.19
  0
LINE
  8
0
 10
245.294
 20
14.19
 11
238.145
 21
16.5334
  0
LINE
  8
0
 10
238.145
 20
16.5334
 11
231.202
 21
19.4299
  0
LINE
  8
0
 10
231.202
 20
19.4299
 11
224.49
 21
22.8443
  0
LINE
  8
0
 10
224.49
 20
22.8443
 11
218.029
 21
26.7413
  0
LINE
  8
0
 10
218.029
 20
26.7413
 11
211.845
 21
31.0854
  0
LINE
  8
0
 10
211.845
 20
31.0854
 11
205.96
 21
35.8418
  0
LINE
  8
0
 10
205.96
 20
35.8418
 11
200.398
 21
40.9763
  0
LINE
  8
0
 10
200.398
 20
40.9763
 11
195.183
 21
46.4558
  0
LINE
  8
0
 10
195.183
 20
46.4558
 11
190.34
 21
52.2488
  0
LINE
  8
0
 10
190.34
 20
52.2488
 11
185.892
 21
58.3255
  0
LINE
  8
0
 10
185.892
 20
58.3255
 11
181.865
 21
64.6576
  0
LINE
  8
0
 10
181.865
 20
64.6576
 11
178.283
 21
71.2195
  0
LINE
  8
0
 10
178.283
 20
71.2195
 11
175.172
 21
77.9877
  0
LINE
  8
0
 10
175.172
 20
77.9877
 11
172.56
 21
84.9416
  0
LINE
  8
0
 10
172.56
 20
84.9416
 11
170.472
 21
92.0636
  0
LINE
  8
0
 10
170.472
 20
92.0636
 11
168.937
 21
99.339
  0
LINE
  8
0
 10
168.937
 20
99.339
 11
167.982
 21
106.757
  0
LINE
  8
0
 10
167.982
 20
106.757
 11
167.639
 21
114.31
  0
LINE
  8
0
 10
167.639
 20
114.31
 11
167.645
 21
114.311
  0
LINE
  8
0
 10
167.645
 20
114.311
 11
167.681
 21
120.051
  0
LINE
  8
0
 10
167.681
 20
120.051
 11
167.832
 21
125.696
  0
LINE
  8
0
 10
167.832
 20
125.696
 11
168.094
 21
131.242
  0
LINE
  8
0
 10
168.094
 20
131.242
 11
168.461
 21
136.688
  0
LINE
  8
0
 10
168.461
 20
136.688
 11
168.928
 21
142.032
  0
LINE
  8
0
 10
168.928
 20
142.032
 11
169.49
 21
147.274
  0
LINE
  8
0
 10
169.49
 20
147.274
 11
170.143
 21
152.412
  0
LINE
  8
0
 10
170.143
 20
152.412
 11
170.88
 21
157.445
  0
LINE
  8
0
 10
170.88
 20
157.445
 11
171.697
 21
162.373
  0
LINE
  8
0
 10
171.697
 20
162.373
 11
172.59
 21
167.194
  0
LINE
  8
0
 10
172.59
 20
167.194
 11
173.553
 21
171.908
  0
LINE
  8
0
 10
173.553
 20
171.908
 11
174.582
 21
176.514
  0
LINE
  8
0
 10
174.582
 20
176.514
 11
175.673
 21
181.013
  0
LINE
  8
0
 10
175.673
 20
181.013
 11
176.821
 21
185.403
  0
LINE
  8
0
 10
176.821
 20
185.403
 11
178.022
 21
189.685
  0
LINE
  8
0
 10
178.022
 20
189.685
 11
179.271
 21
193.859
  0
LINE
  8
0
 10
179.271
 20
193.859
 11
180.566
 21
197.925
  0
LINE
  8
0
 10
180.566
 20
197.925
 11
181.903
 21
201.885
  0
LINE
  8
0
 10
181.903
 20
201.885
 11
183.278
 21
205.74
  0
LINE
  8
0
 10
183.278
 20
205.74
 11
184.685
 21
209.481
  0
LINE
  8
0
 10
184.685
 20
209.481
 11
184.683
 21
209.482
  0
LINE
  8
0
 10
184.683
 20
209.482
 11
186.859
 21
214.918
  0
LINE
  8
0
 10
186.859
 20
214.918
 11
189.101
 21
220.135
  0
LINE
  8
0
 10
189.101
 20
220.135
 11
191.406
 21
225.143
  0
LINE
  8
0
 10
191.406
 20
225.143
 11
193.771
 21
229.958
  0
LINE
  8
0
 10
193.771
 20
229.958
 11
196.2
 21
234.596
  0
LINE
  8
0
 10
196.2
 20
234.596
 11
198.697
 21
239.081
  0
LINE
  8
0
 10
198.697
 20
239.081
 11
201.272
 21
243.44
  0
LINE
  8
0
 10
201.272
 20
243.44
 11
203.938
 21
247.702
  0
LINE
  8
0
 10
203.938
 20
247.702
 11
206.71
 21
251.903
  0
LINE
  8
0
 10
206.71
 20
251.903
 11
209.606
 21
256.083
  0
LINE
  8
0
 10
209.606
 20
256.083
 11
212.648
 21
260.285
  0
LINE
  8
0
 10
212.648
 20
260.285
 11
215.858
 21
264.554
  0
LINE
  8
0
 10
215.858
 20
264.554
 11
219.258
 21
268.937
  0
LINE
  8
0
 10
219.258
 20
268.937
 11
222.871
 21
273.482
  0
LINE
  8
0
 10
222.871
 20
273.482
 11
226.719
 21
278.235
  0
LINE
  8
0
 10
226.719
 20
278.235
 11
230.822
 21
283.242
  0
LINE
  8
0
 10
230.822
 20
283.242
 11
235.199
 21
288.547
  0
LINE
  8
0
 10
235.199
 20
288.547
 11
239.867
 21
294.191
  0
LINE
  8
0
 10
239.867
 20
294.191
 11
244.845
 21
300.215
  0
LINE
  8
0
 10
244.845
 20
300.215
 11
250.145
 21
306.656
  0
LINE
  8
0
 10
250.145
 20
306.656
 11
295.302
 21
269.591
  0
LINE
  8
0
 10
295.302
 20
269.591
 11
290.895
 21
263.995
  0
LINE
  8
0
 10
290.895
 20
263.995
 11
286.939
 21
258.502
  0
LINE
  8
0
 10
286.939
 20
258.502
 11
283.408
 21
253.097
  0
LINE
  8
0
 10
283.408
 20
253.097
 11
280.277
 21
247.763
  0
LINE
  8
0
 10
280.277
 20
247.763
 11
277.521
 21
242.481
  0
LINE
  8
0
 10
277.521
 20
242.481
 11
275.112
 21
237.235
  0
LINE
  8
0
 10
275.112
 20
237.235
 11
273.025
 21
232.005
  0
LINE
  8
0
 10
273.025
 20
232.005
 11
271.234
 21
226.772
  0
LINE
  8
0
 10
271.234
 20
226.772
 11
269.711
 21
221.52
  0
LINE
  8
0
 10
269.711
 20
221.52
 11
268.432
 21
216.231
  0
LINE
  8
0
 10
268.432
 20
216.231
 11
267.371
 21
210.89
  0
LINE
  8
0
 10
267.371
 20
210.89
 11
266.504
 21
205.481
  0
LINE
  8
0
 10
266.504
 20
205.481
 11
265.807
 21
199.993
  0
LINE
  8
0
 10
265.807
 20
199.993
 11
265.259
 21
194.414
  0
LINE
  8
0
 10
265.259
 20
194.414
 11
264.839
 21
188.736
  0
LINE
  8
0
 10
264.839
 20
188.736
 11
264.528
 21
182.953
  0
LINE
  8
0
 10
264.528
 20
182.953
 11
264.309
 21
177.061
  0
LINE
  8
0
 10
264.309
 20
177.061
 11
264.167
 21
171.059
  0
LINE
  8
0
 10
264.167
 20
171.059
 11
264.087
 21
164.946
  0
LINE
  8
0
 10
264.087
 20
164.946
 11
264.059
 21
158.737
  0
LINE
  8
0
 10
264.059
 20
158.737
 11
264.064
 21
158.733
  0
LINE
  8
0
 10
264.064
 20
158.733
 11
264.064
 21
157.162
  0
LINE
  8
0
 10
264.064
 20
157.162
 11
264.066
 21
155.583
  0
LINE
  8
0
 10
264.066
 20
155.583
 11
264.071
 21
153.999
  0
LINE
  8
0
 10
264.071
 20
153.999
 11
264.079
 21
152.408
  0
LINE
  8
0
 10
264.079
 20
152.408
 11
264.09
 21
150.811
  0
LINE
  8
0
 10
264.09
 20
150.811
 11
264.103
 21
149.208
  0
LINE
  8
0
 10
264.103
 20
149.208
 11
264.119
 21
147.599
  0
LINE
  8
0
 10
264.119
 20
147.599
 11
264.137
 21
145.984
  0
LINE
  8
0
 10
264.137
 20
145.984
 11
264.157
 21
144.364
  0
LINE
  8
0
 10
264.157
 20
144.364
 11
264.18
 21
142.737
  0
LINE
  8
0
 10
264.18
 20
142.737
 11
264.231
 21
139.469
  0
LINE
  8
0
 10
264.231
 20
139.469
 11
264.29
 21
136.18
  0
LINE
  8
0
 10
264.29
 20
136.18
 11
264.356
 21
132.872
  0
LINE
  8
0
 10
264.356
 20
132.872
 11
264.426
 21
129.545
  0
LINE
  8
0
 10
264.426
 20
129.545
 11
264.502
 21
126.201
  0
LINE
  8
0
 10
264.502
 20
126.201
 11
264.495
 21
126.2
  0
LINE
  8
0
 10
264.495
 20
126.2
 11
264.649
 21
118.864
  0
LINE
  8
0
 10
264.649
 20
118.864
 11
264.768
 21
111.77
  0
LINE
  8
0
 10
264.768
 20
111.77
 11
264.851
 21
104.906
  0
LINE
  8
0
 10
264.851
 20
104.906
 11
264.895
 21
98.2573
  0
LINE
  8
0
 10
264.895
 20
98.2573
 11
264.9
 21
91.8102
  0
LINE
  8
0
 10
264.9
 20
91.8102
 11
264.862
 21
85.5511
  0
LINE
  8
0
 10
264.862
 20
85.5511
 11
264.781
 21
79.4671
  0
LINE
  8
0
 10
264.781
 20
79.4671
 11
264.656
 21
73.5455
  0
LINE
  8
0
 10
264.656
 20
73.5455
 11
264.487
 21
67.7741
  0
LINE
  8
0
 10
264.487
 20
67.7741
 11
264.273
 21
62.1415
  0
LINE
  8
0
 10
264.273
 20
62.1415
 11
264.014
 21
56.6366
  0
LINE
  8
0
 10
264.014
 20
56.6366
 11
263.712
 21
51.249
  0
LINE
  8
0
 10
263.712
 20
51.249
 11
263.369
 21
45.9688
  0
LINE
  8
0
 10
263.369
 20
45.9688
 11
262.987
 21
40.7867
  0
LINE
  8
0
 10
262.987
 20
40.7867
 11
262.569
 21
35.694
  0
LINE
  8
0
 10
262.569
 20
35.694
 11
262.12
 21
30.6824
  0
LINE
  8
0
 10
262.12
 20
30.6824
 11
261.644
 21
25.744
  0
LINE
  8
0
 10
261.644
 20
25.744
 11
261.149
 21
20.8716
  0
LINE
  8
0
 10
261.149
 20
20.8716
 11
260.641
 21
16.058
  0
LINE
  8
0
 10
260.641
 20
16.058
 11
260.128
 21
11.2967
  0
LINE
  8
0
 10
260.128
 20
11.2967
 11
252.629
 21
12.4337
  0
LINE
  8
0
 10
186.612
 20
-159.73
 11
188.389
 21
-158.843
  0
LINE
  8
0
 10
188.389
 20
-158.843
 11
189.806
 21
-157.45
  0
LINE
  8
0
 10
189.806
 20
-157.45
 11
190.723
 21
-155.688
  0
LINE
  8
0
 10
190.723
 20
-155.688
 11
191.041
 21
-153.322
  0
LINE
  8
0
 10
191.041
 20
-153.322
 11
190.74
 21
-147.923
  0
LINE
  8
0
 10
190.74
 20
-147.923
 11
190.732
 21
-147.799
  0
LINE
  8
0
 10
190.732
 20
-147.799
 11
190.263
 21
-141.579
  0
LINE
  8
0
 10
190.263
 20
-141.579
 11
190.252
 21
-141.444
  0
LINE
  8
0
 10
190.252
 20
-141.444
 11
189.582
 21
-134.523
  0
LINE
  8
0
 10
189.582
 20
-134.523
 11
189.565
 21
-134.373
  0
LINE
  8
0
 10
189.565
 20
-134.373
 11
188.658
 21
-126.872
  0
LINE
  8
0
 10
188.658
 20
-126.872
 11
188.635
 21
-126.702
  0
LINE
  8
0
 10
188.635
 20
-126.702
 11
187.454
 21
-118.74
  0
LINE
  8
0
 10
187.454
 20
-118.74
 11
187.423
 21
-118.548
  0
LINE
  8
0
 10
187.423
 20
-118.548
 11
185.93
 21
-110.243
  0
LINE
  8
0
 10
185.93
 20
-110.243
 11
185.887
 21
-110.024
  0
LINE
  8
0
 10
185.887
 20
-110.024
 11
184.042
 21
-101.496
  0
LINE
  8
0
 10
184.042
 20
-101.496
 11
183.982
 21
-101.246
  0
LINE
  8
0
 10
183.982
 20
-101.246
 11
181.745
 21
-92.6139
  0
LINE
  8
0
 10
181.745
 20
-92.6139
 11
181.663
 21
-92.3262
  0
LINE
  8
0
 10
181.663
 20
-92.3262
 11
178.991
 21
-83.7083
  0
LINE
  8
0
 10
178.991
 20
-83.7083
 11
178.879
 21
-83.3784
  0
LINE
  8
0
 10
178.879
 20
-83.3784
 11
175.727
 21
-74.8926
  0
LINE
  8
0
 10
175.727
 20
-74.8926
 11
175.573
 21
-74.5155
  0
LINE
  8
0
 10
175.573
 20
-74.5155
 11
171.898
 21
-66.2797
  0
LINE
  8
0
 10
171.898
 20
-66.2797
 11
171.688
 21
-65.8522
  0
LINE
  8
0
 10
171.688
 20
-65.8522
 11
167.443
 21
-57.9841
  0
LINE
  8
0
 10
167.443
 20
-57.9841
 11
167.157
 21
-57.5067
  0
LINE
  8
0
 10
167.157
 20
-57.5067
 11
162.295
 21
-50.1239
  0
LINE
  8
0
 10
162.295
 20
-50.1239
 11
161.914
 21
-49.6043
  0
LINE
  8
0
 10
161.914
 20
-49.6043
 11
156.387
 21
-42.8244
  0
LINE
  8
0
 10
156.387
 20
-42.8244
 11
155.889
 21
-42.281
  0
LINE
  8
0
 10
155.889
 20
-42.281
 11
149.648
 21
-36.2214
  0
LINE
  8
0
 10
149.648
 20
-36.2214
 11
149.02
 21
-35.6865
  0
LINE
  8
0
 10
149.02
 20
-35.6865
 11
142.017
 21
-30.4648
  0
LINE
  8
0
 10
142.017
 20
-30.4648
 11
141.264
 21
-29.9819
  0
LINE
  8
0
 10
141.264
 20
-29.9819
 11
133.449
 21
-25.7156
  0
LINE
  8
0
 10
133.449
 20
-25.7156
 11
132.6
 21
-25.3299
  0
LINE
  8
0
 10
132.6
 20
-25.3299
 11
123.923
 21
-22.1367
  0
LINE
  8
0
 10
123.923
 20
-22.1367
 11
123.028
 21
-21.8801
  0
LINE
  8
0
 10
123.028
 20
-21.8801
 11
113.439
 21
-19.8777
  0
LINE
  8
0
 10
113.439
 20
-19.8777
 11
112.557
 21
-19.7573
  0
LINE
  8
0
 10
112.557
 20
-19.7573
 11
102.006
 21
-19.0643
  0
LINE
  8
0
 10
102.006
 20
-19.0643
 11
101.173
 21
-19.0643
  0
LINE
  8
0
 10
101.173
 20
-19.0643
 11
90.6324
 21
-19.7573
  0
LINE
  8
0
 10
90.6324
 20
-19.7573
 11
89.7509
 21
-19.8777
  0
LINE
  8
0
 10
89.7509
 20
-19.8777
 11
80.1621
 21
-21.8801
  0
LINE
  8
0
 10
80.1621
 20
-21.8801
 11
79.2671
 21
-22.1367
  0
LINE
  8
0
 10
79.2671
 20
-22.1367
 11
70.5902
 21
-25.3299
  0
LINE
  8
0
 10
70.5902
 20
-25.3299
 11
69.7406
 21
-25.7156
  0
LINE
  8
0
 10
69.7406
 20
-25.7156
 11
61.9257
 21
-29.9819
  0
LINE
  8
0
 10
61.9257
 20
-29.9819
 11
61.1725
 21
-30.4648
  0
LINE
  8
0
 10
61.1725
 20
-30.4648
 11
54.1696
 21
-35.6865
  0
LINE
  8
0
 10
54.1696
 20
-35.6865
 11
53.5418
 21
-36.2214
  0
LINE
  8
0
 10
53.5418
 20
-36.2214
 11
47.3014
 21
-42.281
  0
LINE
  8
0
 10
47.3014
 20
-42.281
 11
46.8033
 21
-42.8244
  0
LINE
  8
0
 10
46.8033
 20
-42.8244
 11
41.2763
 21
-49.6043
  0
LINE
  8
0
 10
41.2763
 20
-49.6043
 11
40.8949
 21
-50.1239
  0
LINE
  8
0
 10
40.8949
 20
-50.1239
 11
36.0327
 21
-57.5067
  0
LINE
  8
0
 10
36.0327
 20
-57.5067
 11
35.7474
 21
-57.9841
  0
LINE
  8
0
 10
35.7474
 20
-57.9841
 11
31.5022
 21
-65.8522
  0
LINE
  8
0
 10
31.5022
 20
-65.8522
 11
31.2919
 21
-66.2797
  0
LINE
  8
0
 10
31.2919
 20
-66.2797
 11
27.6166
 21
-74.5155
  0
LINE
  8
0
 10
27.6166
 20
-74.5155
 11
27.4627
 21
-74.8926
  0
LINE
  8
0
 10
27.4627
 20
-74.8926
 11
24.3113
 21
-83.3784
  0
LINE
  8
0
 10
24.3113
 20
-83.3784
 11
24.199
 21
-83.7083
  0
LINE
  8
0
 10
24.199
 20
-83.7083
 11
21.5266
 21
-92.3262
  0
LINE
  8
0
 10
21.5266
 20
-92.3262
 11
21.4447
 21
-92.6139
  0
LINE
  8
0
 10
21.4447
 20
-92.6139
 11
19.2075
 21
-101.246
  0
LINE
  8
0
 10
19.2075
 20
-101.246
 11
19.1479
 21
-101.496
  0
LINE
  8
0
 10
19.1479
 20
-101.496
 11
17.3034
 21
-110.024
  0
LINE
  8
0
 10
17.3034
 20
-110.024
 11
17.26
 21
-110.243
  0
LINE
  8
0
 10
17.26
 20
-110.243
 11
15.7671
 21
-118.548
  0
LINE
  8
0
 10
15.7671
 20
-118.548
 11
15.7356
 21
-118.74
  0
LINE
  8
0
 10
15.7356
 20
-118.74
 11
14.5546
 21
-126.702
  0
LINE
  8
0
 10
14.5546
 20
-126.702
 11
14.5318
 21
-126.872
  0
LINE
  8
0
 10
14.5318
 20
-126.872
 11
13.6247
 21
-134.373
  0
LINE
  8
0
 10
13.6247
 20
-134.373
 11
13.6083
 21
-134.523
  0
LINE
  8
0
 10
13.6083
 20
-134.523
 11
12.9382
 21
-141.444
  0
LINE
  8
0
 10
12.9382
 20
-141.444
 11
12.9265
 21
-141.579
  0
LINE
  8
0
 10
12.9265
 20
-141.579
 11
12.4581
 21
-147.799
  0
LINE
  8
0
 10
12.4581
 20
-147.799
 11
12.45
 21
-147.923
  0
LINE
  8
0
 10
12.45
 20
-147.923
 11
12.1493
 21
-153.322
  0
LINE
  8
0
 10
12.1493
 20
-153.322
 11
12.3505
 21
-155.298
  0
LINE
  8
0
 10
12.3505
 20
-155.298
 11
13.1526
 21
-157.116
  0
LINE
  8
0
 10
13.1526
 20
-157.116
 11
14.4771
 21
-158.596
  0
LINE
  8
0
 10
14.4771
 20
-158.596
 11
16.1944
 21
-159.595
  0
LINE
  8
0
 10
16.1944
 20
-159.595
 11
18.1364
 21
-160.015
  0
LINE
  8
0
 10
18.1364
 20
-160.015
 11
20.1129
 21
-159.814
  0
LINE
  8
0
 10
20.1129
 20
-159.814
 11
21.9305
 21
-159.012
  0
LINE
  8
0
 10
21.9305
 20
-159.012
 11
23.4112
 21
-157.687
  0
LINE
  8
0
 10
23.4112
 20
-157.687
 11
24.545
 21
-155.586
  0
LINE
  8
0
 10
24.545
 20
-155.586
 11
26.3841
 21
-149.759
  0
LINE
  8
0
 10
26.3841
 20
-149.759
 11
28.3481
 21
-144.216
  0
LINE
  8
0
 10
28.3481
 20
-144.216
 11
30.4748
 21
-138.879
  0
LINE
  8
0
 10
30.4748
 20
-138.879
 11
32.7725
 21
-133.76
  0
LINE
  8
0
 10
32.7725
 20
-133.76
 11
35.2484
 21
-128.876
  0
LINE
  8
0
 10
35.2484
 20
-128.876
 11
37.9105
 21
-124.237
  0
LINE
  8
0
 10
37.9105
 20
-124.237
 11
40.7668
 21
-119.857
  0
LINE
  8
0
 10
40.7668
 20
-119.857
 11
43.8256
 21
-115.744
  0
LINE
  8
0
 10
43.8256
 20
-115.744
 11
47.0963
 21
-111.908
  0
LINE
  8
0
 10
47.0963
 20
-111.908
 11
50.5895
 21
-108.355
  0
LINE
  8
0
 10
50.5895
 20
-108.355
 11
54.3186
 21
-105.092
  0
LINE
  8
0
 10
54.3186
 20
-105.092
 11
58.2988
 21
-102.125
  0
LINE
  8
0
 10
58.2988
 20
-102.125
 11
62.5486
 21
-99.4579
  0
LINE
  8
0
 10
62.5486
 20
-99.4579
 11
67.0876
 21
-97.1001
  0
LINE
  8
0
 10
67.0876
 20
-97.1001
 11
71.9387
 21
-95.0607
  0
LINE
  8
0
 10
71.9387
 20
-95.0607
 11
77.1233
 21
-93.3528
  0
LINE
  8
0
 10
77.1233
 20
-93.3528
 11
82.663
 21
-91.9917
  0
LINE
  8
0
 10
82.663
 20
-91.9917
 11
88.578
 21
-90.995
  0
LINE
  8
0
 10
88.578
 20
-90.995
 11
94.8863
 21
-90.382
  0
LINE
  8
0
 10
94.8863
 20
-90.382
 11
101.595
 21
-90.1732
  0
LINE
  8
0
 10
101.595
 20
-90.1732
 11
108.304
 21
-90.382
  0
LINE
  8
0
 10
108.304
 20
-90.382
 11
114.612
 21
-90.995
  0
LINE
  8
0
 10
114.612
 20
-90.995
 11
120.527
 21
-91.9917
  0
LINE
  8
0
 10
120.527
 20
-91.9917
 11
126.067
 21
-93.3528
  0
LINE
  8
0
 10
126.067
 20
-93.3528
 11
131.251
 21
-95.0607
  0
LINE
  8
0
 10
131.251
 20
-95.0607
 11
136.102
 21
-97.1001
  0
LINE
  8
0
 10
136.102
 20
-97.1001
 11
140.641
 21
-99.4579
  0
LINE
  8
0
 10
140.641
 20
-99.4579
 11
144.891
 21
-102.125
  0
LINE
  8
0
 10
144.891
 20
-102.125
 11
148.871
 21
-105.092
  0
LINE
  8
0
 10
148.871
 20
-105.092
 11
152.6
 21
-108.355
  0
LINE
  8
0
 10
152.6
 20
-108.355
 11
156.094
 21
-111.908
  0
LINE
  8
0
 10
156.094
 20
-111.908
 11
159.364
 21
-115.744
  0
LINE
  8
0
 10
159.364
 20
-115.744
 11
162.423
 21
-119.857
  0
LINE
  8
0
 10
162.423
 20
-119.857
 11
165.28
 21
-124.237
  0
LINE
  8
0
 10
165.28
 20
-124.237
 11
167.942
 21
-128.876
  0
LINE
  8
0
 10
167.942
 20
-128.876
 11
170.417
 21
-133.76
  0
LINE
  8
0
 10
170.417
 20
-133.76
 11
172.715
 21
-138.879
  0
LINE
  8
0
 10
172.715
 20
-138.879
 11
174.842
 21
-144.216
  0
LINE
  8
0
 10
174.842
 20
-144.216
 11
176.806
 21
-149.759
  0
LINE
  8
0
 10
176.806
 20
-149.759
 11
178.645
 21
-155.586
  0
LINE
  8
0
 10
178.645
 20
-155.586
 11
179.532
 21
-157.364
  0
LINE
  8
0
 10
179.532
 20
-157.364
 11
180.925
 21
-158.78
  0
LINE
  8
0
 10
180.925
 20
-158.78
 11
182.687
 21
-159.697
  0
LINE
  8
0
 10
182.687
 20
-159.697
 11
184.647
 21
-160.024
  0
LINE
  8
0
 10
184.647
 20
-160.024
 11
186.612
 21
-159.73
  0
LINE
  8
0
 10
182.828
 20
-147.742
 11
180.786
 21
-141.98
  0
LINE
  8
0
 10
180.786
 20
-141.98
 11
178.564
 21
-136.402
  0
LINE
  8
0
 10
178.564
 20
-136.402
 11
176.149
 21
-131.023
  0
LINE
  8
0
 10
176.149
 20
-131.023
 11
173.531
 21
-125.858
  0
LINE
  8
0
 10
173.531
 20
-125.858
 11
170.697
 21
-120.92
  0
LINE
  8
0
 10
170.697
 20
-120.92
 11
167.635
 21
-116.224
  0
LINE
  8
0
 10
167.635
 20
-116.224
 11
164.334
 21
-111.785
  0
LINE
  8
0
 10
164.334
 20
-111.785
 11
160.78
 21
-107.616
  0
LINE
  8
0
 10
160.78
 20
-107.616
 11
156.961
 21
-103.733
  0
LINE
  8
0
 10
156.961
 20
-103.733
 11
152.866
 21
-100.15
  0
LINE
  8
0
 10
152.866
 20
-100.15
 11
148.482
 21
-96.8815
  0
LINE
  8
0
 10
148.482
 20
-96.8815
 11
143.798
 21
-93.9419
  0
LINE
  8
0
 10
143.798
 20
-93.9419
 11
138.801
 21
-91.3461
  0
LINE
  8
0
 10
138.801
 20
-91.3461
 11
133.479
 21
-89.1088
  0
LINE
  8
0
 10
133.479
 20
-89.1088
 11
127.82
 21
-87.2448
  0
LINE
  8
0
 10
127.82
 20
-87.2448
 11
121.814
 21
-85.769
  0
LINE
  8
0
 10
121.814
 20
-85.769
 11
115.448
 21
-84.6963
  0
LINE
  8
0
 10
115.448
 20
-84.6963
 11
108.71
 21
-84.0416
  0
LINE
  8
0
 10
108.71
 20
-84.0416
 11
101.595
 21
-83.8201
  0
LINE
  8
0
 10
101.595
 20
-83.8201
 11
94.4799
 21
-84.0416
  0
LINE
  8
0
 10
94.4799
 20
-84.0416
 11
87.7424
 21
-84.6963
  0
LINE
  8
0
 10
87.7424
 20
-84.6963
 11
81.3762
 21
-85.769
  0
LINE
  8
0
 10
81.3762
 20
-85.769
 11
75.3696
 21
-87.2448
  0
LINE
  8
0
 10
75.3696
 20
-87.2448
 11
69.7113
 21
-89.1088
  0
LINE
  8
0
 10
69.7113
 20
-89.1088
 11
64.3893
 21
-91.3461
  0
LINE
  8
0
 10
64.3893
 20
-91.3461
 11
59.3921
 21
-93.9419
  0
LINE
  8
0
 10
59.3921
 20
-93.9419
 11
54.7076
 21
-96.8815
  0
LINE
  8
0
 10
54.7076
 20
-96.8815
 11
50.3238
 21
-100.15
  0
LINE
  8
0
 10
50.3238
 20
-100.15
 11
46.2288
 21
-103.733
  0
LINE
  8
0
 10
46.2288
 20
-103.733
 11
42.4104
 21
-107.616
  0
LINE
  8
0
 10
42.4104
 20
-107.616
 11
38.8564
 21
-111.785
  0
LINE
  8
0
 10
38.8564
 20
-111.785
 11
35.5547
 21
-116.224
  0
LINE
  8
0
 10
35.5547
 20
-116.224
 11
32.4929
 21
-120.92
  0
LINE
  8
0
 10
32.4929
 20
-120.92
 11
29.6589
 21
-125.858
  0
LINE
  8
0
 10
29.6589
 20
-125.858
 11
27.0407
 21
-131.023
  0
LINE
  8
0
 10
27.0407
 20
-131.023
 11
24.6262
 21
-136.402
  0
LINE
  8
0
 10
24.6262
 20
-136.402
 11
22.4037
 21
-141.98
  0
LINE
  8
0
 10
22.4037
 20
-141.98
 11
20.3618
 21
-147.742
  0
LINE
  8
0
 10
20.3618
 20
-147.742
 11
18.4895
 21
-153.675
  0
LINE
  8
0
 10
18.4895
 20
-153.675
 11
18.7901
 21
-148.276
  0
LINE
  8
0
 10
18.7901
 20
-148.276
 11
19.2586
 21
-142.056
  0
LINE
  8
0
 10
19.2586
 20
-142.056
 11
19.9288
 21
-135.135
  0
LINE
  8
0
 10
19.9288
 20
-135.135
 11
20.8359
 21
-127.634
  0
LINE
  8
0
 10
20.8359
 20
-127.634
 11
22.0169
 21
-119.671
  0
LINE
  8
0
 10
22.0169
 20
-119.671
 11
23.5098
 21
-111.367
  0
LINE
  8
0
 10
23.5098
 20
-111.367
 11
25.3544
 21
-102.839
  0
LINE
  8
0
 10
25.3544
 20
-102.839
 11
27.5916
 21
-94.207
  0
LINE
  8
0
 10
27.5916
 20
-94.207
 11
30.2641
 21
-85.5891
  0
LINE
  8
0
 10
30.2641
 20
-85.5891
 11
33.4154
 21
-77.1033
  0
LINE
  8
0
 10
33.4154
 20
-77.1033
 11
37.0907
 21
-68.8675
  0
LINE
  8
0
 10
37.0907
 20
-68.8675
 11
41.3359
 21
-60.9993
  0
LINE
  8
0
 10
41.3359
 20
-60.9993
 11
46.1981
 21
-53.6165
  0
LINE
  8
0
 10
46.1981
 20
-53.6165
 11
51.7251
 21
-46.8366
  0
LINE
  8
0
 10
51.7251
 20
-46.8366
 11
57.9654
 21
-40.7771
  0
LINE
  8
0
 10
57.9654
 20
-40.7771
 11
64.9683
 21
-35.5554
  0
LINE
  8
0
 10
64.9683
 20
-35.5554
 11
72.7832
 21
-31.2892
  0
LINE
  8
0
 10
72.7832
 20
-31.2892
 11
81.4601
 21
-28.096
  0
LINE
  8
0
 10
81.4601
 20
-28.096
 11
91.049
 21
-26.0937
  0
LINE
  8
0
 10
91.049
 20
-26.0937
 11
101.59
 21
-25.4007
  0
LINE
  8
0
 10
101.59
 20
-25.4007
 11
112.141
 21
-26.0937
  0
LINE
  8
0
 10
112.141
 20
-26.0937
 11
121.73
 21
-28.096
  0
LINE
  8
0
 10
121.73
 20
-28.096
 11
130.407
 21
-31.2892
  0
LINE
  8
0
 10
130.407
 20
-31.2892
 11
138.222
 21
-35.5554
  0
LINE
  8
0
 10
138.222
 20
-35.5554
 11
145.225
 21
-40.7771
  0
LINE
  8
0
 10
145.225
 20
-40.7771
 11
151.465
 21
-46.8366
  0
LINE
  8
0
 10
151.465
 20
-46.8366
 11
156.992
 21
-53.6165
  0
LINE
  8
0
 10
156.992
 20
-53.6165
 11
161.854
 21
-60.9993
  0
LINE
  8
0
 10
161.854
 20
-60.9993
 11
166.099
 21
-68.8675
  0
LINE
  8
0
 10
166.099
 20
-68.8675
 11
169.775
 21
-77.1033
  0
LINE
  8
0
 10
169.775
 20
-77.1033
 11
172.926
 21
-85.5891
  0
LINE
  8
0
 10
172.926
 20
-85.5891
 11
175.598
 21
-94.207
  0
LINE
  8
0
 10
175.598
 20
-94.207
 11
177.836
 21
-102.839
  0
LINE
  8
0
 10
177.836
 20
-102.839
 11
179.68
 21
-111.367
  0
LINE
  8
0
 10
179.68
 20
-111.367
 11
181.173
 21
-119.671
  0
LINE
  8
0
 10
181.173
 20
-119.671
 11
182.354
 21
-127.634
  0
LINE
  8
0
 10
182.354
 20
-127.634
 11
183.261
 21
-135.135
  0
LINE
  8
0
 10
183.261
 20
-135.135
 11
183.931
 21
-142.056
  0
LINE
  8
0
 10
183.931
 20
-142.056
 11
184.4
 21
-148.276
  0
LINE
  8
0
 10
184.4
 20
-148.276
 11
184.701
 21
-153.675
  0
LINE
  8
0
 10
184.701
 20
-153.675
 11
182.828
 21
-147.742
  0
LINE
  8
0
 10
186.612
 20
-261.33
 11
188.389
 21
-260.443
  0
LINE
  8
0
 10
188.389
 20
-260.443
 11
189.806
 21
-259.05
  0
LINE
  8
0
 10
189.806
 20
-259.05
 11
190.723
 21
-257.288
  0
LINE
  8
0
 10
190.723
 20
-257.288
 11
191.041
 21
-254.922
  0
LINE
  8
0
 10
191.041
 20
-254.922
 11
190.74
 21
-249.523
  0
LINE
  8
0
 10
190.74
 20
-249.523
 11
190.732
 21
-249.399
  0
LINE
  8
0
 10
190.732
 20
-249.399
 11
190.263
 21
-243.179
  0
LINE
  8
0
 10
190.263
 20
-243.179
 11
190.252
 21
-243.044
  0
LINE
  8
0
 10
190.252
 20
-243.044
 11
189.582
 21
-236.123
  0
LINE
  8
0
 10
189.582
 20
-236.123
 11
189.565
 21
-235.973
  0
LINE
  8
0
 10
189.565
 20
-235.973
 11
188.658
 21
-228.472
  0
LINE
  8
0
 10
188.658
 20
-228.472
 11
188.635
 21
-228.302
  0
LINE
  8
0
 10
188.635
 20
-228.302
 11
187.454
 21
-220.34
  0
LINE
  8
0
 10
187.454
 20
-220.34
 11
187.423
 21
-220.148
  0
LINE
  8
0
 10
187.423
 20
-220.148
 11
185.93
 21
-211.843
  0
LINE
  8
0
 10
185.93
 20
-211.843
 11
185.887
 21
-211.624
  0
LINE
  8
0
 10
185.887
 20
-211.624
 11
184.042
 21
-203.096
  0
LINE
  8
0
 10
184.042
 20
-203.096
 11
183.982
 21
-202.846
  0
LINE
  8
0
 10
183.982
 20
-202.846
 11
181.745
 21
-194.214
  0
LINE
  8
0
 10
181.745
 20
-194.214
 11
181.663
 21
-193.926
  0
LINE
  8
0
 10
181.663
 20
-193.926
 11
178.991
 21
-185.308
  0
LINE
  8
0
 10
178.991
 20
-185.308
 11
178.879
 21
-184.978
  0
LINE
  8
0
 10
178.879
 20
-184.978
 11
175.727
 21
-176.493
  0
LINE
  8
0
 10
175.727
 20
-176.493
 11
175.573
 21
-176.116
  0
LINE
  8
0
 10
175.573
 20
-176.116
 11
171.898
 21
-167.88
  0
LINE
  8
0
 10
171.898
 20
-167.88
 11
171.688
 21
-167.452
  0
LINE
  8
0
 10
171.688
 20
-167.452
 11
167.443
 21
-159.584
  0
LINE
  8
0
 10
167.443
 20
-159.584
 11
167.157
 21
-159.107
  0
LINE
  8
0
 10
167.157
 20
-159.107
 11
162.295
 21
-151.724
  0
LINE
  8
0
 10
162.295
 20
-151.724
 11
161.914
 21
-151.204
  0
LINE
  8
0
 10
161.914
 20
-151.204
 11
156.387
 21
-144.424
  0
LINE
  8
0
 10
156.387
 20
-144.424
 11
155.889
 21
-143.881
  0
LINE
  8
0
 10
155.889
 20
-143.881
 11
149.648
 21
-137.821
  0
LINE
  8
0
 10
149.648
 20
-137.821
 11
149.02
 21
-137.286
  0
LINE
  8
0
 10
149.02
 20
-137.286
 11
142.017
 21
-132.065
  0
LINE
  8
0
 10
142.017
 20
-132.065
 11
141.264
 21
-131.582
  0
LINE
  8
0
 10
141.264
 20
-131.582
 11
133.449
 21
-127.316
  0
LINE
  8
0
 10
133.449
 20
-127.316
 11
132.6
 21
-126.93
  0
LINE
  8
0
 10
132.6
 20
-126.93
 11
123.923
 21
-123.737
  0
LINE
  8
0
 10
123.923
 20
-123.737
 11
123.028
 21
-123.48
  0
LINE
  8
0
 10
123.028
 20
-123.48
 11
113.439
 21
-121.478
  0
LINE
  8
0
 10
113.439
 20
-121.478
 11
112.557
 21
-121.357
  0
LINE
  8
0
 10
112.557
 20
-121.357
 11
102.006
 21
-120.664
  0
LINE
  8
0
 10
102.006
 20
-120.664
 11
101.173
 21
-120.664
  0
LINE
  8
0
 10
101.173
 20
-120.664
 11
90.6324
 21
-121.357
  0
LINE
  8
0
 10
90.6324
 20
-121.357
 11
89.7509
 21
-121.478
  0
LINE
  8
0
 10
89.7509
 20
-121.478
 11
80.1621
 21
-123.48
  0
LINE
  8
0
 10
80.1621
 20
-123.48
 11
79.2671
 21
-123.737
  0
LINE
  8
0
 10
79.2671
 20
-123.737
 11
70.5902
 21
-126.93
  0
LINE
  8
0
 10
70.5902
 20
-126.93
 11
69.7406
 21
-127.316
  0
LINE
  8
0
 10
69.7406
 20
-127.316
 11
61.9257
 21
-131.582
  0
LINE
  8
0
 10
61.9257
 20
-131.582
 11
61.1725
 21
-132.065
  0
LINE
  8
0
 10
61.1725
 20
-132.065
 11
54.1696
 21
-137.286
  0
LINE
  8
0
 10
54.1696
 20
-137.286
 11
53.5418
 21
-137.821
  0
LINE
  8
0
 10
53.5418
 20
-137.821
 11
47.3014
 21
-143.881
  0
LINE
  8
0
 10
47.3014
 20
-143.881
 11
46.8033
 21
-144.424
  0
LINE
  8
0
 10
46.8033
 20
-144.424
 11
41.2763
 21
-151.204
  0
LINE
  8
0
 10
41.2763
 20
-151.204
 11
40.8949
 21
-151.724
  0
LINE
  8
0
 10
40.8949
 20
-151.724
 11
36.0327
 21
-159.107
  0
LINE
  8
0
 10
36.0327
 20
-159.107
 11
35.7474
 21
-159.584
  0
LINE
  8
0
 10
35.7474
 20
-159.584
 11
31.5022
 21
-167.452
  0
LINE
  8
0
 10
31.5022
 20
-167.452
 11
31.2919
 21
-167.88
  0
LINE
  8
0
 10
31.2919
 20
-167.88
 11
27.6166
 21
-176.116
  0
LINE
  8
0
 10
27.6166
 20
-176.116
 11
27.4627
 21
-176.493
  0
LINE
  8
0
 10
27.4627
 20
-176.493
 11
24.3113
 21
-184.978
  0
LINE
  8
0
 10
24.3113
 20
-184.978
 11
24.199
 21
-185.308
  0
LINE
  8
0
 10
24.199
 20
-185.308
 11
21.5266
 21
-193.926
  0
LINE
  8
0
 10
21.5266
 20
-193.926
 11
21.4447
 21
-194.214
  0
LINE
  8
0
 10
21.4447
 20
-194.214
 11
19.2075
 21
-202.846
  0
LINE
  8
0
 10
19.2075
 20
-202.846
 11
19.1479
 21
-203.096
  0
LINE
  8
0
 10
19.1479
 20
-203.096
 11
17.3034
 21
-211.624
  0
LINE
  8
0
 10
17.3034
 20
-211.624
 11
17.26
 21
-211.843
  0
LINE
  8
0
 10
17.26
 20
-211.843
 11
15.7671
 21
-220.148
  0
LINE
  8
0
 10
15.7671
 20
-220.148
 11
15.7356
 21
-220.34
  0
LINE
  8
0
 10
15.7356
 20
-220.34
 11
14.5546
 21
-228.302
  0
LINE
  8
0
 10
14.5546
 20
-228.302
 11
14.5318
 21
-228.472
  0
LINE
  8
0
 10
14.5318
 20
-228.472
 11
13.6247
 21
-235.973
  0
LINE
  8
0
 10
13.6247
 20
-235.973
 11
13.6083
 21
-236.123
  0
LINE
  8
0
 10
13.6083
 20
-236.123
 11
12.9382
 21
-243.044
  0
LINE
  8
0
 10
12.9382
 20
-243.044
 11
12.9265
 21
-243.179
  0
LINE
  8
0
 10
12.9265
 20
-243.179
 11
12.4581
 21
-249.399
  0
LINE
  8
0
 10
12.4581
 20
-249.399
 11
12.45
 21
-249.523
  0
LINE
  8
0
 10
12.45
 20
-249.523
 11
12.1493
 21
-254.922
  0
LINE
  8
0
 10
12.1493
 20
-254.922
 11
12.3505
 21
-256.898
  0
LINE
  8
0
 10
12.3505
 20
-256.898
 11
13.1526
 21
-258.716
  0
LINE
  8
0
 10
13.1526
 20
-258.716
 11
14.4771
 21
-260.196
  0
LINE
  8
0
 10
14.4771
 20
-260.196
 11
16.1944
 21
-261.195
  0
LINE
  8
0
 10
16.1944
 20
-261.195
 11
18.1364
 21
-261.615
  0
LINE
  8
0
 10
18.1364
 20
-261.615
 11
20.1129
 21
-261.414
  0
LINE
  8
0
 10
20.1129
 20
-261.414
 11
21.9305
 21
-260.612
  0
LINE
  8
0
 10
21.9305
 20
-260.612
 11
23.4112
 21
-259.287
  0
LINE
  8
0
 10
23.4112
 20
-259.287
 11
24.545
 21
-257.186
  0
LINE
  8
0
 10
24.545
 20
-257.186
 11
26.3841
 21
-251.359
  0
LINE
  8
0
 10
26.3841
 20
-251.359
 11
28.3481
 21
-245.816
  0
LINE
  8
0
 10
28.3481
 20
-245.816
 11
30.4748
 21
-240.479
  0
LINE
  8
0
 10
30.4748
 20
-240.479
 11
32.7725
 21
-235.36
  0
LINE
  8
0
 10
32.7725
 20
-235.36
 11
35.2484
 21
-230.476
  0
LINE
  8
0
 10
35.2484
 20
-230.476
 11
37.9105
 21
-225.837
  0
LINE
  8
0
 10
37.9105
 20
-225.837
 11
40.7668
 21
-221.457
  0
LINE
  8
0
 10
40.7668
 20
-221.457
 11
43.8256
 21
-217.344
  0
LINE
  8
0
 10
43.8256
 20
-217.344
 11
47.0963
 21
-213.508
  0
LINE
  8
0
 10
47.0963
 20
-213.508
 11
50.5895
 21
-209.955
  0
LINE
  8
0
 10
50.5895
 20
-209.955
 11
54.3186
 21
-206.692
  0
LINE
  8
0
 10
54.3186
 20
-206.692
 11
58.2988
 21
-203.725
  0
LINE
  8
0
 10
58.2988
 20
-203.725
 11
62.5486
 21
-201.058
  0
LINE
  8
0
 10
62.5486
 20
-201.058
 11
67.0876
 21
-198.7
  0
LINE
  8
0
 10
67.0876
 20
-198.7
 11
71.9387
 21
-196.661
  0
LINE
  8
0
 10
71.9387
 20
-196.661
 11
77.1233
 21
-194.953
  0
LINE
  8
0
 10
77.1233
 20
-194.953
 11
82.663
 21
-193.592
  0
LINE
  8
0
 10
82.663
 20
-193.592
 11
88.578
 21
-192.595
  0
LINE
  8
0
 10
88.578
 20
-192.595
 11
94.8863
 21
-191.982
  0
LINE
  8
0
 10
94.8863
 20
-191.982
 11
101.595
 21
-191.773
  0
LINE
  8
0
 10
101.595
 20
-191.773
 11
108.304
 21
-191.982
  0
LINE
  8
0
 10
108.304
 20
-191.982
 11
114.612
 21
-192.595
  0
LINE
  8
0
 10
114.612
 20
-192.595
 11
120.527
 21
-193.592
  0
LINE
  8
0
 10
120.527
 20
-193.592
 11
126.067
 21
-194.953
  0
LINE
  8
0
 10
126.067
 20
-194.953
 11
131.251
 21
-196.661
  0
LINE
  8
0
 10
131.251
 20
-196.661
 11
136.102
 21
-198.7
  0
LINE
  8
0
 10
136.102
 20
-198.7
 11
140.641
 21
-201.058
  0
LINE
  8
0
 10
140.641
 20
-201.058
 11
144.891
 21
-203.725
  0
LINE
  8
0
 10
144.891
 20
-203.725
 11
148.871
 21
-206.692
  0
LINE
  8
0
 10
148.871
 20
-206.692
 11
152.6
 21
-209.955
  0
LINE
  8
0
 10
152.6
 20
-209.955
 11
156.094
 21
-213.508
  0
LINE
  8
0
 10
156.094
 20
-213.508
 11
159.364
 21
-217.344
  0
LINE
  8
0
 10
159.364
 20
-217.344
 11
162.423
 21
-221.457
  0
LINE
  8
0
 10
162.423
 20
-221.457
 11
165.28
 21
-225.837
  0
LINE
  8
0
 10
165.28
 20
-225.837
 11
167.942
 21
-230.476
  0
LINE
  8
0
 10
167.942
 20
-230.476
 11
170.417
 21
-235.36
  0
LINE
  8
0
 10
170.417
 20
-235.36
 11
172.715
 21
-240.479
  0
LINE
  8
0
 10
172.715
 20
-240.479
 11
174.842
 21
-245.816
  0
LINE
  8
0
 10
174.842
 20
-245.816
 11
176.806
 21
-251.359
  0
LINE
  8
0
 10
176.806
 20
-251.359
 11
178.645
 21
-257.186
  0
LINE
  8
0
 10
178.645
 20
-257.186
 11
179.532
 21
-258.964
  0
LINE
  8
0
 10
179.532
 20
-258.964
 11
180.925
 21
-260.38
  0
LINE
  8
0
 10
180.925
 20
-260.38
 11
182.687
 21
-261.297
  0
LINE
  8
0
 10
182.687
 20
-261.297
 11
184.647
 21
-261.624
  0
LINE
  8
0
 10
184.647
 20
-261.624
 11
186.612
 21
-261.33
  0
LINE
  8
0
 10
182.828
 20
-249.342
 11
180.786
 21
-243.58
  0
LINE
  8
0
 10
180.786
 20
-243.58
 11
178.564
 21
-238.002
  0
LINE
  8
0
 10
178.564
 20
-238.002
 11
176.149
 21
-232.623
  0
LINE
  8
0
 10
176.149
 20
-232.623
 11
173.531
 21
-227.458
  0
LINE
  8
0
 10
173.531
 20
-227.458
 11
170.697
 21
-222.52
  0
LINE
  8
0
 10
170.697
 20
-222.52
 11
167.635
 21
-217.824
  0
LINE
  8
0
 10
167.635
 20
-217.824
 11
164.334
 21
-213.385
  0
LINE
  8
0
 10
164.334
 20
-213.385
 11
160.78
 21
-209.216
  0
LINE
  8
0
 10
160.78
 20
-209.216
 11
156.961
 21
-205.333
  0
LINE
  8
0
 10
156.961
 20
-205.333
 11
152.866
 21
-201.75
  0
LINE
  8
0
 10
152.866
 20
-201.75
 11
148.482
 21
-198.482
  0
LINE
  8
0
 10
148.482
 20
-198.482
 11
143.798
 21
-195.542
  0
LINE
  8
0
 10
143.798
 20
-195.542
 11
138.801
 21
-192.946
  0
LINE
  8
0
 10
138.801
 20
-192.946
 11
133.479
 21
-190.709
  0
LINE
  8
0
 10
133.479
 20
-190.709
 11
127.82
 21
-188.845
  0
LINE
  8
0
 10
127.82
 20
-188.845
 11
121.814
 21
-187.369
  0
LINE
  8
0
 10
121.814
 20
-187.369
 11
115.448
 21
-186.296
  0
LINE
  8
0
 10
115.448
 20
-186.296
 11
108.71
 21
-185.642
  0
LINE
  8
0
 10
108.71
 20
-185.642
 11
101.595
 21
-185.42
  0
LINE
  8
0
 10
101.595
 20
-185.42
 11
94.4799
 21
-185.642
  0
LINE
  8
0
 10
94.4799
 20
-185.642
 11
87.7424
 21
-186.296
  0
LINE
  8
0
 10
87.7424
 20
-186.296
 11
81.3762
 21
-187.369
  0
LINE
  8
0
 10
81.3762
 20
-187.369
 11
75.3696
 21
-188.845
  0
LINE
  8
0
 10
75.3696
 20
-188.845
 11
69.7113
 21
-190.709
  0
LINE
  8
0
 10
69.7113
 20
-190.709
 11
64.3893
 21
-192.946
  0
LINE
  8
0
 10
64.3893
 20
-192.946
 11
59.3921
 21
-195.542
  0
LINE
  8
0
 10
59.3921
 20
-195.542
 11
54.7076
 21
-198.482
  0
LINE
  8
0
 10
54.7076
 20
-198.482
 11
50.3238
 21
-201.75
  0
LINE
  8
0
 10
50.3238
 20
-201.75
 11
46.2288
 21
-205.333
  0
LINE
  8
0
 10
46.2288
 20
-205.333
 11
42.4104
 21
-209.216
  0
LINE
  8
0
 10
42.4104
 20
-209.216
 11
38.8564
 21
-213.385
  0
LINE
  8
0
 10
38.8564
 20
-213.385
 11
35.5547
 21
-217.824
  0
LINE
  8
0
 10
35.5547
 20
-217.824
 11
32.4929
 21
-222.52
  0
LINE
  8
0
 10
32.4929
 20
-222.52
 11
29.6589
 21
-227.458
  0
LINE
  8
0
 10
29.6589
 20
-227.458
 11
27.0407
 21
-232.623
  0
LINE
  8
0
 10
27.0407
 20
-232.623
 11
24.6262
 21
-238.002
  0
LINE
  8
0
 10
24.6262
 20
-238.002
 11
22.4037
 21
-243.58
  0
LINE
  8
0
 10
22.4037
 20
-243.58
 11
20.3618
 21
-249.342
  0
LINE
  8
0
 10
20.3618
 20
-249.342
 11
18.4895
 21
-255.275
  0
LINE
  8
0
 10
18.4895
 20
-255.275
 11
18.7901
 21
-249.876
  0
LINE
  8
0
 10
18.7901
 20
-249.876
 11
19.2586
 21
-243.656
  0
LINE
  8
0
 10
19.2586
 20
-243.656
 11
19.9288
 21
-236.736
  0
LINE
  8
0
 10
19.9288
 20
-236.736
 11
20.8359
 21
-229.234
  0
LINE
  8
0
 10
20.8359
 20
-229.234
 11
22.0169
 21
-221.271
  0
LINE
  8
0
 10
22.0169
 20
-221.271
 11
23.5098
 21
-212.967
  0
LINE
  8
0
 10
23.5098
 20
-212.967
 11
25.3544
 21
-204.439
  0
LINE
  8
0
 10
25.3544
 20
-204.439
 11
27.5916
 21
-195.807
  0
LINE
  8
0
 10
27.5916
 20
-195.807
 11
30.2641
 21
-187.189
  0
LINE
  8
0
 10
30.2641
 20
-187.189
 11
33.4154
 21
-178.703
  0
LINE
  8
0
 10
33.4154
 20
-178.703
 11
37.0907
 21
-170.467
  0
LINE
  8
0
 10
37.0907
 20
-170.467
 11
41.3359
 21
-162.599
  0
LINE
  8
0
 10
41.3359
 20
-162.599
 11
46.1981
 21
-155.217
  0
LINE
  8
0
 10
46.1981
 20
-155.217
 11
51.7251
 21
-148.437
  0
LINE
  8
0
 10
51.7251
 20
-148.437
 11
57.9654
 21
-142.377
  0
LINE
  8
0
 10
57.9654
 20
-142.377
 11
64.9683
 21
-137.155
  0
LINE
  8
0
 10
64.9683
 20
-137.155
 11
72.7832
 21
-132.889
  0
LINE
  8
0
 10
72.7832
 20
-132.889
 11
81.4601
 21
-129.696
  0
LINE
  8
0
 10
81.4601
 20
-129.696
 11
91.049
 21
-127.694
  0
LINE
  8
0
 10
91.049
 20
-127.694
 11
101.59
 21
-127.001
  0
LINE
  8
0
 10
101.59
 20
-127.001
 11
112.141
 21
-127.694
  0
LINE
  8
0
 10
112.141
 20
-127.694
 11
121.73
 21
-129.696
  0
LINE
  8
0
 10
121.73
 20
-129.696
 11
130.407
 21
-132.889
  0
LINE
  8
0
 10
130.407
 20
-132.889
 11
138.222
 21
-137.155
  0
LINE
  8
0
 10
138.222
 20
-137.155
 11
145.225
 21
-142.377
  0
LINE
  8
0
 10
145.225
 20
-142.377
 11
151.465
 21
-148.437
  0
LINE
  8
0
 10
151.465
 20
-148.437
 11
156.992
 21
-155.217
  0
LINE
  8
0
 10
156.992
 20
-155.217
 11
161.854
 21
-162.599
  0
LINE
  8
0
 10
161.854
 20
-162.599
 11
166.099
 21
-170.467
  0
LINE
  8
0
 10
166.099
 20
-170.467
 11
169.775
 21
-178.703
  0
LINE
  8
0
 10
169.775
 20
-178.703
 11
172.926
 21
-187.189
  0
LINE
  8
0
 10
172.926
 20
-187.189
 11
175.598
 21
-195.807
  0
LINE
  8
0
 10
175.598
 20
-195.807
 11
177.836
 21
-204.439
  0
LINE
  8
0
 10
177.836
 20
-204.439
 11
179.68
 21
-212.967
  0
LINE
  8
0
 10
179.68
 20
-212.967
 11
181.173
 21
-221.271
  0
LINE
  8
0
 10
181.173
 20
-221.271
 11
182.354
 21
-229.234
  0
LINE
  8
0
 10
182.354
 20
-229.234
 11
183.261
 21
-236.736
  0
LINE
  8
0
 10
183.261
 20
-236.736
 11
183.931
 21
-243.656
  0
LINE
  8
0
 10
183.931
 20
-243.656
 11
184.4
 21
-249.876
  0
LINE
  8
0
 10
184.4
 20
-249.876
 11
184.701
 21
-255.275
  0
LINE
  8
0
 10
184.701
 20
-255.275
 11
182.828
 21
-249.342
  0
ENDSEC
  0
SECTION
  2
OBJECTS
  0
DICTIONARY
  0
ENDSEC
  0
EOF
