  0
SECTION
  2
BLOCKS
  0
ENDSEC
  0
SECTION
  2
ENTITIES
  0
LINE
  8
0
 10
154.347
 20
208.497
 11
165.174
 21
209.705
  0
LINE
  8
0
 10
165.174
 20
209.705
 11
166.187
 21
209.86
  0
LINE
  8
0
 10
166.187
 20
209.86
 11
176.165
 21
211.799
  0
LINE
  8
0
 10
176.165
 20
211.799
 11
177.249
 21
212.059
  0
LINE
  8
0
 10
177.249
 20
212.059
 11
186.411
 21
214.692
  0
LINE
  8
0
 10
186.411
 20
214.692
 11
187.543
 21
215.075
  0
LINE
  8
0
 10
187.543
 20
215.075
 11
195.923
 21
218.363
  0
LINE
  8
0
 10
195.923
 20
218.363
 11
197.071
 21
218.881
  0
LINE
  8
0
 10
197.071
 20
218.881
 11
204.701
 21
222.787
  0
LINE
  8
0
 10
204.701
 20
222.787
 11
205.827
 21
223.439
  0
LINE
  8
0
 10
205.827
 20
223.439
 11
212.74
 21
227.925
  0
LINE
  8
0
 10
212.74
 20
227.925
 11
213.803
 21
228.696
  0
LINE
  8
0
 10
213.803
 20
228.696
 11
220.033
 21
233.724
  0
LINE
  8
0
 10
220.033
 20
233.724
 11
220.999
 21
234.589
  0
LINE
  8
0
 10
220.999
 20
234.589
 11
226.578
 21
240.121
  0
LINE
  8
0
 10
226.578
 20
240.121
 11
227.422
 21
241.045
  0
LINE
  8
0
 10
227.422
 20
241.045
 11
232.383
 21
247.043
  0
LINE
  8
0
 10
232.383
 20
247.043
 11
233.094
 21
247.989
  0
LINE
  8
0
 10
233.094
 20
247.989
 11
237.471
 21
254.415
  0
LINE
  8
0
 10
237.471
 20
254.415
 11
238.049
 21
255.349
  0
LINE
  8
0
 10
238.049
 20
255.349
 11
241.875
 21
262.166
  0
LINE
  8
0
 10
241.875
 20
262.166
 11
242.332
 21
263.061
  0
LINE
  8
0
 10
242.332
 20
263.061
 11
245.639
 21
270.231
  0
LINE
  8
0
 10
245.639
 20
270.231
 11
245.99
 21
271.07
  0
LINE
  8
0
 10
245.99
 20
271.07
 11
248.813
 21
278.555
  0
LINE
  8
0
 10
248.813
 20
278.555
 11
249.076
 21
279.326
  0
LINE
  8
0
 10
249.076
 20
279.326
 11
251.446
 21
287.089
  0
LINE
  8
0
 10
251.446
 20
287.089
 11
251.638
 21
287.789
  0
LINE
  8
0
 10
251.638
 20
287.789
 11
253.59
 21
295.793
  0
LINE
  8
0
 10
253.59
 20
295.793
 11
253.727
 21
296.42
  0
LINE
  8
0
 10
253.727
 20
296.42
 11
255.294
 21
304.629
  0
LINE
  8
0
 10
255.294
 20
304.629
 11
255.388
 21
305.186
  0
LINE
  8
0
 10
255.388
 20
305.186
 11
256.604
 21
313.564
  0
LINE
  8
0
 10
256.604
 20
313.564
 11
256.666
 21
314.054
  0
LINE
  8
0
 10
256.666
 20
314.054
 11
257.565
 21
322.565
  0
LINE
  8
0
 10
257.565
 20
322.565
 11
257.603
 21
322.994
  0
LINE
  8
0
 10
257.603
 20
322.994
 11
258.218
 21
331.603
  0
LINE
  8
0
 10
258.218
 20
331.603
 11
258.239
 21
331.973
  0
LINE
  8
0
 10
258.239
 20
331.973
 11
258.605
 21
340.635
  0
LINE
  8
0
 10
258.605
 20
340.635
 11
258.576
 21
340.637
  0
LINE
  8
0
 10
258.576
 20
340.637
 11
258.615
 21
340.899
  0
LINE
  8
0
 10
258.615
 20
340.899
 11
258.739
 21
346.699
  0
LINE
  8
0
 10
258.739
 20
346.699
 11
258.742
 21
346.878
  0
LINE
  8
0
 10
258.742
 20
346.878
 11
258.785
 21
352.838
  0
LINE
  8
0
 10
258.785
 20
352.838
 11
258.755
 21
358.771
  0
LINE
  8
0
 10
258.755
 20
358.771
 11
258.664
 21
364.666
  0
LINE
  8
0
 10
258.664
 20
364.666
 11
258.522
 21
370.516
  0
LINE
  8
0
 10
258.522
 20
370.516
 11
258.34
 21
376.312
  0
LINE
  8
0
 10
258.34
 20
376.312
 11
258.129
 21
382.045
  0
LINE
  8
0
 10
258.129
 20
382.045
 11
257.898
 21
387.708
  0
LINE
  8
0
 10
257.898
 20
387.708
 11
257.424
 21
398.795
  0
LINE
  8
0
 10
257.424
 20
398.795
 11
257.201
 21
404.196
  0
LINE
  8
0
 10
257.201
 20
404.196
 11
257.001
 21
409.506
  0
LINE
  8
0
 10
257.001
 20
409.506
 11
256.834
 21
414.696
  0
LINE
  8
0
 10
256.834
 20
414.696
 11
256.71
 21
419.774
  0
LINE
  8
0
 10
256.71
 20
419.774
 11
256.64
 21
424.724
  0
LINE
  8
0
 10
256.64
 20
424.724
 11
256.633
 21
429.544
  0
LINE
  8
0
 10
256.633
 20
429.544
 11
256.698
 21
434.23
  0
LINE
  8
0
 10
256.698
 20
434.23
 11
256.845
 21
438.776
  0
LINE
  8
0
 10
256.845
 20
438.776
 11
257.082
 21
443.181
  0
LINE
  8
0
 10
257.082
 20
443.181
 11
257.432
 21
447.624
  0
LINE
  8
0
 10
257.432
 20
447.624
 11
257.431
 21
447.636
  0
LINE
  8
0
 10
257.431
 20
447.636
 11
258.036
 21
454.9
  0
LINE
  8
0
 10
258.036
 20
454.9
 11
258.052
 21
455.105
  0
LINE
  8
0
 10
258.052
 20
455.105
 11
258.521
 21
462.116
  0
LINE
  8
0
 10
258.521
 20
462.116
 11
258.88
 21
468.635
  0
LINE
  8
0
 10
258.88
 20
468.635
 11
259.175
 21
474.696
  0
LINE
  8
0
 10
259.175
 20
474.696
 11
259.459
 21
480.404
  0
LINE
  8
0
 10
259.459
 20
480.404
 11
259.777
 21
485.745
  0
LINE
  8
0
 10
259.777
 20
485.745
 11
260.179
 21
490.78
  0
LINE
  8
0
 10
260.179
 20
490.78
 11
260.709
 21
495.571
  0
LINE
  8
0
 10
260.709
 20
495.571
 11
261.41
 21
500.184
  0
LINE
  8
0
 10
261.41
 20
500.184
 11
262.327
 21
504.691
  0
LINE
  8
0
 10
262.327
 20
504.691
 11
263.501
 21
509.152
  0
LINE
  8
0
 10
263.501
 20
509.152
 11
264.98
 21
513.626
  0
LINE
  8
0
 10
264.98
 20
513.626
 11
266.807
 21
518.152
  0
LINE
  8
0
 10
266.807
 20
518.152
 11
269.03
 21
522.758
  0
LINE
  8
0
 10
269.03
 20
522.758
 11
271.69
 21
527.459
  0
LINE
  8
0
 10
271.69
 20
527.459
 11
274.829
 21
532.258
  0
LINE
  8
0
 10
274.829
 20
532.258
 11
278.48
 21
537.152
  0
LINE
  8
0
 10
278.48
 20
537.152
 11
282.675
 21
542.132
  0
LINE
  8
0
 10
282.675
 20
542.132
 11
287.44
 21
547.183
  0
LINE
  8
0
 10
287.44
 20
547.183
 11
293.027
 21
552.51
  0
LINE
  8
0
 10
293.027
 20
552.51
 11
294.747
 21
554.533
  0
LINE
  8
0
 10
294.747
 20
554.533
 11
296.008
 21
556.869
  0
LINE
  8
0
 10
296.008
 20
556.869
 11
296.756
 21
559.417
  0
LINE
  8
0
 10
296.756
 20
559.417
 11
296.958
 21
562.064
  0
LINE
  8
0
 10
296.958
 20
562.064
 11
296.605
 21
564.696
  0
LINE
  8
0
 10
296.605
 20
564.696
 11
295.713
 21
567.196
  0
LINE
  8
0
 10
295.713
 20
567.196
 11
294.32
 21
569.457
  0
LINE
  8
0
 10
294.32
 20
569.457
 11
292.853
 21
571.057
  0
LINE
  8
0
 10
292.853
 20
571.057
 11
259.122
 21
602.027
  0
LINE
  8
0
 10
259.122
 20
602.027
 11
256.989
 21
603.609
  0
LINE
  8
0
 10
256.989
 20
603.609
 11
254.575
 21
604.712
  0
LINE
  8
0
 10
254.575
 20
604.712
 11
251.983
 21
605.289
  0
LINE
  8
0
 10
251.983
 20
605.289
 11
249.328
 21
605.315
  0
LINE
  8
0
 10
249.328
 20
605.315
 11
246.726
 21
604.788
  0
LINE
  8
0
 10
246.726
 20
604.788
 11
244.29
 21
603.732
  0
LINE
  8
0
 10
244.29
 20
603.732
 11
241.988
 21
602.068
  0
LINE
  8
0
 10
241.988
 20
602.068
 11
233.617
 21
594.454
  0
LINE
  8
0
 10
233.617
 20
594.454
 11
225.828
 21
587.199
  0
LINE
  8
0
 10
225.828
 20
587.199
 11
225.706
 21
587.084
  0
LINE
  8
0
 10
225.706
 20
587.084
 11
218.377
 21
580.075
  0
LINE
  8
0
 10
218.377
 20
580.075
 11
218.245
 21
579.947
  0
LINE
  8
0
 10
218.245
 20
579.947
 11
211.364
 21
573.171
  0
LINE
  8
0
 10
211.364
 20
573.171
 11
211.221
 21
573.028
  0
LINE
  8
0
 10
211.221
 20
573.028
 11
204.77
 21
566.471
  0
LINE
  8
0
 10
204.77
 20
566.471
 11
204.615
 21
566.312
  0
LINE
  8
0
 10
204.615
 20
566.312
 11
198.574
 21
559.953
  0
LINE
  8
0
 10
198.574
 20
559.953
 11
198.406
 21
559.773
  0
LINE
  8
0
 10
198.406
 20
559.773
 11
192.753
 21
553.587
  0
LINE
  8
0
 10
192.753
 20
553.587
 11
192.57
 21
553.382
  0
LINE
  8
0
 10
192.57
 20
553.382
 11
187.28
 21
547.336
  0
LINE
  8
0
 10
187.28
 20
547.336
 11
187.08
 21
547.1
  0
LINE
  8
0
 10
187.08
 20
547.1
 11
182.128
 21
541.154
  0
LINE
  8
0
 10
182.128
 20
541.154
 11
181.909
 21
540.883
  0
LINE
  8
0
 10
181.909
 20
540.883
 11
177.267
 21
534.988
  0
LINE
  8
0
 10
177.267
 20
534.988
 11
177.031
 21
534.678
  0
LINE
  8
0
 10
177.031
 20
534.678
 11
172.672
 21
528.778
  0
LINE
  8
0
 10
172.672
 20
528.778
 11
172.423
 21
528.428
  0
LINE
  8
0
 10
172.423
 20
528.428
 11
168.318
 21
522.461
  0
LINE
  8
0
 10
168.318
 20
522.461
 11
168.063
 21
522.074
  0
LINE
  8
0
 10
168.063
 20
522.074
 11
164.186
 21
515.972
  0
LINE
  8
0
 10
164.186
 20
515.972
 11
163.932
 21
515.555
  0
LINE
  8
0
 10
163.932
 20
515.555
 11
160.259
 21
509.25
  0
LINE
  8
0
 10
160.259
 20
509.25
 11
160.016
 21
508.813
  0
LINE
  8
0
 10
160.016
 20
508.813
 11
156.524
 21
502.237
  0
LINE
  8
0
 10
156.524
 20
502.237
 11
156.299
 21
501.793
  0
LINE
  8
0
 10
156.299
 20
501.793
 11
152.967
 21
494.878
  0
LINE
  8
0
 10
152.967
 20
494.878
 11
152.766
 21
494.439
  0
LINE
  8
0
 10
152.766
 20
494.439
 11
152.4
 21
493.599
  0
LINE
  8
0
 10
152.4
 20
493.599
 11
152.034
 21
494.439
  0
LINE
  8
0
 10
152.034
 20
494.439
 11
151.833
 21
494.878
  0
LINE
  8
0
 10
151.833
 20
494.878
 11
148.501
 21
501.793
  0
LINE
  8
0
 10
148.501
 20
501.793
 11
148.276
 21
502.237
  0
LINE
  8
0
 10
148.276
 20
502.237
 11
144.784
 21
508.813
  0
LINE
  8
0
 10
144.784
 20
508.813
 11
144.541
 21
509.25
  0
LINE
  8
0
 10
144.541
 20
509.25
 11
140.868
 21
515.555
  0
LINE
  8
0
 10
140.868
 20
515.555
 11
140.614
 21
515.972
  0
LINE
  8
0
 10
140.614
 20
515.972
 11
136.737
 21
522.074
  0
LINE
  8
0
 10
136.737
 20
522.074
 11
136.482
 21
522.461
  0
LINE
  8
0
 10
136.482
 20
522.461
 11
132.377
 21
528.428
  0
LINE
  8
0
 10
132.377
 20
528.428
 11
132.128
 21
528.778
  0
LINE
  8
0
 10
132.128
 20
528.778
 11
127.769
 21
534.678
  0
LINE
  8
0
 10
127.769
 20
534.678
 11
127.533
 21
534.988
  0
LINE
  8
0
 10
127.533
 20
534.988
 11
122.891
 21
540.883
  0
LINE
  8
0
 10
122.891
 20
540.883
 11
122.672
 21
541.154
  0
LINE
  8
0
 10
122.672
 20
541.154
 11
117.72
 21
547.1
  0
LINE
  8
0
 10
117.72
 20
547.1
 11
117.52
 21
547.336
  0
LINE
  8
0
 10
117.52
 20
547.336
 11
112.23
 21
553.382
  0
LINE
  8
0
 10
112.23
 20
553.382
 11
112.047
 21
553.587
  0
LINE
  8
0
 10
112.047
 20
553.587
 11
106.394
 21
559.773
  0
LINE
  8
0
 10
106.394
 20
559.773
 11
106.226
 21
559.953
  0
LINE
  8
0
 10
106.226
 20
559.953
 11
100.185
 21
566.312
  0
LINE
  8
0
 10
100.185
 20
566.312
 11
100.03
 21
566.471
  0
LINE
  8
0
 10
100.03
 20
566.471
 11
93.579
 21
573.028
  0
LINE
  8
0
 10
93.579
 20
573.028
 11
93.4363
 21
573.171
  0
LINE
  8
0
 10
93.4363
 20
573.171
 11
86.5549
 21
579.947
  0
LINE
  8
0
 10
86.5549
 20
579.947
 11
86.4226
 21
580.075
  0
LINE
  8
0
 10
86.4226
 20
580.075
 11
79.0941
 21
587.084
  0
LINE
  8
0
 10
79.0941
 20
587.084
 11
78.9721
 21
587.199
  0
LINE
  8
0
 10
78.9721
 20
587.199
 11
71.0718
 21
594.556
  0
LINE
  8
0
 10
71.0718
 20
594.556
 11
62.8121
 21
602.068
  0
LINE
  8
0
 10
62.8121
 20
602.068
 11
60.6719
 21
603.639
  0
LINE
  8
0
 10
60.6719
 20
603.639
 11
58.2518
 21
604.731
  0
LINE
  8
0
 10
58.2518
 20
604.731
 11
55.6576
 21
605.296
  0
LINE
  8
0
 10
55.6576
 20
605.296
 11
53.0026
 21
605.309
  0
LINE
  8
0
 10
53.0026
 20
605.309
 11
50.4029
 21
604.77
  0
LINE
  8
0
 10
50.4029
 20
604.77
 11
47.9721
 21
603.702
  0
LINE
  8
0
 10
47.9721
 20
603.702
 11
45.6779
 21
602.027
  0
LINE
  8
0
 10
45.6779
 20
602.027
 11
11.9474
 21
571.057
  0
LINE
  8
0
 10
11.9474
 20
571.057
 11
10.1902
 21
569.066
  0
LINE
  8
0
 10
10.1902
 20
569.066
 11
8.88509
 21
566.754
  0
LINE
  8
0
 10
8.88509
 20
566.754
 11
8.08925
 21
564.221
  0
LINE
  8
0
 10
8.08925
 20
564.221
 11
7.83743
 21
561.578
  0
LINE
  8
0
 10
7.83743
 20
561.578
 11
8.14064
 21
558.94
  0
LINE
  8
0
 10
8.14064
 20
558.94
 11
8.98563
 21
556.423
  0
LINE
  8
0
 10
8.98563
 20
556.423
 11
10.3354
 21
554.137
  0
LINE
  8
0
 10
10.3354
 20
554.137
 11
11.773
 21
552.51
  0
LINE
  8
0
 10
11.773
 20
552.51
 11
17.3601
 21
547.183
  0
LINE
  8
0
 10
17.3601
 20
547.183
 11
22.1245
 21
542.132
  0
LINE
  8
0
 10
22.1245
 20
542.132
 11
26.3196
 21
537.152
  0
LINE
  8
0
 10
26.3196
 20
537.152
 11
29.971
 21
532.258
  0
LINE
  8
0
 10
29.971
 20
532.258
 11
33.1095
 21
527.459
  0
LINE
  8
0
 10
33.1095
 20
527.459
 11
35.7701
 21
522.758
  0
LINE
  8
0
 10
35.7701
 20
522.758
 11
37.9929
 21
518.152
  0
LINE
  8
0
 10
37.9929
 20
518.152
 11
39.8205
 21
513.626
  0
LINE
  8
0
 10
39.8205
 20
513.626
 11
41.2988
 21
509.152
  0
LINE
  8
0
 10
41.2988
 20
509.152
 11
42.4733
 21
504.691
  0
LINE
  8
0
 10
42.4733
 20
504.691
 11
43.3897
 21
500.184
  0
LINE
  8
0
 10
43.3897
 20
500.184
 11
44.0913
 21
495.571
  0
LINE
  8
0
 10
44.0913
 20
495.571
 11
44.6212
 21
490.78
  0
LINE
  8
0
 10
44.6212
 20
490.78
 11
45.0226
 21
485.745
  0
LINE
  8
0
 10
45.0226
 20
485.745
 11
45.3412
 21
480.404
  0
LINE
  8
0
 10
45.3412
 20
480.404
 11
45.6249
 21
474.696
  0
LINE
  8
0
 10
45.6249
 20
474.696
 11
45.9243
 21
468.555
  0
LINE
  8
0
 10
45.9243
 20
468.555
 11
46.288
 21
461.964
  0
LINE
  8
0
 10
46.288
 20
461.964
 11
46.7482
 21
455.105
  0
LINE
  8
0
 10
46.7482
 20
455.105
 11
46.7635
 21
454.9
  0
LINE
  8
0
 10
46.7635
 20
454.9
 11
47.3689
 21
447.632
  0
LINE
  8
0
 10
47.3689
 20
447.632
 11
47.3683
 21
447.624
  0
LINE
  8
0
 10
47.3683
 20
447.624
 11
47.7184
 21
443.181
  0
LINE
  8
0
 10
47.7184
 20
443.181
 11
47.9555
 21
438.776
  0
LINE
  8
0
 10
47.9555
 20
438.776
 11
48.1022
 21
434.23
  0
LINE
  8
0
 10
48.1022
 20
434.23
 11
48.1674
 21
429.544
  0
LINE
  8
0
 10
48.1674
 20
429.544
 11
48.1601
 21
424.724
  0
LINE
  8
0
 10
48.1601
 20
424.724
 11
48.0899
 21
419.774
  0
LINE
  8
0
 10
48.0899
 20
419.774
 11
47.9662
 21
414.696
  0
LINE
  8
0
 10
47.9662
 20
414.696
 11
47.7994
 21
409.506
  0
LINE
  8
0
 10
47.7994
 20
409.506
 11
47.5989
 21
404.196
  0
LINE
  8
0
 10
47.5989
 20
404.196
 11
47.3759
 21
398.795
  0
LINE
  8
0
 10
47.3759
 20
398.795
 11
46.9004
 21
387.68
  0
LINE
  8
0
 10
46.9004
 20
387.68
 11
46.6696
 21
381.997
  0
LINE
  8
0
 10
46.6696
 20
381.997
 11
46.4577
 21
376.243
  0
LINE
  8
0
 10
46.4577
 20
376.243
 11
46.2755
 21
370.426
  0
LINE
  8
0
 10
46.2755
 20
370.426
 11
46.1337
 21
364.554
  0
LINE
  8
0
 10
46.1337
 20
364.554
 11
46.0432
 21
358.637
  0
LINE
  8
0
 10
46.0432
 20
358.637
 11
46.0152
 21
352.682
  0
LINE
  8
0
 10
46.0152
 20
352.682
 11
46.0582
 21
346.878
  0
LINE
  8
0
 10
46.0582
 20
346.878
 11
46.0607
 21
346.699
  0
LINE
  8
0
 10
46.0607
 20
346.699
 11
46.1853
 21
340.899
  0
LINE
  8
0
 10
46.1853
 20
340.899
 11
46.2186
 21
340.636
  0
LINE
  8
0
 10
46.2186
 20
340.636
 11
46.1947
 21
340.635
  0
LINE
  8
0
 10
46.1947
 20
340.635
 11
46.5606
 21
331.973
  0
LINE
  8
0
 10
46.5606
 20
331.973
 11
46.5816
 21
331.603
  0
LINE
  8
0
 10
46.5816
 20
331.603
 11
47.1974
 21
322.994
  0
LINE
  8
0
 10
47.1974
 20
322.994
 11
47.2353
 21
322.565
  0
LINE
  8
0
 10
47.2353
 20
322.565
 11
48.1344
 21
314.054
  0
LINE
  8
0
 10
48.1344
 20
314.054
 11
48.1959
 21
313.564
  0
LINE
  8
0
 10
48.1959
 20
313.564
 11
49.4123
 21
305.186
  0
LINE
  8
0
 10
49.4123
 20
305.186
 11
49.5059
 21
304.629
  0
LINE
  8
0
 10
49.5059
 20
304.629
 11
51.0734
 21
296.42
  0
LINE
  8
0
 10
51.0734
 20
296.42
 11
51.2097
 21
295.793
  0
LINE
  8
0
 10
51.2097
 20
295.793
 11
53.1619
 21
287.789
  0
LINE
  8
0
 10
53.1619
 20
287.789
 11
53.3539
 21
287.089
  0
LINE
  8
0
 10
53.3539
 20
287.089
 11
55.7244
 21
279.326
  0
LINE
  8
0
 10
55.7244
 20
279.326
 11
55.9874
 21
278.555
  0
LINE
  8
0
 10
55.9874
 20
278.555
 11
58.8096
 21
271.07
  0
LINE
  8
0
 10
58.8096
 20
271.07
 11
59.1608
 21
270.231
  0
LINE
  8
0
 10
59.1608
 20
270.231
 11
62.468
 21
263.061
  0
LINE
  8
0
 10
62.468
 20
263.061
 11
62.925
 21
262.166
  0
LINE
  8
0
 10
62.925
 20
262.166
 11
66.7505
 21
255.349
  0
LINE
  8
0
 10
66.7505
 20
255.349
 11
67.3291
 21
254.415
  0
LINE
  8
0
 10
67.3291
 20
254.415
 11
71.7061
 21
247.989
  0
LINE
  8
0
 10
71.7061
 20
247.989
 11
72.4166
 21
247.043
  0
LINE
  8
0
 10
72.4166
 20
247.043
 11
77.3783
 21
241.045
  0
LINE
  8
0
 10
77.3783
 20
241.045
 11
78.222
 21
240.121
  0
LINE
  8
0
 10
78.222
 20
240.121
 11
83.8011
 21
234.589
  0
LINE
  8
0
 10
83.8011
 20
234.589
 11
84.7669
 21
233.724
  0
LINE
  8
0
 10
84.7669
 20
233.724
 11
90.9967
 21
228.696
  0
LINE
  8
0
 10
90.9967
 20
228.696
 11
92.06
 21
227.925
  0
LINE
  8
0
 10
92.06
 20
227.925
 11
98.9733
 21
223.439
  0
LINE
  8
0
 10
98.9733
 20
223.439
 11
100.099
 21
222.787
  0
LINE
  8
0
 10
100.099
 20
222.787
 11
107.729
 21
218.881
  0
LINE
  8
0
 10
107.729
 20
218.881
 11
108.877
 21
218.363
  0
LINE
  8
0
 10
108.877
 20
218.363
 11
117.257
 21
215.075
  0
LINE
  8
0
 10
117.257
 20
215.075
 11
118.389
 21
214.692
  0
LINE
  8
0
 10
118.389
 20
214.692
 11
127.551
 21
212.059
  0
LINE
  8
0
 10
127.551
 20
212.059
 11
128.635
 21
211.799
  0
LINE
  8
0
 10
128.635
 20
211.799
 11
138.613
 21
209.86
  0
LINE
  8
0
 10
138.613
 20
209.86
 11
139.626
 21
209.705
  0
LINE
  8
0
 10
139.626
 20
209.705
 11
150.453
 21
208.497
  0
LINE
  8
0
 10
150.453
 20
208.497
 11
152.094
 21
208.486
  0
LINE
  8
0
 10
152.094
 20
208.486
 11
152.547
 21
208.424
  0
LINE
  8
0
 10
152.547
 20
208.424
 11
154.347
 21
208.497
  0
LINE
  8
0
 10
152.185
 20
214.337
 11
151.101
 21
214.303
  0
LINE
  8
0
 10
151.101
 20
214.303
 11
140.274
 21
215.511
  0
LINE
  8
0
 10
140.274
 20
215.511
 11
139.727
 21
215.595
  0
LINE
  8
0
 10
139.727
 20
215.595
 11
129.75
 21
217.534
  0
LINE
  8
0
 10
129.75
 20
217.534
 11
129.164
 21
217.674
  0
LINE
  8
0
 10
129.164
 20
217.674
 11
120.002
 21
220.306
  0
LINE
  8
0
 10
120.002
 20
220.306
 11
119.391
 21
220.514
  0
LINE
  8
0
 10
119.391
 20
220.514
 11
111.011
 21
223.802
  0
LINE
  8
0
 10
111.011
 20
223.802
 11
110.391
 21
224.081
  0
LINE
  8
0
 10
110.391
 20
224.081
 11
102.761
 21
227.988
  0
LINE
  8
0
 10
102.761
 20
227.988
 11
102.153
 21
228.339
  0
LINE
  8
0
 10
102.153
 20
228.339
 11
95.2401
 21
232.826
  0
LINE
  8
0
 10
95.2401
 20
232.826
 11
94.666
 21
233.242
  0
LINE
  8
0
 10
94.666
 20
233.242
 11
88.4362
 21
238.27
  0
LINE
  8
0
 10
88.4362
 20
238.27
 11
87.9147
 21
238.737
  0
LINE
  8
0
 10
87.9147
 20
238.737
 11
82.3355
 21
244.27
  0
LINE
  8
0
 10
82.3355
 20
244.27
 11
81.8799
 21
244.768
  0
LINE
  8
0
 10
81.8799
 20
244.768
 11
76.9182
 21
250.767
  0
LINE
  8
0
 10
76.9182
 20
250.767
 11
76.5345
 21
251.277
  0
LINE
  8
0
 10
76.5345
 20
251.277
 11
72.1575
 21
257.704
  0
LINE
  8
0
 10
72.1575
 20
257.704
 11
71.8451
 21
258.208
  0
LINE
  8
0
 10
71.8451
 20
258.208
 11
68.0196
 21
265.025
  0
LINE
  8
0
 10
68.0196
 20
265.025
 11
67.7728
 21
265.508
  0
LINE
  8
0
 10
67.7728
 20
265.508
 11
64.4655
 21
272.678
  0
LINE
  8
0
 10
64.4655
 20
272.678
 11
64.2759
 21
273.131
  0
LINE
  8
0
 10
64.2759
 20
273.131
 11
61.4537
 21
280.616
  0
LINE
  8
0
 10
61.4537
 20
280.616
 11
61.3117
 21
281.032
  0
LINE
  8
0
 10
61.3117
 20
281.032
 11
58.9412
 21
288.795
  0
LINE
  8
0
 10
58.9412
 20
288.795
 11
58.8375
 21
289.173
  0
LINE
  8
0
 10
58.8375
 20
289.173
 11
56.8853
 21
297.177
  0
LINE
  8
0
 10
56.8853
 20
297.177
 11
56.8117
 21
297.516
  0
LINE
  8
0
 10
56.8117
 20
297.516
 11
55.2442
 21
305.725
  0
LINE
  8
0
 10
55.2442
 20
305.725
 11
55.1937
 21
306.026
  0
LINE
  8
0
 10
55.1937
 20
306.026
 11
53.9773
 21
314.403
  0
LINE
  8
0
 10
53.9773
 20
314.403
 11
53.9441
 21
314.668
  0
LINE
  8
0
 10
53.9441
 20
314.668
 11
53.045
 21
323.179
  0
LINE
  8
0
 10
53.045
 20
323.179
 11
53.0245
 21
323.41
  0
LINE
  8
0
 10
53.0245
 20
323.41
 11
52.4088
 21
332.019
  0
LINE
  8
0
 10
52.4088
 20
332.019
 11
52.3974
 21
332.219
  0
LINE
  8
0
 10
52.3974
 20
332.219
 11
52.0315
 21
340.882
  0
LINE
  8
0
 10
52.0315
 20
340.882
 11
52.0494
 21
340.883
  0
LINE
  8
0
 10
52.0494
 20
340.883
 11
52.0259
 21
341.024
  0
LINE
  8
0
 10
52.0259
 20
341.024
 11
51.9014
 21
346.825
  0
LINE
  8
0
 10
51.9014
 20
346.825
 11
51.857
 21
352.726
  0
LINE
  8
0
 10
51.857
 20
352.726
 11
51.8851
 21
358.608
  0
LINE
  8
0
 10
51.8851
 20
358.608
 11
51.975
 21
364.464
  0
LINE
  8
0
 10
51.975
 20
364.464
 11
52.1158
 21
370.284
  0
LINE
  8
0
 10
52.1158
 20
370.284
 11
52.2969
 21
376.06
  0
LINE
  8
0
 10
52.2969
 20
376.06
 11
52.5076
 21
381.782
  0
LINE
  8
0
 10
52.5076
 20
381.782
 11
52.7375
 21
387.443
  0
LINE
  8
0
 10
52.7375
 20
387.443
 11
53.2124
 21
398.543
  0
LINE
  8
0
 10
53.2124
 20
398.543
 11
53.4365
 21
403.967
  0
LINE
  8
0
 10
53.4365
 20
403.967
 11
53.6378
 21
409.299
  0
LINE
  8
0
 10
53.6378
 20
409.299
 11
53.806
 21
414.532
  0
LINE
  8
0
 10
53.806
 20
414.532
 11
53.9308
 21
419.66
  0
LINE
  8
0
 10
53.9308
 20
419.66
 11
54.002
 21
424.679
  0
LINE
  8
0
 10
54.002
 20
424.679
 11
54.0094
 21
429.581
  0
LINE
  8
0
 10
54.0094
 20
429.581
 11
53.9429
 21
434.364
  0
LINE
  8
0
 10
53.9429
 20
434.364
 11
53.7924
 21
439.027
  0
LINE
  8
0
 10
53.7924
 20
439.027
 11
53.548
 21
443.567
  0
LINE
  8
0
 10
53.548
 20
443.567
 11
53.1923
 21
448.082
  0
LINE
  8
0
 10
53.1923
 20
448.082
 11
53.1931
 21
448.089
  0
LINE
  8
0
 10
53.1931
 20
448.089
 11
52.5853
 21
455.385
  0
LINE
  8
0
 10
52.5853
 20
455.385
 11
52.1169
 21
462.355
  0
LINE
  8
0
 10
52.1169
 20
462.355
 11
51.7575
 21
468.876
  0
LINE
  8
0
 10
51.7575
 20
468.876
 11
51.4595
 21
474.99
  0
LINE
  8
0
 10
51.4595
 20
474.99
 11
51.1746
 21
480.723
  0
LINE
  8
0
 10
51.1746
 20
480.723
 11
50.8508
 21
486.152
  0
LINE
  8
0
 10
50.8508
 20
486.152
 11
50.4376
 21
491.334
  0
LINE
  8
0
 10
50.4376
 20
491.334
 11
49.8849
 21
496.331
  0
LINE
  8
0
 10
49.8849
 20
496.331
 11
49.1435
 21
501.206
  0
LINE
  8
0
 10
49.1435
 20
501.206
 11
48.1651
 21
506.017
  0
LINE
  8
0
 10
48.1651
 20
506.017
 11
46.9023
 21
510.814
  0
LINE
  8
0
 10
46.9023
 20
510.814
 11
45.3083
 21
515.638
  0
LINE
  8
0
 10
45.3083
 20
515.638
 11
43.3377
 21
520.518
  0
LINE
  8
0
 10
43.3377
 20
520.518
 11
40.9485
 21
525.469
  0
LINE
  8
0
 10
40.9485
 20
525.469
 11
38.1013
 21
530.499
  0
LINE
  8
0
 10
38.1013
 20
530.499
 11
34.7615
 21
535.607
  0
LINE
  8
0
 10
34.7615
 20
535.607
 11
30.8988
 21
540.784
  0
LINE
  8
0
 10
30.8988
 20
540.784
 11
26.4868
 21
546.021
  0
LINE
  8
0
 10
26.4868
 20
546.021
 11
21.5036
 21
551.304
  0
LINE
  8
0
 10
21.5036
 20
551.304
 11
15.8044
 21
556.738
  0
LINE
  8
0
 10
15.8044
 20
556.738
 11
14.8766
 21
557.83
  0
LINE
  8
0
 10
14.8766
 20
557.83
 11
14.0149
 21
559.581
  0
LINE
  8
0
 10
14.0149
 20
559.581
 11
13.6817
 21
561.504
  0
LINE
  8
0
 10
13.6817
 20
561.504
 11
13.9038
 21
563.444
  0
LINE
  8
0
 10
13.9038
 20
563.444
 11
14.6632
 21
565.242
  0
LINE
  8
0
 10
14.6632
 20
565.242
 11
15.8986
 21
566.753
  0
LINE
  8
0
 10
15.8986
 20
566.753
 11
49.6291
 21
597.724
  0
LINE
  8
0
 10
49.6291
 20
597.724
 11
51.569
 21
598.977
  0
LINE
  8
0
 10
51.569
 20
598.977
 11
53.4546
 21
599.482
  0
LINE
  8
0
 10
53.4546
 20
599.482
 11
55.406
 21
599.435
  0
LINE
  8
0
 10
55.406
 20
599.435
 11
57.2652
 21
598.84
  0
LINE
  8
0
 10
57.2652
 20
598.84
 11
58.8815
 21
597.746
  0
LINE
  8
0
 10
58.8815
 20
597.746
 11
67.1413
 21
590.234
  0
LINE
  8
0
 10
67.1413
 20
590.234
 11
74.9904
 21
582.924
  0
LINE
  8
0
 10
74.9904
 20
582.924
 11
82.3847
 21
575.853
  0
LINE
  8
0
 10
82.3847
 20
575.853
 11
89.3376
 21
569.008
  0
LINE
  8
0
 10
89.3376
 20
569.008
 11
95.8661
 21
562.374
  0
LINE
  8
0
 10
95.8661
 20
562.374
 11
95.9494
 21
562.288
  0
LINE
  8
0
 10
95.9494
 20
562.288
 11
101.991
 21
555.929
  0
LINE
  8
0
 10
101.991
 20
555.929
 11
102.081
 21
555.832
  0
LINE
  8
0
 10
102.081
 20
555.832
 11
107.734
 21
549.646
  0
LINE
  8
0
 10
107.734
 20
549.646
 11
107.833
 21
549.535
  0
LINE
  8
0
 10
107.833
 20
549.535
 11
113.123
 21
543.489
  0
LINE
  8
0
 10
113.123
 20
543.489
 11
113.231
 21
543.362
  0
LINE
  8
0
 10
113.231
 20
543.362
 11
118.183
 21
537.415
  0
LINE
  8
0
 10
118.183
 20
537.415
 11
118.301
 21
537.269
  0
LINE
  8
0
 10
118.301
 20
537.269
 11
122.943
 21
531.374
  0
LINE
  8
0
 10
122.943
 20
531.374
 11
123.07
 21
531.207
  0
LINE
  8
0
 10
123.07
 20
531.207
 11
127.429
 21
525.307
  0
LINE
  8
0
 10
127.429
 20
525.307
 11
127.564
 21
525.118
  0
LINE
  8
0
 10
127.564
 20
525.118
 11
131.668
 21
519.15
  0
LINE
  8
0
 10
131.668
 20
519.15
 11
131.806
 21
518.941
  0
LINE
  8
0
 10
131.806
 20
518.941
 11
135.683
 21
512.84
  0
LINE
  8
0
 10
135.683
 20
512.84
 11
135.82
 21
512.614
  0
LINE
  8
0
 10
135.82
 20
512.614
 11
139.493
 21
506.309
  0
LINE
  8
0
 10
139.493
 20
506.309
 11
139.624
 21
506.074
  0
LINE
  8
0
 10
139.624
 20
506.074
 11
143.117
 21
499.497
  0
LINE
  8
0
 10
143.117
 20
499.497
 11
143.238
 21
499.257
  0
LINE
  8
0
 10
143.238
 20
499.257
 11
146.569
 21
492.343
  0
LINE
  8
0
 10
146.569
 20
492.343
 11
146.678
 21
492.105
  0
LINE
  8
0
 10
146.678
 20
492.105
 11
149.865
 21
484.792
  0
LINE
  8
0
 10
149.865
 20
484.792
 11
149.96
 21
484.564
  0
LINE
  8
0
 10
149.96
 20
484.564
 11
152.4
 21
478.362
  0
LINE
  8
0
 10
152.4
 20
478.362
 11
154.84
 21
484.564
  0
LINE
  8
0
 10
154.84
 20
484.564
 11
154.935
 21
484.792
  0
LINE
  8
0
 10
154.935
 20
484.792
 11
158.122
 21
492.105
  0
LINE
  8
0
 10
158.122
 20
492.105
 11
158.23
 21
492.343
  0
LINE
  8
0
 10
158.23
 20
492.343
 11
161.562
 21
499.257
  0
LINE
  8
0
 10
161.562
 20
499.257
 11
161.683
 21
499.497
  0
LINE
  8
0
 10
161.683
 20
499.497
 11
165.176
 21
506.074
  0
LINE
  8
0
 10
165.176
 20
506.074
 11
165.307
 21
506.309
  0
LINE
  8
0
 10
165.307
 20
506.309
 11
168.98
 21
512.614
  0
LINE
  8
0
 10
168.98
 20
512.614
 11
169.117
 21
512.84
  0
LINE
  8
0
 10
169.117
 20
512.84
 11
172.994
 21
518.941
  0
LINE
  8
0
 10
172.994
 20
518.941
 11
173.132
 21
519.15
  0
LINE
  8
0
 10
173.132
 20
519.15
 11
177.236
 21
525.118
  0
LINE
  8
0
 10
177.236
 20
525.118
 11
177.371
 21
525.307
  0
LINE
  8
0
 10
177.371
 20
525.307
 11
181.73
 21
531.207
  0
LINE
  8
0
 10
181.73
 20
531.207
 11
181.857
 21
531.374
  0
LINE
  8
0
 10
181.857
 20
531.374
 11
186.499
 21
537.269
  0
LINE
  8
0
 10
186.499
 20
537.269
 11
186.617
 21
537.415
  0
LINE
  8
0
 10
186.617
 20
537.415
 11
191.569
 21
543.362
  0
LINE
  8
0
 10
191.569
 20
543.362
 11
191.677
 21
543.489
  0
LINE
  8
0
 10
191.677
 20
543.489
 11
196.967
 21
549.535
  0
LINE
  8
0
 10
196.967
 20
549.535
 11
197.066
 21
549.646
  0
LINE
  8
0
 10
197.066
 20
549.646
 11
202.719
 21
555.832
  0
LINE
  8
0
 10
202.719
 20
555.832
 11
202.809
 21
555.929
  0
LINE
  8
0
 10
202.809
 20
555.929
 11
208.851
 21
562.288
  0
LINE
  8
0
 10
208.851
 20
562.288
 11
208.934
 21
562.374
  0
LINE
  8
0
 10
208.934
 20
562.374
 11
215.385
 21
568.931
  0
LINE
  8
0
 10
215.385
 20
568.931
 11
222.344
 21
575.784
  0
LINE
  8
0
 10
222.344
 20
575.784
 11
229.744
 21
582.862
  0
LINE
  8
0
 10
229.744
 20
582.862
 11
237.599
 21
590.179
  0
LINE
  8
0
 10
237.599
 20
590.179
 11
245.918
 21
597.746
  0
LINE
  8
0
 10
245.918
 20
597.746
 11
247.864
 21
598.99
  0
LINE
  8
0
 10
247.864
 20
598.99
 11
249.752
 21
599.486
  0
LINE
  8
0
 10
249.752
 20
599.486
 11
251.704
 21
599.43
  0
LINE
  8
0
 10
251.704
 20
599.43
 11
253.56
 21
598.826
  0
LINE
  8
0
 10
253.56
 20
598.826
 11
255.171
 21
597.724
  0
LINE
  8
0
 10
255.171
 20
597.724
 11
288.901
 21
566.753
  0
LINE
  8
0
 10
288.901
 20
566.753
 11
289.85
 21
565.68
  0
LINE
  8
0
 10
289.85
 20
565.68
 11
290.744
 21
563.945
  0
LINE
  8
0
 10
290.744
 20
563.945
 11
291.113
 21
562.028
  0
LINE
  8
0
 10
291.113
 20
562.028
 11
290.928
 21
560.085
  0
LINE
  8
0
 10
290.928
 20
560.085
 11
290.202
 21
558.273
  0
LINE
  8
0
 10
290.202
 20
558.273
 11
288.996
 21
556.738
  0
LINE
  8
0
 10
288.996
 20
556.738
 11
283.296
 21
551.304
  0
LINE
  8
0
 10
283.296
 20
551.304
 11
278.313
 21
546.021
  0
LINE
  8
0
 10
278.313
 20
546.021
 11
273.901
 21
540.784
  0
LINE
  8
0
 10
273.901
 20
540.784
 11
270.039
 21
535.607
  0
LINE
  8
0
 10
270.039
 20
535.607
 11
266.699
 21
530.499
  0
LINE
  8
0
 10
266.699
 20
530.499
 11
263.851
 21
525.469
  0
LINE
  8
0
 10
263.851
 20
525.469
 11
261.462
 21
520.518
  0
LINE
  8
0
 10
261.462
 20
520.518
 11
259.492
 21
515.638
  0
LINE
  8
0
 10
259.492
 20
515.638
 11
257.898
 21
510.814
  0
LINE
  8
0
 10
257.898
 20
510.814
 11
256.635
 21
506.017
  0
LINE
  8
0
 10
256.635
 20
506.017
 11
255.657
 21
501.206
  0
LINE
  8
0
 10
255.657
 20
501.206
 11
254.915
 21
496.331
  0
LINE
  8
0
 10
254.915
 20
496.331
 11
254.362
 21
491.334
  0
LINE
  8
0
 10
254.362
 20
491.334
 11
253.949
 21
486.152
  0
LINE
  8
0
 10
253.949
 20
486.152
 11
253.625
 21
480.723
  0
LINE
  8
0
 10
253.625
 20
480.723
 11
253.34
 21
474.99
  0
LINE
  8
0
 10
253.34
 20
474.99
 11
253.045
 21
468.919
  0
LINE
  8
0
 10
253.045
 20
468.919
 11
252.688
 21
462.437
  0
LINE
  8
0
 10
252.688
 20
462.437
 11
252.223
 21
455.496
  0
LINE
  8
0
 10
252.223
 20
455.496
 11
251.607
 21
448.092
  0
LINE
  8
0
 10
251.607
 20
448.092
 11
251.608
 21
448.082
  0
LINE
  8
0
 10
251.608
 20
448.082
 11
251.252
 21
443.567
  0
LINE
  8
0
 10
251.252
 20
443.567
 11
251.008
 21
439.027
  0
LINE
  8
0
 10
251.008
 20
439.027
 11
250.857
 21
434.364
  0
LINE
  8
0
 10
250.857
 20
434.364
 11
250.791
 21
429.581
  0
LINE
  8
0
 10
250.791
 20
429.581
 11
250.798
 21
424.679
  0
LINE
  8
0
 10
250.798
 20
424.679
 11
250.869
 21
419.66
  0
LINE
  8
0
 10
250.869
 20
419.66
 11
250.994
 21
414.532
  0
LINE
  8
0
 10
250.994
 20
414.532
 11
251.162
 21
409.299
  0
LINE
  8
0
 10
251.162
 20
409.299
 11
251.364
 21
403.967
  0
LINE
  8
0
 10
251.364
 20
403.967
 11
251.588
 21
398.543
  0
LINE
  8
0
 10
251.588
 20
398.543
 11
252.062
 21
387.458
  0
LINE
  8
0
 10
252.062
 20
387.458
 11
252.291
 21
381.808
  0
LINE
  8
0
 10
252.291
 20
381.808
 11
252.502
 21
376.097
  0
LINE
  8
0
 10
252.502
 20
376.097
 11
252.683
 21
370.333
  0
LINE
  8
0
 10
252.683
 20
370.333
 11
252.824
 21
364.525
  0
LINE
  8
0
 10
252.824
 20
364.525
 11
252.914
 21
358.681
  0
LINE
  8
0
 10
252.914
 20
358.681
 11
252.943
 21
352.81
  0
LINE
  8
0
 10
252.943
 20
352.81
 11
252.9
 21
346.921
  0
LINE
  8
0
 10
252.9
 20
346.921
 11
252.774
 21
341.024
  0
LINE
  8
0
 10
252.774
 20
341.024
 11
252.745
 21
340.883
  0
LINE
  8
0
 10
252.745
 20
340.883
 11
252.769
 21
340.882
  0
LINE
  8
0
 10
252.769
 20
340.882
 11
252.403
 21
332.219
  0
LINE
  8
0
 10
252.403
 20
332.219
 11
252.391
 21
332.019
  0
LINE
  8
0
 10
252.391
 20
332.019
 11
251.776
 21
323.41
  0
LINE
  8
0
 10
251.776
 20
323.41
 11
251.755
 21
323.179
  0
LINE
  8
0
 10
251.755
 20
323.179
 11
250.856
 21
314.668
  0
LINE
  8
0
 10
250.856
 20
314.668
 11
250.823
 21
314.403
  0
LINE
  8
0
 10
250.823
 20
314.403
 11
249.606
 21
306.026
  0
LINE
  8
0
 10
249.606
 20
306.026
 11
249.556
 21
305.725
  0
LINE
  8
0
 10
249.556
 20
305.725
 11
247.988
 21
297.516
  0
LINE
  8
0
 10
247.988
 20
297.516
 11
247.915
 21
297.177
  0
LINE
  8
0
 10
247.915
 20
297.177
 11
245.962
 21
289.173
  0
LINE
  8
0
 10
245.962
 20
289.173
 11
245.859
 21
288.795
  0
LINE
  8
0
 10
245.859
 20
288.795
 11
243.488
 21
281.032
  0
LINE
  8
0
 10
243.488
 20
281.032
 11
243.346
 21
280.616
  0
LINE
  8
0
 10
243.346
 20
280.616
 11
240.524
 21
273.131
  0
LINE
  8
0
 10
240.524
 20
273.131
 11
240.334
 21
272.678
  0
LINE
  8
0
 10
240.334
 20
272.678
 11
237.027
 21
265.508
  0
LINE
  8
0
 10
237.027
 20
265.508
 11
236.78
 21
265.025
  0
LINE
  8
0
 10
236.78
 20
265.025
 11
232.955
 21
258.208
  0
LINE
  8
0
 10
232.955
 20
258.208
 11
232.642
 21
257.704
  0
LINE
  8
0
 10
232.642
 20
257.704
 11
228.265
 21
251.277
  0
LINE
  8
0
 10
228.265
 20
251.277
 11
227.882
 21
250.767
  0
LINE
  8
0
 10
227.882
 20
250.767
 11
222.92
 21
244.768
  0
LINE
  8
0
 10
222.92
 20
244.768
 11
222.465
 21
244.27
  0
LINE
  8
0
 10
222.465
 20
244.27
 11
216.885
 21
238.737
  0
LINE
  8
0
 10
216.885
 20
238.737
 11
216.364
 21
238.27
  0
LINE
  8
0
 10
216.364
 20
238.27
 11
210.134
 21
233.242
  0
LINE
  8
0
 10
210.134
 20
233.242
 11
209.56
 21
232.826
  0
LINE
  8
0
 10
209.56
 20
232.826
 11
202.647
 21
228.339
  0
LINE
  8
0
 10
202.647
 20
228.339
 11
202.039
 21
227.988
  0
LINE
  8
0
 10
202.039
 20
227.988
 11
194.409
 21
224.081
  0
LINE
  8
0
 10
194.409
 20
224.081
 11
193.789
 21
223.802
  0
LINE
  8
0
 10
193.789
 20
223.802
 11
185.409
 21
220.514
  0
LINE
  8
0
 10
185.409
 20
220.514
 11
184.798
 21
220.306
  0
LINE
  8
0
 10
184.798
 20
220.306
 11
175.636
 21
217.674
  0
LINE
  8
0
 10
175.636
 20
217.674
 11
175.05
 21
217.534
  0
LINE
  8
0
 10
175.05
 20
217.534
 11
165.073
 21
215.595
  0
LINE
  8
0
 10
165.073
 20
215.595
 11
164.526
 21
215.511
  0
LINE
  8
0
 10
164.526
 20
215.511
 11
153.699
 21
214.303
  0
LINE
  8
0
 10
153.699
 20
214.303
 11
152.466
 21
214.277
  0
LINE
  8
0
 10
152.466
 20
214.277
 11
152.185
 21
214.337
  0
LINE
  8
0
 10
152.944
 20
119.392
 11
166.582
 21
119.966
  0
LINE
  8
0
 10
166.582
 20
119.966
 11
167.78
 21
120.073
  0
LINE
  8
0
 10
167.78
 20
120.073
 11
179.851
 21
121.736
  0
LINE
  8
0
 10
179.851
 20
121.736
 11
181.205
 21
121.997
  0
LINE
  8
0
 10
181.205
 20
121.997
 11
191.821
 21
124.656
  0
LINE
  8
0
 10
191.821
 20
124.656
 11
193.291
 21
125.121
  0
LINE
  8
0
 10
193.291
 20
125.121
 11
202.577
 21
128.689
  0
LINE
  8
0
 10
202.577
 20
128.689
 11
204.088
 21
129.386
  0
LINE
  8
0
 10
204.088
 20
129.386
 11
212.165
 21
133.778
  0
LINE
  8
0
 10
212.165
 20
133.778
 11
213.614
 21
134.697
  0
LINE
  8
0
 10
213.614
 20
134.697
 11
220.603
 21
139.827
  0
LINE
  8
0
 10
220.603
 20
139.827
 11
221.889
 21
140.909
  0
LINE
  8
0
 10
221.889
 20
140.909
 11
227.908
 21
146.694
  0
LINE
  8
0
 10
227.908
 20
146.694
 11
228.967
 21
147.845
  0
LINE
  8
0
 10
228.967
 20
147.845
 11
234.125
 21
154.198
  0
LINE
  8
0
 10
234.125
 20
154.198
 11
234.941
 21
155.325
  0
LINE
  8
0
 10
234.941
 20
155.325
 11
239.344
 21
162.159
  0
LINE
  8
0
 10
239.344
 20
162.159
 11
239.943
 21
163.192
  0
LINE
  8
0
 10
239.943
 20
163.192
 11
243.688
 21
170.415
  0
LINE
  8
0
 10
243.688
 20
170.415
 11
244.111
 21
171.317
  0
LINE
  8
0
 10
244.111
 20
171.317
 11
247.288
 21
178.834
  0
LINE
  8
0
 10
247.288
 20
178.834
 11
247.581
 21
179.595
  0
LINE
  8
0
 10
247.581
 20
179.595
 11
250.27
 21
187.307
  0
LINE
  8
0
 10
250.27
 20
187.307
 11
250.47
 21
187.931
  0
LINE
  8
0
 10
250.47
 20
187.931
 11
252.746
 21
195.733
  0
LINE
  8
0
 10
252.746
 20
195.733
 11
252.881
 21
196.232
  0
LINE
  8
0
 10
252.881
 20
196.232
 11
254.813
 21
204.017
  0
LINE
  8
0
 10
254.813
 20
204.017
 11
254.902
 21
204.405
  0
LINE
  8
0
 10
254.902
 20
204.405
 11
256.549
 21
212.061
  0
LINE
  8
0
 10
256.549
 20
212.061
 11
256.608
 21
212.348
  0
LINE
  8
0
 10
256.608
 20
212.348
 11
258.024
 21
219.761
  0
LINE
  8
0
 10
258.024
 20
219.761
 11
258.059
 21
219.956
  0
LINE
  8
0
 10
258.059
 20
219.956
 11
259.311
 21
227.115
  0
LINE
  8
0
 10
259.311
 20
227.115
 11
260.406
 21
233.707
  0
LINE
  8
0
 10
260.406
 20
233.707
 11
261.384
 21
239.65
  0
LINE
  8
0
 10
261.384
 20
239.65
 11
262.276
 21
244.881
  0
LINE
  8
0
 10
262.276
 20
244.881
 11
262.447
 21
247.531
  0
LINE
  8
0
 10
262.447
 20
247.531
 11
262.062
 21
250.158
  0
LINE
  8
0
 10
262.062
 20
250.158
 11
261.14
 21
252.648
  0
LINE
  8
0
 10
261.14
 20
252.648
 11
259.721
 21
254.891
  0
LINE
  8
0
 10
259.721
 20
254.891
 11
257.866
 21
256.791
  0
LINE
  8
0
 10
257.866
 20
256.791
 11
255.656
 21
258.263
  0
LINE
  8
0
 10
255.656
 20
258.263
 11
253.189
 21
259.244
  0
LINE
  8
0
 10
253.189
 20
259.244
 11
250.572
 21
259.69
  0
LINE
  8
0
 10
250.572
 20
259.69
 11
247.919
 21
259.582
  0
LINE
  8
0
 10
247.919
 20
259.582
 11
245.346
 21
258.925
  0
LINE
  8
0
 10
245.346
 20
258.925
 11
242.967
 21
257.748
  0
LINE
  8
0
 10
242.967
 20
257.748
 11
240.884
 21
256.102
  0
LINE
  8
0
 10
240.884
 20
256.102
 11
239.447
 21
254.432
  0
LINE
  8
0
 10
239.447
 20
254.432
 11
235.891
 21
249.489
  0
LINE
  8
0
 10
235.891
 20
249.489
 11
232.397
 21
244.838
  0
LINE
  8
0
 10
232.397
 20
244.838
 11
228.89
 21
240.413
  0
LINE
  8
0
 10
228.89
 20
240.413
 11
225.356
 21
236.222
  0
LINE
  8
0
 10
225.356
 20
236.222
 11
221.785
 21
232.275
  0
LINE
  8
0
 10
221.785
 20
232.275
 11
218.168
 21
228.578
  0
LINE
  8
0
 10
218.168
 20
228.578
 11
214.498
 21
225.136
  0
LINE
  8
0
 10
214.498
 20
225.136
 11
210.764
 21
221.953
  0
LINE
  8
0
 10
210.764
 20
221.953
 11
206.953
 21
219.027
  0
LINE
  8
0
 10
206.953
 20
219.027
 11
203.05
 21
216.357
  0
LINE
  8
0
 10
203.05
 20
216.357
 11
199.032
 21
213.937
  0
LINE
  8
0
 10
199.032
 20
213.937
 11
194.873
 21
211.763
  0
LINE
  8
0
 10
194.873
 20
211.763
 11
190.543
 21
209.829
  0
LINE
  8
0
 10
190.543
 20
209.829
 11
186.006
 21
208.134
  0
LINE
  8
0
 10
186.006
 20
208.134
 11
181.225
 21
206.677
  0
LINE
  8
0
 10
181.225
 20
206.677
 11
176.162
 21
205.461
  0
LINE
  8
0
 10
176.162
 20
205.461
 11
170.78
 21
204.494
  0
LINE
  8
0
 10
170.78
 20
204.494
 11
165.045
 21
203.787
  0
LINE
  8
0
 10
165.045
 20
203.787
 11
158.926
 21
203.352
  0
LINE
  8
0
 10
158.926
 20
203.352
 11
152.405
 21
203.203
  0
LINE
  8
0
 10
152.405
 20
203.203
 11
145.884
 21
203.352
  0
LINE
  8
0
 10
145.884
 20
203.352
 11
139.765
 21
203.787
  0
LINE
  8
0
 10
139.765
 20
203.787
 11
134.03
 21
204.494
  0
LINE
  8
0
 10
134.03
 20
204.494
 11
128.648
 21
205.461
  0
LINE
  8
0
 10
128.648
 20
205.461
 11
123.585
 21
206.677
  0
LINE
  8
0
 10
123.585
 20
206.677
 11
118.804
 21
208.134
  0
LINE
  8
0
 10
118.804
 20
208.134
 11
114.267
 21
209.829
  0
LINE
  8
0
 10
114.267
 20
209.829
 11
109.937
 21
211.763
  0
LINE
  8
0
 10
109.937
 20
211.763
 11
105.778
 21
213.937
  0
LINE
  8
0
 10
105.778
 20
213.937
 11
101.76
 21
216.357
  0
LINE
  8
0
 10
101.76
 20
216.357
 11
97.8566
 21
219.027
  0
LINE
  8
0
 10
97.8566
 20
219.027
 11
94.0458
 21
221.953
  0
LINE
  8
0
 10
94.0458
 20
221.953
 11
90.3118
 21
225.136
  0
LINE
  8
0
 10
90.3118
 20
225.136
 11
86.6418
 21
228.578
  0
LINE
  8
0
 10
86.6418
 20
228.578
 11
83.025
 21
232.275
  0
LINE
  8
0
 10
83.025
 20
232.275
 11
79.4541
 21
236.222
  0
LINE
  8
0
 10
79.4541
 20
236.222
 11
75.9197
 21
240.413
  0
LINE
  8
0
 10
75.9197
 20
240.413
 11
72.4125
 21
244.838
  0
LINE
  8
0
 10
72.4125
 20
244.838
 11
68.9185
 21
249.489
  0
LINE
  8
0
 10
68.9185
 20
249.489
 11
65.3628
 21
254.432
  0
LINE
  8
0
 10
65.3628
 20
254.432
 11
63.5956
 21
256.413
  0
LINE
  8
0
 10
63.5956
 20
256.413
 11
61.4551
 21
257.984
  0
LINE
  8
0
 10
61.4551
 20
257.984
 11
59.0348
 21
259.076
  0
LINE
  8
0
 10
59.0348
 20
259.076
 11
56.4405
 21
259.64
  0
LINE
  8
0
 10
56.4405
 20
259.64
 11
53.7855
 21
259.653
  0
LINE
  8
0
 10
53.7855
 20
259.653
 11
51.1859
 21
259.113
  0
LINE
  8
0
 10
51.1859
 20
259.113
 11
48.7553
 21
258.045
  0
LINE
  8
0
 10
48.7553
 20
258.045
 11
46.5999
 21
256.494
  0
LINE
  8
0
 10
46.5999
 20
256.494
 11
44.814
 21
254.53
  0
LINE
  8
0
 10
44.814
 20
254.53
 11
43.4755
 21
252.237
  0
LINE
  8
0
 10
43.4755
 20
252.237
 11
42.6431
 21
249.716
  0
LINE
  8
0
 10
42.6431
 20
249.716
 11
42.353
 21
247.076
  0
LINE
  8
0
 10
42.353
 20
247.076
 11
42.5335
 21
244.881
  0
LINE
  8
0
 10
42.5335
 20
244.881
 11
43.4255
 21
239.65
  0
LINE
  8
0
 10
43.4255
 20
239.65
 11
44.4068
 21
233.689
  0
LINE
  8
0
 10
44.4068
 20
233.689
 11
45.5171
 21
227.008
  0
LINE
  8
0
 10
45.5171
 20
227.008
 11
46.7506
 21
219.956
  0
LINE
  8
0
 10
46.7506
 20
219.956
 11
46.7863
 21
219.761
  0
LINE
  8
0
 10
46.7863
 20
219.761
 11
48.2025
 21
212.348
  0
LINE
  8
0
 10
48.2025
 20
212.348
 11
48.2608
 21
212.061
  0
LINE
  8
0
 10
48.2608
 20
212.061
 11
49.9075
 21
204.405
  0
LINE
  8
0
 10
49.9075
 20
204.405
 11
49.9973
 21
204.017
  0
LINE
  8
0
 10
49.9973
 20
204.017
 11
51.9287
 21
196.232
  0
LINE
  8
0
 10
51.9287
 20
196.232
 11
52.0635
 21
195.733
  0
LINE
  8
0
 10
52.0635
 20
195.733
 11
54.3403
 21
187.931
  0
LINE
  8
0
 10
54.3403
 20
187.931
 11
54.5401
 21
187.307
  0
LINE
  8
0
 10
54.5401
 20
187.307
 11
57.2294
 21
179.595
  0
LINE
  8
0
 10
57.2294
 20
179.595
 11
57.5225
 21
178.834
  0
LINE
  8
0
 10
57.5225
 20
178.834
 11
60.6986
 21
171.317
  0
LINE
  8
0
 10
60.6986
 20
171.317
 11
61.1223
 21
170.415
  0
LINE
  8
0
 10
61.1223
 20
170.415
 11
64.867
 21
163.192
  0
LINE
  8
0
 10
64.867
 20
163.192
 11
65.4657
 21
162.159
  0
LINE
  8
0
 10
65.4657
 20
162.159
 11
69.8685
 21
155.325
  0
LINE
  8
0
 10
69.8685
 20
155.325
 11
70.6851
 21
154.198
  0
LINE
  8
0
 10
70.6851
 20
154.198
 11
75.8434
 21
147.845
  0
LINE
  8
0
 10
75.8434
 20
147.845
 11
76.9022
 21
146.694
  0
LINE
  8
0
 10
76.9022
 20
146.694
 11
82.9205
 21
140.909
  0
LINE
  8
0
 10
82.9205
 20
140.909
 11
84.2066
 21
139.827
  0
LINE
  8
0
 10
84.2066
 20
139.827
 11
91.1962
 21
134.697
  0
LINE
  8
0
 10
91.1962
 20
134.697
 11
92.6449
 21
133.778
  0
LINE
  8
0
 10
92.6449
 20
133.778
 11
100.722
 21
129.386
  0
LINE
  8
0
 10
100.722
 20
129.386
 11
102.233
 21
128.689
  0
LINE
  8
0
 10
102.233
 20
128.689
 11
111.519
 21
125.121
  0
LINE
  8
0
 10
111.519
 20
125.121
 11
112.989
 21
124.656
  0
LINE
  8
0
 10
112.989
 20
124.656
 11
123.605
 21
121.997
  0
LINE
  8
0
 10
123.605
 20
121.997
 11
124.959
 21
121.736
  0
LINE
  8
0
 10
124.959
 20
121.736
 11
137.03
 21
120.073
  0
LINE
  8
0
 10
137.03
 20
120.073
 11
138.228
 21
119.966
  0
LINE
  8
0
 10
138.228
 20
119.966
 11
151.876
 21
119.392
  0
LINE
  8
0
 10
151.876
 20
119.392
 11
152.944
 21
119.392
  0
LINE
  8
0
 10
138.474
 20
125.803
 11
137.826
 21
125.861
  0
LINE
  8
0
 10
137.826
 20
125.861
 11
125.755
 21
127.523
  0
LINE
  8
0
 10
125.755
 20
127.523
 11
125.025
 21
127.664
  0
LINE
  8
0
 10
125.025
 20
127.664
 11
114.408
 21
130.323
  0
LINE
  8
0
 10
114.408
 20
130.323
 11
113.614
 21
130.574
  0
LINE
  8
0
 10
113.614
 20
130.574
 11
104.329
 21
134.142
  0
LINE
  8
0
 10
104.329
 20
134.142
 11
103.513
 21
134.519
  0
LINE
  8
0
 10
103.513
 20
134.519
 11
95.4352
 21
138.91
  0
LINE
  8
0
 10
95.4352
 20
138.91
 11
94.6529
 21
139.407
  0
LINE
  8
0
 10
94.6529
 20
139.407
 11
87.6633
 21
144.537
  0
LINE
  8
0
 10
87.6633
 20
144.537
 11
86.9688
 21
145.121
  0
LINE
  8
0
 10
86.9688
 20
145.121
 11
80.9505
 21
150.906
  0
LINE
  8
0
 10
80.9505
 20
150.906
 11
80.3787
 21
151.527
  0
LINE
  8
0
 10
80.3787
 20
151.527
 11
75.2205
 21
157.881
  0
LINE
  8
0
 10
75.2205
 20
157.881
 11
74.7795
 21
158.489
  0
LINE
  8
0
 10
74.7795
 20
158.489
 11
70.3767
 21
165.323
  0
LINE
  8
0
 10
70.3767
 20
165.323
 11
70.0534
 21
165.881
  0
LINE
  8
0
 10
70.0534
 20
165.881
 11
66.3087
 21
173.104
  0
LINE
  8
0
 10
66.3087
 20
173.104
 11
66.0799
 21
173.591
  0
LINE
  8
0
 10
66.0799
 20
173.591
 11
62.9038
 21
181.108
  0
LINE
  8
0
 10
62.9038
 20
181.108
 11
62.7455
 21
181.519
  0
LINE
  8
0
 10
62.7455
 20
181.519
 11
60.0563
 21
189.23
  0
LINE
  8
0
 10
60.0563
 20
189.23
 11
59.9484
 21
189.567
  0
LINE
  8
0
 10
59.9484
 20
189.567
 11
57.6716
 21
197.369
  0
LINE
  8
0
 10
57.6716
 20
197.369
 11
57.5988
 21
197.639
  0
LINE
  8
0
 10
57.5988
 20
197.639
 11
55.6674
 21
205.424
  0
LINE
  8
0
 10
55.6674
 20
205.424
 11
55.6189
 21
205.633
  0
LINE
  8
0
 10
55.6189
 20
205.633
 11
53.9722
 21
213.289
  0
LINE
  8
0
 10
53.9722
 20
213.289
 11
53.9407
 21
213.444
  0
LINE
  8
0
 10
53.9407
 20
213.444
 11
52.5245
 21
220.857
  0
LINE
  8
0
 10
52.5245
 20
220.857
 11
51.2717
 21
228.015
  0
LINE
  8
0
 10
51.2717
 20
228.015
 11
50.1698
 21
234.646
  0
LINE
  8
0
 10
50.1698
 20
234.646
 11
49.1873
 21
240.615
  0
LINE
  8
0
 10
49.1873
 20
240.615
 11
48.2924
 21
245.863
  0
LINE
  8
0
 10
48.2924
 20
245.863
 11
48.3805
 21
248.601
  0
LINE
  8
0
 10
48.3805
 20
248.601
 11
49.0974
 21
250.417
  0
LINE
  8
0
 10
49.0974
 20
250.417
 11
50.2967
 21
251.957
  0
LINE
  8
0
 10
50.2967
 20
251.957
 11
51.8813
 21
253.097
  0
LINE
  8
0
 10
51.8813
 20
253.097
 11
53.7229
 21
253.744
  0
LINE
  8
0
 10
53.7229
 20
253.744
 11
55.6722
 21
253.846
  0
LINE
  8
0
 10
55.6722
 20
253.846
 11
57.5714
 21
253.395
  0
LINE
  8
0
 10
57.5714
 20
253.395
 11
59.2665
 21
252.427
  0
LINE
  8
0
 10
59.2665
 20
252.427
 11
60.6202
 21
251.021
  0
LINE
  8
0
 10
60.6202
 20
251.021
 11
64.2111
 21
246.028
  0
LINE
  8
0
 10
64.2111
 20
246.028
 11
67.7873
 21
241.268
  0
LINE
  8
0
 10
67.7873
 20
241.268
 11
71.3967
 21
236.714
  0
LINE
  8
0
 10
71.3967
 20
236.714
 11
75.0538
 21
232.378
  0
LINE
  8
0
 10
75.0538
 20
232.378
 11
78.7693
 21
228.271
  0
LINE
  8
0
 10
78.7693
 20
228.271
 11
82.5536
 21
224.403
  0
LINE
  8
0
 10
82.5536
 20
224.403
 11
86.4164
 21
220.78
  0
LINE
  8
0
 10
86.4164
 20
220.78
 11
90.3696
 21
217.41
  0
LINE
  8
0
 10
90.3696
 20
217.41
 11
94.4258
 21
214.296
  0
LINE
  8
0
 10
94.4258
 20
214.296
 11
98.6018
 21
211.439
  0
LINE
  8
0
 10
98.6018
 20
211.439
 11
102.916
 21
208.841
  0
LINE
  8
0
 10
102.916
 20
208.841
 11
107.39
 21
206.502
  0
LINE
  8
0
 10
107.39
 20
206.502
 11
112.052
 21
204.421
  0
LINE
  8
0
 10
112.052
 20
204.421
 11
116.928
 21
202.598
  0
LINE
  8
0
 10
116.928
 20
202.598
 11
122.05
 21
201.037
  0
LINE
  8
0
 10
122.05
 20
201.037
 11
127.449
 21
199.741
  0
LINE
  8
0
 10
127.449
 20
199.741
 11
133.155
 21
198.716
  0
LINE
  8
0
 10
133.155
 20
198.716
 11
139.2
 21
197.971
  0
LINE
  8
0
 10
139.2
 20
197.971
 11
145.61
 21
197.515
  0
LINE
  8
0
 10
145.61
 20
197.515
 11
152.405
 21
197.36
  0
LINE
  8
0
 10
152.405
 20
197.36
 11
159.2
 21
197.515
  0
LINE
  8
0
 10
159.2
 20
197.515
 11
165.61
 21
197.971
  0
LINE
  8
0
 10
165.61
 20
197.971
 11
171.655
 21
198.716
  0
LINE
  8
0
 10
171.655
 20
198.716
 11
177.361
 21
199.741
  0
LINE
  8
0
 10
177.361
 20
199.741
 11
182.76
 21
201.037
  0
LINE
  8
0
 10
182.76
 20
201.037
 11
187.882
 21
202.598
  0
LINE
  8
0
 10
187.882
 20
202.598
 11
192.758
 21
204.421
  0
LINE
  8
0
 10
192.758
 20
204.421
 11
197.42
 21
206.502
  0
LINE
  8
0
 10
197.42
 20
206.502
 11
201.894
 21
208.841
  0
LINE
  8
0
 10
201.894
 20
208.841
 11
206.208
 21
211.439
  0
LINE
  8
0
 10
206.208
 20
211.439
 11
210.384
 21
214.296
  0
LINE
  8
0
 10
210.384
 20
214.296
 11
214.44
 21
217.41
  0
LINE
  8
0
 10
214.44
 20
217.41
 11
218.394
 21
220.78
  0
LINE
  8
0
 10
218.394
 20
220.78
 11
222.256
 21
224.403
  0
LINE
  8
0
 10
222.256
 20
224.403
 11
226.041
 21
228.271
  0
LINE
  8
0
 10
226.041
 20
228.271
 11
229.756
 21
232.378
  0
LINE
  8
0
 10
229.756
 20
232.378
 11
233.413
 21
236.714
  0
LINE
  8
0
 10
233.413
 20
236.714
 11
237.023
 21
241.268
  0
LINE
  8
0
 10
237.023
 20
241.268
 11
240.599
 21
246.028
  0
LINE
  8
0
 10
240.599
 20
246.028
 11
244.19
 21
251.021
  0
LINE
  8
0
 10
244.19
 20
251.021
 11
246.201
 21
252.88
  0
LINE
  8
0
 10
246.201
 20
252.88
 11
247.997
 21
253.644
  0
LINE
  8
0
 10
247.997
 20
253.644
 11
249.936
 21
253.872
  0
LINE
  8
0
 10
249.936
 20
253.872
 11
251.86
 21
253.544
  0
LINE
  8
0
 10
251.86
 20
253.544
 11
253.614
 21
252.687
  0
LINE
  8
0
 10
253.614
 20
252.687
 11
255.055
 21
251.37
  0
LINE
  8
0
 10
255.055
 20
251.37
 11
256.068
 21
249.701
  0
LINE
  8
0
 10
256.068
 20
249.701
 11
256.569
 21
247.815
  0
LINE
  8
0
 10
256.569
 20
247.815
 11
256.518
 21
245.863
  0
LINE
  8
0
 10
256.518
 20
245.863
 11
255.623
 21
240.615
  0
LINE
  8
0
 10
255.623
 20
240.615
 11
254.642
 21
234.656
  0
LINE
  8
0
 10
254.642
 20
234.656
 11
253.548
 21
228.072
  0
LINE
  8
0
 10
253.548
 20
228.072
 11
252.305
 21
220.962
  0
LINE
  8
0
 10
252.305
 20
220.962
 11
250.869
 21
213.444
  0
LINE
  8
0
 10
250.869
 20
213.444
 11
250.838
 21
213.289
  0
LINE
  8
0
 10
250.838
 20
213.289
 11
249.191
 21
205.633
  0
LINE
  8
0
 10
249.191
 20
205.633
 11
249.143
 21
205.424
  0
LINE
  8
0
 10
249.143
 20
205.424
 11
247.211
 21
197.639
  0
LINE
  8
0
 10
247.211
 20
197.639
 11
247.138
 21
197.369
  0
LINE
  8
0
 10
247.138
 20
197.369
 11
244.862
 21
189.567
  0
LINE
  8
0
 10
244.862
 20
189.567
 11
244.754
 21
189.23
  0
LINE
  8
0
 10
244.754
 20
189.23
 11
242.064
 21
181.519
  0
LINE
  8
0
 10
242.064
 20
181.519
 11
241.906
 21
181.108
  0
LINE
  8
0
 10
241.906
 20
181.108
 11
238.73
 21
173.591
  0
LINE
  8
0
 10
238.73
 20
173.591
 11
238.501
 21
173.104
  0
LINE
  8
0
 10
238.501
 20
173.104
 11
234.757
 21
165.881
  0
LINE
  8
0
 10
234.757
 20
165.881
 11
234.433
 21
165.323
  0
LINE
  8
0
 10
234.433
 20
165.323
 11
230.03
 21
158.489
  0
LINE
  8
0
 10
230.03
 20
158.489
 11
229.589
 21
157.881
  0
LINE
  8
0
 10
229.589
 20
157.881
 11
224.431
 21
151.527
  0
LINE
  8
0
 10
224.431
 20
151.527
 11
223.859
 21
150.906
  0
LINE
  8
0
 10
223.859
 20
150.906
 11
217.841
 21
145.121
  0
LINE
  8
0
 10
217.841
 20
145.121
 11
217.147
 21
144.537
  0
LINE
  8
0
 10
217.147
 20
144.537
 11
210.157
 21
139.407
  0
LINE
  8
0
 10
210.157
 20
139.407
 11
209.375
 21
138.91
  0
LINE
  8
0
 10
209.375
 20
138.91
 11
201.297
 21
134.519
  0
LINE
  8
0
 10
201.297
 20
134.519
 11
200.481
 21
134.142
  0
LINE
  8
0
 10
200.481
 20
134.142
 11
191.196
 21
130.574
  0
LINE
  8
0
 10
191.196
 20
130.574
 11
190.402
 21
130.323
  0
LINE
  8
0
 10
190.402
 20
130.323
 11
179.785
 21
127.664
  0
LINE
  8
0
 10
179.785
 20
127.664
 11
179.055
 21
127.523
  0
LINE
  8
0
 10
179.055
 20
127.523
 11
166.984
 21
125.861
  0
LINE
  8
0
 10
166.984
 20
125.861
 11
166.337
 21
125.803
  0
LINE
  8
0
 10
166.337
 20
125.803
 11
152.699
 21
125.228
  0
LINE
  8
0
 10
152.699
 20
125.228
 11
152.122
 21
125.228
  0
LINE
  8
0
 10
152.122
 20
125.228
 11
138.474
 21
125.803
  0
LINE
  8
0
 10
152.944
 20
20.3317
 11
166.582
 21
20.9059
  0
LINE
  8
0
 10
166.582
 20
20.9059
 11
167.78
 21
21.0134
  0
LINE
  8
0
 10
167.78
 20
21.0134
 11
179.851
 21
22.6756
  0
LINE
  8
0
 10
179.851
 20
22.6756
 11
181.205
 21
22.9373
  0
LINE
  8
0
 10
181.205
 20
22.9373
 11
191.821
 21
25.5964
  0
LINE
  8
0
 10
191.821
 20
25.5964
 11
193.291
 21
26.0609
  0
LINE
  8
0
 10
193.291
 20
26.0609
 11
202.577
 21
29.629
  0
LINE
  8
0
 10
202.577
 20
29.629
 11
204.088
 21
30.3263
  0
LINE
  8
0
 10
204.088
 20
30.3263
 11
212.165
 21
34.7177
  0
LINE
  8
0
 10
212.165
 20
34.7177
 11
213.614
 21
35.6372
  0
LINE
  8
0
 10
213.614
 20
35.6372
 11
220.603
 21
40.7674
  0
LINE
  8
0
 10
220.603
 20
40.7674
 11
221.889
 21
41.8493
  0
LINE
  8
0
 10
221.889
 20
41.8493
 11
227.908
 21
47.6338
  0
LINE
  8
0
 10
227.908
 20
47.6338
 11
228.967
 21
48.7851
  0
LINE
  8
0
 10
228.967
 20
48.7851
 11
234.125
 21
55.1383
  0
LINE
  8
0
 10
234.125
 20
55.1383
 11
234.941
 21
56.2651
  0
LINE
  8
0
 10
234.941
 20
56.2651
 11
239.344
 21
63.0988
  0
LINE
  8
0
 10
239.344
 20
63.0988
 11
239.943
 21
64.1319
  0
LINE
  8
0
 10
239.943
 20
64.1319
 11
243.688
 21
71.3549
  0
LINE
  8
0
 10
243.688
 20
71.3549
 11
244.111
 21
72.2572
  0
LINE
  8
0
 10
244.111
 20
72.2572
 11
247.288
 21
79.7742
  0
LINE
  8
0
 10
247.288
 20
79.7742
 11
247.581
 21
80.5352
  0
LINE
  8
0
 10
247.581
 20
80.5352
 11
250.27
 21
88.2466
  0
LINE
  8
0
 10
250.27
 20
88.2466
 11
250.47
 21
88.8709
  0
LINE
  8
0
 10
250.47
 20
88.8709
 11
252.746
 21
96.6729
  0
LINE
  8
0
 10
252.746
 20
96.6729
 11
252.881
 21
97.1724
  0
LINE
  8
0
 10
252.881
 20
97.1724
 11
254.813
 21
104.957
  0
LINE
  8
0
 10
254.813
 20
104.957
 11
254.902
 21
105.345
  0
LINE
  8
0
 10
254.902
 20
105.345
 11
256.549
 21
113.001
  0
LINE
  8
0
 10
256.549
 20
113.001
 11
256.608
 21
113.288
  0
LINE
  8
0
 10
256.608
 20
113.288
 11
258.024
 21
120.701
  0
LINE
  8
0
 10
258.024
 20
120.701
 11
258.059
 21
120.896
  0
LINE
  8
0
 10
258.059
 20
120.896
 11
259.311
 21
128.055
  0
LINE
  8
0
 10
259.311
 20
128.055
 11
260.406
 21
134.647
  0
LINE
  8
0
 10
260.406
 20
134.647
 11
261.384
 21
140.59
  0
LINE
  8
0
 10
261.384
 20
140.59
 11
262.276
 21
145.821
  0
LINE
  8
0
 10
262.276
 20
145.821
 11
262.447
 21
148.471
  0
LINE
  8
0
 10
262.447
 20
148.471
 11
262.062
 21
151.098
  0
LINE
  8
0
 10
262.062
 20
151.098
 11
261.14
 21
153.588
  0
LINE
  8
0
 10
261.14
 20
153.588
 11
259.721
 21
155.831
  0
LINE
  8
0
 10
259.721
 20
155.831
 11
257.866
 21
157.731
  0
LINE
  8
0
 10
257.866
 20
157.731
 11
255.656
 21
159.203
  0
LINE
  8
0
 10
255.656
 20
159.203
 11
253.189
 21
160.184
  0
LINE
  8
0
 10
253.189
 20
160.184
 11
250.572
 21
160.63
  0
LINE
  8
0
 10
250.572
 20
160.63
 11
247.919
 21
160.522
  0
LINE
  8
0
 10
247.919
 20
160.522
 11
245.346
 21
159.865
  0
LINE
  8
0
 10
245.346
 20
159.865
 11
242.967
 21
158.688
  0
LINE
  8
0
 10
242.967
 20
158.688
 11
240.884
 21
157.042
  0
LINE
  8
0
 10
240.884
 20
157.042
 11
239.447
 21
155.372
  0
LINE
  8
0
 10
239.447
 20
155.372
 11
235.891
 21
150.429
  0
LINE
  8
0
 10
235.891
 20
150.429
 11
232.397
 21
145.778
  0
LINE
  8
0
 10
232.397
 20
145.778
 11
228.89
 21
141.353
  0
LINE
  8
0
 10
228.89
 20
141.353
 11
225.356
 21
137.162
  0
LINE
  8
0
 10
225.356
 20
137.162
 11
221.785
 21
133.215
  0
LINE
  8
0
 10
221.785
 20
133.215
 11
218.168
 21
129.518
  0
LINE
  8
0
 10
218.168
 20
129.518
 11
214.498
 21
126.076
  0
LINE
  8
0
 10
214.498
 20
126.076
 11
210.764
 21
122.893
  0
LINE
  8
0
 10
210.764
 20
122.893
 11
206.953
 21
119.967
  0
LINE
  8
0
 10
206.953
 20
119.967
 11
203.05
 21
117.297
  0
LINE
  8
0
 10
203.05
 20
117.297
 11
199.032
 21
114.877
  0
LINE
  8
0
 10
199.032
 20
114.877
 11
194.873
 21
112.703
  0
LINE
  8
0
 10
194.873
 20
112.703
 11
190.543
 21
110.769
  0
LINE
  8
0
 10
190.543
 20
110.769
 11
186.006
 21
109.074
  0
LINE
  8
0
 10
186.006
 20
109.074
 11
181.225
 21
107.617
  0
LINE
  8
0
 10
181.225
 20
107.617
 11
176.162
 21
106.401
  0
LINE
  8
0
 10
176.162
 20
106.401
 11
170.78
 21
105.434
  0
LINE
  8
0
 10
170.78
 20
105.434
 11
165.045
 21
104.727
  0
LINE
  8
0
 10
165.045
 20
104.727
 11
158.926
 21
104.292
  0
LINE
  8
0
 10
158.926
 20
104.292
 11
152.405
 21
104.143
  0
LINE
  8
0
 10
152.405
 20
104.143
 11
145.884
 21
104.292
  0
LINE
  8
0
 10
145.884
 20
104.292
 11
139.765
 21
104.727
  0
LINE
  8
0
 10
139.765
 20
104.727
 11
134.03
 21
105.434
  0
LINE
  8
0
 10
134.03
 20
105.434
 11
128.648
 21
106.401
  0
LINE
  8
0
 10
128.648
 20
106.401
 11
123.585
 21
107.617
  0
LINE
  8
0
 10
123.585
 20
107.617
 11
118.804
 21
109.074
  0
LINE
  8
0
 10
118.804
 20
109.074
 11
114.267
 21
110.769
  0
LINE
  8
0
 10
114.267
 20
110.769
 11
109.937
 21
112.703
  0
LINE
  8
0
 10
109.937
 20
112.703
 11
105.778
 21
114.877
  0
LINE
  8
0
 10
105.778
 20
114.877
 11
101.76
 21
117.297
  0
LINE
  8
0
 10
101.76
 20
117.297
 11
97.8566
 21
119.967
  0
LINE
  8
0
 10
97.8566
 20
119.967
 11
94.0458
 21
122.893
  0
LINE
  8
0
 10
94.0458
 20
122.893
 11
90.3118
 21
126.076
  0
LINE
  8
0
 10
90.3118
 20
126.076
 11
86.6418
 21
129.518
  0
LINE
  8
0
 10
86.6418
 20
129.518
 11
83.025
 21
133.215
  0
LINE
  8
0
 10
83.025
 20
133.215
 11
79.4541
 21
137.162
  0
LINE
  8
0
 10
79.4541
 20
137.162
 11
75.9197
 21
141.353
  0
LINE
  8
0
 10
75.9197
 20
141.353
 11
72.4125
 21
145.778
  0
LINE
  8
0
 10
72.4125
 20
145.778
 11
68.9185
 21
150.429
  0
LINE
  8
0
 10
68.9185
 20
150.429
 11
65.3628
 21
155.372
  0
LINE
  8
0
 10
65.3628
 20
155.372
 11
63.5956
 21
157.353
  0
LINE
  8
0
 10
63.5956
 20
157.353
 11
61.4551
 21
158.924
  0
LINE
  8
0
 10
61.4551
 20
158.924
 11
59.0348
 21
160.016
  0
LINE
  8
0
 10
59.0348
 20
160.016
 11
56.4405
 21
160.58
  0
LINE
  8
0
 10
56.4405
 20
160.58
 11
53.7855
 21
160.593
  0
LINE
  8
0
 10
53.7855
 20
160.593
 11
51.1859
 21
160.053
  0
LINE
  8
0
 10
51.1859
 20
160.053
 11
48.7553
 21
158.985
  0
LINE
  8
0
 10
48.7553
 20
158.985
 11
46.5999
 21
157.434
  0
LINE
  8
0
 10
46.5999
 20
157.434
 11
44.814
 21
155.47
  0
LINE
  8
0
 10
44.814
 20
155.47
 11
43.4755
 21
153.177
  0
LINE
  8
0
 10
43.4755
 20
153.177
 11
42.6431
 21
150.656
  0
LINE
  8
0
 10
42.6431
 20
150.656
 11
42.353
 21
148.016
  0
LINE
  8
0
 10
42.353
 20
148.016
 11
42.5335
 21
145.821
  0
LINE
  8
0
 10
42.5335
 20
145.821
 11
43.4255
 21
140.59
  0
LINE
  8
0
 10
43.4255
 20
140.59
 11
44.4068
 21
134.629
  0
LINE
  8
0
 10
44.4068
 20
134.629
 11
45.5171
 21
127.948
  0
LINE
  8
0
 10
45.5171
 20
127.948
 11
46.7506
 21
120.896
  0
LINE
  8
0
 10
46.7506
 20
120.896
 11
46.7863
 21
120.701
  0
LINE
  8
0
 10
46.7863
 20
120.701
 11
48.2025
 21
113.288
  0
LINE
  8
0
 10
48.2025
 20
113.288
 11
48.2608
 21
113.001
  0
LINE
  8
0
 10
48.2608
 20
113.001
 11
49.9075
 21
105.345
  0
LINE
  8
0
 10
49.9075
 20
105.345
 11
49.9973
 21
104.957
  0
LINE
  8
0
 10
49.9973
 20
104.957
 11
51.9287
 21
97.1724
  0
LINE
  8
0
 10
51.9287
 20
97.1724
 11
52.0635
 21
96.6729
  0
LINE
  8
0
 10
52.0635
 20
96.6729
 11
54.3403
 21
88.8709
  0
LINE
  8
0
 10
54.3403
 20
88.8709
 11
54.5401
 21
88.2466
  0
LINE
  8
0
 10
54.5401
 20
88.2466
 11
57.2294
 21
80.5352
  0
LINE
  8
0
 10
57.2294
 20
80.5352
 11
57.5225
 21
79.7742
  0
LINE
  8
0
 10
57.5225
 20
79.7742
 11
60.6986
 21
72.2572
  0
LINE
  8
0
 10
60.6986
 20
72.2572
 11
61.1223
 21
71.3549
  0
LINE
  8
0
 10
61.1223
 20
71.3549
 11
64.867
 21
64.1319
  0
LINE
  8
0
 10
64.867
 20
64.1319
 11
65.4657
 21
63.0988
  0
LINE
  8
0
 10
65.4657
 20
63.0988
 11
69.8685
 21
56.2651
  0
LINE
  8
0
 10
69.8685
 20
56.2651
 11
70.6851
 21
55.1383
  0
LINE
  8
0
 10
70.6851
 20
55.1383
 11
75.8434
 21
48.7851
  0
LINE
  8
0
 10
75.8434
 20
48.7851
 11
76.9022
 21
47.6338
  0
LINE
  8
0
 10
76.9022
 20
47.6338
 11
82.9205
 21
41.8493
  0
LINE
  8
0
 10
82.9205
 20
41.8493
 11
84.2066
 21
40.7674
  0
LINE
  8
0
 10
84.2066
 20
40.7674
 11
91.1962
 21
35.6372
  0
LINE
  8
0
 10
91.1962
 20
35.6372
 11
92.6449
 21
34.7177
  0
LINE
  8
0
 10
92.6449
 20
34.7177
 11
100.722
 21
30.3263
  0
LINE
  8
0
 10
100.722
 20
30.3263
 11
102.233
 21
29.629
  0
LINE
  8
0
 10
102.233
 20
29.629
 11
111.519
 21
26.0609
  0
LINE
  8
0
 10
111.519
 20
26.0609
 11
112.989
 21
25.5964
  0
LINE
  8
0
 10
112.989
 20
25.5964
 11
123.605
 21
22.9373
  0
LINE
  8
0
 10
123.605
 20
22.9373
 11
124.959
 21
22.6756
  0
LINE
  8
0
 10
124.959
 20
22.6756
 11
137.03
 21
21.0134
  0
LINE
  8
0
 10
137.03
 20
21.0134
 11
138.228
 21
20.9059
  0
LINE
  8
0
 10
138.228
 20
20.9059
 11
151.876
 21
20.3316
  0
LINE
  8
0
 10
151.876
 20
20.3316
 11
152.944
 21
20.3317
  0
LINE
  8
0
 10
138.474
 20
26.7427
 11
137.826
 21
26.8008
  0
LINE
  8
0
 10
137.826
 20
26.8008
 11
125.755
 21
28.4629
  0
LINE
  8
0
 10
125.755
 20
28.4629
 11
125.025
 21
28.6043
  0
LINE
  8
0
 10
125.025
 20
28.6043
 11
114.408
 21
31.2633
  0
LINE
  8
0
 10
114.408
 20
31.2633
 11
113.614
 21
31.5142
  0
LINE
  8
0
 10
113.614
 20
31.5142
 11
104.329
 21
35.0823
  0
LINE
  8
0
 10
104.329
 20
35.0823
 11
103.513
 21
35.4588
  0
LINE
  8
0
 10
103.513
 20
35.4588
 11
95.4352
 21
39.8502
  0
LINE
  8
0
 10
95.4352
 20
39.8502
 11
94.6529
 21
40.3467
  0
LINE
  8
0
 10
94.6529
 20
40.3467
 11
87.6633
 21
45.477
  0
LINE
  8
0
 10
87.6633
 20
45.477
 11
86.9688
 21
46.0612
  0
LINE
  8
0
 10
86.9688
 20
46.0612
 11
80.9505
 21
51.8457
  0
LINE
  8
0
 10
80.9505
 20
51.8457
 11
80.3787
 21
52.4675
  0
LINE
  8
0
 10
80.3787
 20
52.4675
 11
75.2205
 21
58.8206
  0
LINE
  8
0
 10
75.2205
 20
58.8206
 11
74.7795
 21
59.4291
  0
LINE
  8
0
 10
74.7795
 20
59.4291
 11
70.3767
 21
66.2629
  0
LINE
  8
0
 10
70.3767
 20
66.2629
 11
70.0534
 21
66.8207
  0
LINE
  8
0
 10
70.0534
 20
66.8207
 11
66.3087
 21
74.0437
  0
LINE
  8
0
 10
66.3087
 20
74.0437
 11
66.0799
 21
74.531
  0
LINE
  8
0
 10
66.0799
 20
74.531
 11
62.9038
 21
82.048
  0
LINE
  8
0
 10
62.9038
 20
82.048
 11
62.7455
 21
82.4589
  0
LINE
  8
0
 10
62.7455
 20
82.4589
 11
60.0563
 21
90.1703
  0
LINE
  8
0
 10
60.0563
 20
90.1703
 11
59.9484
 21
90.5074
  0
LINE
  8
0
 10
59.9484
 20
90.5074
 11
57.6716
 21
98.3095
  0
LINE
  8
0
 10
57.6716
 20
98.3095
 11
57.5988
 21
98.5792
  0
LINE
  8
0
 10
57.5988
 20
98.5792
 11
55.6674
 21
106.364
  0
LINE
  8
0
 10
55.6674
 20
106.364
 11
55.6189
 21
106.573
  0
LINE
  8
0
 10
55.6189
 20
106.573
 11
53.9722
 21
114.229
  0
LINE
  8
0
 10
53.9722
 20
114.229
 11
53.9407
 21
114.384
  0
LINE
  8
0
 10
53.9407
 20
114.384
 11
52.5245
 21
121.797
  0
LINE
  8
0
 10
52.5245
 20
121.797
 11
51.2717
 21
128.955
  0
LINE
  8
0
 10
51.2717
 20
128.955
 11
50.1698
 21
135.586
  0
LINE
  8
0
 10
50.1698
 20
135.586
 11
49.1873
 21
141.555
  0
LINE
  8
0
 10
49.1873
 20
141.555
 11
48.2924
 21
146.803
  0
LINE
  8
0
 10
48.2924
 20
146.803
 11
48.3805
 21
149.541
  0
LINE
  8
0
 10
48.3805
 20
149.541
 11
49.0974
 21
151.357
  0
LINE
  8
0
 10
49.0974
 20
151.357
 11
50.2967
 21
152.897
  0
LINE
  8
0
 10
50.2967
 20
152.897
 11
51.8813
 21
154.037
  0
LINE
  8
0
 10
51.8813
 20
154.037
 11
53.7229
 21
154.684
  0
LINE
  8
0
 10
53.7229
 20
154.684
 11
55.6722
 21
154.786
  0
LINE
  8
0
 10
55.6722
 20
154.786
 11
57.5714
 21
154.335
  0
LINE
  8
0
 10
57.5714
 20
154.335
 11
59.2665
 21
153.367
  0
LINE
  8
0
 10
59.2665
 20
153.367
 11
60.6202
 21
151.961
  0
LINE
  8
0
 10
60.6202
 20
151.961
 11
64.2111
 21
146.968
  0
LINE
  8
0
 10
64.2111
 20
146.968
 11
67.7873
 21
142.208
  0
LINE
  8
0
 10
67.7873
 20
142.208
 11
71.3967
 21
137.654
  0
LINE
  8
0
 10
71.3967
 20
137.654
 11
75.0538
 21
133.318
  0
LINE
  8
0
 10
75.0538
 20
133.318
 11
78.7693
 21
129.211
  0
LINE
  8
0
 10
78.7693
 20
129.211
 11
82.5536
 21
125.343
  0
LINE
  8
0
 10
82.5536
 20
125.343
 11
86.4164
 21
121.72
  0
LINE
  8
0
 10
86.4164
 20
121.72
 11
90.3696
 21
118.35
  0
LINE
  8
0
 10
90.3696
 20
118.35
 11
94.4258
 21
115.236
  0
LINE
  8
0
 10
94.4258
 20
115.236
 11
98.6018
 21
112.379
  0
LINE
  8
0
 10
98.6018
 20
112.379
 11
102.916
 21
109.781
  0
LINE
  8
0
 10
102.916
 20
109.781
 11
107.39
 21
107.442
  0
LINE
  8
0
 10
107.39
 20
107.442
 11
112.052
 21
105.361
  0
LINE
  8
0
 10
112.052
 20
105.361
 11
116.928
 21
103.538
  0
LINE
  8
0
 10
116.928
 20
103.538
 11
122.05
 21
101.977
  0
LINE
  8
0
 10
122.05
 20
101.977
 11
127.449
 21
100.681
  0
LINE
  8
0
 10
127.449
 20
100.681
 11
133.155
 21
99.6561
  0
LINE
  8
0
 10
133.155
 20
99.6561
 11
139.2
 21
98.9106
  0
LINE
  8
0
 10
139.2
 20
98.9106
 11
145.61
 21
98.4547
  0
LINE
  8
0
 10
145.61
 20
98.4547
 11
152.405
 21
98.2999
  0
LINE
  8
0
 10
152.405
 20
98.2999
 11
159.2
 21
98.4547
  0
LINE
  8
0
 10
159.2
 20
98.4547
 11
165.61
 21
98.9106
  0
LINE
  8
0
 10
165.61
 20
98.9106
 11
171.655
 21
99.6561
  0
LINE
  8
0
 10
171.655
 20
99.6561
 11
177.361
 21
100.681
  0
LINE
  8
0
 10
177.361
 20
100.681
 11
182.76
 21
101.977
  0
LINE
  8
0
 10
182.76
 20
101.977
 11
187.882
 21
103.538
  0
LINE
  8
0
 10
187.882
 20
103.538
 11
192.758
 21
105.361
  0
LINE
  8
0
 10
192.758
 20
105.361
 11
197.42
 21
107.442
  0
LINE
  8
0
 10
197.42
 20
107.442
 11
201.894
 21
109.781
  0
LINE
  8
0
 10
201.894
 20
109.781
 11
206.208
 21
112.379
  0
LINE
  8
0
 10
206.208
 20
112.379
 11
210.384
 21
115.236
  0
LINE
  8
0
 10
210.384
 20
115.236
 11
214.44
 21
118.35
  0
LINE
  8
0
 10
214.44
 20
118.35
 11
218.394
 21
121.72
  0
LINE
  8
0
 10
218.394
 20
121.72
 11
222.256
 21
125.343
  0
LINE
  8
0
 10
222.256
 20
125.343
 11
226.041
 21
129.211
  0
LINE
  8
0
 10
226.041
 20
129.211
 11
229.756
 21
133.318
  0
LINE
  8
0
 10
229.756
 20
133.318
 11
233.413
 21
137.654
  0
LINE
  8
0
 10
233.413
 20
137.654
 11
237.023
 21
142.208
  0
LINE
  8
0
 10
237.023
 20
142.208
 11
240.599
 21
146.968
  0
LINE
  8
0
 10
240.599
 20
146.968
 11
244.19
 21
151.961
  0
LINE
  8
0
 10
244.19
 20
151.961
 11
246.201
 21
153.82
  0
LINE
  8
0
 10
246.201
 20
153.82
 11
247.997
 21
154.584
  0
LINE
  8
0
 10
247.997
 20
154.584
 11
249.936
 21
154.812
  0
LINE
  8
0
 10
249.936
 20
154.812
 11
251.86
 21
154.484
  0
LINE
  8
0
 10
251.86
 20
154.484
 11
253.614
 21
153.627
  0
LINE
  8
0
 10
253.614
 20
153.627
 11
255.055
 21
152.31
  0
LINE
  8
0
 10
255.055
 20
152.31
 11
256.068
 21
150.641
  0
LINE
  8
0
 10
256.068
 20
150.641
 11
256.569
 21
148.755
  0
LINE
  8
0
 10
256.569
 20
148.755
 11
256.518
 21
146.803
  0
LINE
  8
0
 10
256.518
 20
146.803
 11
255.623
 21
141.555
  0
LINE
  8
0
 10
255.623
 20
141.555
 11
254.642
 21
135.596
  0
LINE
  8
0
 10
254.642
 20
135.596
 11
253.548
 21
129.012
  0
LINE
  8
0
 10
253.548
 20
129.012
 11
252.305
 21
121.902
  0
LINE
  8
0
 10
252.305
 20
121.902
 11
250.869
 21
114.384
  0
LINE
  8
0
 10
250.869
 20
114.384
 11
250.838
 21
114.229
  0
LINE
  8
0
 10
250.838
 20
114.229
 11
249.191
 21
106.573
  0
LINE
  8
0
 10
249.191
 20
106.573
 11
249.143
 21
106.364
  0
LINE
  8
0
 10
249.143
 20
106.364
 11
247.211
 21
98.5792
  0
LINE
  8
0
 10
247.211
 20
98.5792
 11
247.138
 21
98.3095
  0
LINE
  8
0
 10
247.138
 20
98.3095
 11
244.862
 21
90.5074
  0
LINE
  8
0
 10
244.862
 20
90.5074
 11
244.754
 21
90.1703
  0
LINE
  8
0
 10
244.754
 20
90.1703
 11
242.064
 21
82.4589
  0
LINE
  8
0
 10
242.064
 20
82.4589
 11
241.906
 21
82.048
  0
LINE
  8
0
 10
241.906
 20
82.048
 11
238.73
 21
74.531
  0
LINE
  8
0
 10
238.73
 20
74.531
 11
238.501
 21
74.0437
  0
LINE
  8
0
 10
238.501
 20
74.0437
 11
234.757
 21
66.8207
  0
LINE
  8
0
 10
234.757
 20
66.8207
 11
234.433
 21
66.2629
  0
LINE
  8
0
 10
234.433
 20
66.2629
 11
230.03
 21
59.4291
  0
LINE
  8
0
 10
230.03
 20
59.4291
 11
229.589
 21
58.8206
  0
LINE
  8
0
 10
229.589
 20
58.8206
 11
224.431
 21
52.4675
  0
LINE
  8
0
 10
224.431
 20
52.4675
 11
223.859
 21
51.8457
  0
LINE
  8
0
 10
223.859
 20
51.8457
 11
217.841
 21
46.0612
  0
LINE
  8
0
 10
217.841
 20
46.0612
 11
217.147
 21
45.477
  0
LINE
  8
0
 10
217.147
 20
45.477
 11
210.157
 21
40.3467
  0
LINE
  8
0
 10
210.157
 20
40.3467
 11
209.375
 21
39.8502
  0
LINE
  8
0
 10
209.375
 20
39.8502
 11
201.297
 21
35.4588
  0
LINE
  8
0
 10
201.297
 20
35.4588
 11
200.481
 21
35.0823
  0
LINE
  8
0
 10
200.481
 20
35.0823
 11
191.196
 21
31.5142
  0
LINE
  8
0
 10
191.196
 20
31.5142
 11
190.402
 21
31.2633
  0
LINE
  8
0
 10
190.402
 20
31.2633
 11
179.785
 21
28.6043
  0
LINE
  8
0
 10
179.785
 20
28.6043
 11
179.055
 21
28.4629
  0
LINE
  8
0
 10
179.055
 20
28.4629
 11
166.984
 21
26.8008
  0
LINE
  8
0
 10
166.984
 20
26.8008
 11
166.337
 21
26.7427
  0
LINE
  8
0
 10
166.337
 20
26.7427
 11
152.699
 21
26.1685
  0
LINE
  8
0
 10
152.699
 20
26.1685
 11
152.122
 21
26.1685
  0
LINE
  8
0
 10
152.122
 20
26.1685
 11
138.474
 21
26.7427
  0
LINE
  8
0
 10
85.3389
 20
-328.808
 11
91.2811
 21
-328.544
  0
LINE
  8
0
 10
91.2811
 20
-328.544
 11
92.3125
 21
-328.456
  0
LINE
  8
0
 10
92.3125
 20
-328.456
 11
97.977
 21
-327.739
  0
LINE
  8
0
 10
97.977
 20
-327.739
 11
99.0712
 21
-327.551
  0
LINE
  8
0
 10
99.0712
 20
-327.551
 11
104.46
 21
-326.383
  0
LINE
  8
0
 10
104.46
 20
-326.383
 11
105.601
 21
-326.08
  0
LINE
  8
0
 10
105.601
 20
-326.08
 11
110.718
 21
-324.462
  0
LINE
  8
0
 10
110.718
 20
-324.462
 11
111.878
 21
-324.032
  0
LINE
  8
0
 10
111.878
 20
-324.032
 11
116.728
 21
-321.959
  0
LINE
  8
0
 10
116.728
 20
-321.959
 11
117.874
 21
-321.4
  0
LINE
  8
0
 10
117.874
 20
-321.4
 11
122.463
 21
-318.868
  0
LINE
  8
0
 10
122.463
 20
-318.868
 11
123.557
 21
-318.19
  0
LINE
  8
0
 10
123.557
 20
-318.19
 11
127.892
 21
-315.189
  0
LINE
  8
0
 10
127.892
 20
-315.189
 11
128.896
 21
-314.417
  0
LINE
  8
0
 10
128.896
 20
-314.417
 11
132.987
 21
-310.934
  0
LINE
  8
0
 10
132.987
 20
-310.934
 11
133.874
 21
-310.101
  0
LINE
  8
0
 10
133.874
 20
-310.101
 11
137.73
 21
-306.122
  0
LINE
  8
0
 10
137.73
 20
-306.122
 11
138.486
 21
-305.268
  0
LINE
  8
0
 10
138.486
 20
-305.268
 11
142.118
 21
-300.774
  0
LINE
  8
0
 10
142.118
 20
-300.774
 11
142.742
 21
-299.934
  0
LINE
  8
0
 10
142.742
 20
-299.934
 11
146.162
 21
-294.906
  0
LINE
  8
0
 10
146.162
 20
-294.906
 11
146.662
 21
-294.108
  0
LINE
  8
0
 10
146.662
 20
-294.108
 11
149.884
 21
-288.523
  0
LINE
  8
0
 10
149.884
 20
-288.523
 11
150.276
 21
-287.788
  0
LINE
  8
0
 10
150.276
 20
-287.788
 11
153.313
 21
-281.619
  0
LINE
  8
0
 10
153.313
 20
-281.619
 11
153.616
 21
-280.957
  0
LINE
  8
0
 10
153.616
 20
-280.957
 11
156.483
 21
-274.179
  0
LINE
  8
0
 10
156.483
 20
-274.179
 11
156.686
 21
-273.511
  0
LINE
  8
0
 10
156.686
 20
-273.511
 11
156.731
 21
-273.527
  0
LINE
  8
0
 10
156.731
 20
-273.527
 11
158.292
 21
-269.187
  0
LINE
  8
0
 10
158.292
 20
-269.187
 11
158.515
 21
-268.506
  0
LINE
  8
0
 10
158.515
 20
-268.506
 11
159.856
 21
-263.995
  0
LINE
  8
0
 10
159.856
 20
-263.995
 11
160.028
 21
-263.357
  0
LINE
  8
0
 10
160.028
 20
-263.357
 11
161.154
 21
-258.689
  0
LINE
  8
0
 10
161.154
 20
-258.689
 11
161.283
 21
-258.094
  0
LINE
  8
0
 10
161.283
 20
-258.094
 11
162.203
 21
-253.281
  0
LINE
  8
0
 10
162.203
 20
-253.281
 11
162.296
 21
-252.727
  0
LINE
  8
0
 10
162.296
 20
-252.727
 11
163.016
 21
-247.78
  0
LINE
  8
0
 10
163.016
 20
-247.78
 11
163.081
 21
-247.267
  0
LINE
  8
0
 10
163.081
 20
-247.267
 11
163.609
 21
-242.198
  0
LINE
  8
0
 10
163.609
 20
-242.198
 11
163.65
 21
-241.721
  0
LINE
  8
0
 10
163.65
 20
-241.721
 11
163.993
 21
-236.542
  0
LINE
  8
0
 10
163.993
 20
-236.542
 11
164.015
 21
-236.1
  0
LINE
  8
0
 10
164.015
 20
-236.1
 11
164.18
 21
-230.821
  0
LINE
  8
0
 10
164.18
 20
-230.821
 11
164.187
 21
-230.411
  0
LINE
  8
0
 10
164.187
 20
-230.411
 11
164.182
 21
-225.044
  0
LINE
  8
0
 10
164.182
 20
-225.044
 11
164.176
 21
-224.663
  0
LINE
  8
0
 10
164.176
 20
-224.663
 11
164.007
 21
-219.219
  0
LINE
  8
0
 10
164.007
 20
-219.219
 11
163.991
 21
-218.864
  0
LINE
  8
0
 10
163.991
 20
-218.864
 11
163.666
 21
-213.355
  0
LINE
  8
0
 10
163.666
 20
-213.355
 11
163.642
 21
-213.023
  0
LINE
  8
0
 10
163.642
 20
-213.023
 11
163.167
 21
-207.46
  0
LINE
  8
0
 10
163.167
 20
-207.46
 11
163.137
 21
-207.149
  0
LINE
  8
0
 10
163.137
 20
-207.149
 11
162.519
 21
-201.543
  0
LINE
  8
0
 10
162.519
 20
-201.543
 11
162.483
 21
-201.251
  0
LINE
  8
0
 10
162.483
 20
-201.251
 11
161.729
 21
-195.612
  0
LINE
  8
0
 10
161.729
 20
-195.612
 11
161.689
 21
-195.337
  0
LINE
  8
0
 10
161.689
 20
-195.337
 11
160.805
 21
-189.676
  0
LINE
  8
0
 10
160.805
 20
-189.676
 11
160.761
 21
-189.416
  0
LINE
  8
0
 10
160.761
 20
-189.416
 11
159.754
 21
-183.743
  0
LINE
  8
0
 10
159.754
 20
-183.743
 11
159.708
 21
-183.496
  0
LINE
  8
0
 10
159.708
 20
-183.496
 11
158.584
 21
-177.822
  0
LINE
  8
0
 10
158.584
 20
-177.822
 11
158.535
 21
-177.587
  0
LINE
  8
0
 10
158.535
 20
-177.587
 11
157.301
 21
-171.921
  0
LINE
  8
0
 10
157.301
 20
-171.921
 11
157.25
 21
-171.696
  0
LINE
  8
0
 10
157.25
 20
-171.696
 11
155.912
 21
-166.048
  0
LINE
  8
0
 10
155.912
 20
-166.048
 11
155.859
 21
-165.832
  0
LINE
  8
0
 10
155.859
 20
-165.832
 11
154.423
 21
-160.21
  0
LINE
  8
0
 10
154.423
 20
-160.21
 11
154.329
 21
-159.957
  0
LINE
  8
0
 10
154.329
 20
-159.957
 11
154.352
 21
-159.951
  0
LINE
  8
0
 10
154.352
 20
-159.951
 11
152.028
 21
-151.597
  0
LINE
  8
0
 10
152.028
 20
-151.597
 11
151.946
 21
-151.315
  0
LINE
  8
0
 10
151.946
 20
-151.315
 11
149.441
 21
-143.055
  0
LINE
  8
0
 10
149.441
 20
-143.055
 11
149.355
 21
-142.782
  0
LINE
  8
0
 10
149.355
 20
-142.782
 11
146.687
 21
-134.65
  0
LINE
  8
0
 10
146.687
 20
-134.65
 11
146.596
 21
-134.383
  0
LINE
  8
0
 10
146.596
 20
-134.383
 11
143.779
 21
-126.4
  0
LINE
  8
0
 10
143.779
 20
-126.4
 11
143.682
 21
-126.134
  0
LINE
  8
0
 10
143.682
 20
-126.134
 11
140.726
 21
-118.317
  0
LINE
  8
0
 10
140.726
 20
-118.317
 11
140.621
 21
-118.049
  0
LINE
  8
0
 10
140.621
 20
-118.049
 11
137.533
 21
-110.411
  0
LINE
  8
0
 10
137.533
 20
-110.411
 11
137.419
 21
-110.138
  0
LINE
  8
0
 10
137.419
 20
-110.138
 11
134.202
 21
-102.686
  0
LINE
  8
0
 10
134.202
 20
-102.686
 11
134.076
 21
-102.403
  0
LINE
  8
0
 10
134.076
 20
-102.403
 11
130.728
 21
-95.1385
  0
LINE
  8
0
 10
130.728
 20
-95.1385
 11
130.588
 21
-94.8438
  0
LINE
  8
0
 10
130.588
 20
-94.8438
 11
127.1
 21
-87.7605
  0
LINE
  8
0
 10
127.1
 20
-87.7605
 11
126.943
 21
-87.4518
  0
LINE
  8
0
 10
126.943
 20
-87.4518
 11
123.299
 21
-80.5358
  0
LINE
  8
0
 10
123.299
 20
-80.5358
 11
123.123
 21
-80.2129
  0
LINE
  8
0
 10
123.123
 20
-80.2129
 11
119.301
 21
-73.4413
  0
LINE
  8
0
 10
119.301
 20
-73.4413
 11
119.105
 21
-73.1057
  0
LINE
  8
0
 10
119.105
 20
-73.1057
 11
115.073
 21
-66.4466
  0
LINE
  8
0
 10
115.073
 20
-66.4466
 11
114.858
 21
-66.1028
  0
LINE
  8
0
 10
114.858
 20
-66.1028
 11
110.575
 21
-59.515
  0
LINE
  8
0
 10
110.575
 20
-59.515
 11
110.343
 21
-59.1695
  0
LINE
  8
0
 10
110.343
 20
-59.1695
 11
105.762
 21
-52.6038
  0
LINE
  8
0
 10
105.762
 20
-52.6038
 11
105.517
 21
-52.2647
  0
LINE
  8
0
 10
105.517
 20
-52.2647
 11
100.581
 21
-45.6648
  0
LINE
  8
0
 10
100.581
 20
-45.6648
 11
100.33
 21
-45.3406
  0
LINE
  8
0
 10
100.33
 20
-45.3406
 11
94.9775
 21
-38.6455
  0
LINE
  8
0
 10
94.9775
 20
-38.6455
 11
94.7282
 21
-38.3434
  0
LINE
  8
0
 10
94.7282
 20
-38.3434
 11
88.8933
 21
-31.4893
  0
LINE
  8
0
 10
88.8933
 20
-31.4893
 11
88.6522
 21
-31.2143
  0
LINE
  8
0
 10
88.6522
 20
-31.2143
 11
82.2666
 21
-24.1368
  0
LINE
  8
0
 10
82.2666
 20
-24.1368
 11
82.0394
 21
-23.8915
  0
LINE
  8
0
 10
82.0394
 20
-23.8915
 11
75.0344
 21
-16.5269
  0
LINE
  8
0
 10
75.0344
 20
-16.5269
 11
74.8249
 21
-16.3118
  0
LINE
  8
0
 10
74.8249
 20
-16.3118
 11
67.1326
 21
-8.59822
  0
LINE
  8
0
 10
67.1326
 20
-8.59822
 11
65.0716
 21
-6.92451
  0
LINE
  8
0
 10
65.0716
 20
-6.92451
 11
62.7076
 21
-5.7159
  0
LINE
  8
0
 10
62.7076
 20
-5.7159
 11
60.144
 21
-5.02518
  0
LINE
  8
0
 10
60.144
 20
-5.02518
 11
57.4928
 21
-4.88257
  0
LINE
  8
0
 10
57.4928
 20
-4.88257
 11
54.8699
 21
-5.29428
  0
LINE
  8
0
 10
54.8699
 20
-5.29428
 11
52.3899
 21
-6.24234
  0
LINE
  8
0
 10
52.3899
 20
-6.24234
 11
50.1612
 21
-7.68529
  0
LINE
  8
0
 10
50.1612
 20
-7.68529
 11
49.0757
 21
-8.67064
  0
LINE
  8
0
 10
49.0757
 20
-8.67064
 11
8.15669
 21
-50.3664
  0
LINE
  8
0
 10
8.15669
 20
-50.3664
 11
6.50531
 21
-52.4454
  0
LINE
  8
0
 10
6.50531
 20
-52.4454
 11
5.32225
 21
-54.8222
  0
LINE
  8
0
 10
5.32225
 20
-54.8222
 11
4.65923
 21
-57.3931
  0
LINE
  8
0
 10
4.65923
 20
-57.3931
 11
4.54521
 21
-60.0457
  0
LINE
  8
0
 10
4.54521
 20
-60.0457
 11
4.98518
 21
-62.664
  0
LINE
  8
0
 10
4.98518
 20
-62.664
 11
5.95992
 21
-65.1336
  0
LINE
  8
0
 10
5.95992
 20
-65.1336
 11
8.12149
 21
-68.1212
  0
LINE
  8
0
 10
8.12149
 20
-68.1212
 11
12.878
 21
-73.0066
  0
LINE
  8
0
 10
12.878
 20
-73.0066
 11
16.9447
 21
-77.6063
  0
LINE
  8
0
 10
16.9447
 20
-77.6063
 11
20.5549
 21
-82.1355
  0
LINE
  8
0
 10
20.5549
 20
-82.1355
 11
23.743
 21
-86.6071
  0
LINE
  8
0
 10
23.743
 20
-86.6071
 11
26.5458
 21
-91.04
  0
LINE
  8
0
 10
26.5458
 20
-91.04
 11
28.9993
 21
-95.456
  0
LINE
  8
0
 10
28.9993
 20
-95.456
 11
31.1382
 21
-99.881
  0
LINE
  8
0
 10
31.1382
 20
-99.881
 11
32.9951
 21
-104.343
  0
LINE
  8
0
 10
32.9951
 20
-104.343
 11
34.5988
 21
-108.87
  0
LINE
  8
0
 10
34.5988
 20
-108.87
 11
35.9749
 21
-113.489
  0
LINE
  8
0
 10
35.9749
 20
-113.489
 11
37.1456
 21
-118.222
  0
LINE
  8
0
 10
37.1456
 20
-118.222
 11
38.1305
 21
-123.086
  0
LINE
  8
0
 10
38.1305
 20
-123.086
 11
38.9473
 21
-128.098
  0
LINE
  8
0
 10
38.9473
 20
-128.098
 11
39.6121
 21
-133.263
  0
LINE
  8
0
 10
39.6121
 20
-133.263
 11
40.1403
 21
-138.586
  0
LINE
  8
0
 10
40.1403
 20
-138.586
 11
40.5461
 21
-144.069
  0
LINE
  8
0
 10
40.5461
 20
-144.069
 11
40.8428
 21
-149.706
  0
LINE
  8
0
 10
40.8428
 20
-149.706
 11
41.0432
 21
-155.497
  0
LINE
  8
0
 10
41.0432
 20
-155.497
 11
41.1584
 21
-161.432
  0
LINE
  8
0
 10
41.1584
 20
-161.432
 11
41.1989
 21
-167.512
  0
LINE
  8
0
 10
41.1989
 20
-167.512
 11
41.1971
 21
-169.01
  0
LINE
  8
0
 10
41.1971
 20
-169.01
 11
41.1896
 21
-170.541
  0
LINE
  8
0
 10
41.1896
 20
-170.541
 11
41.1764
 21
-172.08
  0
LINE
  8
0
 10
41.1764
 20
-172.08
 11
41.1577
 21
-173.627
  0
LINE
  8
0
 10
41.1577
 20
-173.627
 11
41.1335
 21
-175.181
  0
LINE
  8
0
 10
41.1335
 20
-175.181
 11
41.104
 21
-176.744
  0
LINE
  8
0
 10
41.104
 20
-176.744
 11
41.0694
 21
-178.307
  0
LINE
  8
0
 10
41.0694
 20
-178.307
 11
41.0296
 21
-179.884
  0
LINE
  8
0
 10
41.0296
 20
-179.884
 11
40.9848
 21
-181.47
  0
LINE
  8
0
 10
40.9848
 20
-181.47
 11
40.9354
 21
-183.058
  0
LINE
  8
0
 10
40.9354
 20
-183.058
 11
40.8815
 21
-184.653
  0
LINE
  8
0
 10
40.8815
 20
-184.653
 11
40.8228
 21
-186.263
  0
LINE
  8
0
 10
40.8228
 20
-186.263
 11
40.7603
 21
-187.867
  0
LINE
  8
0
 10
40.7603
 20
-187.867
 11
40.6934
 21
-189.488
  0
LINE
  8
0
 10
40.6934
 20
-189.488
 11
40.6228
 21
-191.11
  0
LINE
  8
0
 10
40.6228
 20
-191.11
 11
40.5485
 21
-192.738
  0
LINE
  8
0
 10
40.5485
 20
-192.738
 11
40.4709
 21
-194.371
  0
LINE
  8
0
 10
40.4709
 20
-194.371
 11
40.389
 21
-196.027
  0
LINE
  8
0
 10
40.389
 20
-196.027
 11
40.3054
 21
-197.663
  0
LINE
  8
0
 10
40.3054
 20
-197.663
 11
40.2178
 21
-199.326
  0
LINE
  8
0
 10
40.2178
 20
-199.326
 11
40.2211
 21
-199.388
  0
LINE
  8
0
 10
40.2211
 20
-199.388
 11
39.8628
 21
-206.129
  0
LINE
  8
0
 10
39.8628
 20
-206.129
 11
39.508
 21
-212.731
  0
LINE
  8
0
 10
39.508
 20
-212.731
 11
39.1601
 21
-219.107
  0
LINE
  8
0
 10
39.1601
 20
-219.107
 11
38.8143
 21
-225.308
  0
LINE
  8
0
 10
38.8143
 20
-225.308
 11
38.4686
 21
-231.323
  0
LINE
  8
0
 10
38.4686
 20
-231.323
 11
38.1201
 21
-237.153
  0
LINE
  8
0
 10
38.1201
 20
-237.153
 11
37.7641
 21
-242.824
  0
LINE
  8
0
 10
37.7641
 20
-242.824
 11
37.3972
 21
-248.338
  0
LINE
  8
0
 10
37.3972
 20
-248.338
 11
37.0152
 21
-253.706
  0
LINE
  8
0
 10
37.0152
 20
-253.706
 11
36.6142
 21
-258.935
  0
LINE
  8
0
 10
36.6142
 20
-258.935
 11
36.1906
 21
-264.033
  0
LINE
  8
0
 10
36.1906
 20
-264.033
 11
35.7402
 21
-269.011
  0
LINE
  8
0
 10
35.7402
 20
-269.011
 11
35.2595
 21
-273.877
  0
LINE
  8
0
 10
35.2595
 20
-273.877
 11
34.7451
 21
-278.638
  0
LINE
  8
0
 10
34.7451
 20
-278.638
 11
34.194
 21
-283.3
  0
LINE
  8
0
 10
34.194
 20
-283.3
 11
33.6029
 21
-287.874
  0
LINE
  8
0
 10
33.6029
 20
-287.874
 11
32.9698
 21
-292.359
  0
LINE
  8
0
 10
32.9698
 20
-292.359
 11
32.2915
 21
-296.769
  0
LINE
  8
0
 10
32.2915
 20
-296.769
 11
31.5665
 21
-301.103
  0
LINE
  8
0
 10
31.5665
 20
-301.103
 11
30.7758
 21
-305.46
  0
LINE
  8
0
 10
30.7758
 20
-305.46
 11
30.5773
 21
-308.107
  0
LINE
  8
0
 10
30.5773
 20
-308.107
 11
30.9337
 21
-310.738
  0
LINE
  8
0
 10
30.9337
 20
-310.738
 11
31.8293
 21
-313.238
  0
LINE
  8
0
 10
31.8293
 20
-313.238
 11
33.225
 21
-315.496
  0
LINE
  8
0
 10
33.225
 20
-315.496
 11
35.0598
 21
-317.415
  0
LINE
  8
0
 10
35.0598
 20
-317.415
 11
37.2534
 21
-318.911
  0
LINE
  8
0
 10
37.2534
 20
-318.911
 11
39.0988
 21
-319.722
  0
LINE
  8
0
 10
39.0988
 20
-319.722
 11
46.708
 21
-322.37
  0
LINE
  8
0
 10
46.708
 20
-322.37
 11
47.3417
 21
-322.572
  0
LINE
  8
0
 10
47.3417
 20
-322.572
 11
54.6762
 21
-324.7
  0
LINE
  8
0
 10
54.6762
 20
-324.7
 11
55.3652
 21
-324.879
  0
LINE
  8
0
 10
55.3652
 20
-324.879
 11
62.4232
 21
-326.504
  0
LINE
  8
0
 10
62.4232
 20
-326.504
 11
63.1731
 21
-326.653
  0
LINE
  8
0
 10
63.1731
 20
-326.653
 11
69.9529
 21
-327.79
  0
LINE
  8
0
 10
69.9529
 20
-327.79
 11
70.7693
 21
-327.9
  0
LINE
  8
0
 10
70.7693
 20
-327.9
 11
77.2701
 21
-328.561
  0
LINE
  8
0
 10
77.2701
 20
-328.561
 11
78.1573
 21
-328.62
  0
LINE
  8
0
 10
78.1573
 20
-328.62
 11
84.3786
 21
-328.814
  0
LINE
  8
0
 10
84.3786
 20
-328.814
 11
85.3389
 21
-328.808
  0
LINE
  8
0
 10
78.3398
 20
-322.78
 11
77.8606
 21
-322.749
  0
LINE
  8
0
 10
77.8606
 20
-322.749
 11
71.3599
 21
-322.088
  0
LINE
  8
0
 10
71.3599
 20
-322.088
 11
70.9191
 21
-322.029
  0
LINE
  8
0
 10
70.9191
 20
-322.029
 11
64.1392
 21
-320.892
  0
LINE
  8
0
 10
64.1392
 20
-320.892
 11
63.7343
 21
-320.811
  0
LINE
  8
0
 10
63.7343
 20
-320.811
 11
56.6763
 21
-319.186
  0
LINE
  8
0
 10
56.6763
 20
-319.186
 11
56.3043
 21
-319.089
  0
LINE
  8
0
 10
56.3043
 20
-319.089
 11
48.9697
 21
-316.961
  0
LINE
  8
0
 10
48.9697
 20
-316.961
 11
48.6276
 21
-316.852
  0
LINE
  8
0
 10
48.6276
 20
-316.852
 11
41.0183
 21
-314.205
  0
LINE
  8
0
 10
41.0183
 20
-314.205
 11
39.3546
 21
-313.357
  0
LINE
  8
0
 10
39.3546
 20
-313.357
 11
37.9273
 21
-312.025
  0
LINE
  8
0
 10
37.9273
 20
-312.025
 11
36.933
 21
-310.345
  0
LINE
  8
0
 10
36.933
 20
-310.345
 11
36.4522
 21
-308.454
  0
LINE
  8
0
 10
36.4522
 20
-308.454
 11
36.5239
 21
-306.503
  0
LINE
  8
0
 10
36.5239
 20
-306.503
 11
37.3217
 21
-302.107
  0
LINE
  8
0
 10
37.3217
 20
-302.107
 11
38.0599
 21
-297.694
  0
LINE
  8
0
 10
38.0599
 20
-297.694
 11
38.7492
 21
-293.213
  0
LINE
  8
0
 10
38.7492
 20
-293.213
 11
39.3925
 21
-288.655
  0
LINE
  8
0
 10
39.3925
 20
-288.655
 11
39.992
 21
-284.017
  0
LINE
  8
0
 10
39.992
 20
-284.017
 11
40.55
 21
-279.296
  0
LINE
  8
0
 10
40.55
 20
-279.296
 11
41.0706
 21
-274.477
  0
LINE
  8
0
 10
41.0706
 20
-274.477
 11
41.5563
 21
-269.562
  0
LINE
  8
0
 10
41.5563
 20
-269.562
 11
42.0107
 21
-264.539
  0
LINE
  8
0
 10
42.0107
 20
-264.539
 11
42.4378
 21
-259.4
  0
LINE
  8
0
 10
42.4378
 20
-259.4
 11
42.8415
 21
-254.135
  0
LINE
  8
0
 10
42.8415
 20
-254.135
 11
43.2254
 21
-248.739
  0
LINE
  8
0
 10
43.2254
 20
-248.739
 11
43.5937
 21
-243.205
  0
LINE
  8
0
 10
43.5937
 20
-243.205
 11
43.951
 21
-237.513
  0
LINE
  8
0
 10
43.951
 20
-237.513
 11
44.3007
 21
-231.664
  0
LINE
  8
0
 10
44.3007
 20
-231.664
 11
44.647
 21
-225.638
  0
LINE
  8
0
 10
44.647
 20
-225.638
 11
44.9931
 21
-219.433
  0
LINE
  8
0
 10
44.9931
 20
-219.433
 11
45.3416
 21
-213.045
  0
LINE
  8
0
 10
45.3416
 20
-213.045
 11
45.6962
 21
-206.446
  0
LINE
  8
0
 10
45.6962
 20
-206.446
 11
46.0559
 21
-199.679
  0
LINE
  8
0
 10
46.0559
 20
-199.679
 11
46.0517
 21
-199.633
  0
LINE
  8
0
 10
46.0517
 20
-199.633
 11
46.1398
 21
-197.961
  0
LINE
  8
0
 10
46.1398
 20
-197.961
 11
46.2244
 21
-196.307
  0
LINE
  8
0
 10
46.2244
 20
-196.307
 11
46.3055
 21
-194.664
  0
LINE
  8
0
 10
46.3055
 20
-194.664
 11
46.3843
 21
-193.008
  0
LINE
  8
0
 10
46.3843
 20
-193.008
 11
46.4591
 21
-191.367
  0
LINE
  8
0
 10
46.4591
 20
-191.367
 11
46.53
 21
-189.738
  0
LINE
  8
0
 10
46.53
 20
-189.738
 11
46.5975
 21
-188.104
  0
LINE
  8
0
 10
46.5975
 20
-188.104
 11
46.6608
 21
-186.479
  0
LINE
  8
0
 10
46.6608
 20
-186.479
 11
46.7198
 21
-184.861
  0
LINE
  8
0
 10
46.7198
 20
-184.861
 11
46.7745
 21
-183.244
  0
LINE
  8
0
 10
46.7745
 20
-183.244
 11
46.8243
 21
-181.644
  0
LINE
  8
0
 10
46.8243
 20
-181.644
 11
46.8694
 21
-180.045
  0
LINE
  8
0
 10
46.8694
 20
-180.045
 11
46.9097
 21
-178.447
  0
LINE
  8
0
 10
46.9097
 20
-178.447
 11
46.9449
 21
-176.858
  0
LINE
  8
0
 10
46.9449
 20
-176.858
 11
46.9747
 21
-175.283
  0
LINE
  8
0
 10
46.9747
 20
-175.283
 11
46.9992
 21
-173.706
  0
LINE
  8
0
 10
46.9992
 20
-173.706
 11
47.0181
 21
-172.142
  0
LINE
  8
0
 10
47.0181
 20
-172.142
 11
47.0314
 21
-170.581
  0
LINE
  8
0
 10
47.0314
 20
-170.581
 11
47.0391
 21
-169.025
  0
LINE
  8
0
 10
47.0391
 20
-169.025
 11
47.0409
 21
-167.496
  0
LINE
  8
0
 10
47.0409
 20
-167.496
 11
47
 21
-161.356
  0
LINE
  8
0
 10
47
 20
-161.356
 11
46.8832
 21
-155.339
  0
LINE
  8
0
 10
46.8832
 20
-155.339
 11
46.6796
 21
-149.452
  0
LINE
  8
0
 10
46.6796
 20
-149.452
 11
46.3767
 21
-143.699
  0
LINE
  8
0
 10
46.3767
 20
-143.699
 11
45.9609
 21
-138.082
  0
LINE
  8
0
 10
45.9609
 20
-138.082
 11
45.4172
 21
-132.601
  0
LINE
  8
0
 10
45.4172
 20
-132.601
 11
44.7289
 21
-127.254
  0
LINE
  8
0
 10
44.7289
 20
-127.254
 11
43.8785
 21
-122.037
  0
LINE
  8
0
 10
43.8785
 20
-122.037
 11
42.8467
 21
-116.94
  0
LINE
  8
0
 10
42.8467
 20
-116.94
 11
41.613
 21
-111.952
  0
LINE
  8
0
 10
41.613
 20
-111.952
 11
40.1552
 21
-107.059
  0
LINE
  8
0
 10
40.1552
 20
-107.059
 11
38.4492
 21
-102.244
  0
LINE
  8
0
 10
38.4492
 20
-102.244
 11
36.4691
 21
-97.4857
  0
LINE
  8
0
 10
36.4691
 20
-97.4857
 11
34.1867
 21
-92.764
  0
LINE
  8
0
 10
34.1867
 20
-92.764
 11
31.5721
 21
-88.0578
  0
LINE
  8
0
 10
31.5721
 20
-88.0578
 11
28.594
 21
-83.3478
  0
LINE
  8
0
 10
28.594
 20
-83.3478
 11
25.2208
 21
-78.6166
  0
LINE
  8
0
 10
25.2208
 20
-78.6166
 11
21.4201
 21
-73.8484
  0
LINE
  8
0
 10
21.4201
 20
-73.8484
 11
17.1617
 21
-69.0319
  0
LINE
  8
0
 10
17.1617
 20
-69.0319
 11
12.3073
 21
-64.0459
  0
LINE
  8
0
 10
12.3073
 20
-64.0459
 11
10.8182
 21
-61.7188
  0
LINE
  8
0
 10
10.8182
 20
-61.7188
 11
10.3854
 21
-59.8154
  0
LINE
  8
0
 10
10.3854
 20
-59.8154
 11
10.5063
 21
-57.8671
  0
LINE
  8
0
 10
10.5063
 20
-57.8671
 11
11.1712
 21
-56.0319
  0
LINE
  8
0
 10
11.1712
 20
-56.0319
 11
12.3263
 21
-54.4583
  0
LINE
  8
0
 10
12.3263
 20
-54.4583
 11
53.2452
 21
-12.7625
  0
LINE
  8
0
 10
53.2452
 20
-12.7625
 11
54.0377
 21
-12.0703
  0
LINE
  8
0
 10
54.0377
 20
-12.0703
 11
55.7522
 21
-11.1372
  0
LINE
  8
0
 10
55.7522
 20
-11.1372
 11
57.6602
 21
-10.7249
  0
LINE
  8
0
 10
57.6602
 20
-10.7249
 11
59.607
 21
-10.8668
  0
LINE
  8
0
 10
59.607
 20
-10.8668
 11
61.435
 21
-11.5515
  0
LINE
  8
0
 10
61.435
 20
-11.5515
 11
62.996
 21
-12.7234
  0
LINE
  8
0
 10
62.996
 20
-12.7234
 11
70.6883
 21
-20.437
  0
LINE
  8
0
 10
70.6883
 20
-20.437
 11
70.8014
 21
-20.5531
  0
LINE
  8
0
 10
70.8014
 20
-20.5531
 11
77.8064
 21
-27.9178
  0
LINE
  8
0
 10
77.8064
 20
-27.9178
 11
77.9291
 21
-28.0502
  0
LINE
  8
0
 10
77.9291
 20
-28.0502
 11
84.3147
 21
-35.1277
  0
LINE
  8
0
 10
84.3147
 20
-35.1277
 11
84.4449
 21
-35.2763
  0
LINE
  8
0
 10
84.4449
 20
-35.2763
 11
90.2799
 21
-42.1303
  0
LINE
  8
0
 10
90.2799
 20
-42.1303
 11
90.4145
 21
-42.2935
  0
LINE
  8
0
 10
90.4145
 20
-42.2935
 11
95.7669
 21
-48.9886
  0
LINE
  8
0
 10
95.7669
 20
-48.9886
 11
95.9023
 21
-49.1636
  0
LINE
  8
0
 10
95.9023
 20
-49.1636
 11
100.838
 21
-55.7635
  0
LINE
  8
0
 10
100.838
 20
-55.7635
 11
100.97
 21
-55.9466
  0
LINE
  8
0
 10
100.97
 20
-55.9466
 11
105.552
 21
-62.5124
  0
LINE
  8
0
 10
105.552
 20
-62.5124
 11
105.677
 21
-62.699
  0
LINE
  8
0
 10
105.677
 20
-62.699
 11
109.959
 21
-69.2867
  0
LINE
  8
0
 10
109.959
 20
-69.2867
 11
110.076
 21
-69.4724
  0
LINE
  8
0
 10
110.076
 20
-69.4724
 11
114.108
 21
-76.1315
  0
LINE
  8
0
 10
114.108
 20
-76.1315
 11
114.214
 21
-76.3127
  0
LINE
  8
0
 10
114.214
 20
-76.3127
 11
118.035
 21
-83.0842
  0
LINE
  8
0
 10
118.035
 20
-83.0842
 11
118.131
 21
-83.2586
  0
LINE
  8
0
 10
118.131
 20
-83.2586
 11
121.774
 21
-90.1746
  0
LINE
  8
0
 10
121.774
 20
-90.1746
 11
121.859
 21
-90.3413
  0
LINE
  8
0
 10
121.859
 20
-90.3413
 11
125.347
 21
-97.4246
  0
LINE
  8
0
 10
125.347
 20
-97.4246
 11
125.423
 21
-97.5837
  0
LINE
  8
0
 10
125.423
 20
-97.5837
 11
128.771
 21
-104.848
  0
LINE
  8
0
 10
128.771
 20
-104.848
 11
128.839
 21
-105.001
  0
LINE
  8
0
 10
128.839
 20
-105.001
 11
132.056
 21
-112.453
  0
LINE
  8
0
 10
132.056
 20
-112.453
 11
132.117
 21
-112.601
  0
LINE
  8
0
 10
132.117
 20
-112.601
 11
135.205
 21
-120.239
  0
LINE
  8
0
 10
135.205
 20
-120.239
 11
135.262
 21
-120.383
  0
LINE
  8
0
 10
135.262
 20
-120.383
 11
138.218
 21
-128.2
  0
LINE
  8
0
 10
138.218
 20
-128.2
 11
138.27
 21
-128.344
  0
LINE
  8
0
 10
138.27
 20
-128.344
 11
141.087
 21
-136.327
  0
LINE
  8
0
 10
141.087
 20
-136.327
 11
141.136
 21
-136.471
  0
LINE
  8
0
 10
141.136
 20
-136.471
 11
143.804
 21
-144.603
  0
LINE
  8
0
 10
143.804
 20
-144.603
 11
143.851
 21
-144.751
  0
LINE
  8
0
 10
143.851
 20
-144.751
 11
146.356
 21
-153.01
  0
LINE
  8
0
 10
146.356
 20
-153.01
 11
146.4
 21
-153.163
  0
LINE
  8
0
 10
146.4
 20
-153.163
 11
148.723
 21
-161.516
  0
LINE
  8
0
 10
148.723
 20
-161.516
 11
148.707
 21
-161.521
  0
LINE
  8
0
 10
148.707
 20
-161.521
 11
148.763
 21
-161.656
  0
LINE
  8
0
 10
148.763
 20
-161.656
 11
150.199
 21
-167.278
  0
LINE
  8
0
 10
150.199
 20
-167.278
 11
150.228
 21
-167.394
  0
LINE
  8
0
 10
150.228
 20
-167.394
 11
151.565
 21
-173.043
  0
LINE
  8
0
 10
151.565
 20
-173.043
 11
151.593
 21
-173.164
  0
LINE
  8
0
 10
151.593
 20
-173.164
 11
152.827
 21
-178.83
  0
LINE
  8
0
 10
152.827
 20
-178.83
 11
152.853
 21
-178.957
  0
LINE
  8
0
 10
152.853
 20
-178.957
 11
153.977
 21
-184.631
  0
LINE
  8
0
 10
153.977
 20
-184.631
 11
154.002
 21
-184.764
  0
LINE
  8
0
 10
154.002
 20
-184.764
 11
155.009
 21
-190.437
  0
LINE
  8
0
 10
155.009
 20
-190.437
 11
155.033
 21
-190.577
  0
LINE
  8
0
 10
155.033
 20
-190.577
 11
155.917
 21
-196.238
  0
LINE
  8
0
 10
155.917
 20
-196.238
 11
155.938
 21
-196.387
  0
LINE
  8
0
 10
155.938
 20
-196.387
 11
156.692
 21
-202.026
  0
LINE
  8
0
 10
156.692
 20
-202.026
 11
156.712
 21
-202.183
  0
LINE
  8
0
 10
156.712
 20
-202.183
 11
157.33
 21
-207.789
  0
LINE
  8
0
 10
157.33
 20
-207.789
 11
157.346
 21
-207.957
  0
LINE
  8
0
 10
157.346
 20
-207.957
 11
157.821
 21
-213.52
  0
LINE
  8
0
 10
157.821
 20
-213.52
 11
157.834
 21
-213.7
  0
LINE
  8
0
 10
157.834
 20
-213.7
 11
158.159
 21
-219.208
  0
LINE
  8
0
 10
158.159
 20
-219.208
 11
158.168
 21
-219.4
  0
LINE
  8
0
 10
158.168
 20
-219.4
 11
158.337
 21
-224.843
  0
LINE
  8
0
 10
158.337
 20
-224.843
 11
158.34
 21
-225.049
  0
LINE
  8
0
 10
158.34
 20
-225.049
 11
158.345
 21
-230.416
  0
LINE
  8
0
 10
158.345
 20
-230.416
 11
158.341
 21
-230.638
  0
LINE
  8
0
 10
158.341
 20
-230.638
 11
158.176
 21
-235.916
  0
LINE
  8
0
 10
158.176
 20
-235.916
 11
158.164
 21
-236.155
  0
LINE
  8
0
 10
158.164
 20
-236.155
 11
157.82
 21
-241.335
  0
LINE
  8
0
 10
157.82
 20
-241.335
 11
157.798
 21
-241.592
  0
LINE
  8
0
 10
157.798
 20
-241.592
 11
157.27
 21
-246.661
  0
LINE
  8
0
 10
157.27
 20
-246.661
 11
157.235
 21
-246.938
  0
LINE
  8
0
 10
157.235
 20
-246.938
 11
156.515
 21
-251.885
  0
LINE
  8
0
 10
156.515
 20
-251.885
 11
156.465
 21
-252.184
  0
LINE
  8
0
 10
156.465
 20
-252.184
 11
155.545
 21
-256.997
  0
LINE
  8
0
 10
155.545
 20
-256.997
 11
155.475
 21
-257.318
  0
LINE
  8
0
 10
155.475
 20
-257.318
 11
154.349
 21
-261.986
  0
LINE
  8
0
 10
154.349
 20
-261.986
 11
154.256
 21
-262.331
  0
LINE
  8
0
 10
154.256
 20
-262.331
 11
152.915
 21
-266.842
  0
LINE
  8
0
 10
152.915
 20
-266.842
 11
152.795
 21
-267.209
  0
LINE
  8
0
 10
152.795
 20
-267.209
 11
151.233
 21
-271.549
  0
LINE
  8
0
 10
151.233
 20
-271.549
 11
151.199
 21
-271.537
  0
LINE
  8
0
 10
151.199
 20
-271.537
 11
151.102
 21
-271.904
  0
LINE
  8
0
 10
151.102
 20
-271.904
 11
148.236
 21
-278.681
  0
LINE
  8
0
 10
148.236
 20
-278.681
 11
148.072
 21
-279.039
  0
LINE
  8
0
 10
148.072
 20
-279.039
 11
145.035
 21
-285.207
  0
LINE
  8
0
 10
145.035
 20
-285.207
 11
144.823
 21
-285.604
  0
LINE
  8
0
 10
144.823
 20
-285.604
 11
141.601
 21
-291.19
  0
LINE
  8
0
 10
141.601
 20
-291.19
 11
141.331
 21
-291.62
  0
LINE
  8
0
 10
141.331
 20
-291.62
 11
137.911
 21
-296.648
  0
LINE
  8
0
 10
137.911
 20
-296.648
 11
137.574
 21
-297.102
  0
LINE
  8
0
 10
137.574
 20
-297.102
 11
133.943
 21
-301.596
  0
LINE
  8
0
 10
133.943
 20
-301.596
 11
133.534
 21
-302.057
  0
LINE
  8
0
 10
133.534
 20
-302.057
 11
129.679
 21
-306.036
  0
LINE
  8
0
 10
129.679
 20
-306.036
 11
129.199
 21
-306.486
  0
LINE
  8
0
 10
129.199
 20
-306.486
 11
125.109
 21
-309.969
  0
LINE
  8
0
 10
125.109
 20
-309.969
 11
124.567
 21
-310.386
  0
LINE
  8
0
 10
124.567
 20
-310.386
 11
120.231
 21
-313.387
  0
LINE
  8
0
 10
120.231
 20
-313.387
 11
119.641
 21
-313.753
  0
LINE
  8
0
 10
119.641
 20
-313.753
 11
115.052
 21
-316.285
  0
LINE
  8
0
 10
115.052
 20
-316.285
 11
114.433
 21
-316.587
  0
LINE
  8
0
 10
114.433
 20
-316.587
 11
109.583
 21
-318.66
  0
LINE
  8
0
 10
109.583
 20
-318.66
 11
108.956
 21
-318.892
  0
LINE
  8
0
 10
108.956
 20
-318.892
 11
103.839
 21
-320.51
  0
LINE
  8
0
 10
103.839
 20
-320.51
 11
103.223
 21
-320.674
  0
LINE
  8
0
 10
103.223
 20
-320.674
 11
97.8342
 21
-321.842
  0
LINE
  8
0
 10
97.8342
 20
-321.842
 11
97.2433
 21
-321.943
  0
LINE
  8
0
 10
97.2433
 20
-321.943
 11
91.5788
 21
-322.66
  0
LINE
  8
0
 10
91.5788
 20
-322.66
 11
91.0218
 21
-322.707
  0
LINE
  8
0
 10
91.0218
 20
-322.707
 11
85.0796
 21
-322.971
  0
LINE
  8
0
 10
85.0796
 20
-322.971
 11
84.561
 21
-322.975
  0
LINE
  8
0
 10
84.561
 20
-322.975
 11
78.3398
 21
-322.78
  0
LINE
  8
0
 10
187.144
 20
-378.515
 11
189.708
 21
-377.824
  0
LINE
  8
0
 10
189.708
 20
-377.824
 11
192.072
 21
-376.615
  0
LINE
  8
0
 10
192.072
 20
-376.615
 11
194.133
 21
-374.942
  0
LINE
  8
0
 10
194.133
 20
-374.942
 11
201.825
 21
-367.228
  0
LINE
  8
0
 10
201.825
 20
-367.228
 11
202.034
 21
-367.013
  0
LINE
  8
0
 10
202.034
 20
-367.013
 11
209.039
 21
-359.648
  0
LINE
  8
0
 10
209.039
 20
-359.648
 11
209.267
 21
-359.403
  0
LINE
  8
0
 10
209.267
 20
-359.403
 11
215.652
 21
-352.326
  0
LINE
  8
0
 10
215.652
 20
-352.326
 11
215.893
 21
-352.051
  0
LINE
  8
0
 10
215.893
 20
-352.051
 11
221.728
 21
-345.197
  0
LINE
  8
0
 10
221.728
 20
-345.197
 11
221.978
 21
-344.894
  0
LINE
  8
0
 10
221.978
 20
-344.894
 11
227.33
 21
-338.199
  0
LINE
  8
0
 10
227.33
 20
-338.199
 11
227.581
 21
-337.875
  0
LINE
  8
0
 10
227.581
 20
-337.875
 11
232.517
 21
-331.275
  0
LINE
  8
0
 10
232.517
 20
-331.275
 11
232.762
 21
-330.936
  0
LINE
  8
0
 10
232.762
 20
-330.936
 11
237.343
 21
-324.37
  0
LINE
  8
0
 10
237.343
 20
-324.37
 11
237.575
 21
-324.025
  0
LINE
  8
0
 10
237.575
 20
-324.025
 11
241.858
 21
-317.437
  0
LINE
  8
0
 10
241.858
 20
-317.437
 11
242.073
 21
-317.093
  0
LINE
  8
0
 10
242.073
 20
-317.093
 11
246.105
 21
-310.434
  0
LINE
  8
0
 10
246.105
 20
-310.434
 11
246.301
 21
-310.099
  0
LINE
  8
0
 10
246.301
 20
-310.099
 11
250.123
 21
-303.327
  0
LINE
  8
0
 10
250.123
 20
-303.327
 11
250.299
 21
-303.004
  0
LINE
  8
0
 10
250.299
 20
-303.004
 11
253.943
 21
-296.088
  0
LINE
  8
0
 10
253.943
 20
-296.088
 11
254.1
 21
-295.779
  0
LINE
  8
0
 10
254.1
 20
-295.779
 11
257.588
 21
-288.696
  0
LINE
  8
0
 10
257.588
 20
-288.696
 11
257.728
 21
-288.402
  0
LINE
  8
0
 10
257.728
 20
-288.402
 11
261.076
 21
-281.137
  0
LINE
  8
0
 10
261.076
 20
-281.137
 11
261.202
 21
-280.854
  0
LINE
  8
0
 10
261.202
 20
-280.854
 11
264.419
 21
-273.402
  0
LINE
  8
0
 10
264.419
 20
-273.402
 11
264.533
 21
-273.129
  0
LINE
  8
0
 10
264.533
 20
-273.129
 11
267.621
 21
-265.491
  0
LINE
  8
0
 10
267.621
 20
-265.491
 11
267.726
 21
-265.223
  0
LINE
  8
0
 10
267.726
 20
-265.223
 11
270.682
 21
-257.406
  0
LINE
  8
0
 10
270.682
 20
-257.406
 11
270.779
 21
-257.14
  0
LINE
  8
0
 10
270.779
 20
-257.14
 11
273.596
 21
-249.157
  0
LINE
  8
0
 10
273.596
 20
-249.157
 11
273.687
 21
-248.89
  0
LINE
  8
0
 10
273.687
 20
-248.89
 11
276.355
 21
-240.758
  0
LINE
  8
0
 10
276.355
 20
-240.758
 11
276.441
 21
-240.485
  0
LINE
  8
0
 10
276.441
 20
-240.485
 11
278.946
 21
-232.225
  0
LINE
  8
0
 10
278.946
 20
-232.225
 11
279.028
 21
-231.943
  0
LINE
  8
0
 10
279.028
 20
-231.943
 11
281.352
 21
-223.589
  0
LINE
  8
0
 10
281.352
 20
-223.589
 11
281.329
 21
-223.583
  0
LINE
  8
0
 10
281.329
 20
-223.583
 11
281.423
 21
-223.33
  0
LINE
  8
0
 10
281.423
 20
-223.33
 11
282.859
 21
-217.708
  0
LINE
  8
0
 10
282.859
 20
-217.708
 11
282.912
 21
-217.492
  0
LINE
  8
0
 10
282.912
 20
-217.492
 11
284.25
 21
-211.844
  0
LINE
  8
0
 10
284.25
 20
-211.844
 11
284.301
 21
-211.619
  0
LINE
  8
0
 10
284.301
 20
-211.619
 11
285.535
 21
-205.953
  0
LINE
  8
0
 10
285.535
 20
-205.953
 11
285.584
 21
-205.718
  0
LINE
  8
0
 10
285.584
 20
-205.718
 11
286.708
 21
-200.044
  0
LINE
  8
0
 10
286.708
 20
-200.044
 11
286.754
 21
-199.797
  0
LINE
  8
0
 10
286.754
 20
-199.797
 11
287.761
 21
-194.124
  0
LINE
  8
0
 10
287.761
 20
-194.124
 11
287.805
 21
-193.864
  0
LINE
  8
0
 10
287.805
 20
-193.864
 11
288.689
 21
-188.203
  0
LINE
  8
0
 10
288.689
 20
-188.203
 11
288.729
 21
-187.928
  0
LINE
  8
0
 10
288.729
 20
-187.928
 11
289.483
 21
-182.289
  0
LINE
  8
0
 10
289.483
 20
-182.289
 11
289.519
 21
-181.997
  0
LINE
  8
0
 10
289.519
 20
-181.997
 11
290.137
 21
-176.391
  0
LINE
  8
0
 10
290.137
 20
-176.391
 11
290.167
 21
-176.08
  0
LINE
  8
0
 10
290.167
 20
-176.08
 11
290.642
 21
-170.517
  0
LINE
  8
0
 10
290.642
 20
-170.517
 11
290.666
 21
-170.185
  0
LINE
  8
0
 10
290.666
 20
-170.185
 11
290.991
 21
-164.676
  0
LINE
  8
0
 10
290.991
 20
-164.676
 11
291.007
 21
-164.321
  0
LINE
  8
0
 10
291.007
 20
-164.321
 11
291.176
 21
-158.877
  0
LINE
  8
0
 10
291.176
 20
-158.877
 11
291.182
 21
-158.496
  0
LINE
  8
0
 10
291.182
 20
-158.496
 11
291.187
 21
-153.129
  0
LINE
  8
0
 10
291.187
 20
-153.129
 11
291.18
 21
-152.719
  0
LINE
  8
0
 10
291.18
 20
-152.719
 11
291.015
 21
-147.44
  0
LINE
  8
0
 10
291.015
 20
-147.44
 11
290.993
 21
-146.998
  0
LINE
  8
0
 10
290.993
 20
-146.998
 11
290.65
 21
-141.819
  0
LINE
  8
0
 10
290.65
 20
-141.819
 11
290.609
 21
-141.342
  0
LINE
  8
0
 10
290.609
 20
-141.342
 11
290.081
 21
-136.273
  0
LINE
  8
0
 10
290.081
 20
-136.273
 11
290.016
 21
-135.76
  0
LINE
  8
0
 10
290.016
 20
-135.76
 11
289.296
 21
-130.813
  0
LINE
  8
0
 10
289.296
 20
-130.813
 11
289.203
 21
-130.259
  0
LINE
  8
0
 10
289.203
 20
-130.259
 11
288.283
 21
-125.446
  0
LINE
  8
0
 10
288.283
 20
-125.446
 11
288.154
 21
-124.851
  0
LINE
  8
0
 10
288.154
 20
-124.851
 11
287.028
 21
-120.183
  0
LINE
  8
0
 10
287.028
 20
-120.183
 11
286.856
 21
-119.545
  0
LINE
  8
0
 10
286.856
 20
-119.545
 11
285.515
 21
-115.034
  0
LINE
  8
0
 10
285.515
 20
-115.034
 11
285.292
 21
-114.353
  0
LINE
  8
0
 10
285.292
 20
-114.353
 11
283.731
 21
-110.013
  0
LINE
  8
0
 10
283.731
 20
-110.013
 11
283.686
 21
-110.029
  0
LINE
  8
0
 10
283.686
 20
-110.029
 11
283.483
 21
-109.361
  0
LINE
  8
0
 10
283.483
 20
-109.361
 11
280.616
 21
-102.583
  0
LINE
  8
0
 10
280.616
 20
-102.583
 11
280.313
 21
-101.921
  0
LINE
  8
0
 10
280.313
 20
-101.921
 11
277.276
 21
-95.7525
  0
LINE
  8
0
 10
277.276
 20
-95.7525
 11
276.884
 21
-95.0172
  0
LINE
  8
0
 10
276.884
 20
-95.0172
 11
273.662
 21
-89.4315
  0
LINE
  8
0
 10
273.662
 20
-89.4315
 11
273.162
 21
-88.634
  0
LINE
  8
0
 10
273.162
 20
-88.634
 11
269.742
 21
-83.6059
  0
LINE
  8
0
 10
269.742
 20
-83.6059
 11
269.118
 21
-82.7656
  0
LINE
  8
0
 10
269.118
 20
-82.7656
 11
265.486
 21
-78.2721
  0
LINE
  8
0
 10
265.486
 20
-78.2721
 11
264.73
 21
-77.4178
  0
LINE
  8
0
 10
264.73
 20
-77.4178
 11
260.874
 21
-73.4386
  0
LINE
  8
0
 10
260.874
 20
-73.4386
 11
259.987
 21
-72.6062
  0
LINE
  8
0
 10
259.987
 20
-72.6062
 11
255.896
 21
-69.1233
  0
LINE
  8
0
 10
255.896
 20
-69.1233
 11
254.892
 21
-68.3513
  0
LINE
  8
0
 10
254.892
 20
-68.3513
 11
250.557
 21
-65.3497
  0
LINE
  8
0
 10
250.557
 20
-65.3497
 11
249.463
 21
-64.6721
  0
LINE
  8
0
 10
249.463
 20
-64.6721
 11
244.874
 21
-62.1398
  0
LINE
  8
0
 10
244.874
 20
-62.1398
 11
243.728
 21
-61.5805
  0
LINE
  8
0
 10
243.728
 20
-61.5805
 11
238.878
 21
-59.5082
  0
LINE
  8
0
 10
238.878
 20
-59.5082
 11
237.718
 21
-59.078
  0
LINE
  8
0
 10
237.718
 20
-59.078
 11
232.601
 21
-57.4596
  0
LINE
  8
0
 10
232.601
 20
-57.4596
 11
231.46
 21
-57.1565
  0
LINE
  8
0
 10
231.46
 20
-57.1565
 11
226.071
 21
-55.9889
  0
LINE
  8
0
 10
226.071
 20
-55.9889
 11
224.977
 21
-55.8014
  0
LINE
  8
0
 10
224.977
 20
-55.8014
 11
219.313
 21
-55.0843
  0
LINE
  8
0
 10
219.313
 20
-55.0843
 11
218.281
 21
-54.9963
  0
LINE
  8
0
 10
218.281
 20
-54.9963
 11
212.339
 21
-54.7323
  0
LINE
  8
0
 10
212.339
 20
-54.7323
 11
211.379
 21
-54.726
  0
LINE
  8
0
 10
211.379
 20
-54.726
 11
205.157
 21
-54.9204
  0
LINE
  8
0
 10
205.157
 20
-54.9204
 11
204.27
 21
-54.9792
  0
LINE
  8
0
 10
204.27
 20
-54.9792
 11
197.769
 21
-55.6398
  0
LINE
  8
0
 10
197.769
 20
-55.6398
 11
196.953
 21
-55.7496
  0
LINE
  8
0
 10
196.953
 20
-55.7496
 11
190.173
 21
-56.8865
  0
LINE
  8
0
 10
190.173
 20
-56.8865
 11
189.423
 21
-57.0356
  0
LINE
  8
0
 10
189.423
 20
-57.0356
 11
182.365
 21
-58.661
  0
LINE
  8
0
 10
182.365
 20
-58.661
 11
181.676
 21
-58.8402
  0
LINE
  8
0
 10
181.676
 20
-58.8402
 11
174.342
 21
-60.9684
  0
LINE
  8
0
 10
174.342
 20
-60.9684
 11
173.708
 21
-61.1704
  0
LINE
  8
0
 10
173.708
 20
-61.1704
 11
166.099
 21
-63.8176
  0
LINE
  8
0
 10
166.099
 20
-63.8176
 11
164.253
 21
-64.629
  0
LINE
  8
0
 10
164.253
 20
-64.629
 11
162.06
 21
-66.1246
  0
LINE
  8
0
 10
162.06
 20
-66.1246
 11
160.225
 21
-68.0437
  0
LINE
  8
0
 10
160.225
 20
-68.0437
 11
158.829
 21
-70.3023
  0
LINE
  8
0
 10
158.829
 20
-70.3023
 11
157.934
 21
-72.8017
  0
LINE
  8
0
 10
157.934
 20
-72.8017
 11
157.577
 21
-75.4327
  0
LINE
  8
0
 10
157.577
 20
-75.4327
 11
157.776
 21
-78.0803
  0
LINE
  8
0
 10
157.776
 20
-78.0803
 11
158.566
 21
-82.437
  0
LINE
  8
0
 10
158.566
 20
-82.437
 11
159.292
 21
-86.771
  0
LINE
  8
0
 10
159.292
 20
-86.771
 11
159.97
 21
-91.1809
  0
LINE
  8
0
 10
159.97
 20
-91.1809
 11
160.603
 21
-95.6663
  0
LINE
  8
0
 10
160.603
 20
-95.6663
 11
161.194
 21
-100.24
  0
LINE
  8
0
 10
161.194
 20
-100.24
 11
161.745
 21
-104.902
  0
LINE
  8
0
 10
161.745
 20
-104.902
 11
162.26
 21
-109.663
  0
LINE
  8
0
 10
162.26
 20
-109.663
 11
162.74
 21
-114.529
  0
LINE
  8
0
 10
162.74
 20
-114.529
 11
163.191
 21
-119.507
  0
LINE
  8
0
 10
163.191
 20
-119.507
 11
163.614
 21
-124.605
  0
LINE
  8
0
 10
163.614
 20
-124.605
 11
164.015
 21
-129.834
  0
LINE
  8
0
 10
164.015
 20
-129.834
 11
164.397
 21
-135.202
  0
LINE
  8
0
 10
164.397
 20
-135.202
 11
164.764
 21
-140.716
  0
LINE
  8
0
 10
164.764
 20
-140.716
 11
165.12
 21
-146.387
  0
LINE
  8
0
 10
165.12
 20
-146.387
 11
165.469
 21
-152.217
  0
LINE
  8
0
 10
165.469
 20
-152.217
 11
165.814
 21
-158.232
  0
LINE
  8
0
 10
165.814
 20
-158.232
 11
166.16
 21
-164.433
  0
LINE
  8
0
 10
166.16
 20
-164.433
 11
166.508
 21
-170.809
  0
LINE
  8
0
 10
166.508
 20
-170.809
 11
166.863
 21
-177.411
  0
LINE
  8
0
 10
166.863
 20
-177.411
 11
167.221
 21
-184.152
  0
LINE
  8
0
 10
167.221
 20
-184.152
 11
167.218
 21
-184.214
  0
LINE
  8
0
 10
167.218
 20
-184.214
 11
167.305
 21
-185.877
  0
LINE
  8
0
 10
167.305
 20
-185.877
 11
167.389
 21
-187.513
  0
LINE
  8
0
 10
167.389
 20
-187.513
 11
167.471
 21
-189.169
  0
LINE
  8
0
 10
167.471
 20
-189.169
 11
167.549
 21
-190.802
  0
LINE
  8
0
 10
167.549
 20
-190.802
 11
167.623
 21
-192.43
  0
LINE
  8
0
 10
167.623
 20
-192.43
 11
167.693
 21
-194.052
  0
LINE
  8
0
 10
167.693
 20
-194.052
 11
167.76
 21
-195.673
  0
LINE
  8
0
 10
167.76
 20
-195.673
 11
167.823
 21
-197.277
  0
LINE
  8
0
 10
167.823
 20
-197.277
 11
167.881
 21
-198.887
  0
LINE
  8
0
 10
167.881
 20
-198.887
 11
167.935
 21
-200.482
  0
LINE
  8
0
 10
167.935
 20
-200.482
 11
167.985
 21
-202.07
  0
LINE
  8
0
 10
167.985
 20
-202.07
 11
168.03
 21
-203.656
  0
LINE
  8
0
 10
168.03
 20
-203.656
 11
168.069
 21
-205.233
  0
LINE
  8
0
 10
168.069
 20
-205.233
 11
168.104
 21
-206.796
  0
LINE
  8
0
 10
168.104
 20
-206.796
 11
168.134
 21
-208.359
  0
LINE
  8
0
 10
168.134
 20
-208.359
 11
168.158
 21
-209.913
  0
LINE
  8
0
 10
168.158
 20
-209.913
 11
168.176
 21
-211.46
  0
LINE
  8
0
 10
168.176
 20
-211.46
 11
168.19
 21
-212.999
  0
LINE
  8
0
 10
168.19
 20
-212.999
 11
168.197
 21
-214.53
  0
LINE
  8
0
 10
168.197
 20
-214.53
 11
168.199
 21
-216.028
  0
LINE
  8
0
 10
168.199
 20
-216.028
 11
168.158
 21
-222.108
  0
LINE
  8
0
 10
168.158
 20
-222.108
 11
168.043
 21
-228.043
  0
LINE
  8
0
 10
168.043
 20
-228.043
 11
167.843
 21
-233.834
  0
LINE
  8
0
 10
167.843
 20
-233.834
 11
167.546
 21
-239.471
  0
LINE
  8
0
 10
167.546
 20
-239.471
 11
167.14
 21
-244.954
  0
LINE
  8
0
 10
167.14
 20
-244.954
 11
166.612
 21
-250.277
  0
LINE
  8
0
 10
166.612
 20
-250.277
 11
165.947
 21
-255.442
  0
LINE
  8
0
 10
165.947
 20
-255.442
 11
165.13
 21
-260.454
  0
LINE
  8
0
 10
165.13
 20
-260.454
 11
164.146
 21
-265.318
  0
LINE
  8
0
 10
164.146
 20
-265.318
 11
162.975
 21
-270.051
  0
LINE
  8
0
 10
162.975
 20
-270.051
 11
161.599
 21
-274.67
  0
LINE
  8
0
 10
161.599
 20
-274.67
 11
159.995
 21
-279.197
  0
LINE
  8
0
 10
159.995
 20
-279.197
 11
158.138
 21
-283.659
  0
LINE
  8
0
 10
158.138
 20
-283.659
 11
155.999
 21
-288.084
  0
LINE
  8
0
 10
155.999
 20
-288.084
 11
153.546
 21
-292.5
  0
LINE
  8
0
 10
153.546
 20
-292.5
 11
150.743
 21
-296.933
  0
LINE
  8
0
 10
150.743
 20
-296.933
 11
147.555
 21
-301.404
  0
LINE
  8
0
 10
147.555
 20
-301.404
 11
143.945
 21
-305.934
  0
LINE
  8
0
 10
143.945
 20
-305.934
 11
139.878
 21
-310.533
  0
LINE
  8
0
 10
139.878
 20
-310.533
 11
135.122
 21
-315.419
  0
LINE
  8
0
 10
135.122
 20
-315.419
 11
132.96
 21
-318.406
  0
LINE
  8
0
 10
132.96
 20
-318.406
 11
131.985
 21
-320.876
  0
LINE
  8
0
 10
131.985
 20
-320.876
 11
131.545
 21
-323.494
  0
LINE
  8
0
 10
131.545
 20
-323.494
 11
131.659
 21
-326.147
  0
LINE
  8
0
 10
131.659
 20
-326.147
 11
132.322
 21
-328.718
  0
LINE
  8
0
 10
132.322
 20
-328.718
 11
133.505
 21
-331.095
  0
LINE
  8
0
 10
133.505
 20
-331.095
 11
135.157
 21
-333.174
  0
LINE
  8
0
 10
135.157
 20
-333.174
 11
176.076
 21
-374.869
  0
LINE
  8
0
 10
176.076
 20
-374.869
 11
177.161
 21
-375.855
  0
LINE
  8
0
 10
177.161
 20
-375.855
 11
179.39
 21
-377.298
  0
LINE
  8
0
 10
179.39
 20
-377.298
 11
181.87
 21
-378.246
  0
LINE
  8
0
 10
181.87
 20
-378.246
 11
184.493
 21
-378.657
  0
LINE
  8
0
 10
184.493
 20
-378.657
 11
187.144
 21
-378.515
  0
LINE
  8
0
 10
182.752
 20
-372.403
 11
181.038
 21
-371.47
  0
LINE
  8
0
 10
181.038
 20
-371.47
 11
180.245
 21
-370.777
  0
LINE
  8
0
 10
180.245
 20
-370.777
 11
139.326
 21
-329.082
  0
LINE
  8
0
 10
139.326
 20
-329.082
 11
138.171
 21
-327.508
  0
LINE
  8
0
 10
138.171
 20
-327.508
 11
137.506
 21
-325.673
  0
LINE
  8
0
 10
137.506
 20
-325.673
 11
137.385
 21
-323.725
  0
LINE
  8
0
 10
137.385
 20
-323.725
 11
137.818
 21
-321.821
  0
LINE
  8
0
 10
137.818
 20
-321.821
 11
139.307
 21
-319.494
  0
LINE
  8
0
 10
139.307
 20
-319.494
 11
144.162
 21
-314.508
  0
LINE
  8
0
 10
144.162
 20
-314.508
 11
148.42
 21
-309.692
  0
LINE
  8
0
 10
148.42
 20
-309.692
 11
152.221
 21
-304.923
  0
LINE
  8
0
 10
152.221
 20
-304.923
 11
155.594
 21
-300.192
  0
LINE
  8
0
 10
155.594
 20
-300.192
 11
158.572
 21
-295.482
  0
LINE
  8
0
 10
158.572
 20
-295.482
 11
161.187
 21
-290.776
  0
LINE
  8
0
 10
161.187
 20
-290.776
 11
163.469
 21
-286.054
  0
LINE
  8
0
 10
163.469
 20
-286.054
 11
165.449
 21
-281.296
  0
LINE
  8
0
 10
165.449
 20
-281.296
 11
167.155
 21
-276.481
  0
LINE
  8
0
 10
167.155
 20
-276.481
 11
168.613
 21
-271.588
  0
LINE
  8
0
 10
168.613
 20
-271.588
 11
169.847
 21
-266.6
  0
LINE
  8
0
 10
169.847
 20
-266.6
 11
170.879
 21
-261.503
  0
LINE
  8
0
 10
170.879
 20
-261.503
 11
171.729
 21
-256.286
  0
LINE
  8
0
 10
171.729
 20
-256.286
 11
172.417
 21
-250.938
  0
LINE
  8
0
 10
172.417
 20
-250.938
 11
172.961
 21
-245.458
  0
LINE
  8
0
 10
172.961
 20
-245.458
 11
173.377
 21
-239.841
  0
LINE
  8
0
 10
173.377
 20
-239.841
 11
173.68
 21
-234.088
  0
LINE
  8
0
 10
173.68
 20
-234.088
 11
173.883
 21
-228.201
  0
LINE
  8
0
 10
173.883
 20
-228.201
 11
174
 21
-222.184
  0
LINE
  8
0
 10
174
 20
-222.184
 11
174.041
 21
-216.044
  0
LINE
  8
0
 10
174.041
 20
-216.044
 11
174.039
 21
-214.515
  0
LINE
  8
0
 10
174.039
 20
-214.515
 11
174.031
 21
-212.959
  0
LINE
  8
0
 10
174.031
 20
-212.959
 11
174.018
 21
-211.398
  0
LINE
  8
0
 10
174.018
 20
-211.398
 11
173.999
 21
-209.834
  0
LINE
  8
0
 10
173.999
 20
-209.834
 11
173.975
 21
-208.257
  0
LINE
  8
0
 10
173.975
 20
-208.257
 11
173.945
 21
-206.681
  0
LINE
  8
0
 10
173.945
 20
-206.681
 11
173.91
 21
-205.093
  0
LINE
  8
0
 10
173.91
 20
-205.093
 11
173.869
 21
-203.495
  0
LINE
  8
0
 10
173.869
 20
-203.495
 11
173.824
 21
-201.896
  0
LINE
  8
0
 10
173.824
 20
-201.896
 11
173.774
 21
-200.296
  0
LINE
  8
0
 10
173.774
 20
-200.296
 11
173.72
 21
-198.679
  0
LINE
  8
0
 10
173.72
 20
-198.679
 11
173.661
 21
-197.061
  0
LINE
  8
0
 10
173.661
 20
-197.061
 11
173.598
 21
-195.436
  0
LINE
  8
0
 10
173.598
 20
-195.436
 11
173.53
 21
-193.801
  0
LINE
  8
0
 10
173.53
 20
-193.801
 11
173.459
 21
-192.173
  0
LINE
  8
0
 10
173.459
 20
-192.173
 11
173.384
 21
-190.532
  0
LINE
  8
0
 10
173.384
 20
-190.532
 11
173.306
 21
-188.876
  0
LINE
  8
0
 10
173.306
 20
-188.876
 11
173.224
 21
-187.233
  0
LINE
  8
0
 10
173.224
 20
-187.233
 11
173.14
 21
-185.579
  0
LINE
  8
0
 10
173.14
 20
-185.579
 11
173.052
 21
-183.907
  0
LINE
  8
0
 10
173.052
 20
-183.907
 11
173.056
 21
-183.861
  0
LINE
  8
0
 10
173.056
 20
-183.861
 11
172.696
 21
-177.094
  0
LINE
  8
0
 10
172.696
 20
-177.094
 11
172.342
 21
-170.495
  0
LINE
  8
0
 10
172.342
 20
-170.495
 11
171.993
 21
-164.107
  0
LINE
  8
0
 10
171.993
 20
-164.107
 11
171.647
 21
-157.901
  0
LINE
  8
0
 10
171.647
 20
-157.901
 11
171.301
 21
-151.876
  0
LINE
  8
0
 10
171.301
 20
-151.876
 11
170.951
 21
-146.027
  0
LINE
  8
0
 10
170.951
 20
-146.027
 11
170.594
 21
-140.335
  0
LINE
  8
0
 10
170.594
 20
-140.335
 11
170.225
 21
-134.801
  0
LINE
  8
0
 10
170.225
 20
-134.801
 11
169.841
 21
-129.405
  0
LINE
  8
0
 10
169.841
 20
-129.405
 11
169.438
 21
-124.14
  0
LINE
  8
0
 10
169.438
 20
-124.14
 11
169.011
 21
-119.001
  0
LINE
  8
0
 10
169.011
 20
-119.001
 11
168.556
 21
-113.978
  0
LINE
  8
0
 10
168.556
 20
-113.978
 11
168.071
 21
-109.063
  0
LINE
  8
0
 10
168.071
 20
-109.063
 11
167.55
 21
-104.244
  0
LINE
  8
0
 10
167.55
 20
-104.244
 11
166.992
 21
-99.5233
  0
LINE
  8
0
 10
166.992
 20
-99.5233
 11
166.392
 21
-94.8848
  0
LINE
  8
0
 10
166.392
 20
-94.8848
 11
165.749
 21
-90.3268
  0
LINE
  8
0
 10
165.749
 20
-90.3268
 11
165.06
 21
-85.8457
  0
LINE
  8
0
 10
165.06
 20
-85.8457
 11
164.322
 21
-81.4333
  0
LINE
  8
0
 10
164.322
 20
-81.4333
 11
163.524
 21
-77.0371
  0
LINE
  8
0
 10
163.524
 20
-77.0371
 11
163.452
 21
-75.0864
  0
LINE
  8
0
 10
163.452
 20
-75.0864
 11
163.933
 21
-73.1946
  0
LINE
  8
0
 10
163.933
 20
-73.1946
 11
164.927
 21
-71.5148
  0
LINE
  8
0
 10
164.927
 20
-71.5148
 11
166.355
 21
-70.1832
  0
LINE
  8
0
 10
166.355
 20
-70.1832
 11
168.018
 21
-69.3353
  0
LINE
  8
0
 10
168.018
 20
-69.3353
 11
175.628
 21
-66.6881
  0
LINE
  8
0
 10
175.628
 20
-66.6881
 11
175.97
 21
-66.579
  0
LINE
  8
0
 10
175.97
 20
-66.579
 11
183.304
 21
-64.4507
  0
LINE
  8
0
 10
183.304
 20
-64.4507
 11
183.676
 21
-64.354
  0
LINE
  8
0
 10
183.676
 20
-64.354
 11
190.734
 21
-62.7286
  0
LINE
  8
0
 10
190.734
 20
-62.7286
 11
191.139
 21
-62.6481
  0
LINE
  8
0
 10
191.139
 20
-62.6481
 11
197.919
 21
-61.5112
  0
LINE
  8
0
 10
197.919
 20
-61.5112
 11
198.36
 21
-61.4519
  0
LINE
  8
0
 10
198.36
 20
-61.4519
 11
204.861
 21
-60.7913
  0
LINE
  8
0
 10
204.861
 20
-60.7913
 11
205.34
 21
-60.7595
  0
LINE
  8
0
 10
205.34
 20
-60.7595
 11
211.561
 21
-60.5651
  0
LINE
  8
0
 10
211.561
 20
-60.5651
 11
212.08
 21
-60.5685
  0
LINE
  8
0
 10
212.08
 20
-60.5685
 11
218.022
 21
-60.8325
  0
LINE
  8
0
 10
218.022
 20
-60.8325
 11
218.579
 21
-60.8801
  0
LINE
  8
0
 10
218.579
 20
-60.8801
 11
224.243
 21
-61.5972
  0
LINE
  8
0
 10
224.243
 20
-61.5972
 11
224.834
 21
-61.6984
  0
LINE
  8
0
 10
224.834
 20
-61.6984
 11
230.223
 21
-62.866
  0
LINE
  8
0
 10
230.223
 20
-62.866
 11
230.839
 21
-63.0297
  0
LINE
  8
0
 10
230.839
 20
-63.0297
 11
235.956
 21
-64.6481
  0
LINE
  8
0
 10
235.956
 20
-64.6481
 11
236.583
 21
-64.8804
  0
LINE
  8
0
 10
236.583
 20
-64.8804
 11
241.433
 21
-66.9527
  0
LINE
  8
0
 10
241.433
 20
-66.9527
 11
242.052
 21
-67.2547
  0
LINE
  8
0
 10
242.052
 20
-67.2547
 11
246.641
 21
-69.787
  0
LINE
  8
0
 10
246.641
 20
-69.787
 11
247.231
 21
-70.153
  0
LINE
  8
0
 10
247.231
 20
-70.153
 11
251.567
 21
-73.1545
  0
LINE
  8
0
 10
251.567
 20
-73.1545
 11
252.109
 21
-73.5714
  0
LINE
  8
0
 10
252.109
 20
-73.5714
 11
256.199
 21
-77.0542
  0
LINE
  8
0
 10
256.199
 20
-77.0542
 11
256.679
 21
-77.5037
  0
LINE
  8
0
 10
256.679
 20
-77.5037
 11
260.534
 21
-81.483
  0
LINE
  8
0
 10
260.534
 20
-81.483
 11
260.943
 21
-81.9443
  0
LINE
  8
0
 10
260.943
 20
-81.9443
 11
264.574
 21
-86.4377
  0
LINE
  8
0
 10
264.574
 20
-86.4377
 11
264.911
 21
-86.8915
  0
LINE
  8
0
 10
264.911
 20
-86.8915
 11
268.331
 21
-91.9197
  0
LINE
  8
0
 10
268.331
 20
-91.9197
 11
268.601
 21
-92.3503
  0
LINE
  8
0
 10
268.601
 20
-92.3503
 11
271.823
 21
-97.936
  0
LINE
  8
0
 10
271.823
 20
-97.936
 11
272.035
 21
-98.333
  0
LINE
  8
0
 10
272.035
 20
-98.333
 11
275.072
 21
-104.501
  0
LINE
  8
0
 10
275.072
 20
-104.501
 11
275.236
 21
-104.859
  0
LINE
  8
0
 10
275.236
 20
-104.859
 11
278.102
 21
-111.636
  0
LINE
  8
0
 10
278.102
 20
-111.636
 11
278.199
 21
-112.003
  0
LINE
  8
0
 10
278.199
 20
-112.003
 11
278.233
 21
-111.991
  0
LINE
  8
0
 10
278.233
 20
-111.991
 11
279.795
 21
-116.33
  0
LINE
  8
0
 10
279.795
 20
-116.33
 11
279.915
 21
-116.698
  0
LINE
  8
0
 10
279.915
 20
-116.698
 11
281.256
 21
-121.209
  0
LINE
  8
0
 10
281.256
 20
-121.209
 11
281.349
 21
-121.554
  0
LINE
  8
0
 10
281.349
 20
-121.554
 11
282.475
 21
-126.221
  0
LINE
  8
0
 10
282.475
 20
-126.221
 11
282.545
 21
-126.543
  0
LINE
  8
0
 10
282.545
 20
-126.543
 11
283.465
 21
-131.356
  0
LINE
  8
0
 10
283.465
 20
-131.356
 11
283.515
 21
-131.655
  0
LINE
  8
0
 10
283.515
 20
-131.655
 11
284.235
 21
-136.602
  0
LINE
  8
0
 10
284.235
 20
-136.602
 11
284.27
 21
-136.879
  0
LINE
  8
0
 10
284.27
 20
-136.879
 11
284.798
 21
-141.948
  0
LINE
  8
0
 10
284.798
 20
-141.948
 11
284.82
 21
-142.205
  0
LINE
  8
0
 10
284.82
 20
-142.205
 11
285.164
 21
-147.385
  0
LINE
  8
0
 10
285.164
 20
-147.385
 11
285.176
 21
-147.624
  0
LINE
  8
0
 10
285.176
 20
-147.624
 11
285.341
 21
-152.902
  0
LINE
  8
0
 10
285.341
 20
-152.902
 11
285.345
 21
-153.124
  0
LINE
  8
0
 10
285.345
 20
-153.124
 11
285.34
 21
-158.491
  0
LINE
  8
0
 10
285.34
 20
-158.491
 11
285.337
 21
-158.697
  0
LINE
  8
0
 10
285.337
 20
-158.697
 11
285.168
 21
-164.14
  0
LINE
  8
0
 10
285.168
 20
-164.14
 11
285.159
 21
-164.332
  0
LINE
  8
0
 10
285.159
 20
-164.332
 11
284.834
 21
-169.84
  0
LINE
  8
0
 10
284.834
 20
-169.84
 11
284.821
 21
-170.02
  0
LINE
  8
0
 10
284.821
 20
-170.02
 11
284.346
 21
-175.583
  0
LINE
  8
0
 10
284.346
 20
-175.583
 11
284.33
 21
-175.751
  0
LINE
  8
0
 10
284.33
 20
-175.751
 11
283.712
 21
-181.357
  0
LINE
  8
0
 10
283.712
 20
-181.357
 11
283.692
 21
-181.514
  0
LINE
  8
0
 10
283.692
 20
-181.514
 11
282.938
 21
-187.153
  0
LINE
  8
0
 10
282.938
 20
-187.153
 11
282.917
 21
-187.302
  0
LINE
  8
0
 10
282.917
 20
-187.302
 11
282.033
 21
-192.963
  0
LINE
  8
0
 10
282.033
 20
-192.963
 11
282.009
 21
-193.103
  0
LINE
  8
0
 10
282.009
 20
-193.103
 11
281.002
 21
-198.776
  0
LINE
  8
0
 10
281.002
 20
-198.776
 11
280.977
 21
-198.909
  0
LINE
  8
0
 10
280.977
 20
-198.909
 11
279.853
 21
-204.583
  0
LINE
  8
0
 10
279.853
 20
-204.583
 11
279.827
 21
-204.71
  0
LINE
  8
0
 10
279.827
 20
-204.71
 11
278.593
 21
-210.376
  0
LINE
  8
0
 10
278.593
 20
-210.376
 11
278.565
 21
-210.497
  0
LINE
  8
0
 10
278.565
 20
-210.497
 11
277.228
 21
-216.146
  0
LINE
  8
0
 10
277.228
 20
-216.146
 11
277.199
 21
-216.262
  0
LINE
  8
0
 10
277.199
 20
-216.262
 11
275.763
 21
-221.884
  0
LINE
  8
0
 10
275.763
 20
-221.884
 11
275.707
 21
-222.019
  0
LINE
  8
0
 10
275.707
 20
-222.019
 11
275.723
 21
-222.024
  0
LINE
  8
0
 10
275.723
 20
-222.024
 11
273.4
 21
-230.377
  0
LINE
  8
0
 10
273.4
 20
-230.377
 11
273.356
 21
-230.53
  0
LINE
  8
0
 10
273.356
 20
-230.53
 11
270.851
 21
-238.789
  0
LINE
  8
0
 10
270.851
 20
-238.789
 11
270.804
 21
-238.937
  0
LINE
  8
0
 10
270.804
 20
-238.937
 11
268.136
 21
-247.069
  0
LINE
  8
0
 10
268.136
 20
-247.069
 11
268.087
 21
-247.213
  0
LINE
  8
0
 10
268.087
 20
-247.213
 11
265.27
 21
-255.196
  0
LINE
  8
0
 10
265.27
 20
-255.196
 11
265.218
 21
-255.34
  0
LINE
  8
0
 10
265.218
 20
-255.34
 11
262.262
 21
-263.156
  0
LINE
  8
0
 10
262.262
 20
-263.156
 11
262.205
 21
-263.301
  0
LINE
  8
0
 10
262.205
 20
-263.301
 11
259.117
 21
-270.939
  0
LINE
  8
0
 10
259.117
 20
-270.939
 11
259.056
 21
-271.087
  0
LINE
  8
0
 10
259.056
 20
-271.087
 11
255.839
 21
-278.539
  0
LINE
  8
0
 10
255.839
 20
-278.539
 11
255.771
 21
-278.692
  0
LINE
  8
0
 10
255.771
 20
-278.692
 11
252.423
 21
-285.956
  0
LINE
  8
0
 10
252.423
 20
-285.956
 11
252.347
 21
-286.115
  0
LINE
  8
0
 10
252.347
 20
-286.115
 11
248.859
 21
-293.199
  0
LINE
  8
0
 10
248.859
 20
-293.199
 11
248.774
 21
-293.365
  0
LINE
  8
0
 10
248.774
 20
-293.365
 11
245.131
 21
-300.281
  0
LINE
  8
0
 10
245.131
 20
-300.281
 11
245.036
 21
-300.456
  0
LINE
  8
0
 10
245.036
 20
-300.456
 11
241.214
 21
-307.227
  0
LINE
  8
0
 10
241.214
 20
-307.227
 11
241.108
 21
-307.408
  0
LINE
  8
0
 10
241.108
 20
-307.408
 11
237.076
 21
-314.068
  0
LINE
  8
0
 10
237.076
 20
-314.068
 11
236.959
 21
-314.253
  0
LINE
  8
0
 10
236.959
 20
-314.253
 11
232.677
 21
-320.841
  0
LINE
  8
0
 10
232.677
 20
-320.841
 11
232.552
 21
-321.028
  0
LINE
  8
0
 10
232.552
 20
-321.028
 11
227.97
 21
-327.593
  0
LINE
  8
0
 10
227.97
 20
-327.593
 11
227.838
 21
-327.776
  0
LINE
  8
0
 10
227.838
 20
-327.776
 11
222.902
 21
-334.376
  0
LINE
  8
0
 10
222.902
 20
-334.376
 11
222.767
 21
-334.551
  0
LINE
  8
0
 10
222.767
 20
-334.551
 11
217.414
 21
-341.246
  0
LINE
  8
0
 10
217.414
 20
-341.246
 11
217.28
 21
-341.41
  0
LINE
  8
0
 10
217.28
 20
-341.41
 11
211.445
 21
-348.264
  0
LINE
  8
0
 10
211.445
 20
-348.264
 11
211.315
 21
-348.412
  0
LINE
  8
0
 10
211.315
 20
-348.412
 11
204.929
 21
-355.49
  0
LINE
  8
0
 10
204.929
 20
-355.49
 11
204.806
 21
-355.622
  0
LINE
  8
0
 10
204.806
 20
-355.622
 11
197.801
 21
-362.987
  0
LINE
  8
0
 10
197.801
 20
-362.987
 11
197.688
 21
-363.103
  0
LINE
  8
0
 10
197.688
 20
-363.103
 11
189.996
 21
-370.817
  0
LINE
  8
0
 10
189.996
 20
-370.817
 11
188.435
 21
-371.988
  0
LINE
  8
0
 10
188.435
 20
-371.988
 11
186.607
 21
-372.673
  0
LINE
  8
0
 10
186.607
 20
-372.673
 11
184.66
 21
-372.815
  0
LINE
  8
0
 10
184.66
 20
-372.815
 11
182.752
 21
-372.403
  0
ENDSEC
  0
SECTION
  2
OBJECTS
  0
DICTIONARY
  0
ENDSEC
  0
EOF
