<?xml version="1.0" standalone="no"?>
<!DOCTYPE svg PUBLIC "-//W3C//DTD SVG 1.1//EN" "http://www.w3.org/Graphics/SVG/1.1/DTD/svg11.dtd">
<svg width="369" height="576" viewBox="-163 -355 369 576" xmlns="http://www.w3.org/2000/svg" version="1.1">
<title>OpenSCAD Model</title>
<path d="
M 8.22769,-241.779 L 9.75792,-241.966 L 16.8943,-243.283 L 18.3212,-243.633 L 25.1609,-245.736 L 26.4302,-246.201
 L 32.99,-249.012 L 34.0784,-249.541 L 40.3725,-252.98 L 41.2816,-253.527 L 47.3218,-257.516 L 48.0696,-258.05
 L 53.8646,-262.51 L 54.4761,-263.012 L 60.0307,-267.867 L 60.5327,-268.33 L 65.847,-273.505 L 66.2648,-273.931
 L 71.3331,-279.353 L 71.6895,-279.751 L 76.4994,-285.351 L 76.8142,-285.733 L 81.346,-291.445 L 81.636,-291.825
 L 85.8631,-297.585 L 86.1423,-297.982 L 90.0315,-303.729 L 90.3119,-304.162 L 93.8246,-309.838 L 94.1158,-310.333
 L 97.2094,-315.876 L 97.519,-316.467 L 100.147,-321.819 L 100.479,-322.553 L 102.595,-327.655 L 102.945,-328.604
 L 104.497,-333.395 L 104.838,-334.67 L 105.778,-339.09 L 106.056,-341.73 L 105.778,-344.371 L 104.958,-346.896
 L 103.63,-349.195 L 101.854,-351.168 L 99.7057,-352.729 L 97.2802,-353.809 L 94.6832,-354.361 L 92.0282,-354.361
 L 89.4312,-353.809 L 87.0057,-352.729 L 84.8577,-351.169 L 83.4093,-349.627 L 79.4252,-344.609 L 75.5441,-339.902
 L 71.6958,-335.413 L 67.8809,-331.143 L 64.0989,-327.097 L 60.3441,-323.281 L 56.6098,-319.703 L 52.8838,-316.375
 L 49.1505,-313.302 L 45.3883,-310.49 L 41.5733,-307.939 L 37.6756,-305.649 L 33.6647,-303.615 L 29.5085,-301.835
 L 25.1763,-300.31 L 20.6395,-299.042 L 15.8727,-298.038 L 10.8545,-297.306 L 5.56639,-296.859 L -0.346542,-296.697
 L -2.97847,-296.348 L -5.48022,-295.459 L -7.74245,-294.069 L -9.66631,-292.239 L -11.1677,-290.05 L -12.181,-287.596
 L -12.7,-284.002 L -12.7,-254 L -12.4225,-251.36 L -11.602,-248.834 L -10.2745,-246.535 L -8.49796,-244.562
 L -6.35001,-243.001 L -3.92451,-241.922 L -1.32751,-241.37 L 0.774673,-241.324 z
M 0,-284.002 L 6.27596,-284.173 L 12.3069,-284.684 L 18.0995,-285.528 L 23.6608,-286.699 L 28.9987,-288.191
 L 34.1222,-289.995 L 39.0419,-292.102 L 43.7707,-294.5 L 48.325,-297.177 L 52.7243,-300.117 L 56.9918,-303.307
 L 61.1532,-306.732 L 65.2357,-310.38 L 69.2653,-314.24 L 73.2658,-318.306 L 77.2567,-322.576 L 81.2531,-327.049
 L 85.2653,-331.729 L 89.2989,-336.621 L 93.3556,-341.731 L 92.416,-337.31 L 90.8633,-332.519 L 88.7479,-327.417
 L 86.1194,-322.065 L 83.0259,-316.522 L 79.5131,-310.847 L 75.6239,-305.099 L 71.3969,-299.338 L 66.8651,-293.626
 L 62.0553,-288.026 L 56.987,-282.604 L 51.6727,-277.429 L 46.1181,-272.574 L 40.3232,-268.113 L 34.2829,-264.124
 L 27.9888,-260.685 L 21.4291,-257.875 L 14.5894,-255.773 L 7.453,-254.455 L 0,-254 z
M -7.18623,-113.593 L -6.32051,-113.645 L 1.20448,-114.356 L 1.8589,-114.488 L 1.86545,-114.444 L 7.53299,-115.281
 L 8.00182,-115.359 L 13.5268,-116.388 L 13.9907,-116.483 L 19.3716,-117.694 L 19.8287,-117.806 L 25.067,-119.19
 L 25.5156,-119.318 L 30.6129,-120.867 L 31.0515,-121.009 L 36.0092,-122.715 L 36.4361,-122.871 L 41.2561,-124.725
 L 41.6703,-124.893 L 46.3542,-126.886 L 46.7544,-127.065 L 51.3041,-129.19 L 51.6895,-129.378 L 56.1069,-131.625
 L 56.4767,-131.821 L 60.7637,-134.183 L 61.1177,-134.386 L 65.2763,-136.854 L 65.6139,-137.062 L 69.6463,-139.629
 L 69.9675,-139.841 L 73.8759,-142.499 L 74.1806,-142.712 L 77.9674,-145.453 L 78.2558,-145.668 L 81.9233,-148.484
 L 82.1956,-148.699 L 85.7464,-151.584 L 86.003,-151.798 L 89.4398,-154.743 L 89.681,-154.955 L 93.0065,-157.953
 L 93.232,-158.162 L 96.4421,-161.2 L 96.7054,-161.457 L 101.334,-166.099 L 101.615,-166.39 L 106.021,-171.1
 L 106.271,-171.375 L 110.467,-176.132 L 110.687,-176.388 L 114.689,-181.175 L 114.879,-181.407 L 118.702,-186.207
 L 118.863,-186.414 L 122.527,-191.214 L 122.66,-191.391 L 126.184,-196.179 L 126.288,-196.322 L 129.77,-201.195
 L 133.131,-205.998 L 136.398,-210.725 L 139.615,-215.391 L 142.81,-219.979 L 146.017,-224.477 L 149.282,-228.881
 L 152.654,-233.18 L 156.195,-237.367 L 159.978,-241.433 L 164.095,-245.382 L 168.652,-249.237 L 174.045,-253.248
 L 175.998,-255.046 L 177.535,-257.211 L 178.587,-259.649 L 179.11,-262.252 L 179.081,-264.907 L 178.5,-267.497
 L 176.877,-270.711 L 170.88,-279.296 L 169.14,-281.302 L 167.021,-282.902 L 164.616,-284.027 L 162.03,-284.627
 L 159.375,-284.676 L 156.769,-284.173 L 153.352,-282.542 L 147.338,-278.473 L 141.585,-274.847 L 135.848,-271.54
 L 130.017,-268.517 L 124,-265.732 L 117.755,-263.144 L 111.276,-260.717 L 104.589,-258.421 L 97.7393,-256.228
 L 90.7817,-254.112 L 83.7737,-252.048 L 76.7679,-250.009 L 69.8197,-247.972 L 63.1749,-245.97 L 63.0112,-245.919
 L 56.6473,-243.907 L 56.4013,-243.827 L 50.3887,-241.79 L 50.0431,-241.668 L 44.453,-239.593 L 43.9812,-239.407
 L 38.8844,-237.28 L 38.2462,-236.992 L 33.7121,-234.799 L 32.852,-234.342 L 31.1968,-233.378 L 28.8262,-233.086
 L 27.1589,-232.885 L 25.4887,-232.685 L 23.7886,-232.485 L 22.0962,-232.287 L 18.6274,-231.889 L 15.1195,-231.493
 L 11.5574,-231.096 L 6.10019,-230.496 L -1.36295,-229.687 L -1.43364,-229.671 L -8.73289,-228.868 L -15.8471,-228.051
 L -22.7368,-227.225 L -29.4162,-226.383 L -35.8985,-225.524 L -42.1962,-224.642 L -48.3213,-223.735 L -54.2849,-222.8
 L -60.0975,-221.836 L -65.7686,-220.841 L -71.3072,-219.814 L -76.7214,-218.757 L -82.0188,-217.67 L -87.206,-216.557
 L -92.2896,-215.42 L -97.2752,-214.264 L -102.168,-213.094 L -106.974,-211.917 L -111.697,-210.741 L -116.341,-209.574
 L -118.835,-208.662 L -121.084,-207.251 L -122.99,-205.403 L -124.471,-203.199 L -125.461,-200.736 L -125.917,-198.12
 L -125.82,-195.467 L -125.418,-193.63 L -123.267,-186.414 L -122.906,-185.37 L -120.19,-178.502 L -119.744,-177.503
 L -116.493,-170.988 L -115.974,-170.05 L -112.223,-163.894 L -111.644,-163.026 L -107.426,-157.235 L -106.8,-156.443
 L -102.151,-151.023 L -101.489,-150.308 L -96.4441,-145.266 L -95.7548,-144.626 L -90.3484,-139.969 L -89.6387,-139.401
 L -83.9052,-135.137 L -83.1795,-134.635 L -77.152,-130.772 L -76.4127,-130.333 L -70.1233,-126.878 L -69.371,-126.497
 L -62.8502,-123.46 L -62.0845,-123.134 L -55.3611,-120.524 L -54.5809,-120.25 L -47.6819,-118.077 L -46.8857,-117.854
 L -39.8359,-116.129 L -39.0227,-115.958 L -31.8445,-114.691 L -31.0142,-114.573 L -23.7272,-113.779 L -22.8811,-113.715
 L -15.5021,-113.407 L -14.6434,-113.4 z
M -22.3512,-126.404 L -29.6382,-127.198 L -36.8165,-128.465 L -43.8663,-130.19 L -50.7653,-132.363 L -57.4886,-134.973
 L -64.0095,-138.01 L -70.2989,-141.464 L -76.3264,-145.328 L -82.06,-149.592 L -87.4663,-154.248 L -92.5114,-159.291
 L -97.1603,-164.711 L -101.378,-170.503 L -105.129,-176.659 L -108.38,-183.173 L -111.096,-190.041 L -113.247,-197.257
 L -108.602,-198.424 L -103.905,-199.594 L -99.1482,-200.758 L -94.323,-201.911 L -89.4213,-203.048 L -84.4346,-204.163
 L -79.3541,-205.253 L -74.1706,-206.316 L -68.8744,-207.35 L -63.4556,-208.353 L -57.9037,-209.327 L -52.2076,-210.271
 L -46.356,-211.188 L -40.337,-212.079 L -34.1383,-212.946 L -27.7471,-213.793 L -21.1502,-214.624 L -14.3343,-215.442
 L -7.2856,-216.25 L 0.00695801,-217.053 L 0.00695801,-217.061 L 7.48045,-217.872 L 12.9513,-218.473 L 16.5349,-218.872
 L 20.0676,-219.271 L 23.5498,-219.671 L 25.272,-219.872 L 26.9817,-220.073 L 28.6788,-220.276 L 30.3636,-220.479
 L 32.0359,-220.685 L 33.6958,-220.891 L 35.3433,-221.1 L 35.3454,-221.098 L 39.2418,-223.366 L 43.7759,-225.559
 L 48.8727,-227.686 L 54.4628,-229.762 L 60.4754,-231.798 L 66.8393,-233.81 L 73.4841,-235.812 L 80.3407,-237.822
 L 87.3418,-239.859 L 94.4232,-241.945 L 101.524,-244.105 L 108.588,-246.366 L 115.566,-248.762 L 122.414,-251.327
 L 129.101,-254.098 L 135.61,-257.111 L 141.946,-260.396 L 148.145,-263.97 L 154.284,-267.839 L 160.468,-272.023
 L 166.466,-263.438 L 160.754,-259.19 L 155.59,-254.822 L 150.926,-250.348 L 146.692,-245.798 L 142.806,-241.202
 L 139.182,-236.582 L 135.745,-231.946 L 132.429,-227.295 L 129.178,-222.626 L 125.943,-217.935 L 122.683,-213.218
 L 119.365,-208.475 L 115.956,-203.707 L 112.432,-198.92 L 108.768,-194.12 L 104.945,-189.32 L 100.943,-184.533
 L 96.7467,-179.776 L 92.3406,-175.066 L 87.7119,-170.424 L 84.5017,-167.385 L 81.1762,-164.386 L 77.7394,-161.442
 L 74.1886,-158.557 L 70.521,-155.741 L 66.7343,-153 L 62.8258,-150.342 L 58.7934,-147.775 L 54.6347,-145.306
 L 50.3477,-142.944 L 45.9303,-140.697 L 41.3806,-138.572 L 36.6966,-136.578 L 31.8766,-134.724 L 26.9189,-133.018
 L 21.8217,-131.469 L 16.5834,-130.084 L 11.2025,-128.873 L 5.67752,-127.845 L 0.00997925,-127.008 L 0.00997925,-127
 L -7.51501,-126.289 L -14.9722,-126.096 z
M 0.876724,12.6697 L 8.31973,12.1606 L 10.0201,11.928 L 17.1566,10.455 L 18.7155,10.0283 L 25.5549,7.67877
 L 26.91,7.12402 L 33.4689,3.98598 L 34.6011,3.3719 L 40.8932,-0.465973 L 41.8149,-1.08508 L 47.8509,-5.53395
 L 48.5913,-6.12349 L 54.3786,-11.0949 L 54.9713,-11.6376 L 60.5137,-17.0442 L 60.9908,-17.5354 L 66.2875,-23.2913
 L 66.6772,-23.7351 L 71.7217,-29.7563 L 72.0478,-30.1622 L 76.8277,-36.3674 L 77.1098,-36.748 L 81.6057,-43.0582
 L 81.8602,-43.429 L 86.0461,-49.7675 L 86.2866,-50.1461 L 90.1299,-56.4382 L 90.368,-56.8447 L 93.8308,-63.0174
 L 94.0762,-63.4768 L 97.116,-69.4576 L 97.3769,-70.0028 L 99.9479,-75.7195 L 100.23,-76.3988 L 102.284,-81.7791
 L 102.586,-82.6679 L 104.074,-87.6393 L 104.375,-88.8625 L 105.245,-93.3521 L 105.476,-95.9972 L 105.151,-98.6322
 L 104.285,-101.142 L 102.917,-103.417 L 101.105,-105.358 L 98.9298,-106.88 L 96.4854,-107.917 L 93.8789,-108.422
 L 91.2243,-108.374 L 88.6376,-107.776 L 86.2319,-106.653 L 84.1122,-105.054 L 82.6999,-103.498 L 78.8012,-98.4143
 L 75.0003,-93.6437 L 71.2301,-89.0954 L 67.4904,-84.7715 L 63.7796,-80.6793 L 60.0923,-76.8272 L 56.4194,-73.2249
 L 52.7468,-69.8799 L 49.0577,-66.7986 L 45.331,-63.9836 L 41.5409,-61.433 L 37.6604,-59.1436 L 33.6593,-57.1108
 L 29.5086,-55.3325 L 25.1784,-53.8082 L 20.6416,-52.541 L 15.8745,-51.5376 L 10.8554,-50.8067 L 5.5666,-50.3593
 L 0.00500488,-50.2075 L -5.55658,-50.3593 L -10.8454,-50.8067 L -15.8644,-51.5376 L -20.6316,-52.541 L -25.1684,-53.8082
 L -29.4986,-55.3325 L -33.6493,-57.1108 L -37.6504,-59.1436 L -41.5309,-61.433 L -45.3209,-63.9836 L -49.0476,-66.7986
 L -52.7368,-69.8799 L -56.4094,-73.2249 L -60.0822,-76.8272 L -63.7696,-80.6793 L -67.4804,-84.7715 L -71.2201,-89.0954
 L -74.9903,-93.6437 L -78.7912,-98.4143 L -82.6899,-103.498 L -84.5169,-105.425 L -86.7046,-106.929 L -89.1572,-107.946
 L -91.7676,-108.43 L -94.4218,-108.362 L -97.0036,-107.743 L -99.4003,-106.6 L -101.507,-104.985 L -103.232,-102.966
 L -104.5,-100.633 L -105.254,-98.0878 L -105.463,-95.441 L -105.235,-93.3521 L -104.365,-88.8625 L -104.064,-87.6393
 L -102.576,-82.6679 L -102.274,-81.7791 L -100.22,-76.3988 L -99.9379,-75.7195 L -97.3669,-70.0028 L -97.106,-69.4576
 L -94.0662,-63.4768 L -93.8208,-63.0174 L -90.358,-56.8447 L -90.1199,-56.4383 L -86.2766,-50.1461 L -86.0361,-49.7675
 L -81.8502,-43.429 L -81.5957,-43.0582 L -77.0998,-36.748 L -76.8177,-36.3674 L -72.0378,-30.1622 L -71.7117,-29.7564
 L -66.6672,-23.7351 L -66.2775,-23.2913 L -60.9808,-17.5354 L -60.5037,-17.0442 L -54.9613,-11.6376 L -54.3686,-11.0949
 L -48.5813,-6.1235 L -47.8409,-5.53397 L -41.8049,-1.0851 L -40.8831,-0.465988 L -34.5911,3.37189 L -33.4589,3.98596
 L -26.9,7.12401 L -25.5449,7.67876 L -18.7055,10.0283 L -17.1465,10.455 L -10.0101,11.928 L -8.30856,12.1606
 L -0.855591,12.6698 z
M -7.44298,-0.509842 L -14.5794,-1.98279 L -21.4188,-4.33229 L -27.9778,-7.47034 L -34.2698,-11.3082 L -40.3058,-15.7571
 L -46.0931,-20.7285 L -51.6355,-26.1351 L -56.9321,-31.891 L -61.9767,-37.9123 L -66.7566,-44.1175 L -71.2525,-50.4277
 L -75.4385,-56.7661 L -79.2818,-63.0583 L -82.7446,-69.231 L -85.7843,-75.2118 L -88.3553,-80.9285 L -90.4094,-86.3089
 L -91.8971,-91.2802 L -92.7677,-95.7698 L -88.7975,-90.5927 L -84.8466,-85.6339 L -80.9126,-80.8879 L -76.9885,-76.3509
 L -73.0626,-72.0214 L -69.1182,-67.9007 L -65.1344,-63.9934 L -61.087,-60.3071 L -56.9505,-56.8521 L -52.699,-53.6408
 L -48.3089,-50.6863 L -43.7592,-48.0021 L -39.0321,-45.6005 L -34.1129,-43.4929 L -28.9892,-41.6893 L -23.6511,-40.1983
 L -18.0896,-39.0276 L -12.2969,-38.1841 L -6.26591,-37.6739 L 0.00500488,-37.5028 L 6.27594,-37.6739 L 12.3069,-38.1841
 L 18.0996,-39.0276 L 23.6611,-40.1983 L 28.9993,-41.6893 L 34.1229,-43.4929 L 39.0421,-45.6005 L 43.7692,-48.0021
 L 48.319,-50.6863 L 52.709,-53.6408 L 56.9605,-56.8521 L 61.0971,-60.3071 L 65.1444,-63.9934 L 69.1282,-67.9007
 L 73.0726,-72.0214 L 76.9985,-76.3509 L 80.9226,-80.8879 L 84.8566,-85.6339 L 88.8075,-90.5927 L 92.7777,-95.7698
 L 91.9071,-91.2802 L 90.4194,-86.3089 L 88.3653,-80.9285 L 85.7943,-75.2118 L 82.7546,-69.231 L 79.2918,-63.0583
 L 75.4485,-56.7661 L 71.2626,-50.4276 L 66.7666,-44.1175 L 61.9867,-37.9123 L 56.9421,-31.891 L 51.6455,-26.1351
 L 46.1031,-20.7285 L 40.3158,-15.7571 L 34.2798,-11.3082 L 27.9878,-7.47032 L 21.4288,-4.33228 L 14.5894,-1.98277
 L 7.45299,-0.509827 L 0.00999451,-0.000671387 z
M -127.008,219.906 L -123.721,218.667 L -117.514,215.283 L -111.615,212.601 L -105.61,210.364 L -99.4979,208.544
 L -93.2796,207.116 L -86.9588,206.058 L -80.5413,205.346 L -74.0339,204.958 L -67.4441,204.87 L -60.7775,205.056
 L -54.0384,205.486 L -47.2242,206.131 L -40.3315,206.954 L -33.348,207.916 L -26.2585,208.972 L -19.0222,210.075
 L -11.6193,211.17 L -4.30106,212.164 L -4.05565,212.195 L 3.35437,213.054 L 3.68474,213.088 L 11.2131,213.762
 L 11.3945,213.777 L 17.1047,214.206 L 22.7165,214.63 L 28.2395,215.044 L 33.6818,215.442 L 39.0506,215.819
 L 44.3528,216.167 L 49.5942,216.482 L 54.7801,216.759 L 59.9151,216.99 L 65.003,217.172 L 70.047,217.299
 L 74.8828,217.363 L 75.0495,217.365 L 79.8298,217.366 L 80.0124,217.364 L 84.7385,217.298 L 84.9372,217.293
 L 89.6097,217.154 L 89.824,217.146 L 94.4431,216.93 L 94.6735,216.917 L 99.2385,216.621 L 99.4849,216.602
 L 103.995,216.221 L 104.257,216.196 L 108.71,215.727 L 108.99,215.694 L 113.384,215.132 L 113.758,215.079
 L 120.223,214.056 L 120.704,213.97 L 127.031,212.718 L 127.552,212.603 L 133.718,211.111 L 134.279,210.961
 L 140.27,209.218 L 140.871,209.027 L 146.671,207.022 L 147.312,206.781 L 152.904,204.503 L 153.583,204.203
 L 158.948,201.643 L 159.661,201.275 L 164.781,198.422 L 165.522,197.975 L 170.375,194.819 L 171.135,194.284
 L 175.699,190.816 L 176.464,190.186 L 180.719,186.395 L 181.472,185.667 L 185.393,181.544 L 186.115,180.717
 L 189.68,176.254 L 190.349,175.336 L 193.533,170.523 L 194.129,169.527 L 196.908,164.354 L 197.413,163.301
 L 199.763,157.76 L 200.166,156.675 L 202.062,150.756 L 202.358,149.665 L 203.774,143.359 L 203.967,142.287
 L 204.878,135.585 L 204.975,134.554 L 205.3,128.491 L 205.323,128.376 L 205.335,127.679 L 205.343,127.679
 L 205.356,127.446 L 205.344,127.211 L 205.356,126.554 L 205.343,126.321 L 205.298,126.323 L 205.286,126.089
 L 205.331,126.087 L 204.975,119.446 L 204.878,118.415 L 203.967,111.713 L 203.774,110.641 L 202.358,104.335
 L 202.062,103.244 L 200.166,97.3251 L 199.763,96.2398 L 197.413,90.6988 L 196.908,89.6458 L 194.129,84.4734
 L 193.533,83.4774 L 190.349,78.6643 L 189.68,77.7458 L 186.115,73.2828 L 185.393,72.4555 L 181.472,68.3334
 L 180.719,67.6046 L 176.464,63.814 L 175.699,63.1843 L 171.135,59.7158 L 170.375,59.1814 L 165.522,56.0254
 L 164.781,55.5785 L 159.661,52.7253 L 158.948,52.3568 L 153.583,49.7965 L 152.904,49.4966 L 147.312,47.2191
 L 146.671,46.978 L 140.871,44.9729 L 140.27,44.7817 L 134.279,43.0385 L 133.718,42.8891 L 127.552,41.3969
 L 127.031,41.2823 L 120.704,40.03 L 120.223,39.9443 L 113.758,38.9212 L 113.384,38.8678 L 108.99,38.3058
 L 108.71,38.2732 L 104.257,37.8036 L 103.995,37.7786 L 99.4849,37.3976 L 99.2385,37.3791 L 94.6735,37.0827
 L 94.4431,37.0698 L 89.824,36.8541 L 89.6097,36.8459 L 84.9372,36.7067 L 84.7385,36.7024 L 80.0124,36.6355
 L 79.8298,36.6343 L 75.0495,36.6354 L 74.8828,36.6366 L 69.8962,36.7041 L 64.8682,36.8318 L 59.7964,37.0144
 L 54.6775,37.2464 L 49.5078,37.5226 L 44.2824,37.8373 L 38.9963,38.1851 L 33.6432,38.5603 L 28.2165,38.9573
 L 22.7086,39.3702 L 17.107,39.7936 L 11.3956,40.2222 L 11.2124,40.2373 L 3.68399,40.912 L 3.35437,40.9458
 L -4.05565,41.8053 L -4.30106,41.8361 L -11.7711,42.8512 L -19.0762,43.9331 L -26.2585,45.0282 L -33.348,46.084
 L -40.3315,47.0457 L -47.2242,47.8688 L -54.0384,48.5135 L -60.7775,48.9444 L -67.4441,49.1301 L -74.0339,49.042
 L -80.5413,48.6541 L -86.9588,47.9425 L -93.2796,46.884 L -99.4979,45.4562 L -105.61,43.636 L -111.615,41.3987
 L -117.514,38.7168 L -123.721,35.3325 L -126.172,34.3122 L -128.782,33.8239 L -131.436,33.8887 L -134.019,34.504
 L -136.417,35.6429 L -138.526,37.2555 L -140.72,39.9983 L -160.732,73.6972 L -161.842,76.1092 L -162.425,78.6993
 L -162.458,81.3541 L -161.938,83.9577 L -160.888,86.3962 L -159.354,88.5632 L -157.403,90.3639 L -156.243,91.1334
 L -146.588,96.8018 L -137.623,101.932 L -137.475,102.015 L -129.041,106.693 L -128.861,106.792 L -120.915,111.032
 L -120.691,111.148 L -113.184,114.965 L -112.908,115.101 L -105.783,118.51 L -105.45,118.663 L -98.6432,121.681
 L -98.2496,121.847 L -91.6925,124.494 L -91.2451,124.665 L -84.862,126.966 L -84.7599,127 L -84.862,127.034
 L -91.2451,129.335 L -91.6925,129.506 L -98.2496,132.153 L -98.6432,132.319 L -105.45,135.337 L -105.783,135.49
 L -112.908,138.899 L -113.184,139.035 L -120.691,142.852 L -120.915,142.968 L -128.861,147.208 L -129.041,147.307
 L -137.475,151.985 L -137.623,152.068 L -146.711,157.269 L -156.243,162.867 L -158.379,164.443 L -160.141,166.429
 L -161.452,168.738 L -162.254,171.269 L -162.512,173.911 L -162.215,176.55 L -161.376,179.069 L -160.732,180.303
 L -140.72,214.002 L -139.133,216.13 L -137.139,217.882 L -134.823,219.182 L -132.288,219.971 L -129.644,220.216
 z
M -149.812,173.818 L -140.28,168.221 L -131.315,163.091 L -122.881,158.413 L -114.935,154.173 L -107.428,150.356
 L -100.302,146.947 L -93.496,143.929 L -86.939,141.283 L -80.5558,138.982 L -74.2665,136.998 L -67.9884,135.297
 L -61.6382,133.842 L -55.1353,132.594 L -48.4042,131.516 L -41.3764,130.572 L -33.992,129.732 L -26.2001,128.972
 L -17.9579,128.271 L -9.23074,127.617 L -0.0145569,127 L -9.23074,126.383 L -17.9579,125.729 L -26.2001,125.028
 L -33.992,124.268 L -41.3764,123.428 L -48.4042,122.484 L -55.1353,121.406 L -61.6382,120.158 L -67.9884,118.703
 L -74.2665,117.002 L -80.5558,115.018 L -86.939,112.717 L -93.496,110.071 L -100.302,107.053 L -107.428,103.644
 L -114.935,99.8275 L -122.881,95.5872 L -131.315,90.9092 L -140.28,85.779 L -149.812,80.1818 L -129.8,46.4829
 L -123.189,50.0874 L -116.466,53.1441 L -109.644,55.6859 L -102.735,57.7435 L -95.7518,59.3468 L -88.7089,60.5262
 L -81.6196,61.3124 L -74.4967,61.7369 L -67.3521,61.8324 L -60.1956,61.6331 L -53.0346,61.1753 L -45.8733,60.4977
 L -38.712,59.6426 L -31.5465,58.6558 L -24.3677,57.5867 L -17.1619,56.488 L -9.91077,55.4143 L -2.5925,54.4207
 L 4.81752,53.5613 L 12.346,52.8866 L 18.062,52.4577 L 23.6659,52.0341 L 29.1659,51.6218 L 34.5696,51.2265
 L 39.8842,50.8541 L 45.116,50.5099 L 50.2709,50.1996 L 55.3542,49.9284 L 60.3705,49.7014 L 65.3236,49.5237
 L 70.2168,49.4001 L 75.0526,49.3354 L 79.8329,49.3343 L 84.559,49.4011 L 89.2315,49.5403 L 93.8506,49.756
 L 98.4155,50.0524 L 102.925,50.4335 L 107.378,50.9032 L 111.773,51.4652 L 118.238,52.4882 L 124.565,53.7406
 L 130.731,55.2328 L 136.721,56.976 L 142.521,58.981 L 148.113,61.2585 L 153.479,63.8188 L 158.598,66.672
 L 163.451,69.828 L 168.016,73.2964 L 172.271,77.087 L 176.192,81.2091 L 179.757,85.6721 L 182.942,90.4852
 L 185.721,95.6576 L 188.071,101.199 L 189.967,107.117 L 191.383,113.423 L 192.294,120.125 L 192.649,126.766
 L 192.674,126.766 L 192.662,127 L 192.674,127.234 L 192.649,127.234 L 192.294,133.875 L 191.383,140.577
 L 189.967,146.883 L 188.071,152.801 L 185.721,158.342 L 182.942,163.515 L 179.757,168.328 L 176.192,172.791
 L 172.271,176.913 L 168.016,180.704 L 163.451,184.172 L 158.598,187.328 L 153.479,190.181 L 148.113,192.742
 L 142.521,195.019 L 136.721,197.024 L 130.731,198.767 L 124.565,200.259 L 118.238,201.512 L 111.773,202.535
 L 107.378,203.097 L 102.925,203.566 L 98.4155,203.948 L 93.8506,204.244 L 89.2315,204.46 L 84.559,204.599
 L 79.8329,204.666 L 75.0526,204.665 L 70.2168,204.6 L 65.3236,204.476 L 60.3705,204.299 L 55.3542,204.072
 L 50.2709,203.8 L 45.116,203.49 L 39.8842,203.146 L 34.5696,202.773 L 29.1659,202.378 L 23.6659,201.966
 L 18.062,201.542 L 12.3459,201.113 L 4.81752,200.439 L -2.5925,199.579 L -9.91077,198.586 L -17.1619,197.512
 L -24.3677,196.413 L -31.5465,195.344 L -38.712,194.357 L -45.8733,193.502 L -53.0346,192.825 L -60.1956,192.367
 L -67.3521,192.168 L -74.4967,192.263 L -81.6196,192.688 L -88.7089,193.474 L -95.7518,194.653 L -102.735,196.257
 L -109.644,198.314 L -116.466,200.856 L -123.189,203.913 L -129.8,207.517 z
" stroke="black" fill="lightgray" stroke-width="0.5"/></svg>
