  0
SECTION
  2
BLOCKS
  0
ENDSEC
  0
SECTION
  2
ENTITIES
  0
LINE
  8
0
 10
187.944
 20
382.731
 11
189.266
 21
383.441
  0
LINE
  8
0
 10
189.266
 20
383.441
 11
194.795
 21
387.317
  0
LINE
  8
0
 10
194.795
 20
387.317
 11
200.891
 21
391.404
  0
LINE
  8
0
 10
200.891
 20
391.404
 11
214.552
 21
400.359
  0
LINE
  8
0
 10
214.552
 20
400.359
 11
221.74
 21
405.168
  0
LINE
  8
0
 10
221.74
 20
405.168
 11
221.84
 21
405.236
  0
LINE
  8
0
 10
221.84
 20
405.236
 11
229.088
 21
410.286
  0
LINE
  8
0
 10
229.088
 20
410.286
 11
229.24
 21
410.395
  0
LINE
  8
0
 10
229.24
 20
410.395
 11
236.406
 21
415.709
  0
LINE
  8
0
 10
236.406
 20
415.709
 11
236.612
 21
415.868
  0
LINE
  8
0
 10
236.612
 20
415.868
 11
243.556
 21
421.472
  0
LINE
  8
0
 10
243.556
 20
421.472
 11
243.818
 21
421.695
  0
LINE
  8
0
 10
243.818
 20
421.695
 11
250.397
 21
427.622
  0
LINE
  8
0
 10
250.397
 20
427.622
 11
250.714
 21
427.928
  0
LINE
  8
0
 10
250.714
 20
427.928
 11
256.787
 21
434.216
  0
LINE
  8
0
 10
256.787
 20
434.216
 11
257.153
 21
434.629
  0
LINE
  8
0
 10
257.153
 20
434.629
 11
262.579
 21
441.322
  0
LINE
  8
0
 10
262.579
 20
441.322
 11
262.973
 21
441.865
  0
LINE
  8
0
 10
262.973
 20
441.865
 11
267.612
 21
449.016
  0
LINE
  8
0
 10
267.612
 20
449.016
 11
268
 21
449.705
  0
LINE
  8
0
 10
268
 20
449.705
 11
271.71
 21
457.367
  0
LINE
  8
0
 10
271.71
 20
457.367
 11
272.042
 21
458.196
  0
LINE
  8
0
 10
272.042
 20
458.196
 11
274.682
 21
466.43
  0
LINE
  8
0
 10
274.682
 20
466.43
 11
274.904
 21
467.36
  0
LINE
  8
0
 10
274.904
 20
467.36
 11
276.332
 21
476.229
  0
LINE
  8
0
 10
276.332
 20
476.229
 11
276.413
 21
477.19
  0
LINE
  8
0
 10
276.413
 20
477.19
 11
276.486
 21
486.76
  0
LINE
  8
0
 10
276.486
 20
486.76
 11
276.427
 21
487.676
  0
LINE
  8
0
 10
276.427
 20
487.676
 11
275.003
 21
498.013
  0
LINE
  8
0
 10
275.003
 20
498.013
 11
274.835
 21
498.828
  0
LINE
  8
0
 10
274.835
 20
498.828
 11
271.768
 21
509.997
  0
LINE
  8
0
 10
271.768
 20
509.997
 11
271.535
 21
510.686
  0
LINE
  8
0
 10
271.535
 20
510.686
 11
266.679
 21
522.753
  0
LINE
  8
0
 10
266.679
 20
522.753
 11
266.418
 21
523.318
  0
LINE
  8
0
 10
266.418
 20
523.318
 11
259.625
 21
536.345
  0
LINE
  8
0
 10
259.625
 20
536.345
 11
259.353
 21
536.817
  0
LINE
  8
0
 10
259.353
 20
536.817
 11
251.473
 21
549.204
  0
LINE
  8
0
 10
251.473
 20
549.204
 11
251.113
 21
549.712
  0
LINE
  8
0
 10
251.113
 20
549.712
 11
243.092
 21
559.952
  0
LINE
  8
0
 10
243.092
 20
559.952
 11
242.611
 21
560.498
  0
LINE
  8
0
 10
242.611
 20
560.498
 11
234.472
 21
568.739
  0
LINE
  8
0
 10
234.472
 20
568.739
 11
233.85
 21
569.291
  0
LINE
  8
0
 10
233.85
 20
569.291
 11
225.61
 21
575.693
  0
LINE
  8
0
 10
225.61
 20
575.693
 11
224.847
 21
576.202
  0
LINE
  8
0
 10
224.847
 20
576.202
 11
216.522
 21
580.924
  0
LINE
  8
0
 10
216.522
 20
580.924
 11
215.65
 21
581.334
  0
LINE
  8
0
 10
215.65
 20
581.334
 11
207.254
 21
584.532
  0
LINE
  8
0
 10
207.254
 20
584.532
 11
206.338
 21
584.804
  0
LINE
  8
0
 10
206.338
 20
584.804
 11
197.887
 21
586.635
  0
LINE
  8
0
 10
197.887
 20
586.635
 11
197.004
 21
586.762
  0
LINE
  8
0
 10
197.004
 20
586.762
 11
188.513
 21
587.381
  0
LINE
  8
0
 10
188.513
 20
587.381
 11
187.722
 21
587.389
  0
LINE
  8
0
 10
187.722
 20
587.389
 11
179.21
 21
586.947
  0
LINE
  8
0
 10
179.21
 20
586.947
 11
178.543
 21
586.877
  0
LINE
  8
0
 10
178.543
 20
586.877
 11
170.033
 21
585.525
  0
LINE
  8
0
 10
170.033
 20
585.525
 11
169.493
 21
585.415
  0
LINE
  8
0
 10
169.493
 20
585.415
 11
161.011
 21
583.299
  0
LINE
  8
0
 10
161.011
 20
583.299
 11
160.587
 21
583.177
  0
LINE
  8
0
 10
160.587
 20
583.177
 11
152.165
 21
580.443
  0
LINE
  8
0
 10
152.165
 20
580.443
 11
151.84
 21
580.328
  0
LINE
  8
0
 10
151.84
 20
580.328
 11
143.516
 21
577.116
  0
LINE
  8
0
 10
143.516
 20
577.116
 11
143.275
 21
577.018
  0
LINE
  8
0
 10
143.275
 20
577.018
 11
135.09
 21
573.468
  0
LINE
  8
0
 10
135.09
 20
573.468
 11
134.919
 21
573.391
  0
LINE
  8
0
 10
134.919
 20
573.391
 11
126.921
 21
569.639
  0
LINE
  8
0
 10
126.921
 20
569.639
 11
126.812
 21
569.587
  0
LINE
  8
0
 10
126.812
 20
569.587
 11
119.002
 21
565.74
  0
LINE
  8
0
 10
119.002
 20
565.74
 11
104.468
 21
558.413
  0
LINE
  8
0
 10
104.468
 20
558.413
 11
97.8812
 21
555.177
  0
LINE
  8
0
 10
97.8812
 20
555.177
 11
91.7599
 21
552.326
  0
LINE
  8
0
 10
91.7599
 20
552.326
 11
90.1122
 21
551.216
  0
LINE
  8
0
 10
90.1122
 20
551.216
 11
88.8882
 21
549.652
  0
LINE
  8
0
 10
88.8882
 20
549.652
 11
88.2077
 21
547.785
  0
LINE
  8
0
 10
88.2077
 20
547.785
 11
88.1372
 21
545.8
  0
LINE
  8
0
 10
88.1372
 20
545.8
 11
88.6837
 21
543.89
  0
LINE
  8
0
 10
88.6837
 20
543.89
 11
89.7938
 21
542.242
  0
LINE
  8
0
 10
89.7938
 20
542.242
 11
91.3586
 21
541.018
  0
LINE
  8
0
 10
91.3586
 20
541.018
 11
93.2252
 21
540.337
  0
LINE
  8
0
 10
93.2252
 20
540.337
 11
94.7214
 21
540.226
  0
LINE
  8
0
 10
94.7214
 20
540.226
 11
100.856
 21
540.498
  0
LINE
  8
0
 10
100.856
 20
540.498
 11
106.789
 21
540.61
  0
LINE
  8
0
 10
106.789
 20
540.61
 11
112.58
 21
540.54
  0
LINE
  8
0
 10
112.58
 20
540.54
 11
118.226
 21
540.268
  0
LINE
  8
0
 10
118.226
 20
540.268
 11
123.723
 21
539.779
  0
LINE
  8
0
 10
123.723
 20
539.779
 11
129.066
 21
539.058
  0
LINE
  8
0
 10
129.066
 20
539.058
 11
134.253
 21
538.095
  0
LINE
  8
0
 10
134.253
 20
538.095
 11
139.282
 21
536.875
  0
LINE
  8
0
 10
139.282
 20
536.875
 11
144.152
 21
535.387
  0
LINE
  8
0
 10
144.152
 20
535.387
 11
148.869
 21
533.617
  0
LINE
  8
0
 10
148.869
 20
533.617
 11
153.436
 21
531.549
  0
LINE
  8
0
 10
153.436
 20
531.549
 11
157.862
 21
529.167
  0
LINE
  8
0
 10
157.862
 20
529.167
 11
162.155
 21
526.45
  0
LINE
  8
0
 10
162.155
 20
526.45
 11
166.325
 21
523.375
  0
LINE
  8
0
 10
166.325
 20
523.375
 11
170.38
 21
519.918
  0
LINE
  8
0
 10
170.38
 20
519.918
 11
174.328
 21
516.051
  0
LINE
  8
0
 10
174.328
 20
516.051
 11
178.173
 21
511.746
  0
LINE
  8
0
 10
178.173
 20
511.746
 11
181.918
 21
506.975
  0
LINE
  8
0
 10
181.918
 20
506.975
 11
185.564
 21
501.713
  0
LINE
  8
0
 10
185.564
 20
501.713
 11
189.104
 21
495.938
  0
LINE
  8
0
 10
189.104
 20
495.938
 11
192.335
 21
489.985
  0
LINE
  8
0
 10
192.335
 20
489.985
 11
195.07
 21
484.196
  0
LINE
  8
0
 10
195.07
 20
484.196
 11
197.328
 21
478.568
  0
LINE
  8
0
 10
197.328
 20
478.568
 11
199.134
 21
473.085
  0
LINE
  8
0
 10
199.134
 20
473.085
 11
200.509
 21
467.733
  0
LINE
  8
0
 10
200.509
 20
467.733
 11
201.476
 21
462.492
  0
LINE
  8
0
 10
201.476
 20
462.492
 11
202.054
 21
457.343
  0
LINE
  8
0
 10
202.054
 20
457.343
 11
202.26
 21
452.267
  0
LINE
  8
0
 10
202.26
 20
452.267
 11
202.11
 21
447.243
  0
LINE
  8
0
 10
202.11
 20
447.243
 11
201.617
 21
442.254
  0
LINE
  8
0
 10
201.617
 20
442.254
 11
200.792
 21
437.284
  0
LINE
  8
0
 10
200.792
 20
437.284
 11
199.645
 21
432.322
  0
LINE
  8
0
 10
199.645
 20
432.322
 11
198.187
 21
427.357
  0
LINE
  8
0
 10
198.187
 20
427.357
 11
196.429
 21
422.384
  0
LINE
  8
0
 10
196.429
 20
422.384
 11
194.38
 21
417.396
  0
LINE
  8
0
 10
194.38
 20
417.396
 11
192.056
 21
412.391
  0
LINE
  8
0
 10
192.056
 20
412.391
 11
189.468
 21
407.365
  0
LINE
  8
0
 10
189.468
 20
407.365
 11
186.634
 21
402.315
  0
LINE
  8
0
 10
186.634
 20
402.315
 11
183.57
 21
397.233
  0
LINE
  8
0
 10
183.57
 20
397.233
 11
180.267
 21
392.056
  0
LINE
  8
0
 10
180.267
 20
392.056
 11
179.474
 21
390.235
  0
LINE
  8
0
 10
179.474
 20
390.235
 11
179.282
 21
388.257
  0
LINE
  8
0
 10
179.282
 20
388.257
 11
179.711
 21
386.317
  0
LINE
  8
0
 10
179.711
 20
386.317
 11
180.718
 21
384.605
  0
LINE
  8
0
 10
180.718
 20
384.605
 11
182.205
 21
383.288
  0
LINE
  8
0
 10
182.205
 20
383.288
 11
184.027
 21
382.494
  0
LINE
  8
0
 10
184.027
 20
382.494
 11
186.004
 21
382.303
  0
LINE
  8
0
 10
186.004
 20
382.303
 11
187.944
 21
382.731
  0
LINE
  8
0
 10
188.967
 20
393.886
 11
192.123
 21
399.121
  0
LINE
  8
0
 10
192.123
 20
399.121
 11
195.062
 21
404.357
  0
LINE
  8
0
 10
195.062
 20
404.357
 11
197.76
 21
409.599
  0
LINE
  8
0
 10
197.76
 20
409.599
 11
200.2
 21
414.851
  0
LINE
  8
0
 10
200.2
 20
414.851
 11
202.363
 21
420.118
  0
LINE
  8
0
 10
202.363
 20
420.118
 11
204.232
 21
425.403
  0
LINE
  8
0
 10
204.232
 20
425.403
 11
205.791
 21
430.711
  0
LINE
  8
0
 10
205.791
 20
430.711
 11
207.024
 21
436.048
  0
LINE
  8
0
 10
207.024
 20
436.048
 11
207.916
 21
441.421
  0
LINE
  8
0
 10
207.916
 20
441.421
 11
208.451
 21
446.836
  0
LINE
  8
0
 10
208.451
 20
446.836
 11
208.614
 21
452.301
  0
LINE
  8
0
 10
208.614
 20
452.301
 11
208.39
 21
457.827
  0
LINE
  8
0
 10
208.39
 20
457.827
 11
207.761
 21
463.423
  0
LINE
  8
0
 10
207.761
 20
463.423
 11
206.714
 21
469.101
  0
LINE
  8
0
 10
206.714
 20
469.101
 11
205.231
 21
474.871
  0
LINE
  8
0
 10
205.231
 20
474.871
 11
203.297
 21
480.746
  0
LINE
  8
0
 10
203.297
 20
480.746
 11
200.892
 21
486.737
  0
LINE
  8
0
 10
200.892
 20
486.737
 11
198.001
 21
492.858
  0
LINE
  8
0
 10
198.001
 20
492.858
 11
194.605
 21
499.114
  0
LINE
  8
0
 10
194.605
 20
499.114
 11
190.885
 21
505.183
  0
LINE
  8
0
 10
190.885
 20
505.183
 11
187.03
 21
510.747
  0
LINE
  8
0
 10
187.03
 20
510.747
 11
183.043
 21
515.825
  0
LINE
  8
0
 10
183.043
 20
515.825
 11
178.923
 21
520.438
  0
LINE
  8
0
 10
178.923
 20
520.438
 11
174.667
 21
524.608
  0
LINE
  8
0
 10
174.667
 20
524.608
 11
170.274
 21
528.353
  0
LINE
  8
0
 10
170.274
 20
528.353
 11
165.742
 21
531.695
  0
LINE
  8
0
 10
165.742
 20
531.695
 11
161.069
 21
534.653
  0
LINE
  8
0
 10
161.069
 20
534.653
 11
156.254
 21
537.244
  0
LINE
  8
0
 10
156.254
 20
537.244
 11
151.297
 21
539.488
  0
LINE
  8
0
 10
151.297
 20
539.488
 11
146.198
 21
541.402
  0
LINE
  8
0
 10
146.198
 20
541.402
 11
140.959
 21
543.002
  0
LINE
  8
0
 10
140.959
 20
543.002
 11
135.582
 21
544.306
  0
LINE
  8
0
 10
135.582
 20
544.306
 11
130.071
 21
545.33
  0
LINE
  8
0
 10
130.071
 20
545.33
 11
124.429
 21
546.091
  0
LINE
  8
0
 10
124.429
 20
546.091
 11
118.66
 21
546.604
  0
LINE
  8
0
 10
118.66
 20
546.604
 11
112.771
 21
546.888
  0
LINE
  8
0
 10
112.771
 20
546.888
 11
106.768
 21
546.961
  0
LINE
  8
0
 10
106.768
 20
546.961
 11
100.655
 21
546.845
  0
LINE
  8
0
 10
100.655
 20
546.845
 11
94.4403
 21
546.57
  0
LINE
  8
0
 10
94.4403
 20
546.57
 11
100.622
 21
549.448
  0
LINE
  8
0
 10
100.622
 20
549.448
 11
107.298
 21
552.728
  0
LINE
  8
0
 10
107.298
 20
552.728
 11
121.86
 21
560.069
  0
LINE
  8
0
 10
121.86
 20
560.069
 11
129.618
 21
563.89
  0
LINE
  8
0
 10
129.618
 20
563.89
 11
137.616
 21
567.642
  0
LINE
  8
0
 10
137.616
 20
567.642
 11
145.801
 21
571.192
  0
LINE
  8
0
 10
145.801
 20
571.192
 11
154.126
 21
574.403
  0
LINE
  8
0
 10
154.126
 20
574.403
 11
162.548
 21
577.138
  0
LINE
  8
0
 10
162.548
 20
577.138
 11
171.029
 21
579.253
  0
LINE
  8
0
 10
171.029
 20
579.253
 11
179.54
 21
580.606
  0
LINE
  8
0
 10
179.54
 20
580.606
 11
188.051
 21
581.048
  0
LINE
  8
0
 10
188.051
 20
581.048
 11
196.542
 21
580.429
  0
LINE
  8
0
 10
196.542
 20
580.429
 11
204.994
 21
578.598
  0
LINE
  8
0
 10
204.994
 20
578.598
 11
213.39
 21
575.4
  0
LINE
  8
0
 10
213.39
 20
575.4
 11
221.714
 21
570.679
  0
LINE
  8
0
 10
221.714
 20
570.679
 11
229.954
 21
564.277
  0
LINE
  8
0
 10
229.954
 20
564.277
 11
238.093
 21
556.036
  0
LINE
  8
0
 10
238.093
 20
556.036
 11
246.115
 21
545.796
  0
LINE
  8
0
 10
246.115
 20
545.796
 11
253.995
 21
533.408
  0
LINE
  8
0
 10
253.995
 20
533.408
 11
260.788
 21
520.382
  0
LINE
  8
0
 10
260.788
 20
520.382
 11
265.645
 21
508.315
  0
LINE
  8
0
 10
265.645
 20
508.315
 11
268.712
 21
497.146
  0
LINE
  8
0
 10
268.712
 20
497.146
 11
270.137
 21
486.809
  0
LINE
  8
0
 10
270.137
 20
486.809
 11
270.063
 21
477.239
  0
LINE
  8
0
 10
270.063
 20
477.239
 11
268.635
 21
468.369
  0
LINE
  8
0
 10
268.635
 20
468.369
 11
265.995
 21
460.134
  0
LINE
  8
0
 10
265.995
 20
460.134
 11
262.285
 21
452.472
  0
LINE
  8
0
 10
262.285
 20
452.472
 11
257.646
 21
445.321
  0
LINE
  8
0
 10
257.646
 20
445.321
 11
252.22
 21
438.627
  0
LINE
  8
0
 10
252.22
 20
438.627
 11
246.147
 21
432.34
  0
LINE
  8
0
 10
246.147
 20
432.34
 11
239.568
 21
426.414
  0
LINE
  8
0
 10
239.568
 20
426.414
 11
232.624
 21
420.81
  0
LINE
  8
0
 10
232.624
 20
420.81
 11
225.458
 21
415.496
  0
LINE
  8
0
 10
225.458
 20
415.496
 11
218.21
 21
410.446
  0
LINE
  8
0
 10
218.21
 20
410.446
 11
211.021
 21
405.638
  0
LINE
  8
0
 10
211.021
 20
405.638
 11
197.383
 21
396.697
  0
LINE
  8
0
 10
197.383
 20
396.697
 11
191.204
 21
392.555
  0
LINE
  8
0
 10
191.204
 20
392.555
 11
185.621
 21
388.641
  0
LINE
  8
0
 10
185.621
 20
388.641
 11
188.967
 21
393.886
  0
LINE
  8
0
 10
111.821
 20
118.271
 11
112.528
 21
118.268
  0
LINE
  8
0
 10
112.528
 20
118.268
 11
121.464
 21
119.845
  0
LINE
  8
0
 10
121.464
 20
119.845
 11
122.028
 21
119.971
  0
LINE
  8
0
 10
122.028
 20
119.971
 11
130.27
 21
122.215
  0
LINE
  8
0
 10
130.27
 20
122.215
 11
130.858
 21
122.406
  0
LINE
  8
0
 10
130.858
 20
122.406
 11
138.432
 21
125.284
  0
LINE
  8
0
 10
138.432
 20
125.284
 11
139.026
 21
125.545
  0
LINE
  8
0
 10
139.026
 20
125.545
 11
145.957
 21
129.025
  0
LINE
  8
0
 10
145.957
 20
129.025
 11
146.535
 21
129.354
  0
LINE
  8
0
 10
146.535
 20
129.354
 11
152.847
 21
133.401
  0
LINE
  8
0
 10
152.847
 20
133.401
 11
153.389
 21
133.79
  0
LINE
  8
0
 10
153.389
 20
133.79
 11
159.107
 21
138.369
  0
LINE
  8
0
 10
159.107
 20
138.369
 11
159.596
 21
138.805
  0
LINE
  8
0
 10
159.596
 20
138.805
 11
164.743
 21
143.881
  0
LINE
  8
0
 10
164.743
 20
143.881
 11
165.169
 21
144.345
  0
LINE
  8
0
 10
165.169
 20
144.345
 11
169.769
 21
149.885
  0
LINE
  8
0
 10
169.769
 20
149.885
 11
170.127
 21
150.36
  0
LINE
  8
0
 10
170.127
 20
150.36
 11
174.203
 21
156.328
  0
LINE
  8
0
 10
174.203
 20
156.328
 11
174.495
 21
156.798
  0
LINE
  8
0
 10
174.495
 20
156.798
 11
178.071
 21
163.161
  0
LINE
  8
0
 10
178.071
 20
163.161
 11
178.302
 21
163.614
  0
LINE
  8
0
 10
178.302
 20
163.614
 11
181.401
 21
170.34
  0
LINE
  8
0
 10
181.401
 20
170.34
 11
181.58
 21
170.768
  0
LINE
  8
0
 10
181.58
 20
170.768
 11
184.225
 21
177.824
  0
LINE
  8
0
 10
184.225
 20
177.824
 11
184.359
 21
178.223
  0
LINE
  8
0
 10
184.359
 20
178.223
 11
186.572
 21
185.578
  0
LINE
  8
0
 10
186.572
 20
185.578
 11
186.671
 21
185.945
  0
LINE
  8
0
 10
186.671
 20
185.945
 11
188.474
 21
193.569
  0
LINE
  8
0
 10
188.474
 20
193.569
 11
188.544
 21
193.906
  0
LINE
  8
0
 10
188.544
 20
193.906
 11
189.96
 21
201.771
  0
LINE
  8
0
 10
189.96
 20
201.771
 11
190.008
 21
202.078
  0
LINE
  8
0
 10
190.008
 20
202.078
 11
191.057
 21
210.156
  0
LINE
  8
0
 10
191.057
 20
210.156
 11
191.087
 21
210.435
  0
LINE
  8
0
 10
191.087
 20
210.435
 11
191.791
 21
218.701
  0
LINE
  8
0
 10
191.791
 20
218.701
 11
191.808
 21
218.954
  0
LINE
  8
0
 10
191.808
 20
218.954
 11
192.187
 21
227.384
  0
LINE
  8
0
 10
192.187
 20
227.384
 11
192.193
 21
227.614
  0
LINE
  8
0
 10
192.193
 20
227.614
 11
192.269
 21
236.186
  0
LINE
  8
0
 10
192.269
 20
236.186
 11
192.267
 21
236.395
  0
LINE
  8
0
 10
192.267
 20
236.395
 11
192.059
 21
245.081
  0
LINE
  8
0
 10
192.059
 20
245.081
 11
192.044
 21
245.081
  0
LINE
  8
0
 10
192.044
 20
245.081
 11
192.054
 21
245.24
  0
LINE
  8
0
 10
192.054
 20
245.24
 11
191.767
 21
251.098
  0
LINE
  8
0
 10
191.767
 20
251.098
 11
191.76
 21
251.216
  0
LINE
  8
0
 10
191.76
 20
251.216
 11
191.352
 21
257.227
  0
LINE
  8
0
 10
191.352
 20
257.227
 11
190.837
 21
263.272
  0
LINE
  8
0
 10
190.837
 20
263.272
 11
190.221
 21
269.347
  0
LINE
  8
0
 10
190.221
 20
269.347
 11
189.51
 21
275.45
  0
LINE
  8
0
 10
189.51
 20
275.45
 11
188.71
 21
281.582
  0
LINE
  8
0
 10
188.71
 20
281.582
 11
187.827
 21
287.742
  0
LINE
  8
0
 10
187.827
 20
287.742
 11
186.867
 21
293.931
  0
LINE
  8
0
 10
186.867
 20
293.931
 11
185.837
 21
300.152
  0
LINE
  8
0
 10
185.837
 20
300.152
 11
184.742
 21
306.408
  0
LINE
  8
0
 10
184.742
 20
306.408
 11
183.59
 21
312.703
  0
LINE
  8
0
 10
183.59
 20
312.703
 11
182.387
 21
319.043
  0
LINE
  8
0
 10
182.387
 20
319.043
 11
181.139
 21
325.436
  0
LINE
  8
0
 10
181.139
 20
325.436
 11
179.853
 21
331.89
  0
LINE
  8
0
 10
179.853
 20
331.89
 11
178.536
 21
338.416
  0
LINE
  8
0
 10
178.536
 20
338.416
 11
175.831
 21
351.728
  0
LINE
  8
0
 10
175.831
 20
351.728
 11
174.453
 21
358.549
  0
LINE
  8
0
 10
174.453
 20
358.549
 11
173.07
 21
365.484
  0
LINE
  8
0
 10
173.07
 20
365.484
 11
171.669
 21
372.624
  0
LINE
  8
0
 10
171.669
 20
372.624
 11
169.83
 21
381.646
  0
LINE
  8
0
 10
169.83
 20
381.646
 11
169.805
 21
381.762
  0
LINE
  8
0
 10
169.805
 20
381.762
 11
167.898
 21
390.294
  0
LINE
  8
0
 10
167.898
 20
390.294
 11
165.966
 21
398.304
  0
LINE
  8
0
 10
165.966
 20
398.304
 11
164.028
 21
405.873
  0
LINE
  8
0
 10
164.028
 20
405.873
 11
162.112
 21
413.089
  0
LINE
  8
0
 10
162.112
 20
413.089
 11
160.241
 21
420.047
  0
LINE
  8
0
 10
160.241
 20
420.047
 11
158.444
 21
426.837
  0
LINE
  8
0
 10
158.444
 20
426.837
 11
156.756
 21
433.517
  0
LINE
  8
0
 10
156.756
 20
433.517
 11
155.204
 21
440.157
  0
LINE
  8
0
 10
155.204
 20
440.157
 11
153.816
 21
446.815
  0
LINE
  8
0
 10
153.816
 20
446.815
 11
152.617
 21
453.532
  0
LINE
  8
0
 10
152.617
 20
453.532
 11
151.628
 21
460.334
  0
LINE
  8
0
 10
151.628
 20
460.334
 11
150.87
 21
467.239
  0
LINE
  8
0
 10
150.87
 20
467.239
 11
150.359
 21
474.247
  0
LINE
  8
0
 10
150.359
 20
474.247
 11
150.11
 21
481.351
  0
LINE
  8
0
 10
150.11
 20
481.351
 11
150.134
 21
488.537
  0
LINE
  8
0
 10
150.134
 20
488.537
 11
150.444
 21
495.782
  0
LINE
  8
0
 10
150.444
 20
495.782
 11
151.046
 21
503.06
  0
LINE
  8
0
 10
151.046
 20
503.06
 11
151.947
 21
510.338
  0
LINE
  8
0
 10
151.947
 20
510.338
 11
153.178
 21
517.719
  0
LINE
  8
0
 10
153.178
 20
517.719
 11
153.194
 21
519.706
  0
LINE
  8
0
 10
153.194
 20
519.706
 11
152.595
 21
521.6
  0
LINE
  8
0
 10
152.595
 20
521.6
 11
151.441
 21
523.217
  0
LINE
  8
0
 10
151.441
 20
523.217
 11
149.843
 21
524.398
  0
LINE
  8
0
 10
149.843
 20
524.398
 11
148.093
 21
525.003
  0
LINE
  8
0
 10
148.093
 20
525.003
 11
97.7892
 21
534.502
  0
LINE
  8
0
 10
97.7892
 20
534.502
 11
95.8033
 21
534.561
  0
LINE
  8
0
 10
95.8033
 20
534.561
 11
93.8965
 21
534.003
  0
LINE
  8
0
 10
93.8965
 20
534.003
 11
92.2554
 21
532.883
  0
LINE
  8
0
 10
92.2554
 20
532.883
 11
91.0407
 21
531.311
  0
LINE
  8
0
 10
91.0407
 20
531.311
 11
90.3632
 21
529.398
  0
LINE
  8
0
 10
90.3632
 20
529.398
 11
88.3641
 21
518.39
  0
LINE
  8
0
 10
88.3641
 20
518.39
 11
86.6336
 21
507.98
  0
LINE
  8
0
 10
86.6336
 20
507.98
 11
85.1607
 21
498.127
  0
LINE
  8
0
 10
85.1607
 20
498.127
 11
83.9464
 21
488.901
  0
LINE
  8
0
 10
83.9464
 20
488.901
 11
83.9321
 21
488.783
  0
LINE
  8
0
 10
83.9321
 20
488.783
 11
82.9454
 21
480.024
  0
LINE
  8
0
 10
82.9454
 20
480.024
 11
82.9328
 21
479.901
  0
LINE
  8
0
 10
82.9328
 20
479.901
 11
82.1561
 21
471.551
  0
LINE
  8
0
 10
82.1561
 20
471.551
 11
82.1458
 21
471.427
  0
LINE
  8
0
 10
82.1458
 20
471.427
 11
81.56
 21
463.424
  0
LINE
  8
0
 10
81.56
 20
463.424
 11
81.542
 21
463.111
  0
LINE
  8
0
 10
81.542
 20
463.111
 11
81.4699
 21
463.416
  0
LINE
  8
0
 10
81.4699
 20
463.416
 11
79.5034
 21
471.196
  0
LINE
  8
0
 10
79.5034
 20
471.196
 11
79.4716
 21
471.317
  0
LINE
  8
0
 10
79.4716
 20
471.317
 11
77.2568
 21
479.405
  0
LINE
  8
0
 10
77.2568
 20
479.405
 11
77.223
 21
479.523
  0
LINE
  8
0
 10
77.223
 20
479.523
 11
74.7303
 21
487.978
  0
LINE
  8
0
 10
74.7303
 20
487.978
 11
74.6957
 21
488.092
  0
LINE
  8
0
 10
74.6957
 20
488.092
 11
71.8634
 21
497.073
  0
LINE
  8
0
 10
71.8634
 20
497.073
 11
68.7025
 21
506.513
  0
LINE
  8
0
 10
68.7025
 20
506.513
 11
65.1923
 21
516.455
  0
LINE
  8
0
 10
65.1923
 20
516.455
 11
61.3443
 21
526.859
  0
LINE
  8
0
 10
61.3443
 20
526.859
 11
60.3721
 21
528.591
  0
LINE
  8
0
 10
60.3721
 20
528.591
 11
58.9121
 21
529.939
  0
LINE
  8
0
 10
58.9121
 20
529.939
 11
57.1072
 21
530.769
  0
LINE
  8
0
 10
57.1072
 20
530.769
 11
55.134
 21
531.001
  0
LINE
  8
0
 10
55.134
 20
531.001
 11
53.1447
 21
530.596
  0
LINE
  8
0
 10
53.1447
 20
530.596
 11
5.25508
 21
512.507
  0
LINE
  8
0
 10
5.25508
 20
512.507
 11
3.52925
 21
511.522
  0
LINE
  8
0
 10
3.52925
 20
511.522
 11
2.19199
 21
510.053
  0
LINE
  8
0
 10
2.19199
 20
510.053
 11
1.37421
 21
508.243
  0
LINE
  8
0
 10
1.37421
 20
508.243
 11
1.15598
 21
506.268
  0
LINE
  8
0
 10
1.15598
 20
506.268
 11
1.51189
 21
504.45
  0
LINE
  8
0
 10
1.51189
 20
504.45
 11
4.00546
 21
497.395
  0
LINE
  8
0
 10
4.00546
 20
497.395
 11
6.15733
 21
490.384
  0
LINE
  8
0
 10
6.15733
 20
490.384
 11
8.0139
 21
483.321
  0
LINE
  8
0
 10
8.0139
 20
483.321
 11
9.57639
 21
476.24
  0
LINE
  8
0
 10
9.57639
 20
476.24
 11
10.8488
 21
469.167
  0
LINE
  8
0
 10
10.8488
 20
469.167
 11
11.8372
 21
462.128
  0
LINE
  8
0
 10
11.8372
 20
462.128
 11
12.5509
 21
455.137
  0
LINE
  8
0
 10
12.5509
 20
455.137
 11
13.0031
 21
448.206
  0
LINE
  8
0
 10
13.0031
 20
448.206
 11
13.2107
 21
441.336
  0
LINE
  8
0
 10
13.2107
 20
441.336
 11
13.1958
 21
434.513
  0
LINE
  8
0
 10
13.1958
 20
434.513
 11
12.9849
 21
427.715
  0
LINE
  8
0
 10
12.9849
 20
427.715
 11
12.61
 21
420.905
  0
LINE
  8
0
 10
12.61
 20
420.905
 11
12.1072
 21
414.034
  0
LINE
  8
0
 10
12.1072
 20
414.034
 11
11.5165
 21
407.035
  0
LINE
  8
0
 10
11.5165
 20
407.035
 11
10.8807
 21
399.839
  0
LINE
  8
0
 10
10.8807
 20
399.839
 11
10.2433
 21
392.362
  0
LINE
  8
0
 10
10.2433
 20
392.362
 11
9.64862
 21
384.541
  0
LINE
  8
0
 10
9.64862
 20
384.541
 11
9.13644
 21
376.297
  0
LINE
  8
0
 10
9.13644
 20
376.297
 11
8.74612
 21
367.671
  0
LINE
  8
0
 10
8.74612
 20
367.671
 11
8.74188
 21
367.553
  0
LINE
  8
0
 10
8.74188
 20
367.553
 11
8.49599
 21
358.301
  0
LINE
  8
0
 10
8.49599
 20
358.301
 11
8.35776
 21
351.073
  0
LINE
  8
0
 10
8.35776
 20
351.073
 11
8.19928
 21
344.004
  0
LINE
  8
0
 10
8.19928
 20
344.004
 11
8.02721
 21
337.047
  0
LINE
  8
0
 10
8.02721
 20
337.047
 11
7.67468
 21
323.459
  0
LINE
  8
0
 10
7.67468
 20
323.459
 11
7.51016
 21
316.796
  0
LINE
  8
0
 10
7.51016
 20
316.796
 11
7.36449
 21
310.208
  0
LINE
  8
0
 10
7.36449
 20
310.208
 11
7.24579
 21
303.687
  0
LINE
  8
0
 10
7.24579
 20
303.687
 11
7.16199
 21
297.226
  0
LINE
  8
0
 10
7.16199
 20
297.226
 11
7.12085
 21
290.818
  0
LINE
  8
0
 10
7.12085
 20
290.818
 11
7.12978
 21
284.46
  0
LINE
  8
0
 10
7.12978
 20
284.46
 11
7.19601
 21
278.147
  0
LINE
  8
0
 10
7.19601
 20
278.147
 11
7.32637
 21
271.877
  0
LINE
  8
0
 10
7.32637
 20
271.877
 11
7.52747
 21
265.65
  0
LINE
  8
0
 10
7.52747
 20
265.65
 11
7.8056
 21
259.465
  0
LINE
  8
0
 10
7.8056
 20
259.465
 11
8.16684
 21
253.324
  0
LINE
  8
0
 10
8.16684
 20
253.324
 11
8.60876
 21
247.329
  0
LINE
  8
0
 10
8.60876
 20
247.329
 11
9.16211
 21
241.178
  0
LINE
  8
0
 10
9.16211
 20
241.178
 11
9.79384
 21
235.296
  0
LINE
  8
0
 10
9.79384
 20
235.296
 11
9.80748
 21
235.179
  0
LINE
  8
0
 10
9.80748
 20
235.179
 11
10.5418
 21
229.36
  0
LINE
  8
0
 10
10.5418
 20
229.36
 11
10.5865
 21
229.206
  0
LINE
  8
0
 10
10.5865
 20
229.206
 11
10.5646
 21
229.202
  0
LINE
  8
0
 10
10.5646
 20
229.202
 11
11.8677
 21
220.612
  0
LINE
  8
0
 10
11.8677
 20
220.612
 11
11.9023
 21
220.406
  0
LINE
  8
0
 10
11.9023
 20
220.406
 11
13.4653
 21
211.977
  0
LINE
  8
0
 10
13.4653
 20
211.977
 11
13.5113
 21
211.752
  0
LINE
  8
0
 10
13.5113
 20
211.752
 11
15.349
 21
203.516
  0
LINE
  8
0
 10
15.349
 20
203.516
 11
15.4093
 21
203.269
  0
LINE
  8
0
 10
15.4093
 20
203.269
 11
17.5381
 21
195.251
  0
LINE
  8
0
 10
17.5381
 20
195.251
 11
17.6161
 21
194.982
  0
LINE
  8
0
 10
17.6161
 20
194.982
 11
20.0522
 21
187.209
  0
LINE
  8
0
 10
20.0522
 20
187.209
 11
20.1523
 21
186.915
  0
LINE
  8
0
 10
20.1523
 20
186.915
 11
22.9122
 21
179.415
  0
LINE
  8
0
 10
22.9122
 20
179.415
 11
23.0397
 21
179.096
  0
LINE
  8
0
 10
23.0397
 20
179.096
 11
26.1395
 21
171.901
  0
LINE
  8
0
 10
26.1395
 20
171.901
 11
26.3007
 21
171.556
  0
LINE
  8
0
 10
26.3007
 20
171.556
 11
29.7571
 21
164.697
  0
LINE
  8
0
 10
29.7571
 20
164.697
 11
29.959
 21
164.327
  0
LINE
  8
0
 10
29.959
 20
164.327
 11
33.7887
 21
157.838
  0
LINE
  8
0
 10
33.7887
 20
157.838
 11
34.0392
 21
157.447
  0
LINE
  8
0
 10
34.0392
 20
157.447
 11
38.2587
 21
151.362
  0
LINE
  8
0
 10
38.2587
 20
151.362
 11
38.5655
 21
150.956
  0
LINE
  8
0
 10
38.5655
 20
150.956
 11
43.1919
 21
145.31
  0
LINE
  8
0
 10
43.1919
 20
145.31
 11
43.5612
 21
144.898
  0
LINE
  8
0
 10
43.5612
 20
144.898
 11
48.6116
 21
139.729
  0
LINE
  8
0
 10
48.6116
 20
139.729
 11
49.047
 21
139.323
  0
LINE
  8
0
 10
49.047
 20
139.323
 11
54.5384
 21
134.667
  0
LINE
  8
0
 10
54.5384
 20
134.667
 11
55.0387
 21
134.283
  0
LINE
  8
0
 10
55.0387
 20
134.283
 11
60.9885
 21
130.178
  0
LINE
  8
0
 10
60.9885
 20
130.178
 11
61.5464
 21
129.834
  0
LINE
  8
0
 10
61.5464
 20
129.834
 11
67.9721
 21
126.317
  0
LINE
  8
0
 10
67.9721
 20
126.317
 11
68.5737
 21
126.028
  0
LINE
  8
0
 10
68.5737
 20
126.028
 11
75.4927
 21
123.139
  0
LINE
  8
0
 10
75.4927
 20
123.139
 11
76.1191
 21
122.915
  0
LINE
  8
0
 10
76.1191
 20
122.915
 11
83.5491
 21
120.692
  0
LINE
  8
0
 10
83.5491
 20
120.692
 11
84.1788
 21
120.538
  0
LINE
  8
0
 10
84.1788
 20
120.538
 11
92.1379
 21
119.018
  0
LINE
  8
0
 10
92.1379
 20
119.018
 11
92.7502
 21
118.932
  0
LINE
  8
0
 10
92.7502
 20
118.932
 11
101.257
 21
118.154
  0
LINE
  8
0
 10
101.257
 20
118.154
 11
101.834
 21
118.128
  0
LINE
  8
0
 10
101.834
 20
118.128
 11
110.908
 21
118.126
  0
LINE
  8
0
 10
110.908
 20
118.126
 11
111.821
 21
118.271
  0
LINE
  8
0
 10
101.835
 20
124.478
 11
93.3286
 21
125.256
  0
LINE
  8
0
 10
93.3286
 20
125.256
 11
85.3695
 21
126.775
  0
LINE
  8
0
 10
85.3695
 20
126.775
 11
77.9395
 21
128.999
  0
LINE
  8
0
 10
77.9395
 20
128.999
 11
71.0206
 21
131.888
  0
LINE
  8
0
 10
71.0206
 20
131.888
 11
64.595
 21
135.404
  0
LINE
  8
0
 10
64.595
 20
135.404
 11
58.6451
 21
139.51
  0
LINE
  8
0
 10
58.6451
 20
139.51
 11
53.1537
 21
144.166
  0
LINE
  8
0
 10
53.1537
 20
144.166
 11
48.1033
 21
149.335
  0
LINE
  8
0
 10
48.1033
 20
149.335
 11
43.4769
 21
154.981
  0
LINE
  8
0
 10
43.4769
 20
154.981
 11
39.2573
 21
161.066
  0
LINE
  8
0
 10
39.2573
 20
161.066
 11
35.4277
 21
167.555
  0
LINE
  8
0
 10
35.4277
 20
167.555
 11
31.9713
 21
174.413
  0
LINE
  8
0
 10
31.9713
 20
174.413
 11
28.8714
 21
181.608
  0
LINE
  8
0
 10
28.8714
 20
181.608
 11
26.1116
 21
189.108
  0
LINE
  8
0
 10
26.1116
 20
189.108
 11
23.6754
 21
196.881
  0
LINE
  8
0
 10
23.6754
 20
196.881
 11
21.5466
 21
204.899
  0
LINE
  8
0
 10
21.5466
 20
204.899
 11
19.7088
 21
213.135
  0
LINE
  8
0
 10
19.7088
 20
213.135
 11
18.1459
 21
221.564
  0
LINE
  8
0
 10
18.1459
 20
221.564
 11
16.8428
 21
230.155
  0
LINE
  8
0
 10
16.8428
 20
230.155
 11
16.8418
 21
230.155
  0
LINE
  8
0
 10
16.8418
 20
230.155
 11
16.1075
 21
235.974
  0
LINE
  8
0
 10
16.1075
 20
235.974
 11
15.4758
 21
241.856
  0
LINE
  8
0
 10
15.4758
 20
241.856
 11
14.9416
 21
247.796
  0
LINE
  8
0
 10
14.9416
 20
247.796
 11
14.4997
 21
253.791
  0
LINE
  8
0
 10
14.4997
 20
253.791
 11
14.1447
 21
259.838
  0
LINE
  8
0
 10
14.1447
 20
259.838
 11
13.8711
 21
265.935
  0
LINE
  8
0
 10
13.8711
 20
265.935
 11
13.6731
 21
272.082
  0
LINE
  8
0
 10
13.6731
 20
272.082
 11
13.5447
 21
278.278
  0
LINE
  8
0
 10
13.5447
 20
278.278
 11
13.4794
 21
284.526
  0
LINE
  8
0
 10
13.4794
 20
284.526
 11
13.4708
 21
290.827
  0
LINE
  8
0
 10
13.4708
 20
290.827
 11
13.5119
 21
297.185
  0
LINE
  8
0
 10
13.5119
 20
297.185
 11
13.5952
 21
303.605
  0
LINE
  8
0
 10
13.5952
 20
303.605
 11
13.7134
 21
310.093
  0
LINE
  8
0
 10
13.7134
 20
310.093
 11
13.8586
 21
316.656
  0
LINE
  8
0
 10
13.8586
 20
316.656
 11
14.0227
 21
323.303
  0
LINE
  8
0
 10
14.0227
 20
323.303
 11
14.3752
 21
336.889
  0
LINE
  8
0
 10
14.3752
 20
336.889
 11
14.5474
 21
343.851
  0
LINE
  8
0
 10
14.5474
 20
343.851
 11
14.7064
 21
350.943
  0
LINE
  8
0
 10
14.7064
 20
350.943
 11
14.8448
 21
358.18
  0
LINE
  8
0
 10
14.8448
 20
358.18
 11
15.0896
 21
367.384
  0
LINE
  8
0
 10
15.0896
 20
367.384
 11
15.4799
 21
376.01
  0
LINE
  8
0
 10
15.4799
 20
376.01
 11
15.9864
 21
384.146
  0
LINE
  8
0
 10
15.9864
 20
384.146
 11
16.575
 21
391.88
  0
LINE
  8
0
 10
16.575
 20
391.88
 11
17.2077
 21
399.3
  0
LINE
  8
0
 10
17.2077
 20
399.3
 11
17.8432
 21
406.491
  0
LINE
  8
0
 10
17.8432
 20
406.491
 11
18.4377
 21
413.535
  0
LINE
  8
0
 10
18.4377
 20
413.535
 11
18.9473
 21
420.499
  0
LINE
  8
0
 10
18.9473
 20
420.499
 11
19.3295
 21
427.442
  0
LINE
  8
0
 10
19.3295
 20
427.442
 11
19.5455
 21
434.407
  0
LINE
  8
0
 10
19.5455
 20
434.407
 11
19.5609
 21
441.424
  0
LINE
  8
0
 10
19.5609
 20
441.424
 11
19.3468
 21
448.509
  0
LINE
  8
0
 10
19.3468
 20
448.509
 11
18.8799
 21
455.666
  0
LINE
  8
0
 10
18.8799
 20
455.666
 11
18.1422
 21
462.892
  0
LINE
  8
0
 10
18.1422
 20
462.892
 11
17.1201
 21
470.172
  0
LINE
  8
0
 10
17.1201
 20
470.172
 11
15.8041
 21
477.487
  0
LINE
  8
0
 10
15.8041
 20
477.487
 11
14.1874
 21
484.814
  0
LINE
  8
0
 10
14.1874
 20
484.814
 11
12.2658
 21
492.124
  0
LINE
  8
0
 10
12.2658
 20
492.124
 11
10.0368
 21
499.386
  0
LINE
  8
0
 10
10.0368
 20
499.386
 11
7.49896
 21
506.566
  0
LINE
  8
0
 10
7.49896
 20
506.566
 11
55.3886
 21
524.656
  0
LINE
  8
0
 10
55.3886
 20
524.656
 11
59.2366
 21
514.252
  0
LINE
  8
0
 10
59.2366
 20
514.252
 11
62.7147
 21
504.399
  0
LINE
  8
0
 10
62.7147
 20
504.399
 11
65.8418
 21
495.057
  0
LINE
  8
0
 10
65.8418
 20
495.057
 11
68.6395
 21
486.183
  0
LINE
  8
0
 10
68.6395
 20
486.183
 11
71.1322
 21
477.728
  0
LINE
  8
0
 10
71.1322
 20
477.728
 11
73.347
 21
469.64
  0
LINE
  8
0
 10
73.347
 20
469.64
 11
75.3136
 21
461.86
  0
LINE
  8
0
 10
75.3136
 20
461.86
 11
77.0638
 21
454.327
  0
LINE
  8
0
 10
77.0638
 20
454.327
 11
78.6309
 21
446.973
  0
LINE
  8
0
 10
78.6309
 20
446.973
 11
80.0489
 21
439.728
  0
LINE
  8
0
 10
80.0489
 20
439.728
 11
81.3506
 21
432.524
  0
LINE
  8
0
 10
81.3506
 20
432.524
 11
82.5669
 21
425.291
  0
LINE
  8
0
 10
82.5669
 20
425.291
 11
83.7251
 21
417.965
  0
LINE
  8
0
 10
83.7251
 20
417.965
 11
84.8482
 21
410.485
  0
LINE
  8
0
 10
84.8482
 20
410.485
 11
85.9543
 21
402.799
  0
LINE
  8
0
 10
85.9543
 20
402.799
 11
87.0569
 21
394.861
  0
LINE
  8
0
 10
87.0569
 20
394.861
 11
88.1654
 21
386.633
  0
LINE
  8
0
 10
88.1654
 20
386.633
 11
88.3688
 21
385.081
  0
LINE
  8
0
 10
88.3688
 20
385.081
 11
88.2995
 21
386.645
  0
LINE
  8
0
 10
88.2995
 20
386.645
 11
87.9624
 21
394.941
  0
LINE
  8
0
 10
87.9624
 20
394.941
 11
87.6698
 21
402.949
  0
LINE
  8
0
 10
87.6698
 20
402.949
 11
87.4245
 21
410.71
  0
LINE
  8
0
 10
87.4245
 20
410.71
 11
87.2316
 21
418.272
  0
LINE
  8
0
 10
87.2316
 20
418.272
 11
87.1
 21
425.688
  0
LINE
  8
0
 10
87.1
 20
425.688
 11
87.0419
 21
433.022
  0
LINE
  8
0
 10
87.0419
 20
433.022
 11
87.0728
 21
440.343
  0
LINE
  8
0
 10
87.0728
 20
440.343
 11
87.2113
 21
447.723
  0
LINE
  8
0
 10
87.2113
 20
447.723
 11
87.4776
 21
455.238
  0
LINE
  8
0
 10
87.4776
 20
455.238
 11
87.893
 21
462.961
  0
LINE
  8
0
 10
87.893
 20
462.961
 11
88.4788
 21
470.963
  0
LINE
  8
0
 10
88.4788
 20
470.963
 11
89.2555
 21
479.313
  0
LINE
  8
0
 10
89.2555
 20
479.313
 11
90.2421
 21
488.073
  0
LINE
  8
0
 10
90.2421
 20
488.073
 11
91.4564
 21
497.298
  0
LINE
  8
0
 10
91.4564
 20
497.298
 11
92.9138
 21
507.041
  0
LINE
  8
0
 10
92.9138
 20
507.041
 11
94.628
 21
517.348
  0
LINE
  8
0
 10
94.628
 20
517.348
 11
96.6109
 21
528.262
  0
LINE
  8
0
 10
96.6109
 20
528.262
 11
146.914
 21
518.764
  0
LINE
  8
0
 10
146.914
 20
518.764
 11
145.662
 21
511.251
  0
LINE
  8
0
 10
145.662
 20
511.251
 11
144.728
 21
503.712
  0
LINE
  8
0
 10
144.728
 20
503.712
 11
144.105
 21
496.18
  0
LINE
  8
0
 10
144.105
 20
496.18
 11
143.785
 21
488.684
  0
LINE
  8
0
 10
143.785
 20
488.684
 11
143.759
 21
481.251
  0
LINE
  8
0
 10
143.759
 20
481.251
 11
144.017
 21
473.904
  0
LINE
  8
0
 10
144.017
 20
473.904
 11
144.545
 21
466.661
  0
LINE
  8
0
 10
144.545
 20
466.661
 11
145.328
 21
459.531
  0
LINE
  8
0
 10
145.328
 20
459.531
 11
146.347
 21
452.516
  0
LINE
  8
0
 10
146.347
 20
452.516
 11
147.581
 21
445.609
  0
LINE
  8
0
 10
147.581
 20
445.609
 11
149.003
 21
438.787
  0
LINE
  8
0
 10
149.003
 20
438.787
 11
150.585
 21
432.016
  0
LINE
  8
0
 10
150.585
 20
432.016
 11
152.297
 21
425.246
  0
LINE
  8
0
 10
152.297
 20
425.246
 11
154.105
 21
418.413
  0
LINE
  8
0
 10
154.105
 20
418.413
 11
155.98
 21
411.441
  0
LINE
  8
0
 10
155.98
 20
411.441
 11
157.891
 21
404.243
  0
LINE
  8
0
 10
157.891
 20
404.243
 11
159.814
 21
396.729
  0
LINE
  8
0
 10
159.814
 20
396.729
 11
161.725
 21
388.805
  0
LINE
  8
0
 10
161.725
 20
388.805
 11
163.608
 21
380.377
  0
LINE
  8
0
 10
163.608
 20
380.377
 11
165.447
 21
371.356
  0
LINE
  8
0
 10
165.447
 20
371.356
 11
166.84
 21
364.253
  0
LINE
  8
0
 10
166.84
 20
364.253
 11
168.228
 21
357.296
  0
LINE
  8
0
 10
168.228
 20
357.296
 11
169.607
 21
350.47
  0
LINE
  8
0
 10
169.607
 20
350.47
 11
172.313
 21
337.151
  0
LINE
  8
0
 10
172.313
 20
337.151
 11
173.629
 21
330.634
  0
LINE
  8
0
 10
173.629
 20
330.634
 11
174.911
 21
324.196
  0
LINE
  8
0
 10
174.911
 20
324.196
 11
176.154
 21
317.827
  0
LINE
  8
0
 10
176.154
 20
317.827
 11
177.351
 21
311.519
  0
LINE
  8
0
 10
177.351
 20
311.519
 11
178.496
 21
305.265
  0
LINE
  8
0
 10
178.496
 20
305.265
 11
179.582
 21
299.058
  0
LINE
  8
0
 10
179.582
 20
299.058
 11
180.602
 21
292.894
  0
LINE
  8
0
 10
180.602
 20
292.894
 11
181.552
 21
286.769
  0
LINE
  8
0
 10
181.552
 20
286.769
 11
182.424
 21
280.681
  0
LINE
  8
0
 10
182.424
 20
280.681
 11
183.214
 21
274.629
  0
LINE
  8
0
 10
183.214
 20
274.629
 11
183.914
 21
268.612
  0
LINE
  8
0
 10
183.914
 20
268.612
 11
184.52
 21
262.632
  0
LINE
  8
0
 10
184.52
 20
262.632
 11
185.025
 21
256.689
  0
LINE
  8
0
 10
185.025
 20
256.689
 11
185.424
 21
250.787
  0
LINE
  8
0
 10
185.424
 20
250.787
 11
185.711
 21
244.929
  0
LINE
  8
0
 10
185.711
 20
244.929
 11
185.919
 21
236.242
  0
LINE
  8
0
 10
185.919
 20
236.242
 11
185.844
 21
227.67
  0
LINE
  8
0
 10
185.844
 20
227.67
 11
185.464
 21
219.24
  0
LINE
  8
0
 10
185.464
 20
219.24
 11
184.76
 21
210.974
  0
LINE
  8
0
 10
184.76
 20
210.974
 11
183.71
 21
202.896
  0
LINE
  8
0
 10
183.71
 20
202.896
 11
182.295
 21
195.031
  0
LINE
  8
0
 10
182.295
 20
195.031
 11
180.491
 21
187.407
  0
LINE
  8
0
 10
180.491
 20
187.407
 11
178.279
 21
180.052
  0
LINE
  8
0
 10
178.279
 20
180.052
 11
175.634
 21
172.997
  0
LINE
  8
0
 10
175.634
 20
172.997
 11
172.535
 21
166.272
  0
LINE
  8
0
 10
172.535
 20
166.272
 11
168.959
 21
159.909
  0
LINE
  8
0
 10
168.959
 20
159.909
 11
164.883
 21
153.941
  0
LINE
  8
0
 10
164.883
 20
153.941
 11
160.284
 21
148.402
  0
LINE
  8
0
 10
160.284
 20
148.402
 11
155.137
 21
143.326
  0
LINE
  8
0
 10
155.137
 20
143.326
 11
149.42
 21
138.747
  0
LINE
  8
0
 10
149.42
 20
138.747
 11
143.108
 21
134.7
  0
LINE
  8
0
 10
143.108
 20
134.7
 11
136.177
 21
131.22
  0
LINE
  8
0
 10
136.177
 20
131.22
 11
128.602
 21
128.342
  0
LINE
  8
0
 10
128.602
 20
128.342
 11
120.36
 21
126.098
  0
LINE
  8
0
 10
120.36
 20
126.098
 11
111.425
 21
124.522
  0
LINE
  8
0
 10
111.425
 20
124.522
 11
110.911
 21
128.395
  0
LINE
  8
0
 10
110.911
 20
128.395
 11
110.655
 21
130.351
  0
LINE
  8
0
 10
110.655
 20
130.351
 11
110.742
 21
128.38
  0
LINE
  8
0
 10
110.742
 20
128.38
 11
110.909
 21
124.476
  0
LINE
  8
0
 10
110.909
 20
124.476
 11
101.835
 21
124.478
  0
LINE
  8
0
 10
94.0676
 20
16.2873
 11
101.365
 21
16.4456
  0
LINE
  8
0
 10
101.365
 20
16.4456
 11
101.539
 21
16.4518
  0
LINE
  8
0
 10
101.539
 20
16.4518
 11
108.935
 21
16.816
  0
LINE
  8
0
 10
108.935
 20
16.816
 11
109.073
 21
16.8242
  0
LINE
  8
0
 10
109.073
 20
16.8242
 11
116.589
 21
17.3581
  0
LINE
  8
0
 10
116.589
 20
17.3581
 11
116.708
 21
17.3677
  0
LINE
  8
0
 10
116.708
 20
17.3677
 11
124.358
 21
18.0568
  0
LINE
  8
0
 10
124.358
 20
18.0568
 11
124.477
 21
18.0687
  0
LINE
  8
0
 10
124.477
 20
18.0687
 11
132.265
 21
18.9185
  0
LINE
  8
0
 10
132.265
 20
18.9185
 11
132.395
 21
18.934
  0
LINE
  8
0
 10
132.395
 20
18.934
 11
140.319
 21
19.9645
  0
LINE
  8
0
 10
140.319
 20
19.9645
 11
140.467
 21
19.9855
  0
LINE
  8
0
 10
140.467
 20
19.9855
 11
148.518
 21
21.2253
  0
LINE
  8
0
 10
148.518
 20
21.2253
 11
148.685
 21
21.2533
  0
LINE
  8
0
 10
148.685
 20
21.2533
 11
156.848
 21
22.7343
  0
LINE
  8
0
 10
156.848
 20
22.7343
 11
157.034
 21
22.771
  0
LINE
  8
0
 10
157.034
 20
22.771
 11
165.288
 21
24.5251
  0
LINE
  8
0
 10
165.288
 20
24.5251
 11
165.493
 21
24.572
  0
LINE
  8
0
 10
165.493
 20
24.572
 11
173.815
 21
26.6299
  0
LINE
  8
0
 10
173.815
 20
26.6299
 11
174.036
 21
26.6887
  0
LINE
  8
0
 10
174.036
 20
26.6887
 11
182.4
 21
29.079
  0
LINE
  8
0
 10
182.4
 20
29.079
 11
182.598
 21
29.1583
  0
LINE
  8
0
 10
182.598
 20
29.1583
 11
182.603
 21
29.1425
  0
LINE
  8
0
 10
182.603
 20
29.1425
 11
188.176
 21
30.9397
  0
LINE
  8
0
 10
188.176
 20
30.9397
 11
188.345
 21
30.9966
  0
LINE
  8
0
 10
188.345
 20
30.9966
 11
193.922
 21
32.9693
  0
LINE
  8
0
 10
193.922
 20
32.9693
 11
194.095
 21
33.0336
  0
LINE
  8
0
 10
194.095
 20
33.0336
 11
199.658
 21
35.1854
  0
LINE
  8
0
 10
199.658
 20
35.1854
 11
199.836
 21
35.2576
  0
LINE
  8
0
 10
199.836
 20
35.2576
 11
205.374
 21
37.5955
  0
LINE
  8
0
 10
205.374
 20
37.5955
 11
205.557
 21
37.6763
  0
LINE
  8
0
 10
205.557
 20
37.6763
 11
211.061
 21
40.2072
  0
LINE
  8
0
 10
211.061
 20
40.2072
 11
211.249
 21
40.2973
  0
LINE
  8
0
 10
211.249
 20
40.2973
 11
216.707
 21
43.0279
  0
LINE
  8
0
 10
216.707
 20
43.0279
 11
216.899
 21
43.128
  0
LINE
  8
0
 10
216.899
 20
43.128
 11
222.302
 21
46.0654
  0
LINE
  8
0
 10
222.302
 20
46.0654
 11
222.498
 21
46.1761
  0
LINE
  8
0
 10
222.498
 20
46.1761
 11
227.835
 21
49.3271
  0
LINE
  8
0
 10
227.835
 20
49.3271
 11
228.033
 21
49.4492
  0
LINE
  8
0
 10
228.033
 20
49.4492
 11
233.293
 21
52.8206
  0
LINE
  8
0
 10
233.293
 20
52.8206
 11
233.494
 21
52.9544
  0
LINE
  8
0
 10
233.494
 20
52.9544
 11
238.666
 21
56.5533
  0
LINE
  8
0
 10
238.666
 20
56.5533
 11
238.867
 21
56.6993
  0
LINE
  8
0
 10
238.867
 20
56.6993
 11
243.94
 21
60.5324
  0
LINE
  8
0
 10
243.94
 20
60.5324
 11
244.141
 21
60.691
  0
LINE
  8
0
 10
244.141
 20
60.691
 11
249.103
 21
64.7652
  0
LINE
  8
0
 10
249.103
 20
64.7652
 11
249.303
 21
64.9365
  0
LINE
  8
0
 10
249.303
 20
64.9365
 11
254.143
 21
69.2585
  0
LINE
  8
0
 10
254.143
 20
69.2585
 11
254.341
 21
69.4426
  0
LINE
  8
0
 10
254.341
 20
69.4426
 11
259.047
 21
74.0193
  0
LINE
  8
0
 10
259.047
 20
74.0193
 11
259.241
 21
74.2159
  0
LINE
  8
0
 10
259.241
 20
74.2159
 11
263.802
 21
79.0541
  0
LINE
  8
0
 10
263.802
 20
79.0541
 11
263.99
 21
79.2628
  0
LINE
  8
0
 10
263.99
 20
79.2628
 11
268.393
 21
84.3692
  0
LINE
  8
0
 10
268.393
 20
84.3692
 11
268.575
 21
84.5893
  0
LINE
  8
0
 10
268.575
 20
84.5893
 11
272.81
 21
89.9706
  0
LINE
  8
0
 10
272.81
 20
89.9706
 11
272.983
 21
90.2014
  0
LINE
  8
0
 10
272.983
 20
90.2014
 11
277.037
 21
95.8644
  0
LINE
  8
0
 10
277.037
 20
95.8644
 11
277.2
 21
96.1046
  0
LINE
  8
0
 10
277.2
 20
96.1046
 11
281.061
 21
102.056
  0
LINE
  8
0
 10
281.061
 20
102.056
 11
281.214
 21
102.304
  0
LINE
  8
0
 10
281.214
 20
102.304
 11
284.868
 21
108.546
  0
LINE
  8
0
 10
284.868
 20
108.546
 11
284.833
 21
108.567
  0
LINE
  8
0
 10
284.833
 20
108.567
 11
285.065
 21
108.888
  0
LINE
  8
0
 10
285.065
 20
108.888
 11
289.216
 21
117.106
  0
LINE
  8
0
 10
289.216
 20
117.106
 11
289.436
 21
117.592
  0
LINE
  8
0
 10
289.436
 20
117.592
 11
292.669
 21
125.599
  0
LINE
  8
0
 10
292.669
 20
125.599
 11
292.859
 21
126.138
  0
LINE
  8
0
 10
292.859
 20
126.138
 11
295.218
 21
133.941
  0
LINE
  8
0
 10
295.218
 20
133.941
 11
295.365
 21
134.525
  0
LINE
  8
0
 10
295.365
 20
134.525
 11
296.897
 21
142.129
  0
LINE
  8
0
 10
296.897
 20
142.129
 11
296.99
 21
142.746
  0
LINE
  8
0
 10
296.99
 20
142.746
 11
297.736
 21
150.155
  0
LINE
  8
0
 10
297.736
 20
150.155
 11
297.768
 21
150.787
  0
LINE
  8
0
 10
297.768
 20
150.787
 11
297.774
 21
158.007
  0
LINE
  8
0
 10
297.774
 20
158.007
 11
297.744
 21
158.634
  0
LINE
  8
0
 10
297.744
 20
158.634
 11
297.051
 21
165.668
  0
LINE
  8
0
 10
297.051
 20
165.668
 11
296.961
 21
166.273
  0
LINE
  8
0
 10
296.961
 20
166.273
 11
295.612
 21
173.124
  0
LINE
  8
0
 10
295.612
 20
173.124
 11
295.472
 21
173.692
  0
LINE
  8
0
 10
295.472
 20
173.692
 11
293.507
 21
180.362
  0
LINE
  8
0
 10
293.507
 20
180.362
 11
293.328
 21
180.883
  0
LINE
  8
0
 10
293.328
 20
180.883
 11
290.787
 21
187.371
  0
LINE
  8
0
 10
290.787
 20
187.371
 11
290.58
 21
187.841
  0
LINE
  8
0
 10
290.58
 20
187.841
 11
287.502
 21
194.147
  0
LINE
  8
0
 10
287.502
 20
194.147
 11
287.277
 21
194.566
  0
LINE
  8
0
 10
287.277
 20
194.566
 11
283.7
 21
200.685
  0
LINE
  8
0
 10
283.7
 20
200.685
 11
283.465
 21
201.056
  0
LINE
  8
0
 10
283.465
 20
201.056
 11
279.426
 21
206.983
  0
LINE
  8
0
 10
279.426
 20
206.983
 11
279.187
 21
207.311
  0
LINE
  8
0
 10
279.187
 20
207.311
 11
274.721
 21
213.039
  0
LINE
  8
0
 10
274.721
 20
213.039
 11
274.48
 21
213.33
  0
LINE
  8
0
 10
274.48
 20
213.33
 11
269.624
 21
218.849
  0
LINE
  8
0
 10
269.624
 20
218.849
 11
269.383
 21
219.108
  0
LINE
  8
0
 10
269.383
 20
219.108
 11
264.169
 21
224.405
  0
LINE
  8
0
 10
264.169
 20
224.405
 11
263.928
 21
224.638
  0
LINE
  8
0
 10
263.928
 20
224.638
 11
258.39
 21
229.7
  0
LINE
  8
0
 10
258.39
 20
229.7
 11
258.147
 21
229.911
  0
LINE
  8
0
 10
258.147
 20
229.911
 11
252.318
 21
234.722
  0
LINE
  8
0
 10
252.318
 20
234.722
 11
252.071
 21
234.915
  0
LINE
  8
0
 10
252.071
 20
234.915
 11
245.981
 21
239.456
  0
LINE
  8
0
 10
245.981
 20
239.456
 11
245.729
 21
239.634
  0
LINE
  8
0
 10
245.729
 20
239.634
 11
239.408
 21
243.884
  0
LINE
  8
0
 10
239.408
 20
243.884
 11
237.457
 21
244.761
  0
LINE
  8
0
 10
237.457
 20
244.761
 11
235.48
 21
244.952
  0
LINE
  8
0
 10
235.48
 20
244.952
 11
233.54
 21
244.523
  0
LINE
  8
0
 10
233.54
 20
244.523
 11
231.828
 21
243.515
  0
LINE
  8
0
 10
231.828
 20
243.515
 11
230.511
 21
242.028
  0
LINE
  8
0
 10
230.511
 20
242.028
 11
228.117
 21
238.273
  0
LINE
  8
0
 10
228.117
 20
238.273
 11
225.723
 21
234.509
  0
LINE
  8
0
 10
225.723
 20
234.509
 11
223.324
 21
230.719
  0
LINE
  8
0
 10
223.324
 20
230.719
 11
220.915
 21
226.886
  0
LINE
  8
0
 10
220.915
 20
226.886
 11
218.491
 21
222.997
  0
LINE
  8
0
 10
218.491
 20
222.997
 11
216.049
 21
219.036
  0
LINE
  8
0
 10
216.049
 20
219.036
 11
213.582
 21
214.991
  0
LINE
  8
0
 10
213.582
 20
214.991
 11
211.085
 21
210.848
  0
LINE
  8
0
 10
211.085
 20
210.848
 11
208.555
 21
206.595
  0
LINE
  8
0
 10
208.555
 20
206.595
 11
205.985
 21
202.223
  0
LINE
  8
0
 10
205.985
 20
202.223
 11
203.371
 21
197.719
  0
LINE
  8
0
 10
203.371
 20
197.719
 11
200.707
 21
193.076
  0
LINE
  8
0
 10
200.707
 20
193.076
 11
197.988
 21
188.284
  0
LINE
  8
0
 10
197.988
 20
188.284
 11
195.21
 21
183.335
  0
LINE
  8
0
 10
195.21
 20
183.335
 11
192.367
 21
178.222
  0
LINE
  8
0
 10
192.367
 20
178.222
 11
189.455
 21
172.939
  0
LINE
  8
0
 10
189.455
 20
172.939
 11
186.467
 21
167.48
  0
LINE
  8
0
 10
186.467
 20
167.48
 11
183.4
 21
161.84
  0
LINE
  8
0
 10
183.4
 20
161.84
 11
180.246
 21
156.015
  0
LINE
  8
0
 10
180.246
 20
156.015
 11
177.032
 21
150.056
  0
LINE
  8
0
 10
177.032
 20
150.056
 11
176.996
 21
150.009
  0
LINE
  8
0
 10
176.996
 20
150.009
 11
175.409
 21
147.069
  0
LINE
  8
0
 10
175.409
 20
147.069
 11
173.831
 21
144.16
  0
LINE
  8
0
 10
173.831
 20
144.16
 11
173.042
 21
142.712
  0
LINE
  8
0
 10
173.042
 20
142.712
 11
172.253
 21
141.268
  0
LINE
  8
0
 10
172.253
 20
141.268
 11
171.468
 21
139.84
  0
LINE
  8
0
 10
171.468
 20
139.84
 11
170.678
 21
138.406
  0
LINE
  8
0
 10
170.678
 20
138.406
 11
169.893
 21
136.989
  0
LINE
  8
0
 10
169.893
 20
136.989
 11
169.107
 21
135.577
  0
LINE
  8
0
 10
169.107
 20
135.577
 11
168.32
 21
134.173
  0
LINE
  8
0
 10
168.32
 20
134.173
 11
167.535
 21
132.78
  0
LINE
  8
0
 10
167.535
 20
132.78
 11
166.745
 21
131.39
  0
LINE
  8
0
 10
166.745
 20
131.39
 11
165.958
 21
130.016
  0
LINE
  8
0
 10
165.958
 20
130.016
 11
165.17
 21
128.651
  0
LINE
  8
0
 10
165.17
 20
128.651
 11
164.378
 21
127.295
  0
LINE
  8
0
 10
164.378
 20
127.295
 11
163.587
 21
125.955
  0
LINE
  8
0
 10
163.587
 20
125.955
 11
162.793
 21
124.624
  0
LINE
  8
0
 10
162.793
 20
124.624
 11
161.996
 21
123.309
  0
LINE
  8
0
 10
161.996
 20
123.309
 11
161.184
 21
121.99
  0
LINE
  8
0
 10
161.184
 20
121.99
 11
161.174
 21
121.961
  0
LINE
  8
0
 10
161.174
 20
121.961
 11
157.954
 21
116.913
  0
LINE
  8
0
 10
157.954
 20
116.913
 11
154.641
 21
112.042
  0
LINE
  8
0
 10
154.641
 20
112.042
 11
151.246
 21
107.46
  0
LINE
  8
0
 10
151.246
 20
107.46
 11
147.736
 21
103.226
  0
LINE
  8
0
 10
147.736
 20
103.226
 11
144.08
 21
99.3978
  0
LINE
  8
0
 10
144.08
 20
99.3978
 11
140.254
 21
96.0293
  0
LINE
  8
0
 10
140.254
 20
96.0293
 11
136.244
 21
93.1613
  0
LINE
  8
0
 10
136.244
 20
93.1613
 11
132.051
 21
90.8203
  0
LINE
  8
0
 10
132.051
 20
90.8203
 11
127.685
 21
89.0194
  0
LINE
  8
0
 10
127.685
 20
89.0194
 11
123.165
 21
87.7609
  0
LINE
  8
0
 10
123.165
 20
87.7609
 11
118.513
 21
87.039
  0
LINE
  8
0
 10
118.513
 20
87.039
 11
113.746
 21
86.8436
  0
LINE
  8
0
 10
113.746
 20
86.8436
 11
108.878
 21
87.1627
  0
LINE
  8
0
 10
108.878
 20
87.1627
 11
103.918
 21
87.9854
  0
LINE
  8
0
 10
103.918
 20
87.9854
 11
98.8651
 21
89.3034
  0
LINE
  8
0
 10
98.8651
 20
89.3034
 11
93.7169
 21
91.1125
  0
LINE
  8
0
 10
93.7169
 20
91.1125
 11
88.4661
 21
93.4123
  0
LINE
  8
0
 10
88.4661
 20
93.4123
 11
83.105
 21
96.207
  0
LINE
  8
0
 10
83.105
 20
96.207
 11
77.625
 21
99.506
  0
LINE
  8
0
 10
77.625
 20
99.506
 11
71.8849
 21
103.416
  0
LINE
  8
0
 10
71.8849
 20
103.416
 11
70.2483
 21
104.215
  0
LINE
  8
0
 10
70.2483
 20
104.215
 11
68.2849
 21
104.518
  0
LINE
  8
0
 10
68.2849
 20
104.518
 11
66.3238
 21
104.199
  0
LINE
  8
0
 10
66.3238
 20
104.199
 11
64.5573
 21
103.29
  0
LINE
  8
0
 10
64.5573
 20
103.29
 11
63.158
 21
101.88
  0
LINE
  8
0
 10
63.158
 20
101.88
 11
23.0676
 21
46.2385
  0
LINE
  8
0
 10
23.0676
 20
46.2385
 11
22.1053
 21
44.2406
  0
LINE
  8
0
 10
22.1053
 20
44.2406
 11
21.8748
 21
42.2672
  0
LINE
  8
0
 10
21.8748
 20
42.2672
 11
22.2655
 21
40.3193
  0
LINE
  8
0
 10
22.2655
 20
40.3193
 11
23.239
 21
38.5874
  0
LINE
  8
0
 10
23.239
 20
38.5874
 11
24.7
 21
37.2411
  0
LINE
  8
0
 10
24.7
 20
37.2411
 11
32.2523
 21
32.2119
  0
LINE
  8
0
 10
32.2523
 20
32.2119
 11
32.6753
 21
31.9534
  0
LINE
  8
0
 10
32.6753
 20
31.9534
 11
40.133
 21
27.7879
  0
LINE
  8
0
 10
40.133
 20
27.7879
 11
40.5967
 21
27.5532
  0
LINE
  8
0
 10
40.5967
 20
27.5532
 11
47.9702
 21
24.1936
  0
LINE
  8
0
 10
47.9702
 20
24.1936
 11
48.4587
 21
23.9951
  0
LINE
  8
0
 10
48.4587
 20
23.9951
 11
55.7587
 21
21.3761
  0
LINE
  8
0
 10
55.7587
 20
21.3761
 11
56.2506
 21
21.2219
  0
LINE
  8
0
 10
56.2506
 20
21.2219
 11
63.4903
 21
19.2707
  0
LINE
  8
0
 10
63.4903
 20
19.2707
 11
63.9613
 21
19.1628
  0
LINE
  8
0
 10
63.9613
 20
19.1628
 11
71.1584
 21
17.8001
  0
LINE
  8
0
 10
71.1584
 20
17.8001
 11
71.5856
 21
17.7341
  0
LINE
  8
0
 10
71.5856
 20
17.7341
 11
78.7633
 21
16.8756
  0
LINE
  8
0
 10
78.7633
 20
16.8756
 11
79.1291
 21
16.8425
  0
LINE
  8
0
 10
79.1291
 20
16.8425
 11
86.3154
 21
16.4023
  0
LINE
  8
0
 10
86.3154
 20
16.4023
 11
86.6119
 21
16.391
  0
LINE
  8
0
 10
86.6119
 20
16.391
 11
93.838
 21
16.2865
  0
LINE
  8
0
 10
93.838
 20
16.2865
 11
94.0676
 21
16.2873
  0
LINE
  8
0
 10
86.7037
 20
22.7404
 11
79.5174
 21
23.1807
  0
LINE
  8
0
 10
79.5174
 20
23.1807
 11
72.3398
 21
24.0392
  0
LINE
  8
0
 10
72.3398
 20
24.0392
 11
65.1427
 21
25.4019
  0
LINE
  8
0
 10
65.1427
 20
25.4019
 11
57.903
 21
27.3531
  0
LINE
  8
0
 10
57.903
 20
27.3531
 11
50.6031
 21
29.9721
  0
LINE
  8
0
 10
50.6031
 20
29.9721
 11
43.2296
 21
33.3317
  0
LINE
  8
0
 10
43.2296
 20
33.3317
 11
35.7719
 21
37.4973
  0
LINE
  8
0
 10
35.7719
 20
37.4973
 11
28.2196
 21
42.5265
  0
LINE
  8
0
 10
28.2196
 20
42.5265
 11
68.31
 21
98.168
  0
LINE
  8
0
 10
68.31
 20
98.168
 11
74.1974
 21
94.1576
  0
LINE
  8
0
 10
74.1974
 20
94.1576
 11
79.9968
 21
90.6663
  0
LINE
  8
0
 10
79.9968
 20
90.6663
 11
85.7217
 21
87.682
  0
LINE
  8
0
 10
85.7217
 20
87.682
 11
91.3872
 21
85.2005
  0
LINE
  8
0
 10
91.3872
 20
85.2005
 11
97.0078
 21
83.2254
  0
LINE
  8
0
 10
97.0078
 20
83.2254
 11
102.594
 21
81.7682
  0
LINE
  8
0
 10
102.594
 20
81.7682
 11
108.149
 21
80.8468
  0
LINE
  8
0
 10
108.149
 20
80.8468
 11
113.668
 21
80.485
  0
LINE
  8
0
 10
113.668
 20
80.485
 11
119.131
 21
80.7091
  0
LINE
  8
0
 10
119.131
 20
80.7091
 11
124.508
 21
81.5433
  0
LINE
  8
0
 10
124.508
 20
81.5433
 11
129.755
 21
83.0042
  0
LINE
  8
0
 10
129.755
 20
83.0042
 11
134.819
 21
85.093
  0
LINE
  8
0
 10
134.819
 20
85.093
 11
139.65
 21
87.7899
  0
LINE
  8
0
 10
139.65
 20
87.7899
 11
144.209
 21
91.0512
  0
LINE
  8
0
 10
144.209
 20
91.0512
 11
148.482
 21
94.8133
  0
LINE
  8
0
 10
148.482
 20
94.8133
 11
152.482
 21
99.0012
  0
LINE
  8
0
 10
152.482
 20
99.0012
 11
156.245
 21
103.54
  0
LINE
  8
0
 10
156.245
 20
103.54
 11
159.82
 21
108.364
  0
LINE
  8
0
 10
159.82
 20
108.364
 11
163.258
 21
113.419
  0
LINE
  8
0
 10
163.258
 20
113.419
 11
166.595
 21
118.652
  0
LINE
  8
0
 10
166.595
 20
118.652
 11
166.593
 21
118.663
  0
LINE
  8
0
 10
166.593
 20
118.663
 11
167.417
 21
120.001
  0
LINE
  8
0
 10
167.417
 20
120.001
 11
168.234
 21
121.351
  0
LINE
  8
0
 10
168.234
 20
121.351
 11
169.047
 21
122.712
  0
LINE
  8
0
 10
169.047
 20
122.712
 11
169.855
 21
124.082
  0
LINE
  8
0
 10
169.855
 20
124.082
 11
170.66
 21
125.461
  0
LINE
  8
0
 10
170.66
 20
125.461
 11
171.462
 21
126.849
  0
LINE
  8
0
 10
171.462
 20
126.849
 11
172.262
 21
128.246
  0
LINE
  8
0
 10
172.262
 20
128.246
 11
173.06
 21
129.65
  0
LINE
  8
0
 10
173.06
 20
129.65
 11
173.856
 21
131.061
  0
LINE
  8
0
 10
173.856
 20
131.061
 11
174.65
 21
132.48
  0
LINE
  8
0
 10
174.65
 20
132.48
 11
175.444
 21
133.906
  0
LINE
  8
0
 10
175.444
 20
133.906
 11
176.238
 21
135.338
  0
LINE
  8
0
 10
176.238
 20
135.338
 11
177.031
 21
136.776
  0
LINE
  8
0
 10
177.031
 20
136.776
 11
177.823
 21
138.22
  0
LINE
  8
0
 10
177.823
 20
138.22
 11
178.616
 21
139.67
  0
LINE
  8
0
 10
178.616
 20
139.67
 11
179.409
 21
141.125
  0
LINE
  8
0
 10
179.409
 20
141.125
 11
180.995
 21
144.05
  0
LINE
  8
0
 10
180.995
 20
144.05
 11
182.584
 21
146.993
  0
LINE
  8
0
 10
182.584
 20
146.993
 11
182.593
 21
146.99
  0
LINE
  8
0
 10
182.593
 20
146.99
 11
185.831
 21
152.992
  0
LINE
  8
0
 10
185.831
 20
152.992
 11
188.978
 21
158.806
  0
LINE
  8
0
 10
188.978
 20
158.806
 11
192.038
 21
164.432
  0
LINE
  8
0
 10
192.038
 20
164.432
 11
195.016
 21
169.874
  0
LINE
  8
0
 10
195.016
 20
169.874
 11
197.917
 21
175.137
  0
LINE
  8
0
 10
197.917
 20
175.137
 11
200.747
 21
180.227
  0
LINE
  8
0
 10
200.747
 20
180.227
 11
203.511
 21
185.151
  0
LINE
  8
0
 10
203.511
 20
185.151
 11
206.215
 21
189.916
  0
LINE
  8
0
 10
206.215
 20
189.916
 11
208.862
 21
194.531
  0
LINE
  8
0
 10
208.862
 20
194.531
 11
211.46
 21
199.005
  0
LINE
  8
0
 10
211.46
 20
199.005
 11
214.012
 21
203.348
  0
LINE
  8
0
 10
214.012
 20
203.348
 11
216.524
 21
207.571
  0
LINE
  8
0
 10
216.524
 20
207.571
 11
219.003
 21
211.685
  0
LINE
  8
0
 10
219.003
 20
211.685
 11
221.453
 21
215.703
  0
LINE
  8
0
 10
221.453
 20
215.703
 11
223.881
 21
219.639
  0
LINE
  8
0
 10
223.881
 20
219.639
 11
226.291
 21
223.507
  0
LINE
  8
0
 10
226.291
 20
223.507
 11
228.689
 21
227.322
  0
LINE
  8
0
 10
228.689
 20
227.322
 11
231.081
 21
231.101
  0
LINE
  8
0
 10
231.081
 20
231.101
 11
233.472
 21
234.859
  0
LINE
  8
0
 10
233.472
 20
234.859
 11
235.865
 21
238.614
  0
LINE
  8
0
 10
235.865
 20
238.614
 11
242.186
 21
234.365
  0
LINE
  8
0
 10
242.186
 20
234.365
 11
248.276
 21
229.824
  0
LINE
  8
0
 10
248.276
 20
229.824
 11
254.106
 21
225.014
  0
LINE
  8
0
 10
254.106
 20
225.014
 11
259.643
 21
219.951
  0
LINE
  8
0
 10
259.643
 20
219.951
 11
264.857
 21
214.653
  0
LINE
  8
0
 10
264.857
 20
214.653
 11
269.713
 21
209.135
  0
LINE
  8
0
 10
269.713
 20
209.135
 11
274.179
 21
203.407
  0
LINE
  8
0
 10
274.179
 20
203.407
 11
278.218
 21
197.48
  0
LINE
  8
0
 10
278.218
 20
197.48
 11
281.796
 21
191.361
  0
LINE
  8
0
 10
281.796
 20
191.361
 11
284.874
 21
185.055
  0
LINE
  8
0
 10
284.874
 20
185.055
 11
287.416
 21
178.567
  0
LINE
  8
0
 10
287.416
 20
178.567
 11
289.381
 21
171.897
  0
LINE
  8
0
 10
289.381
 20
171.897
 11
290.731
 21
165.046
  0
LINE
  8
0
 10
290.731
 20
165.046
 11
291.424
 21
158.011
  0
LINE
  8
0
 10
291.424
 20
158.011
 11
291.418
 21
150.792
  0
LINE
  8
0
 10
291.418
 20
150.792
 11
290.672
 21
143.382
  0
LINE
  8
0
 10
290.672
 20
143.382
 11
289.14
 21
135.779
  0
LINE
  8
0
 10
289.14
 20
135.779
 11
286.781
 21
127.977
  0
LINE
  8
0
 10
286.781
 20
127.977
 11
283.548
 21
119.969
  0
LINE
  8
0
 10
283.548
 20
119.969
 11
279.397
 21
111.751
  0
LINE
  8
0
 10
279.397
 20
111.751
 11
279.388
 21
111.754
  0
LINE
  8
0
 10
279.388
 20
111.754
 11
275.734
 21
105.512
  0
LINE
  8
0
 10
275.734
 20
105.512
 11
271.873
 21
99.5605
  0
LINE
  8
0
 10
271.873
 20
99.5605
 11
267.819
 21
93.8975
  0
LINE
  8
0
 10
267.819
 20
93.8975
 11
263.585
 21
88.5162
  0
LINE
  8
0
 10
263.585
 20
88.5162
 11
259.181
 21
83.4098
  0
LINE
  8
0
 10
259.181
 20
83.4098
 11
254.62
 21
78.5716
  0
LINE
  8
0
 10
254.62
 20
78.5716
 11
249.914
 21
73.9949
  0
LINE
  8
0
 10
249.914
 20
73.9949
 11
245.074
 21
69.6729
  0
LINE
  8
0
 10
245.074
 20
69.6729
 11
240.112
 21
65.5987
  0
LINE
  8
0
 10
240.112
 20
65.5987
 11
235.039
 21
61.7656
  0
LINE
  8
0
 10
235.039
 20
61.7656
 11
229.867
 21
58.1668
  0
LINE
  8
0
 10
229.867
 20
58.1668
 11
224.607
 21
54.7953
  0
LINE
  8
0
 10
224.607
 20
54.7953
 11
219.269
 21
51.6443
  0
LINE
  8
0
 10
219.269
 20
51.6443
 11
213.866
 21
48.707
  0
LINE
  8
0
 10
213.866
 20
48.707
 11
208.408
 21
45.9764
  0
LINE
  8
0
 10
208.408
 20
45.9764
 11
202.904
 21
43.4455
  0
LINE
  8
0
 10
202.904
 20
43.4455
 11
197.366
 21
41.1077
  0
LINE
  8
0
 10
197.366
 20
41.1077
 11
191.804
 21
38.9558
  0
LINE
  8
0
 10
191.804
 20
38.9558
 11
186.227
 21
36.9832
  0
LINE
  8
0
 10
186.227
 20
36.9832
 11
180.654
 21
35.186
  0
LINE
  8
0
 10
180.654
 20
35.186
 11
180.655
 21
35.1846
  0
LINE
  8
0
 10
180.655
 20
35.1846
 11
172.291
 21
32.7942
  0
LINE
  8
0
 10
172.291
 20
32.7942
 11
163.968
 21
30.7364
  0
LINE
  8
0
 10
163.968
 20
30.7364
 11
155.714
 21
28.9823
  0
LINE
  8
0
 10
155.714
 20
28.9823
 11
147.552
 21
27.5013
  0
LINE
  8
0
 10
147.552
 20
27.5013
 11
139.501
 21
26.2615
  0
LINE
  8
0
 10
139.501
 20
26.2615
 11
131.576
 21
25.231
  0
LINE
  8
0
 10
131.576
 20
25.231
 11
123.788
 21
24.3812
  0
LINE
  8
0
 10
123.788
 20
24.3812
 11
116.139
 21
23.6921
  0
LINE
  8
0
 10
116.139
 20
23.6921
 11
108.623
 21
23.1583
  0
LINE
  8
0
 10
108.623
 20
23.1583
 11
101.227
 21
22.7941
  0
LINE
  8
0
 10
101.227
 20
22.7941
 11
93.9299
 21
22.6358
  0
LINE
  8
0
 10
93.9299
 20
22.6358
 11
86.7037
 21
22.7404
  0
ENDSEC
  0
SECTION
  2
OBJECTS
  0
DICTIONARY
  0
ENDSEC
  0
EOF
