  0
SECTION
  2
BLOCKS
  0
ENDSEC
  0
SECTION
  2
ENTITIES
  0
LINE
  8
0
 10
153.112
 20
195.517
 11
153.519
 21
195.511
  0
LINE
  8
0
 10
153.519
 20
195.511
 11
153.662
 21
195.539
  0
LINE
  8
0
 10
153.662
 20
195.539
 11
153.936
 21
195.55
  0
LINE
  8
0
 10
153.936
 20
195.55
 11
161.587
 21
196.469
  0
LINE
  8
0
 10
161.587
 20
196.469
 11
163
 21
196.72
  0
LINE
  8
0
 10
163
 20
196.72
 11
170.091
 21
198.4
  0
LINE
  8
0
 10
170.091
 20
198.4
 11
171.533
 21
198.833
  0
LINE
  8
0
 10
171.533
 20
198.833
 11
178.083
 21
201.233
  0
LINE
  8
0
 10
178.083
 20
201.233
 11
179.492
 21
201.849
  0
LINE
  8
0
 10
179.492
 20
201.849
 11
185.52
 21
204.929
  0
LINE
  8
0
 10
185.52
 20
204.929
 11
186.834
 21
205.704
  0
LINE
  8
0
 10
186.834
 20
205.704
 11
192.359
 21
209.424
  0
LINE
  8
0
 10
192.359
 20
209.424
 11
193.529
 21
210.315
  0
LINE
  8
0
 10
193.529
 20
210.315
 11
198.571
 21
214.635
  0
LINE
  8
0
 10
198.571
 20
214.635
 11
199.569
 21
215.59
  0
LINE
  8
0
 10
199.569
 20
215.59
 11
204.149
 21
220.471
  0
LINE
  8
0
 10
204.149
 20
220.471
 11
204.97
 21
221.439
  0
LINE
  8
0
 10
204.97
 20
221.439
 11
209.107
 21
226.842
  0
LINE
  8
0
 10
209.107
 20
226.842
 11
209.763
 21
227.785
  0
LINE
  8
0
 10
209.763
 20
227.785
 11
213.478
 21
233.67
  0
LINE
  8
0
 10
213.478
 20
233.67
 11
213.99
 21
234.559
  0
LINE
  8
0
 10
213.99
 20
234.559
 11
217.302
 21
240.889
  0
LINE
  8
0
 10
217.302
 20
240.889
 11
217.695
 21
241.709
  0
LINE
  8
0
 10
217.695
 20
241.709
 11
220.627
 21
248.445
  0
LINE
  8
0
 10
220.627
 20
248.445
 11
220.923
 21
249.19
  0
LINE
  8
0
 10
220.923
 20
249.19
 11
223.496
 21
256.295
  0
LINE
  8
0
 10
223.496
 20
256.295
 11
223.717
 21
256.964
  0
LINE
  8
0
 10
223.717
 20
256.964
 11
225.952
 21
264.402
  0
LINE
  8
0
 10
225.952
 20
264.402
 11
226.115
 21
264.998
  0
LINE
  8
0
 10
226.115
 20
264.998
 11
228.034
 21
272.732
  0
LINE
  8
0
 10
228.034
 20
272.732
 11
228.153
 21
273.259
  0
LINE
  8
0
 10
228.153
 20
273.259
 11
229.779
 21
281.255
  0
LINE
  8
0
 10
229.779
 20
281.255
 11
229.865
 21
281.719
  0
LINE
  8
0
 10
229.865
 20
281.719
 11
231.22
 21
289.941
  0
LINE
  8
0
 10
231.22
 20
289.941
 11
231.281
 21
290.349
  0
LINE
  8
0
 10
231.281
 20
290.349
 11
232.389
 21
298.764
  0
LINE
  8
0
 10
232.389
 20
298.764
 11
232.431
 21
299.119
  0
LINE
  8
0
 10
232.431
 20
299.119
 11
233.316
 21
307.696
  0
LINE
  8
0
 10
233.316
 20
307.696
 11
233.344
 21
308.002
  0
LINE
  8
0
 10
233.344
 20
308.002
 11
234.03
 21
316.709
  0
LINE
  8
0
 10
234.03
 20
316.709
 11
234.048
 21
316.969
  0
LINE
  8
0
 10
234.048
 20
316.969
 11
234.56
 21
325.768
  0
LINE
  8
0
 10
234.56
 20
325.768
 11
234.544
 21
325.769
  0
LINE
  8
0
 10
234.544
 20
325.769
 11
234.571
 21
325.95
  0
LINE
  8
0
 10
234.571
 20
325.95
 11
234.835
 21
331.985
  0
LINE
  8
0
 10
234.835
 20
331.985
 11
235.042
 21
338.026
  0
LINE
  8
0
 10
235.042
 20
338.026
 11
235.201
 21
344.066
  0
LINE
  8
0
 10
235.201
 20
344.066
 11
235.321
 21
350.098
  0
LINE
  8
0
 10
235.321
 20
350.098
 11
235.409
 21
356.116
  0
LINE
  8
0
 10
235.409
 20
356.116
 11
235.476
 21
362.113
  0
LINE
  8
0
 10
235.476
 20
362.113
 11
235.53
 21
368.084
  0
LINE
  8
0
 10
235.53
 20
368.084
 11
235.58
 21
374.025
  0
LINE
  8
0
 10
235.58
 20
374.025
 11
235.635
 21
379.945
  0
LINE
  8
0
 10
235.635
 20
379.945
 11
235.703
 21
385.819
  0
LINE
  8
0
 10
235.703
 20
385.819
 11
235.794
 21
391.654
  0
LINE
  8
0
 10
235.794
 20
391.654
 11
235.917
 21
397.441
  0
LINE
  8
0
 10
235.917
 20
397.441
 11
236.081
 21
403.187
  0
LINE
  8
0
 10
236.081
 20
403.187
 11
236.293
 21
408.882
  0
LINE
  8
0
 10
236.293
 20
408.882
 11
236.564
 21
414.537
  0
LINE
  8
0
 10
236.564
 20
414.537
 11
236.902
 21
420.147
  0
LINE
  8
0
 10
236.902
 20
420.147
 11
237.314
 21
425.72
  0
LINE
  8
0
 10
237.314
 20
425.72
 11
237.811
 21
431.26
  0
LINE
  8
0
 10
237.811
 20
431.26
 11
238.398
 21
436.776
  0
LINE
  8
0
 10
238.398
 20
436.776
 11
239.092
 21
442.326
  0
LINE
  8
0
 10
239.092
 20
442.326
 11
240.07
 21
449.48
  0
LINE
  8
0
 10
240.07
 20
449.48
 11
241.015
 21
456.12
  0
LINE
  8
0
 10
241.015
 20
456.12
 11
241.946
 21
462.267
  0
LINE
  8
0
 10
241.946
 20
462.267
 11
242.888
 21
467.986
  0
LINE
  8
0
 10
242.888
 20
467.986
 11
243.872
 21
473.36
  0
LINE
  8
0
 10
243.872
 20
473.36
 11
244.93
 21
478.469
  0
LINE
  8
0
 10
244.93
 20
478.469
 11
246.099
 21
483.397
  0
LINE
  8
0
 10
246.099
 20
483.397
 11
247.415
 21
488.223
  0
LINE
  8
0
 10
247.415
 20
488.223
 11
248.918
 21
493.023
  0
LINE
  8
0
 10
248.918
 20
493.023
 11
250.646
 21
497.854
  0
LINE
  8
0
 10
250.646
 20
497.854
 11
252.633
 21
502.764
  0
LINE
  8
0
 10
252.633
 20
502.764
 11
254.912
 21
507.781
  0
LINE
  8
0
 10
254.912
 20
507.781
 11
257.507
 21
512.92
  0
LINE
  8
0
 10
257.507
 20
512.92
 11
260.44
 21
518.189
  0
LINE
  8
0
 10
260.44
 20
518.189
 11
263.724
 21
523.582
  0
LINE
  8
0
 10
263.724
 20
523.582
 11
267.37
 21
529.093
  0
LINE
  8
0
 10
267.37
 20
529.093
 11
271.382
 21
534.708
  0
LINE
  8
0
 10
271.382
 20
534.708
 11
275.762
 21
540.412
  0
LINE
  8
0
 10
275.762
 20
540.412
 11
280.507
 21
546.187
  0
LINE
  8
0
 10
280.507
 20
546.187
 11
285.744
 21
552.163
  0
LINE
  8
0
 10
285.744
 20
552.163
 11
287.276
 21
554.331
  0
LINE
  8
0
 10
287.276
 20
554.331
 11
288.323
 21
556.771
  0
LINE
  8
0
 10
288.323
 20
556.771
 11
288.84
 21
559.375
  0
LINE
  8
0
 10
288.84
 20
559.375
 11
288.804
 21
562.03
  0
LINE
  8
0
 10
288.804
 20
562.03
 11
288.218
 21
564.619
  0
LINE
  8
0
 10
288.218
 20
564.619
 11
287.105
 21
567.03
  0
LINE
  8
0
 10
287.105
 20
567.03
 11
285.516
 21
569.157
  0
LINE
  8
0
 10
285.516
 20
569.157
 11
283.811
 21
570.694
  0
LINE
  8
0
 10
283.811
 20
570.694
 11
247.171
 21
598.162
  0
LINE
  8
0
 10
247.171
 20
598.162
 11
244.892
 21
599.523
  0
LINE
  8
0
 10
244.892
 20
599.523
 11
242.379
 21
600.382
  0
LINE
  8
0
 10
242.379
 20
600.382
 11
239.743
 21
600.699
  0
LINE
  8
0
 10
239.743
 20
600.699
 11
237.099
 21
600.461
  0
LINE
  8
0
 10
237.099
 20
600.461
 11
234.562
 21
599.678
  0
LINE
  8
0
 10
234.562
 20
599.678
 11
232.243
 21
598.385
  0
LINE
  8
0
 10
232.243
 20
598.385
 11
230.117
 21
596.5
  0
LINE
  8
0
 10
230.117
 20
596.5
 11
222.544
 21
588.092
  0
LINE
  8
0
 10
222.544
 20
588.092
 11
215.514
 21
580.1
  0
LINE
  8
0
 10
215.514
 20
580.1
 11
215.404
 21
579.972
  0
LINE
  8
0
 10
215.404
 20
579.972
 11
208.808
 21
572.269
  0
LINE
  8
0
 10
208.808
 20
572.269
 11
208.688
 21
572.127
  0
LINE
  8
0
 10
208.688
 20
572.127
 11
202.515
 21
564.701
  0
LINE
  8
0
 10
202.515
 20
564.701
 11
202.387
 21
564.543
  0
LINE
  8
0
 10
202.387
 20
564.543
 11
196.621
 21
557.376
  0
LINE
  8
0
 10
196.621
 20
557.376
 11
196.483
 21
557.202
  0
LINE
  8
0
 10
196.483
 20
557.202
 11
191.106
 21
550.273
  0
LINE
  8
0
 10
191.106
 20
550.273
 11
190.959
 21
550.081
  0
LINE
  8
0
 10
190.959
 20
550.081
 11
185.948
 21
543.364
  0
LINE
  8
0
 10
185.948
 20
543.364
 11
185.793
 21
543.151
  0
LINE
  8
0
 10
185.793
 20
543.151
 11
181.124
 21
536.614
  0
LINE
  8
0
 10
181.124
 20
536.614
 11
180.96
 21
536.378
  0
LINE
  8
0
 10
180.96
 20
536.378
 11
176.606
 21
529.981
  0
LINE
  8
0
 10
176.606
 20
529.981
 11
176.433
 21
529.72
  0
LINE
  8
0
 10
176.433
 20
529.72
 11
172.365
 21
523.415
  0
LINE
  8
0
 10
172.365
 20
523.415
 11
172.185
 21
523.128
  0
LINE
  8
0
 10
172.185
 20
523.128
 11
168.374
 21
516.86
  0
LINE
  8
0
 10
168.374
 20
516.86
 11
168.19
 21
516.547
  0
LINE
  8
0
 10
168.19
 20
516.547
 11
164.606
 21
510.253
  0
LINE
  8
0
 10
164.606
 20
510.253
 11
164.421
 21
509.916
  0
LINE
  8
0
 10
164.421
 20
509.916
 11
161.035
 21
503.528
  0
LINE
  8
0
 10
161.035
 20
503.528
 11
160.854
 21
503.172
  0
LINE
  8
0
 10
160.854
 20
503.172
 11
157.641
 21
496.62
  0
LINE
  8
0
 10
157.641
 20
496.62
 11
157.468
 21
496.251
  0
LINE
  8
0
 10
157.468
 20
496.251
 11
154.406
 21
489.463
  0
LINE
  8
0
 10
154.406
 20
489.463
 11
154.245
 21
489.09
  0
LINE
  8
0
 10
154.245
 20
489.09
 11
152.4
 21
484.624
  0
LINE
  8
0
 10
152.4
 20
484.624
 11
150.555
 21
489.09
  0
LINE
  8
0
 10
150.555
 20
489.09
 11
150.394
 21
489.463
  0
LINE
  8
0
 10
150.394
 20
489.463
 11
147.332
 21
496.251
  0
LINE
  8
0
 10
147.332
 20
496.251
 11
147.158
 21
496.62
  0
LINE
  8
0
 10
147.158
 20
496.62
 11
143.946
 21
503.172
  0
LINE
  8
0
 10
143.946
 20
503.172
 11
143.765
 21
503.528
  0
LINE
  8
0
 10
143.765
 20
503.528
 11
140.379
 21
509.916
  0
LINE
  8
0
 10
140.379
 20
509.916
 11
140.194
 21
510.253
  0
LINE
  8
0
 10
140.194
 20
510.253
 11
136.61
 21
516.547
  0
LINE
  8
0
 10
136.61
 20
516.547
 11
136.426
 21
516.86
  0
LINE
  8
0
 10
136.426
 20
516.86
 11
132.615
 21
523.128
  0
LINE
  8
0
 10
132.615
 20
523.128
 11
132.435
 21
523.415
  0
LINE
  8
0
 10
132.435
 20
523.415
 11
128.367
 21
529.72
  0
LINE
  8
0
 10
128.367
 20
529.72
 11
128.194
 21
529.981
  0
LINE
  8
0
 10
128.194
 20
529.981
 11
123.84
 21
536.378
  0
LINE
  8
0
 10
123.84
 20
536.378
 11
123.676
 21
536.614
  0
LINE
  8
0
 10
123.676
 20
536.614
 11
119.007
 21
543.151
  0
LINE
  8
0
 10
119.007
 20
543.151
 11
118.852
 21
543.364
  0
LINE
  8
0
 10
118.852
 20
543.364
 11
113.841
 21
550.081
  0
LINE
  8
0
 10
113.841
 20
550.081
 11
113.694
 21
550.273
  0
LINE
  8
0
 10
113.694
 20
550.273
 11
108.317
 21
557.202
  0
LINE
  8
0
 10
108.317
 20
557.202
 11
108.179
 21
557.376
  0
LINE
  8
0
 10
108.179
 20
557.376
 11
102.413
 21
564.543
  0
LINE
  8
0
 10
102.413
 20
564.543
 11
102.285
 21
564.701
  0
LINE
  8
0
 10
102.285
 20
564.701
 11
96.1118
 21
572.127
  0
LINE
  8
0
 10
96.1118
 20
572.127
 11
95.9919
 21
572.269
  0
LINE
  8
0
 10
95.9919
 20
572.269
 11
89.3965
 21
579.972
  0
LINE
  8
0
 10
89.3965
 20
579.972
 11
89.2859
 21
580.1
  0
LINE
  8
0
 10
89.2859
 20
580.1
 11
82.1555
 21
588.205
  0
LINE
  8
0
 10
82.1555
 20
588.205
 11
74.6827
 21
596.5
  0
LINE
  8
0
 10
74.6827
 20
596.5
 11
72.7092
 21
598.276
  0
LINE
  8
0
 10
72.7092
 20
598.276
 11
70.4095
 21
599.603
  0
LINE
  8
0
 10
70.4095
 20
599.603
 11
67.8842
 21
600.423
  0
LINE
  8
0
 10
67.8842
 20
600.423
 11
65.2437
 21
600.7
  0
LINE
  8
0
 10
65.2437
 20
600.7
 11
62.6033
 21
600.422
  0
LINE
  8
0
 10
62.6033
 20
600.422
 11
60.0784
 21
599.601
  0
LINE
  8
0
 10
60.0784
 20
599.601
 11
57.6293
 21
598.162
  0
LINE
  8
0
 10
57.6293
 20
598.162
 11
20.9893
 21
570.694
  0
LINE
  8
0
 10
20.9893
 20
570.694
 11
19.043
 21
568.889
  0
LINE
  8
0
 10
19.043
 20
568.889
 11
17.5148
 21
566.718
  0
LINE
  8
0
 10
17.5148
 20
566.718
 11
16.4713
 21
564.276
  0
LINE
  8
0
 10
16.4713
 20
564.276
 11
15.9582
 21
561.671
  0
LINE
  8
0
 10
15.9582
 20
561.671
 11
15.9979
 21
559.016
  0
LINE
  8
0
 10
15.9979
 20
559.016
 11
16.5887
 21
556.428
  0
LINE
  8
0
 10
16.5887
 20
556.428
 11
17.7047
 21
554.019
  0
LINE
  8
0
 10
17.7047
 20
554.019
 11
19.0556
 21
552.163
  0
LINE
  8
0
 10
19.0556
 20
552.163
 11
24.2925
 21
546.187
  0
LINE
  8
0
 10
24.2925
 20
546.187
 11
29.0381
 21
540.412
  0
LINE
  8
0
 10
29.0381
 20
540.412
 11
33.4179
 21
534.708
  0
LINE
  8
0
 10
33.4179
 20
534.708
 11
37.4301
 21
529.093
  0
LINE
  8
0
 10
37.4301
 20
529.093
 11
41.0759
 21
523.582
  0
LINE
  8
0
 10
41.0759
 20
523.582
 11
44.3602
 21
518.189
  0
LINE
  8
0
 10
44.3602
 20
518.189
 11
47.2926
 21
512.92
  0
LINE
  8
0
 10
47.2926
 20
512.92
 11
49.8879
 21
507.781
  0
LINE
  8
0
 10
49.8879
 20
507.781
 11
52.1666
 21
502.764
  0
LINE
  8
0
 10
52.1666
 20
502.764
 11
54.1541
 21
497.854
  0
LINE
  8
0
 10
54.1541
 20
497.854
 11
55.8818
 21
493.023
  0
LINE
  8
0
 10
55.8818
 20
493.023
 11
57.3851
 21
488.223
  0
LINE
  8
0
 10
57.3851
 20
488.223
 11
58.7014
 21
483.397
  0
LINE
  8
0
 10
58.7014
 20
483.397
 11
59.8701
 21
478.469
  0
LINE
  8
0
 10
59.8701
 20
478.469
 11
60.9284
 21
473.36
  0
LINE
  8
0
 10
60.9284
 20
473.36
 11
61.9124
 21
467.986
  0
LINE
  8
0
 10
61.9124
 20
467.986
 11
62.8543
 21
462.267
  0
LINE
  8
0
 10
62.8543
 20
462.267
 11
63.7852
 21
456.12
  0
LINE
  8
0
 10
63.7852
 20
456.12
 11
64.7305
 21
449.48
  0
LINE
  8
0
 10
64.7305
 20
449.48
 11
65.708
 21
442.326
  0
LINE
  8
0
 10
65.708
 20
442.326
 11
66.4015
 21
436.776
  0
LINE
  8
0
 10
66.4015
 20
436.776
 11
66.9894
 21
431.26
  0
LINE
  8
0
 10
66.9894
 20
431.26
 11
67.4856
 21
425.72
  0
LINE
  8
0
 10
67.4856
 20
425.72
 11
67.8983
 21
420.147
  0
LINE
  8
0
 10
67.8983
 20
420.147
 11
68.2358
 21
414.537
  0
LINE
  8
0
 10
68.2358
 20
414.537
 11
68.5067
 21
408.882
  0
LINE
  8
0
 10
68.5067
 20
408.882
 11
68.7195
 21
403.187
  0
LINE
  8
0
 10
68.7195
 20
403.187
 11
68.8829
 21
397.441
  0
LINE
  8
0
 10
68.8829
 20
397.441
 11
69.0058
 21
391.654
  0
LINE
  8
0
 10
69.0058
 20
391.654
 11
69.0969
 21
385.819
  0
LINE
  8
0
 10
69.0969
 20
385.819
 11
69.1653
 21
379.945
  0
LINE
  8
0
 10
69.1653
 20
379.945
 11
69.22
 21
374.025
  0
LINE
  8
0
 10
69.22
 20
374.025
 11
69.2698
 21
368.076
  0
LINE
  8
0
 10
69.2698
 20
368.076
 11
69.3239
 21
362.086
  0
LINE
  8
0
 10
69.3239
 20
362.086
 11
69.3911
 21
356.07
  0
LINE
  8
0
 10
69.3911
 20
356.07
 11
69.4805
 21
350.034
  0
LINE
  8
0
 10
69.4805
 20
350.034
 11
69.6008
 21
343.983
  0
LINE
  8
0
 10
69.6008
 20
343.983
 11
69.761
 21
337.925
  0
LINE
  8
0
 10
69.761
 20
337.925
 11
69.9698
 21
331.865
  0
LINE
  8
0
 10
69.9698
 20
331.865
 11
70.2292
 21
325.95
  0
LINE
  8
0
 10
70.2292
 20
325.95
 11
70.2563
 21
325.769
  0
LINE
  8
0
 10
70.2563
 20
325.769
 11
70.2396
 21
325.768
  0
LINE
  8
0
 10
70.2396
 20
325.768
 11
70.7519
 21
316.969
  0
LINE
  8
0
 10
70.7519
 20
316.969
 11
70.7697
 21
316.709
  0
LINE
  8
0
 10
70.7697
 20
316.709
 11
71.4563
 21
308.002
  0
LINE
  8
0
 10
71.4563
 20
308.002
 11
71.4841
 21
307.696
  0
LINE
  8
0
 10
71.4841
 20
307.696
 11
72.3694
 21
299.119
  0
LINE
  8
0
 10
72.3694
 20
299.119
 11
72.411
 21
298.764
  0
LINE
  8
0
 10
72.411
 20
298.764
 11
73.5195
 21
290.349
  0
LINE
  8
0
 10
73.5195
 20
290.349
 11
73.5798
 21
289.941
  0
LINE
  8
0
 10
73.5798
 20
289.941
 11
74.9353
 21
281.719
  0
LINE
  8
0
 10
74.9353
 20
281.719
 11
75.0208
 21
281.255
  0
LINE
  8
0
 10
75.0208
 20
281.255
 11
76.6466
 21
273.259
  0
LINE
  8
0
 10
76.6466
 20
273.259
 11
76.7657
 21
272.732
  0
LINE
  8
0
 10
76.7657
 20
272.732
 11
78.6847
 21
264.998
  0
LINE
  8
0
 10
78.6847
 20
264.998
 11
78.8481
 21
264.402
  0
LINE
  8
0
 10
78.8481
 20
264.402
 11
81.0828
 21
256.964
  0
LINE
  8
0
 10
81.0828
 20
256.964
 11
81.3042
 21
256.295
  0
LINE
  8
0
 10
81.3042
 20
256.295
 11
83.8767
 21
249.19
  0
LINE
  8
0
 10
83.8767
 20
249.19
 11
84.1733
 21
248.445
  0
LINE
  8
0
 10
84.1733
 20
248.445
 11
87.1051
 21
241.709
  0
LINE
  8
0
 10
87.1051
 20
241.709
 11
87.4977
 21
240.889
  0
LINE
  8
0
 10
87.4977
 20
240.889
 11
90.8103
 21
234.559
  0
LINE
  8
0
 10
90.8103
 20
234.559
 11
91.3225
 21
233.67
  0
LINE
  8
0
 10
91.3225
 20
233.67
 11
95.0367
 21
227.785
  0
LINE
  8
0
 10
95.0367
 20
227.785
 11
95.693
 21
226.842
  0
LINE
  8
0
 10
95.693
 20
226.842
 11
99.8296
 21
221.439
  0
LINE
  8
0
 10
99.8296
 20
221.439
 11
100.651
 21
220.471
  0
LINE
  8
0
 10
100.651
 20
220.471
 11
105.23
 21
215.59
  0
LINE
  8
0
 10
105.23
 20
215.59
 11
106.229
 21
214.635
  0
LINE
  8
0
 10
106.229
 20
214.635
 11
111.271
 21
210.315
  0
LINE
  8
0
 10
111.271
 20
210.315
 11
112.441
 21
209.424
  0
LINE
  8
0
 10
112.441
 20
209.424
 11
117.966
 21
205.704
  0
LINE
  8
0
 10
117.966
 20
205.704
 11
119.28
 21
204.929
  0
LINE
  8
0
 10
119.28
 20
204.929
 11
125.308
 21
201.849
  0
LINE
  8
0
 10
125.308
 20
201.849
 11
126.717
 21
201.233
  0
LINE
  8
0
 10
126.717
 20
201.233
 11
133.267
 21
198.833
  0
LINE
  8
0
 10
133.267
 20
198.833
 11
134.709
 21
198.4
  0
LINE
  8
0
 10
134.709
 20
198.4
 11
141.8
 21
196.72
  0
LINE
  8
0
 10
141.8
 20
196.72
 11
143.213
 21
196.469
  0
LINE
  8
0
 10
143.213
 20
196.469
 11
150.864
 21
195.55
  0
LINE
  8
0
 10
150.864
 20
195.55
 11
151.426
 21
195.542
  0
LINE
  8
0
 10
151.426
 20
195.542
 11
151.929
 21
195.469
  0
LINE
  8
0
 10
151.929
 20
195.469
 11
153.112
 21
195.517
  0
LINE
  8
0
 10
152.4
 20
208.485
 11
152.379
 21
208.159
  0
LINE
  8
0
 10
152.379
 20
208.159
 11
144.727
 21
209.078
  0
LINE
  8
0
 10
144.727
 20
209.078
 11
137.637
 21
210.758
  0
LINE
  8
0
 10
137.637
 20
210.758
 11
131.087
 21
213.158
  0
LINE
  8
0
 10
131.087
 20
213.158
 11
125.06
 21
216.238
  0
LINE
  8
0
 10
125.06
 20
216.238
 11
119.535
 21
219.958
  0
LINE
  8
0
 10
119.535
 20
219.958
 11
114.493
 21
224.279
  0
LINE
  8
0
 10
114.493
 20
224.279
 11
109.913
 21
229.16
  0
LINE
  8
0
 10
109.913
 20
229.16
 11
105.777
 21
234.563
  0
LINE
  8
0
 10
105.777
 20
234.563
 11
102.062
 21
240.448
  0
LINE
  8
0
 10
102.062
 20
240.448
 11
98.7499
 21
246.777
  0
LINE
  8
0
 10
98.7499
 20
246.777
 11
95.8181
 21
253.513
  0
LINE
  8
0
 10
95.8181
 20
253.513
 11
93.2456
 21
260.619
  0
LINE
  8
0
 10
93.2456
 20
260.619
 11
91.0109
 21
268.056
  0
LINE
  8
0
 10
91.0109
 20
268.056
 11
89.0919
 21
275.79
  0
LINE
  8
0
 10
89.0919
 20
275.79
 11
87.4661
 21
283.785
  0
LINE
  8
0
 10
87.4661
 20
283.785
 11
86.1107
 21
292.007
  0
LINE
  8
0
 10
86.1107
 20
292.007
 11
85.0023
 21
300.423
  0
LINE
  8
0
 10
85.0023
 20
300.423
 11
84.117
 21
309
  0
LINE
  8
0
 10
84.117
 20
309
 11
83.4304
 21
317.707
  0
LINE
  8
0
 10
83.4304
 20
317.707
 11
82.9182
 21
326.506
  0
LINE
  8
0
 10
82.9182
 20
326.506
 11
82.917
 21
326.506
  0
LINE
  8
0
 10
82.917
 20
326.506
 11
82.6577
 21
332.421
  0
LINE
  8
0
 10
82.6577
 20
332.421
 11
82.4535
 21
338.361
  0
LINE
  8
0
 10
82.4535
 20
338.361
 11
82.2964
 21
344.318
  0
LINE
  8
0
 10
82.2964
 20
344.318
 11
82.178
 21
350.286
  0
LINE
  8
0
 10
82.178
 20
350.286
 11
82.0897
 21
356.258
  0
LINE
  8
0
 10
82.0897
 20
356.258
 11
82.0231
 21
362.228
  0
LINE
  8
0
 10
82.0231
 20
362.228
 11
81.9693
 21
368.191
  0
LINE
  8
0
 10
81.9693
 20
368.191
 11
81.9194
 21
374.142
  0
LINE
  8
0
 10
81.9194
 20
374.142
 11
81.8647
 21
380.077
  0
LINE
  8
0
 10
81.8647
 20
380.077
 11
81.7958
 21
385.993
  0
LINE
  8
0
 10
81.7958
 20
385.993
 11
81.7037
 21
391.887
  0
LINE
  8
0
 10
81.7037
 20
391.887
 11
81.5791
 21
397.757
  0
LINE
  8
0
 10
81.5791
 20
397.757
 11
81.4128
 21
403.603
  0
LINE
  8
0
 10
81.4128
 20
403.603
 11
81.1953
 21
409.424
  0
LINE
  8
0
 10
81.1953
 20
409.424
 11
80.9176
 21
415.221
  0
LINE
  8
0
 10
80.9176
 20
415.221
 11
80.5701
 21
420.997
  0
LINE
  8
0
 10
80.5701
 20
420.997
 11
80.1437
 21
426.755
  0
LINE
  8
0
 10
80.1437
 20
426.755
 11
79.6293
 21
432.5
  0
LINE
  8
0
 10
79.6293
 20
432.5
 11
79.0178
 21
438.236
  0
LINE
  8
0
 10
79.0178
 20
438.236
 11
78.301
 21
443.973
  0
LINE
  8
0
 10
78.301
 20
443.973
 11
77.3089
 21
451.234
  0
LINE
  8
0
 10
77.3089
 20
451.234
 11
76.3503
 21
457.966
  0
LINE
  8
0
 10
76.3503
 20
457.966
 11
75.399
 21
464.248
  0
LINE
  8
0
 10
75.399
 20
464.248
 11
74.425
 21
470.162
  0
LINE
  8
0
 10
74.425
 20
470.162
 11
73.3943
 21
475.792
  0
LINE
  8
0
 10
73.3943
 20
475.792
 11
72.2692
 21
481.223
  0
LINE
  8
0
 10
72.2692
 20
481.223
 11
71.0098
 21
486.533
  0
LINE
  8
0
 10
71.0098
 20
486.533
 11
69.5752
 21
491.793
  0
LINE
  8
0
 10
69.5752
 20
491.793
 11
67.9256
 21
497.06
  0
LINE
  8
0
 10
67.9256
 20
497.06
 11
66.0244
 21
502.377
  0
LINE
  8
0
 10
66.0244
 20
502.377
 11
63.8391
 21
507.775
  0
LINE
  8
0
 10
63.8391
 20
507.775
 11
61.3428
 21
513.271
  0
LINE
  8
0
 10
61.3428
 20
513.271
 11
58.5139
 21
518.873
  0
LINE
  8
0
 10
58.5139
 20
518.873
 11
55.3363
 21
524.582
  0
LINE
  8
0
 10
55.3363
 20
524.582
 11
51.7992
 21
530.391
  0
LINE
  8
0
 10
51.7992
 20
530.391
 11
47.8959
 21
536.291
  0
LINE
  8
0
 10
47.8959
 20
536.291
 11
43.6239
 21
542.269
  0
LINE
  8
0
 10
43.6239
 20
542.269
 11
38.9833
 21
548.313
  0
LINE
  8
0
 10
38.9833
 20
548.313
 11
33.9765
 21
554.406
  0
LINE
  8
0
 10
33.9765
 20
554.406
 11
28.607
 21
560.533
  0
LINE
  8
0
 10
28.607
 20
560.533
 11
65.247
 21
588
  0
LINE
  8
0
 10
65.247
 20
588
 11
72.7197
 21
579.705
  0
LINE
  8
0
 10
72.7197
 20
579.705
 11
79.7496
 21
571.712
  0
LINE
  8
0
 10
79.7496
 20
571.712
 11
86.345
 21
564.009
  0
LINE
  8
0
 10
86.345
 20
564.009
 11
92.5179
 21
556.583
  0
LINE
  8
0
 10
92.5179
 20
556.583
 11
98.2838
 21
549.415
  0
LINE
  8
0
 10
98.2838
 20
549.415
 11
103.661
 21
542.486
  0
LINE
  8
0
 10
103.661
 20
542.486
 11
108.672
 21
535.77
  0
LINE
  8
0
 10
108.672
 20
535.77
 11
113.341
 21
529.233
  0
LINE
  8
0
 10
113.341
 20
529.233
 11
117.695
 21
522.835
  0
LINE
  8
0
 10
117.695
 20
522.835
 11
121.763
 21
516.531
  0
LINE
  8
0
 10
121.763
 20
516.531
 11
125.574
 21
510.262
  0
LINE
  8
0
 10
125.574
 20
510.262
 11
129.158
 21
503.969
  0
LINE
  8
0
 10
129.158
 20
503.969
 11
132.543
 21
497.581
  0
LINE
  8
0
 10
132.543
 20
497.581
 11
135.755
 21
491.029
  0
LINE
  8
0
 10
135.755
 20
491.029
 11
138.817
 21
484.241
  0
LINE
  8
0
 10
138.817
 20
484.241
 11
141.748
 21
477.148
  0
LINE
  8
0
 10
141.748
 20
477.148
 11
144.561
 21
469.683
  0
LINE
  8
0
 10
144.561
 20
469.683
 11
147.27
 21
461.787
  0
LINE
  8
0
 10
147.27
 20
461.787
 11
149.881
 21
453.405
  0
LINE
  8
0
 10
149.881
 20
453.405
 11
152.4
 21
444.488
  0
LINE
  8
0
 10
152.4
 20
444.488
 11
154.919
 21
453.405
  0
LINE
  8
0
 10
154.919
 20
453.405
 11
157.53
 21
461.787
  0
LINE
  8
0
 10
157.53
 20
461.787
 11
160.239
 21
469.683
  0
LINE
  8
0
 10
160.239
 20
469.683
 11
163.052
 21
477.148
  0
LINE
  8
0
 10
163.052
 20
477.148
 11
165.983
 21
484.241
  0
LINE
  8
0
 10
165.983
 20
484.241
 11
169.045
 21
491.029
  0
LINE
  8
0
 10
169.045
 20
491.029
 11
172.257
 21
497.581
  0
LINE
  8
0
 10
172.257
 20
497.581
 11
175.642
 21
503.969
  0
LINE
  8
0
 10
175.642
 20
503.969
 11
179.226
 21
510.262
  0
LINE
  8
0
 10
179.226
 20
510.262
 11
183.037
 21
516.531
  0
LINE
  8
0
 10
183.037
 20
516.531
 11
187.105
 21
522.835
  0
LINE
  8
0
 10
187.105
 20
522.835
 11
191.459
 21
529.233
  0
LINE
  8
0
 10
191.459
 20
529.233
 11
196.128
 21
535.77
  0
LINE
  8
0
 10
196.128
 20
535.77
 11
201.139
 21
542.486
  0
LINE
  8
0
 10
201.139
 20
542.486
 11
206.516
 21
549.415
  0
LINE
  8
0
 10
206.516
 20
549.415
 11
212.282
 21
556.583
  0
LINE
  8
0
 10
212.282
 20
556.583
 11
218.455
 21
564.009
  0
LINE
  8
0
 10
218.455
 20
564.009
 11
225.05
 21
571.712
  0
LINE
  8
0
 10
225.05
 20
571.712
 11
232.08
 21
579.705
  0
LINE
  8
0
 10
232.08
 20
579.705
 11
239.553
 21
588
  0
LINE
  8
0
 10
239.553
 20
588
 11
276.193
 21
560.533
  0
LINE
  8
0
 10
276.193
 20
560.533
 11
270.823
 21
554.406
  0
LINE
  8
0
 10
270.823
 20
554.406
 11
265.817
 21
548.313
  0
LINE
  8
0
 10
265.817
 20
548.313
 11
261.176
 21
542.269
  0
LINE
  8
0
 10
261.176
 20
542.269
 11
256.904
 21
536.291
  0
LINE
  8
0
 10
256.904
 20
536.291
 11
253.001
 21
530.391
  0
LINE
  8
0
 10
253.001
 20
530.391
 11
249.464
 21
524.582
  0
LINE
  8
0
 10
249.464
 20
524.582
 11
246.286
 21
518.873
  0
LINE
  8
0
 10
246.286
 20
518.873
 11
243.457
 21
513.271
  0
LINE
  8
0
 10
243.457
 20
513.271
 11
240.961
 21
507.775
  0
LINE
  8
0
 10
240.961
 20
507.775
 11
238.776
 21
502.377
  0
LINE
  8
0
 10
238.776
 20
502.377
 11
236.874
 21
497.06
  0
LINE
  8
0
 10
236.874
 20
497.06
 11
235.225
 21
491.793
  0
LINE
  8
0
 10
235.225
 20
491.793
 11
233.79
 21
486.533
  0
LINE
  8
0
 10
233.79
 20
486.533
 11
232.531
 21
481.223
  0
LINE
  8
0
 10
232.531
 20
481.223
 11
231.406
 21
475.792
  0
LINE
  8
0
 10
231.406
 20
475.792
 11
230.375
 21
470.162
  0
LINE
  8
0
 10
230.375
 20
470.162
 11
229.401
 21
464.248
  0
LINE
  8
0
 10
229.401
 20
464.248
 11
228.45
 21
457.966
  0
LINE
  8
0
 10
228.45
 20
457.966
 11
227.491
 21
451.234
  0
LINE
  8
0
 10
227.491
 20
451.234
 11
226.499
 21
443.973
  0
LINE
  8
0
 10
226.499
 20
443.973
 11
225.782
 21
438.236
  0
LINE
  8
0
 10
225.782
 20
438.236
 11
225.171
 21
432.5
  0
LINE
  8
0
 10
225.171
 20
432.5
 11
224.656
 21
426.755
  0
LINE
  8
0
 10
224.656
 20
426.755
 11
224.23
 21
420.997
  0
LINE
  8
0
 10
224.23
 20
420.997
 11
223.882
 21
415.221
  0
LINE
  8
0
 10
223.882
 20
415.221
 11
223.605
 21
409.424
  0
LINE
  8
0
 10
223.605
 20
409.424
 11
223.387
 21
403.603
  0
LINE
  8
0
 10
223.387
 20
403.603
 11
223.221
 21
397.757
  0
LINE
  8
0
 10
223.221
 20
397.757
 11
223.096
 21
391.887
  0
LINE
  8
0
 10
223.096
 20
391.887
 11
223.004
 21
385.993
  0
LINE
  8
0
 10
223.004
 20
385.993
 11
222.935
 21
380.077
  0
LINE
  8
0
 10
222.935
 20
380.077
 11
222.881
 21
374.142
  0
LINE
  8
0
 10
222.881
 20
374.142
 11
222.831
 21
368.191
  0
LINE
  8
0
 10
222.831
 20
368.191
 11
222.777
 21
362.228
  0
LINE
  8
0
 10
222.777
 20
362.228
 11
222.71
 21
356.258
  0
LINE
  8
0
 10
222.71
 20
356.258
 11
222.622
 21
350.286
  0
LINE
  8
0
 10
222.622
 20
350.286
 11
222.504
 21
344.318
  0
LINE
  8
0
 10
222.504
 20
344.318
 11
222.346
 21
338.361
  0
LINE
  8
0
 10
222.346
 20
338.361
 11
222.142
 21
332.421
  0
LINE
  8
0
 10
222.142
 20
332.421
 11
221.883
 21
326.506
  0
LINE
  8
0
 10
221.883
 20
326.506
 11
221.882
 21
326.506
  0
LINE
  8
0
 10
221.882
 20
326.506
 11
221.37
 21
317.707
  0
LINE
  8
0
 10
221.37
 20
317.707
 11
220.683
 21
309
  0
LINE
  8
0
 10
220.683
 20
309
 11
219.798
 21
300.423
  0
LINE
  8
0
 10
219.798
 20
300.423
 11
218.689
 21
292.007
  0
LINE
  8
0
 10
218.689
 20
292.007
 11
217.334
 21
283.785
  0
LINE
  8
0
 10
217.334
 20
283.785
 11
215.708
 21
275.79
  0
LINE
  8
0
 10
215.708
 20
275.79
 11
213.789
 21
268.056
  0
LINE
  8
0
 10
213.789
 20
268.056
 11
211.554
 21
260.619
  0
LINE
  8
0
 10
211.554
 20
260.619
 11
208.982
 21
253.513
  0
LINE
  8
0
 10
208.982
 20
253.513
 11
206.05
 21
246.777
  0
LINE
  8
0
 10
206.05
 20
246.777
 11
202.737
 21
240.448
  0
LINE
  8
0
 10
202.737
 20
240.448
 11
199.023
 21
234.563
  0
LINE
  8
0
 10
199.023
 20
234.563
 11
194.887
 21
229.16
  0
LINE
  8
0
 10
194.887
 20
229.16
 11
190.307
 21
224.279
  0
LINE
  8
0
 10
190.307
 20
224.279
 11
185.265
 21
219.958
  0
LINE
  8
0
 10
185.265
 20
219.958
 11
179.74
 21
216.238
  0
LINE
  8
0
 10
179.74
 20
216.238
 11
173.713
 21
213.158
  0
LINE
  8
0
 10
173.713
 20
213.158
 11
167.163
 21
210.758
  0
LINE
  8
0
 10
167.163
 20
210.758
 11
160.073
 21
209.078
  0
LINE
  8
0
 10
160.073
 20
209.078
 11
152.421
 21
208.159
  0
LINE
  8
0
 10
152.421
 20
208.159
 11
152.4
 21
208.485
  0
LINE
  8
0
 10
108.373
 20
116.017
 11
109.813
 21
116.124
  0
LINE
  8
0
 10
109.813
 20
116.124
 11
118.082
 21
117.218
  0
LINE
  8
0
 10
118.082
 20
117.218
 11
119.36
 21
117.455
  0
LINE
  8
0
 10
119.36
 20
117.455
 11
127.442
 21
119.38
  0
LINE
  8
0
 10
127.442
 20
119.38
 11
128.536
 21
119.693
  0
LINE
  8
0
 10
128.536
 20
119.693
 11
136.436
 21
122.342
  0
LINE
  8
0
 10
136.436
 20
122.342
 11
137.347
 21
122.687
  0
LINE
  8
0
 10
137.347
 20
122.687
 11
145.065
 21
125.952
  0
LINE
  8
0
 10
145.065
 20
125.952
 11
145.812
 21
126.298
  0
LINE
  8
0
 10
145.812
 20
126.298
 11
153.342
 21
130.076
  0
LINE
  8
0
 10
153.342
 20
130.076
 11
153.951
 21
130.403
  0
LINE
  8
0
 10
153.951
 20
130.403
 11
161.278
 21
134.593
  0
LINE
  8
0
 10
161.278
 20
134.593
 11
161.773
 21
134.892
  0
LINE
  8
0
 10
161.773
 20
134.892
 11
168.877
 21
139.397
  0
LINE
  8
0
 10
168.877
 20
139.397
 11
169.283
 21
139.665
  0
LINE
  8
0
 10
169.283
 20
139.665
 11
176.135
 21
144.387
  0
LINE
  8
0
 10
176.135
 20
144.387
 11
176.47
 21
144.626
  0
LINE
  8
0
 10
176.47
 20
144.626
 11
183.038
 21
149.472
  0
LINE
  8
0
 10
183.038
 20
149.472
 11
183.318
 21
149.685
  0
LINE
  8
0
 10
183.318
 20
149.685
 11
189.56
 21
154.564
  0
LINE
  8
0
 10
189.56
 20
154.564
 11
189.798
 21
154.755
  0
LINE
  8
0
 10
189.798
 20
154.755
 11
195.67
 21
159.576
  0
LINE
  8
0
 10
195.67
 20
159.576
 11
195.878
 21
159.751
  0
LINE
  8
0
 10
195.878
 20
159.751
 11
201.328
 21
164.425
  0
LINE
  8
0
 10
201.328
 20
164.425
 11
201.517
 21
164.59
  0
LINE
  8
0
 10
201.517
 20
164.59
 11
206.491
 21
169.029
  0
LINE
  8
0
 10
206.491
 20
169.029
 11
206.67
 21
169.192
  0
LINE
  8
0
 10
206.67
 20
169.192
 11
211.111
 21
173.309
  0
LINE
  8
0
 10
211.111
 20
173.309
 11
211.292
 21
173.481
  0
LINE
  8
0
 10
211.292
 20
173.481
 11
215.138
 21
177.191
  0
LINE
  8
0
 10
215.138
 20
177.191
 11
216.846
 21
179.224
  0
LINE
  8
0
 10
216.846
 20
179.224
 11
218.094
 21
181.567
  0
LINE
  8
0
 10
218.094
 20
181.567
 11
218.827
 21
184.119
  0
LINE
  8
0
 10
218.827
 20
184.119
 11
219.014
 21
186.767
  0
LINE
  8
0
 10
219.014
 20
186.767
 11
218.646
 21
189.397
  0
LINE
  8
0
 10
218.646
 20
189.397
 11
217.739
 21
191.892
  0
LINE
  8
0
 10
217.739
 20
191.892
 11
216.333
 21
194.145
  0
LINE
  8
0
 10
216.333
 20
194.145
 11
214.49
 21
196.056
  0
LINE
  8
0
 10
214.49
 20
196.056
 11
212.29
 21
197.541
  0
LINE
  8
0
 10
212.29
 20
197.541
 11
209.829
 21
198.537
  0
LINE
  8
0
 10
209.829
 20
198.537
 11
207.214
 21
199
  0
LINE
  8
0
 10
207.214
 20
199
 11
204.561
 21
198.909
  0
LINE
  8
0
 10
204.561
 20
198.909
 11
202.22
 21
198.351
  0
LINE
  8
0
 10
202.22
 20
198.351
 11
196.444
 21
196.38
  0
LINE
  8
0
 10
196.444
 20
196.38
 11
190.863
 21
194.591
  0
LINE
  8
0
 10
190.863
 20
194.591
 11
185.382
 21
192.961
  0
LINE
  8
0
 10
185.382
 20
192.961
 11
180.007
 21
191.502
  0
LINE
  8
0
 10
180.007
 20
191.502
 11
174.737
 21
190.225
  0
LINE
  8
0
 10
174.737
 20
190.225
 11
169.573
 21
189.14
  0
LINE
  8
0
 10
169.573
 20
189.14
 11
164.51
 21
188.26
  0
LINE
  8
0
 10
164.51
 20
188.26
 11
159.541
 21
187.592
  0
LINE
  8
0
 10
159.541
 20
187.592
 11
154.654
 21
187.149
  0
LINE
  8
0
 10
154.654
 20
187.149
 11
149.833
 21
186.939
  0
LINE
  8
0
 10
149.833
 20
186.939
 11
145.056
 21
186.973
  0
LINE
  8
0
 10
145.056
 20
186.973
 11
140.297
 21
187.264
  0
LINE
  8
0
 10
140.297
 20
187.264
 11
135.525
 21
187.826
  0
LINE
  8
0
 10
135.525
 20
187.826
 11
130.705
 21
188.679
  0
LINE
  8
0
 10
130.705
 20
188.679
 11
125.806
 21
189.844
  0
LINE
  8
0
 10
125.806
 20
189.844
 11
120.792
 21
191.347
  0
LINE
  8
0
 10
120.792
 20
191.347
 11
115.635
 21
193.214
  0
LINE
  8
0
 10
115.635
 20
193.214
 11
110.308
 21
195.475
  0
LINE
  8
0
 10
110.308
 20
195.475
 11
104.788
 21
198.16
  0
LINE
  8
0
 10
104.788
 20
198.16
 11
99.066
 21
201.292
  0
LINE
  8
0
 10
99.066
 20
201.292
 11
93.4924
 21
204.682
  0
LINE
  8
0
 10
93.4924
 20
204.682
 11
88.4073
 21
208.12
  0
LINE
  8
0
 10
88.4073
 20
208.12
 11
83.7856
 21
211.602
  0
LINE
  8
0
 10
83.7856
 20
211.602
 11
79.5896
 21
215.135
  0
LINE
  8
0
 10
79.5896
 20
215.135
 11
75.782
 21
218.725
  0
LINE
  8
0
 10
75.782
 20
218.725
 11
72.3233
 21
222.386
  0
LINE
  8
0
 10
72.3233
 20
222.386
 11
69.175
 21
226.133
  0
LINE
  8
0
 10
69.175
 20
226.133
 11
66.3016
 21
229.985
  0
LINE
  8
0
 10
66.3016
 20
229.985
 11
63.67
 21
233.961
  0
LINE
  8
0
 10
63.67
 20
233.961
 11
61.2519
 21
238.081
  0
LINE
  8
0
 10
61.2519
 20
238.081
 11
59.0236
 21
242.361
  0
LINE
  8
0
 10
59.0236
 20
242.361
 11
56.9643
 21
246.815
  0
LINE
  8
0
 10
56.9643
 20
246.815
 11
55.0576
 21
251.452
  0
LINE
  8
0
 10
55.0576
 20
251.452
 11
53.2889
 21
256.277
  0
LINE
  8
0
 10
53.2889
 20
256.277
 11
51.6458
 21
261.292
  0
LINE
  8
0
 10
51.6458
 20
261.292
 11
50.1171
 21
266.494
  0
LINE
  8
0
 10
50.1171
 20
266.494
 11
48.693
 21
271.879
  0
LINE
  8
0
 10
48.693
 20
271.879
 11
47.3644
 21
277.44
  0
LINE
  8
0
 10
47.3644
 20
277.44
 11
46.1232
 21
283.168
  0
LINE
  8
0
 10
46.1232
 20
283.168
 11
44.9418
 21
289.156
  0
LINE
  8
0
 10
44.9418
 20
289.156
 11
44.1584
 21
291.693
  0
LINE
  8
0
 10
44.1584
 20
291.693
 11
42.8647
 21
294.011
  0
LINE
  8
0
 10
42.8647
 20
294.011
 11
41.1172
 21
296.01
  0
LINE
  8
0
 10
41.1172
 20
296.01
 11
38.9923
 21
297.602
  0
LINE
  8
0
 10
38.9923
 20
297.602
 11
36.5829
 21
298.717
  0
LINE
  8
0
 10
36.5829
 20
298.717
 11
33.9942
 21
299.307
  0
LINE
  8
0
 10
33.9942
 20
299.307
 11
31.3395
 21
299.346
  0
LINE
  8
0
 10
31.3395
 20
299.346
 11
28.7347
 21
298.832
  0
LINE
  8
0
 10
28.7347
 20
298.832
 11
26.2937
 21
297.788
  0
LINE
  8
0
 10
26.2937
 20
297.788
 11
24.1231
 21
296.259
  0
LINE
  8
0
 10
24.1231
 20
296.259
 11
22.3179
 21
294.312
  0
LINE
  8
0
 10
22.3179
 20
294.312
 11
20.9568
 21
292.032
  0
LINE
  8
0
 10
20.9568
 20
292.032
 11
20.1575
 21
289.763
  0
LINE
  8
0
 10
20.1575
 20
289.763
 11
18.8678
 21
284.578
  0
LINE
  8
0
 10
18.8678
 20
284.578
 11
18.8098
 21
284.334
  0
LINE
  8
0
 10
18.8098
 20
284.334
 11
17.4642
 21
278.43
  0
LINE
  8
0
 10
17.4642
 20
278.43
 11
17.4127
 21
278.193
  0
LINE
  8
0
 10
17.4127
 20
278.193
 11
16.0554
 21
271.666
  0
LINE
  8
0
 10
16.0554
 20
271.666
 11
16.0068
 21
271.42
  0
LINE
  8
0
 10
16.0068
 20
271.42
 11
14.6841
 21
264.363
  0
LINE
  8
0
 10
14.6841
 20
264.363
 11
14.6368
 21
264.095
  0
LINE
  8
0
 10
14.6368
 20
264.095
 11
13.3974
 21
256.6
  0
LINE
  8
0
 10
13.3974
 20
256.6
 11
13.3512
 21
256.298
  0
LINE
  8
0
 10
13.3512
 20
256.298
 11
12.2471
 21
248.453
  0
LINE
  8
0
 10
12.2471
 20
248.453
 11
12.2029
 21
248.104
  0
LINE
  8
0
 10
12.2029
 20
248.104
 11
11.2895
 21
239.993
  0
LINE
  8
0
 10
11.2895
 20
239.993
 11
11.2501
 21
239.584
  0
LINE
  8
0
 10
11.2501
 20
239.584
 11
10.5868
 21
231.288
  0
LINE
  8
0
 10
10.5868
 20
231.288
 11
10.5573
 21
230.803
  0
LINE
  8
0
 10
10.5573
 20
230.803
 11
10.2082
 21
222.398
  0
LINE
  8
0
 10
10.2082
 20
222.398
 11
10.1974
 21
221.82
  0
LINE
  8
0
 10
10.1974
 20
221.82
 11
10.2317
 21
213.379
  0
LINE
  8
0
 10
10.2317
 20
213.379
 11
10.2533
 21
212.688
  0
LINE
  8
0
 10
10.2533
 20
212.688
 11
10.7458
 21
204.279
  0
LINE
  8
0
 10
10.7458
 20
204.279
 11
10.8206
 21
203.458
  0
LINE
  8
0
 10
10.8206
 20
203.458
 11
11.8517
 21
195.142
  0
LINE
  8
0
 10
11.8517
 20
195.142
 11
12.0085
 21
194.18
  0
LINE
  8
0
 10
12.0085
 20
194.18
 11
13.6646
 21
186.014
  0
LINE
  8
0
 10
13.6646
 20
186.014
 11
13.9403
 21
184.911
  0
LINE
  8
0
 10
13.9403
 20
184.911
 11
16.3133
 21
176.949
  0
LINE
  8
0
 10
16.3133
 20
176.949
 11
16.7479
 21
175.724
  0
LINE
  8
0
 10
16.7479
 20
175.724
 11
19.9352
 21
168.015
  0
LINE
  8
0
 10
19.9352
 20
168.015
 11
20.5619
 21
166.714
  0
LINE
  8
0
 10
20.5619
 20
166.714
 11
24.6654
 21
159.306
  0
LINE
  8
0
 10
24.6654
 20
159.306
 11
25.4957
 21
158.001
  0
LINE
  8
0
 10
25.4957
 20
158.001
 11
30.6214
 21
150.936
  0
LINE
  8
0
 10
30.6214
 20
150.936
 11
31.6332
 21
149.711
  0
LINE
  8
0
 10
31.6332
 20
149.711
 11
37.8898
 21
143.034
  0
LINE
  8
0
 10
37.8898
 20
143.034
 11
39.0279
 21
141.96
  0
LINE
  8
0
 10
39.0279
 20
141.96
 11
46.5265
 21
135.713
  0
LINE
  8
0
 10
46.5265
 20
135.713
 11
47.7178
 21
134.832
  0
LINE
  8
0
 10
47.7178
 20
134.832
 11
56.5709
 21
129.058
  0
LINE
  8
0
 10
56.5709
 20
129.058
 11
57.7663
 21
128.368
  0
LINE
  8
0
 10
57.7663
 20
128.368
 11
67.1849
 21
123.593
  0
LINE
  8
0
 10
67.1849
 20
123.593
 11
68.5422
 21
123.002
  0
LINE
  8
0
 10
68.5422
 20
123.002
 11
77.702
 21
119.632
  0
LINE
  8
0
 10
77.702
 20
119.632
 11
79.2009
 21
119.183
  0
LINE
  8
0
 10
79.2009
 20
119.183
 11
88.1119
 21
117.103
  0
LINE
  8
0
 10
88.1119
 20
117.103
 11
89.679
 21
116.839
  0
LINE
  8
0
 10
89.679
 20
116.839
 11
98.3599
 21
115.933
  0
LINE
  8
0
 10
98.3599
 20
115.933
 11
99.9049
 21
115.866
  0
LINE
  8
0
 10
99.9049
 20
115.866
 11
108.373
 21
116.017
  0
LINE
  8
0
 10
90.9983
 20
129.471
 11
82.0873
 21
131.55
  0
LINE
  8
0
 10
82.0873
 20
131.55
 11
72.9275
 21
134.921
  0
LINE
  8
0
 10
72.9275
 20
134.921
 11
63.5089
 21
139.695
  0
LINE
  8
0
 10
63.5089
 20
139.695
 11
54.6558
 21
145.47
  0
LINE
  8
0
 10
54.6558
 20
145.47
 11
47.1573
 21
151.717
  0
LINE
  8
0
 10
47.1573
 20
151.717
 11
40.9007
 21
158.395
  0
LINE
  8
0
 10
40.9007
 20
158.395
 11
35.7751
 21
165.459
  0
LINE
  8
0
 10
35.7751
 20
165.459
 11
31.6715
 21
172.868
  0
LINE
  8
0
 10
31.6715
 20
172.868
 11
28.4842
 21
180.576
  0
LINE
  8
0
 10
28.4842
 20
180.576
 11
26.1112
 21
188.538
  0
LINE
  8
0
 10
26.1112
 20
188.538
 11
24.4552
 21
196.704
  0
LINE
  8
0
 10
24.4552
 20
196.704
 11
23.4241
 21
205.021
  0
LINE
  8
0
 10
23.4241
 20
205.021
 11
22.9316
 21
213.431
  0
LINE
  8
0
 10
22.9316
 20
213.431
 11
22.8973
 21
221.871
  0
LINE
  8
0
 10
22.8973
 20
221.871
 11
23.2464
 21
230.276
  0
LINE
  8
0
 10
23.2464
 20
230.276
 11
23.9097
 21
238.572
  0
LINE
  8
0
 10
23.9097
 20
238.572
 11
24.8232
 21
246.683
  0
LINE
  8
0
 10
24.8232
 20
246.683
 11
25.9273
 21
254.528
  0
LINE
  8
0
 10
25.9273
 20
254.528
 11
27.1667
 21
262.023
  0
LINE
  8
0
 10
27.1667
 20
262.023
 11
28.4894
 21
269.08
  0
LINE
  8
0
 10
28.4894
 20
269.08
 11
29.8467
 21
275.608
  0
LINE
  8
0
 10
29.8467
 20
275.608
 11
31.1923
 21
281.512
  0
LINE
  8
0
 10
31.1923
 20
281.512
 11
32.482
 21
286.697
  0
LINE
  8
0
 10
32.482
 20
286.697
 11
33.6863
 21
280.594
  0
LINE
  8
0
 10
33.6863
 20
280.594
 11
34.9809
 21
274.619
  0
LINE
  8
0
 10
34.9809
 20
274.619
 11
36.3761
 21
268.779
  0
LINE
  8
0
 10
36.3761
 20
268.779
 11
37.8835
 21
263.079
  0
LINE
  8
0
 10
37.8835
 20
263.079
 11
39.5161
 21
257.523
  0
LINE
  8
0
 10
39.5161
 20
257.523
 11
41.2889
 21
252.113
  0
LINE
  8
0
 10
41.2889
 20
252.113
 11
43.2182
 21
246.85
  0
LINE
  8
0
 10
43.2182
 20
246.85
 11
45.3223
 21
241.733
  0
LINE
  8
0
 10
45.3223
 20
241.733
 11
47.6211
 21
236.761
  0
LINE
  8
0
 10
47.6211
 20
236.761
 11
50.1362
 21
231.93
  0
LINE
  8
0
 10
50.1362
 20
231.93
 11
52.8904
 21
227.238
  0
LINE
  8
0
 10
52.8904
 20
227.238
 11
55.9083
 21
222.678
  0
LINE
  8
0
 10
55.9083
 20
222.678
 11
59.2153
 21
218.245
  0
LINE
  8
0
 10
59.2153
 20
218.245
 11
62.8377
 21
213.933
  0
LINE
  8
0
 10
62.8377
 20
213.933
 11
66.8025
 21
209.737
  0
LINE
  8
0
 10
66.8025
 20
209.737
 11
71.1369
 21
205.65
  0
LINE
  8
0
 10
71.1369
 20
205.65
 11
75.8684
 21
201.666
  0
LINE
  8
0
 10
75.8684
 20
201.666
 11
81.0244
 21
197.781
  0
LINE
  8
0
 10
81.0244
 20
197.781
 11
86.6322
 21
193.99
  0
LINE
  8
0
 10
86.6322
 20
193.99
 11
92.7144
 21
190.291
  0
LINE
  8
0
 10
92.7144
 20
190.291
 11
98.9586
 21
186.873
  0
LINE
  8
0
 10
98.9586
 20
186.873
 11
105.046
 21
183.912
  0
LINE
  8
0
 10
105.046
 20
183.912
 11
110.989
 21
181.389
  0
LINE
  8
0
 10
110.989
 20
181.389
 11
116.804
 21
179.284
  0
LINE
  8
0
 10
116.804
 20
179.284
 11
122.511
 21
177.573
  0
LINE
  8
0
 10
122.511
 20
177.573
 11
128.128
 21
176.238
  0
LINE
  8
0
 10
128.128
 20
176.238
 11
133.673
 21
175.257
  0
LINE
  8
0
 10
133.673
 20
175.257
 11
139.165
 21
174.609
  0
LINE
  8
0
 10
139.165
 20
174.609
 11
144.623
 21
174.276
  0
LINE
  8
0
 10
144.623
 20
174.276
 11
150.064
 21
174.237
  0
LINE
  8
0
 10
150.064
 20
174.237
 11
155.505
 21
174.474
  0
LINE
  8
0
 10
155.505
 20
174.474
 11
160.961
 21
174.969
  0
LINE
  8
0
 10
160.961
 20
174.969
 11
166.444
 21
175.705
  0
LINE
  8
0
 10
166.444
 20
175.705
 11
171.967
 21
176.666
  0
LINE
  8
0
 10
171.967
 20
176.666
 11
177.539
 21
177.836
  0
LINE
  8
0
 10
177.539
 20
177.836
 11
183.167
 21
179.2
  0
LINE
  8
0
 10
183.167
 20
179.2
 11
188.857
 21
180.745
  0
LINE
  8
0
 10
188.857
 20
180.745
 11
194.612
 21
182.456
  0
LINE
  8
0
 10
194.612
 20
182.456
 11
200.433
 21
184.323
  0
LINE
  8
0
 10
200.433
 20
184.323
 11
206.321
 21
186.331
  0
LINE
  8
0
 10
206.321
 20
186.331
 11
202.475
 21
182.622
  0
LINE
  8
0
 10
202.475
 20
182.622
 11
198.035
 21
178.504
  0
LINE
  8
0
 10
198.035
 20
178.504
 11
193.061
 21
174.065
  0
LINE
  8
0
 10
193.061
 20
174.065
 11
187.611
 21
169.391
  0
LINE
  8
0
 10
187.611
 20
169.391
 11
181.739
 21
164.57
  0
LINE
  8
0
 10
181.739
 20
164.57
 11
175.497
 21
159.691
  0
LINE
  8
0
 10
175.497
 20
159.691
 11
168.929
 21
154.845
  0
LINE
  8
0
 10
168.929
 20
154.845
 11
162.076
 21
150.122
  0
LINE
  8
0
 10
162.076
 20
150.122
 11
154.972
 21
145.618
  0
LINE
  8
0
 10
154.972
 20
145.618
 11
147.646
 21
141.427
  0
LINE
  8
0
 10
147.646
 20
141.427
 11
140.116
 21
137.649
  0
LINE
  8
0
 10
140.116
 20
137.649
 11
132.398
 21
134.383
  0
LINE
  8
0
 10
132.398
 20
134.383
 11
124.498
 21
131.735
  0
LINE
  8
0
 10
124.498
 20
131.735
 11
116.416
 21
129.809
  0
LINE
  8
0
 10
116.416
 20
129.809
 11
108.147
 21
128.715
  0
LINE
  8
0
 10
108.147
 20
128.715
 11
99.6791
 21
128.564
  0
LINE
  8
0
 10
99.6791
 20
128.564
 11
90.9983
 21
129.471
  0
LINE
  8
0
 10
198.188
 20
47.8819
 11
199.484
 21
47.9845
  0
LINE
  8
0
 10
199.484
 20
47.9845
 11
207.754
 21
49.0681
  0
LINE
  8
0
 10
207.754
 20
49.0681
 11
209.173
 21
49.3368
  0
LINE
  8
0
 10
209.173
 20
49.3368
 11
217.391
 21
51.383
  0
LINE
  8
0
 10
217.391
 20
51.383
 11
218.866
 21
51.8473
  0
LINE
  8
0
 10
218.866
 20
51.8473
 11
227.017
 21
54.9699
  0
LINE
  8
0
 10
227.017
 20
54.9699
 11
228.462
 21
55.6301
  0
LINE
  8
0
 10
228.462
 20
55.6301
 11
236.531
 21
59.9453
  0
LINE
  8
0
 10
236.531
 20
59.9453
 11
237.863
 21
60.7667
  0
LINE
  8
0
 10
237.863
 20
60.7667
 11
245.839
 21
66.3928
  0
LINE
  8
0
 10
245.839
 20
66.3928
 11
246.997
 21
67.3157
  0
LINE
  8
0
 10
246.997
 20
67.3157
 11
254.866
 21
74.3727
  0
LINE
  8
0
 10
254.866
 20
74.3727
 11
255.842
 21
75.3487
  0
LINE
  8
0
 10
255.842
 20
75.3487
 11
262.892
 21
83.2106
  0
LINE
  8
0
 10
262.892
 20
83.2106
 11
263.814
 21
84.3686
  0
LINE
  8
0
 10
263.814
 20
84.3686
 11
269.44
 21
92.3439
  0
LINE
  8
0
 10
269.44
 20
92.3439
 11
270.262
 21
93.6756
  0
LINE
  8
0
 10
270.262
 20
93.6756
 11
274.577
 21
101.745
  0
LINE
  8
0
 10
274.577
 20
101.745
 11
275.237
 21
103.19
  0
LINE
  8
0
 10
275.237
 20
103.19
 11
278.36
 21
111.341
  0
LINE
  8
0
 10
278.36
 20
111.341
 11
278.824
 21
112.816
  0
LINE
  8
0
 10
278.824
 20
112.816
 11
280.87
 21
121.034
  0
LINE
  8
0
 10
280.87
 20
121.034
 11
281.139
 21
122.453
  0
LINE
  8
0
 10
281.139
 20
122.453
 11
282.223
 21
130.724
  0
LINE
  8
0
 10
282.223
 20
130.724
 11
282.325
 21
132.02
  0
LINE
  8
0
 10
282.325
 20
132.02
 11
282.557
 21
140.324
  0
LINE
  8
0
 10
282.557
 20
140.324
 11
282.537
 21
141.461
  0
LINE
  8
0
 10
282.537
 20
141.461
 11
282.024
 21
149.778
  0
LINE
  8
0
 10
282.024
 20
149.778
 11
281.926
 21
150.747
  0
LINE
  8
0
 10
281.926
 20
150.747
 11
280.77
 21
159.047
  0
LINE
  8
0
 10
280.77
 20
159.047
 11
280.63
 21
159.859
  0
LINE
  8
0
 10
280.63
 20
159.859
 11
278.929
 21
168.11
  0
LINE
  8
0
 10
278.929
 20
168.11
 11
278.771
 21
168.782
  0
LINE
  8
0
 10
278.771
 20
168.782
 11
276.619
 21
176.944
  0
LINE
  8
0
 10
276.619
 20
176.944
 11
276.459
 21
177.501
  0
LINE
  8
0
 10
276.459
 20
177.501
 11
273.947
 21
185.528
  0
LINE
  8
0
 10
273.947
 20
185.528
 11
273.793
 21
185.989
  0
LINE
  8
0
 10
273.793
 20
185.989
 11
271.005
 21
193.831
  0
LINE
  8
0
 10
271.005
 20
193.831
 11
270.861
 21
194.216
  0
LINE
  8
0
 10
270.861
 20
194.216
 11
267.879
 21
201.814
  0
LINE
  8
0
 10
267.879
 20
201.814
 11
267.746
 21
202.139
  0
LINE
  8
0
 10
267.746
 20
202.139
 11
264.649
 21
209.432
  0
LINE
  8
0
 10
264.649
 20
209.432
 11
264.526
 21
209.711
  0
LINE
  8
0
 10
264.526
 20
209.711
 11
261.389
 21
216.63
  0
LINE
  8
0
 10
261.389
 20
216.63
 11
261.274
 21
216.877
  0
LINE
  8
0
 10
261.274
 20
216.877
 11
258.17
 21
223.351
  0
LINE
  8
0
 10
258.17
 20
223.351
 11
258.06
 21
223.576
  0
LINE
  8
0
 10
258.06
 20
223.576
 11
255.059
 21
229.53
  0
LINE
  8
0
 10
255.059
 20
229.53
 11
254.948
 21
229.745
  0
LINE
  8
0
 10
254.948
 20
229.745
 11
252.12
 21
235.1
  0
LINE
  8
0
 10
252.12
 20
235.1
 11
252.001
 21
235.32
  0
LINE
  8
0
 10
252.001
 20
235.32
 11
249.414
 21
239.995
  0
LINE
  8
0
 10
249.414
 20
239.995
 11
247.892
 21
242.17
  0
LINE
  8
0
 10
247.892
 20
242.17
 11
245.951
 21
243.982
  0
LINE
  8
0
 10
245.951
 20
243.982
 11
243.676
 21
245.351
  0
LINE
  8
0
 10
243.676
 20
245.351
 11
241.166
 21
246.217
  0
LINE
  8
0
 10
241.166
 20
246.217
 11
238.531
 21
246.542
  0
LINE
  8
0
 10
238.531
 20
246.542
 11
235.886
 21
246.312
  0
LINE
  8
0
 10
235.886
 20
246.312
 11
233.347
 21
245.537
  0
LINE
  8
0
 10
233.347
 20
245.537
 11
231.024
 21
244.251
  0
LINE
  8
0
 10
231.024
 20
244.251
 11
229.019
 21
242.51
  0
LINE
  8
0
 10
229.019
 20
242.51
 11
227.42
 21
240.391
  0
LINE
  8
0
 10
227.42
 20
240.391
 11
226.297
 21
237.985
  0
LINE
  8
0
 10
226.297
 20
237.985
 11
225.698
 21
235.399
  0
LINE
  8
0
 10
225.698
 20
235.399
 11
225.631
 21
232.994
  0
LINE
  8
0
 10
225.631
 20
232.994
 11
226.039
 21
226.904
  0
LINE
  8
0
 10
226.039
 20
226.904
 11
226.323
 21
221.05
  0
LINE
  8
0
 10
226.323
 20
221.05
 11
226.479
 21
215.334
  0
LINE
  8
0
 10
226.479
 20
215.334
 11
226.497
 21
209.764
  0
LINE
  8
0
 10
226.497
 20
209.764
 11
226.367
 21
204.344
  0
LINE
  8
0
 10
226.367
 20
204.344
 11
226.078
 21
199.075
  0
LINE
  8
0
 10
226.078
 20
199.075
 11
225.618
 21
193.956
  0
LINE
  8
0
 10
225.618
 20
193.956
 11
224.977
 21
188.984
  0
LINE
  8
0
 10
224.977
 20
188.984
 11
224.14
 21
184.149
  0
LINE
  8
0
 10
224.14
 20
184.149
 11
223.096
 21
179.438
  0
LINE
  8
0
 10
223.096
 20
179.438
 11
221.826
 21
174.832
  0
LINE
  8
0
 10
221.826
 20
174.832
 11
220.313
 21
170.311
  0
LINE
  8
0
 10
220.313
 20
170.311
 11
218.535
 21
165.846
  0
LINE
  8
0
 10
218.535
 20
165.846
 11
216.464
 21
161.412
  0
LINE
  8
0
 10
216.464
 20
161.412
 11
214.07
 21
156.981
  0
LINE
  8
0
 10
214.07
 20
156.981
 11
211.322
 21
152.527
  0
LINE
  8
0
 10
211.322
 20
152.527
 11
208.183
 21
148.029
  0
LINE
  8
0
 10
208.183
 20
148.029
 11
204.62
 21
143.469
  0
LINE
  8
0
 10
204.62
 20
143.469
 11
200.598
 21
138.832
  0
LINE
  8
0
 10
200.598
 20
138.832
 11
196.092
 21
134.115
  0
LINE
  8
0
 10
196.092
 20
134.115
 11
191.375
 21
129.609
  0
LINE
  8
0
 10
191.375
 20
129.609
 11
186.738
 21
125.587
  0
LINE
  8
0
 10
186.738
 20
125.587
 11
182.178
 21
122.024
  0
LINE
  8
0
 10
182.178
 20
122.024
 11
177.68
 21
118.885
  0
LINE
  8
0
 10
177.68
 20
118.885
 11
173.226
 21
116.137
  0
LINE
  8
0
 10
173.226
 20
116.137
 11
168.795
 21
113.743
  0
LINE
  8
0
 10
168.795
 20
113.743
 11
164.361
 21
111.672
  0
LINE
  8
0
 10
164.361
 20
111.672
 11
159.897
 21
109.894
  0
LINE
  8
0
 10
159.897
 20
109.894
 11
155.375
 21
108.381
  0
LINE
  8
0
 10
155.375
 20
108.381
 11
150.769
 21
107.111
  0
LINE
  8
0
 10
150.769
 20
107.111
 11
146.058
 21
106.067
  0
LINE
  8
0
 10
146.058
 20
106.067
 11
141.223
 21
105.23
  0
LINE
  8
0
 10
141.223
 20
105.23
 11
136.251
 21
104.589
  0
LINE
  8
0
 10
136.251
 20
104.589
 11
131.132
 21
104.129
  0
LINE
  8
0
 10
131.132
 20
104.129
 11
125.863
 21
103.84
  0
LINE
  8
0
 10
125.863
 20
103.84
 11
120.443
 21
103.71
  0
LINE
  8
0
 10
120.443
 20
103.71
 11
114.873
 21
103.728
  0
LINE
  8
0
 10
114.873
 20
103.728
 11
109.157
 21
103.884
  0
LINE
  8
0
 10
109.157
 20
103.884
 11
103.303
 21
104.168
  0
LINE
  8
0
 10
103.303
 20
104.168
 11
97.2135
 21
104.576
  0
LINE
  8
0
 10
97.2135
 20
104.576
 11
94.5604
 21
104.476
  0
LINE
  8
0
 10
94.5604
 20
104.476
 11
91.9861
 21
103.826
  0
LINE
  8
0
 10
91.9861
 20
103.826
 11
89.603
 21
102.656
  0
LINE
  8
0
 10
89.603
 20
102.656
 11
87.5155
 21
101.015
  0
LINE
  8
0
 10
87.5155
 20
101.015
 11
85.8146
 21
98.9767
  0
LINE
  8
0
 10
85.8146
 20
98.9767
 11
84.5747
 21
96.629
  0
LINE
  8
0
 10
84.5747
 20
96.629
 11
83.8501
 21
94.0748
  0
LINE
  8
0
 10
83.8501
 20
94.0748
 11
83.6724
 21
91.4257
  0
LINE
  8
0
 10
83.6724
 20
91.4257
 11
84.0493
 21
88.7975
  0
LINE
  8
0
 10
84.0493
 20
88.7975
 11
84.9644
 21
86.3052
  0
LINE
  8
0
 10
84.9644
 20
86.3052
 11
86.3777
 21
84.0576
  0
LINE
  8
0
 10
86.3777
 20
84.0576
 11
88.2274
 21
82.1529
  0
LINE
  8
0
 10
88.2274
 20
82.1529
 11
90.2125
 21
80.7935
  0
LINE
  8
0
 10
90.2125
 20
80.7935
 11
94.8873
 21
78.2057
  0
LINE
  8
0
 10
94.8873
 20
78.2057
 11
95.1075
 21
78.0866
  0
LINE
  8
0
 10
95.1075
 20
78.0866
 11
100.462
 21
75.2587
  0
LINE
  8
0
 10
100.462
 20
75.2587
 11
100.677
 21
75.1478
  0
LINE
  8
0
 10
100.677
 20
75.1478
 11
106.631
 21
72.1473
  0
LINE
  8
0
 10
106.631
 20
72.1473
 11
106.856
 21
72.0368
  0
LINE
  8
0
 10
106.856
 20
72.0368
 11
113.33
 21
68.9326
  0
LINE
  8
0
 10
113.33
 20
68.9326
 11
113.577
 21
68.8177
  0
LINE
  8
0
 10
113.577
 20
68.8177
 11
120.496
 21
65.6806
  0
LINE
  8
0
 10
120.496
 20
65.6806
 11
120.775
 21
65.5578
  0
LINE
  8
0
 10
120.775
 20
65.5578
 11
128.068
 21
62.4607
  0
LINE
  8
0
 10
128.068
 20
62.4607
 11
128.393
 21
62.3279
  0
LINE
  8
0
 10
128.393
 20
62.3279
 11
135.992
 21
59.3462
  0
LINE
  8
0
 10
135.992
 20
59.3462
 11
136.376
 21
59.2023
  0
LINE
  8
0
 10
136.376
 20
59.2023
 11
144.218
 21
56.4144
  0
LINE
  8
0
 10
144.218
 20
56.4144
 11
144.679
 21
56.2604
  0
LINE
  8
0
 10
144.679
 20
56.2604
 11
152.707
 21
53.748
  0
LINE
  8
0
 10
152.707
 20
53.748
 11
153.263
 21
53.5878
  0
LINE
  8
0
 10
153.263
 20
53.5878
 11
161.425
 21
51.4363
  0
LINE
  8
0
 10
161.425
 20
51.4363
 11
162.097
 21
51.2784
  0
LINE
  8
0
 10
162.097
 20
51.2784
 11
170.348
 21
49.5775
  0
LINE
  8
0
 10
170.348
 20
49.5775
 11
171.16
 21
49.4375
  0
LINE
  8
0
 10
171.16
 20
49.4375
 11
179.46
 21
48.2809
  0
LINE
  8
0
 10
179.46
 20
48.2809
 11
180.429
 21
48.1835
  0
LINE
  8
0
 10
180.429
 20
48.1835
 11
188.746
 21
47.6697
  0
LINE
  8
0
 10
188.746
 20
47.6697
 11
189.883
 21
47.6504
  0
LINE
  8
0
 10
189.883
 20
47.6504
 11
198.188
 21
47.8819
  0
LINE
  8
0
 10
181.213
 20
60.8594
 11
172.912
 21
62.0159
  0
LINE
  8
0
 10
172.912
 20
62.0159
 11
164.662
 21
63.7169
  0
LINE
  8
0
 10
164.662
 20
63.7169
 11
156.5
 21
65.8683
  0
LINE
  8
0
 10
156.5
 20
65.8683
 11
148.472
 21
68.3807
  0
LINE
  8
0
 10
148.472
 20
68.3807
 11
140.631
 21
71.1685
  0
LINE
  8
0
 10
140.631
 20
71.1685
 11
133.032
 21
74.1502
  0
LINE
  8
0
 10
133.032
 20
74.1502
 11
125.74
 21
77.2473
  0
LINE
  8
0
 10
125.74
 20
77.2473
 11
118.821
 21
80.3843
  0
LINE
  8
0
 10
118.821
 20
80.3843
 11
112.347
 21
83.4885
  0
LINE
  8
0
 10
112.347
 20
83.4885
 11
106.393
 21
86.489
  0
LINE
  8
0
 10
106.393
 20
86.489
 11
101.038
 21
89.3168
  0
LINE
  8
0
 10
101.038
 20
89.3168
 11
96.3633
 21
91.9047
  0
LINE
  8
0
 10
96.3633
 20
91.9047
 11
102.571
 21
91.4882
  0
LINE
  8
0
 10
102.571
 20
91.4882
 11
108.677
 21
91.1923
  0
LINE
  8
0
 10
108.677
 20
91.1923
 11
114.679
 21
91.0285
  0
LINE
  8
0
 10
114.679
 20
91.0285
 11
120.575
 21
91.0093
  0
LINE
  8
0
 10
120.575
 20
91.0093
 11
126.364
 21
91.1483
  0
LINE
  8
0
 10
126.364
 20
91.1483
 11
132.049
 21
91.4604
  0
LINE
  8
0
 10
132.049
 20
91.4604
 11
137.632
 21
91.9617
  0
LINE
  8
0
 10
137.632
 20
91.9617
 11
143.119
 21
92.6698
  0
LINE
  8
0
 10
143.119
 20
92.6698
 11
148.517
 21
93.6034
  0
LINE
  8
0
 10
148.517
 20
93.6034
 11
153.834
 21
94.7825
  0
LINE
  8
0
 10
153.834
 20
94.7825
 11
159.079
 21
96.2283
  0
LINE
  8
0
 10
159.079
 20
96.2283
 11
164.265
 21
97.9632
  0
LINE
  8
0
 10
164.265
 20
97.9632
 11
169.403
 21
100.01
  0
LINE
  8
0
 10
169.403
 20
100.01
 11
174.505
 21
102.393
  0
LINE
  8
0
 10
174.505
 20
102.393
 11
179.584
 21
105.137
  0
LINE
  8
0
 10
179.584
 20
105.137
 11
184.654
 21
108.266
  0
LINE
  8
0
 10
184.654
 20
108.266
 11
189.726
 21
111.805
  0
LINE
  8
0
 10
189.726
 20
111.805
 11
194.814
 21
115.78
  0
LINE
  8
0
 10
194.814
 20
115.78
 11
199.927
 21
120.215
  0
LINE
  8
0
 10
199.927
 20
120.215
 11
205.074
 21
125.133
  0
LINE
  8
0
 10
205.074
 20
125.133
 11
209.992
 21
130.28
  0
LINE
  8
0
 10
209.992
 20
130.28
 11
214.427
 21
135.393
  0
LINE
  8
0
 10
214.427
 20
135.393
 11
218.402
 21
140.481
  0
LINE
  8
0
 10
218.402
 20
140.481
 11
221.941
 21
145.553
  0
LINE
  8
0
 10
221.941
 20
145.553
 11
225.07
 21
150.623
  0
LINE
  8
0
 10
225.07
 20
150.623
 11
227.814
 21
155.702
  0
LINE
  8
0
 10
227.814
 20
155.702
 11
230.197
 21
160.804
  0
LINE
  8
0
 10
230.197
 20
160.804
 11
232.244
 21
165.942
  0
LINE
  8
0
 10
232.244
 20
165.942
 11
233.979
 21
171.128
  0
LINE
  8
0
 10
233.979
 20
171.128
 11
235.425
 21
176.374
  0
LINE
  8
0
 10
235.425
 20
176.374
 11
236.604
 21
181.69
  0
LINE
  8
0
 10
236.604
 20
181.69
 11
237.537
 21
187.088
  0
LINE
  8
0
 10
237.537
 20
187.088
 11
238.245
 21
192.575
  0
LINE
  8
0
 10
238.245
 20
192.575
 11
238.747
 21
198.158
  0
LINE
  8
0
 10
238.747
 20
198.158
 11
239.059
 21
203.843
  0
LINE
  8
0
 10
239.059
 20
203.843
 11
239.198
 21
209.633
  0
LINE
  8
0
 10
239.198
 20
209.633
 11
239.179
 21
215.528
  0
LINE
  8
0
 10
239.179
 20
215.528
 11
239.015
 21
221.53
  0
LINE
  8
0
 10
239.015
 20
221.53
 11
238.719
 21
227.637
  0
LINE
  8
0
 10
238.719
 20
227.637
 11
238.302
 21
233.844
  0
LINE
  8
0
 10
238.302
 20
233.844
 11
240.89
 21
229.169
  0
LINE
  8
0
 10
240.89
 20
229.169
 11
243.718
 21
223.814
  0
LINE
  8
0
 10
243.718
 20
223.814
 11
246.719
 21
217.86
  0
LINE
  8
0
 10
246.719
 20
217.86
 11
249.823
 21
211.386
  0
LINE
  8
0
 10
249.823
 20
211.386
 11
252.96
 21
204.467
  0
LINE
  8
0
 10
252.96
 20
204.467
 11
256.057
 21
197.175
  0
LINE
  8
0
 10
256.057
 20
197.175
 11
259.039
 21
189.576
  0
LINE
  8
0
 10
259.039
 20
189.576
 11
261.826
 21
181.735
  0
LINE
  8
0
 10
261.826
 20
181.735
 11
264.339
 21
173.707
  0
LINE
  8
0
 10
264.339
 20
173.707
 11
266.49
 21
165.545
  0
LINE
  8
0
 10
266.49
 20
165.545
 11
268.191
 21
157.295
  0
LINE
  8
0
 10
268.191
 20
157.295
 11
269.348
 21
148.995
  0
LINE
  8
0
 10
269.348
 20
148.995
 11
269.862
 21
140.678
  0
LINE
  8
0
 10
269.862
 20
140.678
 11
269.63
 21
132.373
  0
LINE
  8
0
 10
269.63
 20
132.373
 11
268.547
 21
124.102
  0
LINE
  8
0
 10
268.547
 20
124.102
 11
266.5
 21
115.884
  0
LINE
  8
0
 10
266.5
 20
115.884
 11
263.378
 21
107.734
  0
LINE
  8
0
 10
263.378
 20
107.734
 11
259.063
 21
99.6647
  0
LINE
  8
0
 10
259.063
 20
99.6647
 11
253.437
 21
91.6893
  0
LINE
  8
0
 10
253.437
 20
91.6893
 11
246.387
 21
83.8274
  0
LINE
  8
0
 10
246.387
 20
83.8274
 11
238.518
 21
76.7705
  0
LINE
  8
0
 10
238.518
 20
76.7705
 11
230.542
 21
71.1445
  0
LINE
  8
0
 10
230.542
 20
71.1445
 11
222.473
 21
66.8293
  0
LINE
  8
0
 10
222.473
 20
66.8293
 11
214.323
 21
63.7067
  0
LINE
  8
0
 10
214.323
 20
63.7067
 11
206.105
 21
61.6605
  0
LINE
  8
0
 10
206.105
 20
61.6605
 11
197.834
 21
60.5769
  0
LINE
  8
0
 10
197.834
 20
60.5769
 11
189.529
 21
60.3455
  0
LINE
  8
0
 10
189.529
 20
60.3455
 11
181.213
 21
60.8594
  0
LINE
  8
0
 10
80.2785
 20
-356.819
 11
81.1315
 21
-356.784
  0
LINE
  8
0
 10
81.1315
 20
-356.784
 11
87.1511
 21
-356.332
  0
LINE
  8
0
 10
87.1511
 20
-356.332
 11
88.1103
 21
-356.223
  0
LINE
  8
0
 10
88.1103
 20
-356.223
 11
93.8674
 21
-355.348
  0
LINE
  8
0
 10
93.8674
 20
-355.348
 11
94.9311
 21
-355.139
  0
LINE
  8
0
 10
94.9311
 20
-355.139
 11
100.421
 21
-353.818
  0
LINE
  8
0
 10
100.421
 20
-353.818
 11
101.575
 21
-353.481
  0
LINE
  8
0
 10
101.575
 20
-353.481
 11
106.794
 21
-351.688
  0
LINE
  8
0
 10
106.794
 20
-351.688
 11
108.006
 21
-351.201
  0
LINE
  8
0
 10
108.006
 20
-351.201
 11
112.953
 21
-348.909
  0
LINE
  8
0
 10
112.953
 20
-348.909
 11
114.174
 21
-348.261
  0
LINE
  8
0
 10
114.174
 20
-348.261
 11
118.847
 21
-345.442
  0
LINE
  8
0
 10
118.847
 20
-345.442
 11
120.02
 21
-344.642
  0
LINE
  8
0
 10
120.02
 20
-344.642
 11
124.42
 21
-341.266
  0
LINE
  8
0
 10
124.42
 20
-341.266
 11
125.488
 21
-340.348
  0
LINE
  8
0
 10
125.488
 20
-340.348
 11
129.615
 21
-336.382
  0
LINE
  8
0
 10
129.615
 20
-336.382
 11
130.538
 21
-335.395
  0
LINE
  8
0
 10
130.538
 20
-335.395
 11
134.394
 21
-330.806
  0
LINE
  8
0
 10
134.394
 20
-330.806
 11
135.155
 21
-329.804
  0
LINE
  8
0
 10
135.155
 20
-329.804
 11
138.741
 21
-324.559
  0
LINE
  8
0
 10
138.741
 20
-324.559
 11
139.343
 21
-323.587
  0
LINE
  8
0
 10
139.343
 20
-323.587
 11
142.66
 21
-317.651
  0
LINE
  8
0
 10
142.66
 20
-317.651
 11
143.121
 21
-316.744
  0
LINE
  8
0
 10
143.121
 20
-316.744
 11
146.172
 21
-310.081
  0
LINE
  8
0
 10
146.172
 20
-310.081
 11
146.425
 21
-309.332
  0
LINE
  8
0
 10
146.425
 20
-309.332
 11
146.473
 21
-309.35
  0
LINE
  8
0
 10
146.473
 20
-309.35
 11
148.548
 21
-303.958
  0
LINE
  8
0
 10
148.548
 20
-303.958
 11
148.767
 21
-303.344
  0
LINE
  8
0
 10
148.767
 20
-303.344
 11
150.561
 21
-297.861
  0
LINE
  8
0
 10
150.561
 20
-297.861
 11
150.74
 21
-297.262
  0
LINE
  8
0
 10
150.74
 20
-297.262
 11
152.262
 21
-291.699
  0
LINE
  8
0
 10
152.262
 20
-291.699
 11
152.406
 21
-291.118
  0
LINE
  8
0
 10
152.406
 20
-291.118
 11
153.665
 21
-285.483
  0
LINE
  8
0
 10
153.665
 20
-285.483
 11
153.777
 21
-284.924
  0
LINE
  8
0
 10
153.777
 20
-284.924
 11
154.784
 21
-279.226
  0
LINE
  8
0
 10
154.784
 20
-279.226
 11
154.867
 21
-278.69
  0
LINE
  8
0
 10
154.867
 20
-278.69
 11
155.632
 21
-272.937
  0
LINE
  8
0
 10
155.632
 20
-272.937
 11
155.689
 21
-272.426
  0
LINE
  8
0
 10
155.689
 20
-272.426
 11
156.223
 21
-266.626
  0
LINE
  8
0
 10
156.223
 20
-266.626
 11
156.258
 21
-266.141
  0
LINE
  8
0
 10
156.258
 20
-266.141
 11
156.571
 21
-260.301
  0
LINE
  8
0
 10
156.571
 20
-260.301
 11
156.587
 21
-259.843
  0
LINE
  8
0
 10
156.587
 20
-259.843
 11
156.689
 21
-253.972
  0
LINE
  8
0
 10
156.689
 20
-253.972
 11
156.689
 21
-253.539
  0
LINE
  8
0
 10
156.689
 20
-253.539
 11
156.591
 21
-247.645
  0
LINE
  8
0
 10
156.591
 20
-247.645
 11
156.578
 21
-247.238
  0
LINE
  8
0
 10
156.578
 20
-247.238
 11
156.289
 21
-241.328
  0
LINE
  8
0
 10
156.289
 20
-241.328
 11
156.264
 21
-240.945
  0
LINE
  8
0
 10
156.264
 20
-240.945
 11
155.796
 21
-235.028
  0
LINE
  8
0
 10
155.796
 20
-235.028
 11
155.762
 21
-234.669
  0
LINE
  8
0
 10
155.762
 20
-234.669
 11
155.124
 21
-228.752
  0
LINE
  8
0
 10
155.124
 20
-228.752
 11
155.083
 21
-228.415
  0
LINE
  8
0
 10
155.083
 20
-228.415
 11
154.285
 21
-222.505
  0
LINE
  8
0
 10
154.285
 20
-222.505
 11
154.238
 21
-222.19
  0
LINE
  8
0
 10
154.238
 20
-222.19
 11
153.291
 21
-216.295
  0
LINE
  8
0
 10
153.291
 20
-216.295
 11
153.24
 21
-215.999
  0
LINE
  8
0
 10
153.24
 20
-215.999
 11
152.153
 21
-210.127
  0
LINE
  8
0
 10
152.153
 20
-210.127
 11
152.099
 21
-209.851
  0
LINE
  8
0
 10
152.099
 20
-209.851
 11
150.883
 21
-204.007
  0
LINE
  8
0
 10
150.883
 20
-204.007
 11
150.827
 21
-203.749
  0
LINE
  8
0
 10
150.827
 20
-203.749
 11
149.492
 21
-197.941
  0
LINE
  8
0
 10
149.492
 20
-197.941
 11
149.435
 21
-197.7
  0
LINE
  8
0
 10
149.435
 20
-197.7
 11
147.991
 21
-191.935
  0
LINE
  8
0
 10
147.991
 20
-191.935
 11
147.933
 21
-191.711
  0
LINE
  8
0
 10
147.933
 20
-191.711
 11
146.39
 21
-185.995
  0
LINE
  8
0
 10
146.39
 20
-185.995
 11
146.293
 21
-185.743
  0
LINE
  8
0
 10
146.293
 20
-185.743
 11
146.315
 21
-185.736
  0
LINE
  8
0
 10
146.315
 20
-185.736
 11
143.839
 21
-177.278
  0
LINE
  8
0
 10
143.839
 20
-177.278
 11
143.754
 21
-177
  0
LINE
  8
0
 10
143.754
 20
-177
 11
141.109
 21
-168.676
  0
LINE
  8
0
 10
141.109
 20
-168.676
 11
141.028
 21
-168.428
  0
LINE
  8
0
 10
141.028
 20
-168.428
 11
138.249
 21
-160.265
  0
LINE
  8
0
 10
138.249
 20
-160.265
 11
138.172
 21
-160.046
  0
LINE
  8
0
 10
138.172
 20
-160.046
 11
135.289
 21
-152.062
  0
LINE
  8
0
 10
135.289
 20
-152.062
 11
135.218
 21
-151.869
  0
LINE
  8
0
 10
135.218
 20
-151.869
 11
132.262
 21
-144.078
  0
LINE
  8
0
 10
132.262
 20
-144.078
 11
132.197
 21
-143.911
  0
LINE
  8
0
 10
132.197
 20
-143.911
 11
129.137
 21
-136.181
  0
LINE
  8
0
 10
129.137
 20
-136.181
 11
126.065
 21
-128.687
  0
LINE
  8
0
 10
126.065
 20
-128.687
 11
123.003
 21
-121.432
  0
LINE
  8
0
 10
123.003
 20
-121.432
 11
119.971
 21
-114.414
  0
LINE
  8
0
 10
119.971
 20
-114.414
 11
116.981
 21
-107.624
  0
LINE
  8
0
 10
116.981
 20
-107.624
 11
114.039
 21
-101.045
  0
LINE
  8
0
 10
114.039
 20
-101.045
 11
111.14
 21
-94.6488
  0
LINE
  8
0
 10
111.14
 20
-94.6488
 11
108.27
 21
-88.3991
  0
LINE
  8
0
 10
108.27
 20
-88.3991
 11
105.402
 21
-82.2482
  0
LINE
  8
0
 10
105.402
 20
-82.2482
 11
102.5
 21
-76.1402
  0
LINE
  8
0
 10
102.5
 20
-76.1402
 11
99.5151
 21
-70.014
  0
LINE
  8
0
 10
99.5151
 20
-70.014
 11
96.4779
 21
-63.9648
  0
LINE
  8
0
 10
96.4779
 20
-63.9648
 11
96.3963
 21
-63.805
  0
LINE
  8
0
 10
96.3963
 20
-63.805
 11
93.1786
 21
-57.6161
  0
LINE
  8
0
 10
93.1786
 20
-57.6161
 11
93.089
 21
-57.4468
  0
LINE
  8
0
 10
93.089
 20
-57.4468
 11
89.6305
 21
-51.0329
  0
LINE
  8
0
 10
89.6305
 20
-51.0329
 11
89.5409
 21
-50.8696
  0
LINE
  8
0
 10
89.5409
 20
-50.8696
 11
85.7843
 21
-44.141
  0
LINE
  8
0
 10
85.7843
 20
-44.141
 11
84.2549
 21
-41.9708
  0
LINE
  8
0
 10
84.2549
 20
-41.9708
 11
82.3076
 21
-40.166
  0
LINE
  8
0
 10
82.3076
 20
-40.166
 11
80.0276
 21
-38.8055
  0
LINE
  8
0
 10
80.0276
 20
-38.8055
 11
77.5146
 21
-37.9487
  0
LINE
  8
0
 10
77.5146
 20
-37.9487
 11
74.8784
 21
-37.6332
  0
LINE
  8
0
 10
74.8784
 20
-37.6332
 11
72.2342
 21
-37.8727
  0
LINE
  8
0
 10
72.2342
 20
-37.8727
 11
69.6976
 21
-38.6566
  0
LINE
  8
0
 10
69.6976
 20
-38.6566
 11
68.4296
 21
-39.2852
  0
LINE
  8
0
 10
68.4296
 20
-39.2852
 11
17.6148
 21
-68.1079
  0
LINE
  8
0
 10
17.6148
 20
-68.1079
 11
15.455
 21
-69.6521
  0
LINE
  8
0
 10
15.455
 20
-69.6521
 11
13.6635
 21
-71.6115
  0
LINE
  8
0
 10
13.6635
 20
-71.6115
 11
12.3184
 21
-73.9006
  0
LINE
  8
0
 10
12.3184
 20
-73.9006
 11
11.4787
 21
-76.4194
  0
LINE
  8
0
 10
11.4787
 20
-76.4194
 11
11.181
 21
-79.0576
  0
LINE
  8
0
 10
11.181
 20
-79.0576
 11
11.4384
 21
-81.7002
  0
LINE
  8
0
 10
11.4384
 20
-81.7002
 11
12.6941
 21
-85.1673
  0
LINE
  8
0
 10
12.6941
 20
-85.1673
 11
15.9225
 21
-91.1737
  0
LINE
  8
0
 10
15.9225
 20
-91.1737
 11
18.5673
 21
-96.7163
  0
LINE
  8
0
 10
18.5673
 20
-96.7163
 11
20.794
 21
-102.066
  0
LINE
  8
0
 10
20.794
 20
-102.066
 11
22.6334
 21
-107.248
  0
LINE
  8
0
 10
22.6334
 20
-107.248
 11
24.1181
 21
-112.292
  0
LINE
  8
0
 10
24.1181
 20
-112.292
 11
25.2809
 21
-117.236
  0
LINE
  8
0
 10
25.2809
 20
-117.236
 11
26.1541
 21
-122.12
  0
LINE
  8
0
 10
26.1541
 20
-122.12
 11
26.7688
 21
-126.988
  0
LINE
  8
0
 10
26.7688
 20
-126.988
 11
27.1545
 21
-131.88
  0
LINE
  8
0
 10
27.1545
 20
-131.88
 11
27.3393
 21
-136.832
  0
LINE
  8
0
 10
27.3393
 20
-136.832
 11
27.3502
 21
-141.873
  0
LINE
  8
0
 10
27.3502
 20
-141.873
 11
27.2135
 21
-147.023
  0
LINE
  8
0
 10
27.2135
 20
-147.023
 11
26.954
 21
-152.296
  0
LINE
  8
0
 10
26.954
 20
-152.296
 11
26.5947
 21
-157.7
  0
LINE
  8
0
 10
26.5947
 20
-157.7
 11
26.156
 21
-163.239
  0
LINE
  8
0
 10
26.156
 20
-163.239
 11
25.6558
 21
-168.915
  0
LINE
  8
0
 10
25.6558
 20
-168.915
 11
25.1095
 21
-174.723
  0
LINE
  8
0
 10
25.1095
 20
-174.723
 11
24.5283
 21
-180.668
  0
LINE
  8
0
 10
24.5283
 20
-180.668
 11
23.9241
 21
-186.727
  0
LINE
  8
0
 10
23.9241
 20
-186.727
 11
23.3067
 21
-192.876
  0
LINE
  8
0
 10
23.3067
 20
-192.876
 11
23.3035
 21
-192.893
  0
LINE
  8
0
 10
23.3035
 20
-192.893
 11
20.525
 21
-220.268
  0
LINE
  8
0
 10
20.525
 20
-220.268
 11
20.0152
 21
-225.253
  0
LINE
  8
0
 10
20.0152
 20
-225.253
 11
20.0154
 21
-225.319
  0
LINE
  8
0
 10
20.0154
 20
-225.319
 11
19.3368
 21
-232.164
  0
LINE
  8
0
 10
19.3368
 20
-232.164
 11
18.7186
 21
-238.824
  0
LINE
  8
0
 10
18.7186
 20
-238.824
 11
18.1585
 21
-245.284
  0
LINE
  8
0
 10
18.1585
 20
-245.284
 11
17.6511
 21
-251.552
  0
LINE
  8
0
 10
17.6511
 20
-251.552
 11
17.1902
 21
-257.637
  0
LINE
  8
0
 10
17.1902
 20
-257.637
 11
16.769
 21
-263.547
  0
LINE
  8
0
 10
16.769
 20
-263.547
 11
16.3805
 21
-269.291
  0
LINE
  8
0
 10
16.3805
 20
-269.291
 11
16.0172
 21
-274.878
  0
LINE
  8
0
 10
16.0172
 20
-274.878
 11
15.3356
 21
-285.62
  0
LINE
  8
0
 10
15.3356
 20
-285.62
 11
15.0028
 21
-290.782
  0
LINE
  8
0
 10
15.0028
 20
-290.782
 11
14.6647
 21
-295.832
  0
LINE
  8
0
 10
14.6647
 20
-295.832
 11
14.3154
 21
-300.758
  0
LINE
  8
0
 10
14.3154
 20
-300.758
 11
13.9478
 21
-305.576
  0
LINE
  8
0
 10
13.9478
 20
-305.576
 11
13.5556
 21
-310.294
  0
LINE
  8
0
 10
13.5556
 20
-310.294
 11
13.133
 21
-314.916
  0
LINE
  8
0
 10
13.133
 20
-314.916
 11
12.6752
 21
-319.447
  0
LINE
  8
0
 10
12.6752
 20
-319.447
 11
12.1767
 21
-323.896
  0
LINE
  8
0
 10
12.1767
 20
-323.896
 11
11.6335
 21
-328.268
  0
LINE
  8
0
 10
11.6335
 20
-328.268
 11
11.0293
 21
-332.658
  0
LINE
  8
0
 10
11.0293
 20
-332.658
 11
10.9441
 21
-335.312
  0
LINE
  8
0
 10
10.9441
 20
-335.312
 11
11.4126
 21
-337.925
  0
LINE
  8
0
 10
11.4126
 20
-337.925
 11
12.4141
 21
-340.384
  0
LINE
  8
0
 10
12.4141
 20
-340.384
 11
13.905
 21
-342.581
  0
LINE
  8
0
 10
13.905
 20
-342.581
 11
15.8201
 21
-344.42
  0
LINE
  8
0
 10
15.8201
 20
-344.42
 11
18.0757
 21
-345.821
  0
LINE
  8
0
 10
18.0757
 20
-345.821
 11
19.8475
 21
-346.52
  0
LINE
  8
0
 10
19.8475
 20
-346.52
 11
27.6286
 21
-348.934
  0
LINE
  8
0
 10
27.6286
 20
-348.934
 11
28.0337
 21
-349.052
  0
LINE
  8
0
 10
28.0337
 20
-349.052
 11
35.6393
 21
-351.137
  0
LINE
  8
0
 10
35.6393
 20
-351.137
 11
36.0766
 21
-351.249
  0
LINE
  8
0
 10
36.0766
 20
-351.249
 11
43.4918
 21
-353.001
  0
LINE
  8
0
 10
43.4918
 20
-353.001
 11
43.9697
 21
-353.105
  0
LINE
  8
0
 10
43.9697
 20
-353.105
 11
51.1805
 21
-354.518
  0
LINE
  8
0
 10
51.1805
 20
-354.518
 11
51.7093
 21
-354.61
  0
LINE
  8
0
 10
51.7093
 20
-354.61
 11
58.7027
 21
-355.676
  0
LINE
  8
0
 10
58.7027
 20
-355.676
 11
59.2938
 21
-355.752
  0
LINE
  8
0
 10
59.2938
 20
-355.752
 11
66.058
 21
-356.461
  0
LINE
  8
0
 10
66.058
 20
-356.461
 11
66.7241
 21
-356.513
  0
LINE
  8
0
 10
66.7241
 20
-356.513
 11
73.2487
 21
-356.85
  0
LINE
  8
0
 10
73.2487
 20
-356.85
 11
74.0026
 21
-356.867
  0
LINE
  8
0
 10
74.0026
 20
-356.867
 11
80.2785
 21
-356.819
  0
LINE
  8
0
 10
67.3808
 20
-343.83
 11
60.6167
 21
-343.121
  0
LINE
  8
0
 10
60.6167
 20
-343.121
 11
53.6233
 21
-342.055
  0
LINE
  8
0
 10
53.6233
 20
-342.055
 11
46.4125
 21
-340.642
  0
LINE
  8
0
 10
46.4125
 20
-340.642
 11
38.9973
 21
-338.889
  0
LINE
  8
0
 10
38.9973
 20
-338.889
 11
31.3917
 21
-336.804
  0
LINE
  8
0
 10
31.3917
 20
-336.804
 11
23.6106
 21
-334.39
  0
LINE
  8
0
 10
23.6106
 20
-334.39
 11
24.2263
 21
-329.917
  0
LINE
  8
0
 10
24.2263
 20
-329.917
 11
24.7893
 21
-325.386
  0
LINE
  8
0
 10
24.7893
 20
-325.386
 11
25.3039
 21
-320.792
  0
LINE
  8
0
 10
25.3039
 20
-320.792
 11
25.7749
 21
-316.131
  0
LINE
  8
0
 10
25.7749
 20
-316.131
 11
26.2076
 21
-311.398
  0
LINE
  8
0
 10
26.2076
 20
-311.398
 11
26.6076
 21
-306.586
  0
LINE
  8
0
 10
26.6076
 20
-306.586
 11
26.9812
 21
-301.691
  0
LINE
  8
0
 10
26.9812
 20
-301.691
 11
27.3348
 21
-296.703
  0
LINE
  8
0
 10
27.3348
 20
-296.703
 11
27.6754
 21
-291.617
  0
LINE
  8
0
 10
27.6754
 20
-291.617
 11
28.0101
 21
-286.424
  0
LINE
  8
0
 10
28.0101
 20
-286.424
 11
28.6917
 21
-275.682
  0
LINE
  8
0
 10
28.6917
 20
-275.682
 11
29.0538
 21
-270.115
  0
LINE
  8
0
 10
29.0538
 20
-270.115
 11
29.4401
 21
-264.404
  0
LINE
  8
0
 10
29.4401
 20
-264.404
 11
29.8581
 21
-258.54
  0
LINE
  8
0
 10
29.8581
 20
-258.54
 11
30.3148
 21
-252.512
  0
LINE
  8
0
 10
30.3148
 20
-252.512
 11
30.8171
 21
-246.309
  0
LINE
  8
0
 10
30.8171
 20
-246.309
 11
31.3711
 21
-239.922
  0
LINE
  8
0
 10
31.3711
 20
-239.922
 11
31.9824
 21
-233.338
  0
LINE
  8
0
 10
31.9824
 20
-233.338
 11
32.6555
 21
-226.55
  0
LINE
  8
0
 10
32.6555
 20
-226.55
 11
32.6492
 21
-226.545
  0
LINE
  8
0
 10
32.6492
 20
-226.545
 11
33.1591
 21
-221.561
  0
LINE
  8
0
 10
33.1591
 20
-221.561
 11
35.9386
 21
-194.176
  0
LINE
  8
0
 10
35.9386
 20
-194.176
 11
35.9401
 21
-194.176
  0
LINE
  8
0
 10
35.9401
 20
-194.176
 11
36.5606
 21
-187.996
  0
LINE
  8
0
 10
36.5606
 20
-187.996
 11
37.1671
 21
-181.913
  0
LINE
  8
0
 10
37.1671
 20
-181.913
 11
37.7513
 21
-175.937
  0
LINE
  8
0
 10
37.7513
 20
-175.937
 11
38.3036
 21
-170.067
  0
LINE
  8
0
 10
38.3036
 20
-170.067
 11
38.8119
 21
-164.298
  0
LINE
  8
0
 10
38.8119
 20
-164.298
 11
39.2613
 21
-158.623
  0
LINE
  8
0
 10
39.2613
 20
-158.623
 11
39.6333
 21
-153.029
  0
LINE
  8
0
 10
39.6333
 20
-153.029
 11
39.9052
 21
-147.503
  0
LINE
  8
0
 10
39.9052
 20
-147.503
 11
40.0506
 21
-142.028
  0
LINE
  8
0
 10
40.0506
 20
-142.028
 11
40.0388
 21
-136.582
  0
LINE
  8
0
 10
40.0388
 20
-136.582
 11
39.8359
 21
-131.144
  0
LINE
  8
0
 10
39.8359
 20
-131.144
 11
39.4061
 21
-125.693
  0
LINE
  8
0
 10
39.4061
 20
-125.693
 11
38.7132
 21
-120.206
  0
LINE
  8
0
 10
38.7132
 20
-120.206
 11
37.7222
 21
-114.663
  0
LINE
  8
0
 10
37.7222
 20
-114.663
 11
36.4004
 21
-109.043
  0
LINE
  8
0
 10
36.4004
 20
-109.043
 11
34.7182
 21
-103.328
  0
LINE
  8
0
 10
34.7182
 20
-103.328
 11
32.6491
 21
-97.4989
  0
LINE
  8
0
 10
32.6491
 20
-97.4989
 11
30.1684
 21
-91.5385
  0
LINE
  8
0
 10
30.1684
 20
-91.5385
 11
27.2532
 21
-85.4292
  0
LINE
  8
0
 10
27.2532
 20
-85.4292
 11
23.8806
 21
-79.1546
  0
LINE
  8
0
 10
23.8806
 20
-79.1546
 11
74.6954
 21
-50.3319
  0
LINE
  8
0
 10
74.6954
 20
-50.3319
 11
78.452
 21
-57.0605
  0
LINE
  8
0
 10
78.452
 20
-57.0605
 11
81.9105
 21
-63.4744
  0
LINE
  8
0
 10
81.9105
 20
-63.4744
 11
85.1282
 21
-69.6633
  0
LINE
  8
0
 10
85.1282
 20
-69.6633
 11
88.1654
 21
-75.7125
  0
LINE
  8
0
 10
88.1654
 20
-75.7125
 11
91.0818
 21
-81.7009
  0
LINE
  8
0
 10
91.0818
 20
-81.7009
 11
93.9313
 21
-87.6984
  0
LINE
  8
0
 10
93.9313
 20
-87.6984
 11
96.759
 21
-93.7647
  0
LINE
  8
0
 10
96.759
 20
-93.7647
 11
99.5984
 21
-99.9483
  0
LINE
  8
0
 10
99.5984
 20
-99.9483
 11
102.471
 21
-106.287
  0
LINE
  8
0
 10
102.471
 20
-106.287
 11
105.387
 21
-112.809
  0
LINE
  8
0
 10
105.387
 20
-112.809
 11
108.348
 21
-119.532
  0
LINE
  8
0
 10
108.348
 20
-119.532
 11
111.345
 21
-126.469
  0
LINE
  8
0
 10
111.345
 20
-126.469
 11
114.364
 21
-133.624
  0
LINE
  8
0
 10
114.364
 20
-133.624
 11
117.386
 21
-140.997
  0
LINE
  8
0
 10
117.386
 20
-140.997
 11
120.388
 21
-148.584
  0
LINE
  8
0
 10
120.388
 20
-148.584
 11
123.344
 21
-156.375
  0
LINE
  8
0
 10
123.344
 20
-156.375
 11
126.226
 21
-164.359
  0
LINE
  8
0
 10
126.226
 20
-164.359
 11
129.005
 21
-172.521
  0
LINE
  8
0
 10
129.005
 20
-172.521
 11
131.65
 21
-180.846
  0
LINE
  8
0
 10
131.65
 20
-180.846
 11
134.126
 21
-189.304
  0
LINE
  8
0
 10
134.126
 20
-189.304
 11
134.129
 21
-189.304
  0
LINE
  8
0
 10
134.129
 20
-189.304
 11
135.671
 21
-195.02
  0
LINE
  8
0
 10
135.671
 20
-195.02
 11
137.115
 21
-200.785
  0
LINE
  8
0
 10
137.115
 20
-200.785
 11
138.45
 21
-206.593
  0
LINE
  8
0
 10
138.45
 20
-206.593
 11
139.665
 21
-212.437
  0
LINE
  8
0
 10
139.665
 20
-212.437
 11
140.752
 21
-218.31
  0
LINE
  8
0
 10
140.752
 20
-218.31
 11
141.699
 21
-224.205
  0
LINE
  8
0
 10
141.699
 20
-224.205
 11
142.497
 21
-230.114
  0
LINE
  8
0
 10
142.497
 20
-230.114
 11
143.135
 21
-236.031
  0
LINE
  8
0
 10
143.135
 20
-236.031
 11
143.604
 21
-241.948
  0
LINE
  8
0
 10
143.604
 20
-241.948
 11
143.893
 21
-247.858
  0
LINE
  8
0
 10
143.893
 20
-247.858
 11
143.991
 21
-253.752
  0
LINE
  8
0
 10
143.991
 20
-253.752
 11
143.889
 21
-259.622
  0
LINE
  8
0
 10
143.889
 20
-259.622
 11
143.576
 21
-265.462
  0
LINE
  8
0
 10
143.576
 20
-265.462
 11
143.043
 21
-271.262
  0
LINE
  8
0
 10
143.043
 20
-271.262
 11
142.277
 21
-277.016
  0
LINE
  8
0
 10
142.277
 20
-277.016
 11
141.27
 21
-282.714
  0
LINE
  8
0
 10
141.27
 20
-282.714
 11
140.011
 21
-288.349
  0
LINE
  8
0
 10
140.011
 20
-288.349
 11
138.49
 21
-293.912
  0
LINE
  8
0
 10
138.49
 20
-293.912
 11
136.696
 21
-299.395
  0
LINE
  8
0
 10
136.696
 20
-299.395
 11
134.62
 21
-304.788
  0
LINE
  8
0
 10
134.62
 20
-304.788
 11
134.626
 21
-304.792
  0
LINE
  8
0
 10
134.626
 20
-304.792
 11
131.574
 21
-311.455
  0
LINE
  8
0
 10
131.574
 20
-311.455
 11
128.257
 21
-317.391
  0
LINE
  8
0
 10
128.257
 20
-317.391
 11
124.671
 21
-322.636
  0
LINE
  8
0
 10
124.671
 20
-322.636
 11
120.815
 21
-327.225
  0
LINE
  8
0
 10
120.815
 20
-327.225
 11
116.688
 21
-331.191
  0
LINE
  8
0
 10
116.688
 20
-331.191
 11
112.288
 21
-334.567
  0
LINE
  8
0
 10
112.288
 20
-334.567
 11
107.615
 21
-337.386
  0
LINE
  8
0
 10
107.615
 20
-337.386
 11
102.668
 21
-339.677
  0
LINE
  8
0
 10
102.668
 20
-339.677
 11
97.4481
 21
-341.47
  0
LINE
  8
0
 10
97.4481
 20
-341.47
 11
91.9581
 21
-342.792
  0
LINE
  8
0
 10
91.9581
 20
-342.792
 11
86.2009
 21
-343.668
  0
LINE
  8
0
 10
86.2009
 20
-343.668
 11
80.1813
 21
-344.119
  0
LINE
  8
0
 10
80.1813
 20
-344.119
 11
73.9054
 21
-344.167
  0
LINE
  8
0
 10
73.9054
 20
-344.167
 11
67.3808
 21
-343.83
  0
LINE
  8
0
 10
212.135
 20
-368.451
 11
214.648
 21
-367.594
  0
LINE
  8
0
 10
214.648
 20
-367.594
 11
216.928
 21
-366.234
  0
LINE
  8
0
 10
216.928
 20
-366.234
 11
218.875
 21
-364.429
  0
LINE
  8
0
 10
218.875
 20
-364.429
 11
220.404
 21
-362.259
  0
LINE
  8
0
 10
220.404
 20
-362.259
 11
224.161
 21
-355.53
  0
LINE
  8
0
 10
224.161
 20
-355.53
 11
224.25
 21
-355.367
  0
LINE
  8
0
 10
224.25
 20
-355.367
 11
227.709
 21
-348.953
  0
LINE
  8
0
 10
227.709
 20
-348.953
 11
227.799
 21
-348.784
  0
LINE
  8
0
 10
227.799
 20
-348.784
 11
231.016
 21
-342.595
  0
LINE
  8
0
 10
231.016
 20
-342.595
 11
231.098
 21
-342.435
  0
LINE
  8
0
 10
231.098
 20
-342.435
 11
234.135
 21
-336.386
  0
LINE
  8
0
 10
234.135
 20
-336.386
 11
237.12
 21
-330.26
  0
LINE
  8
0
 10
237.12
 20
-330.26
 11
240.022
 21
-324.152
  0
LINE
  8
0
 10
240.022
 20
-324.152
 11
242.89
 21
-318.001
  0
LINE
  8
0
 10
242.89
 20
-318.001
 11
245.76
 21
-311.751
  0
LINE
  8
0
 10
245.76
 20
-311.751
 11
248.659
 21
-305.355
  0
LINE
  8
0
 10
248.659
 20
-305.355
 11
251.601
 21
-298.776
  0
LINE
  8
0
 10
251.601
 20
-298.776
 11
254.591
 21
-291.986
  0
LINE
  8
0
 10
254.591
 20
-291.986
 11
257.623
 21
-284.968
  0
LINE
  8
0
 10
257.623
 20
-284.968
 11
260.685
 21
-277.713
  0
LINE
  8
0
 10
260.685
 20
-277.713
 11
263.757
 21
-270.219
  0
LINE
  8
0
 10
263.757
 20
-270.219
 11
266.817
 21
-262.489
  0
LINE
  8
0
 10
266.817
 20
-262.489
 11
266.882
 21
-262.322
  0
LINE
  8
0
 10
266.882
 20
-262.322
 11
269.838
 21
-254.531
  0
LINE
  8
0
 10
269.838
 20
-254.531
 11
269.909
 21
-254.338
  0
LINE
  8
0
 10
269.909
 20
-254.338
 11
272.792
 21
-246.354
  0
LINE
  8
0
 10
272.792
 20
-246.354
 11
272.869
 21
-246.135
  0
LINE
  8
0
 10
272.869
 20
-246.135
 11
275.648
 21
-237.972
  0
LINE
  8
0
 10
275.648
 20
-237.972
 11
275.729
 21
-237.724
  0
LINE
  8
0
 10
275.729
 20
-237.724
 11
278.374
 21
-229.4
  0
LINE
  8
0
 10
278.374
 20
-229.4
 11
278.459
 21
-229.122
  0
LINE
  8
0
 10
278.459
 20
-229.122
 11
280.935
 21
-220.664
  0
LINE
  8
0
 10
280.935
 20
-220.664
 11
280.913
 21
-220.657
  0
LINE
  8
0
 10
280.913
 20
-220.657
 11
281.01
 21
-220.405
  0
LINE
  8
0
 10
281.01
 20
-220.405
 11
282.553
 21
-214.689
  0
LINE
  8
0
 10
282.553
 20
-214.689
 11
282.611
 21
-214.465
  0
LINE
  8
0
 10
282.611
 20
-214.465
 11
284.055
 21
-208.7
  0
LINE
  8
0
 10
284.055
 20
-208.7
 11
284.112
 21
-208.459
  0
LINE
  8
0
 10
284.112
 20
-208.459
 11
285.447
 21
-202.651
  0
LINE
  8
0
 10
285.447
 20
-202.651
 11
285.503
 21
-202.393
  0
LINE
  8
0
 10
285.503
 20
-202.393
 11
286.719
 21
-196.549
  0
LINE
  8
0
 10
286.719
 20
-196.549
 11
286.773
 21
-196.273
  0
LINE
  8
0
 10
286.773
 20
-196.273
 11
287.86
 21
-190.401
  0
LINE
  8
0
 10
287.86
 20
-190.401
 11
287.911
 21
-190.105
  0
LINE
  8
0
 10
287.911
 20
-190.105
 11
288.858
 21
-184.21
  0
LINE
  8
0
 10
288.858
 20
-184.21
 11
288.905
 21
-183.895
  0
LINE
  8
0
 10
288.905
 20
-183.895
 11
289.703
 21
-177.985
  0
LINE
  8
0
 10
289.703
 20
-177.985
 11
289.744
 21
-177.648
  0
LINE
  8
0
 10
289.744
 20
-177.648
 11
290.382
 21
-171.731
  0
LINE
  8
0
 10
290.382
 20
-171.731
 11
290.416
 21
-171.372
  0
LINE
  8
0
 10
290.416
 20
-171.372
 11
290.884
 21
-165.455
  0
LINE
  8
0
 10
290.884
 20
-165.455
 11
290.909
 21
-165.072
  0
LINE
  8
0
 10
290.909
 20
-165.072
 11
291.198
 21
-159.162
  0
LINE
  8
0
 10
291.198
 20
-159.162
 11
291.211
 21
-158.755
  0
LINE
  8
0
 10
291.211
 20
-158.755
 11
291.309
 21
-152.861
  0
LINE
  8
0
 10
291.309
 20
-152.861
 11
291.309
 21
-152.428
  0
LINE
  8
0
 10
291.309
 20
-152.428
 11
291.207
 21
-146.557
  0
LINE
  8
0
 10
291.207
 20
-146.557
 11
291.191
 21
-146.099
  0
LINE
  8
0
 10
291.191
 20
-146.099
 11
290.878
 21
-140.259
  0
LINE
  8
0
 10
290.878
 20
-140.259
 11
290.843
 21
-139.774
  0
LINE
  8
0
 10
290.843
 20
-139.774
 11
290.309
 21
-133.974
  0
LINE
  8
0
 10
290.309
 20
-133.974
 11
290.252
 21
-133.463
  0
LINE
  8
0
 10
290.252
 20
-133.463
 11
289.486
 21
-127.71
  0
LINE
  8
0
 10
289.486
 20
-127.71
 11
289.404
 21
-127.174
  0
LINE
  8
0
 10
289.404
 20
-127.174
 11
288.397
 21
-121.476
  0
LINE
  8
0
 10
288.397
 20
-121.476
 11
288.285
 21
-120.917
  0
LINE
  8
0
 10
288.285
 20
-120.917
 11
287.026
 21
-115.282
  0
LINE
  8
0
 10
287.026
 20
-115.282
 11
286.882
 21
-114.701
  0
LINE
  8
0
 10
286.882
 20
-114.701
 11
285.36
 21
-109.138
  0
LINE
  8
0
 10
285.36
 20
-109.138
 11
285.181
 21
-108.539
  0
LINE
  8
0
 10
285.181
 20
-108.539
 11
283.387
 21
-103.056
  0
LINE
  8
0
 10
283.387
 20
-103.056
 11
283.168
 21
-102.442
  0
LINE
  8
0
 10
283.168
 20
-102.442
 11
281.093
 21
-97.0497
  0
LINE
  8
0
 10
281.093
 20
-97.0497
 11
281.045
 21
-97.0681
  0
LINE
  8
0
 10
281.045
 20
-97.0681
 11
280.792
 21
-96.3192
  0
LINE
  8
0
 10
280.792
 20
-96.3192
 11
277.741
 21
-89.6563
  0
LINE
  8
0
 10
277.741
 20
-89.6563
 11
277.28
 21
-88.7492
  0
LINE
  8
0
 10
277.28
 20
-88.7492
 11
273.963
 21
-82.8129
  0
LINE
  8
0
 10
273.963
 20
-82.8129
 11
273.361
 21
-81.8413
  0
LINE
  8
0
 10
273.361
 20
-81.8413
 11
269.775
 21
-76.5963
  0
LINE
  8
0
 10
269.775
 20
-76.5963
 11
269.014
 21
-75.5935
  0
LINE
  8
0
 10
269.014
 20
-75.5935
 11
265.158
 21
-71.0051
  0
LINE
  8
0
 10
265.158
 20
-71.0051
 11
264.235
 21
-70.0177
  0
LINE
  8
0
 10
264.235
 20
-70.0177
 11
260.108
 21
-66.0519
  0
LINE
  8
0
 10
260.108
 20
-66.0519
 11
259.04
 21
-65.1338
  0
LINE
  8
0
 10
259.04
 20
-65.1338
 11
254.64
 21
-61.7576
  0
LINE
  8
0
 10
254.64
 20
-61.7576
 11
253.467
 21
-60.9579
  0
LINE
  8
0
 10
253.467
 20
-60.9579
 11
248.794
 21
-58.1392
  0
LINE
  8
0
 10
248.794
 20
-58.1392
 11
247.573
 21
-57.4906
  0
LINE
  8
0
 10
247.573
 20
-57.4906
 11
242.626
 21
-55.1991
  0
LINE
  8
0
 10
242.626
 20
-55.1991
 11
241.414
 21
-54.7119
  0
LINE
  8
0
 10
241.414
 20
-54.7119
 11
236.195
 21
-52.9187
  0
LINE
  8
0
 10
236.195
 20
-52.9187
 11
235.041
 21
-52.5825
  0
LINE
  8
0
 10
235.041
 20
-52.5825
 11
229.551
 21
-51.2606
  0
LINE
  8
0
 10
229.551
 20
-51.2606
 11
228.487
 21
-51.052
  0
LINE
  8
0
 10
228.487
 20
-51.052
 11
222.73
 21
-50.1765
  0
LINE
  8
0
 10
222.73
 20
-50.1765
 11
221.771
 21
-50.0678
  0
LINE
  8
0
 10
221.771
 20
-50.0678
 11
215.752
 21
-49.6161
  0
LINE
  8
0
 10
215.752
 20
-49.6161
 11
214.898
 21
-49.5809
  0
LINE
  8
0
 10
214.898
 20
-49.5809
 11
208.623
 21
-49.5329
  0
LINE
  8
0
 10
208.623
 20
-49.5329
 11
207.869
 21
-49.5495
  0
LINE
  8
0
 10
207.869
 20
-49.5495
 11
201.344
 21
-49.8874
  0
LINE
  8
0
 10
201.344
 20
-49.8874
 11
200.678
 21
-49.9395
  0
LINE
  8
0
 10
200.678
 20
-49.9395
 11
193.914
 21
-50.6479
  0
LINE
  8
0
 10
193.914
 20
-50.6479
 11
193.323
 21
-50.7239
  0
LINE
  8
0
 10
193.323
 20
-50.7239
 11
186.329
 21
-51.79
  0
LINE
  8
0
 10
186.329
 20
-51.79
 11
185.801
 21
-51.8821
  0
LINE
  8
0
 10
185.801
 20
-51.8821
 11
178.59
 21
-53.2954
  0
LINE
  8
0
 10
178.59
 20
-53.2954
 11
178.112
 21
-53.3987
  0
LINE
  8
0
 10
178.112
 20
-53.3987
 11
170.697
 21
-55.151
  0
LINE
  8
0
 10
170.697
 20
-55.151
 11
170.259
 21
-55.2626
  0
LINE
  8
0
 10
170.259
 20
-55.2626
 11
162.654
 21
-57.3479
  0
LINE
  8
0
 10
162.654
 20
-57.3479
 11
162.249
 21
-57.4662
  0
LINE
  8
0
 10
162.249
 20
-57.4662
 11
154.467
 21
-59.8802
  0
LINE
  8
0
 10
154.467
 20
-59.8802
 11
152.696
 21
-60.5795
  0
LINE
  8
0
 10
152.696
 20
-60.5795
 11
150.44
 21
-61.98
  0
LINE
  8
0
 10
150.44
 20
-61.98
 11
148.525
 21
-63.8189
  0
LINE
  8
0
 10
148.525
 20
-63.8189
 11
147.034
 21
-66.0158
  0
LINE
  8
0
 10
147.034
 20
-66.0158
 11
146.033
 21
-68.4747
  0
LINE
  8
0
 10
146.033
 20
-68.4747
 11
145.564
 21
-71.0881
  0
LINE
  8
0
 10
145.564
 20
-71.0881
 11
145.649
 21
-73.7417
  0
LINE
  8
0
 10
145.649
 20
-73.7417
 11
146.254
 21
-78.1316
  0
LINE
  8
0
 10
146.254
 20
-78.1316
 11
146.797
 21
-82.5038
  0
LINE
  8
0
 10
146.797
 20
-82.5038
 11
147.295
 21
-86.9532
  0
LINE
  8
0
 10
147.295
 20
-86.9532
 11
147.753
 21
-91.4842
  0
LINE
  8
0
 10
147.753
 20
-91.4842
 11
148.176
 21
-96.1064
  0
LINE
  8
0
 10
148.176
 20
-96.1064
 11
148.568
 21
-100.824
  0
LINE
  8
0
 10
148.568
 20
-100.824
 11
148.935
 21
-105.642
  0
LINE
  8
0
 10
148.935
 20
-105.642
 11
149.285
 21
-110.568
  0
LINE
  8
0
 10
149.285
 20
-110.568
 11
149.623
 21
-115.618
  0
LINE
  8
0
 10
149.623
 20
-115.618
 11
149.956
 21
-120.78
  0
LINE
  8
0
 10
149.956
 20
-120.78
 11
150.637
 21
-131.522
  0
LINE
  8
0
 10
150.637
 20
-131.522
 11
151.001
 21
-137.109
  0
LINE
  8
0
 10
151.001
 20
-137.109
 11
151.389
 21
-142.853
  0
LINE
  8
0
 10
151.389
 20
-142.853
 11
151.81
 21
-148.763
  0
LINE
  8
0
 10
151.81
 20
-148.763
 11
152.271
 21
-154.848
  0
LINE
  8
0
 10
152.271
 20
-154.848
 11
152.779
 21
-161.116
  0
LINE
  8
0
 10
152.779
 20
-161.116
 11
153.339
 21
-167.576
  0
LINE
  8
0
 10
153.339
 20
-167.576
 11
153.957
 21
-174.236
  0
LINE
  8
0
 10
153.957
 20
-174.236
 11
154.635
 21
-181.081
  0
LINE
  8
0
 10
154.635
 20
-181.081
 11
154.635
 21
-181.147
  0
LINE
  8
0
 10
154.635
 20
-181.147
 11
155.145
 21
-186.131
  0
LINE
  8
0
 10
155.145
 20
-186.131
 11
157.924
 21
-213.507
  0
LINE
  8
0
 10
157.924
 20
-213.507
 11
157.927
 21
-213.524
  0
LINE
  8
0
 10
157.927
 20
-213.524
 11
158.544
 21
-219.673
  0
LINE
  8
0
 10
158.544
 20
-219.673
 11
159.148
 21
-225.732
  0
LINE
  8
0
 10
159.148
 20
-225.732
 11
159.729
 21
-231.677
  0
LINE
  8
0
 10
159.729
 20
-231.677
 11
160.276
 21
-237.485
  0
LINE
  8
0
 10
160.276
 20
-237.485
 11
160.776
 21
-243.161
  0
LINE
  8
0
 10
160.776
 20
-243.161
 11
161.215
 21
-248.7
  0
LINE
  8
0
 10
161.215
 20
-248.7
 11
161.574
 21
-254.104
  0
LINE
  8
0
 10
161.574
 20
-254.104
 11
161.834
 21
-259.377
  0
LINE
  8
0
 10
161.834
 20
-259.377
 11
161.97
 21
-264.527
  0
LINE
  8
0
 10
161.97
 20
-264.527
 11
161.959
 21
-269.568
  0
LINE
  8
0
 10
161.959
 20
-269.568
 11
161.775
 21
-274.52
  0
LINE
  8
0
 10
161.775
 20
-274.52
 11
161.389
 21
-279.412
  0
LINE
  8
0
 10
161.389
 20
-279.412
 11
160.774
 21
-284.28
  0
LINE
  8
0
 10
160.774
 20
-284.28
 11
159.901
 21
-289.164
  0
LINE
  8
0
 10
159.901
 20
-289.164
 11
158.738
 21
-294.108
  0
LINE
  8
0
 10
158.738
 20
-294.108
 11
157.253
 21
-299.152
  0
LINE
  8
0
 10
157.253
 20
-299.152
 11
155.414
 21
-304.334
  0
LINE
  8
0
 10
155.414
 20
-304.334
 11
153.187
 21
-309.684
  0
LINE
  8
0
 10
153.187
 20
-309.684
 11
150.543
 21
-315.226
  0
LINE
  8
0
 10
150.543
 20
-315.226
 11
147.314
 21
-321.233
  0
LINE
  8
0
 10
147.314
 20
-321.233
 11
146.058
 21
-324.7
  0
LINE
  8
0
 10
146.058
 20
-324.7
 11
145.801
 21
-327.342
  0
LINE
  8
0
 10
145.801
 20
-327.342
 11
146.099
 21
-329.981
  0
LINE
  8
0
 10
146.099
 20
-329.981
 11
146.938
 21
-332.499
  0
LINE
  8
0
 10
146.938
 20
-332.499
 11
148.283
 21
-334.788
  0
LINE
  8
0
 10
148.283
 20
-334.788
 11
150.075
 21
-336.748
  0
LINE
  8
0
 10
150.075
 20
-336.748
 11
152.235
 21
-338.292
  0
LINE
  8
0
 10
152.235
 20
-338.292
 11
203.05
 21
-367.115
  0
LINE
  8
0
 10
203.05
 20
-367.115
 11
204.318
 21
-367.743
  0
LINE
  8
0
 10
204.318
 20
-367.743
 11
206.854
 21
-368.527
  0
LINE
  8
0
 10
206.854
 20
-368.527
 11
209.498
 21
-368.767
  0
LINE
  8
0
 10
209.498
 20
-368.767
 11
212.135
 21
-368.451
  0
LINE
  8
0
 10
158.501
 20
-327.245
 11
161.873
 21
-320.971
  0
LINE
  8
0
 10
161.873
 20
-320.971
 11
164.788
 21
-314.861
  0
LINE
  8
0
 10
164.788
 20
-314.861
 11
167.269
 21
-308.901
  0
LINE
  8
0
 10
167.269
 20
-308.901
 11
169.338
 21
-303.072
  0
LINE
  8
0
 10
169.338
 20
-303.072
 11
171.02
 21
-297.357
  0
LINE
  8
0
 10
171.02
 20
-297.357
 11
172.342
 21
-291.737
  0
LINE
  8
0
 10
172.342
 20
-291.737
 11
173.333
 21
-286.194
  0
LINE
  8
0
 10
173.333
 20
-286.194
 11
174.026
 21
-280.707
  0
LINE
  8
0
 10
174.026
 20
-280.707
 11
174.456
 21
-275.256
  0
LINE
  8
0
 10
174.456
 20
-275.256
 11
174.659
 21
-269.818
  0
LINE
  8
0
 10
174.659
 20
-269.818
 11
174.671
 21
-264.372
  0
LINE
  8
0
 10
174.671
 20
-264.372
 11
174.525
 21
-258.897
  0
LINE
  8
0
 10
174.525
 20
-258.897
 11
174.253
 21
-253.371
  0
LINE
  8
0
 10
174.253
 20
-253.371
 11
173.881
 21
-247.777
  0
LINE
  8
0
 10
173.881
 20
-247.777
 11
173.432
 21
-242.102
  0
LINE
  8
0
 10
173.432
 20
-242.102
 11
172.924
 21
-236.333
  0
LINE
  8
0
 10
172.924
 20
-236.333
 11
172.371
 21
-230.463
  0
LINE
  8
0
 10
172.371
 20
-230.463
 11
171.787
 21
-224.487
  0
LINE
  8
0
 10
171.787
 20
-224.487
 11
171.181
 21
-218.404
  0
LINE
  8
0
 10
171.181
 20
-218.404
 11
170.56
 21
-212.224
  0
LINE
  8
0
 10
170.56
 20
-212.224
 11
170.559
 21
-212.224
  0
LINE
  8
0
 10
170.559
 20
-212.224
 11
167.779
 21
-184.839
  0
LINE
  8
0
 10
167.779
 20
-184.839
 11
167.269
 21
-179.855
  0
LINE
  8
0
 10
167.269
 20
-179.855
 11
167.276
 21
-179.85
  0
LINE
  8
0
 10
167.276
 20
-179.85
 11
166.602
 21
-173.062
  0
LINE
  8
0
 10
166.602
 20
-173.062
 11
165.991
 21
-166.478
  0
LINE
  8
0
 10
165.991
 20
-166.478
 11
165.437
 21
-160.091
  0
LINE
  8
0
 10
165.437
 20
-160.091
 11
164.935
 21
-153.888
  0
LINE
  8
0
 10
164.935
 20
-153.888
 11
164.478
 21
-147.86
  0
LINE
  8
0
 10
164.478
 20
-147.86
 11
164.06
 21
-141.996
  0
LINE
  8
0
 10
164.06
 20
-141.996
 11
163.674
 21
-136.285
  0
LINE
  8
0
 10
163.674
 20
-136.285
 11
163.312
 21
-130.718
  0
LINE
  8
0
 10
163.312
 20
-130.718
 11
162.63
 21
-119.976
  0
LINE
  8
0
 10
162.63
 20
-119.976
 11
162.295
 21
-114.783
  0
LINE
  8
0
 10
162.295
 20
-114.783
 11
161.955
 21
-109.697
  0
LINE
  8
0
 10
161.955
 20
-109.697
 11
161.601
 21
-104.709
  0
LINE
  8
0
 10
161.601
 20
-104.709
 11
161.228
 21
-99.8135
  0
LINE
  8
0
 10
161.228
 20
-99.8135
 11
160.828
 21
-95.0021
  0
LINE
  8
0
 10
160.828
 20
-95.0021
 11
160.395
 21
-90.2687
  0
LINE
  8
0
 10
160.395
 20
-90.2687
 11
159.924
 21
-85.6077
  0
LINE
  8
0
 10
159.924
 20
-85.6077
 11
159.409
 21
-81.0138
  0
LINE
  8
0
 10
159.409
 20
-81.0138
 11
158.846
 21
-76.4825
  0
LINE
  8
0
 10
158.846
 20
-76.4825
 11
158.231
 21
-72.0099
  0
LINE
  8
0
 10
158.231
 20
-72.0099
 11
166.012
 21
-69.5959
  0
LINE
  8
0
 10
166.012
 20
-69.5959
 11
173.617
 21
-67.5106
  0
LINE
  8
0
 10
173.617
 20
-67.5106
 11
181.033
 21
-65.7583
  0
LINE
  8
0
 10
181.033
 20
-65.7583
 11
188.243
 21
-64.345
  0
LINE
  8
0
 10
188.243
 20
-64.345
 11
195.237
 21
-63.2788
  0
LINE
  8
0
 10
195.237
 20
-63.2788
 11
202.001
 21
-62.5704
  0
LINE
  8
0
 10
202.001
 20
-62.5704
 11
208.525
 21
-62.2325
  0
LINE
  8
0
 10
208.525
 20
-62.2325
 11
214.801
 21
-62.2805
  0
LINE
  8
0
 10
214.801
 20
-62.2805
 11
220.821
 21
-62.7322
  0
LINE
  8
0
 10
220.821
 20
-62.7322
 11
226.578
 21
-63.6077
  0
LINE
  8
0
 10
226.578
 20
-63.6077
 11
232.068
 21
-64.9296
  0
LINE
  8
0
 10
232.068
 20
-64.9296
 11
237.288
 21
-66.7229
  0
LINE
  8
0
 10
237.288
 20
-66.7229
 11
242.235
 21
-69.0144
  0
LINE
  8
0
 10
242.235
 20
-69.0144
 11
246.908
 21
-71.833
  0
LINE
  8
0
 10
246.908
 20
-71.833
 11
251.308
 21
-75.2093
  0
LINE
  8
0
 10
251.308
 20
-75.2093
 11
255.435
 21
-79.1752
  0
LINE
  8
0
 10
255.435
 20
-79.1752
 11
259.291
 21
-83.7636
  0
LINE
  8
0
 10
259.291
 20
-83.7636
 11
262.876
 21
-89.0087
  0
LINE
  8
0
 10
262.876
 20
-89.0087
 11
266.194
 21
-94.945
  0
LINE
  8
0
 10
266.194
 20
-94.945
 11
269.246
 21
-101.608
  0
LINE
  8
0
 10
269.246
 20
-101.608
 11
269.24
 21
-101.612
  0
LINE
  8
0
 10
269.24
 20
-101.612
 11
271.316
 21
-107.005
  0
LINE
  8
0
 10
271.316
 20
-107.005
 11
273.11
 21
-112.488
  0
LINE
  8
0
 10
273.11
 20
-112.488
 11
274.631
 21
-118.051
  0
LINE
  8
0
 10
274.631
 20
-118.051
 11
275.89
 21
-123.686
  0
LINE
  8
0
 10
275.89
 20
-123.686
 11
276.897
 21
-129.384
  0
LINE
  8
0
 10
276.897
 20
-129.384
 11
277.663
 21
-135.138
  0
LINE
  8
0
 10
277.663
 20
-135.138
 11
278.196
 21
-140.938
  0
LINE
  8
0
 10
278.196
 20
-140.938
 11
278.509
 21
-146.778
  0
LINE
  8
0
 10
278.509
 20
-146.778
 11
278.611
 21
-152.648
  0
LINE
  8
0
 10
278.611
 20
-152.648
 11
278.513
 21
-158.542
  0
LINE
  8
0
 10
278.513
 20
-158.542
 11
278.224
 21
-164.452
  0
LINE
  8
0
 10
278.224
 20
-164.452
 11
277.755
 21
-170.369
  0
LINE
  8
0
 10
277.755
 20
-170.369
 11
277.117
 21
-176.286
  0
LINE
  8
0
 10
277.117
 20
-176.286
 11
276.319
 21
-182.195
  0
LINE
  8
0
 10
276.319
 20
-182.195
 11
275.372
 21
-188.09
  0
LINE
  8
0
 10
275.372
 20
-188.09
 11
274.285
 21
-193.963
  0
LINE
  8
0
 10
274.285
 20
-193.963
 11
273.07
 21
-199.807
  0
LINE
  8
0
 10
273.07
 20
-199.807
 11
271.735
 21
-205.615
  0
LINE
  8
0
 10
271.735
 20
-205.615
 11
270.291
 21
-211.38
  0
LINE
  8
0
 10
270.291
 20
-211.38
 11
268.749
 21
-217.096
  0
LINE
  8
0
 10
268.749
 20
-217.096
 11
268.746
 21
-217.096
  0
LINE
  8
0
 10
268.746
 20
-217.096
 11
266.27
 21
-225.554
  0
LINE
  8
0
 10
266.27
 20
-225.554
 11
263.625
 21
-233.879
  0
LINE
  8
0
 10
263.625
 20
-233.879
 11
260.846
 21
-242.041
  0
LINE
  8
0
 10
260.846
 20
-242.041
 11
257.964
 21
-250.025
  0
LINE
  8
0
 10
257.964
 20
-250.025
 11
255.008
 21
-257.816
  0
LINE
  8
0
 10
255.008
 20
-257.816
 11
252.006
 21
-265.403
  0
LINE
  8
0
 10
252.006
 20
-265.403
 11
248.984
 21
-272.776
  0
LINE
  8
0
 10
248.984
 20
-272.776
 11
245.965
 21
-279.931
  0
LINE
  8
0
 10
245.965
 20
-279.931
 11
242.968
 21
-286.868
  0
LINE
  8
0
 10
242.968
 20
-286.868
 11
240.007
 21
-293.591
  0
LINE
  8
0
 10
240.007
 20
-293.591
 11
237.091
 21
-300.113
  0
LINE
  8
0
 10
237.091
 20
-300.113
 11
234.218
 21
-306.452
  0
LINE
  8
0
 10
234.218
 20
-306.452
 11
231.379
 21
-312.635
  0
LINE
  8
0
 10
231.379
 20
-312.635
 11
228.551
 21
-318.702
  0
LINE
  8
0
 10
228.551
 20
-318.702
 11
225.702
 21
-324.699
  0
LINE
  8
0
 10
225.702
 20
-324.699
 11
222.785
 21
-330.687
  0
LINE
  8
0
 10
222.785
 20
-330.687
 11
219.748
 21
-336.737
  0
LINE
  8
0
 10
219.748
 20
-336.737
 11
216.531
 21
-342.926
  0
LINE
  8
0
 10
216.531
 20
-342.926
 11
213.072
 21
-349.339
  0
LINE
  8
0
 10
213.072
 20
-349.339
 11
209.315
 21
-356.068
  0
LINE
  8
0
 10
209.315
 20
-356.068
 11
158.501
 21
-327.245
  0
ENDSEC
  0
SECTION
  2
OBJECTS
  0
DICTIONARY
  0
ENDSEC
  0
EOF
